# eyes - exported from blender/silhouette.blend by tools/blender_export.py
o eyes
v -0.03490 0.13969 -0.20627
v -0.03455 0.13997 -0.20348
v -0.03228 0.13609 -0.19893
v -0.03002 0.13012 -0.19931
v -0.02967 0.12831 -0.20146
v -0.04084 0.13732 -0.20292
v -0.04449 0.13406 -0.19981
v -0.04487 0.13079 -0.19780
v -0.04188 0.12838 -0.19741
v -0.03632 0.12747 -0.19875
v -0.04473 0.13528 -0.20351
v -0.05122 0.13054 -0.20084
v -0.05265 0.12672 -0.19899
v -0.04861 0.12485 -0.19844
v -0.04020 0.12543 -0.19935
v -0.04473 0.13464 -0.20504
v -0.05122 0.12942 -0.20349
v -0.05265 0.12543 -0.20204
v -0.04861 0.12373 -0.20108
v -0.04020 0.12479 -0.20087
v -0.04084 0.13563 -0.20691
v -0.04449 0.13114 -0.20674
v -0.04487 0.12741 -0.20579
v -0.04188 0.12545 -0.20433
v -0.03632 0.12578 -0.20275
v -0.03455 0.13788 -0.20842
v -0.03359 0.13504 -0.20935
v -0.03228 0.13191 -0.20881
v -0.03098 0.12935 -0.20694
v -0.03002 0.12803 -0.20425
v -0.02825 0.14053 -0.20898
v -0.02269 0.13963 -0.21033
v -0.01970 0.13721 -0.20994
v -0.02008 0.13394 -0.20792
v -0.02373 0.13068 -0.20482
v -0.02437 0.14257 -0.20839
v -0.01596 0.14315 -0.20930
v -0.01192 0.14128 -0.20875
v -0.01335 0.13746 -0.20689
v -0.01984 0.13272 -0.20422
v -0.02437 0.14321 -0.20686
v -0.01596 0.14427 -0.20665
v -0.01192 0.14258 -0.20569
v -0.01335 0.13858 -0.20425
v -0.01984 0.13336 -0.20270
v -0.02825 0.14222 -0.20499
v -0.02269 0.14255 -0.20340
v -0.01970 0.14059 -0.20194
v -0.02008 0.13686 -0.20100
v -0.02373 0.13237 -0.20082
v -0.03359 0.13865 -0.20079
v -0.03098 0.13297 -0.19839
v 0.03574 0.12380 -0.20404
v 0.03548 0.12427 -0.20133
v 0.03378 0.12162 -0.19730
v 0.03209 0.11688 -0.19820
v 0.03183 0.11526 -0.20043
v 0.03076 0.12591 -0.20258
v 0.02659 0.12631 -0.20102
v 0.02435 0.12490 -0.19979
v 0.02463 0.12204 -0.19922
v 0.02737 0.11852 -0.19945
v 0.02784 0.12652 -0.20429
v 0.02154 0.12737 -0.20399
v 0.01851 0.12612 -0.20322
v 0.01958 0.12311 -0.20219
v 0.02445 0.11913 -0.20117
v 0.02784 0.12588 -0.20582
v 0.02154 0.12625 -0.20664
v 0.01851 0.12483 -0.20628
v 0.01958 0.12199 -0.20483
v 0.02445 0.11849 -0.20269
v 0.03076 0.12422 -0.20657
v 0.02659 0.12338 -0.20795
v 0.02435 0.12152 -0.20779
v 0.02463 0.11912 -0.20614
v 0.02737 0.11683 -0.20345
v 0.03548 0.12218 -0.20627
v 0.03476 0.11985 -0.20742
v 0.03378 0.11744 -0.20718
v 0.03280 0.11559 -0.20561
v 0.03209 0.11479 -0.20314
v 0.04020 0.12054 -0.20502
v 0.04294 0.11702 -0.20525
v 0.04322 0.11417 -0.20468
v 0.04098 0.11275 -0.20345
v 0.03681 0.11315 -0.20190
v 0.04312 0.11993 -0.20330
v 0.04799 0.11595 -0.20228
v 0.04905 0.11294 -0.20125
v 0.04603 0.11169 -0.20048
v 0.03972 0.11254 -0.20018
v 0.04312 0.12057 -0.20178
v 0.04799 0.11707 -0.19964
v 0.04905 0.11423 -0.19820
v 0.04603 0.11281 -0.19783
v 0.03972 0.11319 -0.19865
v 0.04020 0.12223 -0.20102
v 0.04294 0.11994 -0.19833
v 0.04322 0.11755 -0.19669
v 0.04098 0.11568 -0.19653
v 0.03681 0.11484 -0.19790
v 0.03476 0.12347 -0.19886
v 0.03280 0.11921 -0.19706
vt 0.5000 0.5000
vt 0.5000 0.5000
vt 0.5000 0.5000
vt 0.5000 0.5000
vt 0.5000 0.5000
vt 0.5000 0.5000
vt 0.5000 0.5000
vt 0.5000 0.5000
vt 0.5000 0.5000
vt 0.5000 0.5000
vt 0.5000 0.5000
vt 0.5000 0.5000
vt 0.5000 0.5000
vt 0.5000 0.5000
vt 0.5000 0.5000
vt 0.5000 0.5000
vt 0.5000 0.5000
vt 0.5000 0.5000
vt 0.5000 0.5000
vt 0.5000 0.5000
vt 0.5000 0.5000
vt 0.5000 0.5000
vt 0.5000 0.5000
vt 0.5000 0.5000
vt 0.5000 0.5000
vt 0.5000 0.5000
vt 0.5000 0.5000
vt 0.5000 0.5000
vt 0.5000 0.5000
vt 0.5000 0.5000
vt 0.5000 0.5000
vt 0.5000 0.5000
vt 0.5000 0.5000
vt 0.5000 0.5000
vt 0.5000 0.5000
vt 0.5000 0.5000
vt 0.5000 0.5000
vt 0.5000 0.5000
vt 0.5000 0.5000
vt 0.5000 0.5000
vt 0.5000 0.5000
vt 0.5000 0.5000
vt 0.5000 0.5000
vt 0.5000 0.5000
vt 0.5000 0.5000
vt 0.5000 0.5000
vt 0.5000 0.5000
vt 0.5000 0.5000
vt 0.5000 0.5000
vt 0.5000 0.5000
vt 0.5000 0.5000
vt 0.5000 0.5000
vt 0.5000 0.5000
vt 0.5000 0.5000
vt 0.5000 0.5000
vt 0.5000 0.5000
vt 0.5000 0.5000
vt 0.5000 0.5000
vt 0.5000 0.5000
vt 0.5000 0.5000
vt 0.5000 0.5000
vt 0.5000 0.5000
vt 0.5000 0.5000
vt 0.5000 0.5000
vt 0.5000 0.5000
vt 0.5000 0.5000
vt 0.5000 0.5000
vt 0.5000 0.5000
vt 0.5000 0.5000
vt 0.5000 0.5000
vt 0.5000 0.5000
vt 0.5000 0.5000
vt 0.5000 0.5000
vt 0.5000 0.5000
vt 0.5000 0.5000
vt 0.5000 0.5000
vt 0.5000 0.5000
vt 0.5000 0.5000
vt 0.5000 0.5000
vt 0.5000 0.5000
vt 0.5000 0.5000
vt 0.5000 0.5000
vt 0.5000 0.5000
vt 0.5000 0.5000
vt 0.5000 0.5000
vt 0.5000 0.5000
vt 0.5000 0.5000
vt 0.5000 0.5000
vt 0.5000 0.5000
vt 0.5000 0.5000
vt 0.5000 0.5000
vt 0.5000 0.5000
vt 0.5000 0.5000
vt 0.5000 0.5000
vt 0.5000 0.5000
vt 0.5000 0.5000
vt 0.5000 0.5000
vt 0.5000 0.5000
vt 0.5000 0.5000
vt 0.5000 0.5000
vt 0.5000 0.5000
vt 0.5000 0.5000
vt 0.5000 0.5000
vt 0.5000 0.5000
vt 0.5000 0.5000
vt 0.5000 0.5000
vt 0.5000 0.5000
vt 0.5000 0.5000
vt 0.5000 0.5000
vt 0.5000 0.5000
vt 0.5000 0.5000
vt 0.5000 0.5000
vt 0.5000 0.5000
vt 0.5000 0.5000
vt 0.5000 0.5000
vt 0.5000 0.5000
vt 0.5000 0.5000
vt 0.5000 0.5000
vt 0.5000 0.5000
vt 0.5000 0.5000
vt 0.5000 0.5000
vt 0.5000 0.5000
vt 0.5000 0.5000
vt 0.5000 0.5000
vt 0.5000 0.5000
vt 0.5000 0.5000
vt 0.5000 0.5000
vt 0.5000 0.5000
vt 0.5000 0.5000
vt 0.5000 0.5000
vt 0.5000 0.5000
vt 0.5000 0.5000
vt 0.5000 0.5000
vt 0.5000 0.5000
vt 0.5000 0.5000
vt 0.5000 0.5000
vt 0.5000 0.5000
vt 0.5000 0.5000
vt 0.5000 0.5000
vt 0.5000 0.5000
vt 0.5000 0.5000
vt 0.5000 0.5000
vt 0.5000 0.5000
vt 0.5000 0.5000
vt 0.5000 0.5000
vt 0.5000 0.5000
vt 0.5000 0.5000
vt 0.5000 0.5000
vt 0.5000 0.5000
vt 0.5000 0.5000
vt 0.5000 0.5000
vt 0.5000 0.5000
vt 0.5000 0.5000
vt 0.5000 0.5000
vt 0.5000 0.5000
vt 0.5000 0.5000
vt 0.5000 0.5000
vt 0.5000 0.5000
vt 0.5000 0.5000
vt 0.5000 0.5000
vt 0.5000 0.5000
vt 0.5000 0.5000
vt 0.5000 0.5000
vt 0.5000 0.5000
vt 0.5000 0.5000
vt 0.5000 0.5000
vt 0.5000 0.5000
vt 0.5000 0.5000
vt 0.5000 0.5000
vt 0.5000 0.5000
vt 0.5000 0.5000
vt 0.5000 0.5000
vt 0.5000 0.5000
vt 0.5000 0.5000
vt 0.5000 0.5000
vt 0.5000 0.5000
vt 0.5000 0.5000
vt 0.5000 0.5000
vt 0.5000 0.5000
vt 0.5000 0.5000
vt 0.5000 0.5000
vt 0.5000 0.5000
vt 0.5000 0.5000
vt 0.5000 0.5000
vt 0.5000 0.5000
vt 0.5000 0.5000
vt 0.5000 0.5000
vt 0.5000 0.5000
vt 0.5000 0.5000
vt 0.5000 0.5000
vt 0.5000 0.5000
vt 0.5000 0.5000
vt 0.5000 0.5000
vt 0.5000 0.5000
vt 0.5000 0.5000
vt 0.5000 0.5000
vt 0.5000 0.5000
vt 0.5000 0.5000
vt 0.5000 0.5000
vt 0.5000 0.5000
vt 0.5000 0.5000
vt 0.5000 0.5000
vt 0.5000 0.5000
vt 0.5000 0.5000
vt 0.5000 0.5000
vt 0.5000 0.5000
vt 0.5000 0.5000
vt 0.5000 0.5000
vt 0.5000 0.5000
vt 0.5000 0.5000
vt 0.5000 0.5000
vt 0.5000 0.5000
vt 0.5000 0.5000
vt 0.5000 0.5000
vt 0.5000 0.5000
vt 0.5000 0.5000
vt 0.5000 0.5000
vt 0.5000 0.5000
vt 0.5000 0.5000
vt 0.5000 0.5000
vt 0.5000 0.5000
vt 0.5000 0.5000
vt 0.5000 0.5000
vt 0.5000 0.5000
vt 0.5000 0.5000
vt 0.5000 0.5000
vt 0.5000 0.5000
vt 0.5000 0.5000
vt 0.5000 0.5000
vt 0.5000 0.5000
vt 0.5000 0.5000
vt 0.5000 0.5000
vt 0.5000 0.5000
vt 0.5000 0.5000
vt 0.5000 0.5000
vt 0.5000 0.5000
vt 0.5000 0.5000
vt 0.5000 0.5000
vt 0.5000 0.5000
vt 0.5000 0.5000
vt 0.5000 0.5000
vt 0.5000 0.5000
vt 0.5000 0.5000
vt 0.5000 0.5000
vt 0.5000 0.5000
vt 0.5000 0.5000
vt 0.5000 0.5000
vt 0.5000 0.5000
vt 0.5000 0.5000
vt 0.5000 0.5000
vt 0.5000 0.5000
vt 0.5000 0.5000
vt 0.5000 0.5000
vt 0.5000 0.5000
vt 0.5000 0.5000
vt 0.5000 0.5000
vt 0.5000 0.5000
vt 0.5000 0.5000
vt 0.5000 0.5000
vt 0.5000 0.5000
vt 0.5000 0.5000
vt 0.5000 0.5000
vt 0.5000 0.5000
vt 0.5000 0.5000
vt 0.5000 0.5000
vt 0.5000 0.5000
vt 0.5000 0.5000
vt 0.5000 0.5000
vt 0.5000 0.5000
vt 0.5000 0.5000
vt 0.5000 0.5000
vt 0.5000 0.5000
vt 0.5000 0.5000
vt 0.5000 0.5000
vt 0.5000 0.5000
vt 0.5000 0.5000
vt 0.5000 0.5000
vt 0.5000 0.5000
vt 0.5000 0.5000
vt 0.5000 0.5000
vt 0.5000 0.5000
vt 0.5000 0.5000
vt 0.5000 0.5000
vt 0.5000 0.5000
vt 0.5000 0.5000
vt 0.5000 0.5000
vt 0.5000 0.5000
vt 0.5000 0.5000
vt 0.5000 0.5000
vt 0.5000 0.5000
vt 0.5000 0.5000
vt 0.5000 0.5000
vt 0.5000 0.5000
vt 0.5000 0.5000
vt 0.5000 0.5000
vt 0.5000 0.5000
vt 0.5000 0.5000
vt 0.5000 0.5000
vt 0.5000 0.5000
vt 0.5000 0.5000
vt 0.5000 0.5000
vt 0.5000 0.5000
vt 0.5000 0.5000
vt 0.5000 0.5000
vt 0.5000 0.5000
vt 0.5000 0.5000
vt 0.5000 0.5000
vt 0.5000 0.5000
vt 0.5000 0.5000
vt 0.5000 0.5000
vt 0.5000 0.5000
vt 0.5000 0.5000
vt 0.5000 0.5000
vt 0.5000 0.5000
vt 0.5000 0.5000
vt 0.5000 0.5000
vt 0.5000 0.5000
vt 0.5000 0.5000
vt 0.5000 0.5000
vt 0.5000 0.5000
vt 0.5000 0.5000
vt 0.5000 0.5000
vt 0.5000 0.5000
vt 0.5000 0.5000
vt 0.5000 0.5000
vt 0.5000 0.5000
vt 0.5000 0.5000
vt 0.5000 0.5000
vt 0.5000 0.5000
vt 0.5000 0.5000
vt 0.5000 0.5000
vt 0.5000 0.5000
vt 0.5000 0.5000
vt 0.5000 0.5000
vt 0.5000 0.5000
vt 0.5000 0.5000
vt 0.5000 0.5000
vt 0.5000 0.5000
vt 0.5000 0.5000
vt 0.5000 0.5000
vt 0.5000 0.5000
vt 0.5000 0.5000
vt 0.5000 0.5000
vt 0.5000 0.5000
vt 0.5000 0.5000
vt 0.5000 0.5000
vt 0.5000 0.5000
vt 0.5000 0.5000
vt 0.5000 0.5000
vt 0.5000 0.5000
vt 0.5000 0.5000
vt 0.5000 0.5000
vt 0.5000 0.5000
vt 0.5000 0.5000
vt 0.5000 0.5000
vt 0.5000 0.5000
vt 0.5000 0.5000
vt 0.5000 0.5000
vt 0.5000 0.5000
vt 0.5000 0.5000
vt 0.5000 0.5000
vt 0.5000 0.5000
vt 0.5000 0.5000
vt 0.5000 0.5000
vt 0.5000 0.5000
vt 0.5000 0.5000
vt 0.5000 0.5000
vt 0.5000 0.5000
vt 0.5000 0.5000
vt 0.5000 0.5000
vt 0.5000 0.5000
vt 0.5000 0.5000
vt 0.5000 0.5000
vt 0.5000 0.5000
vt 0.5000 0.5000
vt 0.5000 0.5000
vt 0.5000 0.5000
vt 0.5000 0.5000
vt 0.5000 0.5000
vt 0.5000 0.5000
vt 0.5000 0.5000
vt 0.5000 0.5000
vt 0.5000 0.5000
vt 0.5000 0.5000
vt 0.5000 0.5000
vt 0.5000 0.5000
vt 0.5000 0.5000
vt 0.5000 0.5000
vt 0.5000 0.5000
vt 0.5000 0.5000
vt 0.5000 0.5000
vt 0.5000 0.5000
vt 0.5000 0.5000
vt 0.5000 0.5000
vt 0.5000 0.5000
vt 0.5000 0.5000
vt 0.5000 0.5000
vt 0.5000 0.5000
vt 0.5000 0.5000
vt 0.5000 0.5000
vt 0.5000 0.5000
vt 0.5000 0.5000
vt 0.5000 0.5000
vt 0.5000 0.5000
vt 0.5000 0.5000
vt 0.5000 0.5000
vt 0.5000 0.5000
vt 0.5000 0.5000
vt 0.5000 0.5000
vt 0.5000 0.5000
vt 0.5000 0.5000
vt 0.5000 0.5000
vt 0.5000 0.5000
vt 0.5000 0.5000
vt 0.5000 0.5000
vt 0.5000 0.5000
vt 0.5000 0.5000
vt 0.5000 0.5000
vt 0.5000 0.5000
vt 0.5000 0.5000
vt 0.5000 0.5000
vt 0.5000 0.5000
vt 0.5000 0.5000
vt 0.5000 0.5000
vt 0.5000 0.5000
vt 0.5000 0.5000
vt 0.5000 0.5000
vt 0.5000 0.5000
vt 0.5000 0.5000
vt 0.5000 0.5000
vt 0.5000 0.5000
vt 0.5000 0.5000
vt 0.5000 0.5000
vt 0.5000 0.5000
vt 0.5000 0.5000
vt 0.5000 0.5000
vt 0.5000 0.5000
vt 0.5000 0.5000
vt 0.5000 0.5000
vt 0.5000 0.5000
vn 0.1890 -0.2465 0.9505
vn 0.1890 -0.2465 0.9505
vn 0.1890 -0.2465 0.9505
vn 0.1890 -0.2465 0.9505
vn -0.1488 0.5309 0.8343
vn -0.1488 0.5309 0.8343
vn -0.1488 0.5309 0.8343
vn -0.1488 0.5309 0.8343
vn -0.3911 0.9193 -0.0440
vn -0.3911 0.9193 -0.0440
vn -0.3911 0.9193 -0.0440
vn 0.3472 -0.6891 0.6361
vn 0.3472 -0.6891 0.6361
vn 0.3472 -0.6891 0.6361
vn 0.0141 0.1762 0.9843
vn 0.0141 0.1762 0.9843
vn 0.0141 0.1762 0.9843
vn 0.0141 0.1762 0.9843
vn -0.2967 0.8117 0.5032
vn -0.2967 0.8117 0.5032
vn -0.2967 0.8117 0.5032
vn -0.2967 0.8117 0.5032
vn -0.4397 0.8848 -0.1544
vn -0.4397 0.8848 -0.1544
vn -0.4397 0.8848 -0.1544
vn 0.3214 -0.7733 0.5466
vn 0.3214 -0.7733 0.5466
vn 0.3214 -0.7733 0.5466
vn -0.1425 -0.0170 0.9896
vn -0.1425 -0.0170 0.9896
vn -0.1425 -0.0170 0.9896
vn -0.1425 -0.0170 0.9896
vn -0.4781 0.8244 0.3030
vn -0.4781 0.8244 0.3030
vn -0.4781 0.8244 0.3030
vn -0.4781 0.8244 0.3030
vn 0.1269 -0.4937 0.8603
vn 0.1269 -0.4937 0.8603
vn 0.1269 -0.4937 0.8603
vn 0.1269 -0.4937 0.8603
vn -0.3870 0.5156 0.7645
vn -0.3870 0.5156 0.7645
vn -0.3870 0.5156 0.7645
vn -0.3870 0.5156 0.7645
vn 0.3135 -0.8746 0.3698
vn 0.3135 -0.8746 0.3698
vn 0.3135 -0.8746 0.3698
vn -0.4325 -0.8305 0.3511
vn -0.4325 -0.8305 0.3511
vn -0.4325 -0.8305 0.3511
vn -0.4325 -0.8305 0.3511
vn -0.6400 0.7077 -0.2992
vn -0.6400 0.7077 -0.2992
vn -0.6400 0.7077 -0.2992
vn -0.6400 0.7077 -0.2992
vn 0.1053 -0.9159 0.3873
vn 0.1053 -0.9159 0.3873
vn 0.1053 -0.9159 0.3873
vn 0.1053 -0.9159 0.3873
vn -0.9481 0.2929 -0.1238
vn -0.9481 0.2929 -0.1238
vn -0.9481 0.2929 -0.1238
vn -0.9481 0.2929 -0.1238
vn -0.4627 0.8165 -0.3452
vn -0.4627 0.8165 -0.3452
vn -0.4627 0.8165 -0.3452
vn 0.3214 -0.9308 0.1739
vn 0.3214 -0.9308 0.1739
vn 0.3214 -0.9308 0.1739
vn -0.1425 -0.7218 -0.6773
vn -0.1425 -0.7218 -0.6773
vn -0.1425 -0.7218 -0.6773
vn -0.1425 -0.7218 -0.6773
vn -0.4781 0.3570 -0.8025
vn -0.4781 0.3570 -0.8025
vn -0.4781 0.3570 -0.8025
vn -0.4781 0.3570 -0.8025
vn 0.1269 -0.9611 -0.2452
vn 0.1269 -0.9611 -0.2452
vn 0.1269 -0.9611 -0.2452
vn 0.1269 -0.9611 -0.2452
vn -0.3870 -0.1892 -0.9025
vn -0.3870 -0.1892 -0.9025
vn -0.3870 -0.1892 -0.9025
vn -0.3870 -0.1892 -0.9025
vn -0.4397 0.7272 -0.5271
vn -0.4397 0.7272 -0.5271
vn -0.4397 0.7272 -0.5271
vn 0.3472 -0.9364 0.0512
vn 0.3472 -0.9364 0.0512
vn 0.3472 -0.9364 0.0512
vn 0.0141 -0.5833 -0.8121
vn 0.0141 -0.5833 -0.8121
vn 0.0141 -0.5833 -0.8121
vn 0.0141 -0.5833 -0.8121
vn -0.2967 0.2045 -0.9328
vn -0.2967 0.2045 -0.9328
vn -0.2967 0.2045 -0.9328
vn -0.2967 0.2045 -0.9328
vn 0.1890 -0.8536 -0.4855
vn 0.1890 -0.8536 -0.4855
vn 0.1890 -0.8536 -0.4855
vn 0.1890 -0.8536 -0.4855
vn -0.1488 -0.2286 -0.9621
vn -0.1488 -0.2286 -0.9621
vn -0.1488 -0.2286 -0.9621
vn -0.1488 -0.2286 -0.9621
vn -0.3911 0.6720 -0.6288
vn -0.3911 0.6720 -0.6288
vn -0.3911 0.6720 -0.6288
vn 0.1488 -0.5309 -0.8343
vn 0.1488 -0.5309 -0.8343
vn 0.1488 -0.5309 -0.8343
vn 0.1488 -0.5309 -0.8343
vn -0.1890 0.2465 -0.9505
vn -0.1890 0.2465 -0.9505
vn -0.1890 0.2465 -0.9505
vn -0.1890 0.2465 -0.9505
vn 0.2967 -0.8117 -0.5032
vn 0.2967 -0.8117 -0.5032
vn 0.2967 -0.8117 -0.5032
vn 0.2967 -0.8117 -0.5032
vn -0.0141 -0.1762 -0.9843
vn -0.0141 -0.1762 -0.9843
vn -0.0141 -0.1762 -0.9843
vn -0.0141 -0.1762 -0.9843
vn -0.3472 0.6891 -0.6361
vn -0.3472 0.6891 -0.6361
vn -0.3472 0.6891 -0.6361
vn 0.3911 -0.9193 0.0440
vn 0.3911 -0.9193 0.0440
vn 0.3911 -0.9193 0.0440
vn -0.1269 0.4937 -0.8603
vn -0.1269 0.4937 -0.8603
vn -0.1269 0.4937 -0.8603
vn -0.1269 0.4937 -0.8603
vn 0.4781 -0.8244 -0.3030
vn 0.4781 -0.8244 -0.3030
vn 0.4781 -0.8244 -0.3030
vn 0.4781 -0.8244 -0.3030
vn 0.1425 0.0170 -0.9896
vn 0.1425 0.0170 -0.9896
vn 0.1425 0.0170 -0.9896
vn 0.1425 0.0170 -0.9896
vn -0.3214 0.7733 -0.5466
vn -0.3214 0.7733 -0.5466
vn -0.3214 0.7733 -0.5466
vn 0.4397 -0.8848 0.1544
vn 0.4397 -0.8848 0.1544
vn 0.4397 -0.8848 0.1544
vn 0.3870 -0.5156 -0.7645
vn 0.3870 -0.5156 -0.7645
vn 0.3870 -0.5156 -0.7645
vn 0.3870 -0.5156 -0.7645
vn 0.6400 -0.7077 0.2992
vn 0.6400 -0.7077 0.2992
vn 0.6400 -0.7077 0.2992
vn 0.6400 -0.7077 0.2992
vn 0.4325 0.8305 -0.3511
vn 0.4325 0.8305 -0.3511
vn 0.4325 0.8305 -0.3511
vn 0.4325 0.8305 -0.3511
vn -0.3135 0.8746 -0.3698
vn -0.3135 0.8746 -0.3698
vn -0.3135 0.8746 -0.3698
vn 0.4628 -0.8165 0.3452
vn 0.4628 -0.8165 0.3452
vn 0.4628 -0.8165 0.3452
vn 0.9481 -0.2929 0.1238
vn 0.9481 -0.2929 0.1238
vn 0.9481 -0.2929 0.1238
vn 0.9481 -0.2929 0.1238
vn -0.1053 0.9159 -0.3873
vn -0.1053 0.9159 -0.3873
vn -0.1053 0.9159 -0.3873
vn -0.1053 0.9159 -0.3873
vn 0.4781 -0.3570 0.8025
vn 0.4781 -0.3570 0.8025
vn 0.4781 -0.3570 0.8025
vn 0.4781 -0.3570 0.8025
vn 0.1425 0.7218 0.6773
vn 0.1425 0.7218 0.6773
vn 0.1425 0.7218 0.6773
vn 0.1425 0.7218 0.6773
vn -0.3214 0.9308 -0.1739
vn -0.3214 0.9308 -0.1739
vn -0.3214 0.9308 -0.1739
vn 0.4397 -0.7272 0.5271
vn 0.4397 -0.7272 0.5271
vn 0.4397 -0.7272 0.5271
vn 0.3870 0.1892 0.9025
vn 0.3870 0.1892 0.9025
vn 0.3870 0.1892 0.9025
vn 0.3870 0.1892 0.9025
vn -0.1269 0.9611 0.2452
vn -0.1269 0.9611 0.2452
vn -0.1269 0.9611 0.2452
vn -0.1269 0.9611 0.2452
vn 0.2967 -0.2045 0.9328
vn 0.2967 -0.2045 0.9328
vn 0.2967 -0.2045 0.9328
vn 0.2967 -0.2045 0.9328
vn -0.0141 0.5833 0.8121
vn -0.0141 0.5833 0.8121
vn -0.0141 0.5833 0.8121
vn -0.0141 0.5833 0.8121
vn -0.3472 0.9364 -0.0512
vn -0.3472 0.9364 -0.0512
vn -0.3472 0.9364 -0.0512
vn 0.3911 -0.6720 0.6288
vn 0.3911 -0.6720 0.6288
vn 0.3911 -0.6720 0.6288
vn 0.1488 0.2286 0.9621
vn 0.1488 0.2286 0.9621
vn 0.1488 0.2286 0.9621
vn 0.1488 0.2286 0.9621
vn -0.1890 0.8536 0.4855
vn -0.1890 0.8536 0.4855
vn -0.1890 0.8536 0.4855
vn -0.1890 0.8536 0.4855
vn -0.3463 -0.3273 0.8792
vn -0.3463 -0.3273 0.8792
vn -0.3463 -0.3273 0.8792
vn -0.3463 -0.3273 0.8792
vn 0.0184 0.6391 0.7689
vn 0.0184 0.6391 0.7689
vn 0.0184 0.6391 0.7689
vn 0.0184 0.6391 0.7689
vn 0.3551 0.9261 -0.1271
vn 0.3551 0.9261 -0.1271
vn 0.3551 0.9261 -0.1271
vn -0.4000 -0.7190 0.5684
vn -0.4000 -0.7190 0.5684
vn -0.4000 -0.7190 0.5684
vn -0.1947 0.1750 0.9651
vn -0.1947 0.1750 0.9651
vn -0.1947 0.1750 0.9651
vn -0.1947 0.1750 0.9651
vn 0.2206 0.9077 0.3571
vn 0.2206 0.9077 0.3571
vn 0.2206 0.9077 0.3571
vn 0.2206 0.9077 0.3571
vn -0.4437 -0.7537 0.4849
vn -0.4437 -0.7537 0.4849
vn -0.4437 -0.7537 0.4849
vn -0.4830 0.1262 0.8665
vn -0.4830 0.1262 0.8665
vn -0.4830 0.1262 0.8665
vn -0.4830 0.1262 0.8665
vn 0.1383 0.9835 0.1166
vn 0.1383 0.9835 0.1166
vn 0.1383 0.9835 0.1166
vn 0.1383 0.9835 0.1166
vn -0.5209 -0.4526 0.7238
vn -0.5209 -0.4526 0.7238
vn -0.5209 -0.4526 0.7238
vn -0.5209 -0.4526 0.7238
vn -0.1779 0.7910 0.5854
vn -0.1779 0.7910 0.5854
vn -0.1779 0.7910 0.5854
vn -0.1779 0.7910 0.5854
vn 0.3243 0.9194 -0.2225
vn 0.3243 0.9194 -0.2225
vn 0.3243 0.9194 -0.2225
vn -0.4628 -0.8165 0.3452
vn -0.4628 -0.8165 0.3452
vn -0.4628 -0.8165 0.3452
vn -0.9481 -0.2929 0.1238
vn -0.9481 -0.2929 0.1238
vn -0.9481 -0.2929 0.1238
vn -0.9481 -0.2929 0.1238
vn 0.1053 0.9159 -0.3873
vn 0.1053 0.9159 -0.3873
vn 0.1053 0.9159 -0.3873
vn 0.1053 0.9159 -0.3873
vn -0.6400 -0.7077 0.2992
vn -0.6400 -0.7077 0.2992
vn -0.6400 -0.7077 0.2992
vn -0.6400 -0.7077 0.2992
vn -0.4324 0.8305 -0.3511
vn -0.4324 0.8305 -0.3511
vn -0.4324 0.8305 -0.3511
vn -0.4324 0.8305 -0.3511
vn 0.3135 0.8746 -0.3698
vn 0.3135 0.8746 -0.3698
vn 0.3135 0.8746 -0.3698
vn -0.4437 -0.8729 0.2028
vn -0.4437 -0.8729 0.2028
vn -0.4437 -0.8729 0.2028
vn -0.4830 -0.5336 -0.6942
vn -0.4830 -0.5336 -0.6942
vn -0.4830 -0.5336 -0.6942
vn -0.4830 -0.5336 -0.6942
vn 0.1383 0.6016 -0.7868
vn 0.1383 0.6016 -0.7868
vn 0.1383 0.6016 -0.7868
vn 0.1383 0.6016 -0.7868
vn -0.5209 -0.8345 -0.1796
vn -0.5209 -0.8345 -0.1796
vn -0.5209 -0.8345 -0.1796
vn -0.5209 -0.8345 -0.1796
vn -0.1779 0.1312 -0.9753
vn -0.1779 0.1312 -0.9753
vn -0.1779 0.1312 -0.9753
vn -0.1779 0.1312 -0.9753
vn 0.3243 0.8002 -0.5045
vn 0.3243 0.8002 -0.5045
vn 0.3243 0.8002 -0.5045
vn -0.1947 -0.5705 -0.7979
vn -0.1947 -0.5705 -0.7979
vn -0.1947 -0.5705 -0.7979
vn -0.1947 -0.5705 -0.7979
vn 0.2206 0.3762 -0.8999
vn 0.2206 0.3762 -0.8999
vn 0.2206 0.3762 -0.8999
vn 0.2206 0.3762 -0.8999
vn -0.3463 -0.8587 -0.3778
vn -0.3463 -0.8587 -0.3778
vn -0.3463 -0.8587 -0.3778
vn -0.3463 -0.8587 -0.3778
vn 0.0184 -0.1063 -0.9942
vn 0.0184 -0.1063 -0.9942
vn 0.0184 -0.1063 -0.9942
vn 0.0184 -0.1063 -0.9942
vn 0.3551 0.7364 -0.5758
vn 0.3551 0.7364 -0.5758
vn 0.3551 0.7364 -0.5758
vn -0.4000 -0.9087 0.1197
vn -0.4000 -0.9087 0.1197
vn -0.4000 -0.9087 0.1197
vn 0.3463 0.3273 -0.8792
vn 0.3463 0.3273 -0.8792
vn 0.3463 0.3273 -0.8792
vn 0.3463 0.3273 -0.8792
vn -0.2206 -0.9077 -0.3571
vn -0.2206 -0.9077 -0.3571
vn -0.2206 -0.9077 -0.3571
vn -0.2206 -0.9077 -0.3571
vn 0.1947 -0.1750 -0.9651
vn 0.1947 -0.1750 -0.9651
vn 0.1947 -0.1750 -0.9651
vn 0.1947 -0.1750 -0.9651
vn 0.4000 0.7190 -0.5684
vn 0.4000 0.7190 -0.5684
vn 0.4000 0.7190 -0.5684
vn -0.3551 -0.9261 0.1271
vn -0.3551 -0.9261 0.1271
vn -0.3551 -0.9261 0.1271
vn -0.0184 -0.6391 -0.7689
vn -0.0184 -0.6391 -0.7689
vn -0.0184 -0.6391 -0.7689
vn -0.0184 -0.6391 -0.7689
vn -0.1383 -0.9835 -0.1166
vn -0.1383 -0.9835 -0.1166
vn -0.1383 -0.9835 -0.1166
vn -0.1383 -0.9835 -0.1166
vn 0.4830 -0.1262 -0.8665
vn 0.4830 -0.1262 -0.8665
vn 0.4830 -0.1262 -0.8665
vn 0.4830 -0.1262 -0.8665
vn 0.4437 0.7537 -0.4849
vn 0.4437 0.7537 -0.4849
vn 0.4437 0.7537 -0.4849
vn -0.3243 -0.9194 0.2225
vn -0.3243 -0.9194 0.2225
vn -0.3243 -0.9194 0.2225
vn 0.1779 -0.7910 -0.5854
vn 0.1779 -0.7910 -0.5854
vn 0.1779 -0.7910 -0.5854
vn 0.1779 -0.7910 -0.5854
vn 0.5209 0.4526 -0.7238
vn 0.5209 0.4526 -0.7238
vn 0.5209 0.4526 -0.7238
vn 0.5209 0.4526 -0.7238
vn -0.1053 -0.9159 0.3873
vn -0.1053 -0.9159 0.3873
vn -0.1053 -0.9159 0.3873
vn -0.1053 -0.9159 0.3873
vn 0.9481 0.2929 -0.1238
vn 0.9481 0.2929 -0.1238
vn 0.9481 0.2929 -0.1238
vn 0.9481 0.2929 -0.1238
vn 0.4628 0.8165 -0.3452
vn 0.4628 0.8165 -0.3452
vn 0.4628 0.8165 -0.3452
vn -0.3135 -0.8746 0.3698
vn -0.3135 -0.8746 0.3698
vn -0.3135 -0.8746 0.3698
vn 0.4324 -0.8305 0.3511
vn 0.4324 -0.8305 0.3511
vn 0.4324 -0.8305 0.3511
vn 0.4324 -0.8305 0.3511
vn 0.6400 0.7077 -0.2992
vn 0.6400 0.7077 -0.2992
vn 0.6400 0.7077 -0.2992
vn 0.6400 0.7077 -0.2992
vn -0.1383 -0.6016 0.7868
vn -0.1383 -0.6016 0.7868
vn -0.1383 -0.6016 0.7868
vn -0.1383 -0.6016 0.7868
vn 0.4830 0.5336 0.6942
vn 0.4830 0.5336 0.6942
vn 0.4830 0.5336 0.6942
vn 0.4830 0.5336 0.6942
vn 0.4437 0.8729 -0.2029
vn 0.4437 0.8729 -0.2029
vn 0.4437 0.8729 -0.2029
vn -0.3243 -0.8002 0.5045
vn -0.3243 -0.8002 0.5045
vn -0.3243 -0.8002 0.5045
vn 0.1779 -0.1312 0.9753
vn 0.1779 -0.1312 0.9753
vn 0.1779 -0.1312 0.9753
vn 0.1779 -0.1312 0.9753
vn 0.5209 0.8345 0.1796
vn 0.5209 0.8345 0.1796
vn 0.5209 0.8345 0.1796
vn 0.5209 0.8345 0.1796
vn -0.2206 -0.3762 0.8999
vn -0.2206 -0.3762 0.8999
vn -0.2206 -0.3762 0.8999
vn -0.2206 -0.3762 0.8999
vn 0.1947 0.5705 0.7979
vn 0.1947 0.5705 0.7979
vn 0.1947 0.5705 0.7979
vn 0.1947 0.5705 0.7979
vn 0.4000 0.9087 -0.1197
vn 0.4000 0.9087 -0.1197
vn 0.4000 0.9087 -0.1197
vn -0.3551 -0.7364 0.5758
vn -0.3551 -0.7364 0.5758
vn -0.3551 -0.7364 0.5758
vn -0.0184 0.1063 0.9942
vn -0.0184 0.1063 0.9942
vn -0.0184 0.1063 0.9942
vn -0.0184 0.1063 0.9942
vn 0.3463 0.8587 0.3778
vn 0.3463 0.8587 0.3778
vn 0.3463 0.8587 0.3778
vn 0.3463 0.8587 0.3778
f 4/1/1 52/2/2 9/3/3 10/4/4
f 3/5/5 51/6/6 7/7/7 8/8/8
f 2/9/9 1/10/10 6/11/11
f 5/12/12 4/13/13 10/14/14
f 52/15/15 3/16/16 8/17/17 9/18/18
f 51/19/19 2/20/20 6/21/21 7/22/22
f 6/23/23 1/24/24 11/25/25
f 5/26/26 10/27/27 15/28/28
f 9/29/29 8/30/30 13/31/31 14/32/32
f 7/33/33 6/34/34 11/35/35 12/36/36
f 10/37/37 9/38/38 14/39/39 15/40/40
f 8/41/41 7/42/42 12/43/43 13/44/44
f 5/45/45 15/46/46 20/47/47
f 14/48/48 13/49/49 18/50/50 19/51/51
f 12/52/52 11/53/53 16/54/54 17/55/55
f 15/56/56 14/57/57 19/58/58 20/59/59
f 13/60/60 12/61/61 17/62/62 18/63/63
f 11/64/64 1/65/65 16/66/66
f 5/67/67 20/68/68 25/69/69
f 19/70/70 18/71/71 23/72/72 24/73/73
f 17/74/74 16/75/75 21/76/76 22/77/77
f 20/78/78 19/79/79 24/80/80 25/81/81
f 18/82/82 17/83/83 22/84/84 23/85/85
f 16/86/86 1/87/87 21/88/88
f 5/89/89 25/90/90 30/91/91
f 24/92/92 23/93/93 28/94/94 29/95/95
f 22/96/96 21/97/97 26/98/98 27/99/99
f 25/100/100 24/101/101 29/102/102 30/103/103
f 23/104/104 22/105/105 27/106/106 28/107/107
f 21/108/108 1/109/109 26/110/110
f 29/111/111 28/112/112 33/113/113 34/114/114
f 27/115/115 26/116/116 31/117/117 32/118/118
f 30/119/119 29/120/120 34/121/121 35/122/122
f 28/123/123 27/124/124 32/125/125 33/126/126
f 26/127/127 1/128/128 31/129/129
f 5/130/130 30/131/131 35/132/132
f 32/133/133 31/134/134 36/135/135 37/136/136
f 35/137/137 34/138/138 39/139/139 40/140/140
f 33/141/141 32/142/142 37/143/143 38/144/144
f 31/145/145 1/146/146 36/147/147
f 5/148/148 35/149/149 40/150/150
f 34/151/151 33/152/152 38/153/153 39/154/154
f 40/155/155 39/156/156 44/157/157 45/158/158
f 38/159/159 37/160/160 42/161/161 43/162/162
f 36/163/163 1/164/164 41/165/165
f 5/166/166 40/167/167 45/168/168
f 39/169/169 38/170/170 43/171/171 44/172/172
f 37/173/173 36/174/174 41/175/175 42/176/176
f 45/177/177 44/178/178 49/179/179 50/180/180
f 43/181/181 42/182/182 47/183/183 48/184/184
f 41/185/185 1/186/186 46/187/187
f 5/188/188 45/189/189 50/190/190
f 44/191/191 43/192/192 48/193/193 49/194/194
f 42/195/195 41/196/196 46/197/197 47/198/198
f 50/199/199 49/200/200 52/201/201 4/202/202
f 48/203/203 47/204/204 51/205/205 3/206/206
f 46/207/207 1/208/208 2/209/209
f 5/210/210 50/211/211 4/212/212
f 49/213/213 48/214/214 3/215/215 52/216/216
f 47/217/217 46/218/218 2/219/219 51/220/220
f 56/221/221 104/222/222 61/223/223 62/224/224
f 55/225/225 103/226/226 59/227/227 60/228/228
f 54/229/229 53/230/230 58/231/231
f 57/232/232 56/233/233 62/234/234
f 104/235/235 55/236/236 60/237/237 61/238/238
f 103/239/239 54/240/240 58/241/241 59/242/242
f 57/243/243 62/244/244 67/245/245
f 61/246/246 60/247/247 65/248/248 66/249/249
f 59/250/250 58/251/251 63/252/252 64/253/253
f 62/254/254 61/255/255 66/256/256 67/257/257
f 60/258/258 59/259/259 64/260/260 65/261/261
f 58/262/262 53/263/263 63/264/264
f 57/265/265 67/266/266 72/267/267
f 66/268/268 65/269/269 70/270/270 71/271/271
f 64/272/272 63/273/273 68/274/274 69/275/275
f 67/276/276 66/277/277 71/278/278 72/279/279
f 65/280/280 64/281/281 69/282/282 70/283/283
f 63/284/284 53/285/285 68/286/286
f 57/287/287 72/288/288 77/289/289
f 71/290/290 70/291/291 75/292/292 76/293/293
f 69/294/294 68/295/295 73/296/296 74/297/297
f 72/298/298 71/299/299 76/300/300 77/301/301
f 70/302/302 69/303/303 74/304/304 75/305/305
f 68/306/306 53/307/307 73/308/308
f 76/309/309 75/310/310 80/311/311 81/312/312
f 74/313/313 73/314/314 78/315/315 79/316/316
f 77/317/317 76/318/318 81/319/319 82/320/320
f 75/321/321 74/322/322 79/323/323 80/324/324
f 73/325/325 53/326/326 78/327/327
f 57/328/328 77/329/329 82/330/330
f 79/331/331 78/332/332 83/333/333 84/334/334
f 82/335/335 81/336/336 86/337/337 87/338/338
f 80/339/339 79/340/340 84/341/341 85/342/342
f 78/343/343 53/344/344 83/345/345
f 57/346/346 82/347/347 87/348/348
f 81/349/349 80/350/350 85/351/351 86/352/352
f 87/353/353 86/354/354 91/355/355 92/356/356
f 85/357/357 84/358/358 89/359/359 90/360/360
f 83/361/361 53/362/362 88/363/363
f 57/364/364 87/365/365 92/366/366
f 86/367/367 85/368/368 90/369/369 91/370/370
f 84/371/371 83/372/372 88/373/373 89/374/374
f 92/375/375 91/376/376 96/377/377 97/378/378
f 90/379/379 89/380/380 94/381/381 95/382/382
f 88/383/383 53/384/384 93/385/385
f 57/386/386 92/387/387 97/388/388
f 91/389/389 90/390/390 95/391/391 96/392/392
f 89/393/393 88/394/394 93/395/395 94/396/396
f 97/397/397 96/398/398 101/399/399 102/400/400
f 95/401/401 94/402/402 99/403/403 100/404/404
f 93/405/405 53/406/406 98/407/407
f 57/408/408 97/409/409 102/410/410
f 96/411/411 95/412/412 100/413/413 101/414/414
f 94/415/415 93/416/416 98/417/417 99/418/418
f 102/419/419 101/420/420 104/421/421 56/422/422
f 100/423/423 99/424/424 103/425/425 55/426/426
f 98/427/427 53/428/428 54/429/429
f 57/430/430 102/431/431 56/432/432
f 101/433/433 100/434/434 55/435/435 104/436/436
f 99/437/437 98/438/438 54/439/439 103/440/440
