# jaw - exported from blender/silhouette.blend by tools/blender_export.py
o jaw
v -0.00000 -0.15393 0.05052
v -0.00064 -0.14484 0.06568
v -0.00315 -0.14500 0.06532
v -0.00558 -0.14536 0.06447
v -0.00784 -0.14591 0.06318
v -0.00986 -0.14663 0.06147
v -0.01670 -0.14228 0.06385
v -0.01118 -0.14729 0.05993
v -0.01840 -0.14335 0.06134
v -0.02621 -0.13917 0.06021
v -0.00535 -0.15093 0.05605
v -0.03375 -0.13410 0.05814
v -0.04774 -0.12057 0.05308
v -0.01978 -0.14458 0.05858
v -0.04868 -0.12254 0.04843
v -0.03491 -0.13573 0.05501
v -0.02724 -0.14035 0.05768
v -0.06132 -0.10414 0.04357
v -0.06210 -0.11045 0.02860
v -0.05216 -0.12471 0.03519
v -0.04240 -0.13510 0.04014
v -0.03202 -0.14290 0.04633
v -0.01465 -0.15188 0.04965
v -0.06066 -0.11548 0.01669
v -0.06393 -0.10993 0.00160
v -0.05834 -0.11910 0.00813
v -0.05011 -0.13036 0.02007
v -0.02157 -0.15038 0.04531
v -0.06381 -0.10525 -0.01806
v -0.05899 -0.11492 -0.01033
v -0.05225 -0.12702 0.00379
v -0.03681 -0.14374 0.02845
v -0.02681 -0.15009 0.03451
v -0.06473 -0.09733 -0.03246
v -0.06036 -0.10778 -0.02405
v -0.06436 -0.08871 -0.04742
v -0.06053 -0.09989 -0.03850
v -0.05157 -0.12317 -0.01399
v -0.04313 -0.13753 0.00633
v -0.06570 -0.06662 -0.07200
v -0.05945 -0.09129 -0.05345
v -0.06243 -0.03697 -0.09587
v -0.06178 -0.05465 -0.08738
v -0.05973 -0.06917 -0.07805
v -0.05257 -0.08935 -0.06608
v -0.05388 -0.10805 -0.03938
v -0.04393 -0.12707 -0.02323
v -0.02992 -0.14923 0.01541
v -0.00694 -0.15496 0.04673
v -0.05682 -0.04239 -0.10236
v -0.05553 -0.05977 -0.09205
v -0.04535 -0.11233 -0.04606
v -0.03382 -0.14185 -0.00703
v -0.05011 -0.04638 -0.10803
v -0.04824 -0.05574 -0.10254
v -0.04283 -0.09495 -0.07053
v -0.03328 -0.12938 -0.03476
v -0.02556 -0.14423 -0.01390
v -0.02169 -0.15267 0.00813
v -0.03987 -0.03889 -0.10952
v -0.03092 -0.01975 -0.09261
v -0.02531 -0.01878 -0.07673
v -0.01696 -0.04917 -0.04487
v -0.02089 -0.14748 -0.01057
v -0.01865 -0.15549 0.02233
v -0.01488 -0.15651 0.03060
v -0.01509 0.04053 -0.08572
v -0.01158 0.03678 -0.07200
v -0.01263 -0.11646 -0.01053
v -0.01490 -0.15458 0.00430
v -0.00645 0.07118 -0.07601
v -0.00779 0.02014 -0.05836
v -0.00958 -0.02971 -0.04226
v -0.01066 -0.15701 0.01114
v -0.00255 0.08683 -0.06836
v -0.00485 -0.13152 0.00251
v -0.00157 0.08074 -0.06501
v -0.00283 0.05756 -0.06237
v -0.00323 0.00973 -0.05068
v -0.00597 -0.15811 0.01421
v -0.00000 0.07968 -0.06425
v -0.00244 -0.04725 -0.03042
v -0.00688 -0.15796 0.03496
v -0.00000 0.09742 -0.06198
v 0.00086 0.03872 -0.05736
v 0.00169 0.00628 -0.04884
v 0.00255 0.08683 -0.06836
v 0.00288 -0.04650 -0.03093
v 0.00485 -0.13152 0.00251
v 0.00538 -0.15822 0.01459
v 0.00645 0.07118 -0.07601
v 0.00157 0.08074 -0.06501
v 0.01509 0.04053 -0.08572
v 0.01158 0.03678 -0.07200
v 0.00492 0.04354 -0.06171
v 0.00790 0.01267 -0.05589
v 0.00958 -0.02971 -0.04226
v 0.01263 -0.11646 -0.01053
v -0.00000 -0.15928 0.02397
v 0.03987 -0.03889 -0.10951
v 0.03092 -0.01975 -0.09261
v 0.02531 -0.01878 -0.07673
v 0.01696 -0.04917 -0.04487
v 0.02089 -0.14748 -0.01057
v 0.01490 -0.15458 0.00430
v 0.01066 -0.15701 0.01114
v 0.05011 -0.04638 -0.10803
v 0.04824 -0.05574 -0.10254
v 0.04283 -0.09496 -0.07053
v 0.02556 -0.14423 -0.01390
v 0.05682 -0.04239 -0.10236
v 0.05553 -0.05977 -0.09205
v 0.04535 -0.11233 -0.04606
v 0.03328 -0.12938 -0.03476
v 0.03382 -0.14185 -0.00703
v 0.02169 -0.15267 0.00813
v 0.06243 -0.03697 -0.09587
v 0.06178 -0.05465 -0.08738
v 0.05973 -0.06917 -0.07805
v 0.05257 -0.08935 -0.06607
v 0.00574 -0.15806 0.03452
v 0.06570 -0.06662 -0.07200
v 0.05945 -0.09129 -0.05345
v 0.05388 -0.10805 -0.03938
v 0.04393 -0.12707 -0.02323
v 0.00230 -0.15680 0.04224
v 0.06436 -0.08871 -0.04742
v 0.06053 -0.09989 -0.03850
v 0.01865 -0.15549 0.02233
v 0.06473 -0.09733 -0.03246
v 0.06036 -0.10778 -0.02405
v 0.05157 -0.12317 -0.01399
v 0.04313 -0.13752 0.00633
v 0.02992 -0.14923 0.01541
v 0.06381 -0.10525 -0.01806
v 0.05899 -0.11492 -0.01033
v 0.01488 -0.15651 0.03060
v 0.05225 -0.12702 0.00379
v 0.06393 -0.10993 0.00160
v 0.05834 -0.11910 0.00813
v 0.05011 -0.13035 0.02007
v 0.03681 -0.14374 0.02845
v 0.02681 -0.15009 0.03451
v 0.06066 -0.11548 0.01669
v 0.06210 -0.11046 0.02860
v 0.05216 -0.12471 0.03519
v 0.04240 -0.13510 0.04014
v 0.01415 -0.15365 0.04545
v 0.06132 -0.10414 0.04357
v 0.04868 -0.12254 0.04843
v 0.03202 -0.14290 0.04633
v 0.02157 -0.15038 0.04531
v 0.04774 -0.12057 0.05308
v 0.03491 -0.13573 0.05501
v 0.00243 -0.13533 0.06069
v 0.03375 -0.13410 0.05814
v 0.02724 -0.14035 0.05768
v 0.00748 -0.15384 0.04920
v 0.00536 -0.13574 0.05973
v 0.00855 -0.13656 0.05776
v 0.01074 -0.13759 0.05535
v 0.01605 -0.13269 0.05909
v 0.01768 -0.13371 0.05667
v 0.01400 -0.14178 0.04618
v 0.01900 -0.13486 0.05400
v 0.02518 -0.12958 0.05552
v 0.00718 -0.14410 0.04471
v 0.02616 -0.13071 0.05309
v 0.03240 -0.12454 0.05346
v 0.04607 -0.11136 0.04859
v 0.02092 -0.13867 0.04526
v 0.03333 -0.12592 0.05031
v 0.02621 -0.13917 0.06021
v 0.01978 -0.14458 0.05858
v 0.04662 -0.11302 0.04393
v 0.05858 -0.09483 0.03900
v 0.03077 -0.13383 0.04027
v 0.04376 -0.12227 0.03464
v 0.05283 -0.11099 0.02935
v 0.05931 -0.10086 0.02470
v 0.05794 -0.10567 0.01332
v 0.02871 -0.13854 0.02866
v 0.04078 -0.12891 0.01799
v 0.01782 -0.14439 0.03180
v 0.05603 -0.10935 0.00514
v 0.06095 -0.10001 -0.00118
v 0.04996 -0.11689 0.00105
v 0.05625 -0.10479 -0.01255
v 0.06073 -0.09516 -0.02000
v 0.02782 -0.13944 0.01128
v 0.03714 -0.12942 -0.00418
v 0.04924 -0.11288 -0.01602
v 0.01840 -0.14335 0.06134
v 0.05744 -0.09759 -0.02570
v 0.06146 -0.08720 -0.03376
v 0.00661 -0.14786 0.03135
v 0.01886 -0.14481 0.01994
v 0.05748 -0.08965 -0.03950
v 0.06096 -0.07855 -0.04799
v 0.05126 -0.09765 -0.04036
v 0.05632 -0.08103 -0.05371
v 0.06185 -0.05664 -0.07119
v 0.00064 -0.14699 0.03799
v 0.04195 -0.11663 -0.02484
v 0.05624 -0.05910 -0.07689
v 0.05801 -0.04742 -0.08443
v 0.01670 -0.14228 0.06385
v 0.01120 -0.14738 0.05998
v 0.05820 -0.02745 -0.09332
v 0.01565 -0.14368 0.00145
v 0.02547 -0.13320 -0.01585
v 0.03121 -0.12038 -0.03374
v 0.04315 -0.10182 -0.04670
v 0.05045 -0.07403 -0.07019
v 0.05307 -0.03277 -0.09945
v 0.00896 -0.14792 0.02316
v 0.04543 -0.05030 -0.09581
v 0.04686 -0.03668 -0.10480
v 0.03650 -0.10215 -0.05367
v 0.04228 -0.07387 -0.07873
v 0.02503 -0.01972 -0.07299
v 0.03714 -0.02913 -0.10600
v 0.00711 -0.14772 0.01267
v 0.02001 -0.13698 -0.01256
v 0.02242 -0.09159 -0.03335
v 0.01313 -0.02803 -0.04568
v 0.00589 0.01229 -0.05127
v 0.00475 0.04110 -0.05845
v 0.00418 0.06122 -0.06289
v 0.01293 0.05028 -0.08144
v 0.01225 -0.11561 -0.00895
v 0.00608 -0.03300 -0.03578
v 0.00471 0.08049 -0.07086
v 0.00986 -0.14663 0.06147
v 0.00839 -0.13026 -0.00028
v 0.00109 0.09578 -0.06291
v -0.00185 -0.14890 0.02079
v 0.00335 -0.11641 -0.00140
v 0.00049 0.09291 -0.06127
v -0.00007 0.10280 -0.05864
v 0.00267 -0.14804 0.01204
v 0.00101 -0.05551 -0.02500
v 0.00096 -0.00570 -0.04304
v 0.00072 0.03988 -0.05558
v 0.00038 0.07516 -0.06121
v -0.00353 -0.03666 -0.03302
v -0.00347 0.01810 -0.05114
v -0.00244 0.05770 -0.05993
v -0.00552 -0.14795 0.03093
v -0.00572 -0.14777 0.01134
v -0.00465 -0.12104 -0.00023
v -0.00095 0.08505 -0.06223
v -0.00085 0.09726 -0.06212
v 0.00783 -0.14590 0.06318
v -0.00484 0.08058 -0.07080
v -0.01021 -0.14666 0.00841
v -0.00685 0.03115 -0.05840
v -0.01003 0.04571 -0.06986
v -0.01279 0.05013 -0.08153
v -0.01451 -0.14377 0.00081
v -0.00898 -0.01397 -0.04574
v -0.01581 -0.03776 -0.04625
v -0.02143 -0.01068 -0.06994
v -0.02709 -0.00765 -0.08675
v -0.03714 -0.02913 -0.10600
v -0.01430 -0.14637 0.02713
v -0.02001 -0.13698 -0.01256
v -0.02081 -0.14232 0.00545
v -0.02445 -0.13375 -0.01575
v -0.03179 -0.11874 -0.03592
v -0.04053 -0.08474 -0.06966
v -0.04508 -0.04700 -0.09904
v -0.04686 -0.03668 -0.10480
v -0.05649 -0.05927 -0.07708
v -0.05307 -0.03277 -0.09945
v -0.05820 -0.02745 -0.09332
v -0.05793 -0.04480 -0.08557
v -0.01501 -0.14608 0.01664
v -0.03404 -0.13088 -0.00761
v -0.04315 -0.10184 -0.04666
v -0.05126 -0.09767 -0.04032
v -0.04977 -0.07564 -0.06930
v -0.06185 -0.05664 -0.07119
v -0.05632 -0.08103 -0.05371
v 0.00558 -0.14536 0.06447
v -0.00670 -0.14480 0.04304
v -0.03027 -0.13712 0.00732
v -0.04195 -0.11664 -0.02482
v -0.06096 -0.07855 -0.04799
v -0.02469 -0.14183 0.02088
v -0.04924 -0.11289 -0.01600
v -0.05748 -0.08965 -0.03950
v -0.06146 -0.08720 -0.03376
v -0.04354 -0.12557 0.00768
v -0.05744 -0.09759 -0.02570
v -0.06073 -0.09516 -0.02000
v -0.03793 -0.13147 0.02061
v -0.05608 -0.10939 0.00513
v -0.05625 -0.10479 -0.01255
v -0.06095 -0.10001 -0.00118
v -0.02073 -0.14048 0.04127
v -0.02963 -0.13735 0.03148
v -0.04957 -0.11701 0.02640
v -0.05794 -0.10567 0.01332
v -0.01361 -0.14372 0.04144
v -0.04067 -0.12530 0.03610
v -0.03077 -0.13257 0.04324
v -0.05931 -0.10086 0.02470
v -0.04668 -0.11306 0.04396
v -0.05875 -0.09492 0.03905
v -0.00566 -0.14135 0.05123
v -0.04607 -0.11136 0.04859
v 0.00253 -0.14493 0.06548
v -0.01901 -0.13490 0.05402
v -0.02612 -0.13065 0.05306
v -0.03330 -0.12588 0.05029
v -0.03240 -0.12454 0.05346
v -0.01077 -0.13768 0.05541
v -0.02518 -0.12958 0.05552
v -0.01768 -0.13371 0.05667
v -0.01605 -0.13269 0.05909
v -0.00855 -0.13656 0.05776
v -0.00536 -0.13574 0.05973
v 0.00312 -0.14041 0.05354
v -0.00303 -0.13540 0.06054
v -0.00061 -0.13525 0.06089
v -0.00000 -0.14405 0.04635
v 0.00293 -0.15012 0.05816
vt 0.0300 0.5000
vt 0.0300 0.5000
vt 0.0300 0.5000
vt 0.0300 0.5000
vt 0.0300 0.5000
vt 0.0300 0.5000
vt 0.0300 0.5000
vt 0.0300 0.5000
vt 0.0300 0.5000
vt 0.0300 0.5000
vt 0.0300 0.5000
vt 0.0300 0.5000
vt 0.0300 0.5000
vt 0.0300 0.5000
vt 0.0300 0.5000
vt 0.0300 0.5000
vt 0.0300 0.5000
vt 0.0300 0.5000
vt 0.0300 0.5000
vt 0.0300 0.5000
vt 0.0300 0.5000
vt 0.0300 0.5000
vt 0.0300 0.5000
vt 0.0300 0.5000
vt 0.0300 0.5000
vt 0.0300 0.5000
vt 0.0300 0.5000
vt 0.0300 0.5000
vt 0.0300 0.5000
vt 0.0300 0.5000
vt 0.0300 0.5000
vt 0.0300 0.5000
vt 0.0300 0.5000
vt 0.0300 0.5000
vt 0.0300 0.5000
vt 0.0300 0.5000
vt 0.0300 0.5000
vt 0.0300 0.5000
vt 0.0300 0.5000
vt 0.0300 0.5000
vt 0.0300 0.5000
vt 0.0300 0.5000
vt 0.0300 0.5000
vt 0.0300 0.5000
vt 0.0300 0.5000
vt 0.0300 0.5000
vt 0.0300 0.5000
vt 0.0300 0.5000
vt 0.0300 0.5000
vt 0.0300 0.5000
vt 0.0300 0.5000
vt 0.0300 0.5000
vt 0.0300 0.5000
vt 0.0300 0.5000
vt 0.0300 0.5000
vt 0.0300 0.5000
vt 0.0300 0.5000
vt 0.0300 0.5000
vt 0.0300 0.5000
vt 0.0300 0.5000
vt 0.0300 0.5000
vt 0.0300 0.5000
vt 0.0300 0.5000
vt 0.0300 0.5000
vt 0.0300 0.5000
vt 0.0300 0.5000
vt 0.0300 0.5000
vt 0.7161 0.5000
vt 0.0300 0.5000
vt 0.0300 0.5000
vt 0.6487 0.5000
vt 0.0300 0.5000
vt 0.0300 0.5000
vt 0.6487 0.5000
vt 0.0300 0.5000
vt 0.6487 0.5000
vt 0.8896 0.5000
vt 0.0300 0.5000
vt 0.0300 0.5000
vt 0.3108 0.5000
vt 0.0300 0.5000
vt 0.9700 0.5000
vt 0.9700 0.5000
vt 0.9700 0.5000
vt 0.3108 0.5000
vt 0.2163 0.5000
vt 0.0300 0.5000
vt 0.0300 0.5000
vt 0.0300 0.5000
vt 0.0300 0.5000
vt 0.0300 0.5000
vt 0.0300 0.5000
vt 0.0300 0.5000
vt 0.9700 0.5000
vt 0.9700 0.5000
vt 0.9700 0.5000
vt 0.9700 0.5000
vt 0.9700 0.5000
vt 0.8896 0.5000
vt 0.2163 0.5000
vt 0.0300 0.5000
vt 0.0300 0.5000
vt 0.8433 0.5000
vt 0.0300 0.5000
vt 0.0300 0.5000
vt 0.9700 0.5000
vt 0.9700 0.5000
vt 0.9700 0.5000
vt 0.9700 0.5000
vt 0.9700 0.5000
vt 0.9700 0.5000
vt 0.9700 0.5000
vt 0.9700 0.5000
vt 0.9700 0.5000
vt 0.9700 0.5000
vt 0.9700 0.5000
vt 0.9700 0.5000
vt 0.0300 0.5000
vt 0.0300 0.5000
vt 0.0300 0.5000
vt 0.9700 0.5000
vt 0.9700 0.5000
vt 0.9700 0.5000
vt 0.0300 0.5000
vt 0.2163 0.5000
vt 0.0300 0.5000
vt 0.9700 0.5000
vt 0.9700 0.5000
vt 0.9700 0.5000
vt 0.2163 0.5000
vt 0.3108 0.5000
vt 0.0300 0.5000
vt 0.8896 0.5000
vt 0.6488 0.5000
vt 0.0300 0.5000
vt 0.3108 0.5000
vt 0.0300 0.5000
vt 0.0300 0.5000
vt 0.7161 0.5000
vt 0.0300 0.5000
vt 0.0300 0.5000
vt 0.6488 0.5000
vt 0.0300 0.5000
vt 0.0300 0.5000
vt 0.6488 0.5000
vt 0.0300 0.5000
vt 0.0300 0.5000
vt 0.0300 0.5000
vt 0.0300 0.5000
vt 0.0300 0.5000
vt 0.0300 0.5000
vt 0.0300 0.5000
vt 0.0300 0.5000
vt 0.0300 0.5000
vt 0.0300 0.5000
vt 0.0300 0.5000
vt 0.0300 0.5000
vt 0.0300 0.5000
vt 0.0300 0.5000
vt 0.0300 0.5000
vt 0.0300 0.5000
vt 0.0300 0.5000
vt 0.0300 0.5000
vt 0.0300 0.5000
vt 0.0300 0.5000
vt 0.0300 0.5000
vt 0.0300 0.5000
vt 0.0300 0.5000
vt 0.0300 0.5000
vt 0.0300 0.5000
vt 0.0300 0.5000
vt 0.0300 0.5000
vt 0.0300 0.5000
vt 0.0300 0.5000
vt 0.0300 0.5000
vt 0.0300 0.5000
vt 0.0300 0.5000
vt 0.0300 0.5000
vt 0.0300 0.5000
vt 0.0300 0.5000
vt 0.0300 0.5000
vt 0.0300 0.5000
vt 0.0300 0.5000
vt 0.0300 0.5000
vt 0.0300 0.5000
vt 0.0300 0.5000
vt 0.0300 0.5000
vt 0.0300 0.5000
vt 0.0300 0.5000
vt 0.0300 0.5000
vt 0.0300 0.5000
vt 0.0300 0.5000
vt 0.0300 0.5000
vt 0.0300 0.5000
vt 0.0300 0.5000
vt 0.0300 0.5000
vt 0.0300 0.5000
vt 0.0300 0.5000
vt 0.0300 0.5000
vt 0.0300 0.5000
vt 0.0300 0.5000
vt 0.0300 0.5000
vt 0.0300 0.5000
vt 0.0300 0.5000
vt 0.0300 0.5000
vt 0.0300 0.5000
vt 0.0300 0.5000
vt 0.0300 0.5000
vt 0.0300 0.5000
vt 0.0300 0.5000
vt 0.0300 0.5000
vt 0.0300 0.5000
vt 0.0300 0.5000
vt 0.9700 0.5000
vt 0.9700 0.5000
vt 0.9700 0.5000
vt 0.9700 0.5000
vt 0.9700 0.5000
vt 0.9700 0.5000
vt 0.9700 0.5000
vt 0.9700 0.5000
vt 0.9700 0.5000
vt 0.9700 0.5000
vt 0.9700 0.5000
vt 0.9700 0.5000
vt 0.9700 0.5000
vt 0.9700 0.5000
vt 0.9700 0.5000
vt 0.9700 0.5000
vt 0.9700 0.5000
vt 0.9700 0.5000
vt 0.9700 0.5000
vt 0.9700 0.5000
vt 0.9700 0.5000
vt 0.9700 0.5000
vt 0.9700 0.5000
vt 0.9700 0.5000
vt 0.9700 0.5000
vt 0.9700 0.5000
vt 0.9700 0.5000
vt 0.9700 0.5000
vt 0.9700 0.5000
vt 0.9700 0.5000
vt 0.9700 0.5000
vt 0.9700 0.5000
vt 0.9700 0.5000
vt 0.9700 0.5000
vt 0.9700 0.5000
vt 0.9700 0.5000
vt 0.9700 0.5000
vt 0.9700 0.5000
vt 0.9700 0.5000
vt 0.9700 0.5000
vt 0.9700 0.5000
vt 0.9700 0.5000
vt 0.9700 0.5000
vt 0.9700 0.5000
vt 0.9700 0.5000
vt 0.9700 0.5000
vt 0.9700 0.5000
vt 0.9700 0.5000
vt 0.9700 0.5000
vt 0.9700 0.5000
vt 0.9700 0.5000
vt 0.9700 0.5000
vt 0.9700 0.5000
vt 0.9700 0.5000
vt 0.9700 0.5000
vt 0.9700 0.5000
vt 0.9700 0.5000
vt 0.9700 0.5000
vt 0.9700 0.5000
vt 0.9700 0.5000
vt 0.9700 0.5000
vt 0.9700 0.5000
vt 0.9700 0.5000
vt 0.9700 0.5000
vt 0.9700 0.5000
vt 0.9700 0.5000
vt 0.9700 0.5000
vt 0.9700 0.5000
vt 0.9700 0.5000
vt 0.9700 0.5000
vt 0.9700 0.5000
vt 0.9700 0.5000
vt 0.9700 0.5000
vt 0.9700 0.5000
vt 0.9700 0.5000
vt 0.9700 0.5000
vt 0.9700 0.5000
vt 0.9700 0.5000
vt 0.9700 0.5000
vt 0.9700 0.5000
vt 0.9700 0.5000
vt 0.9700 0.5000
vt 0.9700 0.5000
vt 0.9700 0.5000
vt 0.9700 0.5000
vt 0.9700 0.5000
vt 0.9700 0.5000
vt 0.9700 0.5000
vt 0.9700 0.5000
vt 0.9700 0.5000
vt 0.9700 0.5000
vt 0.9700 0.5000
vt 0.9700 0.5000
vt 0.9700 0.5000
vt 0.9700 0.5000
vt 0.9700 0.5000
vt 0.9700 0.5000
vt 0.9700 0.5000
vt 0.9700 0.5000
vt 0.9700 0.5000
vt 0.9700 0.5000
vt 0.9700 0.5000
vt 0.9700 0.5000
vt 0.9700 0.5000
vt 0.9700 0.5000
vt 0.9700 0.5000
vt 0.9700 0.5000
vt 0.9700 0.5000
vt 0.9700 0.5000
vt 0.9700 0.5000
vt 0.9700 0.5000
vt 0.9700 0.5000
vt 0.9700 0.5000
vt 0.9700 0.5000
vt 0.9700 0.5000
vt 0.9700 0.5000
vt 0.9700 0.5000
vt 0.9700 0.5000
vt 0.9700 0.5000
vt 0.9700 0.5000
vt 0.9700 0.5000
vt 0.9700 0.5000
vt 0.9700 0.5000
vt 0.9700 0.5000
vt 0.9700 0.5000
vt 0.9700 0.5000
vt 0.9700 0.5000
vt 0.9700 0.5000
vt 0.9700 0.5000
vt 0.9700 0.5000
vt 0.9700 0.5000
vt 0.9700 0.5000
vt 0.9700 0.5000
vt 0.9700 0.5000
vt 0.9700 0.5000
vt 0.9700 0.5000
vt 0.9700 0.5000
vt 0.9700 0.5000
vt 0.9700 0.5000
vt 0.9700 0.5000
vt 0.9700 0.5000
vt 0.9700 0.5000
vt 0.9700 0.5000
vt 0.9700 0.5000
vt 0.9700 0.5000
vt 0.9700 0.5000
vt 0.9700 0.5000
vt 0.9700 0.5000
vt 0.9700 0.5000
vt 0.9700 0.5000
vt 0.9700 0.5000
vt 0.9700 0.5000
vt 0.9700 0.5000
vt 0.9700 0.5000
vt 0.9700 0.5000
vt 0.9700 0.5000
vt 0.9700 0.5000
vt 0.9700 0.5000
vt 0.9700 0.5000
vt 0.9700 0.5000
vt 0.9700 0.5000
vt 0.9700 0.5000
vt 0.9700 0.5000
vt 0.9700 0.5000
vt 0.9700 0.5000
vt 0.9700 0.5000
vt 0.9700 0.5000
vt 0.9700 0.5000
vt 0.9700 0.5000
vt 0.9700 0.5000
vt 0.9700 0.5000
vt 0.9700 0.5000
vt 0.9700 0.5000
vt 0.9700 0.5000
vt 0.9700 0.5000
vt 0.9700 0.5000
vt 0.9700 0.5000
vt 0.9700 0.5000
vt 0.9700 0.5000
vt 0.9700 0.5000
vt 0.9700 0.5000
vt 0.9700 0.5000
vt 0.9700 0.5000
vt 0.9700 0.5000
vt 0.9700 0.5000
vt 0.9700 0.5000
vt 0.9700 0.5000
vt 0.9700 0.5000
vt 0.9700 0.5000
vt 0.9700 0.5000
vt 0.9700 0.5000
vt 0.9700 0.5000
vt 0.9700 0.5000
vt 0.9700 0.5000
vt 0.9700 0.5000
vt 0.9700 0.5000
vt 0.9700 0.5000
vt 0.9700 0.5000
vt 0.9700 0.5000
vt 0.9700 0.5000
vt 0.9700 0.5000
vt 0.9700 0.5000
vt 0.9700 0.5000
vt 0.9700 0.5000
vt 0.9700 0.5000
vt 0.9700 0.5000
vt 0.9700 0.5000
vt 0.9700 0.5000
vt 0.9700 0.5000
vt 0.9700 0.5000
vt 0.9700 0.5000
vt 0.9700 0.5000
vt 0.9700 0.5000
vt 0.9700 0.5000
vt 0.9700 0.5000
vt 0.9700 0.5000
vt 0.9700 0.5000
vt 0.9700 0.5000
vt 0.9700 0.5000
vt 0.9700 0.5000
vt 0.9700 0.5000
vt 0.9700 0.5000
vt 0.9700 0.5000
vt 0.9700 0.5000
vt 0.9700 0.5000
vt 0.9700 0.5000
vt 0.9700 0.5000
vt 0.9700 0.5000
vt 0.9700 0.5000
vt 0.9700 0.5000
vt 0.9700 0.5000
vt 0.9700 0.5000
vt 0.9700 0.5000
vt 0.9700 0.5000
vt 0.9700 0.5000
vt 0.9700 0.5000
vt 0.9700 0.5000
vt 0.9700 0.5000
vt 0.9700 0.5000
vt 0.9700 0.5000
vt 0.9700 0.5000
vt 0.9700 0.5000
vt 0.9700 0.5000
vt 0.9700 0.5000
vt 0.9700 0.5000
vt 0.9700 0.5000
vt 0.9700 0.5000
vt 0.9700 0.5000
vt 0.9700 0.5000
vt 0.9700 0.5000
vt 0.9700 0.5000
vt 0.9700 0.5000
vt 0.9700 0.5000
vt 0.9700 0.5000
vt 0.9700 0.5000
vt 0.9700 0.5000
vt 0.9700 0.5000
vt 0.9700 0.5000
vt 0.9700 0.5000
vt 0.9700 0.5000
vt 0.9700 0.5000
vt 0.0300 0.5000
vt 0.0300 0.5000
vt 0.0300 0.5000
vt 0.0300 0.5000
vt 0.0300 0.5000
vt 0.0300 0.5000
vt 0.0300 0.5000
vt 0.0300 0.5000
vt 0.0300 0.5000
vt 0.0300 0.5000
vt 0.0300 0.5000
vt 0.0300 0.5000
vt 0.0300 0.5000
vt 0.0300 0.5000
vt 0.0300 0.5000
vt 0.0300 0.5000
vt 0.0300 0.5000
vt 0.0300 0.5000
vt 0.0300 0.5000
vt 0.0300 0.5000
vt 0.0300 0.5000
vt 0.0300 0.5000
vt 0.0300 0.5000
vt 0.0300 0.5000
vt 0.0300 0.5000
vt 0.0300 0.5000
vt 0.0300 0.5000
vt 0.0300 0.5000
vt 0.0300 0.5000
vt 0.0300 0.5000
vt 0.0300 0.5000
vt 0.0300 0.5000
vt 0.0300 0.5000
vt 0.0300 0.5000
vt 0.0300 0.5000
vt 0.0300 0.5000
vt 0.0300 0.5000
vt 0.0300 0.5000
vt 0.0300 0.5000
vt 0.0300 0.5000
vt 0.0300 0.5000
vt 0.0300 0.5000
vt 0.0300 0.5000
vt 0.0300 0.5000
vt 0.0300 0.5000
vt 0.0300 0.5000
vt 0.0300 0.5000
vt 0.0300 0.5000
vt 0.0300 0.5000
vt 0.0300 0.5000
vt 0.0300 0.5000
vt 0.0300 0.5000
vt 0.0300 0.5000
vt 0.0300 0.5000
vt 0.0300 0.5000
vt 0.0300 0.5000
vt 0.0300 0.5000
vt 0.0300 0.5000
vt 0.0300 0.5000
vt 0.0300 0.5000
vt 0.0300 0.5000
vt 0.0300 0.5000
vt 0.0300 0.5000
vt 0.0300 0.5000
vt 0.0300 0.5000
vt 0.0300 0.5000
vt 0.0300 0.5000
vt 0.0300 0.5000
vt 0.0300 0.5000
vt 0.0300 0.5000
vt 0.0300 0.5000
vt 0.0300 0.5000
vt 0.0300 0.5000
vt 0.0300 0.5000
vt 0.0300 0.5000
vt 0.0300 0.5000
vt 0.0300 0.5000
vt 0.0300 0.5000
vt 0.0300 0.5000
vt 0.0300 0.5000
vt 0.0300 0.5000
vt 0.0300 0.5000
vt 0.0300 0.5000
vt 0.0300 0.5000
vt 0.0300 0.5000
vt 0.0300 0.5000
vt 0.0300 0.5000
vt 0.0300 0.5000
vt 0.0300 0.5000
vt 0.0300 0.5000
vt 0.0300 0.5000
vt 0.0300 0.5000
vt 0.0300 0.5000
vt 0.0300 0.5000
vt 0.0300 0.5000
vt 0.0300 0.5000
vt 0.0300 0.5000
vt 0.0300 0.5000
vt 0.0300 0.5000
vt 0.0300 0.5000
vt 0.0300 0.5000
vt 0.0300 0.5000
vt 0.0300 0.5000
vt 0.0300 0.5000
vt 0.0300 0.5000
vt 0.0300 0.5000
vt 0.0300 0.5000
vt 0.0300 0.5000
vt 0.0300 0.5000
vt 0.0300 0.5000
vt 0.0300 0.5000
vt 0.0300 0.5000
vt 0.0300 0.5000
vt 0.0300 0.5000
vt 0.0300 0.5000
vt 0.0300 0.5000
vt 0.0300 0.5000
vt 0.0300 0.5000
vt 0.0300 0.5000
vt 0.0300 0.5000
vt 0.0300 0.5000
vt 0.0300 0.5000
vt 0.0300 0.5000
vt 0.0300 0.5000
vt 0.0300 0.5000
vt 0.0300 0.5000
vt 0.0300 0.5000
vt 0.0300 0.5000
vt 0.0300 0.5000
vt 0.0300 0.5000
vt 0.0300 0.5000
vt 0.0300 0.5000
vt 0.0300 0.5000
vt 0.0300 0.5000
vt 0.0300 0.5000
vt 0.0300 0.5000
vt 0.0300 0.5000
vt 0.0300 0.5000
vt 0.0300 0.5000
vt 0.0300 0.5000
vt 0.0300 0.5000
vt 0.0300 0.5000
vt 0.0300 0.5000
vt 0.0300 0.5000
vt 0.0300 0.5000
vt 0.0300 0.5000
vt 0.0300 0.5000
vt 0.0300 0.5000
vt 0.0300 0.5000
vt 0.0300 0.5000
vt 0.0300 0.5000
vt 0.0300 0.5000
vt 0.1508 0.5000
vt 0.5321 0.5000
vt 0.0300 0.5000
vt 0.0300 0.5000
vt 0.0300 0.5000
vt 0.0300 0.5000
vt 0.0300 0.5000
vt 0.0300 0.5000
vt 0.0300 0.5000
vt 0.0300 0.5000
vt 0.0300 0.5000
vt 0.0300 0.5000
vt 0.0300 0.5000
vt 0.0300 0.5000
vt 0.0300 0.5000
vt 0.5321 0.5000
vt 0.7161 0.5000
vt 0.0300 0.5000
vt 0.7161 0.5000
vt 0.6487 0.5000
vt 0.0300 0.5000
vt 0.6487 0.5000
vt 0.0300 0.5000
vt 0.6487 0.5000
vt 0.9700 0.5000
vt 0.8896 0.5000
vt 0.0300 0.5000
vt 0.8896 0.5000
vt 0.3108 0.5000
vt 0.9700 0.5000
vt 0.9700 0.5000
vt 0.5321 0.5000
vt 0.1508 0.5000
vt 0.9700 0.5000
vt 0.6487 0.5000
vt 0.7161 0.5000
vt 0.9700 0.5000
vt 0.0300 0.5000
vt 0.0300 0.5000
vt 0.0300 0.5000
vt 0.7161 0.5000
vt 0.5321 0.5000
vt 0.9700 0.5000
vt 0.9700 0.5000
vt 0.9700 0.5000
vt 0.9700 0.5000
vt 0.9700 0.5000
vt 0.3108 0.5000
vt 0.8896 0.5000
vt 0.2163 0.5000
vt 0.0300 0.5000
vt 0.2163 0.5000
vt 0.0300 0.5000
vt 0.8481 0.5000
vt 0.8433 0.5000
vt 0.9700 0.5000
vt 0.9700 0.5000
vt 0.9700 0.5000
vt 0.9700 0.5000
vt 0.9700 0.5000
vt 0.9700 0.5000
vt 0.9700 0.5000
vt 0.9700 0.5000
vt 0.8896 0.5000
vt 0.9700 0.5000
vt 0.8433 0.5000
vt 0.8896 0.5000
vt 0.8433 0.5000
vt 0.2163 0.5000
vt 0.0300 0.5000
vt 0.0300 0.5000
vt 0.0300 0.5000
vt 0.2163 0.5000
vt 0.8433 0.5000
vt 0.0300 0.5000
vt 0.9700 0.5000
vt 0.9700 0.5000
vt 0.9700 0.5000
vt 0.9700 0.5000
vt 0.9700 0.5000
vt 0.9700 0.5000
vt 0.9700 0.5000
vt 0.8896 0.5000
vt 0.9700 0.5000
vt 0.9700 0.5000
vt 0.0300 0.5000
vt 0.0300 0.5000
vt 0.0300 0.5000
vt 0.9700 0.5000
vt 0.9700 0.5000
vt 0.9700 0.5000
vt 0.0300 0.5000
vt 0.8433 0.5000
vt 0.8481 0.5000
vt 0.0300 0.5000
vt 0.0300 0.5000
vt 0.0300 0.5000
vt 0.9700 0.5000
vt 0.9700 0.5000
vt 0.9700 0.5000
vt 0.9700 0.5000
vt 0.9700 0.5000
vt 0.9700 0.5000
vt 0.9700 0.5000
vt 0.9700 0.5000
vt 0.9700 0.5000
vt 0.0300 0.5000
vt 0.8481 0.5000
vt 0.2163 0.5000
vt 0.0300 0.5000
vt 0.0300 0.5000
vt 0.0300 0.5000
vt 0.9700 0.5000
vt 0.9700 0.5000
vt 0.9700 0.5000
vt 0.9700 0.5000
vt 0.8481 0.5000
vt 0.9700 0.5000
vt 0.8896 0.5000
vt 0.2163 0.5000
vt 0.8481 0.5000
vt 0.8896 0.5000
vt 0.2163 0.5000
vt 0.8896 0.5000
vt 0.3108 0.5000
vt 0.0300 0.5000
vt 0.2163 0.5000
vt 0.0300 0.5000
vt 0.0300 0.5000
vt 0.0300 0.5000
vt 0.0300 0.5000
vt 0.0300 0.5000
vt 0.9700 0.5000
vt 0.9700 0.5000
vt 0.9700 0.5000
vt 0.8896 0.5000
vt 0.9700 0.5000
vt 0.6488 0.5000
vt 0.3108 0.5000
vt 0.8896 0.5000
vt 0.0300 0.5000
vt 0.5321 0.5000
vt 0.9700 0.5000
vt 0.9700 0.5000
vt 0.1508 0.5000
vt 0.7161 0.5000
vt 0.6488 0.5000
vt 0.9700 0.5000
vt 0.9700 0.5000
vt 0.0300 0.5000
vt 0.0300 0.5000
vt 0.0300 0.5000
vt 0.9700 0.5000
vt 0.5321 0.5000
vt 0.7161 0.5000
vt 0.0300 0.5000
vt 0.0300 0.5000
vt 0.0300 0.5000
vt 0.0300 0.5000
vt 0.9700 0.5000
vt 0.9700 0.5000
vt 0.6488 0.5000
vt 0.6488 0.5000
vt 0.7161 0.5000
vt 0.0300 0.5000
vt 0.0300 0.5000
vt 0.6488 0.5000
vt 0.0300 0.5000
vt 0.0300 0.5000
vt 0.5321 0.5000
vt 0.1508 0.5000
vt 0.0300 0.5000
vt 0.0300 0.5000
vt 0.0300 0.5000
vt 0.0300 0.5000
vt 0.0300 0.5000
vt 0.0300 0.5000
vt 0.0300 0.5000
vt 0.0300 0.5000
vt 0.0300 0.5000
vt 0.0300 0.5000
vt 0.0300 0.5000
vt 0.7161 0.5000
vt 0.5321 0.5000
vt 0.0300 0.5000
vt 0.0300 0.5000
vt 0.0300 0.5000
vt 0.0300 0.5000
vt 0.0300 0.5000
vt 0.0300 0.5000
vt 0.0300 0.5000
vt 0.0300 0.5000
vt 0.0300 0.5000
vt 0.0300 0.5000
vt 0.0300 0.5000
vt 0.0300 0.5000
vt 0.0300 0.5000
vt 0.0300 0.5000
vt 0.0300 0.5000
vt 0.0300 0.5000
vt 0.0300 0.5000
vt 0.0300 0.5000
vt 0.0300 0.5000
vt 0.0300 0.5000
vt 0.0300 0.5000
vt 0.0300 0.5000
vt 0.0300 0.5000
vt 0.0300 0.5000
vt 0.0300 0.5000
vt 0.0300 0.5000
vt 0.0300 0.5000
vt 0.0300 0.5000
vt 0.0300 0.5000
vt 0.0300 0.5000
vt 0.0300 0.5000
vt 0.0300 0.5000
vt 0.0300 0.5000
vt 0.0300 0.5000
vt 0.0300 0.5000
vt 0.0300 0.5000
vt 0.0300 0.5000
vt 0.0300 0.5000
vt 0.0300 0.5000
vt 0.0300 0.5000
vt 0.0300 0.5000
vt 0.0300 0.5000
vt 0.0300 0.5000
vt 0.0300 0.5000
vt 0.0300 0.5000
vt 0.0300 0.5000
vt 0.0300 0.5000
vt 0.0300 0.5000
vt 0.0300 0.5000
vt 0.0300 0.5000
vt 0.0300 0.5000
vt 0.0300 0.5000
vt 0.0300 0.5000
vt 0.0300 0.5000
vt 0.0300 0.5000
vt 0.0300 0.5000
vt 0.0300 0.5000
vt 0.0300 0.5000
vt 0.0300 0.5000
vt 0.0300 0.5000
vt 0.0300 0.5000
vt 0.0300 0.5000
vt 0.0300 0.5000
vt 0.0300 0.5000
vt 0.0300 0.5000
vt 0.0300 0.5000
vt 0.0300 0.5000
vt 0.0300 0.5000
vt 0.0300 0.5000
vt 0.0300 0.5000
vt 0.0300 0.5000
vt 0.0300 0.5000
vt 0.0300 0.5000
vt 0.0300 0.5000
vt 0.0300 0.5000
vt 0.0300 0.5000
vt 0.0300 0.5000
vt 0.0300 0.5000
vt 0.0300 0.5000
vt 0.0300 0.5000
vt 0.0300 0.5000
vt 0.0300 0.5000
vt 0.0300 0.5000
vt 0.0300 0.5000
vt 0.0300 0.5000
vt 0.0300 0.5000
vt 0.0300 0.5000
vt 0.0300 0.5000
vt 0.0300 0.5000
vt 0.0300 0.5000
vt 0.0300 0.5000
vt 0.0300 0.5000
vt 0.0300 0.5000
vt 0.0300 0.5000
vt 0.0300 0.5000
vt 0.0300 0.5000
vt 0.0300 0.5000
vt 0.0300 0.5000
vt 0.0300 0.5000
vt 0.0300 0.5000
vt 0.0300 0.5000
vt 0.0300 0.5000
vt 0.0300 0.5000
vt 0.0300 0.5000
vt 0.9700 0.5000
vt 0.9700 0.5000
vt 0.9700 0.5000
vt 0.9700 0.5000
vt 0.0300 0.5000
vt 0.0300 0.5000
vt 0.0300 0.5000
vt 0.0300 0.5000
vt 0.0300 0.5000
vt 0.0300 0.5000
vt 0.0300 0.5000
vt 0.0300 0.5000
vt 0.0300 0.5000
vt 0.0300 0.5000
vt 0.0300 0.5000
vt 0.0300 0.5000
vt 0.0300 0.5000
vt 0.0300 0.5000
vt 0.0300 0.5000
vt 0.0300 0.5000
vt 0.0300 0.5000
vt 0.0300 0.5000
vt 0.0300 0.5000
vt 0.0300 0.5000
vt 0.0300 0.5000
vt 0.9700 0.5000
vt 0.9700 0.5000
vt 0.9700 0.5000
vt 0.0300 0.5000
vt 0.0300 0.5000
vt 0.0300 0.5000
vt 0.9700 0.5000
vt 0.9700 0.5000
vt 0.9700 0.5000
vt 0.9700 0.5000
vt 0.9700 0.5000
vt 0.9700 0.5000
vt 0.9700 0.5000
vt 0.9700 0.5000
vt 0.9700 0.5000
vt 0.9700 0.5000
vt 0.9700 0.5000
vt 0.9700 0.5000
vt 0.9700 0.5000
vt 0.9700 0.5000
vt 0.9700 0.5000
vt 0.9700 0.5000
vt 0.9700 0.5000
vt 0.9700 0.5000
vt 0.9700 0.5000
vt 0.9700 0.5000
vt 0.9700 0.5000
vt 0.9700 0.5000
vt 0.9700 0.5000
vt 0.9700 0.5000
vt 0.9700 0.5000
vt 0.9700 0.5000
vt 0.9700 0.5000
vt 0.9700 0.5000
vt 0.9700 0.5000
vt 0.9700 0.5000
vt 0.9700 0.5000
vt 0.9700 0.5000
vt 0.9700 0.5000
vt 0.9700 0.5000
vt 0.9700 0.5000
vt 0.9700 0.5000
vt 0.9700 0.5000
vt 0.9700 0.5000
vt 0.9700 0.5000
vt 0.9700 0.5000
vt 0.9700 0.5000
vt 0.9700 0.5000
vt 0.9700 0.5000
vt 0.9700 0.5000
vt 0.9700 0.5000
vt 0.0300 0.5000
vt 0.0300 0.5000
vt 0.0300 0.5000
vt 0.9700 0.5000
vt 0.9700 0.5000
vt 0.9700 0.5000
vt 0.9700 0.5000
vt 0.9700 0.5000
vt 0.9700 0.5000
vt 0.9700 0.5000
vt 0.9700 0.5000
vt 0.9700 0.5000
vt 0.9700 0.5000
vt 0.9700 0.5000
vt 0.9700 0.5000
vt 0.9700 0.5000
vt 0.9700 0.5000
vt 0.9700 0.5000
vt 0.9700 0.5000
vt 0.9700 0.5000
vt 0.9700 0.5000
vt 0.9700 0.5000
vt 0.9700 0.5000
vt 0.9700 0.5000
vt 0.9700 0.5000
vt 0.9700 0.5000
vt 0.9700 0.5000
vt 0.9700 0.5000
vt 0.9700 0.5000
vt 0.9700 0.5000
vt 0.9700 0.5000
vt 0.9700 0.5000
vt 0.9700 0.5000
vt 0.9700 0.5000
vt 0.9700 0.5000
vt 0.9700 0.5000
vt 0.9700 0.5000
vt 0.9700 0.5000
vt 0.0300 0.5000
vt 0.0300 0.5000
vt 0.0300 0.5000
vt 0.9700 0.5000
vt 0.9700 0.5000
vt 0.9700 0.5000
vt 0.9700 0.5000
vt 0.9700 0.5000
vt 0.9700 0.5000
vt 0.9700 0.5000
vt 0.9700 0.5000
vt 0.9700 0.5000
vt 0.9700 0.5000
vt 0.9700 0.5000
vt 0.9700 0.5000
vt 0.9700 0.5000
vt 0.9700 0.5000
vt 0.9700 0.5000
vt 0.9700 0.5000
vt 0.9700 0.5000
vt 0.9700 0.5000
vt 0.9700 0.5000
vt 0.9700 0.5000
vt 0.9700 0.5000
vt 0.9700 0.5000
vt 0.9700 0.5000
vt 0.9700 0.5000
vt 0.9700 0.5000
vt 0.9700 0.5000
vt 0.9700 0.5000
vt 0.9700 0.5000
vt 0.9700 0.5000
vt 0.9700 0.5000
vt 0.9700 0.5000
vt 0.9700 0.5000
vt 0.9700 0.5000
vt 0.9700 0.5000
vt 0.9700 0.5000
vt 0.9700 0.5000
vt 0.9700 0.5000
vt 0.9700 0.5000
vt 0.9700 0.5000
vt 0.9700 0.5000
vt 0.9700 0.5000
vt 0.0300 0.5000
vt 0.0300 0.5000
vt 0.0300 0.5000
vt 0.9700 0.5000
vt 0.9700 0.5000
vt 0.9700 0.5000
vt 0.9700 0.5000
vt 0.9700 0.5000
vt 0.9700 0.5000
vt 0.9700 0.5000
vt 0.9700 0.5000
vt 0.9700 0.5000
vt 0.9700 0.5000
vt 0.9700 0.5000
vt 0.9700 0.5000
vt 0.9700 0.5000
vt 0.9700 0.5000
vt 0.9700 0.5000
vt 0.9700 0.5000
vt 0.9700 0.5000
vt 0.9700 0.5000
vt 0.9700 0.5000
vt 0.9700 0.5000
vt 0.9700 0.5000
vt 0.9700 0.5000
vt 0.9700 0.5000
vt 0.9700 0.5000
vt 0.9700 0.5000
vt 0.9700 0.5000
vt 0.9700 0.5000
vt 0.9700 0.5000
vt 0.9700 0.5000
vt 0.9700 0.5000
vt 0.9700 0.5000
vt 0.9700 0.5000
vt 0.9700 0.5000
vt 0.9700 0.5000
vt 0.9700 0.5000
vt 0.9700 0.5000
vt 0.9700 0.5000
vt 0.9700 0.5000
vt 0.9700 0.5000
vt 0.9700 0.5000
vt 0.9700 0.5000
vt 0.9700 0.5000
vt 0.9700 0.5000
vt 0.9700 0.5000
vt 0.0300 0.5000
vt 0.0300 0.5000
vt 0.0300 0.5000
vt 0.0300 0.5000
vt 0.9700 0.5000
vt 0.9700 0.5000
vt 0.9700 0.5000
vt 0.0300 0.5000
vt 0.0300 0.5000
vt 0.0300 0.5000
vt 0.9700 0.5000
vt 0.9700 0.5000
vt 0.9700 0.5000
vt 0.9700 0.5000
vt 0.9700 0.5000
vt 0.9700 0.5000
vt 0.9700 0.5000
vt 0.9700 0.5000
vt 0.9700 0.5000
vt 0.9700 0.5000
vt 0.9700 0.5000
vt 0.9700 0.5000
vt 0.9700 0.5000
vt 0.9700 0.5000
vt 0.9700 0.5000
vt 0.9700 0.5000
vt 0.9700 0.5000
vt 0.9700 0.5000
vt 0.9700 0.5000
vt 0.9700 0.5000
vt 0.9700 0.5000
vt 0.9700 0.5000
vt 0.9700 0.5000
vt 0.9700 0.5000
vt 0.9700 0.5000
vt 0.9700 0.5000
vt 0.9700 0.5000
vt 0.9700 0.5000
vt 0.9700 0.5000
vt 0.9700 0.5000
vt 0.9700 0.5000
vt 0.9700 0.5000
vt 0.9700 0.5000
vt 0.9700 0.5000
vt 0.9700 0.5000
vt 0.9700 0.5000
vt 0.9700 0.5000
vt 0.9700 0.5000
vt 0.9700 0.5000
vt 0.9700 0.5000
vt 0.9700 0.5000
vt 0.9700 0.5000
vt 0.9700 0.5000
vt 0.9700 0.5000
vt 0.9700 0.5000
vt 0.9700 0.5000
vt 0.9700 0.5000
vt 0.9700 0.5000
vt 0.9700 0.5000
vt 0.9700 0.5000
vt 0.9700 0.5000
vt 0.9700 0.5000
vt 0.9700 0.5000
vt 0.9700 0.5000
vt 0.9700 0.5000
vt 0.9700 0.5000
vt 0.9700 0.5000
vt 0.9700 0.5000
vt 0.9700 0.5000
vt 0.9700 0.5000
vt 0.9700 0.5000
vt 0.9700 0.5000
vt 0.9700 0.5000
vt 0.9700 0.5000
vt 0.9700 0.5000
vt 0.9700 0.5000
vt 0.9700 0.5000
vt 0.9700 0.5000
vt 0.9700 0.5000
vt 0.9700 0.5000
vt 0.9700 0.5000
vt 0.9700 0.5000
vt 0.9700 0.5000
vt 0.9700 0.5000
vt 0.9700 0.5000
vt 0.9700 0.5000
vt 0.9700 0.5000
vt 0.0300 0.5000
vt 0.0300 0.5000
vt 0.0300 0.5000
vt 0.9700 0.5000
vt 0.9700 0.5000
vt 0.9700 0.5000
vt 0.9700 0.5000
vt 0.9700 0.5000
vt 0.9700 0.5000
vt 0.9700 0.5000
vt 0.9700 0.5000
vt 0.9700 0.5000
vt 0.9700 0.5000
vt 0.9700 0.5000
vt 0.9700 0.5000
vt 0.9700 0.5000
vt 0.9700 0.5000
vt 0.9700 0.5000
vt 0.9700 0.5000
vt 0.9700 0.5000
vt 0.9700 0.5000
vt 0.9700 0.5000
vt 0.9700 0.5000
vt 0.9700 0.5000
vt 0.9700 0.5000
vt 0.9700 0.5000
vt 0.9700 0.5000
vt 0.9700 0.5000
vt 0.9700 0.5000
vt 0.9700 0.5000
vt 0.9700 0.5000
vt 0.9700 0.5000
vt 0.9700 0.5000
vt 0.9700 0.5000
vt 0.9700 0.5000
vt 0.9700 0.5000
vt 0.9700 0.5000
vt 0.9700 0.5000
vt 0.9700 0.5000
vt 0.9700 0.5000
vt 0.9700 0.5000
vt 0.9700 0.5000
vt 0.9700 0.5000
vt 0.9700 0.5000
vt 0.9700 0.5000
vt 0.9700 0.5000
vt 0.9700 0.5000
vt 0.9700 0.5000
vt 0.9700 0.5000
vt 0.9700 0.5000
vt 0.9700 0.5000
vt 0.9700 0.5000
vt 0.9700 0.5000
vt 0.9700 0.5000
vt 0.9700 0.5000
vt 0.9700 0.5000
vt 0.9700 0.5000
vt 0.9700 0.5000
vt 0.9700 0.5000
vt 0.9700 0.5000
vt 0.9700 0.5000
vt 0.9700 0.5000
vt 0.9700 0.5000
vt 0.9700 0.5000
vt 0.9700 0.5000
vt 0.9700 0.5000
vt 0.9700 0.5000
vt 0.9700 0.5000
vt 0.9700 0.5000
vt 0.9700 0.5000
vt 0.9700 0.5000
vt 0.9700 0.5000
vt 0.9700 0.5000
vt 0.9700 0.5000
vt 0.9700 0.5000
vt 0.9700 0.5000
vt 0.9700 0.5000
vt 0.9700 0.5000
vt 0.9700 0.5000
vt 0.9700 0.5000
vt 0.9700 0.5000
vt 0.9700 0.5000
vt 0.9700 0.5000
vt 0.9700 0.5000
vt 0.9700 0.5000
vt 0.9700 0.5000
vt 0.9700 0.5000
vt 0.9700 0.5000
vt 0.9700 0.5000
vt 0.9700 0.5000
vt 0.9700 0.5000
vt 0.9700 0.5000
vt 0.9700 0.5000
vt 0.0300 0.5000
vt 0.0300 0.5000
vt 0.0300 0.5000
vt 0.9700 0.5000
vt 0.9700 0.5000
vt 0.9700 0.5000
vt 0.9700 0.5000
vt 0.9700 0.5000
vt 0.9700 0.5000
vt 0.9700 0.5000
vt 0.9700 0.5000
vt 0.9700 0.5000
vt 0.9700 0.5000
vt 0.9700 0.5000
vt 0.9700 0.5000
vt 0.9700 0.5000
vt 0.9700 0.5000
vt 0.9700 0.5000
vt 0.9700 0.5000
vt 0.9700 0.5000
vt 0.9700 0.5000
vt 0.9700 0.5000
vt 0.9700 0.5000
vt 0.9700 0.5000
vt 0.9700 0.5000
vt 0.9700 0.5000
vt 0.9700 0.5000
vt 0.9700 0.5000
vt 0.9700 0.5000
vt 0.9700 0.5000
vt 0.9700 0.5000
vt 0.9700 0.5000
vt 0.9700 0.5000
vt 0.9700 0.5000
vt 0.9700 0.5000
vt 0.9700 0.5000
vt 0.9700 0.5000
vt 0.9700 0.5000
vt 0.9700 0.5000
vt 0.9700 0.5000
vt 0.9700 0.5000
vt 0.9700 0.5000
vt 0.9700 0.5000
vt 0.9700 0.5000
vt 0.9700 0.5000
vt 0.9700 0.5000
vt 0.9700 0.5000
vt 0.9700 0.5000
vt 0.9700 0.5000
vt 0.9700 0.5000
vt 0.9700 0.5000
vt 0.9700 0.5000
vt 0.9700 0.5000
vt 0.9700 0.5000
vt 0.9700 0.5000
vt 0.9700 0.5000
vt 0.9700 0.5000
vt 0.9700 0.5000
vt 0.9700 0.5000
vt 0.9700 0.5000
vt 0.9700 0.5000
vt 0.9700 0.5000
vt 0.9700 0.5000
vt 0.9700 0.5000
vt 0.9700 0.5000
vt 0.9700 0.5000
vt 0.9700 0.5000
vt 0.9700 0.5000
vt 0.9700 0.5000
vt 0.9700 0.5000
vt 0.9700 0.5000
vt 0.9700 0.5000
vt 0.9700 0.5000
vt 0.9700 0.5000
vt 0.0300 0.5000
vt 0.0300 0.5000
vt 0.0300 0.5000
vn 0.0636 -0.8611 0.5044
vn -0.0801 -0.8338 0.5462
vn -0.1229 -0.8702 0.4772
vn 0.0013 -0.9212 0.3890
vn 0.0636 -0.8611 0.5044
vn -0.1229 -0.8702 0.4772
vn -0.2614 -0.8298 0.4930
vn -0.3183 -0.7958 0.5151
vn -0.3177 -0.8753 0.3645
vn -0.1229 -0.8702 0.4772
vn -0.3177 -0.8753 0.3645
vn -0.1622 -0.9352 0.3148
vn 0.0013 -0.9212 0.3890
vn -0.1229 -0.8702 0.4772
vn -0.1622 -0.9352 0.3148
vn -0.3833 -0.7983 0.4645
vn -0.5136 -0.7323 0.4471
vn -0.4487 -0.8444 0.2926
vn -0.7249 -0.6455 0.2405
vn -0.6580 -0.7470 0.0953
vn -0.6015 -0.7385 0.3046
vn -0.8269 -0.5575 0.0738
vn -0.7708 -0.6351 0.0501
vn -0.7987 -0.5644 0.2085
vn -0.6580 -0.7470 0.0953
vn -0.5218 -0.8398 0.1497
vn -0.6015 -0.7385 0.3046
vn -0.8130 -0.5805 -0.0458
vn -0.7697 -0.6308 -0.0986
vn -0.7708 -0.6351 0.0501
vn -0.5218 -0.8398 0.1497
vn -0.3098 -0.9458 0.0979
vn -0.4487 -0.8444 0.2926
vn -0.7886 -0.5894 -0.1753
vn -0.7231 -0.6502 -0.2333
vn -0.7697 -0.6308 -0.0986
vn -0.6801 -0.7245 -0.1124
vn -0.5514 -0.8319 -0.0634
vn -0.6580 -0.7470 0.0953
vn -0.5514 -0.8319 -0.0634
vn -0.3657 -0.9307 -0.0059
vn -0.5218 -0.8398 0.1497
vn -0.3098 -0.9458 0.0979
vn -0.1541 -0.9767 0.1492
vn -0.3177 -0.8753 0.3645
vn -0.6991 -0.6099 -0.3732
vn -0.6307 -0.7032 -0.3281
vn -0.7231 -0.6502 -0.2333
vn -0.6370 -0.5746 -0.5139
vn -0.5749 -0.6654 -0.4762
vn -0.6991 -0.6099 -0.3732
vn -0.5749 -0.6654 -0.4762
vn 0.1903 -0.7287 -0.6578
vn -0.6307 -0.7032 -0.3281
vn -0.5593 -0.7888 -0.2551
vn -0.4238 -0.8899 -0.1690
vn -0.5514 -0.8319 -0.0634
vn -0.7676 -0.3713 -0.5224
vn -0.6760 -0.4733 -0.5648
vn -0.6677 -0.5312 -0.5215
vn -0.6370 -0.5746 -0.5139
vn 0.1931 -0.6366 -0.7467
vn -0.5749 -0.6654 -0.4762
vn 0.1903 -0.7287 -0.6578
vn -0.0486 -0.7549 -0.6540
vn -0.5593 -0.7888 -0.2551
vn 0.1830 -0.6403 -0.7460
vn 0.8946 -0.2267 -0.3851
vn 0.1931 -0.6366 -0.7467
vn 0.1931 -0.6366 -0.7467
vn 0.8307 -0.2271 -0.5083
vn 0.1903 -0.7287 -0.6578
vn 0.1903 -0.7287 -0.6578
vn 0.8307 -0.2271 -0.5083
vn -0.0486 -0.7549 -0.6540
vn 0.8307 -0.2271 -0.5083
vn 0.6999 -0.2443 -0.6712
vn 0.2951 -0.7393 -0.6053
vn 0.2951 -0.7393 -0.6053
vn 0.7419 -0.2574 -0.6191
vn 0.2206 -0.8387 -0.4979
vn 0.9131 -0.1815 -0.3652
vn 0.6805 -0.1355 -0.7201
vn 0.8102 -0.1874 -0.5553
vn 0.7419 -0.2574 -0.6191
vn 0.9464 -0.1529 -0.2845
vn 0.2206 -0.8387 -0.4979
vn -0.1541 -0.9767 0.1492
vn 0.0541 -0.9658 0.2537
vn -0.1622 -0.9352 0.3148
vn 0.0013 -0.9212 0.3890
vn -0.1622 -0.9352 0.3148
vn 0.0541 -0.9658 0.2537
vn 0.9435 -0.1576 -0.2915
vn 0.9394 -0.0371 -0.3408
vn 0.7604 -0.0297 -0.6488
vn 0.8102 -0.1874 -0.5553
vn 0.4170 -0.2671 -0.8688
vn 0.6999 -0.2443 -0.6712
vn 0.9464 -0.1529 -0.2845
vn -0.0133 -0.8846 -0.4662
vn 0.1235 -0.8802 -0.4583
vn 0.2736 -0.3496 -0.8961
vn 0.0213 -0.8875 -0.4603
vn -0.0133 -0.8846 -0.4662
vn -0.0000 0.0033 -1.0000
vn 0.0146 -0.0657 -0.9977
vn 0.7604 -0.0297 -0.6488
vn 0.7604 -0.0297 -0.6488
vn 0.0146 -0.0657 -0.9977
vn 0.6805 -0.1355 -0.7201
vn 0.6805 -0.1355 -0.7201
vn -0.2523 -0.2321 -0.9394
vn 0.4170 -0.2671 -0.8688
vn 0.0146 -0.0657 -0.9977
vn -0.7618 -0.0367 -0.6468
vn -0.2523 -0.2321 -0.9394
vn -0.1541 -0.9767 0.1492
vn 0.0003 -1.0000 -0.0031
vn 0.1291 -0.9822 0.1362
vn 0.0146 -0.0657 -0.9977
vn -0.0000 0.0033 -1.0000
vn -0.7618 -0.0367 -0.6468
vn 0.0213 -0.8875 -0.4603
vn -0.8783 -0.2046 -0.4321
vn -0.1242 -0.8802 -0.4581
vn -0.9394 -0.0371 -0.3408
vn -0.9435 -0.1576 -0.2915
vn -0.7618 -0.0367 -0.6468
vn -0.8783 -0.2046 -0.4321
vn -0.7419 -0.2574 -0.6191
vn -0.2206 -0.8387 -0.4979
vn -0.6974 -0.2485 -0.6722
vn -0.8309 -0.2269 -0.5081
vn -0.2951 -0.7393 -0.6053
vn -0.7419 -0.2574 -0.6191
vn -0.2951 -0.7393 -0.6053
vn -0.2206 -0.8387 -0.4979
vn -0.8967 -0.2255 -0.3810
vn -0.1830 -0.6403 -0.7460
vn -0.1931 -0.6366 -0.7467
vn -0.8309 -0.2269 -0.5081
vn -0.1931 -0.6366 -0.7467
vn -0.1903 -0.7287 -0.6578
vn -0.8309 -0.2269 -0.5081
vn -0.1903 -0.7287 -0.6578
vn 0.0486 -0.7549 -0.6540
vn -0.1931 -0.6366 -0.7467
vn 0.6370 -0.5746 -0.5139
vn 0.5749 -0.6654 -0.4762
vn 0.0486 -0.7549 -0.6540
vn -0.1903 -0.7287 -0.6578
vn 0.5593 -0.7888 -0.2551
vn 0.4238 -0.8899 -0.1690
vn 0.5593 -0.7888 -0.2551
vn 0.5514 -0.8319 -0.0634
vn 0.6760 -0.4733 -0.5648
vn 0.7676 -0.3713 -0.5224
vn 0.6677 -0.5312 -0.5215
vn 0.5749 -0.6654 -0.4762
vn 0.6370 -0.5746 -0.5139
vn 0.6991 -0.6099 -0.3732
vn -0.1903 -0.7287 -0.6578
vn 0.5749 -0.6654 -0.4762
vn 0.6307 -0.7032 -0.3281
vn 0.1291 -0.9822 0.1362
vn 0.3065 -0.9473 0.0937
vn 0.3059 -0.9024 0.3035
vn 0.6307 -0.7032 -0.3281
vn 0.6991 -0.6099 -0.3732
vn 0.7231 -0.6502 -0.2333
vn 0.0541 -0.9658 0.2537
vn 0.3059 -0.9024 0.3035
vn 0.1704 -0.9118 0.3736
vn 0.0013 -0.9212 0.3890
vn 0.0541 -0.9658 0.2537
vn 0.1704 -0.9118 0.3736
vn 0.5514 -0.8319 -0.0634
vn 0.6801 -0.7245 -0.1124
vn 0.6580 -0.7470 0.0953
vn 0.3657 -0.9307 -0.0059
vn 0.5514 -0.8319 -0.0634
vn 0.5218 -0.8398 0.1497
vn 0.7231 -0.6502 -0.2333
vn 0.7886 -0.5894 -0.1753
vn 0.7697 -0.6308 -0.0986
vn 0.3065 -0.9473 0.0937
vn 0.5218 -0.8398 0.1497
vn 0.4524 -0.8383 0.3044
vn 0.7697 -0.6308 -0.0986
vn 0.8130 -0.5805 -0.0458
vn 0.7708 -0.6351 0.0501
vn 0.7708 -0.6351 0.0501
vn 0.8269 -0.5575 0.0738
vn 0.7987 -0.5644 0.2085
vn 0.5218 -0.8398 0.1497
vn 0.6580 -0.7470 0.0953
vn 0.6015 -0.7385 0.3046
vn 0.6580 -0.7470 0.0953
vn 0.7249 -0.6455 0.2405
vn 0.6015 -0.7385 0.3046
vn 0.5136 -0.7323 0.4471
vn 0.4038 -0.7963 0.4505
vn 0.4524 -0.8383 0.3044
vn 0.4038 -0.7963 0.4505
vn 0.2550 -0.8367 0.4848
vn 0.3059 -0.9024 0.3035
vn 0.2550 -0.8367 0.4848
vn 0.0636 -0.8611 0.5044
vn 0.1704 -0.9118 0.3736
vn 0.0013 -0.9212 0.3890
vn 0.1704 -0.9118 0.3736
vn 0.0636 -0.8611 0.5044
vn -0.0004 0.9210 -0.3895
vn -0.0730 0.8595 -0.5058
vn -0.1754 0.9209 -0.3481
vn -0.0730 0.8595 -0.5058
vn -0.3205 0.8706 -0.3732
vn -0.1754 0.9209 -0.3481
vn -0.4021 0.7821 -0.4761
vn -0.5406 0.7158 -0.4420
vn -0.4817 0.8061 -0.3438
vn -0.8326 0.5248 -0.1769
vn -0.8636 0.4746 -0.1702
vn -0.8277 0.5555 -0.0797
vn -0.3205 0.8706 -0.3732
vn -0.4817 0.8061 -0.3438
vn -0.3989 0.9016 -0.1674
vn -0.7214 0.6921 -0.0256
vn -0.8141 0.5792 0.0413
vn -0.7681 0.6311 0.1086
vn -0.6230 0.7534 0.2103
vn -0.7681 0.6311 0.1086
vn -0.7372 0.6290 0.2466
vn -0.1754 0.9209 -0.3481
vn -0.3205 0.8706 -0.3732
vn -0.1592 0.9763 -0.1463
vn -0.3989 0.9016 -0.1674
vn -0.5895 0.7983 -0.1232
vn -0.4012 0.9158 0.0185
vn -0.4012 0.9158 0.0185
vn -0.5895 0.7983 -0.1232
vn -0.5433 0.8333 0.1023
vn -0.5433 0.8333 0.1023
vn -0.7214 0.6921 -0.0256
vn -0.6230 0.7534 0.2103
vn -0.7372 0.6290 0.2466
vn -0.7666 0.5747 0.2865
vn -0.7080 0.5897 0.3886
vn -0.6230 0.7534 0.2103
vn -0.7372 0.6290 0.2466
vn -0.6385 0.6870 0.3470
vn -0.0004 0.9210 -0.3895
vn -0.1754 0.9209 -0.3481
vn -0.0135 0.9690 -0.2468
vn -0.7080 0.5897 0.3886
vn -0.6970 0.5575 0.4509
vn -0.6510 0.5450 0.5284
vn -0.6385 0.6870 0.3470
vn -0.7080 0.5897 0.3886
vn -0.6086 0.6370 0.4732
vn -0.6214 0.5103 0.5945
vn -0.6788 0.4418 0.5866
vn -0.6510 0.5450 0.5284
vn -0.1592 0.9763 -0.1463
vn -0.3989 0.9016 -0.1674
vn -0.2076 0.9781 -0.0114
vn -0.4012 0.9158 0.0185
vn -0.5433 0.8333 0.1023
vn 0.1152 0.8599 0.4974
vn 0.1918 0.7355 0.6498
vn -0.6086 0.6370 0.4732
vn 0.2130 0.6541 0.7258
vn -0.2076 0.9781 -0.0114
vn -0.4012 0.9158 0.0185
vn -0.0651 0.9094 0.4107
vn 0.1152 0.8599 0.4974
vn -0.1556 0.7582 0.6332
vn 0.2999 0.7399 0.6022
vn 0.2999 0.7399 0.6022
vn -0.1556 0.7582 0.6332
vn 0.7877 0.2297 0.5717
vn 0.7877 0.2297 0.5717
vn 0.1918 0.7355 0.6498
vn 0.8081 0.2233 0.5451
vn 0.8081 0.2233 0.5451
vn 0.2130 0.6541 0.7258
vn 0.8917 0.2313 0.3890
vn 0.7038 0.1662 0.6907
vn 0.8917 0.2313 0.3890
vn 0.8676 0.1435 0.4761
vn 0.8676 0.1435 0.4761
vn 0.8917 0.2313 0.3890
vn 0.9279 0.1824 0.3252
vn 0.5700 0.2251 0.7902
vn 0.8081 0.2233 0.5451
vn 0.7038 0.1662 0.6907
vn 0.5854 0.2848 0.7591
vn 0.8081 0.2233 0.5451
vn 0.5700 0.2251 0.7902
vn 0.8676 0.1435 0.4761
vn 0.9279 0.1824 0.3252
vn 0.9431 0.0985 0.3176
vn -0.0651 0.9094 0.4107
vn 0.1152 0.8599 0.4974
vn 0.6413 0.3526 0.6814
vn 0.7558 -0.0806 0.6498
vn 0.9431 0.0985 0.3176
vn 0.9447 -0.0093 0.3278
vn -0.1592 0.9763 -0.1463
vn -0.2076 0.9781 -0.0114
vn 0.0503 0.9987 0.0094
vn -0.0651 0.9094 0.4107
vn 0.6413 0.3526 0.6814
vn 0.5530 0.3163 0.7708
vn 0.0503 0.9987 0.0094
vn -0.0651 0.9094 0.4107
vn -0.0884 0.8086 0.5817
vn 0.5530 0.3163 0.7708
vn 0.5854 0.2848 0.7591
vn 0.1160 0.3671 0.9229
vn 0.1160 0.3671 0.9229
vn 0.5854 0.2848 0.7591
vn 0.1616 0.3126 0.9360
vn 0.1616 0.3126 0.9360
vn 0.5700 0.2251 0.7902
vn 0.2112 0.2172 0.9530
vn 0.2112 0.2172 0.9530
vn 0.7038 0.1662 0.6907
vn 0.1575 0.0555 0.9860
vn 0.1575 0.0555 0.9860
vn 0.8676 0.1435 0.4761
vn 0.7558 -0.0806 0.6498
vn -0.0884 0.8086 0.5817
vn 0.5530 0.3163 0.7708
vn 0.1160 0.3671 0.9229
vn 0.2112 0.2172 0.9530
vn -0.6682 0.1423 0.7302
vn -0.4983 0.2437 0.8321
vn 0.1575 0.0555 0.9860
vn -0.7667 0.0299 0.6414
vn -0.6682 0.1423 0.7302
vn 0.7558 -0.0806 0.6498
vn -0.0498 -0.1076 0.9929
vn -0.7667 0.0299 0.6414
vn -0.1592 0.9763 -0.1463
vn 0.0503 0.9987 0.0094
vn 0.1310 0.9824 -0.1332
vn 0.1616 0.3126 0.9360
vn -0.4983 0.2437 0.8321
vn -0.3918 0.3244 0.8610
vn -0.0498 -0.1076 0.9929
vn -0.9692 0.0053 0.2460
vn -0.7667 0.0299 0.6414
vn -0.0157 0.8675 0.4971
vn -0.9838 0.0831 0.1586
vn -0.1156 0.8746 0.4708
vn -0.9093 0.1638 0.3826
vn -0.9288 0.1189 0.3509
vn -0.9441 0.1786 0.2772
vn -0.9093 0.1638 0.3826
vn -0.9172 0.2307 0.3248
vn -0.8874 0.2060 0.4124
vn -0.7197 0.2251 0.6568
vn -0.8340 0.2196 0.5062
vn -0.2977 0.7285 0.6170
vn -0.8340 0.2196 0.5062
vn -0.1848 0.7175 0.6716
vn 0.0609 0.7434 0.6661
vn -0.8340 0.2196 0.5062
vn -0.1870 0.6300 0.7537
vn -0.1848 0.7175 0.6716
vn 0.0609 0.7434 0.6661
vn -0.1848 0.7175 0.6716
vn 0.5916 0.7656 0.2527
vn -0.1870 0.6300 0.7537
vn 0.6416 0.5471 0.5376
vn 0.5841 0.6458 0.4917
vn -0.1716 0.6202 0.7654
vn 0.6624 0.5061 0.5523
vn 0.6416 0.5471 0.5376
vn -0.0135 0.9690 -0.2468
vn 0.1310 0.9824 -0.1332
vn 0.1585 0.9317 -0.3270
vn 0.7070 0.3929 0.5880
vn 0.7610 0.3426 0.5510
vn 0.8362 0.2343 0.4958
vn 0.4306 0.8851 0.1765
vn 0.5916 0.7656 0.2527
vn 0.5756 0.8084 0.1233
vn -0.1848 0.7175 0.6716
vn 0.5841 0.6458 0.4917
vn 0.6387 0.6870 0.3465
vn 0.5841 0.6458 0.4917
vn 0.6416 0.5471 0.5376
vn 0.7082 0.5898 0.3880
vn -0.0004 0.9210 -0.3895
vn -0.0135 0.9690 -0.2468
vn 0.1585 0.9317 -0.3270
vn 0.1310 0.9824 -0.1332
vn 0.3274 0.9410 -0.0859
vn 0.3169 0.8991 -0.3019
vn 0.4306 0.8851 0.1765
vn 0.5756 0.8084 0.1233
vn 0.5101 0.8599 -0.0197
vn 0.6387 0.6870 0.3465
vn 0.7082 0.5898 0.3880
vn 0.7376 0.6324 0.2367
vn 0.5916 0.7656 0.2527
vn 0.7376 0.6324 0.2367
vn 0.7311 0.6779 0.0767
vn 0.5756 0.8084 0.1233
vn 0.7311 0.6779 0.0767
vn 0.6934 0.7191 -0.0467
vn 0.7376 0.6324 0.2367
vn 0.7956 0.5757 0.1887
vn 0.8055 0.5889 0.0668
vn 0.5101 0.8599 -0.0197
vn 0.6934 0.7191 -0.0467
vn 0.5933 0.7891 -0.1593
vn 0.8055 0.5889 0.0668
vn 0.8437 0.5310 -0.0795
vn 0.8091 0.5697 -0.1444
vn 0.6934 0.7191 -0.0467
vn 0.8091 0.5697 -0.1444
vn 0.7335 0.6338 -0.2455
vn 0.5933 0.7891 -0.1593
vn 0.7335 0.6338 -0.2455
vn 0.6228 0.7101 -0.3286
vn 0.7335 0.6338 -0.2455
vn 0.8091 0.5697 -0.1444
vn 0.7908 0.5440 -0.2807
vn 0.7908 0.5440 -0.2807
vn 0.8091 0.5697 -0.1444
vn 0.8399 0.4866 -0.2403
vn 0.6228 0.7101 -0.3286
vn 0.7335 0.6338 -0.2455
vn 0.7349 0.5912 -0.3323
vn -0.0004 0.9210 -0.3895
vn 0.1585 0.9317 -0.3270
vn 0.1415 0.8718 -0.4689
vn 0.3169 0.8991 -0.3019
vn 0.4666 0.8338 -0.2951
vn 0.4208 0.7890 -0.4477
vn 0.5383 0.7203 -0.4375
vn 0.6228 0.7101 -0.3286
vn 0.6688 0.6393 -0.3794
vn 0.1415 0.8718 -0.4689
vn 0.3169 0.8991 -0.3019
vn 0.2661 0.8317 -0.4874
vn 0.5383 0.7203 -0.4375
vn 0.6688 0.6393 -0.3794
vn 0.6080 0.6544 -0.4495
vn 0.4208 0.7890 -0.4477
vn 0.5383 0.7203 -0.4375
vn 0.4933 0.7123 -0.4993
vn 0.2661 0.8317 -0.4874
vn 0.4208 0.7890 -0.4477
vn 0.3444 0.7707 -0.5360
vn 0.2661 0.8317 -0.4874
vn 0.3444 0.7707 -0.5360
vn 0.3381 0.7640 -0.5496
vn 0.1415 0.8718 -0.4689
vn 0.2661 0.8317 -0.4874
vn 0.1361 0.8271 -0.5454
vn 0.1415 0.8718 -0.4689
vn 0.1361 0.8271 -0.5454
vn 0.0809 0.8316 -0.5495
vn -0.0004 0.9210 -0.3895
vn 0.1415 0.8718 -0.4689
vn -0.0730 0.8595 -0.5058
vn -0.0730 0.8595 -0.5058
vn 0.0482 0.8305 -0.5549
vn 0.0130 0.8212 -0.5705
vn 0.0636 -0.8611 0.5044
vn -0.0126 -0.8215 0.5700
vn -0.0523 -0.8328 0.5510
vn 0.0636 -0.8611 0.5044
vn -0.0523 -0.8328 0.5510
vn -0.0801 -0.8338 0.5462
vn -0.1229 -0.8702 0.4772
vn -0.0801 -0.8338 0.5462
vn -0.1278 -0.8309 0.5415
vn -0.1229 -0.8702 0.4772
vn -0.1278 -0.8309 0.5415
vn -0.1649 -0.8345 0.5258
vn -0.1229 -0.8702 0.4772
vn -0.1649 -0.8345 0.5258
vn -0.2614 -0.8298 0.4930
vn -0.2614 -0.8298 0.4930
vn -0.3187 -0.7771 0.5428
vn -0.3183 -0.7958 0.5151
vn -0.1229 -0.8702 0.4772
vn -0.2614 -0.8298 0.4930
vn -0.3177 -0.8753 0.3645
vn -0.3177 -0.8753 0.3645
vn -0.3183 -0.7958 0.5151
vn -0.3833 -0.7983 0.4645
vn -0.3833 -0.7983 0.4645
vn -0.4686 -0.7137 0.5206
vn -0.5136 -0.7323 0.4471
vn -0.5136 -0.7323 0.4471
vn -0.5640 -0.6284 0.5358
vn -0.6395 -0.6520 0.4072
vn -0.6395 -0.6520 0.4072
vn -0.7279 -0.5669 0.3857
vn -0.7634 -0.5526 0.3344
vn -0.5136 -0.7323 0.4471
vn -0.6395 -0.6520 0.4072
vn -0.6015 -0.7385 0.3046
vn -0.3177 -0.8753 0.3645
vn -0.3833 -0.7983 0.4645
vn -0.4487 -0.8444 0.2926
vn -0.7634 -0.5526 0.3344
vn -0.8358 -0.4806 0.2654
vn -0.7987 -0.5644 0.2085
vn -0.6580 -0.7470 0.0953
vn -0.7249 -0.6455 0.2405
vn -0.7987 -0.5644 0.2085
vn -0.7708 -0.6351 0.0501
vn -0.6015 -0.7385 0.3046
vn -0.6395 -0.6520 0.4072
vn -0.7249 -0.6455 0.2405
vn -0.4487 -0.8444 0.2926
vn -0.5136 -0.7323 0.4471
vn -0.6015 -0.7385 0.3046
vn -0.7987 -0.5644 0.2085
vn -0.8358 -0.4806 0.2654
vn -0.8441 -0.5039 0.1832
vn -0.8441 -0.5039 0.1832
vn -0.8269 -0.5575 0.0738
vn -0.7987 -0.5644 0.2085
vn -0.7697 -0.6308 -0.0986
vn -0.8130 -0.5805 -0.0458
vn -0.8154 -0.5701 -0.1007
vn -0.7886 -0.5894 -0.1753
vn -0.6015 -0.7385 0.3046
vn -0.5218 -0.8398 0.1497
vn -0.4487 -0.8444 0.2926
vn -0.8269 -0.5575 0.0738
vn -0.8130 -0.5805 -0.0458
vn -0.7708 -0.6351 0.0501
vn -0.7708 -0.6351 0.0501
vn -0.7697 -0.6308 -0.0986
vn -0.6801 -0.7245 -0.1124
vn -0.7708 -0.6351 0.0501
vn -0.6801 -0.7245 -0.1124
vn -0.6580 -0.7470 0.0953
vn -0.7231 -0.6502 -0.2333
vn -0.7886 -0.5894 -0.1753
vn -0.7799 -0.5837 -0.2257
vn -0.7568 -0.5933 -0.2743
vn -0.6580 -0.7470 0.0953
vn -0.5514 -0.8319 -0.0634
vn -0.5218 -0.8398 0.1497
vn -0.4487 -0.8444 0.2926
vn -0.3098 -0.9458 0.0979
vn -0.3177 -0.8753 0.3645
vn -0.6991 -0.6099 -0.3732
vn -0.7568 -0.5933 -0.2743
vn -0.7608 -0.5734 -0.3039
vn -0.7516 -0.5655 -0.3396
vn -0.7697 -0.6308 -0.0986
vn -0.7231 -0.6502 -0.2333
vn -0.6801 -0.7245 -0.1124
vn -0.5218 -0.8398 0.1497
vn -0.3657 -0.9307 -0.0059
vn -0.3098 -0.9458 0.0979
vn -0.3177 -0.8753 0.3645
vn -0.1541 -0.9767 0.1492
vn -0.1622 -0.9352 0.3148
vn -0.6991 -0.6099 -0.3732
vn -0.7516 -0.5655 -0.3396
vn -0.7416 -0.5569 -0.3739
vn -0.6982 -0.5713 -0.4314
vn -0.7568 -0.5933 -0.2743
vn -0.6991 -0.6099 -0.3732
vn -0.7231 -0.6502 -0.2333
vn -0.6801 -0.7245 -0.1124
vn -0.5593 -0.7888 -0.2551
vn -0.5514 -0.8319 -0.0634
vn -0.5593 -0.7888 -0.2551
vn -0.6801 -0.7245 -0.1124
vn -0.7231 -0.6502 -0.2333
vn -0.6307 -0.7032 -0.3281
vn -0.6370 -0.5746 -0.5139
vn -0.6982 -0.5713 -0.4314
vn -0.7066 -0.5301 -0.4688
vn -0.6677 -0.5312 -0.5215
vn -0.6991 -0.6099 -0.3732
vn -0.5749 -0.6654 -0.4762
vn -0.6307 -0.7032 -0.3281
vn -0.5514 -0.8319 -0.0634
vn -0.4238 -0.8899 -0.1690
vn -0.3657 -0.9307 -0.0059
vn -0.7399 -0.3752 -0.5584
vn -0.6760 -0.4733 -0.5648
vn -0.7676 -0.3713 -0.5224
vn -0.7850 -0.3261 -0.5268
vn -0.6982 -0.5713 -0.4314
vn -0.6370 -0.5746 -0.5139
vn -0.6991 -0.6099 -0.3732
vn -0.6307 -0.7032 -0.3281
vn 0.1903 -0.7287 -0.6578
vn -0.5593 -0.7888 -0.2551
vn 0.2178 -0.7591 -0.6135
vn 0.1830 -0.6403 -0.7460
vn -0.6760 -0.4733 -0.5648
vn -0.7399 -0.3752 -0.5584
vn -0.6677 -0.5312 -0.5215
vn -0.6760 -0.4733 -0.5648
vn -0.6370 -0.5746 -0.5139
vn 0.1931 -0.6366 -0.7467
vn -0.6370 -0.5746 -0.5139
vn -0.6760 -0.4733 -0.5648
vn 0.1830 -0.6403 -0.7460
vn 0.2206 -0.8387 -0.4979
vn -0.4238 -0.8899 -0.1690
vn -0.0486 -0.7549 -0.6540
vn 0.2951 -0.7393 -0.6053
vn -0.5749 -0.6654 -0.4762
vn 0.1931 -0.6366 -0.7467
vn 0.1903 -0.7287 -0.6578
vn -0.5593 -0.7888 -0.2551
vn -0.0486 -0.7549 -0.6540
vn -0.4238 -0.8899 -0.1690
vn 0.8654 -0.4572 -0.2049
vn 0.9188 -0.2755 -0.2826
vn 0.1830 -0.6403 -0.7460
vn 0.2178 -0.7591 -0.6135
vn -0.4238 -0.8899 -0.1690
vn 0.2206 -0.8387 -0.4979
vn 0.1235 -0.8802 -0.4583
vn -0.4238 -0.8899 -0.1690
vn 0.1235 -0.8802 -0.4583
vn -0.3657 -0.9307 -0.0059
vn 0.0003 -1.0000 -0.0031
vn -0.3098 -0.9458 0.0979
vn -0.3657 -0.9307 -0.0059
vn 0.1235 -0.8802 -0.4583
vn 0.1830 -0.6403 -0.7460
vn 0.9188 -0.2755 -0.2826
vn 0.8946 -0.2267 -0.3851
vn 0.1931 -0.6366 -0.7467
vn 0.8946 -0.2267 -0.3851
vn 0.8307 -0.2271 -0.5083
vn -0.0486 -0.7549 -0.6540
vn 0.8307 -0.2271 -0.5083
vn 0.2951 -0.7393 -0.6053
vn 0.8307 -0.2271 -0.5083
vn 0.8102 -0.1874 -0.5553
vn 0.6999 -0.2443 -0.6712
vn 0.2951 -0.7393 -0.6053
vn 0.6999 -0.2443 -0.6712
vn 0.7419 -0.2574 -0.6191
vn 0.9409 -0.1955 -0.2765
vn 0.9131 -0.1815 -0.3652
vn 0.9188 -0.2755 -0.2826
vn 0.8654 -0.4572 -0.2049
vn 0.8102 -0.1874 -0.5553
vn 0.8307 -0.2271 -0.5083
vn 0.8946 -0.2267 -0.3851
vn 0.9131 -0.1815 -0.3652
vn -0.3098 -0.9458 0.0979
vn 0.0003 -1.0000 -0.0031
vn -0.1541 -0.9767 0.1492
vn 0.8946 -0.2267 -0.3851
vn 0.9188 -0.2755 -0.2826
vn 0.9131 -0.1815 -0.3652
vn 0.9435 -0.1576 -0.2915
vn 0.7604 -0.0297 -0.6488
vn 0.9131 -0.1815 -0.3652
vn 0.9409 -0.1955 -0.2765
vn 0.7419 -0.2574 -0.6191
vn 0.6999 -0.2443 -0.6712
vn 0.9464 -0.1529 -0.2845
vn 0.2206 -0.8387 -0.4979
vn 0.9464 -0.1529 -0.2845
vn 0.1235 -0.8802 -0.4583
vn -0.2802 -0.3466 -0.8952
vn 0.2736 -0.3496 -0.8961
vn 0.4170 -0.2671 -0.8688
vn -0.2863 -0.2922 -0.9125
vn 0.9131 -0.1815 -0.3652
vn 0.7604 -0.0297 -0.6488
vn 0.6805 -0.1355 -0.7201
vn 0.8102 -0.1874 -0.5553
vn 0.6805 -0.1355 -0.7201
vn 0.4170 -0.2671 -0.8688
vn 0.6999 -0.2443 -0.6712
vn 0.4170 -0.2671 -0.8688
vn 0.2736 -0.3496 -0.8961
vn 0.6999 -0.2443 -0.6712
vn 0.2736 -0.3496 -0.8961
vn 0.9464 -0.1529 -0.2845
vn 0.1235 -0.8802 -0.4583
vn -0.0133 -0.8846 -0.4662
vn 0.0003 -1.0000 -0.0031
vn 0.9464 -0.1529 -0.2845
vn 0.2736 -0.3496 -0.8961
vn -0.0133 -0.8846 -0.4662
vn 0.9394 -0.0371 -0.3408
vn -0.0000 0.0033 -1.0000
vn 0.7604 -0.0297 -0.6488
vn 0.4170 -0.2671 -0.8688
vn -0.2523 -0.2321 -0.9394
vn -0.2863 -0.2922 -0.9125
vn -0.4249 -0.2260 -0.8766
vn -0.6974 -0.2485 -0.6722
vn -0.2863 -0.2922 -0.9125
vn -0.7697 -0.1523 -0.6200
vn -0.0133 -0.8846 -0.4662
vn 0.0213 -0.8875 -0.4603
vn 0.0003 -1.0000 -0.0031
vn 0.6805 -0.1355 -0.7201
vn 0.0146 -0.0657 -0.9977
vn -0.2523 -0.2321 -0.9394
vn 0.0213 -0.8875 -0.4603
vn 0.2736 -0.3496 -0.8961
vn -0.2802 -0.3466 -0.8952
vn 0.0541 -0.9658 0.2537
vn -0.1541 -0.9767 0.1492
vn 0.1291 -0.9822 0.1362
vn -0.7618 -0.0367 -0.6468
vn -0.0000 0.0033 -1.0000
vn -0.9394 -0.0371 -0.3408
vn -0.2523 -0.2321 -0.9394
vn -0.7618 -0.0367 -0.6468
vn -0.7697 -0.1523 -0.6200
vn -0.2863 -0.2922 -0.9125
vn -0.2523 -0.2321 -0.9394
vn -0.7697 -0.1523 -0.6200
vn 0.0213 -0.8875 -0.4603
vn -0.2802 -0.3466 -0.8952
vn -0.8783 -0.2046 -0.4321
vn 0.0003 -1.0000 -0.0031
vn 0.0213 -0.8875 -0.4603
vn -0.1242 -0.8802 -0.4581
vn -0.9152 -0.1834 -0.3588
vn -0.7618 -0.0367 -0.6468
vn -0.9435 -0.1576 -0.2915
vn -0.9409 -0.1955 -0.2765
vn -0.2802 -0.3466 -0.8952
vn -0.2863 -0.2922 -0.9125
vn -0.6974 -0.2485 -0.6722
vn -0.8783 -0.2046 -0.4321
vn -0.2802 -0.3466 -0.8952
vn -0.6974 -0.2485 -0.6722
vn -0.8783 -0.2046 -0.4321
vn -0.6974 -0.2485 -0.6722
vn -0.7419 -0.2574 -0.6191
vn -0.1242 -0.8802 -0.4581
vn -0.8783 -0.2046 -0.4321
vn -0.2206 -0.8387 -0.4979
vn 0.3657 -0.9307 -0.0059
vn 0.3065 -0.9473 0.0937
vn 0.0003 -1.0000 -0.0031
vn -0.1242 -0.8802 -0.4581
vn -0.7697 -0.1523 -0.6200
vn -0.7618 -0.0367 -0.6468
vn -0.9152 -0.1834 -0.3588
vn -0.6974 -0.2485 -0.6722
vn -0.4249 -0.2260 -0.8766
vn -0.8309 -0.2269 -0.5081
vn -0.7419 -0.2574 -0.6191
vn -0.6974 -0.2485 -0.6722
vn -0.2951 -0.7393 -0.6053
vn -0.9188 -0.2755 -0.2827
vn -0.9152 -0.1834 -0.3588
vn -0.9409 -0.1955 -0.2765
vn -0.8654 -0.4572 -0.2049
vn -0.8967 -0.2255 -0.3810
vn -0.8309 -0.2269 -0.5081
vn -0.7697 -0.1523 -0.6200
vn -0.9152 -0.1834 -0.3588
vn 0.1291 -0.9822 0.1362
vn 0.0003 -1.0000 -0.0031
vn 0.3065 -0.9473 0.0937
vn -0.9152 -0.1834 -0.3588
vn -0.9188 -0.2755 -0.2827
vn -0.8967 -0.2255 -0.3810
vn 0.0486 -0.7549 -0.6540
vn 0.4238 -0.8899 -0.1690
vn -0.2206 -0.8387 -0.4979
vn -0.2951 -0.7393 -0.6053
vn -0.4249 -0.2260 -0.8766
vn -0.7697 -0.1523 -0.6200
vn -0.8309 -0.2269 -0.5081
vn -0.8309 -0.2269 -0.5081
vn -0.8967 -0.2255 -0.3810
vn -0.1931 -0.6366 -0.7467
vn -0.2951 -0.7393 -0.6053
vn -0.8309 -0.2269 -0.5081
vn 0.0486 -0.7549 -0.6540
vn -0.1830 -0.6403 -0.7460
vn -0.9188 -0.2755 -0.2827
vn -0.8654 -0.4572 -0.2049
vn -0.2178 -0.7590 -0.6136
vn -0.1242 -0.8802 -0.4581
vn -0.2206 -0.8387 -0.4979
vn 0.4238 -0.8899 -0.1690
vn 0.3657 -0.9307 -0.0059
vn -0.1242 -0.8802 -0.4581
vn 0.4238 -0.8899 -0.1690
vn 0.6760 -0.4733 -0.5648
vn -0.1830 -0.6403 -0.7460
vn -0.2178 -0.7590 -0.6136
vn 0.7399 -0.3752 -0.5584
vn -0.8967 -0.2255 -0.3810
vn -0.9188 -0.2755 -0.2827
vn -0.1830 -0.6403 -0.7460
vn 0.6760 -0.4733 -0.5648
vn 0.6370 -0.5746 -0.5139
vn -0.1931 -0.6366 -0.7467
vn -0.1830 -0.6403 -0.7460
vn 0.7676 -0.3713 -0.5224
vn 0.6760 -0.4733 -0.5648
vn 0.7399 -0.3752 -0.5584
vn 0.7849 -0.3261 -0.5268
vn -0.1903 -0.7287 -0.6578
vn -0.1931 -0.6366 -0.7467
vn 0.5749 -0.6654 -0.4762
vn 0.4238 -0.8899 -0.1690
vn 0.0486 -0.7549 -0.6540
vn 0.5593 -0.7888 -0.2551
vn 0.7066 -0.5301 -0.4688
vn 0.6982 -0.5713 -0.4314
vn 0.6370 -0.5746 -0.5139
vn 0.6677 -0.5312 -0.5215
vn 0.6370 -0.5746 -0.5139
vn 0.6760 -0.4733 -0.5648
vn 0.6677 -0.5312 -0.5215
vn 0.5593 -0.7888 -0.2551
vn -0.1903 -0.7287 -0.6578
vn 0.6307 -0.7032 -0.3281
vn 0.6307 -0.7032 -0.3281
vn 0.5749 -0.6654 -0.4762
vn 0.6991 -0.6099 -0.3732
vn 0.3657 -0.9307 -0.0059
vn 0.4238 -0.8899 -0.1690
vn 0.5514 -0.8319 -0.0634
vn 0.0541 -0.9658 0.2537
vn 0.1291 -0.9822 0.1362
vn 0.3059 -0.9024 0.3035
vn 0.7416 -0.5569 -0.3739
vn 0.7516 -0.5655 -0.3396
vn 0.6991 -0.6099 -0.3732
vn 0.6982 -0.5713 -0.4314
vn 0.6991 -0.6099 -0.3732
vn 0.6370 -0.5746 -0.5139
vn 0.6982 -0.5713 -0.4314
vn 0.7231 -0.6502 -0.2333
vn 0.6801 -0.7245 -0.1124
vn 0.5593 -0.7888 -0.2551
vn 0.6307 -0.7032 -0.3281
vn 0.7608 -0.5734 -0.3039
vn 0.7568 -0.5933 -0.2743
vn 0.6991 -0.6099 -0.3732
vn 0.7516 -0.5655 -0.3396
vn 0.5514 -0.8319 -0.0634
vn 0.5593 -0.7888 -0.2551
vn 0.6801 -0.7245 -0.1124
vn 0.7799 -0.5837 -0.2257
vn 0.7886 -0.5894 -0.1753
vn 0.7231 -0.6502 -0.2333
vn 0.7568 -0.5933 -0.2743
vn 0.7231 -0.6502 -0.2333
vn 0.6991 -0.6099 -0.3732
vn 0.7568 -0.5933 -0.2743
vn 0.3065 -0.9473 0.0937
vn 0.3657 -0.9307 -0.0059
vn 0.5218 -0.8398 0.1497
vn 0.8154 -0.5701 -0.1007
vn 0.8130 -0.5805 -0.0458
vn 0.7697 -0.6308 -0.0986
vn 0.7886 -0.5894 -0.1753
vn 0.6801 -0.7245 -0.1124
vn 0.7231 -0.6502 -0.2333
vn 0.7697 -0.6308 -0.0986
vn 0.5218 -0.8398 0.1497
vn 0.5514 -0.8319 -0.0634
vn 0.6580 -0.7470 0.0953
vn 0.3059 -0.9024 0.3035
vn 0.3065 -0.9473 0.0937
vn 0.4524 -0.8383 0.3044
vn 0.7987 -0.5644 0.2085
vn 0.7249 -0.6455 0.2405
vn 0.6580 -0.7470 0.0953
vn 0.7708 -0.6351 0.0501
vn 0.6801 -0.7245 -0.1124
vn 0.7697 -0.6308 -0.0986
vn 0.7708 -0.6351 0.0501
vn 0.6580 -0.7470 0.0953
vn 0.6801 -0.7245 -0.1124
vn 0.7708 -0.6351 0.0501
vn 0.7708 -0.6351 0.0501
vn 0.8130 -0.5805 -0.0458
vn 0.8269 -0.5575 0.0738
vn 0.6395 -0.6520 0.4072
vn 0.7249 -0.6455 0.2405
vn 0.7987 -0.5644 0.2085
vn 0.7634 -0.5526 0.3344
vn 0.4524 -0.8383 0.3044
vn 0.5218 -0.8398 0.1497
vn 0.6015 -0.7385 0.3046
vn 0.7987 -0.5644 0.2085
vn 0.8269 -0.5575 0.0738
vn 0.8441 -0.5039 0.1832
vn 0.8441 -0.5039 0.1832
vn 0.8358 -0.4806 0.2654
vn 0.7987 -0.5644 0.2085
vn 0.7987 -0.5644 0.2085
vn 0.8358 -0.4806 0.2654
vn 0.7634 -0.5526 0.3344
vn -0.3407 0.7944 -0.5028
vn -0.3205 0.8706 -0.3732
vn -0.2613 0.8269 -0.4979
vn -0.3468 0.7920 -0.5025
vn 0.7249 -0.6455 0.2405
vn 0.6395 -0.6520 0.4072
vn 0.6015 -0.7385 0.3046
vn 0.6015 -0.7385 0.3046
vn 0.5136 -0.7323 0.4471
vn 0.4524 -0.8383 0.3044
vn 0.6015 -0.7385 0.3046
vn 0.6395 -0.6520 0.4072
vn 0.5136 -0.7323 0.4471
vn 0.4524 -0.8383 0.3044
vn 0.4038 -0.7963 0.4505
vn 0.3059 -0.9024 0.3035
vn 0.7634 -0.5526 0.3344
vn 0.7279 -0.5669 0.3857
vn 0.6395 -0.6520 0.4072
vn 0.6395 -0.6520 0.4072
vn 0.5640 -0.6284 0.5358
vn 0.5136 -0.7323 0.4471
vn 0.3059 -0.9024 0.3035
vn 0.2550 -0.8367 0.4848
vn 0.1704 -0.9118 0.3736
vn -0.0730 0.8595 -0.5058
vn 0.0130 0.8212 -0.5705
vn -0.0410 0.8125 -0.5815
vn 0.5136 -0.7323 0.4471
vn 0.4686 -0.7137 0.5206
vn 0.4038 -0.7963 0.4505
vn -0.0730 0.8595 -0.5058
vn -0.0410 0.8125 -0.5815
vn -0.1048 0.8115 -0.5748
vn -0.0730 0.8595 -0.5058
vn -0.1048 0.8115 -0.5748
vn -0.1623 0.8240 -0.5429
vn -0.0730 0.8595 -0.5058
vn -0.1623 0.8240 -0.5429
vn -0.2613 0.8269 -0.4979
vn -0.0730 0.8595 -0.5058
vn -0.2613 0.8269 -0.4979
vn -0.3205 0.8706 -0.3732
vn -0.7634 0.6086 -0.2162
vn -0.6275 0.7275 -0.2775
vn -0.6601 0.6448 -0.3853
vn -0.7397 0.5913 -0.3214
vn -0.3205 0.8706 -0.3732
vn -0.3407 0.7944 -0.5028
vn -0.4021 0.7821 -0.4761
vn -0.4021 0.7821 -0.4761
vn -0.4766 0.7077 -0.5215
vn -0.5406 0.7158 -0.4420
vn -0.3205 0.8706 -0.3732
vn -0.4021 0.7821 -0.4761
vn -0.4817 0.8061 -0.3438
vn -0.5406 0.7158 -0.4420
vn -0.6097 0.6446 -0.4613
vn -0.6601 0.6448 -0.3853
vn -0.4817 0.8061 -0.3438
vn -0.5406 0.7158 -0.4420
vn -0.6275 0.7275 -0.2775
vn -0.5406 0.7158 -0.4420
vn -0.6601 0.6448 -0.3853
vn -0.6275 0.7275 -0.2775
vn -0.8326 0.5248 -0.1769
vn -0.7634 0.6086 -0.2162
vn -0.8097 0.5138 -0.2837
vn -0.8442 0.4695 -0.2586
vn -0.7397 0.5913 -0.3214
vn -0.8097 0.5138 -0.2837
vn -0.7634 0.6086 -0.2162
vn -0.6275 0.7275 -0.2775
vn -0.5895 0.7983 -0.1232
vn -0.3989 0.9016 -0.1674
vn -0.4817 0.8061 -0.3438
vn 0.4038 -0.7963 0.4505
vn 0.3345 -0.7770 0.5333
vn 0.2550 -0.8367 0.4848
vn -0.8326 0.5248 -0.1769
vn -0.8442 0.4695 -0.2586
vn -0.8636 0.4746 -0.1702
vn -0.7634 0.6086 -0.2162
vn -0.7214 0.6921 -0.0256
vn -0.5895 0.7983 -0.1232
vn -0.6275 0.7275 -0.2775
vn -0.8326 0.5248 -0.1769
vn -0.8141 0.5792 0.0413
vn -0.7214 0.6921 -0.0256
vn -0.7634 0.6086 -0.2162
vn -0.8225 0.5530 0.1327
vn -0.7978 0.5712 0.1927
vn -0.7681 0.6311 0.1086
vn -0.8141 0.5792 0.0413
vn -0.8141 0.5792 0.0413
vn -0.8326 0.5248 -0.1769
vn -0.8277 0.5555 -0.0797
vn -0.7899 0.5653 0.2376
vn -0.7666 0.5747 0.2865
vn -0.7372 0.6290 0.2466
vn -0.7978 0.5712 0.1927
vn -0.6230 0.7534 0.2103
vn -0.7214 0.6921 -0.0256
vn -0.7681 0.6311 0.1086
vn -0.7372 0.6290 0.2466
vn -0.7681 0.6311 0.1086
vn -0.7978 0.5712 0.1927
vn -0.7708 0.5532 0.3161
vn -0.7611 0.5448 0.3520
vn -0.7080 0.5897 0.3886
vn -0.7666 0.5747 0.2865
vn -0.1592 0.9763 -0.1463
vn -0.3205 0.8706 -0.3732
vn -0.3989 0.9016 -0.1674
vn 0.3345 -0.7770 0.5333
vn 0.3283 -0.7704 0.5465
vn 0.2550 -0.8367 0.4848
vn -0.5433 0.8333 0.1023
vn -0.5895 0.7983 -0.1232
vn -0.7214 0.6921 -0.0256
vn -0.7507 0.5358 0.3864
vn -0.6970 0.5575 0.4509
vn -0.7080 0.5897 0.3886
vn -0.7611 0.5448 0.3520
vn -0.0135 0.9690 -0.2468
vn -0.1754 0.9209 -0.3481
vn -0.1592 0.9763 -0.1463
vn -0.6385 0.6870 0.3470
vn -0.7372 0.6290 0.2466
vn -0.7080 0.5897 0.3886
vn -0.7226 0.5008 0.4765
vn -0.6214 0.5103 0.5945
vn -0.6510 0.5450 0.5284
vn -0.6970 0.5575 0.4509
vn -0.6385 0.6870 0.3470
vn 0.1918 0.7355 0.6498
vn -0.1556 0.7582 0.6332
vn -0.6230 0.7534 0.2103
vn -0.6230 0.7534 0.2103
vn -0.1556 0.7582 0.6332
vn 0.1152 0.8599 0.4974
vn -0.5433 0.8333 0.1023
vn 0.1918 0.7355 0.6498
vn -0.6385 0.6870 0.3470
vn -0.6086 0.6370 0.4732
vn -0.6086 0.6370 0.4732
vn -0.7080 0.5897 0.3886
vn -0.6510 0.5450 0.5284
vn -0.6788 0.4418 0.5866
vn -0.8356 0.2300 0.4990
vn -0.7547 0.3428 0.5594
vn -0.2076 0.9781 -0.0114
vn -0.3989 0.9016 -0.1674
vn -0.4012 0.9158 0.0185
vn -0.6510 0.5450 0.5284
vn 0.1745 0.5900 0.7883
vn 0.2130 0.6541 0.7258
vn -0.6086 0.6370 0.4732
vn 0.2550 -0.8367 0.4848
vn 0.1551 -0.8241 0.5448
vn 0.0636 -0.8611 0.5044
vn -0.6788 0.4418 0.5866
vn 0.1354 0.6149 0.7769
vn 0.1745 0.5900 0.7883
vn -0.6510 0.5450 0.5284
vn 0.2386 0.6956 0.6776
vn 0.1354 0.6149 0.7769
vn -0.6788 0.4418 0.5866
vn -0.7547 0.3428 0.5594
vn 0.8698 0.3856 0.3077
vn 0.8917 0.2313 0.3890
vn 0.1354 0.6149 0.7769
vn 0.2386 0.6956 0.6776
vn 0.8917 0.2313 0.3890
vn 0.1745 0.5900 0.7883
vn 0.1354 0.6149 0.7769
vn 0.7877 0.2297 0.5717
vn 0.8081 0.2233 0.5451
vn 0.7132 0.2643 0.6492
vn 0.2999 0.7399 0.6022
vn -0.0651 0.9094 0.4107
vn -0.4012 0.9158 0.0185
vn 0.1152 0.8599 0.4974
vn 0.7877 0.2297 0.5717
vn -0.1556 0.7582 0.6332
vn 0.1918 0.7355 0.6498
vn 0.8081 0.2233 0.5451
vn 0.1918 0.7355 0.6498
vn 0.2130 0.6541 0.7258
vn 0.8917 0.2313 0.3890
vn 0.2130 0.6541 0.7258
vn 0.1745 0.5900 0.7883
vn 0.7038 0.1662 0.6907
vn 0.8081 0.2233 0.5451
vn 0.8917 0.2313 0.3890
vn 0.8917 0.2313 0.3890
vn 0.8698 0.3856 0.3077
vn 0.9279 0.1824 0.3252
vn 0.7132 0.2643 0.6492
vn 0.1152 0.8599 0.4974
vn 0.2999 0.7399 0.6022
vn 0.7132 0.2643 0.6492
vn 0.5854 0.2848 0.7591
vn 0.5530 0.3163 0.7708
vn 0.6413 0.3526 0.6814
vn -0.7987 -0.5644 0.2085
vn -0.7249 -0.6455 0.2405
vn -0.6395 -0.6520 0.4072
vn -0.7634 -0.5526 0.3344
vn 0.6413 0.3526 0.6814
vn 0.1152 0.8599 0.4974
vn 0.7132 0.2643 0.6492
vn 0.1551 -0.8241 0.5448
vn 0.1426 -0.8222 0.5510
vn 0.0636 -0.8611 0.5044
vn 0.5854 0.2848 0.7591
vn 0.7132 0.2643 0.6492
vn 0.8081 0.2233 0.5451
vn -0.3918 0.3244 0.8610
vn -0.0157 0.8675 0.4971
vn -0.0884 0.8086 0.5817
vn 0.1160 0.3671 0.9229
vn 0.7558 -0.0806 0.6498
vn 0.8676 0.1435 0.4761
vn 0.9431 0.0985 0.3176
vn 0.0503 0.9987 0.0094
vn -0.2076 0.9781 -0.0114
vn -0.0651 0.9094 0.4107
vn -0.0498 -0.1076 0.9929
vn 0.7558 -0.0806 0.6498
vn 0.9447 -0.0093 0.3278
vn -0.0884 0.8086 0.5817
vn -0.0651 0.9094 0.4107
vn 0.5530 0.3163 0.7708
vn 0.1616 0.3126 0.9360
vn 0.5854 0.2848 0.7591
vn 0.5700 0.2251 0.7902
vn 0.2112 0.2172 0.9530
vn 0.5700 0.2251 0.7902
vn 0.7038 0.1662 0.6907
vn 0.1575 0.0555 0.9860
vn 0.7038 0.1662 0.6907
vn 0.8676 0.1435 0.4761
vn 0.2112 0.2172 0.9530
vn 0.1575 0.0555 0.9860
vn -0.6682 0.1423 0.7302
vn 0.1575 0.0555 0.9860
vn 0.7558 -0.0806 0.6498
vn -0.7667 0.0299 0.6414
vn -0.0135 0.9690 -0.2468
vn -0.1592 0.9763 -0.1463
vn 0.1310 0.9824 -0.1332
vn 0.0503 0.9987 0.0094
vn -0.0884 0.8086 0.5817
vn -0.0157 0.8675 0.4971
vn -0.9093 0.1638 0.3826
vn -0.8158 0.1740 0.5515
vn -0.6682 0.1423 0.7302
vn -0.7667 0.0299 0.6414
vn 0.1160 0.3671 0.9229
vn 0.1616 0.3126 0.9360
vn -0.3918 0.3244 0.8610
vn 0.1616 0.3126 0.9360
vn 0.2112 0.2172 0.9530
vn -0.4983 0.2437 0.8321
vn -0.0157 0.8675 0.4971
vn -0.3918 0.3244 0.8610
vn -0.9838 0.0831 0.1586
vn 0.0503 0.9987 0.0094
vn -0.0157 0.8675 0.4971
vn -0.1156 0.8746 0.4708
vn -0.9838 0.0831 0.1586
vn -0.3918 0.3244 0.8610
vn -0.7197 0.2251 0.6568
vn -0.3918 0.3244 0.8610
vn -0.4983 0.2437 0.8321
vn -0.7197 0.2251 0.6568
vn -0.4983 0.2437 0.8321
vn -0.6682 0.1423 0.7302
vn -0.8158 0.1740 0.5515
vn -0.7667 0.0299 0.6414
vn -0.9692 0.0053 0.2460
vn -0.9288 0.1189 0.3509
vn -0.7667 0.0299 0.6414
vn -0.9288 0.1189 0.3509
vn -0.9093 0.1638 0.3826
vn -0.1156 0.8746 0.4708
vn -0.9838 0.0831 0.1586
vn -0.2325 0.8212 0.5211
vn -0.9838 0.0831 0.1586
vn -0.7197 0.2251 0.6568
vn -0.2325 0.8212 0.5211
vn 0.1426 -0.8222 0.5510
vn 0.0991 -0.8140 0.5723
vn 0.0636 -0.8611 0.5044
vn -0.4983 0.2437 0.8321
vn -0.8158 0.1740 0.5515
vn -0.7197 0.2251 0.6568
vn -0.8874 0.2060 0.4124
vn -0.8340 0.2196 0.5062
vn -0.8158 0.1740 0.5515
vn -0.9093 0.1638 0.3826
vn -0.7197 0.2251 0.6568
vn -0.8158 0.1740 0.5515
vn -0.8340 0.2196 0.5062
vn -0.9441 0.1786 0.2772
vn -0.8795 0.4250 0.2142
vn -0.9172 0.2307 0.3248
vn -0.9093 0.1638 0.3826
vn 0.1310 0.9824 -0.1332
vn 0.0503 0.9987 0.0094
vn 0.3274 0.9410 -0.0859
vn 0.3187 0.9464 0.0518
vn 0.3274 0.9410 -0.0859
vn 0.0503 0.9987 0.0094
vn -0.1156 0.8746 0.4708
vn -0.1716 0.6202 0.7654
vn -0.1870 0.6300 0.7537
vn -0.8874 0.2060 0.4124
vn -0.9172 0.2307 0.3248
vn -0.2325 0.8212 0.5211
vn -0.7197 0.2251 0.6568
vn -0.2977 0.7285 0.6170
vn -0.2977 0.7285 0.6170
vn -0.8340 0.2196 0.5062
vn 0.0609 0.7434 0.6661
vn -0.8340 0.2196 0.5062
vn -0.8874 0.2060 0.4124
vn -0.1870 0.6300 0.7537
vn -0.8795 0.4250 0.2142
vn -0.2326 0.7381 0.6334
vn -0.1716 0.6202 0.7654
vn -0.9172 0.2307 0.3248
vn 0.0609 0.7434 0.6661
vn 0.4306 0.8851 0.1765
vn -0.2325 0.8212 0.5211
vn -0.2977 0.7285 0.6170
vn 0.3187 0.9464 0.0518
vn -0.1156 0.8746 0.4708
vn 0.4306 0.8851 0.1765
vn -0.1156 0.8746 0.4708
vn -0.2325 0.8212 0.5211
vn 0.4306 0.8851 0.1765
vn -0.2326 0.7381 0.6334
vn 0.7610 0.3426 0.5510
vn 0.6624 0.5061 0.5523
vn -0.1716 0.6202 0.7654
vn 0.4306 0.8851 0.1765
vn 0.0609 0.7434 0.6661
vn 0.5916 0.7656 0.2527
vn -0.1848 0.7175 0.6716
vn -0.1870 0.6300 0.7537
vn 0.5841 0.6458 0.4917
vn -0.1870 0.6300 0.7537
vn -0.1716 0.6202 0.7654
vn 0.6416 0.5471 0.5376
vn 0.7248 0.5068 0.4667
vn 0.7006 0.5560 0.4472
vn 0.6416 0.5471 0.5376
vn 0.6624 0.5061 0.5523
vn 0.7070 0.3929 0.5880
vn 0.6624 0.5061 0.5523
vn 0.7610 0.3426 0.5510
vn 0.5916 0.7656 0.2527
vn -0.1848 0.7175 0.6716
vn 0.6387 0.6870 0.3465
vn 0.7082 0.5898 0.3880
vn 0.6416 0.5471 0.5376
vn 0.7006 0.5560 0.4472
vn 0.7506 0.5359 0.3865
vn 0.7611 0.5447 0.3521
vn 0.7082 0.5898 0.3880
vn 0.7006 0.5560 0.4472
vn 0.1585 0.9317 -0.3270
vn 0.1310 0.9824 -0.1332
vn 0.3169 0.8991 -0.3019
vn 0.3274 0.9410 -0.0859
vn 0.3187 0.9464 0.0518
vn 0.5101 0.8599 -0.0197
vn 0.3187 0.9464 0.0518
vn 0.4306 0.8851 0.1765
vn 0.5101 0.8599 -0.0197
vn 0.6387 0.6870 0.3465
vn 0.5841 0.6458 0.4917
vn 0.7082 0.5898 0.3880
vn 0.0991 -0.8140 0.5723
vn 0.0410 -0.8139 0.5795
vn 0.0636 -0.8611 0.5044
vn 0.5916 0.7656 0.2527
vn 0.6387 0.6870 0.3465
vn 0.7376 0.6324 0.2367
vn 0.7708 0.5531 0.3160
vn 0.7666 0.5747 0.2865
vn 0.7082 0.5898 0.3880
vn 0.7611 0.5447 0.3521
vn 0.5756 0.8084 0.1233
vn 0.5916 0.7656 0.2527
vn 0.7311 0.6779 0.0767
vn 0.7376 0.6324 0.2367
vn 0.7082 0.5898 0.3880
vn 0.7666 0.5747 0.2865
vn 0.7899 0.5653 0.2377
vn 0.7956 0.5757 0.1887
vn 0.7376 0.6324 0.2367
vn 0.7666 0.5747 0.2865
vn 0.5101 0.8599 -0.0197
vn 0.5756 0.8084 0.1233
vn 0.6934 0.7191 -0.0467
vn 0.7311 0.6779 0.0767
vn 0.7376 0.6324 0.2367
vn 0.8055 0.5889 0.0668
vn 0.5933 0.7891 -0.1593
vn 0.4666 0.8338 -0.2951
vn 0.3274 0.9410 -0.0859
vn 0.5101 0.8599 -0.0197
vn 0.3169 0.8991 -0.3019
vn 0.3274 0.9410 -0.0859
vn 0.4666 0.8338 -0.2951
vn 0.6228 0.7101 -0.3286
vn 0.5383 0.7203 -0.4375
vn 0.4208 0.7890 -0.4477
vn 0.4666 0.8338 -0.2951
vn 0.8055 0.5889 0.0668
vn 0.7956 0.5757 0.1887
vn 0.8422 0.5238 0.1280
vn 0.6934 0.7191 -0.0467
vn 0.7311 0.6779 0.0767
vn 0.8091 0.5697 -0.1444
vn 0.7311 0.6779 0.0767
vn 0.8055 0.5889 0.0668
vn 0.8091 0.5697 -0.1444
vn 0.5933 0.7891 -0.1593
vn 0.6934 0.7191 -0.0467
vn 0.7335 0.6338 -0.2455
vn 0.4666 0.8338 -0.2951
vn 0.5933 0.7891 -0.1593
vn 0.6228 0.7101 -0.3286
vn 0.8091 0.5697 -0.1444
vn 0.8437 0.5310 -0.0795
vn 0.8503 0.4935 -0.1830
vn 0.8399 0.4866 -0.2403
vn 0.8091 0.5697 -0.1444
vn 0.8503 0.4935 -0.1830
vn 0.7349 0.5912 -0.3323
vn 0.7335 0.6338 -0.2455
vn 0.7908 0.5440 -0.2807
vn 0.1415 0.8718 -0.4689
vn 0.1585 0.9317 -0.3270
vn 0.3169 0.8991 -0.3019
vn 0.0809 0.8316 -0.5495
vn 0.0482 0.8305 -0.5549
vn -0.0730 0.8595 -0.5058
vn 0.1415 0.8718 -0.4689
vn 0.6688 0.6393 -0.3794
vn 0.6228 0.7101 -0.3286
vn 0.7349 0.5912 -0.3323
vn 0.2661 0.8317 -0.4874
vn 0.3169 0.8991 -0.3019
vn 0.4208 0.7890 -0.4477
vn 0.0410 -0.8139 0.5795
vn -0.0126 -0.8215 0.5700
vn 0.0636 -0.8611 0.5044
f 328/1/1 4/2/2 11/3/3
f 1/4/4 328/5/5 11/6/6
f 8/7/7 9/8/8 23/9/9
f 11/10/10 23/11/11 49/12/12
f 1/13/13 11/14/14 49/15/15
f 14/16/16 17/17/17 28/18/18
f 21/19/19 32/20/20 22/21/21
f 24/22/22 27/23/23 20/24/24
f 32/25/25 33/26/26 22/27/27
f 26/28/28 31/29/29 27/30/30
f 33/31/31 66/32/32 28/33/33
f 30/34/34 38/35/35 31/36/36
f 39/37/37 48/38/38 32/39/39
f 48/40/40 65/41/41 33/42/42
f 66/43/43 83/44/44 23/45/45
f 46/46/46 47/47/47 38/48/48
f 45/49/49 52/50/50 46/51/51
f 52/52/52 57/53/53 47/54/54
f 53/55/55 59/56/56 48/57/57
f 43/58/58 51/59/59 44/60/60
f 45/61/61 56/62/62 52/63/63
f 57/64/64 58/65/65 53/66/66
f 55/67/67 62/68/68 56/69/69
f 56/70/70 63/71/71 57/72/72
f 57/73/73 63/74/74 58/75/75
f 63/76/76 73/77/77 64/78/78
f 64/79/79 69/80/80 70/81/81
f 68/82/82 78/83/83 72/84/84
f 69/85/85 76/86/86 70/87/87
f 83/88/88 126/89/89 49/90/90
f 1/91/91 49/92/92 126/93/93
f 71/94/94 75/95/95 77/96/96
f 72/97/97 79/98/98 73/99/99
f 76/100/100 80/101/101 74/102/102
f 82/103/103 90/104/104 80/105/105
f 84/106/106 81/107/107 77/108/108
f 77/109/109 81/110/110 78/111/111
f 78/112/112 85/113/113 79/114/114
f 81/115/115 92/116/116 85/117/117
f 83/118/118 99/119/119 121/120/120
f 81/121/121 84/122/122 92/123/123
f 90/124/124 89/125/125 106/126/126
f 87/127/127 91/128/128 92/129/129
f 89/130/130 98/131/131 105/132/132
f 97/133/133 103/134/134 104/135/135
f 98/136/136 104/137/137 105/138/138
f 102/139/139 108/140/140 109/141/141
f 103/142/142 109/143/143 114/144/144
f 103/145/145 114/146/146 110/147/147
f 109/148/148 120/149/149 113/150/150
f 110/151/151 114/152/152 115/153/153
f 116/154/154 115/155/155 134/156/156
f 112/157/157 118/158/158 119/159/159
f 113/160/160 120/161/161 124/162/162
f 114/163/163 113/164/164 125/165/165
f 121/166/166 137/167/167 148/168/168
f 125/169/169 124/170/170 132/171/171
f 126/172/172 148/173/173 158/174/174
f 1/175/175 126/176/176 158/177/177
f 134/178/178 133/179/179 142/180/180
f 129/181/181 134/182/182 143/183/183
f 132/184/184 136/185/185 138/186/186
f 137/187/187 143/188/188 152/189/189
f 138/190/190 140/191/191 141/192/192
f 141/193/193 144/194/194 146/195/195
f 143/196/196 142/197/197 151/198/198
f 142/199/199 147/200/200 151/201/201
f 157/202/202 174/203/203 152/204/204
f 174/205/205 208/206/206 148/207/207
f 208/208/208 328/209/209 158/210/210
f 1/211/211 158/212/212 328/213/213
f 327/214/214 324/215/215 167/216/216
f 324/217/217 164/218/218 167/219/219
f 165/220/220 168/221/221 171/222/222
f 179/223/223 180/224/224 181/225/225
f 164/226/226 171/227/227 184/228/228
f 183/229/229 185/230/230 187/231/231
f 191/232/232 187/233/233 192/234/234
f 167/235/235 164/236/236 196/237/237
f 184/238/238 182/239/239 197/240/240
f 197/241/241 182/242/242 190/243/243
f 190/244/244 183/245/245 191/246/246
f 192/247/247 194/248/248 200/249/249
f 191/250/250 192/251/251 204/252/252
f 327/253/253 167/254/254 203/255/255
f 200/256/256 201/257/257 214/258/258
f 204/259/259 200/260/260 213/261/261
f 205/262/262 206/263/263 214/264/264
f 196/265/265 184/266/266 216/267/267
f 197/268/268 190/269/269 210/270/270
f 212/271/271 213/272/272 219/273/273
f 216/274/274 197/275/275 223/276/276
f 210/277/277 211/278/278 224/279/279
f 224/280/280 211/281/281 225/282/282
f 225/283/283 212/284/284 226/285/285
f 226/286/286 219/287/287 221/288/288
f 228/289/289 221/290/290 229/291/291
f 229/292/292 221/293/293 230/294/294
f 227/295/295 226/296/296 228/297/297
f 232/298/298 226/299/299 227/300/300
f 229/301/301 230/302/302 233/303/303
f 223/304/304 210/305/305 235/306/306
f 239/307/307 233/308/308 236/309/309
f 196/310/310 216/311/311 237/312/312
f 223/313/313 235/314/314 238/315/315
f 237/316/316 223/317/317 241/318/318
f 238/319/319 232/320/320 242/321/321
f 242/322/322 232/323/323 243/324/324
f 243/325/325 227/326/326 244/327/327
f 244/328/328 228/329/329 245/330/330
f 245/331/331 229/332/332 239/333/333
f 241/334/334 238/335/335 242/336/336
f 244/337/337 248/338/338 247/339/339
f 245/340/340 252/341/341 248/342/342
f 239/343/343 240/344/344 252/345/345
f 196/346/346 237/347/347 249/348/348
f 243/349/349 247/350/350 246/351/351
f 240/352/352 253/353/353 252/354/354
f 250/355/355 251/356/356 256/357/357
f 258/358/358 255/359/359 259/360/360
f 258/361/361 264/362/362 263/363/363
f 261/364/364 262/365/365 267/366/366
f 262/367/367 270/368/368 269/369/369
f 262/370/370 271/371/371 270/372/372
f 269/373/373 270/374/374 279/375/375
f 271/376/376 282/377/377 280/378/378
f 272/379/379 274/380/380 282/381/381
f 203/382/382 249/383/383 286/384/384
f 277/385/385 275/386/386 276/387/387
f 268/388/388 279/389/389 287/390/390
f 270/391/391 280/392/392 288/393/393
f 280/394/394 282/395/395 281/396/396
f 327/397/397 203/398/398 286/399/399
f 249/400/400 266/401/401 305/402/402
f 268/403/403 287/404/404 290/405/405
f 288/406/406 281/407/407 291/408/408
f 279/409/409 291/410/410 294/411/411
f 287/412/412 294/413/413 297/414/414
f 291/415/415 299/416/416 298/417/417
f 290/418/418 297/419/419 302/420/420
f 298/421/421 304/422/422 303/423/423
f 297/424/424 303/425/425 306/426/426
f 302/427/427 306/428/428 307/429/429
f 306/430/430 303/431/431 309/432/432
f 309/433/433 303/434/434 310/435/435
f 307/436/436 306/437/437 312/438/438
f 327/439/439 286/440/440 311/441/441
f 305/442/442 301/443/443 314/444/444
f 315/445/445 307/446/446 316/447/447
f 311/448/448 305/449/449 318/450/450
f 315/451/451 316/452/452 317/453/453
f 314/454/454 315/455/455 319/456/456
f 318/457/457 314/458/458 320/459/459
f 318/460/460 320/461/461 321/462/462
f 311/463/463 318/464/464 322/465/465
f 311/466/466 322/467/467 323/468/468
f 327/469/469 311/470/470 324/471/471
f 324/472/472 325/473/473 326/474/474
f 328/475/475 2/476/476 3/477/477
f 328/478/478 3/479/479 4/480/480
f 11/481/481 4/482/482 5/483/483
f 11/484/484 5/485/485 6/486/486
f 11/487/487 6/488/488 8/489/489
f 8/490/490 7/491/491 9/492/492
f 11/493/493 8/494/494 23/495/495
f 23/496/496 9/497/497 14/498/498
f 14/499/499 10/500/500 17/501/501
f 17/502/502 12/503/503 16/504/504
f 16/505/505 13/506/506 15/507/507
f 17/508/508 16/509/509 22/510/510
f 23/511/511 14/512/512 28/513/513
f 15/514/514 18/515/515 20/516/516
f 32/517/517 21/518/518 20/519/519 27/520/520
f 22/521/521 16/522/522 21/523/523
f 28/524/524 17/525/525 22/526/526
f 20/527/527 18/528/528 19/529/529
f 19/530/530 24/531/531 20/532/532
f 31/533/533 26/534/534 25/535/535 30/536/536
f 22/537/537 33/538/538 28/539/539
f 24/540/540 26/541/541 27/542/542
f 27/543/543 31/544/544 39/545/545
f 27/546/546 39/547/547 32/548/548
f 38/549/549 30/550/550 29/551/551 35/552/552
f 32/553/553 48/554/554 33/555/555
f 28/556/556 66/557/557 23/558/558
f 46/559/559 35/560/560 34/561/561 37/562/562
f 31/563/563 38/564/564 39/565/565
f 33/566/566 65/567/567 66/568/568
f 23/569/569 83/570/570 49/571/571
f 46/572/572 37/573/573 36/574/574 41/575/575
f 35/576/576 46/577/577 38/578/578
f 39/579/579 53/580/580 48/581/581
f 53/582/582 39/583/583 38/584/584 47/585/585
f 45/586/586 41/587/587 40/588/588 44/589/589
f 46/590/590 52/591/591 47/592/592
f 48/593/593 59/594/594 65/595/595
f 50/596/596 51/597/597 43/598/598 42/599/599
f 41/600/600 45/601/601 46/602/602
f 47/603/603 57/604/604 53/605/605
f 54/606/606 55/607/607 51/608/608 50/609/609
f 44/610/610 51/611/611 45/612/612
f 56/613/613 45/614/614 51/615/615 55/616/616
f 70/617/617 59/618/618 58/619/619 64/620/620
f 52/621/621 56/622/622 57/623/623
f 53/624/624 58/625/625 59/626/626
f 60/627/627 61/628/628 55/629/629 54/630/630
f 59/631/631 70/632/632 74/633/633
f 59/634/634 74/635/635 65/636/636
f 99/637/637 66/638/638 65/639/639 74/640/640
f 55/641/641 61/642/642 62/643/643
f 56/644/644 62/645/645 63/646/646
f 58/647/647 63/648/648 64/649/649
f 63/650/650 72/651/651 73/652/652
f 64/653/653 73/654/654 69/655/655
f 67/656/656 68/657/657 61/658/658 60/659/659
f 72/660/660 63/661/661 62/662/662 68/663/663
f 66/664/664 99/665/665 83/666/666
f 62/667/667 61/668/668 68/669/669
f 71/670/670 77/671/671 68/672/672 67/673/673
f 69/674/674 73/675/675 76/676/676
f 70/677/677 76/678/678 74/679/679
f 88/680/680 82/681/681 79/682/682 86/683/683
f 68/684/684 77/685/685 78/686/686
f 72/687/687 78/688/688 79/689/689
f 73/690/690 79/691/691 82/692/692
f 73/693/693 82/694/694 76/695/695
f 74/696/696 80/697/697 99/698/698
f 76/699/699 82/700/700 80/701/701
f 75/702/702 84/703/703 77/704/704
f 79/705/705 85/706/706 86/707/707
f 96/708/708 97/709/709 86/710/710 95/711/711
f 80/712/712 90/713/713 99/714/714
f 78/715/715 81/716/716 85/717/717
f 90/718/718 82/719/719 88/720/720
f 126/721/721 83/722/722 121/723/723
f 92/724/724 84/725/725 87/726/726
f 85/727/727 92/728/728 95/729/729
f 86/730/730 85/731/731 95/732/732
f 90/733/733 88/734/734 89/735/735
f 99/736/736 90/737/737 106/738/738
f 94/739/739 92/740/740 91/741/741 93/742/742
f 88/743/743 86/744/744 97/745/745
f 89/746/746 88/747/747 97/748/748
f 89/749/749 97/750/750 98/751/751
f 106/752/752 89/753/753 105/754/754
f 129/755/755 137/756/756 99/757/757 106/758/758
f 95/759/759 92/760/760 94/761/761
f 97/762/762 96/763/763 103/764/764
f 98/765/765 97/766/766 104/767/767
f 101/768/768 94/769/769 93/770/770 100/771/771
f 102/772/772 103/773/773 95/774/774 94/775/775
f 121/776/776 99/777/777 137/778/778
f 94/779/779 101/780/780 102/781/781
f 110/782/782 116/783/783 105/784/784 104/785/785
f 96/786/786 95/787/787 103/788/788
f 103/789/789 102/790/790 109/791/791
f 104/792/792 103/793/793 110/794/794
f 108/795/795 101/796/796 100/797/797 107/798/798
f 106/799/799 105/800/800 116/801/801
f 129/802/802 106/803/803 116/804/804
f 112/805/805 108/806/806 107/807/807 111/808/808
f 102/809/809 101/810/810 108/811/811
f 112/812/812 120/813/813 109/814/814 108/815/815
f 118/816/816 112/817/817 111/818/818 117/819/819
f 114/820/820 109/821/821 113/822/822
f 116/823/823 110/824/824 115/825/825
f 122/826/826 123/827/827 120/828/828 119/829/829
f 120/830/830 112/831/831 119/832/832
f 115/833/833 114/834/834 125/835/835
f 125/836/836 113/837/837 124/838/838
f 129/839/839 116/840/840 134/841/841
f 126/842/842 121/843/843 148/844/844
f 127/845/845 128/846/846 124/847/847 123/848/848
f 124/849/849 120/850/850 123/851/851
f 132/852/852 133/853/853 115/854/854 125/855/855
f 130/856/856 131/857/857 124/858/858 128/859/859
f 134/860/860 115/861/861 133/862/862
f 135/863/863 136/864/864 132/865/865 131/866/866
f 132/867/867 124/868/868 131/869/869
f 137/870/870 129/871/871 143/872/872
f 139/873/873 140/874/874 138/875/875 136/876/876
f 133/877/877 132/878/878 138/879/879
f 143/880/880 134/881/881 142/882/882
f 148/883/883 137/884/884 152/885/885
f 146/886/886 147/887/887 142/888/888 141/889/889
f 133/890/890 138/891/891 141/892/892
f 142/893/893 133/894/894 141/895/895
f 141/896/896 140/897/897 144/898/898
f 154/899/899 147/900/900 146/901/901 150/902/902
f 152/903/903 143/904/904 151/905/905
f 146/906/906 144/907/907 145/908/908
f 145/909/909 149/910/910 146/911/911
f 146/912/912 149/913/913 150/914/914
f 163/915/915 164/916/916 161/917/917 162/918/918
f 147/919/919 154/920/920 151/921/921
f 151/922/922 157/923/923 152/924/924
f 151/925/925 154/926/926 157/927/927
f 152/928/928 174/929/929 148/930/930
f 150/931/931 153/932/932 154/933/933
f 154/934/934 156/935/935 157/936/936
f 148/937/937 208/938/938 158/939/939
f 324/940/940 326/941/941 155/942/942
f 157/943/943 173/944/944 174/945/945
f 324/946/946 155/947/947 159/948/948
f 324/949/949 159/950/950 160/951/951
f 324/952/952 160/953/953 161/954/954
f 324/955/955 161/956/956 164/957/957
f 178/958/958 177/959/959 172/960/960 170/961/961
f 164/962/962 163/963/963 165/964/964
f 165/965/965 166/966/966 168/967/967
f 164/968/968 165/969/969 171/970/970
f 168/971/971 169/972/972 172/973/973
f 171/974/974 168/975/975 177/976/976
f 168/977/977 172/978/978 177/979/979
f 179/980/980 178/981/981 175/982/982 176/983/983
f 170/984/984 175/985/985 178/986/986
f 177/987/987 182/988/988 184/989/989 171/990/990
f 174/991/991 193/992/992 208/993/993
f 179/994/994 176/995/995 180/996/996
f 178/997/997 183/998/998 182/999/999 177/1000/1000
f 179/1001/1001 185/1002/1002 183/1003/1003 178/1004/1004
f 186/1005/1005 188/1006/1006 187/1007/1007 185/1008/1008
f 185/1009/1009 179/1010/1010 181/1011/1011
f 189/1012/1012 194/1013/1013 192/1014/1014 188/1015/1015
f 191/1016/1016 183/1017/1017 187/1018/1018
f 192/1019/1019 187/1020/1020 188/1021/1021
f 195/1022/1022 198/1023/1023 200/1024/1024 194/1025/1025
f 196/1026/1026 164/1027/1027 184/1028/1028
f 193/1029/1029 207/1030/1030 208/1031/1031
f 190/1032/1032 182/1033/1033 183/1034/1034
f 199/1035/1035 201/1036/1036 200/1037/1037 198/1038/1038
f 203/1039/1039 167/1040/1040 196/1041/1041
f 204/1042/1042 192/1043/1043 200/1044/1044
f 202/1045/1045 205/1046/1046 214/1047/1047 201/1048/1048
f 204/1049/1049 212/1050/1050 211/1051/1051 191/1052/1052
f 191/1053/1053 211/1054/1054 210/1055/1055 190/1056/1056
f 212/1057/1057 204/1058/1058 213/1059/1059
f 213/1060/1060 200/1061/1061 214/1062/1062
f 206/1063/1063 209/1064/1064 215/1065/1065
f 216/1066/1066 184/1067/1067 197/1068/1068
f 214/1069/1069 220/1070/1070 219/1071/1071 213/1072/1072
f 208/1073/1073 234/1074/1074 328/1075/1075
f 206/1076/1076 217/1077/1077 220/1078/1078 214/1079/1079
f 218/1080/1080 217/1081/1081 206/1082/1082 215/1083/1083
f 222/1084/1084 221/1085/1085 217/1086/1086 218/1087/1087
f 221/1088/1088 220/1089/1089 217/1090/1090
f 225/1091/1091 226/1092/1092 231/1093/1093 224/1094/1094
f 223/1095/1095 197/1096/1096 210/1097/1097
f 225/1098/1098 211/1099/1099 212/1100/1100
f 226/1101/1101 212/1102/1102 219/1103/1103
f 221/1104/1104 219/1105/1105 220/1106/1106
f 228/1107/1107 226/1108/1108 221/1109/1109
f 221/1110/1110 222/1111/1111 230/1112/1112
f 231/1113/1113 210/1114/1114 224/1115/1115
f 231/1116/1116 232/1117/1117 238/1118/1118 235/1119/1119
f 20/1120/1120 21/1121/1121 16/1122/1122 15/1123/1123
f 235/1124/1124 210/1125/1125 231/1126/1126
f 234/1127/1127 254/1128/1128 328/1129/1129
f 232/1130/1130 231/1131/1131 226/1132/1132
f 246/1133/1133 250/1134/1134 241/1135/1135 242/1136/1136
f 239/1137/1137 229/1138/1138 233/1139/1139
f 237/1140/1140 216/1141/1141 223/1142/1142
f 240/1143/1143 239/1144/1144 236/1145/1145
f 241/1146/1146 223/1147/1147 238/1148/1148
f 243/1149/1149 232/1150/1150 227/1151/1151
f 244/1152/1152 227/1153/1153 228/1154/1154
f 245/1155/1155 228/1156/1156 229/1157/1157
f 244/1158/1158 245/1159/1159 248/1160/1160
f 245/1161/1161 239/1162/1162 252/1163/1163
f 203/1164/1164 196/1165/1165 249/1166/1166
f 237/1167/1167 241/1168/1168 250/1169/1169
f 258/1170/1170 257/1171/1171 248/1172/1172 252/1173/1173
f 242/1174/1174 243/1175/1175 246/1176/1176
f 243/1177/1177 244/1178/1178 247/1179/1179
f 250/1180/1180 246/1181/1181 251/1182/1182
f 237/1183/1183 250/1184/1184 256/1185/1185
f 251/1186/1186 246/1187/1187 261/1188/1188
f 246/1189/1189 247/1190/1190 261/1191/1191
f 247/1192/1192 248/1193/1193 257/1194/1194
f 252/1195/1195 253/1196/1196 255/1197/1197
f 252/1198/1198 255/1199/1199 258/1200/1200
f 256/1201/1201 251/1202/1202 260/1203/1203
f 251/1204/1204 261/1205/1205 260/1206/1206
f 254/1207/1207 285/1208/1208 328/1209/1209
f 247/1210/1210 257/1211/1211 261/1212/1212
f 263/1213/1213 262/1214/1214 257/1215/1215 258/1216/1216
f 261/1217/1217 257/1218/1218 262/1219/1219
f 259/1220/1220 265/1221/1221 264/1222/1222 258/1223/1223
f 249/1224/1224 237/1225/1225 266/1226/1226
f 278/1227/1227 266/1228/1228 237/1229/1229 256/1230/1230
f 272/1231/1231 271/1232/1232 263/1233/1233 264/1234/1234
f 260/1235/1235 261/1236/1236 267/1237/1237
f 267/1238/1238 262/1239/1239 269/1240/1240
f 262/1241/1241 263/1242/1242 271/1243/1243
f 265/1244/1244 273/1245/1245 272/1246/1246 264/1247/1247
f 269/1248/1248 268/1249/1249 260/1250/1250 267/1251/1251
f 278/1252/1252 256/1253/1253 268/1254/1254
f 256/1255/1255 260/1256/1256 268/1257/1257
f 273/1258/1258 275/1259/1259 274/1260/1260 272/1261/1261
f 268/1262/1262 269/1263/1263 279/1264/1264
f 270/1265/1265 271/1266/1266 280/1267/1267
f 271/1268/1268 272/1269/1269 282/1270/1270
f 283/1271/1271 284/1272/1272 282/1273/1273 274/1274/1274
f 277/1275/1275 274/1276/1276 275/1277/1277
f 279/1278/1278 270/1279/1279 288/1280/1280
f 281/1281/1281 282/1282/1282 284/1283/1283
f 289/1284/1284 292/1285/1285 281/1286/1286 284/1287/1287
f 286/1288/1288 249/1289/1289 305/1290/1290
f 266/1291/1291 278/1292/1292 290/1293/1293
f 278/1294/1294 268/1295/1295 290/1296/1296
f 288/1297/1297 280/1298/1298 281/1299/1299
f 285/1300/1300 313/1301/1301 328/1302/1302
f 279/1303/1303 288/1304/1304 291/1305/1305
f 293/1306/1306 295/1307/1307 281/1308/1308 292/1309/1309
f 287/1310/1310 279/1311/1311 294/1312/1312
f 291/1313/1313 281/1314/1314 295/1315/1315
f 296/1316/1316 299/1317/1317 291/1318/1318 295/1319/1319
f 290/1320/1320 287/1321/1321 297/1322/1322
f 294/1323/1323 291/1324/1324 298/1325/1325
f 302/1326/1326 301/1327/1327 266/1328/1328 290/1329/1329
f 305/1330/1330 266/1331/1331 301/1332/1332
f 307/1333/1333 315/1334/1334 314/1335/1335 301/1336/1336
f 298/1337/1337 299/1338/1338 300/1339/1339
f 297/1340/1340 294/1341/1341 303/1342/1342
f 294/1343/1343 298/1344/1344 303/1345/1345
f 302/1346/1346 297/1347/1347 306/1348/1348
f 301/1349/1349 302/1350/1350 307/1351/1351
f 303/1352/1352 304/1353/1353 308/1354/1354
f 310/1355/1355 303/1356/1356 308/1357/1357
f 312/1358/1358 306/1359/1359 309/1360/1360
f 311/1361/1361 286/1362/1362 305/1363/1363
f 323/1364/1364 325/1365/1365 324/1366/1366 311/1367/1367
f 316/1368/1368 307/1369/1369 312/1370/1370
f 318/1371/1371 305/1372/1372 314/1373/1373
f 313/1374/1374 2/1375/1375 328/1376/1376
