# left_arm - exported from blender/silhouette.blend by tools/blender_export.py
o left_arm
v 0.02929 -0.04123 0.03650
v -0.01182 0.02327 -0.03230
v -0.04097 -0.52598 -0.01341
v -0.10062 -0.51550 -0.01131
v -0.05123 -0.57184 -0.00392
v -0.10042 -0.56187 -0.00566
v -0.10240 -0.55474 0.04858
v -0.01131 -0.25655 0.04090
v -0.05919 -0.25101 0.04270
v 0.04591 0.00318 0.02727
v 0.02497 0.02547 -0.03352
v 0.02824 0.03681 0.01079
v -0.07417 -0.56832 0.04854
v -0.09269 -0.57491 0.01927
v -0.07674 -0.56749 -0.01308
v -0.00334 -0.02805 -0.04640
v -0.01608 0.03483 0.00092
v 0.00146 0.03075 0.03109
v 0.00917 0.00465 0.04896
v 0.05020 -0.00897 -0.00180
v -0.05182 -0.04757 0.00560
v 0.03905 -0.00478 -0.03540
v -0.04084 -0.05139 -0.02862
v -0.03174 -0.01046 0.03868
v -0.00394 -0.26396 0.01646
v -0.03766 -0.25520 -0.01539
v -0.06921 -0.25108 0.01898
v -0.03472 -0.25238 0.05080
v -0.06099 -0.25036 -0.00555
v -0.04372 -0.56207 0.04617
v -0.01341 -0.25854 -0.00727
v -0.03233 -0.55421 0.01636
v -0.07139 -0.52272 -0.02368
v -0.11388 -0.54401 0.01940
v -0.06811 -0.52181 0.05957
vt 0.0300 0.5000
vt 0.0300 0.5000
vt 0.0300 0.5000
vt 0.0300 0.5000
vt 0.0300 0.5000
vt 0.0300 0.5000
vt 0.0300 0.5000
vt 0.0300 0.5000
vt 0.0300 0.5000
vt 0.0300 0.5000
vt 0.0300 0.5000
vt 0.0300 0.5000
vt 0.0300 0.5000
vt 0.0300 0.5000
vt 0.0300 0.5000
vt 0.0300 0.5000
vt 0.0300 0.5000
vt 0.0300 0.5000
vt 0.0300 0.5000
vt 0.0300 0.5000
vt 0.0300 0.5000
vt 0.0300 0.5000
vt 0.0300 0.5000
vt 0.0300 0.5000
vt 0.0300 0.5000
vt 0.0300 0.5000
vt 0.0300 0.5000
vt 0.0300 0.5000
vt 0.0300 0.5000
vt 0.0300 0.5000
vt 0.0300 0.5000
vt 0.0300 0.5000
vt 0.0300 0.5000
vt 0.0300 0.5000
vt 0.0300 0.5000
vt 0.0300 0.5000
vt 0.0300 0.5000
vt 0.0300 0.5000
vt 0.0300 0.5000
vt 0.0300 0.5000
vt 0.0300 0.5000
vt 0.0300 0.5000
vt 0.0300 0.5000
vt 0.0300 0.5000
vt 0.0300 0.5000
vt 0.0300 0.5000
vt 0.0300 0.5000
vt 0.0300 0.5000
vt 0.0300 0.5000
vt 0.0300 0.5000
vt 0.0300 0.5000
vt 0.0300 0.5000
vt 0.0300 0.5000
vt 0.0300 0.5000
vt 0.0300 0.5000
vt 0.0300 0.5000
vt 0.0300 0.5000
vt 0.0300 0.5000
vt 0.0300 0.5000
vt 0.0300 0.5000
vt 0.0300 0.5000
vt 0.0300 0.5000
vt 0.0300 0.5000
vt 0.0300 0.5000
vt 0.0300 0.5000
vt 0.0300 0.5000
vt 0.0300 0.5000
vt 0.0300 0.5000
vt 0.0300 0.5000
vt 0.0300 0.5000
vt 0.0300 0.5000
vt 0.0300 0.5000
vt 0.0300 0.5000
vt 0.0300 0.5000
vt 0.0300 0.5000
vt 0.0300 0.5000
vt 0.0300 0.5000
vt 0.0300 0.5000
vt 0.0300 0.5000
vt 0.0300 0.5000
vt 0.0300 0.5000
vt 0.0300 0.5000
vt 0.0300 0.5000
vt 0.0300 0.5000
vt 0.0300 0.5000
vt 0.0300 0.5000
vt 0.0300 0.5000
vt 0.0300 0.5000
vt 0.0300 0.5000
vt 0.0300 0.5000
vt 0.0300 0.5000
vt 0.0300 0.5000
vt 0.0300 0.5000
vt 0.0300 0.5000
vt 0.0300 0.5000
vt 0.0300 0.5000
vt 0.0300 0.5000
vt 0.0300 0.5000
vt 0.0300 0.5000
vt 0.0300 0.5000
vt 0.0300 0.5000
vt 0.0300 0.5000
vt 0.0300 0.5000
vt 0.0300 0.5000
vt 0.0300 0.5000
vt 0.0300 0.5000
vt 0.0300 0.5000
vt 0.0300 0.5000
vt 0.0300 0.5000
vt 0.0300 0.5000
vt 0.0300 0.5000
vt 0.0300 0.5000
vt 0.0300 0.5000
vt 0.0300 0.5000
vt 0.0300 0.5000
vt 0.0300 0.5000
vt 0.0300 0.5000
vt 0.0300 0.5000
vt 0.0300 0.5000
vt 0.0300 0.5000
vt 0.0300 0.5000
vt 0.0300 0.5000
vt 0.0300 0.5000
vt 0.0300 0.5000
vt 0.0300 0.5000
vt 0.0300 0.5000
vt 0.0300 0.5000
vt 0.0300 0.5000
vt 0.0300 0.5000
vt 0.0300 0.5000
vt 0.0300 0.5000
vt 0.0300 0.5000
vt 0.0300 0.5000
vt 0.0300 0.5000
vt 0.0300 0.5000
vt 0.0300 0.5000
vt 0.0300 0.5000
vt 0.0300 0.5000
vt 0.0300 0.5000
vt 0.0300 0.5000
vt 0.0300 0.5000
vt 0.0300 0.5000
vt 0.0300 0.5000
vt 0.0300 0.5000
vt 0.0300 0.5000
vt 0.0300 0.5000
vt 0.0300 0.5000
vt 0.0300 0.5000
vt 0.0300 0.5000
vt 0.0300 0.5000
vt 0.0300 0.5000
vt 0.0300 0.5000
vt 0.0300 0.5000
vt 0.0300 0.5000
vt 0.0300 0.5000
vt 0.0300 0.5000
vt 0.0300 0.5000
vt 0.0300 0.5000
vt 0.0300 0.5000
vt 0.0300 0.5000
vt 0.0300 0.5000
vt 0.0300 0.5000
vt 0.0300 0.5000
vt 0.0300 0.5000
vn -0.6510 -0.3519 0.6726
vn -0.3977 -0.9163 0.0477
vn -0.0125 -0.7393 0.6733
vn 0.7104 -0.1239 0.6928
vn 0.9963 0.0520 -0.0686
vn 0.8416 0.2283 0.4895
vn -0.4480 0.6108 -0.6529
vn 0.3923 0.6550 -0.6458
vn -0.0887 0.0164 -0.9959
vn -0.7001 0.3109 0.6427
vn 0.1137 0.3077 0.9447
vn -0.1345 0.7753 0.6172
vn -0.9788 0.2040 0.0203
vn -0.7001 0.3109 0.6427
vn -0.5605 0.8275 -0.0342
vn 0.7275 -0.0980 0.6791
vn 0.9963 0.0520 -0.0686
vn 0.7104 -0.1239 0.6928
vn 0.6731 -0.1388 -0.7264
vn 0.9963 0.0520 -0.0686
vn 0.9888 -0.1469 -0.0259
vn -0.9910 0.1226 0.0543
vn -0.7382 0.0579 -0.6721
vn -0.7267 0.0396 -0.6858
vn 0.9888 -0.1469 -0.0259
vn 0.7275 -0.0980 0.6791
vn 0.5639 -0.5697 0.5979
vn -0.0386 -0.0909 -0.9951
vn -0.7267 0.0396 -0.6858
vn -0.0391 -0.0453 -0.9982
vn -0.9884 -0.1513 0.0112
vn -0.6510 -0.3519 0.6726
vn -0.9910 0.1226 0.0543
vn -0.6510 -0.3519 0.6726
vn -0.9884 -0.1513 0.0112
vn -0.3977 -0.9163 0.0477
vn -0.6677 -0.4877 -0.5625
vn -0.9884 -0.1513 0.0112
vn -0.7267 0.0396 -0.6858
vn 0.5639 -0.5697 0.5979
vn 0.0344 -0.0342 0.9988
vn -0.0125 -0.7393 0.6733
vn 0.8416 0.2283 0.4895
vn 0.9963 0.0520 -0.0686
vn 0.4854 0.8635 0.1367
vn 0.5639 -0.5697 0.5979
vn -0.0125 -0.7393 0.6733
vn -0.3977 -0.9163 0.0477
vn 0.4423 -0.7660 -0.4665
vn -0.6677 -0.4877 -0.5625
vn -0.1042 -0.6289 -0.7705
vn -0.3977 -0.9163 0.0477
vn -0.3977 -0.9163 0.0477
vn -0.1042 -0.6289 -0.7705
vn 0.4423 -0.7660 -0.4665
vn 0.3923 0.6550 -0.6458
vn -0.4480 0.6108 -0.6529
vn -0.5605 0.8275 -0.0342
vn 0.4854 0.8635 0.1367
vn -0.0887 0.0164 -0.9959
vn 0.3923 0.6550 -0.6458
vn 0.7146 0.1147 -0.6901
vn -0.5605 0.8275 -0.0342
vn -0.7001 0.3109 0.6427
vn -0.1345 0.7753 0.6172
vn -0.5605 0.8275 -0.0342
vn -0.1345 0.7753 0.6172
vn 0.4854 0.8635 0.1367
vn 0.4854 0.8635 0.1367
vn -0.1345 0.7753 0.6172
vn 0.1137 0.3077 0.9447
vn 0.8416 0.2283 0.4895
vn 0.1137 0.3077 0.9447
vn 0.7104 -0.1239 0.6928
vn 0.8416 0.2283 0.4895
vn -0.4480 0.6108 -0.6529
vn -0.7515 0.1140 -0.6498
vn -0.9788 0.2040 0.0203
vn -0.5605 0.8275 -0.0342
vn -0.7515 0.1140 -0.6498
vn -0.4480 0.6108 -0.6529
vn -0.0887 0.0164 -0.9959
vn 0.7146 0.1147 -0.6901
vn 0.6731 -0.1388 -0.7264
vn -0.0391 -0.0453 -0.9982
vn -0.0887 0.0164 -0.9959
vn 0.6731 -0.1388 -0.7264
vn 0.7146 0.1147 -0.6901
vn 0.9963 0.0520 -0.0686
vn -0.0887 0.0164 -0.9959
vn -0.0391 -0.0453 -0.9982
vn -0.7382 0.0579 -0.6721
vn -0.7515 0.1140 -0.6498
vn -0.9788 0.2040 0.0203
vn -0.7515 0.1140 -0.6498
vn -0.7382 0.0579 -0.6721
vn -0.9910 0.1226 0.0543
vn -0.7001 0.3109 0.6427
vn -0.9788 0.2040 0.0203
vn -0.9910 0.1226 0.0543
vn -0.6671 0.1000 0.7382
vn 0.1137 0.3077 0.9447
vn -0.7001 0.3109 0.6427
vn -0.6671 0.1000 0.7382
vn 0.0486 0.0100 0.9988
vn 0.7104 -0.1239 0.6928
vn 0.1137 0.3077 0.9447
vn 0.0486 0.0100 0.9988
vn 0.7275 -0.0980 0.6791
vn 0.6731 -0.1388 -0.7264
vn 0.9888 -0.1469 -0.0259
vn 0.9218 -0.3832 -0.0592
vn 0.6540 -0.1474 -0.7420
vn 0.9888 -0.1469 -0.0259
vn 0.9963 0.0520 -0.0686
vn 0.7275 -0.0980 0.6791
vn -0.0391 -0.0453 -0.9982
vn -0.7267 0.0396 -0.6858
vn -0.7382 0.0579 -0.6721
vn 0.9218 -0.3832 -0.0592
vn 0.9888 -0.1469 -0.0259
vn 0.5639 -0.5697 0.5979
vn 0.6731 -0.1388 -0.7264
vn 0.6540 -0.1474 -0.7420
vn -0.0386 -0.0909 -0.9951
vn -0.0391 -0.0453 -0.9982
vn 0.7275 -0.0980 0.6791
vn 0.0486 0.0100 0.9988
vn 0.0344 -0.0342 0.9988
vn 0.5639 -0.5697 0.5979
vn -0.9884 -0.1513 0.0112
vn -0.9910 0.1226 0.0543
vn -0.7267 0.0396 -0.6858
vn -0.9910 0.1226 0.0543
vn -0.6510 -0.3519 0.6726
vn -0.6671 0.1000 0.7382
vn -0.6671 0.1000 0.7382
vn -0.6510 -0.3519 0.6726
vn 0.0344 -0.0342 0.9988
vn 0.0486 0.0100 0.9988
vn -0.0386 -0.0909 -0.9951
vn -0.1042 -0.6289 -0.7705
vn -0.6677 -0.4877 -0.5625
vn -0.7267 0.0396 -0.6858
vn 0.5639 -0.5697 0.5979
vn 0.4423 -0.7660 -0.4665
vn 0.9218 -0.3832 -0.0592
vn 0.4423 -0.7660 -0.4665
vn 0.6540 -0.1474 -0.7420
vn 0.9218 -0.3832 -0.0592
vn -0.0386 -0.0909 -0.9951
vn 0.6540 -0.1474 -0.7420
vn 0.4423 -0.7660 -0.4665
vn -0.1042 -0.6289 -0.7705
vn -0.6677 -0.4877 -0.5625
vn -0.3977 -0.9163 0.0477
vn -0.9884 -0.1513 0.0112
vn 0.4854 0.8635 0.1367
vn 0.9963 0.0520 -0.0686
vn 0.7146 0.1147 -0.6901
vn 0.3923 0.6550 -0.6458
vn -0.6510 -0.3519 0.6726
vn -0.0125 -0.7393 0.6733
vn 0.0344 -0.0342 0.9988
f 7/1/1 14/2/2 13/3/3
f 1/4/4 20/5/5 10/6/6
f 2/7/7 11/8/8 16/9/9
f 24/10/10 19/11/11 18/12/12
f 21/13/13 24/14/14 17/15/15
f 8/16/16 20/17/17 1/18/18
f 31/19/19 20/20/20 25/21/21
f 27/22/22 29/23/23 4/24/24
f 25/25/25 8/26/26 30/27/27
f 33/28/28 4/29/29 26/30/30
f 34/31/31 7/32/32 27/33/33
f 7/34/34 34/35/35 14/36/36
f 6/37/37 34/38/38 4/39/39
f 30/40/40 35/41/41 13/42/42
f 10/43/43 20/44/44 12/45/45
f 30/46/46 13/47/47 14/48/48 5/49/49
f 6/50/50 15/51/51 14/52/52
f 14/53/53 15/54/54 5/55/55
f 11/56/56 2/57/57 17/58/58 12/59/59
f 16/60/60 11/61/61 22/62/62
f 17/63/63 24/64/64 18/65/65
f 17/66/66 18/67/67 12/68/68
f 12/69/69 18/70/70 19/71/71 10/72/72
f 19/73/73 1/74/74 10/75/75
f 2/76/76 23/77/77 21/78/78 17/79/79
f 23/80/80 2/81/81 16/82/82
f 22/83/83 31/84/84 26/85/85 16/86/86
f 31/87/87 22/88/88 20/89/89
f 16/90/90 26/91/91 29/92/92 23/93/93
f 21/94/94 23/95/95 29/96/96 27/97/97
f 24/98/98 21/99/99 27/100/100 9/101/101
f 19/102/102 24/103/103 9/104/104 28/105/105
f 1/106/106 19/107/107 28/108/108 8/109/109
f 31/110/110 25/111/111 32/112/112 3/113/113
f 25/114/114 20/115/115 8/116/116
f 26/117/117 4/118/118 29/119/119
f 32/120/120 25/121/121 30/122/122
f 31/123/123 3/124/124 33/125/125 26/126/126
f 8/127/127 28/128/128 35/129/129 30/130/130
f 34/131/131 27/132/132 4/133/133
f 27/134/134 7/135/135 9/136/136
f 9/137/137 7/138/138 35/139/139 28/140/140
f 33/141/141 15/142/142 6/143/143 4/144/144
f 30/145/145 5/146/146 32/147/147
f 5/148/148 3/149/149 32/150/150
f 33/151/151 3/152/152 5/153/153 15/154/154
f 6/155/155 14/156/156 34/157/157
f 12/158/158 20/159/159 22/160/160 11/161/161
f 7/162/162 13/163/163 35/164/164
