# left_leg - exported from blender/silhouette.blend by tools/blender_export.py
o left_leg
v 0.01073 -0.60974 -0.06579
v -0.03691 -0.60044 -0.11297
v -0.08523 -0.60386 -0.06551
v 0.06810 -0.00082 0.00282
v 0.00322 0.00938 -0.06154
v -0.05651 0.03610 0.00558
v 0.03280 -0.26881 -0.01843
v -0.01765 -0.26004 -0.06888
v -0.00671 0.04681 0.05378
v 0.05417 0.04404 0.01975
v 0.01982 0.05122 -0.04080
v -0.02462 0.05498 -0.02462
v -0.06277 -0.61878 -0.04179
v -0.06255 -0.61156 -0.09205
v -0.01747 -0.62251 -0.08868
v -0.01208 -0.62131 -0.04202
v -0.00000 -0.00689 0.06892
v 0.04779 -0.00489 0.04788
v 0.04815 0.00216 -0.04185
v -0.04157 0.00923 -0.04165
v -0.04082 -0.00162 0.05047
v 0.01703 -0.26929 0.01659
v 0.01714 -0.26445 -0.05322
v -0.05261 -0.25998 -0.05307
v -0.06850 -0.25939 -0.01799
v -0.03691 -0.61361 -0.01815
v -0.00066 -0.57730 -0.02633
v -0.00028 -0.56839 -0.09477
v -0.06918 -0.56473 -0.09470
v -0.06960 -0.57419 -0.02641
v 0.00810 0.06531 0.00810
vt 0.0300 0.5000
vt 0.0300 0.5000
vt 0.0300 0.5000
vt 0.0300 0.5000
vt 0.0300 0.5000
vt 0.0300 0.5000
vt 0.0300 0.5000
vt 0.0300 0.5000
vt 0.0300 0.5000
vt 0.0300 0.5000
vt 0.0300 0.5000
vt 0.0300 0.5000
vt 0.0300 0.5000
vt 0.0300 0.5000
vt 0.0300 0.5000
vt 0.0300 0.5000
vt 0.0300 0.5000
vt 0.0300 0.5000
vt 0.0300 0.5000
vt 0.0300 0.5000
vt 0.0300 0.5000
vt 0.0300 0.5000
vt 0.0300 0.5000
vt 0.0300 0.5000
vt 0.0300 0.5000
vt 0.0300 0.5000
vt 0.0300 0.5000
vt 0.0300 0.5000
vt 0.0300 0.5000
vt 0.0300 0.5000
vt 0.0300 0.5000
vt 0.0300 0.5000
vt 0.0300 0.5000
vt 0.0300 0.5000
vt 0.0300 0.5000
vt 0.0300 0.5000
vt 0.0300 0.5000
vt 0.0300 0.5000
vt 0.0300 0.5000
vt 0.0300 0.5000
vt 0.0300 0.5000
vt 0.0300 0.5000
vt 0.0300 0.5000
vt 0.0300 0.5000
vt 0.0300 0.5000
vt 0.0300 0.5000
vt 0.0300 0.5000
vt 0.0300 0.5000
vt 0.0300 0.5000
vt 0.0300 0.5000
vt 0.0300 0.5000
vt 0.0300 0.5000
vt 0.0300 0.5000
vt 0.0300 0.5000
vt 0.0300 0.5000
vt 0.0300 0.5000
vt 0.0300 0.5000
vt 0.0300 0.5000
vt 0.0300 0.5000
vt 0.0300 0.5000
vt 0.0300 0.5000
vt 0.0300 0.5000
vt 0.0300 0.5000
vt 0.0300 0.5000
vt 0.0300 0.5000
vt 0.0300 0.5000
vt 0.0300 0.5000
vt 0.0300 0.5000
vt 0.0300 0.5000
vt 0.0300 0.5000
vt 0.0300 0.5000
vt 0.0300 0.5000
vt 0.0300 0.5000
vt 0.0300 0.5000
vt 0.0300 0.5000
vt 0.0300 0.5000
vt 0.0300 0.5000
vt 0.0300 0.5000
vt 0.0300 0.5000
vt 0.0300 0.5000
vt 0.0300 0.5000
vt 0.0300 0.5000
vt 0.0300 0.5000
vt 0.0300 0.5000
vt 0.0300 0.5000
vt 0.0300 0.5000
vt 0.0300 0.5000
vt 0.0300 0.5000
vt 0.0300 0.5000
vt 0.0300 0.5000
vt 0.0300 0.5000
vt 0.0300 0.5000
vt 0.0300 0.5000
vt 0.0300 0.5000
vt 0.0300 0.5000
vt 0.0300 0.5000
vt 0.0300 0.5000
vt 0.0300 0.5000
vt 0.0300 0.5000
vt 0.0300 0.5000
vt 0.0300 0.5000
vt 0.0300 0.5000
vt 0.0300 0.5000
vt 0.0300 0.5000
vt 0.0300 0.5000
vt 0.0300 0.5000
vt 0.0300 0.5000
vt 0.0300 0.5000
vt 0.0300 0.5000
vt 0.0300 0.5000
vt 0.0300 0.5000
vt 0.0300 0.5000
vt 0.0300 0.5000
vt 0.0300 0.5000
vt 0.0300 0.5000
vt 0.0300 0.5000
vt 0.0300 0.5000
vt 0.0300 0.5000
vt 0.0300 0.5000
vt 0.0300 0.5000
vt 0.0300 0.5000
vt 0.0300 0.5000
vt 0.0300 0.5000
vt 0.0300 0.5000
vt 0.0300 0.5000
vt 0.0300 0.5000
vt 0.0300 0.5000
vt 0.0300 0.5000
vt 0.0300 0.5000
vt 0.0300 0.5000
vt 0.0300 0.5000
vt 0.0300 0.5000
vt 0.0300 0.5000
vt 0.0300 0.5000
vt 0.0300 0.5000
vt 0.0300 0.5000
vt 0.0300 0.5000
vt 0.0300 0.5000
vt 0.0300 0.5000
vt 0.0300 0.5000
vt 0.0300 0.5000
vt 0.0300 0.5000
vt 0.0300 0.5000
vt 0.0300 0.5000
vn 0.0510 0.9940 0.0970
vn 0.2914 0.7052 -0.6464
vn -0.4326 0.8051 -0.4058
vn -0.0059 -0.3207 -0.9472
vn 0.2953 -0.8343 -0.4655
vn -0.5283 -0.6462 -0.5507
vn 0.2953 -0.8343 -0.4655
vn 0.8667 -0.4913 -0.0861
vn 0.4134 -0.8272 0.3806
vn -0.6760 0.2368 -0.6978
vn -0.8613 0.5041 0.0644
vn -0.4326 0.8051 -0.4058
vn -0.9991 0.0360 0.0211
vn -0.6994 0.1139 0.7056
vn -0.8613 0.5041 0.0644
vn 0.6975 -0.2075 0.6859
vn 0.9953 -0.0967 0.0075
vn 0.7078 -0.1490 0.6905
vn -0.6994 0.1139 0.7056
vn -0.9991 0.0360 0.0211
vn -0.8863 -0.4577 -0.0703
vn -0.0341 -0.6291 0.7766
vn 0.6975 -0.2075 0.6859
vn 0.0393 0.0727 0.9966
vn -0.7076 0.0648 -0.7036
vn -0.8863 -0.4577 -0.0703
vn -0.7118 0.0973 -0.6956
vn 0.8667 -0.4913 -0.0861
vn 0.6975 -0.2075 0.6859
vn 0.4134 -0.8272 0.3806
vn -0.0059 -0.3207 -0.9472
vn 0.7025 -0.0317 -0.7109
vn 0.2953 -0.8343 -0.4655
vn -0.8863 -0.4577 -0.0703
vn -0.7076 0.0648 -0.7036
vn -0.5283 -0.6462 -0.5507
vn -0.0341 -0.6291 0.7766
vn -0.7148 -0.1272 0.6877
vn -0.4901 -0.8029 0.3394
vn -0.1261 0.6708 0.7309
vn 0.7454 0.6147 0.2578
vn 0.0510 0.9940 0.0970
vn 0.7454 0.6147 0.2578
vn 0.2914 0.7052 -0.6464
vn 0.0510 0.9940 0.0970
vn 0.2953 -0.8343 -0.4655
vn -0.4901 -0.8029 0.3394
vn -0.8863 -0.4577 -0.0703
vn -0.5283 -0.6462 -0.5507
vn -0.0341 -0.6291 0.7766
vn -0.4901 -0.8029 0.3394
vn 0.2953 -0.8343 -0.4655
vn 0.4134 -0.8272 0.3806
vn -0.8613 0.5041 0.0644
vn -0.1261 0.6708 0.7309
vn 0.0510 0.9940 0.0970
vn -0.4326 0.8051 -0.4058
vn -0.1261 0.6708 0.7309
vn 0.0393 0.0727 0.9966
vn 0.6832 0.0597 0.7278
vn 0.7454 0.6147 0.2578
vn 0.6832 0.0597 0.7278
vn 0.9942 0.1030 -0.0312
vn 0.7454 0.6147 0.2578
vn 0.7454 0.6147 0.2578
vn 0.9942 0.1030 -0.0312
vn 0.7276 0.1644 -0.6661
vn 0.2914 0.7052 -0.6464
vn 0.7276 0.1644 -0.6661
vn -0.0052 0.2251 -0.9743
vn 0.2914 0.7052 -0.6464
vn 0.2914 0.7052 -0.6464
vn -0.0052 0.2251 -0.9743
vn -0.6760 0.2368 -0.6978
vn -0.4326 0.8051 -0.4058
vn 0.6832 0.0597 0.7278
vn 0.7078 -0.1490 0.6905
vn 0.9953 -0.0967 0.0075
vn 0.9942 0.1030 -0.0312
vn -0.6994 0.1139 0.7056
vn 0.0393 0.0727 0.9966
vn -0.1261 0.6708 0.7309
vn -0.6994 0.1139 0.7056
vn -0.1261 0.6708 0.7309
vn -0.8613 0.5041 0.0644
vn 0.7276 0.1644 -0.6661
vn 0.7087 0.0001 -0.7055
vn -0.0013 0.0786 -0.9969
vn -0.0052 0.2251 -0.9743
vn 0.0393 0.0727 0.9966
vn 0.7078 -0.1490 0.6905
vn 0.6832 0.0597 0.7278
vn 0.7276 0.1644 -0.6661
vn 0.9942 0.1030 -0.0312
vn 0.9953 -0.0967 0.0075
vn 0.7087 0.0001 -0.7055
vn -0.6760 0.2368 -0.6978
vn -0.7118 0.0973 -0.6956
vn -0.9991 0.0360 0.0211
vn -0.8613 0.5041 0.0644
vn -0.6760 0.2368 -0.6978
vn -0.0052 0.2251 -0.9743
vn -0.0013 0.0786 -0.9969
vn -0.7118 0.0973 -0.6956
vn -0.0013 0.0786 -0.9969
vn 0.7087 0.0001 -0.7055
vn 0.7025 -0.0317 -0.7109
vn -0.0059 -0.3207 -0.9472
vn 0.0393 0.0727 0.9966
vn 0.6975 -0.2075 0.6859
vn 0.7078 -0.1490 0.6905
vn -0.8863 -0.4577 -0.0703
vn -0.9991 0.0360 0.0211
vn -0.7118 0.0973 -0.6956
vn 0.6975 -0.2075 0.6859
vn 0.8667 -0.4913 -0.0861
vn 0.9953 -0.0967 0.0075
vn 0.9953 -0.0967 0.0075
vn 0.8667 -0.4913 -0.0861
vn 0.7025 -0.0317 -0.7109
vn 0.7087 0.0001 -0.7055
vn -0.7118 0.0973 -0.6956
vn -0.0013 0.0786 -0.9969
vn -0.0059 -0.3207 -0.9472
vn -0.7076 0.0648 -0.7036
vn 0.0393 0.0727 0.9966
vn -0.6994 0.1139 0.7056
vn -0.7148 -0.1272 0.6877
vn -0.0341 -0.6291 0.7766
vn -0.8863 -0.4577 -0.0703
vn -0.7148 -0.1272 0.6877
vn -0.6994 0.1139 0.7056
vn -0.0341 -0.6291 0.7766
vn 0.4134 -0.8272 0.3806
vn 0.6975 -0.2075 0.6859
vn 0.8667 -0.4913 -0.0861
vn 0.2953 -0.8343 -0.4655
vn 0.7025 -0.0317 -0.7109
vn -0.0059 -0.3207 -0.9472
vn -0.5283 -0.6462 -0.5507
vn -0.7076 0.0648 -0.7036
vn -0.8863 -0.4577 -0.0703
vn -0.4901 -0.8029 0.3394
vn -0.7148 -0.1272 0.6877
f 31/1/1 11/2/2 12/3/3
f 2/4/4 15/5/5 14/6/6
f 15/7/7 1/8/8 16/9/9
f 20/10/10 6/11/11 12/12/12
f 25/13/13 21/14/14 6/15/15
f 27/16/16 7/17/17 22/18/18
f 21/19/19 25/20/20 3/21/21
f 26/22/22 27/23/23 17/24/24
f 29/25/25 3/26/26 24/27/27
f 1/28/28 27/29/29 16/30/30
f 2/31/31 28/32/32 15/33/33
f 3/34/34 29/35/35 14/36/36
f 26/37/37 30/38/38 13/39/39
f 9/40/40 10/41/41 31/42/42
f 10/43/43 11/44/44 31/45/45
f 15/46/46 13/47/47 3/48/48 14/49/49
f 26/50/50 13/51/51 15/52/52 16/53/53
f 6/54/54 9/55/55 31/56/56 12/57/57
f 9/58/58 17/59/59 18/60/60 10/61/61
f 18/62/62 4/63/63 10/64/64
f 10/65/65 4/66/66 19/67/67 11/68/68
f 19/69/69 5/70/70 11/71/71
f 11/72/72 5/73/73 20/74/74 12/75/75
f 18/76/76 22/77/77 7/78/78 4/79/79
f 21/80/80 17/81/81 9/82/82
f 21/83/83 9/84/84 6/85/85
f 19/86/86 23/87/87 8/88/88 5/89/89
f 17/90/90 22/91/91 18/92/92
f 19/93/93 4/94/94 7/95/95 23/96/96
f 20/97/97 24/98/98 25/99/99 6/100/100
f 20/101/101 5/102/102 8/103/103 24/104/104
f 8/105/105 23/106/106 28/107/107 2/108/108
f 17/109/109 27/110/110 22/111/111
f 3/112/112 25/113/113 24/114/114
f 27/115/115 1/116/116 7/117/117
f 7/118/118 1/119/119 28/120/120 23/121/121
f 24/122/122 8/123/123 2/124/124 29/125/125
f 17/126/126 21/127/127 30/128/128 26/129/129
f 3/130/130 30/131/131 21/132/132
f 26/133/133 16/134/134 27/135/135
f 1/136/136 15/137/137 28/138/138
f 2/139/139 14/140/140 29/141/141
f 3/142/142 13/143/143 30/144/144
