# left_shin - exported from blender/silhouette.blend by tools/blender_export.py
o left_shin
v -0.00879 0.03173 0.02929
v 0.02659 0.03107 0.01508
v 0.01248 0.03458 -0.02007
v -0.02291 0.03524 -0.00587
v -0.02026 -0.56764 0.10339
v 0.01730 -0.56173 0.09001
v 0.00232 -0.54356 0.06009
v -0.02236 -0.63454 0.00198
v 0.00377 -0.59459 0.00600
v -0.02318 -0.63503 -0.20187
v 0.03690 0.01219 0.01508
v -0.03728 -0.01889 -0.01158
v -0.02182 -0.30147 0.08450
v 0.00427 -0.30849 0.02262
v -0.02028 -0.52721 0.11076
v -0.02173 -0.61814 0.04401
v 0.00261 -0.56274 0.04861
v -0.02298 -0.64157 -0.11461
v -0.02134 -0.64080 -0.20160
v -0.01937 0.03591 0.01351
v 0.01048 0.03326 0.02613
v 0.02332 0.03524 -0.00362
v -0.00653 0.03790 -0.01625
v -0.01471 0.01913 0.03517
v 0.01507 0.01840 0.03436
v 0.03539 -0.02146 -0.01056
v 0.01517 0.02062 -0.02939
v -0.01520 -0.02214 -0.03206
v -0.03162 0.02202 -0.01057
v -0.03628 -0.01364 0.01783
v 0.01499 -0.02431 -0.03256
v 0.00360 -0.30195 0.08380
v 0.02149 -0.30717 0.04138
v -0.02125 -0.31209 0.02407
v -0.03914 -0.30250 0.06585
v 0.02232 -0.30179 0.06630
v -0.03993 -0.30494 0.04046
v 0.00214 -0.52671 0.10991
v -0.01987 -0.53114 0.05924
v -0.03534 -0.52869 0.09484
v 0.00132 -0.56720 0.10269
v 0.01812 -0.52741 0.09532
v 0.01715 -0.54355 0.07580
v -0.01851 -0.55369 0.05740
v -0.03598 -0.52922 0.07352
v -0.03462 -0.57110 0.08653
v -0.02058 -0.59127 0.08474
v -0.00124 -0.61401 0.04723
v 0.01654 -0.57447 0.05562
v -0.03482 -0.56048 0.06899
v -0.00360 -0.63205 0.00088
v 0.01563 -0.59081 0.06361
v 0.01421 -0.60834 -0.00516
v -0.01597 -0.59643 0.00923
v -0.03314 -0.62596 0.00880
v 0.01215 -0.62116 -0.00104
v -0.03126 -0.61195 0.00735
v -0.00976 -0.63935 -0.11661
v 0.00318 -0.62372 -0.11745
v -0.01538 -0.60833 -0.03047
v -0.02999 -0.63675 -0.11583
v 0.00326 -0.60333 -0.02053
v -0.02840 -0.62811 -0.11237
v -0.01298 -0.63860 -0.20192
v 0.00144 -0.63198 -0.11679
v -0.01053 -0.63323 -0.19859
v -0.01558 -0.63104 -0.20170
v -0.02447 -0.63878 -0.19750
v 0.00226 0.04066 0.00565
v -0.01527 -0.63451 -0.20459
v 0.03331 0.01914 -0.00958
v -0.01172 0.02215 -0.02865
v -0.03098 0.02104 0.01628
v 0.00042 -0.59030 0.08388
vt 0.0300 0.5000
vt 0.0300 0.5000
vt 0.0300 0.5000
vt 0.0300 0.5000
vt 0.0300 0.5000
vt 0.0300 0.5000
vt 0.0300 0.5000
vt 0.0300 0.5000
vt 0.0300 0.5000
vt 0.0300 0.5000
vt 0.0300 0.5000
vt 0.0300 0.5000
vt 0.0300 0.5000
vt 0.0300 0.5000
vt 0.0300 0.5000
vt 0.0300 0.5000
vt 0.0300 0.5000
vt 0.0300 0.5000
vt 0.0300 0.5000
vt 0.0300 0.5000
vt 0.0300 0.5000
vt 0.0300 0.5000
vt 0.0300 0.5000
vt 0.0300 0.5000
vt 0.0300 0.5000
vt 0.0300 0.5000
vt 0.0300 0.5000
vt 0.0300 0.5000
vt 0.0300 0.5000
vt 0.0300 0.5000
vt 0.0300 0.5000
vt 0.0300 0.5000
vt 0.0300 0.5000
vt 0.0300 0.5000
vt 0.0300 0.5000
vt 0.0300 0.5000
vt 0.0300 0.5000
vt 0.0300 0.5000
vt 0.0300 0.5000
vt 0.0300 0.5000
vt 0.0300 0.5000
vt 0.0300 0.5000
vt 0.0300 0.5000
vt 0.0300 0.5000
vt 0.0300 0.5000
vt 0.0300 0.5000
vt 0.0300 0.5000
vt 0.0300 0.5000
vt 0.0300 0.5000
vt 0.0300 0.5000
vt 0.0300 0.5000
vt 0.0300 0.5000
vt 0.0300 0.5000
vt 0.0300 0.5000
vt 0.0300 0.5000
vt 0.0300 0.5000
vt 0.0300 0.5000
vt 0.0300 0.5000
vt 0.0300 0.5000
vt 0.0300 0.5000
vt 0.0300 0.5000
vt 0.0300 0.5000
vt 0.0300 0.5000
vt 0.0300 0.5000
vt 0.0300 0.5000
vt 0.0300 0.5000
vt 0.0300 0.5000
vt 0.0300 0.5000
vt 0.0300 0.5000
vt 0.0300 0.5000
vt 0.0300 0.5000
vt 0.0300 0.5000
vt 0.0300 0.5000
vt 0.0300 0.5000
vt 0.0300 0.5000
vt 0.0300 0.5000
vt 0.0300 0.5000
vt 0.0300 0.5000
vt 0.0300 0.5000
vt 0.0300 0.5000
vt 0.0300 0.5000
vt 0.0300 0.5000
vt 0.0300 0.5000
vt 0.0300 0.5000
vt 0.0300 0.5000
vt 0.0300 0.5000
vt 0.0300 0.5000
vt 0.0300 0.5000
vt 0.0300 0.5000
vt 0.0300 0.5000
vt 0.0300 0.5000
vt 0.0300 0.5000
vt 0.0300 0.5000
vt 0.0300 0.5000
vt 0.0300 0.5000
vt 0.0300 0.5000
vt 0.0300 0.5000
vt 0.0300 0.5000
vt 0.0300 0.5000
vt 0.0300 0.5000
vt 0.0300 0.5000
vt 0.0300 0.5000
vt 0.0300 0.5000
vt 0.0300 0.5000
vt 0.0300 0.5000
vt 0.0300 0.5000
vt 0.0300 0.5000
vt 0.0300 0.5000
vt 0.0300 0.5000
vt 0.0300 0.5000
vt 0.0300 0.5000
vt 0.0300 0.5000
vt 0.0300 0.5000
vt 0.0300 0.5000
vt 0.0300 0.5000
vt 0.0300 0.5000
vt 0.0300 0.5000
vt 0.0300 0.5000
vt 0.0300 0.5000
vt 0.0300 0.5000
vt 0.0300 0.5000
vt 0.0300 0.5000
vt 0.0300 0.5000
vt 0.0300 0.5000
vt 0.0300 0.5000
vt 0.0300 0.5000
vt 0.0300 0.5000
vt 0.0300 0.5000
vt 0.0300 0.5000
vt 0.0300 0.5000
vt 0.0300 0.5000
vt 0.0300 0.5000
vt 0.0300 0.5000
vt 0.0300 0.5000
vt 0.0300 0.5000
vt 0.0300 0.5000
vt 0.0300 0.5000
vt 0.0300 0.5000
vt 0.0300 0.5000
vt 0.0300 0.5000
vt 0.0300 0.5000
vt 0.0300 0.5000
vt 0.0300 0.5000
vt 0.0300 0.5000
vt 0.0300 0.5000
vt 0.0300 0.5000
vt 0.0300 0.5000
vt 0.0300 0.5000
vt 0.0300 0.5000
vt 0.0300 0.5000
vt 0.0300 0.5000
vt 0.0300 0.5000
vt 0.0300 0.5000
vt 0.0300 0.5000
vt 0.0300 0.5000
vt 0.0300 0.5000
vt 0.0300 0.5000
vt 0.0300 0.5000
vt 0.0300 0.5000
vt 0.0300 0.5000
vt 0.0300 0.5000
vt 0.0300 0.5000
vt 0.0300 0.5000
vt 0.0300 0.5000
vt 0.0300 0.5000
vt 0.0300 0.5000
vt 0.0300 0.5000
vt 0.0300 0.5000
vt 0.0300 0.5000
vt 0.0300 0.5000
vt 0.0300 0.5000
vt 0.0300 0.5000
vt 0.0300 0.5000
vt 0.0300 0.5000
vt 0.0300 0.5000
vt 0.0300 0.5000
vt 0.0300 0.5000
vt 0.0300 0.5000
vt 0.0300 0.5000
vt 0.0300 0.5000
vt 0.0300 0.5000
vt 0.0300 0.5000
vt 0.0300 0.5000
vt 0.0300 0.5000
vt 0.0300 0.5000
vt 0.0300 0.5000
vt 0.0300 0.5000
vt 0.0300 0.5000
vt 0.0300 0.5000
vt 0.0300 0.5000
vt 0.0300 0.5000
vt 0.0300 0.5000
vt 0.0300 0.5000
vt 0.0300 0.5000
vt 0.0300 0.5000
vt 0.0300 0.5000
vt 0.0300 0.5000
vt 0.0300 0.5000
vt 0.0300 0.5000
vt 0.0300 0.5000
vt 0.0300 0.5000
vt 0.0300 0.5000
vt 0.0300 0.5000
vt 0.0300 0.5000
vt 0.0300 0.5000
vt 0.0300 0.5000
vt 0.0300 0.5000
vt 0.0300 0.5000
vt 0.0300 0.5000
vt 0.0300 0.5000
vt 0.0300 0.5000
vt 0.0300 0.5000
vt 0.0300 0.5000
vt 0.0300 0.5000
vt 0.0300 0.5000
vt 0.0300 0.5000
vt 0.0300 0.5000
vt 0.0300 0.5000
vt 0.0300 0.5000
vt 0.0300 0.5000
vt 0.0300 0.5000
vt 0.0300 0.5000
vt 0.0300 0.5000
vt 0.0300 0.5000
vt 0.0300 0.5000
vt 0.0300 0.5000
vt 0.0300 0.5000
vt 0.0300 0.5000
vt 0.0300 0.5000
vt 0.0300 0.5000
vt 0.0300 0.5000
vt 0.0300 0.5000
vt 0.0300 0.5000
vt 0.0300 0.5000
vt 0.0300 0.5000
vt 0.0300 0.5000
vt 0.0300 0.5000
vt 0.0300 0.5000
vt 0.0300 0.5000
vt 0.0300 0.5000
vt 0.0300 0.5000
vt 0.0300 0.5000
vt 0.0300 0.5000
vt 0.0300 0.5000
vt 0.0300 0.5000
vt 0.0300 0.5000
vt 0.0300 0.5000
vt 0.0300 0.5000
vt 0.0300 0.5000
vt 0.0300 0.5000
vt 0.0300 0.5000
vt 0.0300 0.5000
vt 0.0300 0.5000
vt 0.0300 0.5000
vt 0.0300 0.5000
vt 0.0300 0.5000
vt 0.0300 0.5000
vt 0.0300 0.5000
vt 0.0300 0.5000
vt 0.0300 0.5000
vt 0.0300 0.5000
vt 0.0300 0.5000
vt 0.0300 0.5000
vt 0.0300 0.5000
vt 0.0300 0.5000
vt 0.0300 0.5000
vt 0.0300 0.5000
vt 0.0300 0.5000
vt 0.0300 0.5000
vt 0.0300 0.5000
vt 0.0300 0.5000
vt 0.0300 0.5000
vt 0.0300 0.5000
vt 0.0300 0.5000
vt 0.0300 0.5000
vt 0.0300 0.5000
vt 0.0300 0.5000
vt 0.0300 0.5000
vt 0.0300 0.5000
vt 0.0300 0.5000
vt 0.0300 0.5000
vt 0.0300 0.5000
vt 0.0300 0.5000
vt 0.0300 0.5000
vt 0.0300 0.5000
vt 0.0300 0.5000
vt 0.0300 0.5000
vt 0.0300 0.5000
vt 0.0300 0.5000
vt 0.0300 0.5000
vt 0.0300 0.5000
vt 0.0300 0.5000
vt 0.0300 0.5000
vt 0.0300 0.5000
vt 0.0300 0.5000
vt 0.0300 0.5000
vt 0.0300 0.5000
vt 0.0300 0.5000
vt 0.0300 0.5000
vt 0.0300 0.5000
vt 0.0300 0.5000
vt 0.0300 0.5000
vt 0.0300 0.5000
vt 0.0300 0.5000
vt 0.0300 0.5000
vt 0.0300 0.5000
vt 0.0300 0.5000
vt 0.0300 0.5000
vt 0.0300 0.5000
vt 0.0300 0.5000
vt 0.0300 0.5000
vt 0.0300 0.5000
vt 0.0300 0.5000
vt 0.0300 0.5000
vt 0.0300 0.5000
vt 0.0300 0.5000
vt 0.0300 0.5000
vt 0.0300 0.5000
vt 0.0300 0.5000
vt 0.0300 0.5000
vt 0.0300 0.5000
vt 0.0300 0.5000
vt 0.0300 0.5000
vt 0.0300 0.5000
vt 0.0300 0.5000
vt 0.0300 0.5000
vt 0.0300 0.5000
vt 0.0300 0.5000
vt 0.0300 0.5000
vt 0.0300 0.5000
vt 0.0300 0.5000
vt 0.0300 0.5000
vt 0.0300 0.5000
vt 0.0300 0.5000
vt 0.0300 0.5000
vt 0.0300 0.5000
vt 0.0300 0.5000
vt 0.0300 0.5000
vt 0.0300 0.5000
vt 0.0300 0.5000
vn -0.7232 0.3544 -0.5927
vn 0.2178 0.1656 -0.9619
vn -0.3065 -0.7747 -0.5531
vn -0.9285 0.1093 0.3550
vn -0.3825 0.3421 0.8583
vn -0.8614 0.3695 0.3485
vn 0.9182 0.0274 0.3952
vn 0.3860 0.2994 0.8726
vn 0.3745 0.1165 0.9199
vn 0.3840 -0.0662 -0.9210
vn 0.9191 -0.0422 -0.3917
vn 0.9272 -0.0900 -0.3637
vn -0.3823 -0.1567 -0.9107
vn -0.9241 -0.0660 -0.3763
vn -0.3720 -0.0357 -0.9275
vn -0.3825 0.3421 0.8583
vn -0.9285 0.1093 0.3550
vn -0.9235 0.0530 0.3800
vn 0.3992 0.1801 -0.8990
vn 0.9272 -0.0900 -0.3637
vn 0.9511 0.0334 -0.3069
vn -0.3823 -0.1567 -0.9107
vn 0.3848 -0.1706 -0.9071
vn 0.3992 0.1801 -0.8990
vn 0.9511 0.0334 -0.3069
vn 0.9060 -0.0292 0.4223
vn 0.8877 -0.2193 0.4049
vn 0.3677 -0.8351 0.4091
vn 0.8617 -0.4320 0.2661
vn 0.3569 -0.6904 0.6292
vn -0.3613 0.4186 -0.8332
vn 0.3992 0.1801 -0.8990
vn 0.3653 0.6291 -0.6861
vn 0.2448 0.8607 -0.4463
vn 0.9446 0.2101 -0.2520
vn 0.9441 0.2875 -0.1613
vn -0.4057 0.7850 -0.4682
vn 0.3653 0.6291 -0.6861
vn 0.2448 0.8607 -0.4463
vn -0.9117 0.3664 -0.1859
vn -0.4057 0.7850 -0.4682
vn -0.3614 0.9173 -0.1670
vn -0.2182 -0.9756 0.0262
vn 0.3760 -0.9075 0.1872
vn -0.2209 -0.9569 0.1884
vn 0.9017 0.3955 -0.1745
vn 0.2688 0.9347 -0.2327
vn 0.9441 0.2875 -0.1613
vn -0.8678 -0.4753 0.1449
vn -0.9117 0.3664 -0.1859
vn -0.8328 0.5468 -0.0865
vn 0.8263 -0.5604 -0.0575
vn 0.3760 -0.9075 0.1872
vn 0.3658 -0.9306 0.0093
vn -0.9267 -0.3750 -0.0258
vn -0.2182 -0.9756 0.0262
vn -0.8678 -0.4753 0.1449
vn 0.0564 0.8745 -0.4817
vn -0.3614 0.9173 -0.1670
vn 0.2688 0.9347 -0.2327
vn -0.3065 -0.7747 -0.5531
vn 0.3658 -0.9306 0.0093
vn -0.2182 -0.9756 0.0262
vn 0.8888 0.3181 -0.3299
vn 0.0564 0.8745 -0.4817
vn 0.9017 0.3955 -0.1745
vn -0.8328 0.5468 -0.0865
vn -0.3614 0.9173 -0.1670
vn 0.0564 0.8745 -0.4817
vn 0.8888 0.3181 -0.3299
vn 0.8263 -0.5604 -0.0575
vn 0.5989 -0.6149 -0.5130
vn 0.0511 0.9949 0.0873
vn 0.2595 0.7555 0.6016
vn 0.6500 0.6878 0.3231
vn 0.5700 0.8081 -0.1486
vn 0.2976 0.7773 -0.5542
vn -0.1700 0.8686 -0.4654
vn 0.0511 0.9949 0.0873
vn 0.5700 0.8081 -0.1486
vn -0.5675 0.7979 -0.2030
vn -0.4824 0.8333 0.2699
vn 0.0511 0.9949 0.0873
vn -0.1700 0.8686 -0.4654
vn 0.6500 0.6878 0.3231
vn 0.2595 0.7555 0.6016
vn 0.3860 0.2994 0.8726
vn 0.9167 0.2364 0.3222
vn 0.2178 0.1656 -0.9619
vn 0.5989 -0.6149 -0.5130
vn -0.3065 -0.7747 -0.5531
vn -0.2035 0.7182 0.6654
vn -0.3825 0.3421 0.8583
vn 0.3860 0.2994 0.8726
vn 0.2595 0.7555 0.6016
vn 0.8757 0.3111 -0.3692
vn 0.9191 -0.0422 -0.3917
vn 0.3840 -0.0662 -0.9210
vn 0.3821 0.3309 -0.8628
vn 0.9191 -0.0422 -0.3917
vn 0.8757 0.3111 -0.3692
vn 0.9167 0.2364 0.3222
vn 0.2976 0.7773 -0.5542
vn 0.5700 0.8081 -0.1486
vn 0.8757 0.3111 -0.3692
vn 0.3821 0.3309 -0.8628
vn 0.6500 0.6878 0.3231
vn 0.9167 0.2364 0.3222
vn 0.8757 0.3111 -0.3692
vn 0.5700 0.8081 -0.1486
vn 0.3821 0.3309 -0.8628
vn 0.3840 -0.0662 -0.9210
vn -0.3720 -0.0357 -0.9275
vn -0.3356 0.3594 -0.8708
vn -0.8479 0.3817 -0.3680
vn -0.3356 0.3594 -0.8708
vn -0.3720 -0.0357 -0.9275
vn -0.9139 0.0354 -0.4043
vn -0.5675 0.7979 -0.2030
vn -0.1700 0.8686 -0.4654
vn -0.3356 0.3594 -0.8708
vn -0.8479 0.3817 -0.3680
vn 0.2976 0.7773 -0.5542
vn 0.3821 0.3309 -0.8628
vn -0.3356 0.3594 -0.8708
vn -0.1700 0.8686 -0.4654
vn -0.8614 0.3695 0.3485
vn -0.8479 0.3817 -0.3680
vn -0.9139 0.0354 -0.4043
vn -0.9285 0.1093 0.3550
vn -0.2035 0.7182 0.6654
vn -0.4824 0.8333 0.2699
vn -0.8614 0.3695 0.3485
vn -0.3825 0.3421 0.8583
vn -0.5675 0.7979 -0.2030
vn -0.8479 0.3817 -0.3680
vn -0.8614 0.3695 0.3485
vn -0.4824 0.8333 0.2699
vn -0.3825 0.3421 0.8583
vn -0.3855 0.1260 0.9140
vn 0.3745 0.1165 0.9199
vn 0.3860 0.2994 0.8726
vn 0.9191 -0.0422 -0.3917
vn 0.9167 0.2364 0.3222
vn 0.9182 0.0274 0.3952
vn 0.9272 -0.0900 -0.3637
vn 0.9182 0.0274 0.3952
vn 0.9167 0.2364 0.3222
vn 0.3860 0.2994 0.8726
vn 0.3848 -0.1706 -0.9071
vn 0.3840 -0.0662 -0.9210
vn 0.9272 -0.0900 -0.3637
vn -0.3720 -0.0357 -0.9275
vn 0.3840 -0.0662 -0.9210
vn 0.3848 -0.1706 -0.9071
vn -0.3823 -0.1567 -0.9107
vn -0.9285 0.1093 0.3550
vn -0.9139 0.0354 -0.4043
vn -0.9241 -0.0660 -0.3763
vn -0.9235 0.0530 0.3800
vn -0.9241 -0.0660 -0.3763
vn -0.9139 0.0354 -0.4043
vn -0.3720 -0.0357 -0.9275
vn -0.3855 0.1260 0.9140
vn -0.3825 0.3421 0.8583
vn -0.9235 0.0530 0.3800
vn 0.3745 0.1165 0.9199
vn -0.3855 0.1260 0.9140
vn -0.3696 -0.0314 0.9287
vn 0.3664 -0.0289 0.9300
vn 0.3745 0.1165 0.9199
vn 0.3664 -0.0289 0.9300
vn 0.9060 -0.0292 0.4223
vn 0.9182 0.0274 0.3952
vn 0.9272 -0.0900 -0.3637
vn 0.9182 0.0274 0.3952
vn 0.9060 -0.0292 0.4223
vn 0.9511 0.0334 -0.3069
vn -0.3823 -0.1567 -0.9107
vn -0.3655 -0.0542 -0.9292
vn -0.9288 -0.0304 -0.3692
vn -0.9241 -0.0660 -0.3763
vn 0.3992 0.1801 -0.8990
vn 0.3848 -0.1706 -0.9071
vn 0.9272 -0.0900 -0.3637
vn 0.3992 0.1801 -0.8990
vn -0.3655 -0.0542 -0.9292
vn -0.3823 -0.1567 -0.9107
vn -0.9235 0.0530 0.3800
vn -0.9241 -0.0660 -0.3763
vn -0.9288 -0.0304 -0.3692
vn -0.9134 -0.0300 0.4059
vn -0.9235 0.0530 0.3800
vn -0.9134 -0.0300 0.4059
vn -0.3696 -0.0314 0.9287
vn -0.3855 0.1260 0.9140
vn -0.3696 -0.0314 0.9287
vn -0.3373 -0.3701 0.8656
vn 0.3650 -0.3965 0.8424
vn 0.3664 -0.0289 0.9300
vn 0.3664 -0.0289 0.9300
vn 0.3650 -0.3965 0.8424
vn 0.8877 -0.2193 0.4049
vn 0.9060 -0.0292 0.4223
vn -0.9288 -0.0304 -0.3692
vn -0.3655 -0.0542 -0.9292
vn -0.3613 0.4186 -0.8332
vn -0.9375 0.1475 -0.3153
vn -0.3613 0.4186 -0.8332
vn -0.3655 -0.0542 -0.9292
vn 0.3992 0.1801 -0.8990
vn -0.9134 -0.0300 0.4059
vn -0.9288 -0.0304 -0.3692
vn -0.9375 0.1475 -0.3153
vn -0.8929 -0.2524 0.3729
vn -0.3696 -0.0314 0.9287
vn -0.9134 -0.0300 0.4059
vn -0.8929 -0.2524 0.3729
vn -0.3373 -0.3701 0.8656
vn -0.3478 -0.7046 0.6185
vn -0.3364 -0.8258 0.4527
vn 0.3677 -0.8351 0.4091
vn 0.3569 -0.6904 0.6292
vn 0.8877 -0.2193 0.4049
vn 0.3650 -0.3965 0.8424
vn 0.3569 -0.6904 0.6292
vn 0.8617 -0.4320 0.2661
vn -0.3373 -0.3701 0.8656
vn -0.3478 -0.7046 0.6185
vn 0.3569 -0.6904 0.6292
vn 0.3650 -0.3965 0.8424
vn 0.3992 0.1801 -0.8990
vn 0.9511 0.0334 -0.3069
vn 0.9446 0.2101 -0.2520
vn 0.3653 0.6291 -0.6861
vn 0.9511 0.0334 -0.3069
vn 0.8877 -0.2193 0.4049
vn 0.8617 -0.4320 0.2661
vn 0.9446 0.2101 -0.2520
vn -0.3613 0.4186 -0.8332
vn -0.4057 0.7850 -0.4682
vn -0.9117 0.3664 -0.1859
vn -0.9375 0.1475 -0.3153
vn -0.4057 0.7850 -0.4682
vn -0.3613 0.4186 -0.8332
vn 0.3653 0.6291 -0.6861
vn -0.9375 0.1475 -0.3153
vn -0.9117 0.3664 -0.1859
vn -0.8678 -0.4753 0.1449
vn -0.8929 -0.2524 0.3729
vn -0.8929 -0.2524 0.3729
vn -0.8678 -0.4753 0.1449
vn -0.3364 -0.8258 0.4527
vn -0.3478 -0.7046 0.6185
vn -0.3364 -0.8258 0.4527
vn -0.2209 -0.9569 0.1884
vn 0.3760 -0.9075 0.1872
vn 0.3677 -0.8351 0.4091
vn -0.3478 -0.7046 0.6185
vn -0.3373 -0.3701 0.8656
vn -0.8929 -0.2524 0.3729
vn 0.3677 -0.8351 0.4091
vn 0.3760 -0.9075 0.1872
vn 0.8477 -0.5245 0.0789
vn 0.8617 -0.4320 0.2661
vn 0.8617 -0.4320 0.2661
vn 0.8477 -0.5245 0.0789
vn 0.9441 0.2875 -0.1613
vn 0.9446 0.2101 -0.2520
vn -0.4057 0.7850 -0.4682
vn 0.2448 0.8607 -0.4463
vn 0.2688 0.9347 -0.2327
vn -0.3614 0.9173 -0.1670
vn 0.2448 0.8607 -0.4463
vn 0.3653 0.6291 -0.6861
vn 0.9446 0.2101 -0.2520
vn -0.2209 -0.9569 0.1884
vn -0.3364 -0.8258 0.4527
vn -0.8678 -0.4753 0.1449
vn 0.9441 0.2875 -0.1613
vn 0.2688 0.9347 -0.2327
vn 0.2448 0.8607 -0.4463
vn 0.8477 -0.5245 0.0789
vn 0.8263 -0.5604 -0.0575
vn 0.9017 0.3955 -0.1745
vn 0.9441 0.2875 -0.1613
vn 0.8263 -0.5604 -0.0575
vn 0.8477 -0.5245 0.0789
vn 0.3760 -0.9075 0.1872
vn -0.8328 0.5468 -0.0865
vn -0.7232 0.3544 -0.5927
vn -0.9195 -0.3629 -0.1512
vn -0.9267 -0.3750 -0.0258
vn 0.0511 0.9949 0.0873
vn -0.4824 0.8333 0.2699
vn -0.2035 0.7182 0.6654
vn 0.2595 0.7555 0.6016
vn -0.8328 0.5468 -0.0865
vn -0.9117 0.3664 -0.1859
vn -0.3614 0.9173 -0.1670
vn -0.8678 -0.4753 0.1449
vn -0.2182 -0.9756 0.0262
vn -0.2209 -0.9569 0.1884
vn -0.2182 -0.9756 0.0262
vn 0.3658 -0.9306 0.0093
vn 0.3760 -0.9075 0.1872
vn -0.9267 -0.3750 -0.0258
vn -0.8678 -0.4753 0.1449
vn -0.8328 0.5468 -0.0865
vn 0.9017 0.3955 -0.1745
vn 0.0564 0.8745 -0.4817
vn 0.2688 0.9347 -0.2327
vn 0.8888 0.3181 -0.3299
vn 0.9017 0.3955 -0.1745
vn 0.8263 -0.5604 -0.0575
vn -0.7232 0.3544 -0.5927
vn -0.8328 0.5468 -0.0865
vn 0.0564 0.8745 -0.4817
vn -0.2182 -0.9756 0.0262
vn -0.9267 -0.3750 -0.0258
vn -0.9195 -0.3629 -0.1512
vn -0.3065 -0.7747 -0.5531
vn -0.3065 -0.7747 -0.5531
vn 0.5989 -0.6149 -0.5130
vn 0.3658 -0.9306 0.0093
vn 0.5989 -0.6149 -0.5130
vn 0.8263 -0.5604 -0.0575
vn 0.3658 -0.9306 0.0093
vn 0.5989 -0.6149 -0.5130
vn 0.2178 0.1656 -0.9619
vn 0.8888 0.3181 -0.3299
vn 0.2178 0.1656 -0.9619
vn 0.0564 0.8745 -0.4817
vn 0.8888 0.3181 -0.3299
vn 0.2178 0.1656 -0.9619
vn -0.7232 0.3544 -0.5927
vn 0.0564 0.8745 -0.4817
vn -0.7232 0.3544 -0.5927
vn -0.3065 -0.7747 -0.5531
vn -0.9195 -0.3629 -0.1512
f 10/1/1 70/2/2 19/3/3
f 30/4/4 24/5/5 73/6/6
f 36/7/7 25/8/8 32/9/9
f 31/10/10 26/11/11 33/12/12
f 34/13/13 37/14/14 28/15/15
f 24/16/16 30/17/17 35/18/18
f 7/19/19 33/20/20 43/21/21
f 34/22/22 14/23/23 7/24/24
f 43/25/25 42/26/26 6/27/27
f 48/28/28 52/29/29 74/30/30
f 44/31/31 7/32/32 17/33/33
f 9/34/34 49/35/35 53/36/36
f 54/37/37 17/38/38 9/39/39
f 57/40/40 54/41/41 60/42/42
f 18/43/43 51/44/44 8/45/45
f 59/46/46 62/47/47 53/48/48
f 55/49/49 57/50/50 63/51/51
f 65/52/52 51/53/53 58/54/54
f 61/55/55 18/56/56 55/57/57
f 67/58/58 60/59/59 62/60/60
f 19/61/61 58/62/62 18/63/63
f 66/64/64 67/65/65 59/66/66
f 63/67/67 60/68/68 67/69/69
f 66/70/70 65/71/71 64/72/72
f 69/73/73 21/74/74 2/75/75 22/76/76
f 3/77/77 23/78/78 69/79/79 22/80/80
f 4/81/81 20/82/82 69/83/83 23/84/84
f 2/85/85 21/86/86 25/87/87 11/88/88
f 70/89/89 64/90/90 19/91/91
f 1/92/92 24/93/93 25/94/94 21/95/95
f 71/96/96 26/97/97 31/98/98 27/99/99
f 26/100/100 71/101/101 11/102/102
f 3/103/103 22/104/104 71/105/105 27/106/106
f 2/107/107 11/108/108 71/109/109 22/110/110
f 27/111/111 31/112/112 28/113/113 72/114/114
f 29/115/115 72/116/116 28/117/117 12/118/118
f 4/119/119 23/120/120 72/121/121 29/122/122
f 3/123/123 27/124/124 72/125/125 23/126/126
f 73/127/127 29/128/128 12/129/129 30/130/130
f 1/131/131 20/132/132 73/133/133 24/134/134
f 4/135/135 29/136/136 73/137/137 20/138/138
f 24/139/139 13/140/140 32/141/141 25/142/142
f 26/143/143 11/144/144 36/145/145 33/146/146
f 36/147/147 11/148/148 25/149/149
f 14/150/150 31/151/151 33/152/152
f 28/153/153 31/154/154 14/155/155 34/156/156
f 30/157/157 12/158/158 37/159/159 35/160/160
f 37/161/161 12/162/162 28/163/163
f 13/164/164 24/165/165 35/166/166
f 32/167/167 13/168/168 15/169/169 38/170/170
f 32/171/171 38/172/172 42/173/173 36/174/174
f 33/175/175 36/176/176 42/177/177 43/178/178
f 34/179/179 39/180/180 45/181/181 37/182/182
f 7/183/183 14/184/184 33/185/185
f 7/186/186 39/187/187 34/188/188
f 35/189/189 37/190/190 45/191/191 40/192/192
f 35/193/193 40/194/194 15/195/195 13/196/196
f 15/197/197 5/198/198 41/199/199 38/200/200
f 38/201/201 41/202/202 6/203/203 42/204/204
f 45/205/205 39/206/206 44/207/207 50/208/208
f 44/209/209 39/210/210 7/211/211
f 40/212/212 45/213/213 50/214/214 46/215/215
f 15/216/216 40/217/217 46/218/218 5/219/219
f 47/220/220 16/221/221 48/222/222 74/223/223
f 6/224/224 41/225/225 74/226/226 52/227/227
f 5/228/228 47/229/229 74/230/230 41/231/231
f 7/232/232 43/233/233 49/234/234 17/235/235
f 43/236/236 6/237/237 52/238/238 49/239/239
f 44/240/240 54/241/241 57/242/242 50/243/243
f 54/244/244 44/245/245 17/246/246
f 50/247/247 57/248/248 55/249/249 46/250/250
f 46/251/251 55/252/252 16/253/253 47/254/254
f 16/255/255 8/256/256 51/257/257 48/258/258
f 47/259/259 5/260/260 46/261/261
f 48/262/262 51/263/263 56/264/264 52/265/265
f 52/266/266 56/267/267 53/268/268 49/269/269
f 54/270/270 9/271/271 62/272/272 60/273/273
f 9/274/274 17/275/275 49/276/276
f 8/277/277 16/278/278 55/279/279
f 53/280/280 62/281/281 9/282/282
f 56/283/283 65/284/284 59/285/285 53/286/286
f 65/287/287 56/288/288 51/289/289
f 63/290/290 10/291/291 68/292/292 61/293/293
f 69/294/294 20/295/295 1/296/296 21/297/297
f 63/298/298 57/299/299 60/300/300
f 55/301/301 18/302/302 8/303/303
f 18/304/304 58/305/305 51/306/306
f 61/307/307 55/308/308 63/309/309
f 59/310/310 67/311/311 62/312/312
f 66/313/313 59/314/314 65/315/315
f 10/316/316 63/317/317 67/318/318
f 18/319/319 61/320/320 68/321/321 19/322/322
f 19/323/323 64/324/324 58/325/325
f 64/326/326 65/327/327 58/328/328
f 64/329/329 70/330/330 66/331/331
f 70/332/332 67/333/333 66/334/334
f 70/335/335 10/336/336 67/337/337
f 10/338/338 19/339/339 68/340/340
