# left_forearm - exported from blender/silhouette.blend by tools/blender_export.py
o left_forearm
v 0.01950 0.03103 0.01548
v 0.01961 0.03200 -0.01547
v -0.01118 0.03551 -0.01548
v -0.01129 0.03453 0.01547
v 0.02285 -0.00679 0.02116
v 0.02326 -0.00294 -0.02445
v -0.02235 0.00141 -0.02452
v -0.02276 -0.00245 0.02109
v 0.00186 -0.27419 -0.02535
v 0.00257 -0.26653 -0.06513
v -0.03785 -0.26365 -0.06530
v -0.03856 -0.27132 -0.02551
v -0.01856 -0.51623 -0.08218
v -0.01774 -0.50678 -0.11643
v -0.05318 -0.50397 -0.11651
v -0.05401 -0.51342 -0.08226
v -0.02778 -0.65896 -0.15054
v -0.02120 -0.66058 -0.13096
v -0.00367 -0.65247 -0.13653
v -0.01045 -0.65082 -0.15628
v -0.03029 -0.90639 -0.19345
v -0.02603 -0.90198 -0.18015
v -0.02027 -1.09727 -0.23305
v -0.01903 -1.09800 -0.22968
v -0.01558 -1.09765 -0.23087
v -0.01682 -1.09693 -0.23425
v -0.05481 -0.66080 -0.15996
v -0.03433 -0.66095 -0.15962
v -0.03420 -0.65130 -0.17704
v -0.05505 -0.65105 -0.17728
v -0.05987 -0.95089 -0.20860
v -0.05102 -1.18721 -0.25705
v -0.04737 -1.18714 -0.25707
v -0.04740 -1.18648 -0.26066
v -0.05105 -1.18655 -0.26064
v -0.06345 -0.65256 -0.12441
v -0.07861 -0.64087 -0.15201
v -0.08414 -0.64271 -0.12677
v -0.07985 -0.88865 -0.17786
v -0.07696 -0.87948 -0.18865
v -0.09242 -0.88146 -0.17897
v -0.07911 -1.06222 -0.22532
v -0.07833 -1.06136 -0.22881
v -0.08191 -1.06126 -0.22959
v -0.08270 -1.06212 -0.22611
v 0.01862 -0.06540 0.01282
v 0.00428 -0.24466 -0.01954
v -0.03950 -0.29149 -0.07070
v -0.01666 -0.48927 -0.07547
v -0.04989 -0.45969 -0.10587
v -0.01949 -0.57679 -0.09885
v -0.02021 -0.55713 -0.13475
v -0.06281 -0.56174 -0.13845
v -0.06432 -0.57614 -0.09885
v -0.04882 -0.65001 -0.15065
v -0.03484 -0.63567 -0.11619
v -0.01418 -0.61928 -0.12913
v -0.02800 -0.61664 -0.15524
v -0.00307 -0.68880 -0.14405
v -0.02004 -0.68579 -0.13716
v -0.02569 -0.91750 -0.18385
v -0.01397 -0.90691 -0.18569
v -0.01831 -0.90525 -0.19761
v -0.01962 -1.09166 -0.22731
v -0.01479 -1.09119 -0.22898
v -0.01653 -1.09018 -0.23370
v -0.06485 -0.65937 -0.14626
v -0.02693 -0.64435 -0.13390
v -0.05944 -0.61166 -0.16082
v -0.05489 -0.69063 -0.16627
v -0.03636 -0.68593 -0.16569
v -0.05509 -0.68909 -0.18455
v -0.04699 -0.95715 -0.20989
v -0.04712 -0.95504 -0.22252
v -0.05989 -0.95688 -0.22270
v -0.04677 -1.18066 -0.25516
v -0.04682 -1.17974 -0.26015
v -0.05189 -1.17984 -0.26011
v -0.07055 -0.69030 -0.13495
v -0.06687 -0.68349 -0.15122
v -0.06727 -0.69889 -0.15459
v -0.08419 -0.68080 -0.15514
v -0.08808 -0.68674 -0.13825
v -0.08956 -0.88560 -0.19272
v -0.07717 -0.89474 -0.19196
v -0.09188 -0.89695 -0.18281
v -0.07760 -1.05478 -0.22780
v -0.08263 -1.05464 -0.22890
v -0.08374 -1.05585 -0.22401
v -0.03320 -0.64774 -0.14811
v -0.02721 -0.64819 -0.12915
v -0.01300 -0.63652 -0.13381
v -0.01927 -0.63604 -0.15304
v -0.05305 -0.64894 -0.15385
v -0.03389 -0.64877 -0.15246
v -0.03361 -0.63617 -0.16577
v -0.05331 -0.63620 -0.16702
v 0.02298 0.03356 0.00001
v -0.07708 -0.64860 -0.12222
v -0.08505 -0.63883 -0.13785
v -0.06339 -0.61583 -0.10738
v -0.07763 -0.61074 -0.11487
v -0.06961 -0.56374 -0.11659
v -0.04336 -0.63374 -0.16713
v -0.07545 -0.60095 -0.14449
v -0.05951 -0.65433 -0.14811
v -0.07157 -0.65532 -0.15148
v -0.06265 -0.64591 -0.15566
v -0.06289 -0.66082 -0.13755
v -0.06084 -0.59108 -0.15486
v -0.06823 -0.62452 -0.15936
v -0.03127 -0.64171 -0.15816
v -0.05330 -0.65492 -0.13791
v -0.03458 -0.64855 -0.14252
v -0.04338 -0.64982 -0.15094
v -0.03027 -0.64315 -0.12531
v -0.04669 -0.64136 -0.11843
v -0.05548 -0.64186 -0.15992
v 0.00441 0.03520 0.01863
v -0.04157 -0.57394 -0.09141
v -0.02862 -0.61394 -0.10656
v -0.01264 -0.56352 -0.11684
v -0.03953 -0.55456 -0.14209
v -0.01523 -0.63391 -0.14385
v -0.04569 -0.61483 -0.16155
v -0.03739 -0.63675 -0.15628
v -0.02007 -0.64160 -0.12895
v -0.02264 -0.58801 -0.14663
v -0.03253 -0.64881 -0.13791
v -0.01908 -0.63352 -0.13152
v -0.01688 -0.61811 -0.14115
v -0.01342 -0.60333 -0.11644
v -0.02769 -0.64111 -0.15281
v 0.00452 0.03619 -0.01863
v -0.01406 0.03784 -0.00001
v -0.01867 -1.09750 -0.23411
v -0.01582 -1.09773 -0.23279
v -0.01716 -1.09838 -0.23002
v -0.02001 -1.09815 -0.23134
v -0.05142 -1.18737 -0.25893
v -0.04922 -1.18692 -0.26113
v -0.04698 -1.18728 -0.25896
v -0.04918 -1.18773 -0.25677
v -0.08098 -1.06273 -0.22546
v -0.08268 -1.06215 -0.22805
v -0.08002 -1.06169 -0.22968
v -0.07832 -1.06227 -0.22709
v 0.02308 0.01720 0.02044
v 0.03161 -0.00568 -0.00163
v 0.02330 0.01927 -0.02083
v 0.00053 -0.00004 -0.03304
v -0.01782 0.02368 -0.02086
v -0.03111 0.00029 -0.00173
v -0.01805 0.02161 0.02041
v -0.00003 -0.00535 0.02968
v 0.02098 -0.03520 0.01796
v 0.02971 -0.03720 -0.00571
v -0.00203 -0.03264 -0.03795
v -0.03557 -0.05720 -0.01004
v -0.02550 -0.03137 0.01783
v -0.00456 -0.06617 0.02106
v 0.02120 -0.03455 -0.02905
v -0.02528 -0.02999 -0.02906
v -0.02738 -0.06295 0.01248
v -0.01553 -0.23501 -0.06795
v -0.01650 -0.24546 -0.01218
v 0.01110 -0.25617 -0.04231
v 0.00492 -0.23789 -0.06025
v -0.01751 -0.26365 -0.07267
v -0.03627 -0.23517 -0.06046
v -0.04494 -0.25073 -0.04229
v -0.03690 -0.24164 -0.01969
v -0.01848 -0.27419 -0.01797
v -0.00079 -0.30557 -0.03227
v 0.00707 -0.30140 -0.05154
v -0.01969 -0.29388 -0.07841
v -0.04743 -0.29705 -0.05166
v -0.02072 -0.30526 -0.02495
v 0.00010 -0.29569 -0.07081
v -0.04042 -0.30256 -0.03239
v -0.00972 -0.48589 -0.09262
v -0.03197 -0.45956 -0.11234
v -0.05802 -0.48223 -0.09277
v -0.01150 -0.51203 -0.09930
v -0.01593 -0.48105 -0.10970
v -0.03530 -0.50360 -0.12289
v -0.05130 -0.48149 -0.11059
v -0.06024 -0.50817 -0.09940
v -0.05179 -0.48670 -0.07559
v -0.03519 -0.50050 -0.07176
v -0.01962 -0.54170 -0.08901
v -0.01890 -0.53033 -0.12441
v -0.05622 -0.52797 -0.12480
v -0.05721 -0.53900 -0.08907
v -0.03203 -0.65217 -0.14994
v -0.02776 -0.66129 -0.13969
v -0.02501 -0.65306 -0.12797
v -0.01118 -0.65684 -0.13006
v -0.00735 -0.64076 -0.13356
v -0.00379 -0.65013 -0.14747
v -0.01481 -0.63982 -0.15594
v -0.02037 -0.65458 -0.15710
v -0.02590 -0.67044 -0.15205
v -0.02639 -0.68770 -0.14511
v -0.01973 -0.67237 -0.13435
v -0.01029 -0.68616 -0.13710
v -0.00261 -0.66830 -0.14007
v -0.00296 -0.68761 -0.15371
v -0.00887 -0.66588 -0.15773
v -0.01884 -0.68309 -0.16060
v -0.02659 -0.69855 -0.15687
v -0.03060 -0.88768 -0.18261
v -0.00916 -0.68459 -0.16072
v -0.02506 -0.88559 -0.19420
v -0.03050 -0.88654 -0.18967
v -0.01883 -0.88920 -0.17726
v -0.01330 -0.88724 -0.18887
v -0.03052 -0.90091 -0.18532
v -0.02597 -0.88876 -0.17727
v -0.01917 -0.90958 -0.18179
v -0.01338 -0.88820 -0.18178
v -0.01389 -0.90674 -0.19263
v -0.01792 -0.88598 -0.19417
v -0.02512 -0.90470 -0.19761
v -0.02997 -0.91687 -0.18888
v -0.02135 -1.09066 -0.23203
v -0.01476 -1.09062 -0.23166
v -0.01927 -1.09025 -0.23376
v -0.01688 -1.09164 -0.22727
v -0.02139 -1.09128 -0.22936
v -0.02102 -1.09477 -0.23283
v -0.01941 -1.09571 -0.22845
v -0.01494 -1.09527 -0.23001
v -0.01655 -1.09433 -0.23438
v -0.05510 -0.65363 -0.15564
v -0.04456 -0.66270 -0.15653
v -0.03273 -0.65350 -0.15440
v -0.03039 -0.65616 -0.16827
v -0.03230 -0.63997 -0.17126
v -0.04463 -0.64936 -0.18042
v -0.05553 -0.63987 -0.17226
v -0.05880 -0.65589 -0.16868
v -0.05459 -0.67263 -0.16335
v -0.04514 -0.67406 -0.16021
v -0.03569 -0.67300 -0.16351
v -0.03306 -0.68612 -0.17506
v -0.03578 -0.66706 -0.18112
v -0.04599 -0.68920 -0.18812
v -0.05473 -0.66669 -0.18095
v -0.05813 -0.67197 -0.17266
v -0.04611 -0.70510 -0.16526
v -0.03673 -0.68758 -0.18450
v -0.04414 -0.93674 -0.21300
v -0.06246 -0.93618 -0.21273
v -0.05338 -0.93487 -0.22190
v -0.05990 -0.93716 -0.20616
v -0.05321 -0.93795 -0.20382
v -0.05336 -0.95910 -0.20776
v -0.04656 -0.93747 -0.20634
v -0.04468 -0.95796 -0.21656
v -0.04670 -0.93554 -0.21954
v -0.05355 -0.95477 -0.22485
v -0.06003 -0.93525 -0.21936
v -0.06237 -0.94980 -0.21498
v -0.05947 -0.96755 -0.21185
v -0.06185 -0.96679 -0.21802
v -0.04937 -1.17964 -0.26107
v -0.05184 -1.18076 -0.25513
v -0.04930 -1.18091 -0.25421
v -0.04585 -1.18021 -0.25766
v -0.05266 -1.18396 -0.25829
v -0.05160 -1.18486 -0.25606
v -0.04687 -1.18477 -0.25609
v -0.04692 -1.18391 -0.26074
v -0.05164 -1.18400 -0.26071
v -0.06949 -0.67178 -0.13044
v -0.06512 -0.67287 -0.13876
v -0.06673 -0.66988 -0.14782
v -0.07484 -0.68176 -0.15644
v -0.08336 -0.66449 -0.15228
v -0.08951 -0.68636 -0.14797
v -0.08699 -0.66675 -0.13384
v -0.07984 -0.68543 -0.13253
v -0.06584 -0.69933 -0.14509
v -0.07518 -0.69645 -0.15942
v -0.07938 -0.86929 -0.17325
v -0.09348 -0.86693 -0.18294
v -0.08646 -0.86934 -0.17222
v -0.07550 -0.86842 -0.17921
v -0.08252 -0.86603 -0.18992
v -0.07618 -0.88858 -0.18371
v -0.07650 -0.86681 -0.18611
v -0.08282 -0.88610 -0.19381
v -0.08959 -0.86579 -0.18884
v -0.09340 -0.87999 -0.18567
v -0.09246 -0.86815 -0.17595
v -0.08660 -0.88232 -0.17530
v -0.09281 -0.89544 -0.18917
v -0.08634 -0.89791 -0.17936
v -0.07870 -1.05599 -0.22291
v -0.08413 -1.05524 -0.22667
v -0.07991 -1.05451 -0.22927
v -0.08143 -1.05617 -0.22255
v -0.07721 -1.05544 -0.22515
v -0.07875 -1.05997 -0.22411
v -0.07773 -1.05885 -0.22863
v -0.08239 -1.05872 -0.22965
v -0.08341 -1.05983 -0.22513
v -0.01317 -0.59248 -0.13009
v -0.07440 -0.62453 -0.11319
v -0.06516 -0.65172 -0.15198
v -0.07827 -0.60209 -0.12789
v -0.07122 -0.60525 -0.15468
v -0.00237 -0.03434 0.02657
v -0.05868 -0.65642 -0.14128
v -0.03393 -0.02784 -0.00533
v -0.04532 -0.61151 -0.10374
v 0.00250 0.01927 0.02813
v -0.04147 -0.58635 -0.15419
v -0.02558 0.02371 -0.00023
v 0.00281 0.02208 -0.02855
v 0.03090 0.01764 -0.00019
v -0.08048 -1.06319 -0.22781
v -0.04918 -1.18833 -0.25913
v -0.01790 -1.09893 -0.23229
v 0.00510 0.04080 0.00000
v -0.04318 -0.64024 -0.15749
v -0.02538 -0.63975 -0.14057
v -0.02012 -0.62453 -0.11755
v -0.05434 -0.63413 -0.16088
v -0.02482 -0.63696 -0.14530
v -0.04211 -0.65183 -0.13236
v -0.03359 -0.48125 -0.11696
v -0.01235 -0.53632 -0.10674
v -0.03725 -0.52702 -0.13115
v -0.06357 -0.53277 -0.10684
v -0.03856 -0.54219 -0.08246
v -0.03188 -0.65493 -0.13784
v -0.01487 -0.64700 -0.12652
v -0.00786 -0.63783 -0.14583
v -0.02487 -0.64576 -0.15716
v -0.02605 -0.67192 -0.14210
v -0.01000 -0.67079 -0.13390
v -0.00253 -0.66633 -0.14998
v -0.01858 -0.66747 -0.15817
v -0.02106 -1.09537 -0.23036
v -0.01687 -1.09571 -0.22842
v -0.01491 -1.09476 -0.23249
v -0.01909 -1.09442 -0.23444
v -0.04390 -0.65612 -0.15180
v -0.02816 -0.64665 -0.16253
v -0.04391 -0.63721 -0.17484
v -0.05965 -0.64668 -0.16411
v -0.03218 -0.67010 -0.17234
v -0.04527 -0.66576 -0.18434
v -0.04922 -1.18502 -0.25522
v -0.04601 -1.18436 -0.25843
v -0.04929 -1.18384 -0.26160
v -0.07443 -0.66712 -0.15324
v -0.08834 -0.66450 -0.14364
v -0.07903 -0.66976 -0.12886
v -0.07737 -1.05948 -0.22619
v -0.07987 -1.05862 -0.23000
v -0.08377 -1.05930 -0.22759
v -0.08127 -1.06016 -0.22378
vt 0.0300 0.5000
vt 0.0300 0.5000
vt 0.0300 0.5000
vt 0.0300 0.5000
vt 0.0300 0.5000
vt 0.0300 0.5000
vt 0.0300 0.5000
vt 0.0300 0.5000
vt 0.0300 0.5000
vt 0.0300 0.5000
vt 0.0300 0.5000
vt 0.0300 0.5000
vt 0.0300 0.5000
vt 0.0300 0.5000
vt 0.0300 0.5000
vt 0.0300 0.5000
vt 0.0300 0.5000
vt 0.0300 0.5000
vt 0.0300 0.5000
vt 0.0300 0.5000
vt 0.0300 0.5000
vt 0.0300 0.5000
vt 0.0300 0.5000
vt 0.0300 0.5000
vt 0.0300 0.5000
vt 0.0300 0.5000
vt 0.0300 0.5000
vt 0.0300 0.5000
vt 0.0300 0.5000
vt 0.0300 0.5000
vt 0.0300 0.5000
vt 0.0300 0.5000
vt 0.0300 0.5000
vt 0.0300 0.5000
vt 0.0300 0.5000
vt 0.0300 0.5000
vt 0.0300 0.5000
vt 0.0300 0.5000
vt 0.0300 0.5000
vt 0.0300 0.5000
vt 0.0300 0.5000
vt 0.0300 0.5000
vt 0.0300 0.5000
vt 0.0300 0.5000
vt 0.0300 0.5000
vt 0.0300 0.5000
vt 0.0300 0.5000
vt 0.0300 0.5000
vt 0.0300 0.5000
vt 0.0300 0.5000
vt 0.0300 0.5000
vt 0.0300 0.5000
vt 0.0300 0.5000
vt 0.0300 0.5000
vt 0.0300 0.5000
vt 0.0300 0.5000
vt 0.0300 0.5000
vt 0.0300 0.5000
vt 0.0300 0.5000
vt 0.0300 0.5000
vt 0.0300 0.5000
vt 0.0300 0.5000
vt 0.0300 0.5000
vt 0.0300 0.5000
vt 0.0300 0.5000
vt 0.0300 0.5000
vt 0.0300 0.5000
vt 0.0300 0.5000
vt 0.0300 0.5000
vt 0.0300 0.5000
vt 0.0300 0.5000
vt 0.0300 0.5000
vt 0.0300 0.5000
vt 0.0300 0.5000
vt 0.0300 0.5000
vt 0.0300 0.5000
vt 0.0300 0.5000
vt 0.0300 0.5000
vt 0.0300 0.5000
vt 0.0300 0.5000
vt 0.0300 0.5000
vt 0.0300 0.5000
vt 0.0300 0.5000
vt 0.0300 0.5000
vt 0.0300 0.5000
vt 0.0300 0.5000
vt 0.0300 0.5000
vt 0.0300 0.5000
vt 0.0300 0.5000
vt 0.0300 0.5000
vt 0.0300 0.5000
vt 0.0300 0.5000
vt 0.0300 0.5000
vt 0.0300 0.5000
vt 0.0300 0.5000
vt 0.0300 0.5000
vt 0.0300 0.5000
vt 0.0300 0.5000
vt 0.0300 0.5000
vt 0.0300 0.5000
vt 0.0300 0.5000
vt 0.0300 0.5000
vt 0.0300 0.5000
vt 0.0300 0.5000
vt 0.0300 0.5000
vt 0.0300 0.5000
vt 0.0300 0.5000
vt 0.0300 0.5000
vt 0.0300 0.5000
vt 0.0300 0.5000
vt 0.0300 0.5000
vt 0.0300 0.5000
vt 0.0300 0.5000
vt 0.0300 0.5000
vt 0.0300 0.5000
vt 0.0300 0.5000
vt 0.0300 0.5000
vt 0.0300 0.5000
vt 0.0300 0.5000
vt 0.0300 0.5000
vt 0.0300 0.5000
vt 0.0300 0.5000
vt 0.0300 0.5000
vt 0.0300 0.5000
vt 0.0300 0.5000
vt 0.0300 0.5000
vt 0.0300 0.5000
vt 0.0300 0.5000
vt 0.0300 0.5000
vt 0.0300 0.5000
vt 0.0300 0.5000
vt 0.0300 0.5000
vt 0.0300 0.5000
vt 0.0300 0.5000
vt 0.0300 0.5000
vt 0.0300 0.5000
vt 0.0300 0.5000
vt 0.0300 0.5000
vt 0.0300 0.5000
vt 0.0300 0.5000
vt 0.0300 0.5000
vt 0.0300 0.5000
vt 0.0300 0.5000
vt 0.0300 0.5000
vt 0.0300 0.5000
vt 0.0300 0.5000
vt 0.0300 0.5000
vt 0.0300 0.5000
vt 0.0300 0.5000
vt 0.0300 0.5000
vt 0.0300 0.5000
vt 0.0300 0.5000
vt 0.0300 0.5000
vt 0.0300 0.5000
vt 0.0300 0.5000
vt 0.0300 0.5000
vt 0.0300 0.5000
vt 0.0300 0.5000
vt 0.0300 0.5000
vt 0.0300 0.5000
vt 0.0300 0.5000
vt 0.0300 0.5000
vt 0.0300 0.5000
vt 0.0300 0.5000
vt 0.0300 0.5000
vt 0.0300 0.5000
vt 0.0300 0.5000
vt 0.0300 0.5000
vt 0.0300 0.5000
vt 0.0300 0.5000
vt 0.0300 0.5000
vt 0.0300 0.5000
vt 0.0300 0.5000
vt 0.0300 0.5000
vt 0.0300 0.5000
vt 0.0300 0.5000
vt 0.0300 0.5000
vt 0.0300 0.5000
vt 0.0300 0.5000
vt 0.0300 0.5000
vt 0.0300 0.5000
vt 0.0300 0.5000
vt 0.0300 0.5000
vt 0.0300 0.5000
vt 0.0300 0.5000
vt 0.0300 0.5000
vt 0.0300 0.5000
vt 0.0300 0.5000
vt 0.0300 0.5000
vt 0.0300 0.5000
vt 0.0300 0.5000
vt 0.0300 0.5000
vt 0.0300 0.5000
vt 0.0300 0.5000
vt 0.0300 0.5000
vt 0.0300 0.5000
vt 0.0300 0.5000
vt 0.0300 0.5000
vt 0.0300 0.5000
vt 0.0300 0.5000
vt 0.0300 0.5000
vt 0.0300 0.5000
vt 0.0300 0.5000
vt 0.0300 0.5000
vt 0.0300 0.5000
vt 0.0300 0.5000
vt 0.0300 0.5000
vt 0.0300 0.5000
vt 0.0300 0.5000
vt 0.0300 0.5000
vt 0.0300 0.5000
vt 0.0300 0.5000
vt 0.0300 0.5000
vt 0.0300 0.5000
vt 0.0300 0.5000
vt 0.0300 0.5000
vt 0.0300 0.5000
vt 0.0300 0.5000
vt 0.0300 0.5000
vt 0.0300 0.5000
vt 0.0300 0.5000
vt 0.0300 0.5000
vt 0.0300 0.5000
vt 0.0300 0.5000
vt 0.0300 0.5000
vt 0.0300 0.5000
vt 0.0300 0.5000
vt 0.0300 0.5000
vt 0.0300 0.5000
vt 0.0300 0.5000
vt 0.0300 0.5000
vt 0.0300 0.5000
vt 0.0300 0.5000
vt 0.0300 0.5000
vt 0.0300 0.5000
vt 0.0300 0.5000
vt 0.0300 0.5000
vt 0.0300 0.5000
vt 0.0300 0.5000
vt 0.0300 0.5000
vt 0.0300 0.5000
vt 0.0300 0.5000
vt 0.0300 0.5000
vt 0.0300 0.5000
vt 0.0300 0.5000
vt 0.0300 0.5000
vt 0.0300 0.5000
vt 0.0300 0.5000
vt 0.0300 0.5000
vt 0.0300 0.5000
vt 0.0300 0.5000
vt 0.0300 0.5000
vt 0.0300 0.5000
vt 0.0300 0.5000
vt 0.0300 0.5000
vt 0.0300 0.5000
vt 0.0300 0.5000
vt 0.0300 0.5000
vt 0.0300 0.5000
vt 0.0300 0.5000
vt 0.0300 0.5000
vt 0.0300 0.5000
vt 0.0300 0.5000
vt 0.0300 0.5000
vt 0.0300 0.5000
vt 0.0300 0.5000
vt 0.0300 0.5000
vt 0.0300 0.5000
vt 0.0300 0.5000
vt 0.0300 0.5000
vt 0.0300 0.5000
vt 0.0300 0.5000
vt 0.0300 0.5000
vt 0.0300 0.5000
vt 0.0300 0.5000
vt 0.0300 0.5000
vt 0.0300 0.5000
vt 0.0300 0.5000
vt 0.0300 0.5000
vt 0.0300 0.5000
vt 0.0300 0.5000
vt 0.0300 0.5000
vt 0.0300 0.5000
vt 0.0300 0.5000
vt 0.0300 0.5000
vt 0.0300 0.5000
vt 0.0300 0.5000
vt 0.0300 0.5000
vt 0.0300 0.5000
vt 0.0300 0.5000
vt 0.0300 0.5000
vt 0.0300 0.5000
vt 0.0300 0.5000
vt 0.0300 0.5000
vt 0.0300 0.5000
vt 0.0300 0.5000
vt 0.0300 0.5000
vt 0.0300 0.5000
vt 0.0300 0.5000
vt 0.0300 0.5000
vt 0.0300 0.5000
vt 0.0300 0.5000
vt 0.0300 0.5000
vt 0.0300 0.5000
vt 0.0300 0.5000
vt 0.0300 0.5000
vt 0.0300 0.5000
vt 0.0300 0.5000
vt 0.0300 0.5000
vt 0.0300 0.5000
vt 0.0300 0.5000
vt 0.0300 0.5000
vt 0.0300 0.5000
vt 0.0300 0.5000
vt 0.0300 0.5000
vt 0.0300 0.5000
vt 0.0300 0.5000
vt 0.0300 0.5000
vt 0.0300 0.5000
vt 0.0300 0.5000
vt 0.0300 0.5000
vt 0.0300 0.5000
vt 0.0300 0.5000
vt 0.0300 0.5000
vt 0.0300 0.5000
vt 0.0300 0.5000
vt 0.0300 0.5000
vt 0.0300 0.5000
vt 0.0300 0.5000
vt 0.0300 0.5000
vt 0.0300 0.5000
vt 0.0300 0.5000
vt 0.0300 0.5000
vt 0.0300 0.5000
vt 0.0300 0.5000
vt 0.0300 0.5000
vt 0.0300 0.5000
vt 0.0300 0.5000
vt 0.0300 0.5000
vt 0.0300 0.5000
vt 0.0300 0.5000
vt 0.0300 0.5000
vt 0.0300 0.5000
vt 0.0300 0.5000
vt 0.0300 0.5000
vt 0.0300 0.5000
vt 0.0300 0.5000
vt 0.0300 0.5000
vt 0.0300 0.5000
vt 0.0300 0.5000
vt 0.0300 0.5000
vt 0.0300 0.5000
vt 0.0300 0.5000
vt 0.0300 0.5000
vt 0.0300 0.5000
vt 0.0300 0.5000
vt 0.0300 0.5000
vt 0.0300 0.5000
vt 0.0300 0.5000
vt 0.0300 0.5000
vt 0.0300 0.5000
vt 0.0300 0.5000
vt 0.0300 0.5000
vt 0.0300 0.5000
vt 0.0300 0.5000
vt 0.0300 0.5000
vt 0.0300 0.5000
vt 0.0300 0.5000
vt 0.0300 0.5000
vt 0.0300 0.5000
vt 0.0300 0.5000
vt 0.0300 0.5000
vt 0.0300 0.5000
vt 0.0300 0.5000
vt 0.0300 0.5000
vt 0.0300 0.5000
vt 0.0300 0.5000
vt 0.0300 0.5000
vt 0.0300 0.5000
vt 0.0300 0.5000
vt 0.0300 0.5000
vt 0.0300 0.5000
vt 0.0300 0.5000
vt 0.0300 0.5000
vt 0.0300 0.5000
vt 0.0300 0.5000
vt 0.0300 0.5000
vt 0.0300 0.5000
vt 0.0300 0.5000
vt 0.0300 0.5000
vt 0.0300 0.5000
vt 0.0300 0.5000
vt 0.0300 0.5000
vt 0.0300 0.5000
vt 0.0300 0.5000
vt 0.0300 0.5000
vt 0.0300 0.5000
vt 0.0300 0.5000
vt 0.0300 0.5000
vt 0.0300 0.5000
vt 0.0300 0.5000
vt 0.0300 0.5000
vt 0.0300 0.5000
vt 0.0300 0.5000
vt 0.0300 0.5000
vt 0.0300 0.5000
vt 0.0300 0.5000
vt 0.0300 0.5000
vt 0.0300 0.5000
vt 0.0300 0.5000
vt 0.0300 0.5000
vt 0.0300 0.5000
vt 0.0300 0.5000
vt 0.0300 0.5000
vt 0.0300 0.5000
vt 0.0300 0.5000
vt 0.0300 0.5000
vt 0.0300 0.5000
vt 0.0300 0.5000
vt 0.0300 0.5000
vt 0.0300 0.5000
vt 0.0300 0.5000
vt 0.0300 0.5000
vt 0.0300 0.5000
vt 0.0300 0.5000
vt 0.0300 0.5000
vt 0.0300 0.5000
vt 0.0300 0.5000
vt 0.0300 0.5000
vt 0.0300 0.5000
vt 0.0300 0.5000
vt 0.0300 0.5000
vt 0.0300 0.5000
vt 0.0300 0.5000
vt 0.0300 0.5000
vt 0.0300 0.5000
vt 0.0300 0.5000
vt 0.0300 0.5000
vt 0.0300 0.5000
vt 0.0300 0.5000
vt 0.0300 0.5000
vt 0.0300 0.5000
vt 0.0300 0.5000
vt 0.0300 0.5000
vt 0.0300 0.5000
vt 0.0300 0.5000
vt 0.0300 0.5000
vt 0.0300 0.5000
vt 0.0300 0.5000
vt 0.0300 0.5000
vt 0.0300 0.5000
vt 0.0300 0.5000
vt 0.0300 0.5000
vt 0.0300 0.5000
vt 0.0300 0.5000
vt 0.0300 0.5000
vt 0.0300 0.5000
vt 0.0300 0.5000
vt 0.0300 0.5000
vt 0.0300 0.5000
vt 0.0300 0.5000
vt 0.0300 0.5000
vt 0.0300 0.5000
vt 0.0300 0.5000
vt 0.0300 0.5000
vt 0.0300 0.5000
vt 0.0300 0.5000
vt 0.0300 0.5000
vt 0.0300 0.5000
vt 0.0300 0.5000
vt 0.0300 0.5000
vt 0.0300 0.5000
vt 0.0300 0.5000
vt 0.0300 0.5000
vt 0.0300 0.5000
vt 0.0300 0.5000
vt 0.0300 0.5000
vt 0.0300 0.5000
vt 0.0300 0.5000
vt 0.0300 0.5000
vt 0.0300 0.5000
vt 0.0300 0.5000
vt 0.0300 0.5000
vt 0.0300 0.5000
vt 0.0300 0.5000
vt 0.0300 0.5000
vt 0.0300 0.5000
vt 0.0300 0.5000
vt 0.0300 0.5000
vt 0.0300 0.5000
vt 0.0300 0.5000
vt 0.0300 0.5000
vt 0.0300 0.5000
vt 0.0300 0.5000
vt 0.0300 0.5000
vt 0.0300 0.5000
vt 0.0300 0.5000
vt 0.0300 0.5000
vt 0.0300 0.5000
vt 0.0300 0.5000
vt 0.0300 0.5000
vt 0.0300 0.5000
vt 0.0300 0.5000
vt 0.0300 0.5000
vt 0.0300 0.5000
vt 0.0300 0.5000
vt 0.0300 0.5000
vt 0.0300 0.5000
vt 0.0300 0.5000
vt 0.0300 0.5000
vt 0.0300 0.5000
vt 0.0300 0.5000
vt 0.0300 0.5000
vt 0.0300 0.5000
vt 0.0300 0.5000
vt 0.0300 0.5000
vt 0.0300 0.5000
vt 0.0300 0.5000
vt 0.0300 0.5000
vt 0.0300 0.5000
vt 0.0300 0.5000
vt 0.0300 0.5000
vt 0.0300 0.5000
vt 0.0300 0.5000
vt 0.0300 0.5000
vt 0.0300 0.5000
vt 0.0300 0.5000
vt 0.0300 0.5000
vt 0.0300 0.5000
vt 0.0300 0.5000
vt 0.0300 0.5000
vt 0.0300 0.5000
vt 0.0300 0.5000
vt 0.0300 0.5000
vt 0.0300 0.5000
vt 0.0300 0.5000
vt 0.0300 0.5000
vt 0.0300 0.5000
vt 0.0300 0.5000
vt 0.0300 0.5000
vt 0.0300 0.5000
vt 0.0300 0.5000
vt 0.0300 0.5000
vt 0.0300 0.5000
vt 0.0300 0.5000
vt 0.0300 0.5000
vt 0.0300 0.5000
vt 0.0300 0.5000
vt 0.0300 0.5000
vt 0.0300 0.5000
vt 0.0300 0.5000
vt 0.0300 0.5000
vt 0.0300 0.5000
vt 0.0300 0.5000
vt 0.0300 0.5000
vt 0.0300 0.5000
vt 0.0300 0.5000
vt 0.0300 0.5000
vt 0.0300 0.5000
vt 0.0300 0.5000
vt 0.0300 0.5000
vt 0.0300 0.5000
vt 0.0300 0.5000
vt 0.0300 0.5000
vt 0.0300 0.5000
vt 0.0300 0.5000
vt 0.0300 0.5000
vt 0.0300 0.5000
vt 0.0300 0.5000
vt 0.0300 0.5000
vt 0.0300 0.5000
vt 0.0300 0.5000
vt 0.0300 0.5000
vt 0.0300 0.5000
vt 0.0300 0.5000
vt 0.0300 0.5000
vt 0.0300 0.5000
vt 0.0300 0.5000
vt 0.0300 0.5000
vt 0.0300 0.5000
vt 0.0300 0.5000
vt 0.0300 0.5000
vt 0.0300 0.5000
vt 0.0300 0.5000
vt 0.0300 0.5000
vt 0.0300 0.5000
vt 0.0300 0.5000
vt 0.0300 0.5000
vt 0.0300 0.5000
vt 0.0300 0.5000
vt 0.0300 0.5000
vt 0.0300 0.5000
vt 0.0300 0.5000
vt 0.0300 0.5000
vt 0.0300 0.5000
vt 0.0300 0.5000
vt 0.0300 0.5000
vt 0.0300 0.5000
vt 0.0300 0.5000
vt 0.0300 0.5000
vt 0.0300 0.5000
vt 0.0300 0.5000
vt 0.0300 0.5000
vt 0.0300 0.5000
vt 0.0300 0.5000
vt 0.0300 0.5000
vt 0.0300 0.5000
vt 0.0300 0.5000
vt 0.0300 0.5000
vt 0.0300 0.5000
vt 0.0300 0.5000
vt 0.0300 0.5000
vt 0.0300 0.5000
vt 0.0300 0.5000
vt 0.0300 0.5000
vt 0.0300 0.5000
vt 0.0300 0.5000
vt 0.0300 0.5000
vt 0.0300 0.5000
vt 0.0300 0.5000
vt 0.0300 0.5000
vt 0.0300 0.5000
vt 0.0300 0.5000
vt 0.0300 0.5000
vt 0.0300 0.5000
vt 0.0300 0.5000
vt 0.0300 0.5000
vt 0.0300 0.5000
vt 0.0300 0.5000
vt 0.0300 0.5000
vt 0.0300 0.5000
vt 0.0300 0.5000
vt 0.0300 0.5000
vt 0.0300 0.5000
vt 0.0300 0.5000
vt 0.0300 0.5000
vt 0.0300 0.5000
vt 0.0300 0.5000
vt 0.0300 0.5000
vt 0.0300 0.5000
vt 0.0300 0.5000
vt 0.0300 0.5000
vt 0.0300 0.5000
vt 0.0300 0.5000
vt 0.0300 0.5000
vt 0.0300 0.5000
vt 0.0300 0.5000
vt 0.0300 0.5000
vt 0.0300 0.5000
vt 0.0300 0.5000
vt 0.0300 0.5000
vt 0.0300 0.5000
vt 0.0300 0.5000
vt 0.0300 0.5000
vt 0.0300 0.5000
vt 0.0300 0.5000
vt 0.0300 0.5000
vt 0.0300 0.5000
vt 0.0300 0.5000
vt 0.0300 0.5000
vt 0.0300 0.5000
vt 0.0300 0.5000
vt 0.0300 0.5000
vt 0.0300 0.5000
vt 0.0300 0.5000
vt 0.0300 0.5000
vt 0.0300 0.5000
vt 0.0300 0.5000
vt 0.0300 0.5000
vt 0.0300 0.5000
vt 0.0300 0.5000
vt 0.0300 0.5000
vt 0.0300 0.5000
vt 0.0300 0.5000
vt 0.0300 0.5000
vt 0.0300 0.5000
vt 0.0300 0.5000
vt 0.0300 0.5000
vt 0.0300 0.5000
vt 0.0300 0.5000
vt 0.0300 0.5000
vt 0.0300 0.5000
vt 0.0300 0.5000
vt 0.0300 0.5000
vt 0.0300 0.5000
vt 0.0300 0.5000
vt 0.0300 0.5000
vt 0.0300 0.5000
vt 0.0300 0.5000
vt 0.0300 0.5000
vt 0.0300 0.5000
vt 0.0300 0.5000
vt 0.0300 0.5000
vt 0.0300 0.5000
vt 0.0300 0.5000
vt 0.0300 0.5000
vt 0.0300 0.5000
vt 0.0300 0.5000
vt 0.0300 0.5000
vt 0.0300 0.5000
vt 0.0300 0.5000
vt 0.0300 0.5000
vt 0.0300 0.5000
vt 0.0300 0.5000
vt 0.0300 0.5000
vt 0.0300 0.5000
vt 0.0300 0.5000
vt 0.0300 0.5000
vt 0.0300 0.5000
vt 0.0300 0.5000
vt 0.0300 0.5000
vt 0.0300 0.5000
vt 0.0300 0.5000
vt 0.0300 0.5000
vt 0.0300 0.5000
vt 0.0300 0.5000
vt 0.0300 0.5000
vt 0.0300 0.5000
vt 0.0300 0.5000
vt 0.0300 0.5000
vt 0.0300 0.5000
vt 0.0300 0.5000
vt 0.0300 0.5000
vt 0.0300 0.5000
vt 0.0300 0.5000
vt 0.0300 0.5000
vt 0.0300 0.5000
vt 0.0300 0.5000
vt 0.0300 0.5000
vt 0.0300 0.5000
vt 0.0300 0.5000
vt 0.0300 0.5000
vt 0.0300 0.5000
vt 0.0300 0.5000
vt 0.0300 0.5000
vt 0.0300 0.5000
vt 0.0300 0.5000
vt 0.0300 0.5000
vt 0.0300 0.5000
vt 0.0300 0.5000
vt 0.0300 0.5000
vt 0.0300 0.5000
vt 0.0300 0.5000
vt 0.0300 0.5000
vt 0.0300 0.5000
vt 0.0300 0.5000
vt 0.0300 0.5000
vt 0.0300 0.5000
vt 0.0300 0.5000
vt 0.0300 0.5000
vt 0.0300 0.5000
vt 0.0300 0.5000
vt 0.0300 0.5000
vt 0.0300 0.5000
vt 0.0300 0.5000
vt 0.0300 0.5000
vt 0.0300 0.5000
vt 0.0300 0.5000
vt 0.0300 0.5000
vt 0.0300 0.5000
vt 0.0300 0.5000
vt 0.0300 0.5000
vt 0.0300 0.5000
vt 0.0300 0.5000
vt 0.0300 0.5000
vt 0.0300 0.5000
vt 0.0300 0.5000
vt 0.0300 0.5000
vt 0.0300 0.5000
vt 0.0300 0.5000
vt 0.0300 0.5000
vt 0.0300 0.5000
vt 0.0300 0.5000
vt 0.0300 0.5000
vt 0.0300 0.5000
vt 0.0300 0.5000
vt 0.0300 0.5000
vt 0.0300 0.5000
vt 0.0300 0.5000
vt 0.0300 0.5000
vt 0.0300 0.5000
vt 0.0300 0.5000
vt 0.0300 0.5000
vt 0.0300 0.5000
vt 0.0300 0.5000
vt 0.0300 0.5000
vt 0.0300 0.5000
vt 0.0300 0.5000
vt 0.0300 0.5000
vt 0.0300 0.5000
vt 0.0300 0.5000
vt 0.0300 0.5000
vt 0.0300 0.5000
vt 0.0300 0.5000
vt 0.0300 0.5000
vt 0.0300 0.5000
vt 0.0300 0.5000
vt 0.0300 0.5000
vt 0.0300 0.5000
vt 0.0300 0.5000
vt 0.0300 0.5000
vt 0.0300 0.5000
vt 0.0300 0.5000
vt 0.0300 0.5000
vt 0.0300 0.5000
vt 0.0300 0.5000
vt 0.0300 0.5000
vt 0.0300 0.5000
vt 0.0300 0.5000
vt 0.0300 0.5000
vt 0.0300 0.5000
vt 0.0300 0.5000
vt 0.0300 0.5000
vt 0.0300 0.5000
vt 0.0300 0.5000
vt 0.0300 0.5000
vt 0.0300 0.5000
vt 0.0300 0.5000
vt 0.0300 0.5000
vt 0.0300 0.5000
vt 0.0300 0.5000
vt 0.0300 0.5000
vt 0.0300 0.5000
vt 0.0300 0.5000
vt 0.0300 0.5000
vt 0.0300 0.5000
vt 0.0300 0.5000
vt 0.0300 0.5000
vt 0.0300 0.5000
vt 0.0300 0.5000
vt 0.0300 0.5000
vt 0.0300 0.5000
vt 0.0300 0.5000
vt 0.0300 0.5000
vt 0.0300 0.5000
vt 0.0300 0.5000
vt 0.0300 0.5000
vt 0.0300 0.5000
vt 0.0300 0.5000
vt 0.0300 0.5000
vt 0.0300 0.5000
vt 0.0300 0.5000
vt 0.0300 0.5000
vt 0.0300 0.5000
vt 0.0300 0.5000
vt 0.0300 0.5000
vt 0.0300 0.5000
vt 0.0300 0.5000
vt 0.0300 0.5000
vt 0.0300 0.5000
vt 0.0300 0.5000
vt 0.0300 0.5000
vt 0.0300 0.5000
vt 0.0300 0.5000
vt 0.0300 0.5000
vt 0.0300 0.5000
vt 0.0300 0.5000
vt 0.0300 0.5000
vt 0.0300 0.5000
vt 0.0300 0.5000
vt 0.0300 0.5000
vt 0.0300 0.5000
vt 0.0300 0.5000
vt 0.0300 0.5000
vt 0.0300 0.5000
vt 0.0300 0.5000
vt 0.0300 0.5000
vt 0.0300 0.5000
vt 0.0300 0.5000
vt 0.0300 0.5000
vt 0.0300 0.5000
vt 0.0300 0.5000
vt 0.0300 0.5000
vt 0.0300 0.5000
vt 0.0300 0.5000
vt 0.0300 0.5000
vt 0.0300 0.5000
vt 0.0300 0.5000
vt 0.0300 0.5000
vt 0.0300 0.5000
vt 0.0300 0.5000
vt 0.0300 0.5000
vt 0.0300 0.5000
vt 0.0300 0.5000
vt 0.0300 0.5000
vt 0.0300 0.5000
vt 0.0300 0.5000
vt 0.0300 0.5000
vt 0.0300 0.5000
vt 0.0300 0.5000
vt 0.0300 0.5000
vt 0.0300 0.5000
vt 0.0300 0.5000
vt 0.0300 0.5000
vt 0.0300 0.5000
vt 0.0300 0.5000
vt 0.0300 0.5000
vt 0.0300 0.5000
vt 0.0300 0.5000
vt 0.0300 0.5000
vt 0.0300 0.5000
vt 0.0300 0.5000
vt 0.0300 0.5000
vt 0.0300 0.5000
vt 0.0300 0.5000
vt 0.0300 0.5000
vt 0.0300 0.5000
vt 0.0300 0.5000
vt 0.0300 0.5000
vt 0.0300 0.5000
vt 0.0300 0.5000
vt 0.0300 0.5000
vt 0.0300 0.5000
vt 0.0300 0.5000
vt 0.0300 0.5000
vt 0.0300 0.5000
vt 0.0300 0.5000
vt 0.0300 0.5000
vt 0.0300 0.5000
vt 0.0300 0.5000
vt 0.0300 0.5000
vt 0.0300 0.5000
vt 0.0300 0.5000
vt 0.0300 0.5000
vt 0.0300 0.5000
vt 0.0300 0.5000
vt 0.0300 0.5000
vt 0.0300 0.5000
vt 0.0300 0.5000
vt 0.0300 0.5000
vt 0.0300 0.5000
vt 0.0300 0.5000
vt 0.0300 0.5000
vt 0.0300 0.5000
vt 0.0300 0.5000
vt 0.0300 0.5000
vt 0.0300 0.5000
vt 0.0300 0.5000
vt 0.0300 0.5000
vt 0.0300 0.5000
vt 0.0300 0.5000
vt 0.0300 0.5000
vt 0.0300 0.5000
vt 0.0300 0.5000
vt 0.0300 0.5000
vt 0.0300 0.5000
vt 0.0300 0.5000
vt 0.0300 0.5000
vt 0.0300 0.5000
vt 0.0300 0.5000
vt 0.0300 0.5000
vt 0.0300 0.5000
vt 0.0300 0.5000
vt 0.0300 0.5000
vt 0.0300 0.5000
vt 0.0300 0.5000
vt 0.0300 0.5000
vt 0.0300 0.5000
vt 0.0300 0.5000
vt 0.0300 0.5000
vt 0.0300 0.5000
vt 0.0300 0.5000
vt 0.0300 0.5000
vt 0.0300 0.5000
vt 0.0300 0.5000
vt 0.0300 0.5000
vt 0.0300 0.5000
vt 0.0300 0.5000
vt 0.0300 0.5000
vt 0.0300 0.5000
vt 0.0300 0.5000
vt 0.0300 0.5000
vt 0.0300 0.5000
vt 0.0300 0.5000
vt 0.0300 0.5000
vt 0.0300 0.5000
vt 0.0300 0.5000
vt 0.0300 0.5000
vt 0.0300 0.5000
vt 0.0300 0.5000
vt 0.0300 0.5000
vt 0.0300 0.5000
vt 0.0300 0.5000
vt 0.0300 0.5000
vt 0.0300 0.5000
vt 0.0300 0.5000
vt 0.0300 0.5000
vt 0.0300 0.5000
vt 0.0300 0.5000
vt 0.0300 0.5000
vt 0.0300 0.5000
vt 0.0300 0.5000
vt 0.0300 0.5000
vt 0.0300 0.5000
vt 0.0300 0.5000
vt 0.0300 0.5000
vt 0.0300 0.5000
vt 0.0300 0.5000
vt 0.0300 0.5000
vt 0.0300 0.5000
vt 0.0300 0.5000
vt 0.0300 0.5000
vt 0.0300 0.5000
vt 0.0300 0.5000
vt 0.0300 0.5000
vt 0.0300 0.5000
vt 0.0300 0.5000
vt 0.0300 0.5000
vt 0.0300 0.5000
vt 0.0300 0.5000
vt 0.0300 0.5000
vt 0.0300 0.5000
vt 0.0300 0.5000
vt 0.0300 0.5000
vt 0.0300 0.5000
vt 0.0300 0.5000
vt 0.0300 0.5000
vt 0.0300 0.5000
vt 0.0300 0.5000
vt 0.0300 0.5000
vt 0.0300 0.5000
vt 0.0300 0.5000
vt 0.0300 0.5000
vt 0.0300 0.5000
vt 0.0300 0.5000
vt 0.0300 0.5000
vt 0.0300 0.5000
vt 0.0300 0.5000
vt 0.0300 0.5000
vt 0.0300 0.5000
vt 0.0300 0.5000
vt 0.0300 0.5000
vt 0.0300 0.5000
vt 0.0300 0.5000
vt 0.0300 0.5000
vt 0.0300 0.5000
vt 0.0300 0.5000
vt 0.0300 0.5000
vt 0.0300 0.5000
vt 0.0300 0.5000
vt 0.0300 0.5000
vt 0.0300 0.5000
vt 0.0300 0.5000
vt 0.0300 0.5000
vt 0.0300 0.5000
vt 0.0300 0.5000
vt 0.0300 0.5000
vt 0.0300 0.5000
vt 0.0300 0.5000
vt 0.0300 0.5000
vt 0.0300 0.5000
vt 0.0300 0.5000
vt 0.0300 0.5000
vt 0.0300 0.5000
vt 0.0300 0.5000
vt 0.0300 0.5000
vt 0.0300 0.5000
vt 0.0300 0.5000
vt 0.0300 0.5000
vt 0.0300 0.5000
vt 0.0300 0.5000
vt 0.0300 0.5000
vt 0.0300 0.5000
vt 0.0300 0.5000
vt 0.0300 0.5000
vt 0.0300 0.5000
vt 0.0300 0.5000
vt 0.0300 0.5000
vt 0.0300 0.5000
vt 0.0300 0.5000
vt 0.0300 0.5000
vt 0.0300 0.5000
vt 0.0300 0.5000
vt 0.0300 0.5000
vt 0.0300 0.5000
vt 0.0300 0.5000
vt 0.0300 0.5000
vt 0.0300 0.5000
vt 0.0300 0.5000
vt 0.0300 0.5000
vt 0.0300 0.5000
vt 0.0300 0.5000
vt 0.0300 0.5000
vt 0.0300 0.5000
vt 0.0300 0.5000
vt 0.0300 0.5000
vt 0.0300 0.5000
vt 0.0300 0.5000
vt 0.0300 0.5000
vt 0.0300 0.5000
vt 0.0300 0.5000
vt 0.0300 0.5000
vt 0.0300 0.5000
vt 0.0300 0.5000
vt 0.0300 0.5000
vt 0.0300 0.5000
vt 0.0300 0.5000
vt 0.0300 0.5000
vt 0.0300 0.5000
vt 0.0300 0.5000
vt 0.0300 0.5000
vt 0.0300 0.5000
vt 0.0300 0.5000
vt 0.0300 0.5000
vt 0.0300 0.5000
vt 0.0300 0.5000
vt 0.0300 0.5000
vt 0.0300 0.5000
vt 0.0300 0.5000
vt 0.0300 0.5000
vt 0.0300 0.5000
vt 0.0300 0.5000
vt 0.0300 0.5000
vt 0.0300 0.5000
vt 0.0300 0.5000
vt 0.0300 0.5000
vt 0.0300 0.5000
vt 0.0300 0.5000
vt 0.0300 0.5000
vt 0.0300 0.5000
vt 0.0300 0.5000
vt 0.0300 0.5000
vt 0.0300 0.5000
vt 0.0300 0.5000
vt 0.0300 0.5000
vt 0.0300 0.5000
vt 0.0300 0.5000
vt 0.0300 0.5000
vt 0.0300 0.5000
vt 0.0300 0.5000
vt 0.0300 0.5000
vt 0.0300 0.5000
vt 0.0300 0.5000
vt 0.0300 0.5000
vt 0.0300 0.5000
vt 0.0300 0.5000
vt 0.0300 0.5000
vt 0.0300 0.5000
vt 0.0300 0.5000
vt 0.0300 0.5000
vt 0.0300 0.5000
vt 0.0300 0.5000
vt 0.0300 0.5000
vt 0.0300 0.5000
vt 0.0300 0.5000
vt 0.0300 0.5000
vt 0.0300 0.5000
vt 0.0300 0.5000
vt 0.0300 0.5000
vt 0.0300 0.5000
vt 0.0300 0.5000
vt 0.0300 0.5000
vt 0.0300 0.5000
vt 0.0300 0.5000
vt 0.0300 0.5000
vt 0.0300 0.5000
vt 0.0300 0.5000
vt 0.0300 0.5000
vt 0.0300 0.5000
vt 0.0300 0.5000
vt 0.0300 0.5000
vt 0.0300 0.5000
vt 0.0300 0.5000
vt 0.0300 0.5000
vt 0.0300 0.5000
vt 0.0300 0.5000
vt 0.0300 0.5000
vt 0.0300 0.5000
vt 0.0300 0.5000
vt 0.0300 0.5000
vt 0.0300 0.5000
vt 0.0300 0.5000
vt 0.0300 0.5000
vt 0.0300 0.5000
vt 0.0300 0.5000
vt 0.0300 0.5000
vt 0.0300 0.5000
vt 0.0300 0.5000
vt 0.0300 0.5000
vt 0.0300 0.5000
vt 0.0300 0.5000
vt 0.0300 0.5000
vt 0.0300 0.5000
vt 0.0300 0.5000
vt 0.0300 0.5000
vt 0.0300 0.5000
vt 0.0300 0.5000
vt 0.0300 0.5000
vt 0.0300 0.5000
vt 0.0300 0.5000
vt 0.0300 0.5000
vt 0.0300 0.5000
vt 0.0300 0.5000
vt 0.0300 0.5000
vt 0.0300 0.5000
vt 0.0300 0.5000
vt 0.0300 0.5000
vt 0.0300 0.5000
vt 0.0300 0.5000
vt 0.0300 0.5000
vt 0.0300 0.5000
vt 0.0300 0.5000
vt 0.0300 0.5000
vt 0.0300 0.5000
vt 0.0300 0.5000
vt 0.0300 0.5000
vt 0.0300 0.5000
vt 0.0300 0.5000
vt 0.0300 0.5000
vt 0.0300 0.5000
vt 0.0300 0.5000
vt 0.0300 0.5000
vt 0.0300 0.5000
vt 0.0300 0.5000
vt 0.0300 0.5000
vt 0.0300 0.5000
vt 0.0300 0.5000
vt 0.0300 0.5000
vt 0.0300 0.5000
vt 0.0300 0.5000
vt 0.0300 0.5000
vt 0.0300 0.5000
vt 0.0300 0.5000
vt 0.0300 0.5000
vt 0.0300 0.5000
vt 0.0300 0.5000
vt 0.0300 0.5000
vt 0.0300 0.5000
vt 0.0300 0.5000
vt 0.0300 0.5000
vt 0.0300 0.5000
vt 0.0300 0.5000
vt 0.0300 0.5000
vt 0.0300 0.5000
vt 0.0300 0.5000
vt 0.0300 0.5000
vt 0.0300 0.5000
vt 0.0300 0.5000
vt 0.0300 0.5000
vt 0.0300 0.5000
vt 0.0300 0.5000
vt 0.0300 0.5000
vt 0.0300 0.5000
vt 0.0300 0.5000
vt 0.0300 0.5000
vt 0.0300 0.5000
vt 0.0300 0.5000
vt 0.0300 0.5000
vt 0.0300 0.5000
vt 0.0300 0.5000
vt 0.0300 0.5000
vt 0.0300 0.5000
vt 0.0300 0.5000
vt 0.0300 0.5000
vt 0.0300 0.5000
vt 0.0300 0.5000
vt 0.0300 0.5000
vt 0.0300 0.5000
vt 0.0300 0.5000
vt 0.0300 0.5000
vt 0.0300 0.5000
vt 0.0300 0.5000
vt 0.0300 0.5000
vt 0.0300 0.5000
vt 0.0300 0.5000
vt 0.0300 0.5000
vt 0.0300 0.5000
vt 0.0300 0.5000
vt 0.0300 0.5000
vt 0.0300 0.5000
vt 0.0300 0.5000
vt 0.0300 0.5000
vt 0.0300 0.5000
vt 0.0300 0.5000
vt 0.0300 0.5000
vt 0.0300 0.5000
vt 0.0300 0.5000
vt 0.0300 0.5000
vt 0.0300 0.5000
vt 0.0300 0.5000
vt 0.0300 0.5000
vt 0.0300 0.5000
vt 0.0300 0.5000
vt 0.0300 0.5000
vt 0.0300 0.5000
vt 0.0300 0.5000
vt 0.0300 0.5000
vt 0.0300 0.5000
vt 0.0300 0.5000
vt 0.0300 0.5000
vt 0.0300 0.5000
vt 0.0300 0.5000
vt 0.0300 0.5000
vt 0.0300 0.5000
vt 0.0300 0.5000
vt 0.0300 0.5000
vt 0.0300 0.5000
vt 0.0300 0.5000
vt 0.0300 0.5000
vt 0.0300 0.5000
vt 0.0300 0.5000
vt 0.0300 0.5000
vt 0.0300 0.5000
vt 0.0300 0.5000
vt 0.0300 0.5000
vt 0.0300 0.5000
vt 0.0300 0.5000
vt 0.0300 0.5000
vt 0.0300 0.5000
vt 0.0300 0.5000
vt 0.0300 0.5000
vt 0.0300 0.5000
vt 0.0300 0.5000
vt 0.0300 0.5000
vt 0.0300 0.5000
vt 0.0300 0.5000
vt 0.0300 0.5000
vt 0.0300 0.5000
vt 0.0300 0.5000
vt 0.0300 0.5000
vt 0.0300 0.5000
vt 0.0300 0.5000
vt 0.0300 0.5000
vt 0.0300 0.5000
vt 0.0300 0.5000
vt 0.0300 0.5000
vt 0.0300 0.5000
vt 0.0300 0.5000
vt 0.0300 0.5000
vt 0.0300 0.5000
vt 0.0300 0.5000
vt 0.0300 0.5000
vt 0.0300 0.5000
vt 0.0300 0.5000
vt 0.0300 0.5000
vt 0.0300 0.5000
vt 0.0300 0.5000
vt 0.0300 0.5000
vt 0.0300 0.5000
vt 0.0300 0.5000
vt 0.0300 0.5000
vt 0.0300 0.5000
vt 0.0300 0.5000
vt 0.0300 0.5000
vt 0.0300 0.5000
vt 0.0300 0.5000
vt 0.0300 0.5000
vt 0.0300 0.5000
vt 0.0300 0.5000
vt 0.0300 0.5000
vt 0.0300 0.5000
vt 0.0300 0.5000
vt 0.0300 0.5000
vt 0.0300 0.5000
vt 0.0300 0.5000
vt 0.0300 0.5000
vt 0.0300 0.5000
vt 0.0300 0.5000
vt 0.0300 0.5000
vt 0.0300 0.5000
vt 0.0300 0.5000
vt 0.0300 0.5000
vt 0.0300 0.5000
vt 0.0300 0.5000
vt 0.0300 0.5000
vt 0.0300 0.5000
vt 0.0300 0.5000
vt 0.0300 0.5000
vt 0.0300 0.5000
vt 0.0300 0.5000
vt 0.0300 0.5000
vt 0.0300 0.5000
vt 0.0300 0.5000
vt 0.0300 0.5000
vt 0.0300 0.5000
vt 0.0300 0.5000
vt 0.0300 0.5000
vt 0.0300 0.5000
vt 0.0300 0.5000
vt 0.0300 0.5000
vt 0.0300 0.5000
vt 0.0300 0.5000
vt 0.0300 0.5000
vt 0.0300 0.5000
vt 0.0300 0.5000
vt 0.0300 0.5000
vt 0.0300 0.5000
vt 0.0300 0.5000
vt 0.0300 0.5000
vt 0.0300 0.5000
vt 0.0300 0.5000
vt 0.0300 0.5000
vt 0.0300 0.5000
vt 0.0300 0.5000
vt 0.0300 0.5000
vt 0.0300 0.5000
vt 0.0300 0.5000
vt 0.0300 0.5000
vt 0.0300 0.5000
vt 0.0300 0.5000
vt 0.0300 0.5000
vt 0.0300 0.5000
vt 0.0300 0.5000
vt 0.0300 0.5000
vt 0.0300 0.5000
vt 0.0300 0.5000
vt 0.0300 0.5000
vt 0.0300 0.5000
vt 0.0300 0.5000
vt 0.0300 0.5000
vt 0.0300 0.5000
vt 0.0300 0.5000
vt 0.0300 0.5000
vt 0.0300 0.5000
vt 0.0300 0.5000
vt 0.0300 0.5000
vt 0.0300 0.5000
vt 0.0300 0.5000
vt 0.0300 0.5000
vt 0.0300 0.5000
vt 0.0300 0.5000
vt 0.0300 0.5000
vt 0.0300 0.5000
vt 0.0300 0.5000
vt 0.0300 0.5000
vt 0.0300 0.5000
vt 0.0300 0.5000
vt 0.0300 0.5000
vt 0.0300 0.5000
vt 0.0300 0.5000
vt 0.0300 0.5000
vt 0.0300 0.5000
vt 0.0300 0.5000
vt 0.0300 0.5000
vt 0.0300 0.5000
vt 0.0300 0.5000
vt 0.0300 0.5000
vt 0.0300 0.5000
vt 0.0300 0.5000
vt 0.0300 0.5000
vt 0.0300 0.5000
vt 0.0300 0.5000
vt 0.0300 0.5000
vt 0.0300 0.5000
vt 0.0300 0.5000
vt 0.0300 0.5000
vt 0.0300 0.5000
vt 0.0300 0.5000
vt 0.0300 0.5000
vt 0.0300 0.5000
vt 0.0300 0.5000
vt 0.0300 0.5000
vt 0.0300 0.5000
vt 0.0300 0.5000
vt 0.0300 0.5000
vt 0.0300 0.5000
vt 0.0300 0.5000
vt 0.0300 0.5000
vt 0.0300 0.5000
vt 0.0300 0.5000
vt 0.0300 0.5000
vt 0.0300 0.5000
vt 0.0300 0.5000
vt 0.0300 0.5000
vt 0.0300 0.5000
vt 0.0300 0.5000
vt 0.0300 0.5000
vt 0.0300 0.5000
vt 0.0300 0.5000
vt 0.0300 0.5000
vt 0.0300 0.5000
vt 0.0300 0.5000
vt 0.0300 0.5000
vt 0.0300 0.5000
vt 0.0300 0.5000
vt 0.0300 0.5000
vt 0.0300 0.5000
vt 0.0300 0.5000
vt 0.0300 0.5000
vt 0.0300 0.5000
vt 0.0300 0.5000
vt 0.0300 0.5000
vt 0.0300 0.5000
vt 0.0300 0.5000
vt 0.0300 0.5000
vt 0.0300 0.5000
vt 0.0300 0.5000
vt 0.0300 0.5000
vt 0.0300 0.5000
vt 0.0300 0.5000
vt 0.0300 0.5000
vt 0.0300 0.5000
vt 0.0300 0.5000
vt 0.0300 0.5000
vt 0.0300 0.5000
vt 0.0300 0.5000
vt 0.0300 0.5000
vt 0.0300 0.5000
vt 0.0300 0.5000
vt 0.0300 0.5000
vt 0.0300 0.5000
vt 0.0300 0.5000
vt 0.0300 0.5000
vt 0.0300 0.5000
vt 0.0300 0.5000
vt 0.0300 0.5000
vt 0.0300 0.5000
vt 0.0300 0.5000
vt 0.0300 0.5000
vt 0.0300 0.5000
vt 0.0300 0.5000
vt 0.0300 0.5000
vt 0.0300 0.5000
vt 0.0300 0.5000
vt 0.0300 0.5000
vt 0.0300 0.5000
vt 0.0300 0.5000
vt 0.0300 0.5000
vt 0.0300 0.5000
vt 0.0300 0.5000
vt 0.0300 0.5000
vt 0.0300 0.5000
vt 0.0300 0.5000
vt 0.0300 0.5000
vt 0.0300 0.5000
vt 0.0300 0.5000
vt 0.0300 0.5000
vt 0.0300 0.5000
vt 0.0300 0.5000
vt 0.0300 0.5000
vt 0.0300 0.5000
vt 0.0300 0.5000
vt 0.0300 0.5000
vt 0.0300 0.5000
vt 0.0300 0.5000
vt 0.0300 0.5000
vt 0.0300 0.5000
vt 0.0300 0.5000
vt 0.0300 0.5000
vt 0.0300 0.5000
vt 0.0300 0.5000
vt 0.0300 0.5000
vt 0.0300 0.5000
vt 0.0300 0.5000
vt 0.0300 0.5000
vt 0.0300 0.5000
vn 0.6925 -0.1780 0.6991
vn 0.9973 -0.0735 0.0076
vn 0.6920 -0.1488 0.7064
vn -0.7166 -0.0906 0.6916
vn -0.0169 -0.1754 0.9844
vn -0.7169 -0.0806 0.6924
vn 0.6915 -0.1867 0.6978
vn -0.0169 -0.1754 0.9844
vn -0.0172 -0.1890 0.9818
vn 0.9961 -0.0877 0.0057
vn 0.6915 -0.1867 0.6978
vn 0.6901 -0.2031 0.6947
vn -0.6953 0.1679 -0.6989
vn -0.9987 0.0515 -0.0032
vn -0.6964 0.1506 -0.7017
vn 0.7218 0.1043 -0.6842
vn 0.0181 0.1925 -0.9811
vn 0.7181 0.0780 -0.6916
vn -0.9984 0.0568 -0.0055
vn -0.6934 0.1817 -0.6972
vn -0.6926 0.1912 -0.6955
vn 0.7218 0.1043 -0.6842
vn 0.9959 -0.0900 0.0016
vn 0.9967 -0.0806 0.0056
vn -0.6926 0.1912 -0.6955
vn 0.0181 0.1925 -0.9811
vn 0.0187 0.2021 -0.9792
vn -0.6928 0.2170 -0.6877
vn -0.9975 0.0711 -0.0000
vn -0.6926 0.1912 -0.6955
vn -0.7140 -0.1063 0.6920
vn -0.0201 -0.2379 0.9711
vn -0.7177 -0.1138 0.6870
vn -0.3395 0.1602 -0.9269
vn -0.9033 0.0008 -0.4290
vn -0.3257 0.0945 -0.9407
vn -0.9059 0.0915 -0.4134
vn -0.9417 -0.0428 0.3337
vn -0.9033 0.0008 -0.4290
vn -0.4294 -0.1678 0.8874
vn -0.9417 -0.0428 0.3337
vn -0.9411 -0.0590 0.3330
vn 0.4327 0.1336 -0.8916
vn 0.9415 0.0233 -0.3362
vn 0.9404 0.0238 -0.3392
vn 0.4230 0.1409 -0.8951
vn -0.3395 0.1602 -0.9269
vn 0.4327 0.1336 -0.8916
vn -0.9059 0.0915 -0.4134
vn -0.3395 0.1602 -0.9269
vn -0.3421 0.1650 -0.9251
vn -0.9058 0.0809 -0.4160
vn -0.9411 -0.0590 0.3330
vn -0.9059 0.0915 -0.4134
vn 0.9023 -0.1201 0.4141
vn 0.3460 -0.1947 0.9178
vn 0.3358 -0.2026 0.9199
vn -0.4267 -0.2272 0.8754
vn 0.3323 -0.2178 0.9177
vn -0.4274 -0.2024 0.8811
vn -0.9027 0.0290 -0.4294
vn -0.9399 -0.1149 0.3217
vn -0.9072 0.0557 -0.4169
vn -0.4244 -0.2492 0.8705
vn 0.3323 -0.2178 0.9177
vn -0.4267 -0.2272 0.8754
vn 0.4231 0.1643 -0.8911
vn 0.9410 0.0520 -0.3345
vn 0.9407 0.0501 -0.3355
vn 0.9047 -0.1173 0.4097
vn 0.3323 -0.2178 0.9177
vn 0.3392 -0.2399 0.9096
vn 0.4263 0.1609 -0.8901
vn -0.3373 0.1536 -0.9288
vn 0.4231 0.1643 -0.8911
vn -0.4244 -0.2492 0.8705
vn -0.9399 -0.1149 0.3217
vn -0.9388 -0.1365 0.3162
vn -0.6987 -0.1000 0.7084
vn -0.0014 -0.2367 0.9716
vn -0.7043 -0.1612 0.6914
vn -0.7105 0.1180 -0.6937
vn -1.0000 -0.0054 -0.0075
vn -0.6939 0.1393 -0.7065
vn 0.7096 -0.1451 0.6895
vn -0.0014 -0.2367 0.9716
vn 0.0095 -0.1632 0.9866
vn 0.6989 0.0830 -0.7104
vn -0.0087 0.1461 -0.9892
vn 0.6953 0.0798 -0.7142
vn 0.6989 0.0830 -0.7104
vn 0.9988 -0.0444 -0.0202
vn 0.9994 -0.0329 -0.0135
vn -0.6987 -0.1000 0.7084
vn -1.0000 -0.0054 -0.0075
vn -0.9999 0.0026 0.0108
vn 0.7108 -0.1400 0.6894
vn 0.9994 -0.0329 -0.0135
vn 0.7096 -0.1451 0.6895
vn -0.7157 0.1071 -0.6901
vn -0.9999 0.0026 0.0108
vn -0.7105 0.1180 -0.6937
vn 0.7108 -0.1400 0.6894
vn 0.0095 -0.1632 0.9866
vn 0.0077 -0.1730 0.9849
vn -0.7006 -0.1611 0.6951
vn 0.0039 -0.1951 0.9808
vn -0.7005 -0.1373 0.7003
vn 0.7139 -0.1546 0.6829
vn 0.9999 -0.0123 -0.0098
vn 0.7109 -0.1395 0.6893
vn 0.7003 0.1024 -0.7065
vn -0.0128 0.1526 -0.9882
vn 0.6994 0.1050 -0.7070
vn -0.7181 0.0951 -0.6894
vn -0.0128 0.1526 -0.9882
vn -0.0089 0.1426 -0.9897
vn 0.7139 -0.1546 0.6829
vn 0.0039 -0.1951 0.9808
vn 0.0106 -0.2209 0.9752
vn 0.7003 0.1024 -0.7065
vn 0.9999 -0.0123 -0.0098
vn 0.9997 -0.0195 -0.0134
vn -0.6970 -0.1779 0.6947
vn -0.9992 -0.0387 0.0044
vn -0.9849 -0.1715 -0.0222
vn -0.7108 0.0800 -0.6989
vn -0.9849 -0.1715 -0.0222
vn -0.7181 0.0951 -0.6894
vn 0.9773 0.0364 -0.2088
vn 0.9168 -0.1751 0.3589
vn 0.9729 -0.2294 0.0281
vn 0.8966 -0.1265 -0.4244
vn -0.6922 -0.0735 -0.7179
vn -0.9849 -0.1715 -0.0222
vn -0.7108 0.0800 -0.6989
vn 0.5395 -0.2061 0.8164
vn 0.9782 -0.1541 0.1390
vn 0.5361 -0.3007 0.7888
vn -0.5314 0.1817 -0.8274
vn 0.2512 0.1940 -0.9483
vn 0.2215 0.1752 -0.9593
vn 0.2092 0.1947 -0.9583
vn 0.8421 0.0856 -0.5325
vn 0.8427 0.1126 -0.5265
vn -0.2151 -0.2580 0.9419
vn 0.5324 -0.2133 0.8192
vn -0.2173 -0.2345 0.9475
vn 0.5392 -0.2317 0.8097
vn 0.9752 -0.0682 0.2106
vn 0.5324 -0.2133 0.8192
vn -0.8415 -0.1665 0.5140
vn -0.9760 0.0038 -0.2179
vn -0.9742 -0.0173 -0.2250
vn -0.5368 0.1389 -0.8322
vn 0.2092 0.1947 -0.9583
vn 0.2155 0.1885 -0.9581
vn 0.8423 0.0991 -0.5298
vn 0.2155 0.1885 -0.9581
vn 0.8427 0.1126 -0.5265
vn -0.8401 -0.1920 0.5073
vn -0.2151 -0.2580 0.9419
vn -0.8415 -0.1665 0.5140
vn 0.5392 -0.2317 0.8097
vn -0.2151 -0.2580 0.9419
vn -0.2133 -0.2794 0.9362
vn 0.8423 0.0991 -0.5298
vn 0.9752 -0.0682 0.2106
vn 0.9765 -0.0735 0.2028
vn 0.6597 0.1839 -0.7287
vn 0.9773 0.0364 -0.2088
vn 0.8966 -0.1265 -0.4244
vn 0.5789 -0.0230 -0.8151
vn 0.7029 0.2301 -0.6731
vn 0.9987 0.0221 -0.0460
vn 0.9773 0.0364 -0.2088
vn 0.6597 0.1839 -0.7287
vn 0.6911 -0.2053 0.6930
vn 0.9168 -0.1751 0.3589
vn 0.9773 0.0364 -0.2088
vn 0.9987 0.0221 -0.0460
vn -0.4368 -0.2558 0.8624
vn -0.3461 -0.2765 0.8965
vn 0.2245 -0.5659 0.7933
vn -0.2582 -0.2926 0.9207
vn -0.2582 -0.2926 0.9207
vn -0.6758 -0.0634 0.7343
vn -0.8341 0.0115 0.5514
vn -0.4368 -0.2558 0.8624
vn -0.4368 -0.2558 0.8624
vn -0.8341 0.0115 0.5514
vn -0.8892 -0.0175 0.4572
vn -0.3461 -0.2765 0.8965
vn -0.0638 -0.4065 -0.9114
vn 0.2835 -0.7508 -0.5966
vn 0.3207 -0.7601 -0.5652
vn 0.0538 -0.4843 -0.8732
vn 0.0538 -0.4843 -0.8732
vn 0.3207 -0.7601 -0.5652
vn 0.6796 -0.4227 -0.5996
vn 0.1522 -0.1527 -0.9765
vn 0.0538 -0.4843 -0.8732
vn 0.1522 -0.1527 -0.9765
vn -0.6654 0.0346 -0.7457
vn -0.0638 -0.4065 -0.9114
vn -0.9770 0.2131 -0.0070
vn -0.9758 0.2149 0.0408
vn -0.6581 0.3953 -0.6408
vn -0.8594 0.2679 -0.4355
vn -0.9801 0.1607 -0.1166
vn -0.9770 0.2131 -0.0070
vn -0.8594 0.2679 -0.4355
vn -0.6654 0.0346 -0.7457
vn -0.8341 0.0115 0.5514
vn -0.9770 0.2131 -0.0070
vn -0.9801 0.1607 -0.1166
vn -0.8892 -0.0175 0.4572
vn -0.6758 -0.0634 0.7343
vn -0.9758 0.2149 0.0408
vn -0.9770 0.2131 -0.0070
vn -0.8341 0.0115 0.5514
vn -0.8594 0.2679 -0.4355
vn -0.6581 0.3953 -0.6408
vn -0.3646 0.3481 -0.8637
vn -0.6282 0.2219 -0.7458
vn -0.6282 0.2219 -0.7458
vn -0.3646 0.3481 -0.8637
vn -0.1752 0.1547 -0.9723
vn -0.4635 0.0078 -0.8861
vn -0.4635 0.0078 -0.8861
vn -0.6654 0.0346 -0.7457
vn -0.8594 0.2679 -0.4355
vn -0.6282 0.2219 -0.7458
vn -0.7133 -0.0434 0.6995
vn -0.7169 -0.0806 0.6924
vn -0.0169 -0.1754 0.9844
vn -0.0153 -0.1375 0.9904
vn 0.6920 -0.1488 0.7064
vn -0.0153 -0.1375 0.9904
vn -0.0169 -0.1754 0.9844
vn 0.6925 -0.1780 0.6991
vn 0.6971 -0.0567 0.7147
vn -0.0057 -0.0226 0.9997
vn -0.0153 -0.1375 0.9904
vn 0.6920 -0.1488 0.7064
vn -0.7004 0.0706 0.7102
vn -0.7133 -0.0434 0.6995
vn -0.0153 -0.1375 0.9904
vn -0.0057 -0.0226 0.9997
vn 0.5016 -0.8604 -0.0903
vn 0.8434 -0.5261 0.1086
vn 0.6796 -0.4227 -0.5996
vn 0.3207 -0.7601 -0.5652
vn 0.3207 -0.7601 -0.5652
vn 0.2835 -0.7508 -0.5966
vn 0.3519 -0.9289 0.1153
vn 0.5016 -0.8604 -0.0903
vn 0.3519 -0.9289 0.1153
vn 0.2245 -0.5659 0.7933
vn 0.8434 -0.5261 0.1086
vn 0.5016 -0.8604 -0.0903
vn -0.9969 0.0785 0.0012
vn -0.9986 0.0526 -0.0060
vn -0.7169 -0.0806 0.6924
vn -0.7133 -0.0434 0.6995
vn -0.9986 0.0526 -0.0060
vn -0.9969 0.0785 0.0012
vn -0.6979 0.1552 -0.6991
vn -0.9865 0.1632 0.0109
vn -0.9969 0.0785 0.0012
vn -0.7133 -0.0434 0.6995
vn -0.7004 0.0706 0.7102
vn -0.6924 0.2079 -0.6910
vn -0.6979 0.1552 -0.6991
vn -0.9969 0.0785 0.0012
vn -0.9865 0.1632 0.0109
vn 0.0153 0.1717 -0.9850
vn 0.0136 0.1467 -0.9891
vn -0.6979 0.1552 -0.6991
vn -0.6924 0.2079 -0.6910
vn 0.7186 0.0810 -0.6907
vn 0.7166 0.0517 -0.6956
vn 0.0136 0.1467 -0.9891
vn 0.0153 0.1717 -0.9850
vn 0.7186 0.0810 -0.6907
vn 0.9998 -0.0168 0.0141
vn 0.9973 -0.0735 0.0076
vn 0.7166 0.0517 -0.6956
vn 0.9998 -0.0168 0.0141
vn 0.6971 -0.0567 0.7147
vn 0.6920 -0.1488 0.7064
vn 0.9973 -0.0735 0.0076
vn -0.0085 -0.3416 0.9398
vn 0.0893 -0.6162 0.7825
vn 0.2502 -0.5481 0.7981
vn 0.3799 -0.3652 0.8499
vn -0.0085 -0.3416 0.9398
vn 0.3799 -0.3652 0.8499
vn 0.6911 -0.2053 0.6930
vn -0.0105 -0.2600 0.9656
vn -0.6758 -0.0634 0.7343
vn -0.2582 -0.2926 0.9207
vn -0.0085 -0.3416 0.9398
vn -0.0105 -0.2600 0.9656
vn -0.2582 -0.2926 0.9207
vn 0.2245 -0.5659 0.7933
vn 0.0893 -0.6162 0.7825
vn -0.0085 -0.3416 0.9398
vn -0.6344 0.3551 0.6867
vn -0.7004 0.0706 0.7102
vn -0.0057 -0.0226 0.9997
vn 0.0266 0.2644 0.9640
vn 0.6928 0.2143 0.6886
vn 0.0266 0.2644 0.9640
vn -0.0057 -0.0226 0.9997
vn 0.6971 -0.0567 0.7147
vn 0.5726 0.6329 0.5212
vn 0.0876 0.7715 0.6302
vn 0.0266 0.2644 0.9640
vn 0.6928 0.2143 0.6886
vn -0.4170 0.7444 0.5215
vn -0.6344 0.3551 0.6867
vn 0.0266 0.2644 0.9640
vn 0.0876 0.7715 0.6302
vn 0.0694 0.3761 -0.9240
vn 0.7029 0.2301 -0.6731
vn 0.6597 0.1839 -0.7287
vn 0.1373 0.3112 -0.9404
vn 0.1373 0.3112 -0.9404
vn 0.6597 0.1839 -0.7287
vn 0.5789 -0.0230 -0.8151
vn 0.1527 0.0703 -0.9858
vn -0.3646 0.3481 -0.8637
vn 0.1373 0.3112 -0.9404
vn 0.1527 0.0703 -0.9858
vn -0.1752 0.1547 -0.9723
vn -0.6581 0.3953 -0.6408
vn 0.0694 0.3761 -0.9240
vn 0.1373 0.3112 -0.9404
vn -0.3646 0.3481 -0.8637
vn -0.6299 0.4265 -0.6491
vn -0.6924 0.2079 -0.6910
vn -0.9865 0.1632 0.0109
vn -0.9099 0.4144 0.0189
vn -0.6344 0.3551 0.6867
vn -0.9099 0.4144 0.0189
vn -0.9865 0.1632 0.0109
vn -0.7004 0.0706 0.7102
vn -0.4170 0.7444 0.5215
vn -0.5121 0.8586 0.0249
vn -0.9099 0.4144 0.0189
vn -0.6344 0.3551 0.6867
vn -0.4117 0.7784 -0.4740
vn -0.6299 0.4265 -0.6491
vn -0.9099 0.4144 0.0189
vn -0.5121 0.8586 0.0249
vn 0.7048 0.2845 -0.6498
vn 0.7186 0.0810 -0.6907
vn 0.0153 0.1717 -0.9850
vn 0.0384 0.3631 -0.9309
vn -0.6299 0.4265 -0.6491
vn 0.0384 0.3631 -0.9309
vn 0.0153 0.1717 -0.9850
vn -0.6924 0.2079 -0.6910
vn -0.4117 0.7784 -0.4740
vn 0.0923 0.8075 -0.5826
vn 0.0384 0.3631 -0.9309
vn -0.6299 0.4265 -0.6491
vn 0.5756 0.6666 -0.4736
vn 0.7048 0.2845 -0.6498
vn 0.0384 0.3631 -0.9309
vn 0.0923 0.8075 -0.5826
vn 0.6928 0.2143 0.6886
vn 0.6971 -0.0567 0.7147
vn 0.9998 -0.0168 0.0141
vn 0.9768 0.2134 0.0194
vn 0.7048 0.2845 -0.6498
vn 0.9768 0.2134 0.0194
vn 0.9998 -0.0168 0.0141
vn 0.7186 0.0810 -0.6907
vn 0.5756 0.6666 -0.4736
vn 0.6928 0.7207 0.0247
vn 0.9768 0.2134 0.0194
vn 0.7048 0.2845 -0.6498
vn 0.5726 0.6329 0.5212
vn 0.6928 0.2143 0.6886
vn 0.9768 0.2134 0.0194
vn 0.6928 0.7207 0.0247
vn 0.0235 -0.9718 -0.2347
vn -0.1388 -0.8412 0.5226
vn -0.6919 -0.6539 0.3060
vn -0.6891 -0.6517 -0.3169
vn 0.0235 -0.9718 -0.2347
vn -0.6891 -0.6517 -0.3169
vn -0.4380 -0.3767 -0.8163
vn 0.1712 -0.5029 -0.8472
vn 0.7176 -0.4100 -0.5629
vn 0.7215 -0.6923 -0.0077
vn 0.0235 -0.9718 -0.2347
vn 0.1712 -0.5029 -0.8472
vn 0.4637 -0.6872 0.5593
vn -0.1388 -0.8412 0.5226
vn 0.0235 -0.9718 -0.2347
vn 0.7215 -0.6923 -0.0077
vn 0.0182 -0.9831 -0.1820
vn -0.7166 -0.6870 -0.1201
vn -0.5937 -0.4325 -0.6786
vn 0.0055 -0.5423 -0.8402
vn 0.0182 -0.9831 -0.1820
vn 0.0055 -0.5423 -0.8402
vn 0.5996 -0.4097 -0.6875
vn 0.7398 -0.6603 -0.1294
vn 0.6111 -0.6264 0.4839
vn 0.0195 -0.8069 0.5904
vn 0.0182 -0.9831 -0.1820
vn 0.7398 -0.6603 -0.1294
vn -0.5822 -0.6487 0.4901
vn -0.7166 -0.6870 -0.1201
vn 0.0182 -0.9831 -0.1820
vn 0.0195 -0.8069 0.5904
vn 0.0217 -0.9760 -0.2169
vn -0.2307 -0.5288 -0.8168
vn 0.3696 -0.3564 -0.8581
vn 0.6974 -0.6039 -0.3859
vn 0.0217 -0.9760 -0.2169
vn 0.6974 -0.6039 -0.3859
vn 0.7719 -0.5905 0.2354
vn 0.2605 -0.8145 0.5183
vn -0.3461 -0.7015 0.6230
vn -0.6676 -0.7394 0.0874
vn 0.0217 -0.9760 -0.2169
vn 0.2605 -0.8145 0.5183
vn -0.7485 -0.4674 -0.4705
vn -0.2307 -0.5288 -0.8168
vn 0.0217 -0.9760 -0.2169
vn -0.6676 -0.7394 0.0874
vn 0.1149 0.9930 0.0265
vn 0.0876 0.7715 0.6302
vn 0.5726 0.6329 0.5212
vn 0.6928 0.7207 0.0247
vn 0.1149 0.9930 0.0265
vn 0.6928 0.7207 0.0247
vn 0.5756 0.6666 -0.4736
vn 0.0923 0.8075 -0.5826
vn -0.4117 0.7784 -0.4740
vn -0.5121 0.8586 0.0249
vn 0.1149 0.9930 0.0265
vn 0.0923 0.8075 -0.5826
vn -0.4170 0.7444 0.5215
vn 0.0876 0.7715 0.6302
vn 0.1149 0.9930 0.0265
vn -0.5121 0.8586 0.0249
vn -0.2121 0.5715 0.7928
vn -0.2121 0.5715 0.7928
vn -0.2121 0.5715 0.7928
vn -0.2121 0.5715 0.7928
vn 0.0936 0.5797 0.8094
vn 0.0936 0.5797 0.8094
vn 0.0936 0.5797 0.8094
vn 0.0936 0.5797 0.8094
vn 0.1302 0.8223 0.5540
vn 0.1302 0.8223 0.5540
vn 0.1302 0.8223 0.5540
vn 0.1302 0.8223 0.5540
vn -0.2057 0.8035 0.5586
vn -0.2057 0.8035 0.5586
vn -0.2057 0.8035 0.5586
vn -0.2057 0.8035 0.5586
vn -0.7536 0.6510 0.0914
vn -0.7536 0.6510 0.0914
vn -0.7536 0.6510 0.0914
vn -0.7536 0.6510 0.0914
vn -0.6523 0.6559 0.3800
vn -0.6523 0.6559 0.3800
vn -0.6523 0.6559 0.3800
vn -0.6523 0.6559 0.3800
vn -0.3971 0.8616 0.3160
vn -0.3971 0.8616 0.3160
vn -0.3971 0.8616 0.3160
vn -0.3971 0.8616 0.3160
vn -0.5053 0.8629 0.0088
vn -0.5053 0.8629 0.0088
vn -0.5053 0.8629 0.0088
vn -0.5053 0.8629 0.0088
vn 0.7060 -0.4281 0.5641
vn 0.8747 -0.4811 0.0582
vn 0.9729 -0.2294 0.0281
vn 0.9168 -0.1751 0.3589
vn 0.3799 -0.3652 0.8499
vn 0.7060 -0.4281 0.5641
vn 0.9168 -0.1751 0.3589
vn 0.6911 -0.2053 0.6930
vn 0.2502 -0.5481 0.7981
vn 0.4724 -0.7209 0.5071
vn 0.7060 -0.4281 0.5641
vn 0.3799 -0.3652 0.8499
vn 0.4724 -0.7209 0.5071
vn 0.6802 -0.7306 0.0592
vn 0.8747 -0.4811 0.0582
vn 0.7060 -0.4281 0.5641
vn 0.0220 -0.2517 -0.9676
vn -0.4635 0.0078 -0.8861
vn -0.1752 0.1547 -0.9723
vn 0.1527 0.0703 -0.9858
vn 0.4239 -0.3818 -0.8213
vn 0.0220 -0.2517 -0.9676
vn 0.1527 0.0703 -0.9858
vn 0.5789 -0.0230 -0.8151
vn 0.2835 -0.7508 -0.5966
vn -0.0638 -0.4065 -0.9114
vn 0.0220 -0.2517 -0.9676
vn 0.4239 -0.3818 -0.8213
vn -0.0638 -0.4065 -0.9114
vn -0.6654 0.0346 -0.7457
vn -0.4635 0.0078 -0.8861
vn 0.0220 -0.2517 -0.9676
vn 0.7444 -0.4500 -0.4933
vn 0.4239 -0.3818 -0.8213
vn 0.5789 -0.0230 -0.8151
vn 0.8966 -0.1265 -0.4244
vn 0.8747 -0.4811 0.0582
vn 0.7444 -0.4500 -0.4933
vn 0.8966 -0.1265 -0.4244
vn 0.9729 -0.2294 0.0281
vn 0.6802 -0.7306 0.0592
vn 0.5051 -0.8132 -0.2890
vn 0.7444 -0.4500 -0.4933
vn 0.8747 -0.4811 0.0582
vn 0.5051 -0.8132 -0.2890
vn 0.2835 -0.7508 -0.5966
vn 0.4239 -0.3818 -0.8213
vn 0.7444 -0.4500 -0.4933
vn 0.3000 -0.9164 0.2651
vn 0.5051 -0.8132 -0.2890
vn 0.6802 -0.7306 0.0592
vn 0.4724 -0.7209 0.5071
vn 0.0893 -0.6162 0.7825
vn 0.3000 -0.9164 0.2651
vn 0.4724 -0.7209 0.5071
vn 0.2502 -0.5481 0.7981
vn 0.2245 -0.5659 0.7933
vn 0.3519 -0.9289 0.1153
vn 0.3000 -0.9164 0.2651
vn 0.0893 -0.6162 0.7825
vn 0.2835 -0.7508 -0.5966
vn 0.5051 -0.8132 -0.2890
vn 0.3000 -0.9164 0.2651
vn 0.3519 -0.9289 0.1153
vn 0.9973 -0.0735 0.0076
vn 0.6925 -0.1780 0.6991
vn 0.6915 -0.1867 0.6978
vn 0.9961 -0.0877 0.0057
vn 0.9973 -0.0735 0.0076
vn 0.9961 -0.0877 0.0057
vn 0.7169 0.0540 -0.6951
vn 0.7166 0.0517 -0.6956
vn 0.0136 0.1467 -0.9891
vn 0.7166 0.0517 -0.6956
vn 0.7169 0.0540 -0.6951
vn 0.0153 0.1536 -0.9880
vn 0.0136 0.1467 -0.9891
vn 0.0153 0.1536 -0.9880
vn -0.6964 0.1506 -0.7017
vn -0.6979 0.1552 -0.6991
vn -0.9986 0.0526 -0.0060
vn -0.6979 0.1552 -0.6991
vn -0.6964 0.1506 -0.7017
vn -0.9987 0.0515 -0.0032
vn -0.9986 0.0526 -0.0060
vn -0.9987 0.0515 -0.0032
vn -0.7166 -0.0906 0.6916
vn -0.7169 -0.0806 0.6924
vn 0.7169 0.0540 -0.6951
vn 0.7182 0.0668 -0.6927
vn 0.0167 0.1733 -0.9847
vn 0.0153 0.1536 -0.9880
vn 0.6915 -0.1867 0.6978
vn 0.6925 -0.1780 0.6991
vn -0.0169 -0.1754 0.9844
vn -0.7166 -0.0906 0.6916
vn -0.0172 -0.1890 0.9818
vn -0.0169 -0.1754 0.9844
vn 0.7182 0.0668 -0.6927
vn 0.7169 0.0540 -0.6951
vn 0.9961 -0.0877 0.0057
vn -0.6964 0.1506 -0.7017
vn 0.0153 0.1536 -0.9880
vn 0.0167 0.1733 -0.9847
vn -0.6953 0.1679 -0.6989
vn -0.0172 -0.1890 0.9818
vn -0.7166 -0.0906 0.6916
vn -0.7172 -0.1024 0.6893
vn -0.0184 -0.2072 0.9781
vn -0.9987 0.0515 -0.0032
vn -0.7172 -0.1024 0.6893
vn -0.7166 -0.0906 0.6916
vn -0.0172 -0.1890 0.9818
vn -0.0184 -0.2072 0.9781
vn 0.6901 -0.2031 0.6947
vn 0.6915 -0.1867 0.6978
vn 0.7182 0.0668 -0.6927
vn 0.9961 -0.0877 0.0057
vn 0.9959 -0.0900 0.0016
vn 0.7181 0.0780 -0.6916
vn 0.9961 -0.0877 0.0057
vn 0.6901 -0.2031 0.6947
vn 0.6899 -0.2162 0.6909
vn 0.9959 -0.0900 0.0016
vn 0.0167 0.1733 -0.9847
vn 0.0181 0.1925 -0.9811
vn -0.6934 0.1817 -0.6972
vn -0.6953 0.1679 -0.6989
vn 0.0167 0.1733 -0.9847
vn 0.7182 0.0668 -0.6927
vn 0.7181 0.0780 -0.6916
vn 0.0181 0.1925 -0.9811
vn -0.9987 0.0515 -0.0032
vn -0.9984 0.0568 -0.0055
vn -0.7186 -0.1123 0.6863
vn -0.7172 -0.1024 0.6893
vn -0.6953 0.1679 -0.6989
vn -0.6934 0.1817 -0.6972
vn -0.9984 0.0568 -0.0055
vn -0.9987 0.0515 -0.0032
vn 0.6901 -0.2031 0.6947
vn -0.0184 -0.2072 0.9781
vn -0.0198 -0.2247 0.9742
vn 0.6899 -0.2162 0.6909
vn -0.7172 -0.1024 0.6893
vn -0.7186 -0.1123 0.6863
vn -0.0198 -0.2247 0.9742
vn -0.0184 -0.2072 0.9781
vn 0.9959 -0.0900 0.0016
vn 0.6899 -0.2162 0.6909
vn 0.6886 -0.2207 0.6908
vn 0.9967 -0.0806 0.0056
vn 0.7218 0.1043 -0.6842
vn 0.7181 0.0780 -0.6916
vn 0.9959 -0.0900 0.0016
vn -0.6926 0.1912 -0.6955
vn -0.6934 0.1817 -0.6972
vn 0.0181 0.1925 -0.9811
vn -0.9984 0.0568 -0.0055
vn -0.9975 0.0711 -0.0000
vn -0.7177 -0.1138 0.6870
vn -0.7186 -0.1123 0.6863
vn 0.7218 0.1043 -0.6842
vn 0.0187 0.2021 -0.9792
vn 0.0181 0.1925 -0.9811
vn -0.6926 0.1912 -0.6955
vn -0.9975 0.0711 -0.0000
vn -0.9984 0.0568 -0.0055
vn -0.0198 -0.2247 0.9742
vn -0.7186 -0.1123 0.6863
vn -0.7177 -0.1138 0.6870
vn -0.0201 -0.2379 0.9711
vn -0.0198 -0.2247 0.9742
vn -0.0201 -0.2379 0.9711
vn 0.6886 -0.2207 0.6908
vn 0.6899 -0.2162 0.6909
vn 0.6886 -0.2207 0.6908
vn 0.6864 -0.2202 0.6931
vn 0.9984 -0.0544 0.0128
vn 0.9967 -0.0806 0.0056
vn 0.9967 -0.0806 0.0056
vn 0.9984 -0.0544 0.0128
vn 0.7258 0.1580 -0.6695
vn 0.7218 0.1043 -0.6842
vn 0.7218 0.1043 -0.6842
vn 0.7258 0.1580 -0.6695
vn 0.0270 0.2938 -0.9555
vn 0.0221 0.2320 -0.9725
vn -0.6928 0.2170 -0.6877
vn 0.0221 0.2320 -0.9725
vn 0.0270 0.2938 -0.9555
vn -0.6876 0.2747 -0.6722
vn -0.6926 0.1912 -0.6955
vn 0.0187 0.2021 -0.9792
vn 0.0221 0.2320 -0.9725
vn -0.6928 0.2170 -0.6877
vn -0.9975 0.0711 -0.0000
vn -0.6928 0.2170 -0.6877
vn -0.6876 0.2747 -0.6722
vn -0.9941 0.1079 0.0110
vn 0.0221 0.2320 -0.9725
vn 0.0187 0.2021 -0.9792
vn 0.7218 0.1043 -0.6842
vn -0.7177 -0.1138 0.6870
vn -0.9975 0.0711 -0.0000
vn -0.9941 0.1079 0.0110
vn -0.7140 -0.1063 0.6920
vn 0.6873 -0.2139 0.6942
vn 0.6911 -0.2053 0.6930
vn 0.9987 0.0221 -0.0460
vn 0.9998 -0.0214 0.0062
vn 0.6864 -0.2202 0.6931
vn 0.6886 -0.2207 0.6908
vn -0.0201 -0.2379 0.9711
vn 0.7226 0.2078 -0.6593
vn 0.9998 -0.0214 0.0062
vn 0.9987 0.0221 -0.0460
vn 0.7029 0.2301 -0.6731
vn 0.7258 0.1580 -0.6695
vn 0.9984 -0.0544 0.0128
vn 0.9998 -0.0214 0.0062
vn 0.7226 0.2078 -0.6593
vn 0.6864 -0.2202 0.6931
vn 0.6873 -0.2139 0.6942
vn 0.9998 -0.0214 0.0062
vn 0.9984 -0.0544 0.0128
vn 0.0398 0.3540 -0.9344
vn 0.7226 0.2078 -0.6593
vn 0.7029 0.2301 -0.6731
vn 0.0694 0.3761 -0.9240
vn -0.6741 0.3440 -0.6537
vn 0.0398 0.3540 -0.9344
vn 0.0694 0.3761 -0.9240
vn -0.6581 0.3953 -0.6408
vn -0.6876 0.2747 -0.6722
vn 0.0270 0.2938 -0.9555
vn 0.0398 0.3540 -0.9344
vn -0.6741 0.3440 -0.6537
vn 0.0270 0.2938 -0.9555
vn 0.7258 0.1580 -0.6695
vn 0.7226 0.2078 -0.6593
vn 0.0398 0.3540 -0.9344
vn -0.6741 0.3440 -0.6537
vn -0.6581 0.3953 -0.6408
vn -0.9758 0.2149 0.0408
vn -0.9865 0.1618 0.0265
vn -0.7037 -0.0851 0.7054
vn -0.9865 0.1618 0.0265
vn -0.9758 0.2149 0.0408
vn -0.6758 -0.0634 0.7343
vn -0.9941 0.1079 0.0110
vn -0.9865 0.1618 0.0265
vn -0.7037 -0.0851 0.7054
vn -0.7140 -0.1063 0.6920
vn -0.6876 0.2747 -0.6722
vn -0.6741 0.3440 -0.6537
vn -0.9865 0.1618 0.0265
vn -0.9941 0.1079 0.0110
vn -0.7037 -0.0851 0.7054
vn -0.6758 -0.0634 0.7343
vn -0.0105 -0.2600 0.9656
vn -0.0153 -0.2476 0.9688
vn 0.6873 -0.2139 0.6942
vn -0.0153 -0.2476 0.9688
vn -0.0105 -0.2600 0.9656
vn 0.6911 -0.2053 0.6930
vn 0.6864 -0.2202 0.6931
vn -0.0201 -0.2379 0.9711
vn -0.0153 -0.2476 0.9688
vn 0.6873 -0.2139 0.6942
vn -0.7140 -0.1063 0.6920
vn -0.7037 -0.0851 0.7054
vn -0.0153 -0.2476 0.9688
vn -0.0201 -0.2379 0.9711
vn -0.8801 -0.3857 0.2768
vn -0.8593 -0.2388 -0.4522
vn -0.8319 -0.2671 -0.4864
vn -0.8716 -0.4041 0.2774
vn -0.8801 -0.3857 0.2768
vn -0.8716 -0.4041 0.2774
vn -0.3386 -0.3933 0.8548
vn -0.4279 -0.2453 0.8699
vn -0.5694 0.0135 0.8220
vn -0.9445 -0.1680 0.2823
vn -0.8801 -0.3857 0.2768
vn -0.4279 -0.2453 0.8699
vn -0.9341 -0.0257 -0.3560
vn -0.8593 -0.2388 -0.4522
vn -0.8801 -0.3857 0.2768
vn -0.9445 -0.1680 0.2823
vn -0.4279 -0.2453 0.8699
vn -0.3386 -0.3933 0.8548
vn 0.4044 -0.1881 0.8950
vn 0.2433 0.1053 0.9642
vn 0.2433 0.1053 0.9642
vn 0.4044 -0.1881 0.8950
vn 0.9106 0.0752 0.4063
vn 0.7225 0.4771 0.5003
vn 0.4397 0.7406 0.5082
vn 0.0204 0.3668 0.9301
vn 0.2433 0.1053 0.9642
vn 0.7225 0.4771 0.5003
vn -0.5694 0.0135 0.8220
vn -0.4279 -0.2453 0.8699
vn 0.2433 0.1053 0.9642
vn 0.0204 0.3668 0.9301
vn 0.7225 0.4771 0.5003
vn 0.9106 0.0752 0.4063
vn 0.9289 0.2267 -0.2930
vn 0.7408 0.6349 -0.2196
vn 0.7408 0.6349 -0.2196
vn 0.9289 0.2267 -0.2930
vn 0.4823 0.1751 -0.8583
vn 0.3034 0.5011 -0.8105
vn 0.0668 0.7315 -0.6785
vn 0.4762 0.8676 -0.1432
vn 0.7408 0.6349 -0.2196
vn 0.3034 0.5011 -0.8105
vn 0.4397 0.7406 0.5082
vn 0.7225 0.4771 0.5003
vn 0.7408 0.6349 -0.2196
vn 0.4762 0.8676 -0.1432
vn -0.3751 0.1170 -0.9196
vn 0.3034 0.5011 -0.8105
vn 0.4823 0.1751 -0.8583
vn -0.2576 -0.0369 -0.9656
vn -0.8593 -0.2388 -0.4522
vn -0.3751 0.1170 -0.9196
vn -0.2576 -0.0369 -0.9656
vn -0.8319 -0.2671 -0.4864
vn -0.9341 -0.0257 -0.3560
vn -0.5330 0.3204 -0.7831
vn -0.3751 0.1170 -0.9196
vn -0.8593 -0.2388 -0.4522
vn 0.0668 0.7315 -0.6785
vn 0.3034 0.5011 -0.8105
vn -0.3751 0.1170 -0.9196
vn -0.5330 0.3204 -0.7831
vn -0.9383 -0.1342 0.3188
vn -0.9417 -0.0428 0.3337
vn -0.4294 -0.1678 0.8874
vn -0.4118 -0.2355 0.8803
vn -0.9033 0.0008 -0.4290
vn -0.9417 -0.0428 0.3337
vn -0.9383 -0.1342 0.3188
vn -0.8716 -0.4041 0.2774
vn -0.9383 -0.1342 0.3188
vn -0.4118 -0.2355 0.8803
vn -0.3386 -0.3933 0.8548
vn -0.8716 -0.4041 0.2774
vn -0.8319 -0.2671 -0.4864
vn -0.9033 0.0008 -0.4290
vn -0.9383 -0.1342 0.3188
vn -0.4118 -0.2355 0.8803
vn -0.4294 -0.1678 0.8874
vn 0.3460 -0.1947 0.9178
vn 0.3683 -0.2047 0.9069
vn 0.3683 -0.2047 0.9069
vn 0.3460 -0.1947 0.9178
vn 0.9070 -0.1123 0.4058
vn 0.9153 -0.0639 0.3976
vn 0.4044 -0.1881 0.8950
vn 0.3683 -0.2047 0.9069
vn 0.9153 -0.0639 0.3976
vn 0.9106 0.0752 0.4063
vn -0.3386 -0.3933 0.8548
vn -0.4118 -0.2355 0.8803
vn 0.3683 -0.2047 0.9069
vn 0.4044 -0.1881 0.8950
vn 0.9153 -0.0639 0.3976
vn 0.9070 -0.1123 0.4058
vn 0.9415 0.0233 -0.3362
vn 0.9442 0.0768 -0.3202
vn 0.4567 0.1331 -0.8796
vn 0.9442 0.0768 -0.3202
vn 0.9415 0.0233 -0.3362
vn 0.4327 0.1336 -0.8916
vn 0.4823 0.1751 -0.8583
vn 0.9289 0.2267 -0.2930
vn 0.9442 0.0768 -0.3202
vn 0.4567 0.1331 -0.8796
vn 0.9106 0.0752 0.4063
vn 0.9153 -0.0639 0.3976
vn 0.9442 0.0768 -0.3202
vn 0.9289 0.2267 -0.2930
vn -0.3257 0.0945 -0.9407
vn 0.4567 0.1331 -0.8796
vn 0.4327 0.1336 -0.8916
vn -0.3395 0.1602 -0.9269
vn -0.8319 -0.2671 -0.4864
vn -0.2576 -0.0369 -0.9656
vn -0.3257 0.0945 -0.9407
vn -0.9033 0.0008 -0.4290
vn -0.2576 -0.0369 -0.9656
vn 0.4823 0.1751 -0.8583
vn 0.4567 0.1331 -0.8796
vn -0.3257 0.0945 -0.9407
vn 0.9415 0.0233 -0.3362
vn 0.9070 -0.1123 0.4058
vn 0.9023 -0.1201 0.4141
vn 0.9404 0.0238 -0.3392
vn -0.3395 0.1602 -0.9269
vn -0.9059 0.0915 -0.4134
vn -0.9033 0.0008 -0.4290
vn -0.9059 0.0915 -0.4134
vn -0.9411 -0.0590 0.3330
vn -0.9417 -0.0428 0.3337
vn 0.9023 -0.1201 0.4141
vn 0.9070 -0.1123 0.4058
vn 0.3460 -0.1947 0.9178
vn 0.3460 -0.1947 0.9178
vn -0.4294 -0.1678 0.8874
vn -0.4266 -0.1772 0.8869
vn 0.3358 -0.2026 0.9199
vn 0.4230 0.1409 -0.8951
vn 0.4327 0.1336 -0.8916
vn 0.9404 0.0238 -0.3392
vn 0.4230 0.1409 -0.8951
vn -0.3421 0.1650 -0.9251
vn -0.3395 0.1602 -0.9269
vn -0.4266 -0.1772 0.8869
vn -0.4294 -0.1678 0.8874
vn -0.9411 -0.0590 0.3330
vn -0.9058 0.0809 -0.4160
vn -0.9072 0.0557 -0.4169
vn -0.9406 -0.0866 0.3283
vn -0.9411 -0.0590 0.3330
vn -0.9058 0.0809 -0.4160
vn -0.9059 0.0915 -0.4134
vn -0.3421 0.1650 -0.9251
vn -0.9411 -0.0590 0.3330
vn -0.9406 -0.0866 0.3283
vn -0.4274 -0.2024 0.8811
vn -0.4266 -0.1772 0.8869
vn 0.3358 -0.2026 0.9199
vn -0.4266 -0.1772 0.8869
vn -0.4274 -0.2024 0.8811
vn 0.3323 -0.2178 0.9177
vn 0.9023 -0.1201 0.4141
vn 0.3358 -0.2026 0.9199
vn 0.3323 -0.2178 0.9177
vn 0.9025 -0.1094 0.4167
vn 0.9404 0.0238 -0.3392
vn 0.9023 -0.1201 0.4141
vn 0.9025 -0.1094 0.4167
vn 0.9410 0.0520 -0.3345
vn 0.9404 0.0238 -0.3392
vn 0.9410 0.0520 -0.3345
vn 0.4231 0.1643 -0.8911
vn 0.4230 0.1409 -0.8951
vn 0.4230 0.1409 -0.8951
vn 0.4231 0.1643 -0.8911
vn -0.3422 0.1677 -0.9246
vn -0.3421 0.1650 -0.9251
vn -0.3421 0.1650 -0.9251
vn -0.3422 0.1677 -0.9246
vn -0.9072 0.0557 -0.4169
vn -0.9058 0.0809 -0.4160
vn -0.4274 -0.2024 0.8811
vn -0.9406 -0.0866 0.3283
vn -0.9399 -0.1149 0.3217
vn -0.4267 -0.2272 0.8754
vn 0.9410 0.0520 -0.3345
vn 0.9025 -0.1094 0.4167
vn 0.9047 -0.1173 0.4097
vn 0.9407 0.0501 -0.3355
vn -0.9399 -0.1149 0.3217
vn -0.9406 -0.0866 0.3283
vn -0.9072 0.0557 -0.4169
vn -0.4244 -0.2492 0.8705
vn -0.4267 -0.2272 0.8754
vn -0.9399 -0.1149 0.3217
vn 0.9047 -0.1173 0.4097
vn 0.9025 -0.1094 0.4167
vn 0.3323 -0.2178 0.9177
vn -0.3422 0.1677 -0.9246
vn -0.3373 0.1536 -0.9288
vn -0.9027 0.0290 -0.4294
vn -0.9072 0.0557 -0.4169
vn -0.9207 -0.2712 0.2807
vn -0.8846 -0.1106 -0.4531
vn -0.7485 -0.4674 -0.4705
vn -0.6676 -0.7394 0.0874
vn 0.4231 0.1643 -0.8911
vn -0.3373 0.1536 -0.9288
vn -0.3422 0.1677 -0.9246
vn -0.4244 -0.2492 0.8705
vn 0.3392 -0.2399 0.9096
vn 0.3323 -0.2178 0.9177
vn 0.4263 0.1609 -0.8901
vn 0.4231 0.1643 -0.8911
vn 0.9407 0.0501 -0.3355
vn -0.9027 0.0290 -0.4294
vn -0.9388 -0.1365 0.3162
vn -0.9399 -0.1149 0.3217
vn -0.9207 -0.2712 0.2807
vn -0.6676 -0.7394 0.0874
vn -0.3461 -0.7015 0.6230
vn -0.4142 -0.3842 0.8251
vn -0.9388 -0.1365 0.3162
vn -0.9207 -0.2712 0.2807
vn -0.4142 -0.3842 0.8251
vn -0.4244 -0.2492 0.8705
vn -0.9388 -0.1365 0.3162
vn -0.9027 0.0290 -0.4294
vn -0.8846 -0.1106 -0.4531
vn -0.9207 -0.2712 0.2807
vn 0.3368 -0.3730 0.8646
vn -0.4142 -0.3842 0.8251
vn -0.3461 -0.7015 0.6230
vn 0.2605 -0.8145 0.5183
vn 0.3368 -0.3730 0.8646
vn 0.2605 -0.8145 0.5183
vn 0.7719 -0.5905 0.2354
vn 0.8927 -0.2545 0.3720
vn 0.3392 -0.2399 0.9096
vn 0.3368 -0.3730 0.8646
vn 0.8927 -0.2545 0.3720
vn 0.9047 -0.1173 0.4097
vn 0.3392 -0.2399 0.9096
vn -0.4244 -0.2492 0.8705
vn -0.4142 -0.3842 0.8251
vn 0.3368 -0.3730 0.8646
vn 0.9287 -0.0876 -0.3605
vn 0.8927 -0.2545 0.3720
vn 0.7719 -0.5905 0.2354
vn 0.6974 -0.6039 -0.3859
vn 0.9287 -0.0876 -0.3605
vn 0.6974 -0.6039 -0.3859
vn 0.3696 -0.3564 -0.8581
vn 0.4223 0.0191 -0.9062
vn 0.9407 0.0501 -0.3355
vn 0.9287 -0.0876 -0.3605
vn 0.4223 0.0191 -0.9062
vn 0.4263 0.1609 -0.8901
vn 0.9407 0.0501 -0.3355
vn 0.9047 -0.1173 0.4097
vn 0.8927 -0.2545 0.3720
vn 0.9287 -0.0876 -0.3605
vn -0.3288 0.0142 -0.9443
vn 0.4223 0.0191 -0.9062
vn 0.3696 -0.3564 -0.8581
vn -0.2307 -0.5288 -0.8168
vn -0.3288 0.0142 -0.9443
vn -0.2307 -0.5288 -0.8168
vn -0.7485 -0.4674 -0.4705
vn -0.8846 -0.1106 -0.4531
vn -0.3373 0.1536 -0.9288
vn -0.3288 0.0142 -0.9443
vn -0.8846 -0.1106 -0.4531
vn -0.9027 0.0290 -0.4294
vn -0.3373 0.1536 -0.9288
vn 0.4263 0.1609 -0.8901
vn 0.4223 0.0191 -0.9062
vn -0.3288 0.0142 -0.9443
vn -0.6938 -0.2034 0.6909
vn -0.7192 -0.3027 0.6254
vn -0.0207 -0.4477 0.8939
vn -0.0346 -0.4071 0.9127
vn -0.0346 -0.4071 0.9127
vn -0.0207 -0.4477 0.8939
vn 0.7051 -0.4028 0.5837
vn 0.6754 -0.3149 0.6668
vn -0.0333 -0.1973 0.9798
vn -0.0346 -0.4071 0.9127
vn 0.6754 -0.3149 0.6668
vn 0.6195 -0.0857 0.7803
vn -0.6015 0.0135 0.7987
vn -0.6938 -0.2034 0.6909
vn -0.0346 -0.4071 0.9127
vn -0.0333 -0.1973 0.9798
vn 0.6754 -0.3149 0.6668
vn 0.7051 -0.4028 0.5837
vn 0.9867 -0.1302 -0.0973
vn 0.9957 0.0648 0.0664
vn 0.9957 0.0648 0.0664
vn 0.9867 -0.1302 -0.0973
vn 0.6752 0.1801 -0.7153
vn 0.7036 0.4984 -0.5065
vn 0.6610 0.7092 -0.2454
vn 0.9268 0.2741 0.2568
vn 0.9957 0.0648 0.0664
vn 0.7036 0.4984 -0.5065
vn 0.6195 -0.0857 0.7803
vn 0.6754 -0.3149 0.6668
vn 0.9957 0.0648 0.0664
vn 0.9268 0.2741 0.2568
vn 0.0246 0.6881 -0.7252
vn 0.7036 0.4984 -0.5065
vn 0.6752 0.1801 -0.7153
vn 0.0131 0.3226 -0.9464
vn -0.6787 0.5572 -0.4785
vn 0.0246 0.6881 -0.7252
vn 0.0131 0.3226 -0.9464
vn -0.6738 0.2226 -0.7046
vn -0.5833 0.7862 -0.2039
vn 0.0479 0.8899 -0.4536
vn 0.0246 0.6881 -0.7252
vn -0.6787 0.5572 -0.4785
vn 0.0479 0.8899 -0.4536
vn 0.6610 0.7092 -0.2454
vn 0.7036 0.4984 -0.5065
vn 0.0246 0.6881 -0.7252
vn -0.9784 0.1657 0.1232
vn -0.6787 0.5572 -0.4785
vn -0.6738 0.2226 -0.7046
vn -0.9981 -0.0448 -0.0430
vn -0.6938 -0.2034 0.6909
vn -0.9784 0.1657 0.1232
vn -0.9981 -0.0448 -0.0430
vn -0.7192 -0.3027 0.6254
vn -0.6015 0.0135 0.7987
vn -0.8638 0.3766 0.3347
vn -0.9784 0.1657 0.1232
vn -0.6938 -0.2034 0.6909
vn -0.5833 0.7862 -0.2039
vn -0.6787 0.5572 -0.4785
vn -0.9784 0.1657 0.1232
vn -0.8638 0.3766 0.3347
vn -0.0207 -0.4477 0.8939
vn -0.0014 -0.2367 0.9716
vn 0.7076 -0.2210 0.6712
vn 0.7051 -0.4028 0.5837
vn 0.7096 -0.1451 0.6895
vn 0.7076 -0.2210 0.6712
vn -0.0014 -0.2367 0.9716
vn -0.0207 -0.4477 0.8939
vn -0.7192 -0.3027 0.6254
vn -0.7043 -0.1612 0.6914
vn -0.0014 -0.2367 0.9716
vn 0.7076 -0.2210 0.6712
vn 0.7096 -0.1451 0.6895
vn 0.9988 -0.0444 -0.0202
vn 0.9959 -0.0780 -0.0448
vn 0.9959 -0.0780 -0.0448
vn 0.9988 -0.0444 -0.0202
vn 0.6953 0.0798 -0.7142
vn 0.6828 0.1015 -0.7235
vn 0.9867 -0.1302 -0.0973
vn 0.9959 -0.0780 -0.0448
vn 0.6828 0.1015 -0.7235
vn 0.6752 0.1801 -0.7153
vn 0.7051 -0.4028 0.5837
vn 0.7076 -0.2210 0.6712
vn 0.9959 -0.0780 -0.0448
vn 0.9867 -0.1302 -0.0973
vn 0.6828 0.1015 -0.7235
vn 0.6953 0.0798 -0.7142
vn -0.0087 0.1461 -0.9892
vn -0.0029 0.1929 -0.9812
vn -0.6939 0.1393 -0.7065
vn -0.0029 0.1929 -0.9812
vn -0.0087 0.1461 -0.9892
vn -0.7105 0.1180 -0.6937
vn -0.6738 0.2226 -0.7046
vn 0.0131 0.3226 -0.9464
vn -0.0029 0.1929 -0.9812
vn -0.6939 0.1393 -0.7065
vn 0.6752 0.1801 -0.7153
vn 0.6828 0.1015 -0.7235
vn -0.0029 0.1929 -0.9812
vn 0.0131 0.3226 -0.9464
vn -0.7192 -0.3027 0.6254
vn -0.9981 -0.0448 -0.0430
vn -1.0000 -0.0054 -0.0075
vn -0.7043 -0.1612 0.6914
vn -1.0000 -0.0054 -0.0075
vn -0.6987 -0.1000 0.7084
vn -0.7043 -0.1612 0.6914
vn -0.9981 -0.0448 -0.0430
vn -0.6738 0.2226 -0.7046
vn -0.6939 0.1393 -0.7065
vn -1.0000 -0.0054 -0.0075
vn -0.0087 0.1461 -0.9892
vn -0.0123 0.1415 -0.9899
vn -0.7157 0.1071 -0.6901
vn -0.7105 0.1180 -0.6937
vn -0.6987 -0.1000 0.7084
vn 0.0095 -0.1632 0.9866
vn -0.0014 -0.2367 0.9716
vn 0.6989 0.0830 -0.7104
vn 0.6953 0.0798 -0.7142
vn 0.9988 -0.0444 -0.0202
vn 0.7096 -0.1451 0.6895
vn 0.9994 -0.0329 -0.0135
vn 0.9988 -0.0444 -0.0202
vn -0.7105 0.1180 -0.6937
vn -0.9999 0.0026 0.0108
vn -1.0000 -0.0054 -0.0075
vn 0.7108 -0.1400 0.6894
vn 0.7096 -0.1451 0.6895
vn 0.0095 -0.1632 0.9866
vn 0.0095 -0.1632 0.9866
vn -0.6987 -0.1000 0.7084
vn -0.6999 -0.1137 0.7051
vn 0.0077 -0.1730 0.9849
vn 0.6989 0.0830 -0.7104
vn -0.0123 0.1415 -0.9899
vn -0.0087 0.1461 -0.9892
vn 0.0077 -0.1730 0.9849
vn -0.6999 -0.1137 0.7051
vn -0.7005 -0.1373 0.7003
vn 0.0039 -0.1951 0.9808
vn -0.6999 -0.1137 0.7051
vn -0.6987 -0.1000 0.7084
vn -0.9999 0.0026 0.0108
vn 0.7108 -0.1400 0.6894
vn 0.0077 -0.1730 0.9849
vn 0.0039 -0.1951 0.9808
vn 0.7109 -0.1395 0.6893
vn 0.9994 -0.0329 -0.0135
vn 0.7108 -0.1400 0.6894
vn 0.7109 -0.1395 0.6893
vn 0.9999 -0.0123 -0.0098
vn 0.9994 -0.0329 -0.0135
vn 0.9999 -0.0123 -0.0098
vn 0.6994 0.1050 -0.7070
vn 0.6989 0.0830 -0.7104
vn 0.6989 0.0830 -0.7104
vn 0.6994 0.1050 -0.7070
vn -0.0128 0.1526 -0.9882
vn -0.0123 0.1415 -0.9899
vn -0.0123 0.1415 -0.9899
vn -0.0128 0.1526 -0.9882
vn -0.7181 0.0951 -0.6894
vn -0.7157 0.1071 -0.6901
vn -0.7157 0.1071 -0.6901
vn -0.7181 0.0951 -0.6894
vn -0.9998 -0.0182 0.0077
vn -0.9999 0.0026 0.0108
vn -0.9999 0.0026 0.0108
vn -0.9998 -0.0182 0.0077
vn -0.7005 -0.1373 0.7003
vn -0.6999 -0.1137 0.7051
vn -0.9998 -0.0182 0.0077
vn -0.9992 -0.0387 0.0044
vn -0.7006 -0.1611 0.6951
vn -0.7005 -0.1373 0.7003
vn 0.0039 -0.1951 0.9808
vn -0.7006 -0.1611 0.6951
vn -0.6970 -0.1779 0.6947
vn 0.0106 -0.2209 0.9752
vn -0.9992 -0.0387 0.0044
vn -0.9998 -0.0182 0.0077
vn -0.7181 0.0951 -0.6894
vn 0.7139 -0.1546 0.6829
vn 0.7109 -0.1395 0.6893
vn 0.0039 -0.1951 0.9808
vn 0.7003 0.1024 -0.7065
vn 0.6994 0.1050 -0.7070
vn 0.9999 -0.0123 -0.0098
vn 0.7003 0.1024 -0.7065
vn -0.0089 0.1426 -0.9897
vn -0.0128 0.1526 -0.9882
vn 0.0128 -0.3555 0.9346
vn -0.6788 -0.3278 0.6571
vn -0.5822 -0.6487 0.4901
vn 0.0195 -0.8069 0.5904
vn -0.6970 -0.1779 0.6947
vn -0.7006 -0.1611 0.6951
vn -0.9992 -0.0387 0.0044
vn 0.7139 -0.1546 0.6829
vn 0.9997 -0.0195 -0.0134
vn 0.9999 -0.0123 -0.0098
vn -0.7181 0.0951 -0.6894
vn -0.9849 -0.1715 -0.0222
vn -0.9992 -0.0387 0.0044
vn -0.7108 0.0800 -0.6989
vn -0.7181 0.0951 -0.6894
vn -0.0089 0.1426 -0.9897
vn 0.0128 -0.3555 0.9346
vn 0.0195 -0.8069 0.5904
vn 0.6111 -0.6264 0.4839
vn 0.7051 -0.2924 0.6460
vn 0.0106 -0.2209 0.9752
vn 0.0128 -0.3555 0.9346
vn 0.7051 -0.2924 0.6460
vn 0.7139 -0.1546 0.6829
vn 0.0106 -0.2209 0.9752
vn -0.6970 -0.1779 0.6947
vn -0.6788 -0.3278 0.6571
vn 0.0128 -0.3555 0.9346
vn 0.9868 -0.1572 -0.0388
vn 0.7051 -0.2924 0.6460
vn 0.6111 -0.6264 0.4839
vn 0.7398 -0.6603 -0.1294
vn 0.9868 -0.1572 -0.0388
vn 0.7398 -0.6603 -0.1294
vn 0.5996 -0.4097 -0.6875
vn 0.6917 -0.0394 -0.7211
vn 0.9997 -0.0195 -0.0134
vn 0.9868 -0.1572 -0.0388
vn 0.6917 -0.0394 -0.7211
vn 0.7003 0.1024 -0.7065
vn 0.9997 -0.0195 -0.0134
vn 0.7139 -0.1546 0.6829
vn 0.7051 -0.2924 0.6460
vn 0.9868 -0.1572 -0.0388
vn -0.0062 0.0024 -1.0000
vn 0.6917 -0.0394 -0.7211
vn 0.5996 -0.4097 -0.6875
vn 0.0055 -0.5423 -0.8402
vn -0.0062 0.0024 -1.0000
vn 0.0055 -0.5423 -0.8402
vn -0.5937 -0.4325 -0.6786
vn -0.6922 -0.0735 -0.7179
vn -0.0089 0.1426 -0.9897
vn -0.0062 0.0024 -1.0000
vn -0.6922 -0.0735 -0.7179
vn -0.7108 0.0800 -0.6989
vn -0.0089 0.1426 -0.9897
vn 0.7003 0.1024 -0.7065
vn 0.6917 -0.0394 -0.7211
vn -0.0062 0.0024 -1.0000
vn -0.9849 -0.1715 -0.0222
vn -0.6922 -0.0735 -0.7179
vn -0.5937 -0.4325 -0.6786
vn -0.7166 -0.6870 -0.1201
vn -0.9849 -0.1715 -0.0222
vn -0.7166 -0.6870 -0.1201
vn -0.5822 -0.6487 0.4901
vn -0.6788 -0.3278 0.6571
vn 0.8434 -0.5261 0.1086
vn 0.9782 -0.1541 0.1390
vn 0.8424 0.0140 -0.5387
vn 0.6796 -0.4227 -0.5996
vn -0.6788 -0.3278 0.6571
vn -0.6970 -0.1779 0.6947
vn -0.9849 -0.1715 -0.0222
vn 0.9782 -0.1541 0.1390
vn 0.8480 0.0973 -0.5209
vn 0.8424 0.0140 -0.5387
vn 0.8434 -0.5261 0.1086
vn 0.2245 -0.5659 0.7933
vn 0.5361 -0.3007 0.7888
vn 0.9782 -0.1541 0.1390
vn 0.8424 0.0140 -0.5387
vn 0.8480 0.0973 -0.5209
vn 0.2512 0.1940 -0.9483
vn 0.2781 0.1128 -0.9539
vn 0.2781 0.1128 -0.9539
vn 0.2512 0.1940 -0.9483
vn -0.5314 0.1817 -0.8274
vn -0.5361 0.1647 -0.8279
vn 0.1522 -0.1527 -0.9765
vn 0.2781 0.1128 -0.9539
vn -0.5361 0.1647 -0.8279
vn -0.6654 0.0346 -0.7457
vn 0.6796 -0.4227 -0.5996
vn 0.8424 0.0140 -0.5387
vn 0.2781 0.1128 -0.9539
vn 0.1522 -0.1527 -0.9765
vn -0.5361 0.1647 -0.8279
vn -0.5314 0.1817 -0.8274
vn -0.9771 0.0718 -0.2004
vn -0.9763 0.1198 -0.1800
vn -0.9763 0.1198 -0.1800
vn -0.9771 0.0718 -0.2004
vn -0.8464 -0.0799 0.5264
vn -0.8628 -0.0564 0.5024
vn -0.8892 -0.0175 0.4572
vn -0.9801 0.1607 -0.1166
vn -0.9763 0.1198 -0.1800
vn -0.8628 -0.0564 0.5024
vn -0.6654 0.0346 -0.7457
vn -0.5361 0.1647 -0.8279
vn -0.9763 0.1198 -0.1800
vn -0.9801 0.1607 -0.1166
vn -0.2633 -0.2352 0.9356
vn -0.8628 -0.0564 0.5024
vn -0.8464 -0.0799 0.5264
vn -0.2291 -0.2054 0.9515
vn 0.5361 -0.3007 0.7888
vn -0.2633 -0.2352 0.9356
vn -0.2291 -0.2054 0.9515
vn 0.5395 -0.2061 0.8164
vn 0.2245 -0.5659 0.7933
vn -0.3461 -0.2765 0.8965
vn -0.2633 -0.2352 0.9356
vn 0.5361 -0.3007 0.7888
vn -0.3461 -0.2765 0.8965
vn -0.8892 -0.0175 0.4572
vn -0.8628 -0.0564 0.5024
vn -0.2633 -0.2352 0.9356
vn 0.8480 0.0973 -0.5209
vn 0.9782 -0.1541 0.1390
vn 0.9769 -0.0844 0.1964
vn 0.8428 0.0713 -0.5335
vn 0.8480 0.0973 -0.5209
vn 0.8428 0.0713 -0.5335
vn 0.2215 0.1752 -0.9593
vn 0.2512 0.1940 -0.9483
vn 0.5395 -0.2061 0.8164
vn 0.9769 -0.0844 0.1964
vn 0.9782 -0.1541 0.1390
vn 0.9769 -0.0844 0.1964
vn 0.9753 -0.0880 0.2028
vn 0.8417 0.0673 -0.5358
vn 0.8428 0.0713 -0.5335
vn 0.9769 -0.0844 0.1964
vn 0.5395 -0.2061 0.8164
vn 0.5346 -0.2048 0.8199
vn 0.9753 -0.0880 0.2028
vn 0.2215 0.1752 -0.9593
vn 0.2124 0.1730 -0.9618
vn -0.5428 0.1635 -0.8238
vn -0.5314 0.1817 -0.8274
vn 0.2215 0.1752 -0.9593
vn 0.8428 0.0713 -0.5335
vn 0.8417 0.0673 -0.5358
vn 0.2124 0.1730 -0.9618
vn -0.9771 0.0718 -0.2004
vn -0.9771 0.0488 -0.2070
vn -0.8426 -0.1057 0.5281
vn -0.8464 -0.0799 0.5264
vn -0.9771 0.0718 -0.2004
vn -0.5314 0.1817 -0.8274
vn -0.5428 0.1635 -0.8238
vn -0.9771 0.0488 -0.2070
vn -0.2291 -0.2054 0.9515
vn -0.2172 -0.2112 0.9530
vn 0.5346 -0.2048 0.8199
vn 0.5395 -0.2061 0.8164
vn -0.2291 -0.2054 0.9515
vn -0.8464 -0.0799 0.5264
vn -0.8426 -0.1057 0.5281
vn -0.2172 -0.2112 0.9530
vn 0.9753 -0.0880 0.2028
vn 0.5346 -0.2048 0.8199
vn 0.5324 -0.2133 0.8192
vn 0.9752 -0.0682 0.2106
vn 0.9753 -0.0880 0.2028
vn 0.9752 -0.0682 0.2106
vn 0.8421 0.0856 -0.5325
vn 0.8417 0.0673 -0.5358
vn 0.2124 0.1730 -0.9618
vn 0.8417 0.0673 -0.5358
vn 0.8421 0.0856 -0.5325
vn 0.2092 0.1947 -0.9583
vn 0.2124 0.1730 -0.9618
vn 0.2092 0.1947 -0.9583
vn -0.5448 0.1566 -0.8238
vn -0.5428 0.1635 -0.8238
vn -0.5428 0.1635 -0.8238
vn -0.5448 0.1566 -0.8238
vn -0.9770 0.0260 -0.2116
vn -0.9771 0.0488 -0.2070
vn -0.9771 0.0488 -0.2070
vn -0.9770 0.0260 -0.2116
vn -0.8422 -0.1398 0.5207
vn -0.8426 -0.1057 0.5281
vn -0.2172 -0.2112 0.9530
vn -0.8426 -0.1057 0.5281
vn -0.8422 -0.1398 0.5207
vn -0.2173 -0.2345 0.9475
vn 0.5346 -0.2048 0.8199
vn -0.2172 -0.2112 0.9530
vn -0.2173 -0.2345 0.9475
vn 0.5324 -0.2133 0.8192
vn -0.9770 0.0260 -0.2116
vn -0.9760 0.0038 -0.2179
vn -0.8415 -0.1665 0.5140
vn -0.8422 -0.1398 0.5207
vn 0.9752 -0.0682 0.2106
vn 0.8427 0.1126 -0.5265
vn 0.8421 0.0856 -0.5325
vn -0.2173 -0.2345 0.9475
vn -0.8422 -0.1398 0.5207
vn -0.8415 -0.1665 0.5140
vn -0.2151 -0.2580 0.9419
vn -0.9760 0.0038 -0.2179
vn -0.9770 0.0260 -0.2116
vn -0.5448 0.1566 -0.8238
vn -0.9760 0.0038 -0.2179
vn -0.5448 0.1566 -0.8238
vn -0.5368 0.1389 -0.8322
vn -0.9742 -0.0173 -0.2250
vn 0.5392 -0.2317 0.8097
vn 0.5324 -0.2133 0.8192
vn -0.2151 -0.2580 0.9419
vn -0.5368 0.1389 -0.8322
vn -0.5448 0.1566 -0.8238
vn 0.2092 0.1947 -0.9583
vn 0.9634 -0.2102 0.1661
vn 0.5332 -0.3679 0.7618
vn 0.4637 -0.6872 0.5593
vn 0.7215 -0.6923 -0.0077
vn 0.8427 0.1126 -0.5265
vn 0.2155 0.1885 -0.9581
vn 0.2092 0.1947 -0.9583
vn 0.8423 0.0991 -0.5298
vn 0.8427 0.1126 -0.5265
vn 0.9752 -0.0682 0.2106
vn -0.8401 -0.1920 0.5073
vn -0.8415 -0.1665 0.5140
vn -0.9742 -0.0173 -0.2250
vn -0.8401 -0.1920 0.5073
vn -0.2133 -0.2794 0.9362
vn -0.2151 -0.2580 0.9419
vn 0.5392 -0.2317 0.8097
vn 0.9765 -0.0735 0.2028
vn 0.9752 -0.0682 0.2106
vn 0.9634 -0.2102 0.1661
vn 0.7215 -0.6923 -0.0077
vn 0.7176 -0.4100 -0.5629
vn 0.8311 -0.0427 -0.5544
vn 0.9765 -0.0735 0.2028
vn 0.9634 -0.2102 0.1661
vn 0.8311 -0.0427 -0.5544
vn 0.8423 0.0991 -0.5298
vn 0.9765 -0.0735 0.2028
vn 0.5392 -0.2317 0.8097
vn 0.5332 -0.3679 0.7618
vn 0.9634 -0.2102 0.1661
vn 0.2152 0.0475 -0.9754
vn 0.8311 -0.0427 -0.5544
vn 0.7176 -0.4100 -0.5629
vn 0.1712 -0.5029 -0.8472
vn 0.2152 0.0475 -0.9754
vn 0.1712 -0.5029 -0.8472
vn -0.4380 -0.3767 -0.8163
vn -0.5243 -0.0037 -0.8515
vn 0.2155 0.1885 -0.9581
vn 0.2152 0.0475 -0.9754
vn -0.5243 -0.0037 -0.8515
vn -0.5368 0.1389 -0.8322
vn 0.2155 0.1885 -0.9581
vn 0.8423 0.0991 -0.5298
vn 0.8311 -0.0427 -0.5544
vn 0.2152 0.0475 -0.9754
vn -0.9546 -0.1549 -0.2543
vn -0.5243 -0.0037 -0.8515
vn -0.4380 -0.3767 -0.8163
vn -0.6891 -0.6517 -0.3169
vn -0.9546 -0.1549 -0.2543
vn -0.6891 -0.6517 -0.3169
vn -0.6919 -0.6539 0.3060
vn -0.8222 -0.3288 0.4647
vn -0.9742 -0.0173 -0.2250
vn -0.9546 -0.1549 -0.2543
vn -0.8222 -0.3288 0.4647
vn -0.8401 -0.1920 0.5073
vn -0.9742 -0.0173 -0.2250
vn -0.5368 0.1389 -0.8322
vn -0.5243 -0.0037 -0.8515
vn -0.9546 -0.1549 -0.2543
vn -0.2064 -0.4126 0.8872
vn -0.8222 -0.3288 0.4647
vn -0.6919 -0.6539 0.3060
vn -0.1388 -0.8412 0.5226
vn -0.2064 -0.4126 0.8872
vn -0.1388 -0.8412 0.5226
vn 0.4637 -0.6872 0.5593
vn 0.5332 -0.3679 0.7618
vn -0.2133 -0.2794 0.9362
vn -0.2064 -0.4126 0.8872
vn 0.5332 -0.3679 0.7618
vn 0.5392 -0.2317 0.8097
vn -0.2133 -0.2794 0.9362
vn -0.8401 -0.1920 0.5073
vn -0.8222 -0.3288 0.4647
vn -0.2064 -0.4126 0.8872
f 46/1/1 157/2/2 156/3/3
f 172/4/4 161/5/5 164/6/6
f 47/7/7 161/8/8 166/9/9
f 167/10/10 47/11/11 9/12/12
f 11/13/13 171/14/14 170/15/15
f 185/16/16 176/17/17 179/18/18
f 177/19/19 48/20/20 50/21/21
f 185/22/22 175/23/23 181/24/24
f 50/25/25 176/26/26 182/27/27
f 187/28/28 183/29/29 50/30/30
f 16/31/31 190/32/32 189/33/33
f 210/34/34 203/35/35 345/36/36
f 211/37/37 204/38/38 203/39/39
f 60/40/40 204/41/41 212/42/42
f 213/43/43 208/44/44 217/45/45
f 223/46/46 210/47/47 213/48/48
f 211/49/49 210/50/50 214/51/51
f 215/52/52 212/53/53 211/54/54
f 221/55/55 206/56/56 216/57/57
f 61/58/58 220/59/59 22/60/60
f 226/61/61 225/62/62 21/63/63
f 64/64/64 220/65/65 61/66/66
f 63/67/67 222/68/68 227/69/69
f 65/70/70 220/71/71 229/72/72
f 66/73/73 228/74/74 63/75/75
f 64/76/76 225/77/77 230/78/78
f 70/79/79 244/80/80 243/81/81
f 72/82/82 250/83/83 249/84/84
f 71/85/85 244/86/86 251/87/87
f 261/88/88 248/89/89 252/90/90
f 261/91/91 246/92/92 253/93/93
f 70/94/94 250/95/95 254/96/96
f 259/97/97 253/98/98 71/99/99
f 263/100/100 254/101/101 72/102/102
f 259/103/103 251/104/104 257/105/105
f 265/106/106 258/107/107 31/108/108
f 76/109/109 260/110/110 73/111/111
f 77/112/112 262/113/113 74/114/114
f 75/115/115 262/116/116 267/117/117
f 76/118/118 258/119/119 269/120/120
f 77/121/121 260/122/122 270/123/123
f 268/124/124 266/125/125 271/126/126
f 78/127/127 271/128/128 75/129/129
f 309/130/130 132/131/131 57/132/132 131/133/133
f 275/134/134 271/135/135 78/136/136
f 79/137/137 277/138/138 276/139/139
f 82/140/140 279/141/141 285/142/142
f 293/143/143 40/144/144 85/145/145
f 299/146/146 39/147/147 297/148/148
f 300/149/149 291/150/150 39/151/151
f 86/152/152 298/153/153 301/154/154
f 88/155/155 293/156/156 302/157/157
f 87/158/158 302/159/159 85/160/160
f 89/161/161 299/162/162 86/163/163
f 300/164/164 299/165/165 303/166/166
f 87/167/167 291/168/168 304/169/169
f 128/170/170 309/171/171 131/172/172 58/173/173
f 52/174/174 122/175/175 309/176/176 128/177/177
f 51/178/178 132/179/179 309/180/180 122/181/181
f 310/182/182 99/183/183 36/184/184 101/185/185
f 101/186/186 54/187/187 102/188/188 310/189/189
f 310/190/190 102/191/191 38/192/192 99/193/193
f 108/194/194 55/195/195 106/196/196 311/197/197
f 311/198/198 106/199/199 67/200/200 107/201/201
f 311/202/202 107/203/203 37/204/204 108/205/205
f 312/206/206 103/207/207 53/208/208 105/209/209
f 100/210/210 312/211/211 105/212/212 37/213/213
f 102/214/214 312/215/215 100/216/216 38/217/217
f 54/218/218 103/219/219 312/220/220 102/221/221
f 105/222/222 53/223/223 110/224/224 313/225/225
f 313/226/226 110/227/227 69/228/228 111/229/229
f 111/230/230 37/231/231 105/232/232 313/233/233
f 160/234/234 164/235/235 161/236/236 314/237/237
f 156/238/238 314/239/239 161/240/240 46/241/241
f 5/242/242 155/243/243 314/244/244 156/245/245
f 8/246/246 160/247/247 314/248/248 155/249/249
f 315/250/250 109/251/251 67/252/252 106/253/253
f 106/254/254 55/255/255 113/256/256 315/257/257
f 113/258/258 36/259/259 109/260/260 315/261/261
f 316/262/262 159/263/263 164/264/264 160/265/265
f 159/266/266 316/267/267 163/268/268
f 153/269/269 316/270/270 160/271/271 8/272/272
f 7/273/273 163/274/274 316/275/275 153/276/276
f 151/277/277 158/278/278 163/279/279 7/280/280
f 6/281/281 162/282/282 158/283/283 151/284/284
f 6/285/285 149/286/286 157/287/287 162/288/288
f 149/289/289 5/290/290 156/291/291 157/292/292
f 317/293/293 117/294/294 56/295/295 121/296/296
f 317/297/297 121/298/298 51/299/299 120/300/300
f 54/301/301 101/302/302 317/303/303 120/304/304
f 101/305/305 36/306/306 117/307/307 317/308/308
f 154/309/309 8/310/310 155/311/311 318/312/312
f 148/313/313 318/314/314 155/315/315 5/316/316
f 1/317/317 119/318/318 318/319/319 148/320/320
f 4/321/321 154/322/322 318/323/323 119/324/324
f 123/325/325 52/326/326 128/327/327 319/328/328
f 319/329/329 128/330/330 58/331/331 125/332/332
f 110/333/333 319/334/334 125/335/335 69/336/336
f 53/337/337 123/338/338 319/339/339 110/340/340
f 152/341/341 7/342/342 153/343/343 320/344/344
f 154/345/345 320/346/346 153/347/347 8/348/348
f 4/349/349 135/350/350 320/351/351 154/352/352
f 3/353/353 152/354/354 320/355/355 135/356/356
f 150/357/357 6/358/358 151/359/359 321/360/360
f 152/361/361 321/362/362 151/363/363 7/364/364
f 3/365/365 134/366/366 321/367/367 152/368/368
f 2/369/369 150/370/370 321/371/371 134/372/372
f 148/373/373 5/374/374 149/375/375 322/376/376
f 150/377/377 322/378/378 149/379/379 6/380/380
f 2/381/381 98/382/382 322/383/383 150/384/384
f 1/385/385 148/386/386 322/387/387 98/388/388
f 323/389/389 144/390/390 45/391/391 145/392/392
f 323/393/393 145/394/394 44/395/395 146/396/396
f 43/397/397 147/398/398 323/399/399 146/400/400
f 42/401/401 144/402/402 323/403/403 147/404/404
f 324/405/405 140/406/406 35/407/407 141/408/408
f 324/409/409 141/410/410 34/411/411 142/412/412
f 33/413/413 143/414/414 324/415/415 142/416/416
f 32/417/417 140/418/418 324/419/419 143/420/420
f 325/421/421 136/422/422 26/423/423 137/424/424
f 325/425/425 137/426/426 25/427/427 138/428/428
f 24/429/429 139/430/430 325/431/431 138/432/432
f 23/433/433 136/434/434 325/435/435 139/436/436
f 326/437/437 119/438/438 1/439/439 98/440/440
f 326/441/441 98/442/442 2/443/443 134/444/444
f 3/445/445 135/446/446 326/447/447 134/448/448
f 4/449/449 119/450/450 326/451/451 135/452/452
f 327/453/453 118/454/454 94/455/455 115/456/456
f 327/457/457 115/458/458 95/459/459 112/460/460
f 96/461/461 104/462/462 327/463/463 112/464/464
f 97/465/465 118/466/466 327/467/467 104/468/468
f 328/469/469 133/470/470 90/471/471 129/472/472
f 328/473/473 129/474/474 91/475/475 127/476/476
f 92/477/477 124/478/478 328/479/479 127/480/480
f 93/481/481 133/482/482 328/483/483 124/484/484
f 329/485/485 130/486/486 57/487/487 132/488/488
f 121/489/489 329/490/490 132/491/491 51/492/492
f 56/493/493 116/494/494 329/495/495 121/496/496
f 116/497/497 68/498/498 130/499/499 329/500/500
f 330/501/501 111/502/502 69/503/503 125/504/504
f 126/505/505 330/506/506 125/507/507 58/508/508
f 55/509/509 108/510/510 330/511/511 126/512/512
f 108/513/513 37/514/514 111/515/515 330/516/516
f 331/517/517 126/518/518 58/519/519 131/520/520
f 130/521/521 331/522/522 131/523/523 57/524/524
f 68/525/525 114/526/526 331/527/527 130/528/528
f 114/529/529 55/530/530 126/531/531 331/532/532
f 332/533/533 114/534/534 68/535/535 116/536/536
f 117/537/537 332/538/538 116/539/539 56/540/540
f 36/541/541 113/542/542 332/543/543 117/544/544
f 55/545/545 114/546/546 332/547/547 113/548/548
f 157/549/549 46/550/550 47/551/551 167/552/552
f 157/553/553 167/554/554 168/555/555 162/556/556
f 158/557/557 162/558/558 168/559/559 165/560/560
f 158/561/561 165/562/562 170/563/563 163/564/564
f 159/565/565 163/566/566 170/567/567 171/568/568
f 159/569/569 171/570/570 172/571/571 164/572/572
f 168/573/573 10/574/574 169/575/575 165/576/576
f 47/577/577 46/578/578 161/579/579
f 172/580/580 166/581/581 161/582/582
f 10/583/583 168/584/584 167/585/585
f 170/586/586 165/587/587 169/588/588 11/589/589
f 166/590/590 172/591/591 12/592/592 173/593/593
f 171/594/594 12/595/595 172/596/596
f 166/597/597 173/598/598 9/599/599 47/600/600
f 10/601/601 167/602/602 175/603/603 179/604/604
f 167/605/605 9/606/606 174/607/607 175/608/608
f 169/609/609 176/610/610 48/611/611 11/612/612
f 169/613/613 10/614/614 179/615/615 176/616/616
f 171/617/617 177/618/618 180/619/619 12/620/620
f 11/621/621 48/622/622 177/623/623 171/624/624
f 9/625/625 173/626/626 178/627/627 174/628/628
f 12/629/629 180/630/630 178/631/631 173/632/632
f 175/633/633 174/634/634 49/635/635 181/636/636
f 185/637/637 179/638/638 175/639/639
f 50/640/640 48/641/641 176/642/642
f 177/643/643 183/644/644 189/645/645 180/646/646
f 185/647/647 182/648/648 176/649/649
f 50/650/650 183/651/651 177/652/652
f 178/653/653 180/654/654 189/655/655 190/656/656
f 178/657/657 190/658/658 49/659/659 174/660/660
f 49/661/661 13/662/662 184/663/663 181/664/664
f 181/665/665 184/666/666 14/667/667 185/668/668
f 185/669/669 14/670/670 186/671/671 333/672/672
f 187/673/673 333/674/674 186/675/675 15/676/676
f 50/677/677 182/678/678 333/679/679 187/680/680
f 183/681/681 187/682/682 15/683/683 188/684/684
f 333/685/685 182/686/686 185/687/687
f 189/688/688 183/689/689 188/690/690 16/691/691
f 191/692/692 51/693/693 122/694/694 334/695/695
f 13/696/696 49/697/697 190/698/698
f 192/699/699 334/700/700 122/701/701 52/702/702
f 14/703/703 184/704/704 334/705/705 192/706/706
f 13/707/707 191/708/708 334/709/709 184/710/710
f 335/711/711 192/712/712 52/713/713 123/714/714
f 193/715/715 335/716/716 123/717/717 53/718/718
f 15/719/719 186/720/720 335/721/721 193/722/722
f 186/723/723 14/724/724 192/725/725 335/726/726
f 193/727/727 53/728/728 103/729/729 336/730/730
f 194/731/731 336/732/732 103/733/733 54/734/734
f 188/735/735 336/736/736 194/737/737 16/738/738
f 15/739/739 193/740/740 336/741/741 188/742/742
f 194/743/743 54/744/744 120/745/745 337/746/746
f 191/747/747 337/748/748 120/749/749 51/750/750
f 13/751/751 190/752/752 337/753/753 191/754/754
f 16/755/755 194/756/756 337/757/757 190/758/758
f 338/759/759 195/760/760 17/761/761 196/762/762
f 338/763/763 196/764/764 18/765/765 197/766/766
f 91/767/767 129/768/768 338/769/769 197/770/770
f 90/771/771 195/772/772 338/773/773 129/774/774
f 197/775/775 18/776/776 198/777/777 339/778/778
f 339/779/779 198/780/780 19/781/781 199/782/782
f 92/783/783 127/784/784 339/785/785 199/786/786
f 91/787/787 197/788/788 339/789/789 127/790/790
f 199/791/791 19/792/792 200/793/793 340/794/794
f 340/795/795 200/796/796 20/797/797 201/798/798
f 93/799/799 124/800/800 340/801/801 201/802/802
f 92/803/803 199/804/804 340/805/805 124/806/806
f 341/807/807 201/808/808 20/809/809 202/810/810
f 195/811/811 341/812/812 202/813/813 17/814/814
f 90/815/815 133/816/816 341/817/817 195/818/818
f 93/819/819 201/820/820 341/821/821 133/822/822
f 342/823/823 204/824/824 60/825/825 205/826/826
f 203/827/827 204/828/828 342/829/829
f 196/830/830 342/831/831 205/832/832 18/833/833
f 196/834/834 17/835/835 203/836/836 342/837/837
f 205/838/838 60/839/839 206/840/840 343/841/841
f 343/842/842 206/843/843 59/844/844 207/845/845
f 198/846/846 343/847/847 207/848/848 19/849/849
f 18/850/850 205/851/851 343/852/852 198/853/853
f 207/854/854 59/855/855 208/856/856 344/857/857
f 209/858/858 344/859/859 208/860/860 213/861/861
f 20/862/862 200/863/863 344/864/864 209/865/865
f 19/866/866 207/867/867 344/868/868 200/869/869
f 345/870/870 209/871/871 213/872/872 210/873/873
f 17/874/874 202/875/875 345/876/876 203/877/877
f 202/878/878 20/879/879 209/880/880 345/881/881
f 208/882/882 59/883/883 221/884/884 217/885/885
f 210/886/886 211/887/887 203/888/888
f 211/889/889 212/890/890 204/891/891
f 221/892/892 59/893/893 206/894/894
f 206/895/895 60/896/896 219/897/897 216/898/898
f 223/899/899 213/900/900 217/901/901
f 223/902/902 214/903/903 210/904/904
f 219/905/905 60/906/906 212/907/907
f 215/908/908 21/909/909 218/910/910 212/911/911
f 215/912/912 211/913/913 214/914/914
f 212/915/915 218/916/916 22/917/917 219/918/918
f 216/919/919 219/920/920 22/921/921 220/922/922
f 221/923/923 216/924/924 220/925/925 62/926/926
f 217/927/927 221/928/928 62/929/929 222/930/930
f 217/931/931 222/932/932 63/933/933 223/934/934
f 223/935/935 63/936/936 224/937/937 214/938/938
f 214/939/939 224/940/940 21/941/941 215/942/942
f 22/943/943 218/944/944 225/945/945 61/946/946
f 222/947/947 62/948/948 65/949/949 227/950/950
f 225/951/951 218/952/952 21/953/953
f 64/954/954 61/955/955 225/956/956
f 65/957/957 62/958/958 220/959/959
f 224/960/960 228/961/961 226/962/962 21/963/963
f 346/964/964 231/965/965 23/966/966 139/967/967
f 63/968/968 228/969/969 224/970/970
f 64/971/971 229/972/972 220/973/973
f 66/974/974 63/975/975 227/976/976
f 226/977/977 230/978/978 225/979/979
f 346/980/980 139/981/981 24/982/982 232/983/983
f 230/984/984 346/985/985 232/986/986 64/987/987
f 230/988/988 226/989/989 231/990/990 346/991/991
f 347/992/992 232/993/993 24/994/994 138/995/995
f 347/996/996 138/997/997 25/998/998 233/999/999
f 229/1000/1000 347/1001/1001 233/1002/1002 65/1003/1003
f 229/1004/1004 64/1005/1005 232/1006/1006 347/1007/1007
f 348/1008/1008 233/1009/1009 25/1010/1010 137/1011/1011
f 348/1012/1012 137/1013/1013 26/1014/1014 234/1015/1015
f 227/1016/1016 348/1017/1017 234/1018/1018 66/1019/1019
f 227/1020/1020 65/1021/1021 233/1022/1022 348/1023/1023
f 349/1024/1024 234/1025/1025 26/1026/1026 136/1027/1027
f 349/1028/1028 136/1029/1029 23/1030/1030 231/1031/1031
f 228/1032/1032 349/1033/1033 231/1034/1034 226/1035/1035
f 228/1036/1036 66/1037/1037 234/1038/1038 349/1039/1039
f 235/1040/1040 27/1041/1041 236/1042/1042 350/1043/1043
f 350/1044/1044 236/1045/1045 28/1046/1046 237/1047/1047
f 115/1048/1048 350/1049/1049 237/1050/1050 95/1051/1051
f 94/1052/1052 235/1053/1053 350/1054/1054 115/1055/1055
f 237/1056/1056 28/1057/1057 238/1058/1058 351/1059/1059
f 351/1060/1060 238/1061/1061 29/1062/1062 239/1063/1063
f 96/1064/1064 112/1065/1065 351/1066/1066 239/1067/1067
f 95/1068/1068 237/1069/1069 351/1070/1070 112/1071/1071
f 352/1072/1072 239/1073/1073 29/1074/1074 240/1075/1075
f 241/1076/1076 352/1077/1077 240/1078/1078 30/1079/1079
f 97/1080/1080 104/1081/1081 352/1082/1082 241/1083/1083
f 104/1084/1084 96/1085/1085 239/1086/1086 352/1087/1087
f 353/1088/1088 241/1089/1089 30/1090/1090 242/1091/1091
f 235/1092/1092 353/1093/1093 242/1094/1094 27/1095/1095
f 94/1096/1096 118/1097/1097 353/1098/1098 235/1099/1099
f 97/1100/1100 241/1101/1101 353/1102/1102 118/1103/1103
f 236/1104/1104 244/1105/1105 245/1106/1106 28/1107/1107
f 71/1108/1108 245/1109/1109 244/1110/1110
f 236/1111/1111 27/1112/1112 243/1113/1113 244/1114/1114
f 245/1115/1115 71/1116/1116 246/1117/1117 354/1118/1118
f 354/1119/1119 246/1120/1120 252/1121/1121 247/1122/1122
f 238/1123/1123 354/1124/1124 247/1125/1125 29/1126/1126
f 28/1127/1127 245/1128/1128 354/1129/1129 238/1130/1130
f 247/1131/1131 252/1132/1132 248/1133/1133 355/1134/1134
f 249/1135/1135 355/1136/1136 248/1137/1137 72/1138/1138
f 30/1139/1139 240/1140/1140 355/1141/1141 249/1142/1142
f 29/1143/1143 247/1144/1144 355/1145/1145 240/1146/1146
f 27/1147/1147 242/1148/1148 250/1149/1149 243/1150/1150
f 250/1151/1151 70/1152/1152 243/1153/1153
f 242/1154/1154 30/1155/1155 249/1156/1156 250/1157/1157
f 248/1158/1158 255/1159/1159 263/1160/1160 72/1161/1161
f 70/1162/1162 251/1163/1163 244/1164/1164
f 261/1165/1165 252/1166/1166 246/1167/1167
f 71/1168/1168 253/1169/1169 246/1170/1170
f 72/1171/1171 254/1172/1172 250/1173/1173
f 259/1174/1174 71/1175/1175 251/1176/1176
f 251/1177/1177 70/1178/1178 256/1179/1179 257/1180/1180
f 261/1181/1181 255/1182/1182 248/1183/1183
f 257/1184/1184 256/1185/1185 31/1186/1186 258/1187/1187
f 256/1188/1188 70/1189/1189 254/1190/1190
f 259/1191/1191 257/1192/1192 258/1193/1193 73/1194/1194
f 253/1195/1195 259/1196/1196 73/1197/1197 260/1198/1198
f 253/1199/1199 260/1200/1200 74/1201/1201 261/1202/1202
f 261/1203/1203 74/1204/1204 262/1205/1205 255/1206/1206
f 255/1207/1207 262/1208/1208 75/1209/1209 263/1210/1210
f 263/1211/1211 75/1212/1212 264/1213/1213 254/1214/1214
f 254/1215/1215 264/1216/1216 31/1217/1217 256/1218/1218
f 264/1219/1219 266/1220/1220 265/1221/1221 31/1222/1222
f 258/1223/1223 265/1224/1224 268/1225/1225 269/1226/1226
f 266/1227/1227 264/1228/1228 75/1229/1229
f 76/1230/1230 73/1231/1231 258/1232/1232
f 77/1233/1233 74/1234/1234 260/1235/1235
f 77/1236/1236 267/1237/1237 262/1238/1238
f 356/1239/1239 272/1240/1240 32/1241/1241 143/1242/1242
f 268/1243/1243 265/1244/1244 266/1245/1245
f 76/1246/1246 270/1247/1247 260/1248/1248
f 75/1249/1249 271/1250/1250 266/1251/1251
f 78/1252/1252 75/1253/1253 267/1254/1254
f 356/1255/1255 143/1256/1256 33/1257/1257 273/1258/1258
f 269/1259/1259 356/1260/1260 273/1261/1261 76/1262/1262
f 269/1263/1263 268/1264/1264 272/1265/1265 356/1266/1266
f 357/1267/1267 273/1268/1268 33/1269/1269 142/1270/1270
f 357/1271/1271 142/1272/1272 34/1273/1273 274/1274/1274
f 270/1275/1275 357/1276/1276 274/1277/1277 77/1278/1278
f 270/1279/1279 76/1280/1280 273/1281/1281 357/1282/1282
f 358/1283/1283 274/1284/1284 34/1285/1285 141/1286/1286
f 358/1287/1287 141/1288/1288 35/1289/1289 275/1290/1290
f 267/1291/1291 358/1292/1292 275/1293/1293 78/1294/1294
f 267/1295/1295 77/1296/1296 274/1297/1297 358/1298/1298
f 271/1299/1299 275/1300/1300 35/1301/1301 140/1302/1302
f 271/1303/1303 140/1304/1304 32/1305/1305 272/1306/1306
f 109/1307/1307 277/1308/1308 278/1309/1309 67/1310/1310
f 272/1311/1311 268/1312/1312 271/1313/1313
f 277/1314/1314 80/1315/1315 278/1316/1316
f 109/1317/1317 36/1318/1318 276/1319/1319 277/1320/1320
f 278/1321/1321 80/1322/1322 279/1323/1323 359/1324/1324
f 359/1325/1325 279/1326/1326 82/1327/1327 280/1328/1328
f 107/1329/1329 359/1330/1330 280/1331/1331 37/1332/1332
f 67/1333/1333 278/1334/1334 359/1335/1335 107/1336/1336
f 280/1337/1337 82/1338/1338 281/1339/1339 360/1340/1340
f 360/1341/1341 281/1342/1342 83/1343/1343 282/1344/1344
f 38/1345/1345 100/1346/1346 360/1347/1347 282/1348/1348
f 37/1349/1349 280/1350/1350 360/1351/1351 100/1352/1352
f 361/1353/1353 282/1354/1354 83/1355/1355 283/1356/1356
f 276/1357/1357 361/1358/1358 283/1359/1359 79/1360/1360
f 36/1361/1361 99/1362/1362 361/1363/1363 276/1364/1364
f 99/1365/1365 38/1366/1366 282/1367/1367 361/1368/1368
f 80/1369/1369 277/1370/1370 284/1371/1371 81/1372/1372
f 80/1373/1373 81/1374/1374 285/1375/1375 279/1376/1376
f 79/1377/1377 284/1378/1378 277/1379/1379
f 284/1380/1380 289/1381/1381 292/1382/1382 81/1383/1383
f 284/1384/1384 79/1385/1385 286/1386/1386 289/1387/1387
f 285/1388/1388 290/1389/1389 294/1390/1390 82/1391/1391
f 285/1392/1392 81/1393/1393 292/1394/1394 290/1395/1395
f 281/1396/1396 287/1397/1397 296/1398/1398 83/1399/1399
f 281/1400/1400 82/1401/1401 294/1402/1402 287/1403/1403
f 283/1404/1404 288/1405/1405 286/1406/1406 79/1407/1407
f 283/1408/1408 83/1409/1409 296/1410/1410 288/1411/1411
f 289/1412/1412 286/1413/1413 39/1414/1414 291/1415/1415
f 289/1416/1416 291/1417/1417 40/1418/1418 292/1419/1419
f 290/1420/1420 292/1421/1421 40/1422/1422 293/1423/1423
f 290/1424/1424 293/1425/1425 84/1426/1426 294/1427/1427
f 294/1428/1428 84/1429/1429 295/1430/1430 287/1431/1431
f 287/1432/1432 295/1433/1433 41/1434/1434 296/1435/1435
f 288/1436/1436 296/1437/1437 41/1438/1438 297/1439/1439
f 286/1440/1440 288/1441/1441 297/1442/1442 39/1443/1443
f 295/1444/1444 298/1445/1445 86/1446/1446 41/1447/1447
f 291/1448/1448 85/1449/1449 40/1450/1450
f 297/1451/1451 41/1452/1452 86/1453/1453 299/1454/1454
f 298/1455/1455 295/1456/1456 84/1457/1457
f 298/1458/1458 84/1459/1459 88/1460/1460 301/1461/1461
f 300/1462/1462 39/1463/1463 299/1464/1464
f 88/1465/1465 84/1466/1466 293/1467/1467
f 362/1468/1468 305/1469/1469 42/1470/1470 147/1471/1471
f 85/1472/1472 302/1473/1473 293/1474/1474
f 87/1475/1475 85/1476/1476 291/1477/1477
f 89/1478/1478 86/1479/1479 301/1480/1480
f 89/1481/1481 303/1482/1482 299/1483/1483
f 300/1484/1484 304/1485/1485 291/1486/1486
f 362/1487/1487 147/1488/1488 43/1489/1489 306/1490/1490
f 304/1491/1491 362/1492/1492 306/1493/1493 87/1494/1494
f 304/1495/1495 300/1496/1496 305/1497/1497 362/1498/1498
f 363/1499/1499 306/1500/1500 43/1501/1501 146/1502/1502
f 363/1503/1503 146/1504/1504 44/1505/1505 307/1506/1506
f 302/1507/1507 363/1508/1508 307/1509/1509 88/1510/1510
f 302/1511/1511 87/1512/1512 306/1513/1513 363/1514/1514
f 364/1515/1515 307/1516/1516 44/1517/1517 145/1518/1518
f 364/1519/1519 145/1520/1520 45/1521/1521 308/1522/1522
f 301/1523/1523 364/1524/1524 308/1525/1525 89/1526/1526
f 301/1527/1527 88/1528/1528 307/1529/1529 364/1530/1530
f 365/1531/1531 308/1532/1532 45/1533/1533 144/1534/1534
f 365/1535/1535 144/1536/1536 42/1537/1537 305/1538/1538
f 303/1539/1539 365/1540/1540 305/1541/1541 300/1542/1542
f 303/1543/1543 89/1544/1544 308/1545/1545 365/1546/1546
