# right_leg - exported from blender/silhouette.blend by tools/blender_export.py
o right_leg
v 0.03748 -0.61366 -0.01827
v 0.08523 -0.60384 -0.06568
v 0.03671 -0.60045 -0.11297
v 0.06154 0.00939 0.00322
v -0.00558 0.03610 -0.05651
v 0.00021 -0.00714 0.06886
v 0.01764 -0.26002 -0.06888
v -0.05378 0.04681 -0.00671
v -0.01975 0.04404 0.05417
v 0.04080 0.05122 0.01982
v 0.02462 0.05498 -0.02462
v 0.01202 -0.61465 -0.09182
v 0.06269 -0.61157 -0.09190
v 0.05238 -0.62676 -0.05529
v 0.01259 -0.62135 -0.04152
v -0.06809 -0.00086 0.00334
v -0.04788 -0.00489 0.04779
v 0.04057 -0.00174 0.05075
v 0.04165 0.00923 -0.04157
v -0.04807 0.00217 -0.04193
v -0.03280 -0.26892 -0.01844
v -0.01701 -0.26961 0.01655
v 0.05260 -0.25986 -0.05305
v -0.01714 -0.26448 -0.05322
v 0.06849 -0.25915 -0.01796
v -0.01073 -0.60979 -0.06541
v 0.00066 -0.57730 -0.02633
v 0.06975 -0.60152 -0.03125
v 0.06918 -0.56473 -0.09470
v 0.00028 -0.56839 -0.09477
v -0.00810 0.06531 0.00810
vt 0.0300 0.5000
vt 0.0300 0.5000
vt 0.0300 0.5000
vt 0.0300 0.5000
vt 0.0300 0.5000
vt 0.0300 0.5000
vt 0.0300 0.5000
vt 0.0300 0.5000
vt 0.0300 0.5000
vt 0.0300 0.5000
vt 0.0300 0.5000
vt 0.0300 0.5000
vt 0.0300 0.5000
vt 0.0300 0.5000
vt 0.0300 0.5000
vt 0.0300 0.5000
vt 0.0300 0.5000
vt 0.0300 0.5000
vt 0.0300 0.5000
vt 0.0300 0.5000
vt 0.0300 0.5000
vt 0.0300 0.5000
vt 0.0300 0.5000
vt 0.0300 0.5000
vt 0.0300 0.5000
vt 0.0300 0.5000
vt 0.0300 0.5000
vt 0.0300 0.5000
vt 0.0300 0.5000
vt 0.0300 0.5000
vt 0.0300 0.5000
vt 0.0300 0.5000
vt 0.0300 0.5000
vt 0.0300 0.5000
vt 0.0300 0.5000
vt 0.0300 0.5000
vt 0.0300 0.5000
vt 0.0300 0.5000
vt 0.0300 0.5000
vt 0.0300 0.5000
vt 0.0300 0.5000
vt 0.0300 0.5000
vt 0.0300 0.5000
vt 0.0300 0.5000
vt 0.0300 0.5000
vt 0.0300 0.5000
vt 0.0300 0.5000
vt 0.0300 0.5000
vt 0.0300 0.5000
vt 0.0300 0.5000
vt 0.0300 0.5000
vt 0.0300 0.5000
vt 0.0300 0.5000
vt 0.0300 0.5000
vt 0.0300 0.5000
vt 0.0300 0.5000
vt 0.0300 0.5000
vt 0.0300 0.5000
vt 0.0300 0.5000
vt 0.0300 0.5000
vt 0.0300 0.5000
vt 0.0300 0.5000
vt 0.0300 0.5000
vt 0.0300 0.5000
vt 0.0300 0.5000
vt 0.0300 0.5000
vt 0.0300 0.5000
vt 0.0300 0.5000
vt 0.0300 0.5000
vt 0.0300 0.5000
vt 0.0300 0.5000
vt 0.0300 0.5000
vt 0.0300 0.5000
vt 0.0300 0.5000
vt 0.0300 0.5000
vt 0.0300 0.5000
vt 0.0300 0.5000
vt 0.0300 0.5000
vt 0.0300 0.5000
vt 0.0300 0.5000
vt 0.0300 0.5000
vt 0.0300 0.5000
vt 0.0300 0.5000
vt 0.0300 0.5000
vt 0.0300 0.5000
vt 0.0300 0.5000
vt 0.0300 0.5000
vt 0.0300 0.5000
vt 0.0300 0.5000
vt 0.0300 0.5000
vt 0.0300 0.5000
vt 0.0300 0.5000
vt 0.0300 0.5000
vt 0.0300 0.5000
vt 0.0300 0.5000
vt 0.0300 0.5000
vt 0.0300 0.5000
vt 0.0300 0.5000
vt 0.0300 0.5000
vt 0.0300 0.5000
vt 0.0300 0.5000
vt 0.0300 0.5000
vt 0.0300 0.5000
vt 0.0300 0.5000
vt 0.0300 0.5000
vt 0.0300 0.5000
vt 0.0300 0.5000
vt 0.0300 0.5000
vt 0.0300 0.5000
vt 0.0300 0.5000
vt 0.0300 0.5000
vt 0.0300 0.5000
vt 0.0300 0.5000
vt 0.0300 0.5000
vt 0.0300 0.5000
vt 0.0300 0.5000
vt 0.0300 0.5000
vt 0.0300 0.5000
vt 0.0300 0.5000
vt 0.0300 0.5000
vt 0.0300 0.5000
vt 0.0300 0.5000
vt 0.0300 0.5000
vt 0.0300 0.5000
vt 0.0300 0.5000
vt 0.0300 0.5000
vt 0.0300 0.5000
vt 0.0300 0.5000
vt 0.0300 0.5000
vt 0.0300 0.5000
vt 0.0300 0.5000
vt 0.0300 0.5000
vt 0.0300 0.5000
vt 0.0300 0.5000
vt 0.0300 0.5000
vt 0.0300 0.5000
vt 0.0300 0.5000
vt 0.0300 0.5000
vt 0.0300 0.5000
vt 0.0300 0.5000
vt 0.0300 0.5000
vt 0.0300 0.5000
vt 0.0300 0.5000
vt 0.0300 0.5000
vt 0.0300 0.5000
vt 0.0300 0.5000
vn -0.0970 0.9940 0.0510
vn 0.6475 0.7024 0.2955
vn 0.4058 0.8051 -0.4326
vn 0.9139 -0.3995 -0.0726
vn 0.2521 -0.9664 0.0509
vn 0.4979 -0.6322 -0.5936
vn 0.2521 -0.9664 0.0509
vn 0.0266 -0.5815 0.8131
vn -0.4473 -0.8179 0.3618
vn 0.6977 0.2369 -0.6761
vn -0.0682 0.5048 -0.8605
vn 0.4058 0.8051 -0.4326
vn 0.0395 0.0812 0.9959
vn -0.7215 0.0600 0.6898
vn -0.7064 -0.1492 0.6919
vn 0.0395 0.0812 0.9959
vn -0.7064 -0.1492 0.6919
vn -0.6934 -0.2078 0.6899
vn 0.9139 -0.3995 -0.0726
vn 0.6965 0.0973 -0.7109
vn 0.9993 0.0336 0.0138
vn -0.6934 -0.2078 0.6899
vn -0.9953 -0.0968 0.0086
vn -0.8322 -0.5500 -0.0711
vn 0.9139 -0.3995 -0.0726
vn 0.6621 0.1580 0.7326
vn 0.6873 -0.3680 0.6263
vn 0.6621 0.1580 0.7326
vn 0.0395 0.0812 0.9959
vn 0.0266 -0.5815 0.8131
vn 0.0266 -0.5815 0.8131
vn -0.6934 -0.2078 0.6899
vn -0.4473 -0.8179 0.3618
vn 0.9139 -0.3995 -0.0726
vn 0.6873 -0.3680 0.6263
vn 0.2521 -0.9664 0.0509
vn 0.0229 -0.3818 -0.9240
vn 0.7065 0.0648 -0.7048
vn 0.4979 -0.6322 -0.5936
vn -0.8322 -0.5500 -0.0711
vn -0.7059 -0.0145 -0.7081
vn -0.4209 -0.7151 -0.5581
vn -0.7298 0.6716 -0.1280
vn -0.2503 0.6115 0.7506
vn -0.0970 0.9940 0.0510
vn -0.2503 0.6115 0.7506
vn 0.6475 0.7024 0.2955
vn -0.0970 0.9940 0.0510
vn 0.2521 -0.9664 0.0509
vn -0.4209 -0.7151 -0.5581
vn 0.0229 -0.3818 -0.9240
vn 0.4979 -0.6322 -0.5936
vn -0.8322 -0.5500 -0.0711
vn -0.4209 -0.7151 -0.5581
vn 0.2521 -0.9664 0.0509
vn -0.4473 -0.8179 0.3618
vn -0.7298 0.6716 -0.1280
vn -0.9939 0.0974 0.0523
vn -0.7215 0.0600 0.6898
vn -0.2503 0.6115 0.7506
vn -0.7215 0.0600 0.6898
vn 0.0395 0.0812 0.9959
vn -0.2503 0.6115 0.7506
vn -0.2503 0.6115 0.7506
vn 0.0395 0.0812 0.9959
vn 0.6621 0.1580 0.7326
vn 0.6475 0.7024 0.2955
vn 0.6621 0.1580 0.7326
vn 0.9741 0.2260 -0.0018
vn 0.6475 0.7024 0.2955
vn 0.6475 0.7024 0.2955
vn 0.9741 0.2260 -0.0018
vn 0.6977 0.2369 -0.6761
vn 0.4058 0.8051 -0.4326
vn -0.7215 0.0600 0.6898
vn -0.9939 0.0974 0.0523
vn -0.9953 -0.0968 0.0086
vn -0.7064 -0.1492 0.6919
vn -0.7029 0.1191 -0.7013
vn -0.9939 0.0974 0.0523
vn -0.7298 0.6716 -0.1280
vn -0.7029 0.1191 -0.7013
vn -0.7298 0.6716 -0.1280
vn -0.0682 0.5048 -0.8605
vn 0.6977 0.2369 -0.6761
vn 0.6965 0.0973 -0.7109
vn 0.0002 0.0825 -0.9966
vn -0.0682 0.5048 -0.8605
vn 0.9993 0.0336 0.0138
vn 0.9741 0.2260 -0.0018
vn 0.6621 0.1580 0.7326
vn 0.6977 0.2369 -0.6761
vn 0.9741 0.2260 -0.0018
vn 0.9993 0.0336 0.0138
vn 0.6965 0.0973 -0.7109
vn -0.7029 0.1191 -0.7013
vn -0.7023 0.0030 -0.7119
vn -0.9953 -0.0968 0.0086
vn -0.9939 0.0974 0.0523
vn -0.7029 0.1191 -0.7013
vn -0.0682 0.5048 -0.8605
vn 0.0002 0.0825 -0.9966
vn -0.7023 0.0030 -0.7119
vn 0.6965 0.0973 -0.7109
vn 0.7065 0.0648 -0.7048
vn 0.0229 -0.3818 -0.9240
vn 0.0002 0.0825 -0.9966
vn -0.6934 -0.2078 0.6899
vn -0.7064 -0.1492 0.6919
vn -0.9953 -0.0968 0.0086
vn 0.6621 0.1580 0.7326
vn 0.9139 -0.3995 -0.0726
vn 0.9993 0.0336 0.0138
vn -0.6934 -0.2078 0.6899
vn 0.0266 -0.5815 0.8131
vn 0.0395 0.0812 0.9959
vn 0.6873 -0.3680 0.6263
vn 0.6621 0.1580 0.7326
vn 0.0266 -0.5815 0.8131
vn -0.9953 -0.0968 0.0086
vn -0.7023 0.0030 -0.7119
vn -0.7059 -0.0145 -0.7081
vn -0.8322 -0.5500 -0.0711
vn 0.7065 0.0648 -0.7048
vn 0.6965 0.0973 -0.7109
vn 0.9139 -0.3995 -0.0726
vn 0.0002 0.0825 -0.9966
vn 0.0229 -0.3818 -0.9240
vn -0.7059 -0.0145 -0.7081
vn -0.7023 0.0030 -0.7119
vn -0.8322 -0.5500 -0.0711
vn -0.4473 -0.8179 0.3618
vn -0.6934 -0.2078 0.6899
vn 0.0266 -0.5815 0.8131
vn 0.2521 -0.9664 0.0509
vn 0.6873 -0.3680 0.6263
vn -0.0682 0.5048 -0.8605
vn -0.7298 0.6716 -0.1280
vn -0.0970 0.9940 0.0510
vn 0.4058 0.8051 -0.4326
vn 0.9139 -0.3995 -0.0726
vn 0.4979 -0.6322 -0.5936
vn 0.7065 0.0648 -0.7048
vn 0.0229 -0.3818 -0.9240
vn -0.4209 -0.7151 -0.5581
vn -0.7059 -0.0145 -0.7081
f 31/1/1 10/2/2 11/3/3
f 2/4/4 14/5/5 13/6/6
f 14/7/7 1/8/8 15/9/9
f 19/10/10 5/11/11 11/12/12
f 6/13/13 17/14/14 22/15/15
f 6/16/16 22/17/17 27/18/18
f 2/19/19 23/20/20 25/21/21
f 27/22/22 21/23/23 26/24/24
f 2/25/25 18/26/26 28/27/27
f 18/28/28 6/29/29 1/30/30
f 1/31/31 27/32/32 15/33/33
f 2/34/34 28/35/35 14/36/36
f 3/37/37 29/38/38 13/39/39
f 26/40/40 30/41/41 12/42/42
f 8/43/43 9/44/44 31/45/45
f 9/46/46 10/47/47 31/48/48
f 14/49/49 12/50/50 3/51/51 13/52/52
f 26/53/53 12/54/54 14/55/55 15/56/56
f 8/57/57 16/58/58 17/59/59 9/60/60
f 17/61/61 6/62/62 9/63/63
f 9/64/64 6/65/65 18/66/66 10/67/67
f 18/68/68 4/69/69 10/70/70
f 10/71/71 4/72/72 19/73/73 11/74/74
f 17/75/75 16/76/76 21/77/77 22/78/78
f 20/79/79 16/80/80 8/81/81
f 20/82/82 8/83/83 5/84/84
f 19/85/85 23/86/86 7/87/87 5/88/88
f 25/89/89 4/90/90 18/91/91
f 19/92/92 4/93/93 25/94/94 23/95/95
f 20/96/96 24/97/97 21/98/98 16/99/99
f 20/100/100 5/101/101 7/102/102 24/103/103
f 23/104/104 29/105/105 3/106/106 7/107/107
f 27/108/108 22/109/109 21/110/110
f 18/111/111 2/112/112 25/113/113
f 27/114/114 1/115/115 6/116/116
f 28/117/117 18/118/118 1/119/119
f 21/120/120 24/121/121 30/122/122 26/123/123
f 29/124/124 23/125/125 2/126/126
f 7/127/127 3/128/128 30/129/129 24/130/130
f 26/131/131 15/132/132 27/133/133
f 1/134/134 14/135/135 28/136/136
f 5/137/137 8/138/138 31/139/139 11/140/140
f 2/141/141 13/142/142 29/143/143
f 3/144/144 12/145/145 30/146/146
