# right_arm - exported from blender/silhouette.blend by tools/blender_export.py
o right_arm
v -0.03917 -0.00375 -0.03527
v 0.00993 0.02481 0.03373
v 0.01131 0.02310 -0.03289
v 0.03817 -0.52330 0.04707
v 0.10081 -0.51850 -0.01114
v 0.04999 -0.56817 0.04165
v 0.10252 -0.55473 0.04847
v 0.10140 -0.56578 -0.00187
v 0.01341 -0.25859 -0.00727
v 0.04199 -0.05670 -0.02827
v 0.05921 -0.25117 0.04271
v 0.04659 -0.56262 -0.01200
v -0.04046 0.02090 -0.01690
v -0.02616 0.03104 0.02549
v -0.02094 0.03799 -0.01460
v 0.07648 -0.57710 0.00167
v 0.07443 -0.56778 0.04885
v 0.04487 -0.57173 0.01711
v -0.00933 0.00328 0.04901
v 0.01609 0.03481 0.00065
v -0.00784 0.00066 -0.04859
v -0.05033 -0.00892 -0.00089
v 0.05177 -0.04737 0.00525
v -0.04097 -0.00261 0.03312
v 0.03828 -0.04820 0.03894
v 0.00313 -0.25777 0.01640
v 0.03475 -0.25253 0.05081
v 0.06919 -0.25095 0.01899
v 0.03739 -0.25322 -0.01536
v 0.01113 -0.25558 0.04088
v 0.06182 -0.25705 -0.00553
v 0.02815 -0.52612 0.01631
v 0.06811 -0.52181 0.05957
v 0.11388 -0.54401 0.01945
v 0.07467 -0.54892 -0.02321
vt 0.0300 0.5000
vt 0.0300 0.5000
vt 0.0300 0.5000
vt 0.0300 0.5000
vt 0.0300 0.5000
vt 0.0300 0.5000
vt 0.0300 0.5000
vt 0.0300 0.5000
vt 0.0300 0.5000
vt 0.0300 0.5000
vt 0.0300 0.5000
vt 0.0300 0.5000
vt 0.0300 0.5000
vt 0.0300 0.5000
vt 0.0300 0.5000
vt 0.0300 0.5000
vt 0.0300 0.5000
vt 0.0300 0.5000
vt 0.0300 0.5000
vt 0.0300 0.5000
vt 0.0300 0.5000
vt 0.0300 0.5000
vt 0.0300 0.5000
vt 0.0300 0.5000
vt 0.0300 0.5000
vt 0.0300 0.5000
vt 0.0300 0.5000
vt 0.0300 0.5000
vt 0.0300 0.5000
vt 0.0300 0.5000
vt 0.0300 0.5000
vt 0.0300 0.5000
vt 0.0300 0.5000
vt 0.0300 0.5000
vt 0.0300 0.5000
vt 0.0300 0.5000
vt 0.0300 0.5000
vt 0.0300 0.5000
vt 0.0300 0.5000
vt 0.0300 0.5000
vt 0.0300 0.5000
vt 0.0300 0.5000
vt 0.0300 0.5000
vt 0.0300 0.5000
vt 0.0300 0.5000
vt 0.0300 0.5000
vt 0.0300 0.5000
vt 0.0300 0.5000
vt 0.0300 0.5000
vt 0.0300 0.5000
vt 0.0300 0.5000
vt 0.0300 0.5000
vt 0.0300 0.5000
vt 0.0300 0.5000
vt 0.0300 0.5000
vt 0.0300 0.5000
vt 0.0300 0.5000
vt 0.0300 0.5000
vt 0.0300 0.5000
vt 0.0300 0.5000
vt 0.0300 0.5000
vt 0.0300 0.5000
vt 0.0300 0.5000
vt 0.0300 0.5000
vt 0.0300 0.5000
vt 0.0300 0.5000
vt 0.0300 0.5000
vt 0.0300 0.5000
vt 0.0300 0.5000
vt 0.0300 0.5000
vt 0.0300 0.5000
vt 0.0300 0.5000
vt 0.0300 0.5000
vt 0.0300 0.5000
vt 0.0300 0.5000
vt 0.0300 0.5000
vt 0.0300 0.5000
vt 0.0300 0.5000
vt 0.0300 0.5000
vt 0.0300 0.5000
vt 0.0300 0.5000
vt 0.0300 0.5000
vt 0.0300 0.5000
vt 0.0300 0.5000
vt 0.0300 0.5000
vt 0.0300 0.5000
vt 0.0300 0.5000
vt 0.0300 0.5000
vt 0.0300 0.5000
vt 0.0300 0.5000
vt 0.0300 0.5000
vt 0.0300 0.5000
vt 0.0300 0.5000
vt 0.0300 0.5000
vt 0.0300 0.5000
vt 0.0300 0.5000
vt 0.0300 0.5000
vt 0.0300 0.5000
vt 0.0300 0.5000
vt 0.0300 0.5000
vt 0.0300 0.5000
vt 0.0300 0.5000
vt 0.0300 0.5000
vt 0.0300 0.5000
vt 0.0300 0.5000
vt 0.0300 0.5000
vt 0.0300 0.5000
vt 0.0300 0.5000
vt 0.0300 0.5000
vt 0.0300 0.5000
vt 0.0300 0.5000
vt 0.0300 0.5000
vt 0.0300 0.5000
vt 0.0300 0.5000
vt 0.0300 0.5000
vt 0.0300 0.5000
vt 0.0300 0.5000
vt 0.0300 0.5000
vt 0.0300 0.5000
vt 0.0300 0.5000
vt 0.0300 0.5000
vt 0.0300 0.5000
vt 0.0300 0.5000
vt 0.0300 0.5000
vt 0.0300 0.5000
vt 0.0300 0.5000
vt 0.0300 0.5000
vt 0.0300 0.5000
vt 0.0300 0.5000
vt 0.0300 0.5000
vt 0.0300 0.5000
vt 0.0300 0.5000
vt 0.0300 0.5000
vt 0.0300 0.5000
vt 0.0300 0.5000
vt 0.0300 0.5000
vt 0.0300 0.5000
vt 0.0300 0.5000
vt 0.0300 0.5000
vt 0.0300 0.5000
vt 0.0300 0.5000
vt 0.0300 0.5000
vt 0.0300 0.5000
vt 0.0300 0.5000
vt 0.0300 0.5000
vt 0.0300 0.5000
vt 0.0300 0.5000
vt 0.0300 0.5000
vt 0.0300 0.5000
vt 0.0300 0.5000
vt 0.0300 0.5000
vt 0.0300 0.5000
vt 0.0300 0.5000
vt 0.0300 0.5000
vt 0.0300 0.5000
vt 0.0300 0.5000
vt 0.0300 0.5000
vt 0.0300 0.5000
vt 0.0300 0.5000
vt 0.0300 0.5000
vn -0.7530 0.5700 -0.3287
vn -0.4497 0.7688 0.4546
vn -0.2510 0.9214 -0.2968
vn -0.0400 0.2205 -0.9746
vn -0.7050 0.1022 -0.7018
vn -0.7530 0.5700 -0.3287
vn 0.7261 0.0929 -0.6812
vn -0.0400 0.2205 -0.9746
vn 0.4384 0.5959 -0.6728
vn 0.7261 0.0929 -0.6812
vn 0.9696 0.2436 0.0239
vn 0.9919 0.1165 0.0514
vn 0.0305 -0.0567 -0.9979
vn -0.7050 0.1022 -0.7018
vn -0.0400 0.2205 -0.9746
vn 0.0305 -0.0567 -0.9979
vn 0.7261 0.0929 -0.6812
vn 0.7338 0.0678 -0.6760
vn -0.0437 0.0118 0.9990
vn -0.7283 -0.0949 0.6787
vn -0.7146 -0.1699 0.6785
vn -0.9819 -0.1814 -0.0543
vn -0.6756 -0.1323 -0.7253
vn -0.5570 -0.5143 -0.6521
vn 0.9919 0.1165 0.0514
vn 0.6723 0.0991 0.7336
vn 0.6448 -0.4107 0.6447
vn 0.6448 -0.4107 0.6447
vn -0.0315 -0.0615 0.9976
vn 0.0526 -0.7232 0.6887
vn -0.5570 -0.5143 -0.6521
vn 0.1076 -0.2614 -0.9592
vn 0.1248 -0.9528 -0.2769
vn 0.6613 -0.6304 -0.4065
vn 0.1076 -0.2614 -0.9592
vn 0.7311 0.0541 -0.6802
vn -0.7050 0.1022 -0.7018
vn -0.9993 0.0376 -0.0050
vn -0.7530 0.5700 -0.3287
vn 0.1248 -0.9528 -0.2769
vn 0.6613 -0.6304 -0.4065
vn 0.6448 -0.4107 0.6447
vn 0.0526 -0.7232 0.6887
vn -0.5124 -0.6567 0.5533
vn -0.6302 -0.7752 0.0435
vn 0.1248 -0.9528 -0.2769
vn 0.0526 -0.7232 0.6887
vn -0.4497 0.7688 0.4546
vn 0.4387 0.6656 0.6038
vn 0.5884 0.8085 0.0087
vn -0.2510 0.9214 -0.2968
vn 0.1248 -0.9528 -0.2769
vn -0.6302 -0.7752 0.0435
vn -0.5570 -0.5143 -0.6521
vn -0.0681 0.2606 0.9630
vn 0.4387 0.6656 0.6038
vn -0.4497 0.7688 0.4546
vn -0.0681 0.2606 0.9630
vn -0.4497 0.7688 0.4546
vn -0.7862 0.1494 0.5996
vn 0.5884 0.8085 0.0087
vn 0.4384 0.5959 -0.6728
vn -0.2510 0.9214 -0.2968
vn -0.2510 0.9214 -0.2968
vn 0.4384 0.5959 -0.6728
vn -0.0400 0.2205 -0.9746
vn -0.7530 0.5700 -0.3287
vn -0.7530 0.5700 -0.3287
vn -0.9993 0.0376 -0.0050
vn -0.7862 0.1494 0.5996
vn -0.4497 0.7688 0.4546
vn 0.4384 0.5959 -0.6728
vn 0.5884 0.8085 0.0087
vn 0.9696 0.2436 0.0239
vn 0.7261 0.0929 -0.6812
vn 0.6829 0.1834 0.7071
vn 0.4387 0.6656 0.6038
vn -0.0681 0.2606 0.9630
vn 0.4387 0.6656 0.6038
vn 0.6829 0.1834 0.7071
vn 0.9696 0.2436 0.0239
vn 0.5884 0.8085 0.0087
vn -0.9993 0.0376 -0.0050
vn -0.7050 0.1022 -0.7018
vn -0.6756 -0.1323 -0.7253
vn -0.9875 -0.1552 -0.0266
vn -0.9993 0.0376 -0.0050
vn -0.9875 -0.1552 -0.0266
vn -0.7283 -0.0949 0.6787
vn -0.7862 0.1494 0.5996
vn -0.7862 0.1494 0.5996
vn -0.7283 -0.0949 0.6787
vn -0.0437 0.0118 0.9990
vn -0.0681 0.2606 0.9630
vn -0.0681 0.2606 0.9630
vn -0.0437 0.0118 0.9990
vn 0.6723 0.0991 0.7336
vn 0.6829 0.1834 0.7071
vn 0.6829 0.1834 0.7071
vn 0.6723 0.0991 0.7336
vn 0.9919 0.1165 0.0514
vn 0.9696 0.2436 0.0239
vn -0.7283 -0.0949 0.6787
vn -0.9875 -0.1552 -0.0266
vn -0.9819 -0.1814 -0.0543
vn -0.7146 -0.1699 0.6785
vn 0.0305 -0.0567 -0.9979
vn -0.6756 -0.1323 -0.7253
vn -0.7050 0.1022 -0.7018
vn 0.7261 0.0929 -0.6812
vn 0.0305 -0.0567 -0.9979
vn -0.0400 0.2205 -0.9746
vn 0.7338 0.0678 -0.6760
vn 0.7261 0.0929 -0.6812
vn 0.9919 0.1165 0.0514
vn -0.9819 -0.1814 -0.0543
vn -0.9875 -0.1552 -0.0266
vn -0.6756 -0.1323 -0.7253
vn 0.6723 0.0991 0.7336
vn -0.0437 0.0118 0.9990
vn -0.0315 -0.0615 0.9976
vn 0.6448 -0.4107 0.6447
vn 0.7338 0.0678 -0.6760
vn 0.9919 0.1165 0.0514
vn 0.9895 -0.1437 0.0131
vn 0.7311 0.0541 -0.6802
vn -0.0315 -0.0615 0.9976
vn -0.0437 0.0118 0.9990
vn -0.7146 -0.1699 0.6785
vn 0.9895 -0.1437 0.0131
vn 0.9919 0.1165 0.0514
vn 0.6448 -0.4107 0.6447
vn 0.7338 0.0678 -0.6760
vn 0.7311 0.0541 -0.6802
vn 0.1076 -0.2614 -0.9592
vn 0.0305 -0.0567 -0.9979
vn -0.6756 -0.1323 -0.7253
vn 0.0305 -0.0567 -0.9979
vn 0.1076 -0.2614 -0.9592
vn -0.5570 -0.5143 -0.6521
vn -0.9819 -0.1814 -0.0543
vn -0.6302 -0.7752 0.0435
vn -0.5124 -0.6567 0.5533
vn -0.7146 -0.1699 0.6785
vn -0.0315 -0.0615 0.9976
vn -0.7146 -0.1699 0.6785
vn -0.5124 -0.6567 0.5533
vn 0.0526 -0.7232 0.6887
vn -0.5570 -0.5143 -0.6521
vn -0.6302 -0.7752 0.0435
vn -0.9819 -0.1814 -0.0543
vn 0.6448 -0.4107 0.6447
vn 0.6613 -0.6304 -0.4065
vn 0.9895 -0.1437 0.0131
vn 0.6613 -0.6304 -0.4065
vn 0.7311 0.0541 -0.6802
vn 0.9895 -0.1437 0.0131
vn 0.6613 -0.6304 -0.4065
vn 0.1248 -0.9528 -0.2769
vn 0.1076 -0.2614 -0.9592
f 13/1/1 14/2/2 15/3/3
f 21/4/4 1/5/5 13/6/6
f 10/7/7 21/8/8 3/9/9
f 10/10/10 23/11/11 28/12/12
f 29/13/13 1/14/14 21/15/15
f 29/16/16 10/17/17 31/18/18
f 27/19/19 30/20/20 4/21/21
f 32/22/22 9/23/23 12/24/24
f 28/25/25 11/26/26 7/27/27
f 7/28/28 33/29/29 17/30/30
f 12/31/31 35/32/32 16/33/33
f 8/34/34 35/35/35 5/36/36
f 1/37/37 22/38/38 13/39/39
f 16/40/40 8/41/41 7/42/42 17/43/43
f 6/44/44 18/45/45 16/46/46 17/47/47
f 14/48/48 2/49/49 20/50/50 15/51/51
f 16/52/52 18/53/53 12/54/54
f 19/55/55 2/56/56 14/57/57
f 19/58/58 14/59/59 24/60/60
f 20/61/61 3/62/62 15/63/63
f 15/64/64 3/65/65 21/66/66 13/67/67
f 13/68/68 22/69/69 24/70/70 14/71/71
f 3/72/72 20/73/73 23/74/74 10/75/75
f 25/76/76 2/77/77 19/78/78
f 2/79/79 25/80/80 23/81/81 20/82/82
f 22/83/83 1/84/84 9/85/85 26/86/86
f 22/87/87 26/88/88 30/89/89 24/90/90
f 24/91/91 30/92/92 27/93/93 19/94/94
f 19/95/95 27/96/96 11/97/97 25/98/98
f 25/99/99 11/100/100 28/101/101 23/102/102
f 30/103/103 26/104/104 32/105/105 4/106/106
f 29/107/107 9/108/108 1/109/109
f 10/110/110 29/111/111 21/112/112
f 31/113/113 10/114/114 28/115/115
f 32/116/116 26/117/117 9/118/118
f 11/119/119 27/120/120 33/121/121 7/122/122
f 31/123/123 28/124/124 34/125/125 5/126/126
f 33/127/127 27/128/128 4/129/129
f 34/130/130 28/131/131 7/132/132
f 31/133/133 5/134/134 35/135/135 29/136/136
f 9/137/137 29/138/138 35/139/139 12/140/140
f 32/141/141 18/142/142 6/143/143 4/144/144
f 33/145/145 4/146/146 6/147/147 17/148/148
f 12/149/149 18/150/150 32/151/151
f 7/152/152 8/153/153 34/154/154
f 8/155/155 5/156/156 34/157/157
f 8/158/158 16/159/159 35/160/160
