# right_forearm - exported from blender/silhouette.blend by tools/blender_export.py
o right_forearm
v -0.01961 0.03200 -0.01547
v -0.01950 0.03103 0.01548
v 0.01129 0.03453 0.01547
v 0.01118 0.03551 -0.01548
v -0.02326 -0.00294 -0.02445
v -0.02285 -0.00679 0.02116
v 0.02276 -0.00245 0.02109
v 0.02235 0.00141 -0.02452
v -0.00257 -0.26653 -0.06513
v -0.00186 -0.27419 -0.02535
v 0.03856 -0.27132 -0.02551
v 0.03785 -0.26365 -0.06530
v 0.01774 -0.50678 -0.11643
v 0.01856 -0.51623 -0.08218
v 0.05401 -0.51342 -0.08226
v 0.05318 -0.50397 -0.11651
v 0.02120 -0.66058 -0.13096
v 0.02778 -0.65896 -0.15054
v 0.01045 -0.65082 -0.15628
v 0.00367 -0.65247 -0.13653
v 0.02603 -0.90198 -0.18015
v 0.01903 -1.09800 -0.22968
v 0.02027 -1.09727 -0.23305
v 0.01682 -1.09693 -0.23425
v 0.01558 -1.09765 -0.23087
v 0.03433 -0.66095 -0.15962
v 0.05481 -0.66080 -0.15996
v 0.05505 -0.65105 -0.17728
v 0.03420 -0.65130 -0.17704
v 0.04701 -0.95795 -0.21003
v 0.05987 -0.95089 -0.20860
v 0.04737 -1.18714 -0.25707
v 0.05102 -1.18721 -0.25705
v 0.05105 -1.18655 -0.26064
v 0.04740 -1.18648 -0.26066
v 0.06345 -0.65256 -0.12441
v 0.08414 -0.64271 -0.12677
v 0.07861 -0.64087 -0.15201
v 0.07713 -0.88559 -0.18992
v 0.09242 -0.88146 -0.17897
v 0.07833 -1.06136 -0.22881
v 0.07911 -1.06222 -0.22532
v 0.08270 -1.06212 -0.22611
v 0.08191 -1.06126 -0.22959
v -0.00492 -0.23794 -0.06026
v 0.03962 -0.29338 -0.07107
v 0.04988 -0.45949 -0.10583
v 0.02021 -0.55713 -0.13475
v 0.01949 -0.57679 -0.09885
v 0.06432 -0.57614 -0.09885
v 0.06281 -0.56174 -0.13845
v 0.03484 -0.63567 -0.11619
v 0.04882 -0.65001 -0.15065
v 0.02800 -0.61664 -0.15524
v 0.01418 -0.61928 -0.12913
v 0.02010 -0.68838 -0.13767
v 0.02617 -0.68227 -0.15405
v 0.00311 -0.68973 -0.14422
v 0.01830 -0.90465 -0.19751
v 0.01398 -0.90732 -0.18578
v 0.03027 -0.90710 -0.19359
v 0.02135 -1.09066 -0.23203
v 0.01653 -1.09018 -0.23370
v 0.01479 -1.09119 -0.22898
v 0.02693 -0.64435 -0.13390
v 0.06485 -0.65937 -0.14626
v 0.05944 -0.61166 -0.16082
v 0.03645 -0.68820 -0.16606
v 0.05456 -0.67316 -0.16350
v 0.05505 -0.68695 -0.18424
v 0.05990 -0.95581 -0.22253
v 0.05946 -0.96762 -0.21186
v 0.04713 -0.95601 -0.22267
v 0.05184 -1.18076 -0.25513
v 0.05189 -1.17984 -0.26011
v 0.04682 -1.17974 -0.26015
v 0.06687 -0.68349 -0.15122
v 0.07050 -0.68896 -0.13464
v 0.08809 -0.68692 -0.13830
v 0.08432 -0.68581 -0.15607
v 0.09188 -0.89695 -0.18281
v 0.07987 -0.88953 -0.17808
v 0.08955 -0.88611 -0.19282
v 0.07870 -1.05599 -0.22291
v 0.08374 -1.05585 -0.22401
v 0.08263 -1.05464 -0.22890
v 0.02721 -0.64819 -0.12915
v 0.03320 -0.64774 -0.14811
v 0.01927 -0.63604 -0.15304
v 0.01300 -0.63652 -0.13381
v 0.03389 -0.64877 -0.15246
v 0.05305 -0.64894 -0.15385
v 0.05331 -0.63620 -0.16702
v 0.03361 -0.63617 -0.16577
v 0.01264 -0.56352 -0.11684
v 0.04336 -0.63374 -0.16713
v 0.01342 -0.60333 -0.11644
v 0.02264 -0.58801 -0.14663
v 0.01688 -0.61811 -0.14115
v 0.05548 -0.64186 -0.15992
v 0.01908 -0.63352 -0.13152
v 0.03027 -0.64315 -0.12531
v 0.04338 -0.64982 -0.15094
v 0.02862 -0.61394 -0.10656
v 0.03127 -0.64171 -0.15816
v 0.04157 -0.57394 -0.09141
v 0.06961 -0.56374 -0.11659
v -0.02298 0.03356 0.00001
v 0.03953 -0.55456 -0.14209
v 0.06084 -0.59108 -0.15486
v 0.01523 -0.63391 -0.14385
v 0.04569 -0.61483 -0.16155
v 0.02769 -0.64111 -0.15281
v 0.03739 -0.63675 -0.15628
v 0.03458 -0.64855 -0.14252
v 0.05330 -0.65492 -0.13791
v 0.03253 -0.64881 -0.13791
v 0.04669 -0.64136 -0.11843
v 0.06339 -0.61583 -0.10738
v 0.07708 -0.64860 -0.12222
v 0.07763 -0.61074 -0.11487
v 0.02007 -0.64160 -0.12895
v 0.08505 -0.63883 -0.13785
v 0.07545 -0.60095 -0.14449
v 0.06823 -0.62452 -0.15936
v 0.06265 -0.64591 -0.15566
v 0.07157 -0.65532 -0.15148
v 0.05951 -0.65432 -0.14811
v 0.06289 -0.66082 -0.13755
v -0.00452 0.03619 -0.01863
v -0.00441 0.03520 0.01863
v 0.01406 0.03784 -0.00001
v 0.01716 -1.09838 -0.23002
v 0.01582 -1.09773 -0.23279
v 0.01867 -1.09750 -0.23411
v 0.02001 -1.09815 -0.23134
v 0.04698 -1.18728 -0.25896
v 0.04922 -1.18692 -0.26113
v 0.05142 -1.18737 -0.25893
v 0.04918 -1.18773 -0.25677
v 0.08002 -1.06169 -0.22968
v 0.08268 -1.06215 -0.22805
v 0.08098 -1.06273 -0.22546
v 0.07832 -1.06227 -0.22709
v -0.02330 0.01927 -0.02083
v -0.03161 -0.00568 -0.00163
v -0.02308 0.01720 0.02044
v 0.00003 -0.00535 0.02968
v 0.01805 0.02161 0.02041
v 0.03111 0.00029 -0.00173
v 0.01782 0.02368 -0.02086
v -0.00053 -0.00004 -0.03304
v -0.02113 -0.03547 -0.02919
v -0.02974 -0.03668 -0.00564
v -0.02098 -0.03520 0.01796
v 0.00456 -0.06613 0.02107
v 0.02550 -0.03137 0.01783
v 0.03560 -0.05782 -0.01015
v 0.00196 -0.03163 -0.03780
v -0.01240 -0.24095 -0.03971
v -0.01867 -0.06483 0.01292
v 0.02527 -0.02977 -0.02902
v 0.01650 -0.24547 -0.01218
v 0.02741 -0.06337 0.01241
v 0.04430 -0.23782 -0.04010
v 0.01553 -0.23502 -0.06795
v -0.00863 -0.28420 -0.04778
v -0.00428 -0.24463 -0.01953
v 0.01848 -0.27419 -0.01797
v 0.03699 -0.24317 -0.01998
v 0.04657 -0.28171 -0.04832
v 0.03626 -0.23513 -0.06045
v 0.01751 -0.26365 -0.07267
v -0.00021 -0.29427 -0.07053
v 0.02072 -0.30527 -0.02495
v 0.01969 -0.29389 -0.07841
v 0.01592 -0.48098 -0.10968
v 0.00078 -0.30551 -0.03225
v 0.04043 -0.30266 -0.03241
v 0.00970 -0.48555 -0.09253
v 0.05799 -0.48189 -0.09268
v 0.03197 -0.45960 -0.11235
v 0.01150 -0.51203 -0.09930
v 0.01666 -0.48928 -0.07547
v 0.03520 -0.50098 -0.07188
v 0.05179 -0.48669 -0.07559
v 0.06024 -0.50817 -0.09940
v 0.05130 -0.48149 -0.11059
v 0.03530 -0.50360 -0.12289
v 0.01890 -0.53033 -0.12441
v 0.01962 -0.54170 -0.08901
v 0.05721 -0.53900 -0.08907
v 0.05622 -0.52797 -0.12480
v 0.02501 -0.65306 -0.12797
v 0.02776 -0.66129 -0.13969
v 0.03203 -0.65217 -0.14994
v 0.02037 -0.65458 -0.15710
v 0.01481 -0.63982 -0.15594
v 0.00379 -0.65013 -0.14747
v 0.00735 -0.64076 -0.13356
v 0.01118 -0.65684 -0.13006
v 0.01973 -0.67237 -0.13435
v 0.02599 -0.67226 -0.14217
v 0.02596 -0.66995 -0.15199
v 0.01882 -0.68211 -0.16044
v 0.00887 -0.66588 -0.15773
v 0.00296 -0.68751 -0.15369
v 0.00261 -0.66830 -0.14007
v 0.01034 -0.68731 -0.13733
v 0.02673 -0.70092 -0.14758
v 0.02596 -0.88862 -0.17725
v 0.02506 -0.88558 -0.19420
v 0.00912 -0.68374 -0.16058
v 0.03060 -0.88782 -0.18264
v 0.01883 -0.88920 -0.17726
v 0.01330 -0.88724 -0.18887
v 0.03052 -0.90091 -0.18532
v 0.03050 -0.88642 -0.18964
v 0.02512 -0.90469 -0.19761
v 0.01792 -0.88602 -0.19418
v 0.01389 -0.90675 -0.19263
v 0.01338 -0.88821 -0.18178
v 0.01917 -0.90897 -0.18165
v 0.02568 -0.91799 -0.18397
v 0.02997 -0.91687 -0.18888
v 0.01927 -1.09025 -0.23376
v 0.01476 -1.09062 -0.23166
v 0.01688 -1.09164 -0.22727
v 0.01962 -1.09167 -0.22731
v 0.02139 -1.09128 -0.22936
v 0.01941 -1.09571 -0.22845
v 0.02102 -1.09477 -0.23283
v 0.01655 -1.09433 -0.23438
v 0.01494 -1.09527 -0.23001
v 0.03273 -0.65350 -0.15440
v 0.04456 -0.66270 -0.15653
v 0.05510 -0.65363 -0.15564
v 0.05880 -0.65589 -0.16868
v 0.05553 -0.63987 -0.17226
v 0.04463 -0.64936 -0.18042
v 0.03230 -0.63997 -0.17126
v 0.03039 -0.65616 -0.16827
v 0.03569 -0.67300 -0.16351
v 0.04575 -0.69340 -0.16335
v 0.05814 -0.67189 -0.17264
v 0.05473 -0.66669 -0.18095
v 0.04598 -0.68878 -0.18806
v 0.03578 -0.66706 -0.18112
v 0.03307 -0.68628 -0.17509
v 0.05321 -0.93780 -0.20380
v 0.03678 -0.68901 -0.18472
v 0.04656 -0.93744 -0.20634
v 0.06246 -0.93618 -0.21273
v 0.05338 -0.93482 -0.22190
v 0.04414 -0.93673 -0.21300
v 0.05336 -0.95908 -0.20776
v 0.05989 -0.93700 -0.20613
v 0.06237 -0.94980 -0.21498
v 0.06003 -0.93522 -0.21936
v 0.05355 -0.95439 -0.22479
v 0.04670 -0.93556 -0.21954
v 0.04466 -0.95703 -0.21640
v 0.06185 -0.96674 -0.21801
v 0.04937 -1.17964 -0.26107
v 0.04585 -1.18021 -0.25766
v 0.04930 -1.18091 -0.25421
v 0.04677 -1.18066 -0.25516
v 0.05282 -1.18035 -0.25762
v 0.04687 -1.18477 -0.25609
v 0.05160 -1.18486 -0.25606
v 0.05164 -1.18400 -0.26071
v 0.04692 -1.18391 -0.26074
v 0.06673 -0.66988 -0.14782
v 0.06539 -0.68549 -0.14194
v 0.06949 -0.67178 -0.13044
v 0.07988 -0.68560 -0.13258
v 0.08699 -0.66675 -0.13384
v 0.08952 -0.68670 -0.14802
v 0.08336 -0.66449 -0.15228
v 0.07484 -0.68176 -0.15644
v 0.06725 -0.69816 -0.15447
v 0.06585 -0.69951 -0.14513
v 0.07518 -0.69593 -0.15933
v 0.07650 -0.86681 -0.18611
v 0.08646 -0.86933 -0.17222
v 0.09348 -0.86694 -0.18294
v 0.07550 -0.86842 -0.17921
v 0.08252 -0.86603 -0.18992
v 0.07618 -0.88861 -0.18372
v 0.07938 -0.86929 -0.17325
v 0.08660 -0.88232 -0.17530
v 0.09246 -0.86815 -0.17595
v 0.09340 -0.87999 -0.18567
v 0.08959 -0.86579 -0.18884
v 0.08282 -0.88619 -0.19382
v 0.08634 -0.89792 -0.17936
v 0.09281 -0.89548 -0.18918
v 0.07760 -1.05478 -0.22780
v 0.08413 -1.05524 -0.22667
v 0.07991 -1.05451 -0.22927
v 0.07721 -1.05544 -0.22515
v 0.08143 -1.05617 -0.22255
v 0.07773 -1.05885 -0.22863
v 0.07875 -1.05997 -0.22411
v 0.08341 -1.05983 -0.22513
v 0.08239 -1.05872 -0.22965
v 0.03393 -0.02784 -0.00533
v 0.00237 -0.03434 0.02657
v 0.01317 -0.59249 -0.13009
v 0.07827 -0.60209 -0.12789
v -0.00281 0.02208 -0.02855
v 0.02558 0.02371 -0.00023
v -0.00250 0.01927 0.02813
v -0.03090 0.01764 -0.00019
v 0.08048 -1.06319 -0.22781
v 0.04918 -1.18833 -0.25913
v 0.01790 -1.09893 -0.23229
v 0.07440 -0.62453 -0.11319
v -0.00510 0.04080 0.00000
v 0.04318 -0.64024 -0.15749
v 0.07122 -0.60525 -0.15468
v 0.02538 -0.63975 -0.14057
v 0.06516 -0.65172 -0.15198
v 0.05868 -0.65642 -0.14128
v 0.04532 -0.61151 -0.10374
v 0.04147 -0.58635 -0.15419
v 0.02012 -0.62453 -0.11755
v 0.05434 -0.63413 -0.16088
v 0.02482 -0.63696 -0.14530
v 0.04211 -0.65183 -0.13236
v 0.03359 -0.48125 -0.11696
v 0.01235 -0.53632 -0.10674
v 0.03856 -0.54219 -0.08246
v 0.06357 -0.53277 -0.10684
v 0.03725 -0.52702 -0.13115
v 0.03188 -0.65493 -0.13784
v 0.02487 -0.64576 -0.15716
v 0.00786 -0.63783 -0.14583
v 0.01487 -0.64700 -0.12652
v 0.01858 -0.66747 -0.15817
v 0.00253 -0.66633 -0.14998
v 0.01000 -0.67079 -0.13390
v 0.02106 -1.09537 -0.23036
v 0.01909 -1.09442 -0.23444
v 0.01491 -1.09476 -0.23249
v 0.01687 -1.09571 -0.22842
v 0.04390 -0.65612 -0.15180
v 0.05965 -0.64668 -0.16411
v 0.04391 -0.63721 -0.17484
v 0.02816 -0.64665 -0.16253
v 0.04512 -0.67393 -0.16013
v 0.04527 -0.66576 -0.18434
v 0.03218 -0.67010 -0.17234
v 0.04922 -1.18502 -0.25522
v 0.05250 -1.18449 -0.25839
v 0.04929 -1.18384 -0.26160
v 0.04601 -1.18437 -0.25843
v 0.06502 -0.67187 -0.13861
v 0.07903 -0.66976 -0.12886
v 0.08834 -0.66450 -0.14364
v 0.07443 -0.66712 -0.15324
v 0.07737 -1.05948 -0.22619
v 0.08127 -1.06016 -0.22378
v 0.08377 -1.05930 -0.22759
v 0.07987 -1.05862 -0.23000
vt 0.0300 0.5000
vt 0.0300 0.5000
vt 0.0300 0.5000
vt 0.0300 0.5000
vt 0.0300 0.5000
vt 0.0300 0.5000
vt 0.0300 0.5000
vt 0.0300 0.5000
vt 0.0300 0.5000
vt 0.0300 0.5000
vt 0.0300 0.5000
vt 0.0300 0.5000
vt 0.0300 0.5000
vt 0.0300 0.5000
vt 0.0300 0.5000
vt 0.0300 0.5000
vt 0.0300 0.5000
vt 0.0300 0.5000
vt 0.0300 0.5000
vt 0.0300 0.5000
vt 0.0300 0.5000
vt 0.0300 0.5000
vt 0.0300 0.5000
vt 0.0300 0.5000
vt 0.0300 0.5000
vt 0.0300 0.5000
vt 0.0300 0.5000
vt 0.0300 0.5000
vt 0.0300 0.5000
vt 0.0300 0.5000
vt 0.0300 0.5000
vt 0.0300 0.5000
vt 0.0300 0.5000
vt 0.0300 0.5000
vt 0.0300 0.5000
vt 0.0300 0.5000
vt 0.0300 0.5000
vt 0.0300 0.5000
vt 0.0300 0.5000
vt 0.0300 0.5000
vt 0.0300 0.5000
vt 0.0300 0.5000
vt 0.0300 0.5000
vt 0.0300 0.5000
vt 0.0300 0.5000
vt 0.0300 0.5000
vt 0.0300 0.5000
vt 0.0300 0.5000
vt 0.0300 0.5000
vt 0.0300 0.5000
vt 0.0300 0.5000
vt 0.0300 0.5000
vt 0.0300 0.5000
vt 0.0300 0.5000
vt 0.0300 0.5000
vt 0.0300 0.5000
vt 0.0300 0.5000
vt 0.0300 0.5000
vt 0.0300 0.5000
vt 0.0300 0.5000
vt 0.0300 0.5000
vt 0.0300 0.5000
vt 0.0300 0.5000
vt 0.0300 0.5000
vt 0.0300 0.5000
vt 0.0300 0.5000
vt 0.0300 0.5000
vt 0.0300 0.5000
vt 0.0300 0.5000
vt 0.0300 0.5000
vt 0.0300 0.5000
vt 0.0300 0.5000
vt 0.0300 0.5000
vt 0.0300 0.5000
vt 0.0300 0.5000
vt 0.0300 0.5000
vt 0.0300 0.5000
vt 0.0300 0.5000
vt 0.0300 0.5000
vt 0.0300 0.5000
vt 0.0300 0.5000
vt 0.0300 0.5000
vt 0.0300 0.5000
vt 0.0300 0.5000
vt 0.0300 0.5000
vt 0.0300 0.5000
vt 0.0300 0.5000
vt 0.0300 0.5000
vt 0.0300 0.5000
vt 0.0300 0.5000
vt 0.0300 0.5000
vt 0.0300 0.5000
vt 0.0300 0.5000
vt 0.0300 0.5000
vt 0.0300 0.5000
vt 0.0300 0.5000
vt 0.0300 0.5000
vt 0.0300 0.5000
vt 0.0300 0.5000
vt 0.0300 0.5000
vt 0.0300 0.5000
vt 0.0300 0.5000
vt 0.0300 0.5000
vt 0.0300 0.5000
vt 0.0300 0.5000
vt 0.0300 0.5000
vt 0.0300 0.5000
vt 0.0300 0.5000
vt 0.0300 0.5000
vt 0.0300 0.5000
vt 0.0300 0.5000
vt 0.0300 0.5000
vt 0.0300 0.5000
vt 0.0300 0.5000
vt 0.0300 0.5000
vt 0.0300 0.5000
vt 0.0300 0.5000
vt 0.0300 0.5000
vt 0.0300 0.5000
vt 0.0300 0.5000
vt 0.0300 0.5000
vt 0.0300 0.5000
vt 0.0300 0.5000
vt 0.0300 0.5000
vt 0.0300 0.5000
vt 0.0300 0.5000
vt 0.0300 0.5000
vt 0.0300 0.5000
vt 0.0300 0.5000
vt 0.0300 0.5000
vt 0.0300 0.5000
vt 0.0300 0.5000
vt 0.0300 0.5000
vt 0.0300 0.5000
vt 0.0300 0.5000
vt 0.0300 0.5000
vt 0.0300 0.5000
vt 0.0300 0.5000
vt 0.0300 0.5000
vt 0.0300 0.5000
vt 0.0300 0.5000
vt 0.0300 0.5000
vt 0.0300 0.5000
vt 0.0300 0.5000
vt 0.0300 0.5000
vt 0.0300 0.5000
vt 0.0300 0.5000
vt 0.0300 0.5000
vt 0.0300 0.5000
vt 0.0300 0.5000
vt 0.0300 0.5000
vt 0.0300 0.5000
vt 0.0300 0.5000
vt 0.0300 0.5000
vt 0.0300 0.5000
vt 0.0300 0.5000
vt 0.0300 0.5000
vt 0.0300 0.5000
vt 0.0300 0.5000
vt 0.0300 0.5000
vt 0.0300 0.5000
vt 0.0300 0.5000
vt 0.0300 0.5000
vt 0.0300 0.5000
vt 0.0300 0.5000
vt 0.0300 0.5000
vt 0.0300 0.5000
vt 0.0300 0.5000
vt 0.0300 0.5000
vt 0.0300 0.5000
vt 0.0300 0.5000
vt 0.0300 0.5000
vt 0.0300 0.5000
vt 0.0300 0.5000
vt 0.0300 0.5000
vt 0.0300 0.5000
vt 0.0300 0.5000
vt 0.0300 0.5000
vt 0.0300 0.5000
vt 0.0300 0.5000
vt 0.0300 0.5000
vt 0.0300 0.5000
vt 0.0300 0.5000
vt 0.0300 0.5000
vt 0.0300 0.5000
vt 0.0300 0.5000
vt 0.0300 0.5000
vt 0.0300 0.5000
vt 0.0300 0.5000
vt 0.0300 0.5000
vt 0.0300 0.5000
vt 0.0300 0.5000
vt 0.0300 0.5000
vt 0.0300 0.5000
vt 0.0300 0.5000
vt 0.0300 0.5000
vt 0.0300 0.5000
vt 0.0300 0.5000
vt 0.0300 0.5000
vt 0.0300 0.5000
vt 0.0300 0.5000
vt 0.0300 0.5000
vt 0.0300 0.5000
vt 0.0300 0.5000
vt 0.0300 0.5000
vt 0.0300 0.5000
vt 0.0300 0.5000
vt 0.0300 0.5000
vt 0.0300 0.5000
vt 0.0300 0.5000
vt 0.0300 0.5000
vt 0.0300 0.5000
vt 0.0300 0.5000
vt 0.0300 0.5000
vt 0.0300 0.5000
vt 0.0300 0.5000
vt 0.0300 0.5000
vt 0.0300 0.5000
vt 0.0300 0.5000
vt 0.0300 0.5000
vt 0.0300 0.5000
vt 0.0300 0.5000
vt 0.0300 0.5000
vt 0.0300 0.5000
vt 0.0300 0.5000
vt 0.0300 0.5000
vt 0.0300 0.5000
vt 0.0300 0.5000
vt 0.0300 0.5000
vt 0.0300 0.5000
vt 0.0300 0.5000
vt 0.0300 0.5000
vt 0.0300 0.5000
vt 0.0300 0.5000
vt 0.0300 0.5000
vt 0.0300 0.5000
vt 0.0300 0.5000
vt 0.0300 0.5000
vt 0.0300 0.5000
vt 0.0300 0.5000
vt 0.0300 0.5000
vt 0.0300 0.5000
vt 0.0300 0.5000
vt 0.0300 0.5000
vt 0.0300 0.5000
vt 0.0300 0.5000
vt 0.0300 0.5000
vt 0.0300 0.5000
vt 0.0300 0.5000
vt 0.0300 0.5000
vt 0.0300 0.5000
vt 0.0300 0.5000
vt 0.0300 0.5000
vt 0.0300 0.5000
vt 0.0300 0.5000
vt 0.0300 0.5000
vt 0.0300 0.5000
vt 0.0300 0.5000
vt 0.0300 0.5000
vt 0.0300 0.5000
vt 0.0300 0.5000
vt 0.0300 0.5000
vt 0.0300 0.5000
vt 0.0300 0.5000
vt 0.0300 0.5000
vt 0.0300 0.5000
vt 0.0300 0.5000
vt 0.0300 0.5000
vt 0.0300 0.5000
vt 0.0300 0.5000
vt 0.0300 0.5000
vt 0.0300 0.5000
vt 0.0300 0.5000
vt 0.0300 0.5000
vt 0.0300 0.5000
vt 0.0300 0.5000
vt 0.0300 0.5000
vt 0.0300 0.5000
vt 0.0300 0.5000
vt 0.0300 0.5000
vt 0.0300 0.5000
vt 0.0300 0.5000
vt 0.0300 0.5000
vt 0.0300 0.5000
vt 0.0300 0.5000
vt 0.0300 0.5000
vt 0.0300 0.5000
vt 0.0300 0.5000
vt 0.0300 0.5000
vt 0.0300 0.5000
vt 0.0300 0.5000
vt 0.0300 0.5000
vt 0.0300 0.5000
vt 0.0300 0.5000
vt 0.0300 0.5000
vt 0.0300 0.5000
vt 0.0300 0.5000
vt 0.0300 0.5000
vt 0.0300 0.5000
vt 0.0300 0.5000
vt 0.0300 0.5000
vt 0.0300 0.5000
vt 0.0300 0.5000
vt 0.0300 0.5000
vt 0.0300 0.5000
vt 0.0300 0.5000
vt 0.0300 0.5000
vt 0.0300 0.5000
vt 0.0300 0.5000
vt 0.0300 0.5000
vt 0.0300 0.5000
vt 0.0300 0.5000
vt 0.0300 0.5000
vt 0.0300 0.5000
vt 0.0300 0.5000
vt 0.0300 0.5000
vt 0.0300 0.5000
vt 0.0300 0.5000
vt 0.0300 0.5000
vt 0.0300 0.5000
vt 0.0300 0.5000
vt 0.0300 0.5000
vt 0.0300 0.5000
vt 0.0300 0.5000
vt 0.0300 0.5000
vt 0.0300 0.5000
vt 0.0300 0.5000
vt 0.0300 0.5000
vt 0.0300 0.5000
vt 0.0300 0.5000
vt 0.0300 0.5000
vt 0.0300 0.5000
vt 0.0300 0.5000
vt 0.0300 0.5000
vt 0.0300 0.5000
vt 0.0300 0.5000
vt 0.0300 0.5000
vt 0.0300 0.5000
vt 0.0300 0.5000
vt 0.0300 0.5000
vt 0.0300 0.5000
vt 0.0300 0.5000
vt 0.0300 0.5000
vt 0.0300 0.5000
vt 0.0300 0.5000
vt 0.0300 0.5000
vt 0.0300 0.5000
vt 0.0300 0.5000
vt 0.0300 0.5000
vt 0.0300 0.5000
vt 0.0300 0.5000
vt 0.0300 0.5000
vt 0.0300 0.5000
vt 0.0300 0.5000
vt 0.0300 0.5000
vt 0.0300 0.5000
vt 0.0300 0.5000
vt 0.0300 0.5000
vt 0.0300 0.5000
vt 0.0300 0.5000
vt 0.0300 0.5000
vt 0.0300 0.5000
vt 0.0300 0.5000
vt 0.0300 0.5000
vt 0.0300 0.5000
vt 0.0300 0.5000
vt 0.0300 0.5000
vt 0.0300 0.5000
vt 0.0300 0.5000
vt 0.0300 0.5000
vt 0.0300 0.5000
vt 0.0300 0.5000
vt 0.0300 0.5000
vt 0.0300 0.5000
vt 0.0300 0.5000
vt 0.0300 0.5000
vt 0.0300 0.5000
vt 0.0300 0.5000
vt 0.0300 0.5000
vt 0.0300 0.5000
vt 0.0300 0.5000
vt 0.0300 0.5000
vt 0.0300 0.5000
vt 0.0300 0.5000
vt 0.0300 0.5000
vt 0.0300 0.5000
vt 0.0300 0.5000
vt 0.0300 0.5000
vt 0.0300 0.5000
vt 0.0300 0.5000
vt 0.0300 0.5000
vt 0.0300 0.5000
vt 0.0300 0.5000
vt 0.0300 0.5000
vt 0.0300 0.5000
vt 0.0300 0.5000
vt 0.0300 0.5000
vt 0.0300 0.5000
vt 0.0300 0.5000
vt 0.0300 0.5000
vt 0.0300 0.5000
vt 0.0300 0.5000
vt 0.0300 0.5000
vt 0.0300 0.5000
vt 0.0300 0.5000
vt 0.0300 0.5000
vt 0.0300 0.5000
vt 0.0300 0.5000
vt 0.0300 0.5000
vt 0.0300 0.5000
vt 0.0300 0.5000
vt 0.0300 0.5000
vt 0.0300 0.5000
vt 0.0300 0.5000
vt 0.0300 0.5000
vt 0.0300 0.5000
vt 0.0300 0.5000
vt 0.0300 0.5000
vt 0.0300 0.5000
vt 0.0300 0.5000
vt 0.0300 0.5000
vt 0.0300 0.5000
vt 0.0300 0.5000
vt 0.0300 0.5000
vt 0.0300 0.5000
vt 0.0300 0.5000
vt 0.0300 0.5000
vt 0.0300 0.5000
vt 0.0300 0.5000
vt 0.0300 0.5000
vt 0.0300 0.5000
vt 0.0300 0.5000
vt 0.0300 0.5000
vt 0.0300 0.5000
vt 0.0300 0.5000
vt 0.0300 0.5000
vt 0.0300 0.5000
vt 0.0300 0.5000
vt 0.0300 0.5000
vt 0.0300 0.5000
vt 0.0300 0.5000
vt 0.0300 0.5000
vt 0.0300 0.5000
vt 0.0300 0.5000
vt 0.0300 0.5000
vt 0.0300 0.5000
vt 0.0300 0.5000
vt 0.0300 0.5000
vt 0.0300 0.5000
vt 0.0300 0.5000
vt 0.0300 0.5000
vt 0.0300 0.5000
vt 0.0300 0.5000
vt 0.0300 0.5000
vt 0.0300 0.5000
vt 0.0300 0.5000
vt 0.0300 0.5000
vt 0.0300 0.5000
vt 0.0300 0.5000
vt 0.0300 0.5000
vt 0.0300 0.5000
vt 0.0300 0.5000
vt 0.0300 0.5000
vt 0.0300 0.5000
vt 0.0300 0.5000
vt 0.0300 0.5000
vt 0.0300 0.5000
vt 0.0300 0.5000
vt 0.0300 0.5000
vt 0.0300 0.5000
vt 0.0300 0.5000
vt 0.0300 0.5000
vt 0.0300 0.5000
vt 0.0300 0.5000
vt 0.0300 0.5000
vt 0.0300 0.5000
vt 0.0300 0.5000
vt 0.0300 0.5000
vt 0.0300 0.5000
vt 0.0300 0.5000
vt 0.0300 0.5000
vt 0.0300 0.5000
vt 0.0300 0.5000
vt 0.0300 0.5000
vt 0.0300 0.5000
vt 0.0300 0.5000
vt 0.0300 0.5000
vt 0.0300 0.5000
vt 0.0300 0.5000
vt 0.0300 0.5000
vt 0.0300 0.5000
vt 0.0300 0.5000
vt 0.0300 0.5000
vt 0.0300 0.5000
vt 0.0300 0.5000
vt 0.0300 0.5000
vt 0.0300 0.5000
vt 0.0300 0.5000
vt 0.0300 0.5000
vt 0.0300 0.5000
vt 0.0300 0.5000
vt 0.0300 0.5000
vt 0.0300 0.5000
vt 0.0300 0.5000
vt 0.0300 0.5000
vt 0.0300 0.5000
vt 0.0300 0.5000
vt 0.0300 0.5000
vt 0.0300 0.5000
vt 0.0300 0.5000
vt 0.0300 0.5000
vt 0.0300 0.5000
vt 0.0300 0.5000
vt 0.0300 0.5000
vt 0.0300 0.5000
vt 0.0300 0.5000
vt 0.0300 0.5000
vt 0.0300 0.5000
vt 0.0300 0.5000
vt 0.0300 0.5000
vt 0.0300 0.5000
vt 0.0300 0.5000
vt 0.0300 0.5000
vt 0.0300 0.5000
vt 0.0300 0.5000
vt 0.0300 0.5000
vt 0.0300 0.5000
vt 0.0300 0.5000
vt 0.0300 0.5000
vt 0.0300 0.5000
vt 0.0300 0.5000
vt 0.0300 0.5000
vt 0.0300 0.5000
vt 0.0300 0.5000
vt 0.0300 0.5000
vt 0.0300 0.5000
vt 0.0300 0.5000
vt 0.0300 0.5000
vt 0.0300 0.5000
vt 0.0300 0.5000
vt 0.0300 0.5000
vt 0.0300 0.5000
vt 0.0300 0.5000
vt 0.0300 0.5000
vt 0.0300 0.5000
vt 0.0300 0.5000
vt 0.0300 0.5000
vt 0.0300 0.5000
vt 0.0300 0.5000
vt 0.0300 0.5000
vt 0.0300 0.5000
vt 0.0300 0.5000
vt 0.0300 0.5000
vt 0.0300 0.5000
vt 0.0300 0.5000
vt 0.0300 0.5000
vt 0.0300 0.5000
vt 0.0300 0.5000
vt 0.0300 0.5000
vt 0.0300 0.5000
vt 0.0300 0.5000
vt 0.0300 0.5000
vt 0.0300 0.5000
vt 0.0300 0.5000
vt 0.0300 0.5000
vt 0.0300 0.5000
vt 0.0300 0.5000
vt 0.0300 0.5000
vt 0.0300 0.5000
vt 0.0300 0.5000
vt 0.0300 0.5000
vt 0.0300 0.5000
vt 0.0300 0.5000
vt 0.0300 0.5000
vt 0.0300 0.5000
vt 0.0300 0.5000
vt 0.0300 0.5000
vt 0.0300 0.5000
vt 0.0300 0.5000
vt 0.0300 0.5000
vt 0.0300 0.5000
vt 0.0300 0.5000
vt 0.0300 0.5000
vt 0.0300 0.5000
vt 0.0300 0.5000
vt 0.0300 0.5000
vt 0.0300 0.5000
vt 0.0300 0.5000
vt 0.0300 0.5000
vt 0.0300 0.5000
vt 0.0300 0.5000
vt 0.0300 0.5000
vt 0.0300 0.5000
vt 0.0300 0.5000
vt 0.0300 0.5000
vt 0.0300 0.5000
vt 0.0300 0.5000
vt 0.0300 0.5000
vt 0.0300 0.5000
vt 0.0300 0.5000
vt 0.0300 0.5000
vt 0.0300 0.5000
vt 0.0300 0.5000
vt 0.0300 0.5000
vt 0.0300 0.5000
vt 0.0300 0.5000
vt 0.0300 0.5000
vt 0.0300 0.5000
vt 0.0300 0.5000
vt 0.0300 0.5000
vt 0.0300 0.5000
vt 0.0300 0.5000
vt 0.0300 0.5000
vt 0.0300 0.5000
vt 0.0300 0.5000
vt 0.0300 0.5000
vt 0.0300 0.5000
vt 0.0300 0.5000
vt 0.0300 0.5000
vt 0.0300 0.5000
vt 0.0300 0.5000
vt 0.0300 0.5000
vt 0.0300 0.5000
vt 0.0300 0.5000
vt 0.0300 0.5000
vt 0.0300 0.5000
vt 0.0300 0.5000
vt 0.0300 0.5000
vt 0.0300 0.5000
vt 0.0300 0.5000
vt 0.0300 0.5000
vt 0.0300 0.5000
vt 0.0300 0.5000
vt 0.0300 0.5000
vt 0.0300 0.5000
vt 0.0300 0.5000
vt 0.0300 0.5000
vt 0.0300 0.5000
vt 0.0300 0.5000
vt 0.0300 0.5000
vt 0.0300 0.5000
vt 0.0300 0.5000
vt 0.0300 0.5000
vt 0.0300 0.5000
vt 0.0300 0.5000
vt 0.0300 0.5000
vt 0.0300 0.5000
vt 0.0300 0.5000
vt 0.0300 0.5000
vt 0.0300 0.5000
vt 0.0300 0.5000
vt 0.0300 0.5000
vt 0.0300 0.5000
vt 0.0300 0.5000
vt 0.0300 0.5000
vt 0.0300 0.5000
vt 0.0300 0.5000
vt 0.0300 0.5000
vt 0.0300 0.5000
vt 0.0300 0.5000
vt 0.0300 0.5000
vt 0.0300 0.5000
vt 0.0300 0.5000
vt 0.0300 0.5000
vt 0.0300 0.5000
vt 0.0300 0.5000
vt 0.0300 0.5000
vt 0.0300 0.5000
vt 0.0300 0.5000
vt 0.0300 0.5000
vt 0.0300 0.5000
vt 0.0300 0.5000
vt 0.0300 0.5000
vt 0.0300 0.5000
vt 0.0300 0.5000
vt 0.0300 0.5000
vt 0.0300 0.5000
vt 0.0300 0.5000
vt 0.0300 0.5000
vt 0.0300 0.5000
vt 0.0300 0.5000
vt 0.0300 0.5000
vt 0.0300 0.5000
vt 0.0300 0.5000
vt 0.0300 0.5000
vt 0.0300 0.5000
vt 0.0300 0.5000
vt 0.0300 0.5000
vt 0.0300 0.5000
vt 0.0300 0.5000
vt 0.0300 0.5000
vt 0.0300 0.5000
vt 0.0300 0.5000
vt 0.0300 0.5000
vt 0.0300 0.5000
vt 0.0300 0.5000
vt 0.0300 0.5000
vt 0.0300 0.5000
vt 0.0300 0.5000
vt 0.0300 0.5000
vt 0.0300 0.5000
vt 0.0300 0.5000
vt 0.0300 0.5000
vt 0.0300 0.5000
vt 0.0300 0.5000
vt 0.0300 0.5000
vt 0.0300 0.5000
vt 0.0300 0.5000
vt 0.0300 0.5000
vt 0.0300 0.5000
vt 0.0300 0.5000
vt 0.0300 0.5000
vt 0.0300 0.5000
vt 0.0300 0.5000
vt 0.0300 0.5000
vt 0.0300 0.5000
vt 0.0300 0.5000
vt 0.0300 0.5000
vt 0.0300 0.5000
vt 0.0300 0.5000
vt 0.0300 0.5000
vt 0.0300 0.5000
vt 0.0300 0.5000
vt 0.0300 0.5000
vt 0.0300 0.5000
vt 0.0300 0.5000
vt 0.0300 0.5000
vt 0.0300 0.5000
vt 0.0300 0.5000
vt 0.0300 0.5000
vt 0.0300 0.5000
vt 0.0300 0.5000
vt 0.0300 0.5000
vt 0.0300 0.5000
vt 0.0300 0.5000
vt 0.0300 0.5000
vt 0.0300 0.5000
vt 0.0300 0.5000
vt 0.0300 0.5000
vt 0.0300 0.5000
vt 0.0300 0.5000
vt 0.0300 0.5000
vt 0.0300 0.5000
vt 0.0300 0.5000
vt 0.0300 0.5000
vt 0.0300 0.5000
vt 0.0300 0.5000
vt 0.0300 0.5000
vt 0.0300 0.5000
vt 0.0300 0.5000
vt 0.0300 0.5000
vt 0.0300 0.5000
vt 0.0300 0.5000
vt 0.0300 0.5000
vt 0.0300 0.5000
vt 0.0300 0.5000
vt 0.0300 0.5000
vt 0.0300 0.5000
vt 0.0300 0.5000
vt 0.0300 0.5000
vt 0.0300 0.5000
vt 0.0300 0.5000
vt 0.0300 0.5000
vt 0.0300 0.5000
vt 0.0300 0.5000
vt 0.0300 0.5000
vt 0.0300 0.5000
vt 0.0300 0.5000
vt 0.0300 0.5000
vt 0.0300 0.5000
vt 0.0300 0.5000
vt 0.0300 0.5000
vt 0.0300 0.5000
vt 0.0300 0.5000
vt 0.0300 0.5000
vt 0.0300 0.5000
vt 0.0300 0.5000
vt 0.0300 0.5000
vt 0.0300 0.5000
vt 0.0300 0.5000
vt 0.0300 0.5000
vt 0.0300 0.5000
vt 0.0300 0.5000
vt 0.0300 0.5000
vt 0.0300 0.5000
vt 0.0300 0.5000
vt 0.0300 0.5000
vt 0.0300 0.5000
vt 0.0300 0.5000
vt 0.0300 0.5000
vt 0.0300 0.5000
vt 0.0300 0.5000
vt 0.0300 0.5000
vt 0.0300 0.5000
vt 0.0300 0.5000
vt 0.0300 0.5000
vt 0.0300 0.5000
vt 0.0300 0.5000
vt 0.0300 0.5000
vt 0.0300 0.5000
vt 0.0300 0.5000
vt 0.0300 0.5000
vt 0.0300 0.5000
vt 0.0300 0.5000
vt 0.0300 0.5000
vt 0.0300 0.5000
vt 0.0300 0.5000
vt 0.0300 0.5000
vt 0.0300 0.5000
vt 0.0300 0.5000
vt 0.0300 0.5000
vt 0.0300 0.5000
vt 0.0300 0.5000
vt 0.0300 0.5000
vt 0.0300 0.5000
vt 0.0300 0.5000
vt 0.0300 0.5000
vt 0.0300 0.5000
vt 0.0300 0.5000
vt 0.0300 0.5000
vt 0.0300 0.5000
vt 0.0300 0.5000
vt 0.0300 0.5000
vt 0.0300 0.5000
vt 0.0300 0.5000
vt 0.0300 0.5000
vt 0.0300 0.5000
vt 0.0300 0.5000
vt 0.0300 0.5000
vt 0.0300 0.5000
vt 0.0300 0.5000
vt 0.0300 0.5000
vt 0.0300 0.5000
vt 0.0300 0.5000
vt 0.0300 0.5000
vt 0.0300 0.5000
vt 0.0300 0.5000
vt 0.0300 0.5000
vt 0.0300 0.5000
vt 0.0300 0.5000
vt 0.0300 0.5000
vt 0.0300 0.5000
vt 0.0300 0.5000
vt 0.0300 0.5000
vt 0.0300 0.5000
vt 0.0300 0.5000
vt 0.0300 0.5000
vt 0.0300 0.5000
vt 0.0300 0.5000
vt 0.0300 0.5000
vt 0.0300 0.5000
vt 0.0300 0.5000
vt 0.0300 0.5000
vt 0.0300 0.5000
vt 0.0300 0.5000
vt 0.0300 0.5000
vt 0.0300 0.5000
vt 0.0300 0.5000
vt 0.0300 0.5000
vt 0.0300 0.5000
vt 0.0300 0.5000
vt 0.0300 0.5000
vt 0.0300 0.5000
vt 0.0300 0.5000
vt 0.0300 0.5000
vt 0.0300 0.5000
vt 0.0300 0.5000
vt 0.0300 0.5000
vt 0.0300 0.5000
vt 0.0300 0.5000
vt 0.0300 0.5000
vt 0.0300 0.5000
vt 0.0300 0.5000
vt 0.0300 0.5000
vt 0.0300 0.5000
vt 0.0300 0.5000
vt 0.0300 0.5000
vt 0.0300 0.5000
vt 0.0300 0.5000
vt 0.0300 0.5000
vt 0.0300 0.5000
vt 0.0300 0.5000
vt 0.0300 0.5000
vt 0.0300 0.5000
vt 0.0300 0.5000
vt 0.0300 0.5000
vt 0.0300 0.5000
vt 0.0300 0.5000
vt 0.0300 0.5000
vt 0.0300 0.5000
vt 0.0300 0.5000
vt 0.0300 0.5000
vt 0.0300 0.5000
vt 0.0300 0.5000
vt 0.0300 0.5000
vt 0.0300 0.5000
vt 0.0300 0.5000
vt 0.0300 0.5000
vt 0.0300 0.5000
vt 0.0300 0.5000
vt 0.0300 0.5000
vt 0.0300 0.5000
vt 0.0300 0.5000
vt 0.0300 0.5000
vt 0.0300 0.5000
vt 0.0300 0.5000
vt 0.0300 0.5000
vt 0.0300 0.5000
vt 0.0300 0.5000
vt 0.0300 0.5000
vt 0.0300 0.5000
vt 0.0300 0.5000
vt 0.0300 0.5000
vt 0.0300 0.5000
vt 0.0300 0.5000
vt 0.0300 0.5000
vt 0.0300 0.5000
vt 0.0300 0.5000
vt 0.0300 0.5000
vt 0.0300 0.5000
vt 0.0300 0.5000
vt 0.0300 0.5000
vt 0.0300 0.5000
vt 0.0300 0.5000
vt 0.0300 0.5000
vt 0.0300 0.5000
vt 0.0300 0.5000
vt 0.0300 0.5000
vt 0.0300 0.5000
vt 0.0300 0.5000
vt 0.0300 0.5000
vt 0.0300 0.5000
vt 0.0300 0.5000
vt 0.0300 0.5000
vt 0.0300 0.5000
vt 0.0300 0.5000
vt 0.0300 0.5000
vt 0.0300 0.5000
vt 0.0300 0.5000
vt 0.0300 0.5000
vt 0.0300 0.5000
vt 0.0300 0.5000
vt 0.0300 0.5000
vt 0.0300 0.5000
vt 0.0300 0.5000
vt 0.0300 0.5000
vt 0.0300 0.5000
vt 0.0300 0.5000
vt 0.0300 0.5000
vt 0.0300 0.5000
vt 0.0300 0.5000
vt 0.0300 0.5000
vt 0.0300 0.5000
vt 0.0300 0.5000
vt 0.0300 0.5000
vt 0.0300 0.5000
vt 0.0300 0.5000
vt 0.0300 0.5000
vt 0.0300 0.5000
vt 0.0300 0.5000
vt 0.0300 0.5000
vt 0.0300 0.5000
vt 0.0300 0.5000
vt 0.0300 0.5000
vt 0.0300 0.5000
vt 0.0300 0.5000
vt 0.0300 0.5000
vt 0.0300 0.5000
vt 0.0300 0.5000
vt 0.0300 0.5000
vt 0.0300 0.5000
vt 0.0300 0.5000
vt 0.0300 0.5000
vt 0.0300 0.5000
vt 0.0300 0.5000
vt 0.0300 0.5000
vt 0.0300 0.5000
vt 0.0300 0.5000
vt 0.0300 0.5000
vt 0.0300 0.5000
vt 0.0300 0.5000
vt 0.0300 0.5000
vt 0.0300 0.5000
vt 0.0300 0.5000
vt 0.0300 0.5000
vt 0.0300 0.5000
vt 0.0300 0.5000
vt 0.0300 0.5000
vt 0.0300 0.5000
vt 0.0300 0.5000
vt 0.0300 0.5000
vt 0.0300 0.5000
vt 0.0300 0.5000
vt 0.0300 0.5000
vt 0.0300 0.5000
vt 0.0300 0.5000
vt 0.0300 0.5000
vt 0.0300 0.5000
vt 0.0300 0.5000
vt 0.0300 0.5000
vt 0.0300 0.5000
vt 0.0300 0.5000
vt 0.0300 0.5000
vt 0.0300 0.5000
vt 0.0300 0.5000
vt 0.0300 0.5000
vt 0.0300 0.5000
vt 0.0300 0.5000
vt 0.0300 0.5000
vt 0.0300 0.5000
vt 0.0300 0.5000
vt 0.0300 0.5000
vt 0.0300 0.5000
vt 0.0300 0.5000
vt 0.0300 0.5000
vt 0.0300 0.5000
vt 0.0300 0.5000
vt 0.0300 0.5000
vt 0.0300 0.5000
vt 0.0300 0.5000
vt 0.0300 0.5000
vt 0.0300 0.5000
vt 0.0300 0.5000
vt 0.0300 0.5000
vt 0.0300 0.5000
vt 0.0300 0.5000
vt 0.0300 0.5000
vt 0.0300 0.5000
vt 0.0300 0.5000
vt 0.0300 0.5000
vt 0.0300 0.5000
vt 0.0300 0.5000
vt 0.0300 0.5000
vt 0.0300 0.5000
vt 0.0300 0.5000
vt 0.0300 0.5000
vt 0.0300 0.5000
vt 0.0300 0.5000
vt 0.0300 0.5000
vt 0.0300 0.5000
vt 0.0300 0.5000
vt 0.0300 0.5000
vt 0.0300 0.5000
vt 0.0300 0.5000
vt 0.0300 0.5000
vt 0.0300 0.5000
vt 0.0300 0.5000
vt 0.0300 0.5000
vt 0.0300 0.5000
vt 0.0300 0.5000
vt 0.0300 0.5000
vt 0.0300 0.5000
vt 0.0300 0.5000
vt 0.0300 0.5000
vt 0.0300 0.5000
vt 0.0300 0.5000
vt 0.0300 0.5000
vt 0.0300 0.5000
vt 0.0300 0.5000
vt 0.0300 0.5000
vt 0.0300 0.5000
vt 0.0300 0.5000
vt 0.0300 0.5000
vt 0.0300 0.5000
vt 0.0300 0.5000
vt 0.0300 0.5000
vt 0.0300 0.5000
vt 0.0300 0.5000
vt 0.0300 0.5000
vt 0.0300 0.5000
vt 0.0300 0.5000
vt 0.0300 0.5000
vt 0.0300 0.5000
vt 0.0300 0.5000
vt 0.0300 0.5000
vt 0.0300 0.5000
vt 0.0300 0.5000
vt 0.0300 0.5000
vt 0.0300 0.5000
vt 0.0300 0.5000
vt 0.0300 0.5000
vt 0.0300 0.5000
vt 0.0300 0.5000
vt 0.0300 0.5000
vt 0.0300 0.5000
vt 0.0300 0.5000
vt 0.0300 0.5000
vt 0.0300 0.5000
vt 0.0300 0.5000
vt 0.0300 0.5000
vt 0.0300 0.5000
vt 0.0300 0.5000
vt 0.0300 0.5000
vt 0.0300 0.5000
vt 0.0300 0.5000
vt 0.0300 0.5000
vt 0.0300 0.5000
vt 0.0300 0.5000
vt 0.0300 0.5000
vt 0.0300 0.5000
vt 0.0300 0.5000
vt 0.0300 0.5000
vt 0.0300 0.5000
vt 0.0300 0.5000
vt 0.0300 0.5000
vt 0.0300 0.5000
vt 0.0300 0.5000
vt 0.0300 0.5000
vt 0.0300 0.5000
vt 0.0300 0.5000
vt 0.0300 0.5000
vt 0.0300 0.5000
vt 0.0300 0.5000
vt 0.0300 0.5000
vt 0.0300 0.5000
vt 0.0300 0.5000
vt 0.0300 0.5000
vt 0.0300 0.5000
vt 0.0300 0.5000
vt 0.0300 0.5000
vt 0.0300 0.5000
vt 0.0300 0.5000
vt 0.0300 0.5000
vt 0.0300 0.5000
vt 0.0300 0.5000
vt 0.0300 0.5000
vt 0.0300 0.5000
vt 0.0300 0.5000
vt 0.0300 0.5000
vt 0.0300 0.5000
vt 0.0300 0.5000
vt 0.0300 0.5000
vt 0.0300 0.5000
vt 0.0300 0.5000
vt 0.0300 0.5000
vt 0.0300 0.5000
vt 0.0300 0.5000
vt 0.0300 0.5000
vt 0.0300 0.5000
vt 0.0300 0.5000
vt 0.0300 0.5000
vt 0.0300 0.5000
vt 0.0300 0.5000
vt 0.0300 0.5000
vt 0.0300 0.5000
vt 0.0300 0.5000
vt 0.0300 0.5000
vt 0.0300 0.5000
vt 0.0300 0.5000
vt 0.0300 0.5000
vt 0.0300 0.5000
vt 0.0300 0.5000
vt 0.0300 0.5000
vt 0.0300 0.5000
vt 0.0300 0.5000
vt 0.0300 0.5000
vt 0.0300 0.5000
vt 0.0300 0.5000
vt 0.0300 0.5000
vt 0.0300 0.5000
vt 0.0300 0.5000
vt 0.0300 0.5000
vt 0.0300 0.5000
vt 0.0300 0.5000
vt 0.0300 0.5000
vt 0.0300 0.5000
vt 0.0300 0.5000
vt 0.0300 0.5000
vt 0.0300 0.5000
vt 0.0300 0.5000
vt 0.0300 0.5000
vt 0.0300 0.5000
vt 0.0300 0.5000
vt 0.0300 0.5000
vt 0.0300 0.5000
vt 0.0300 0.5000
vt 0.0300 0.5000
vt 0.0300 0.5000
vt 0.0300 0.5000
vt 0.0300 0.5000
vt 0.0300 0.5000
vt 0.0300 0.5000
vt 0.0300 0.5000
vt 0.0300 0.5000
vt 0.0300 0.5000
vt 0.0300 0.5000
vt 0.0300 0.5000
vt 0.0300 0.5000
vt 0.0300 0.5000
vt 0.0300 0.5000
vt 0.0300 0.5000
vt 0.0300 0.5000
vt 0.0300 0.5000
vt 0.0300 0.5000
vt 0.0300 0.5000
vt 0.0300 0.5000
vt 0.0300 0.5000
vt 0.0300 0.5000
vt 0.0300 0.5000
vt 0.0300 0.5000
vt 0.0300 0.5000
vt 0.0300 0.5000
vt 0.0300 0.5000
vt 0.0300 0.5000
vt 0.0300 0.5000
vt 0.0300 0.5000
vt 0.0300 0.5000
vt 0.0300 0.5000
vt 0.0300 0.5000
vt 0.0300 0.5000
vt 0.0300 0.5000
vt 0.0300 0.5000
vt 0.0300 0.5000
vt 0.0300 0.5000
vt 0.0300 0.5000
vt 0.0300 0.5000
vt 0.0300 0.5000
vt 0.0300 0.5000
vt 0.0300 0.5000
vt 0.0300 0.5000
vt 0.0300 0.5000
vt 0.0300 0.5000
vt 0.0300 0.5000
vt 0.0300 0.5000
vt 0.0300 0.5000
vt 0.0300 0.5000
vt 0.0300 0.5000
vt 0.0300 0.5000
vt 0.0300 0.5000
vt 0.0300 0.5000
vt 0.0300 0.5000
vt 0.0300 0.5000
vt 0.0300 0.5000
vt 0.0300 0.5000
vt 0.0300 0.5000
vt 0.0300 0.5000
vt 0.0300 0.5000
vt 0.0300 0.5000
vt 0.0300 0.5000
vt 0.0300 0.5000
vt 0.0300 0.5000
vt 0.0300 0.5000
vt 0.0300 0.5000
vt 0.0300 0.5000
vt 0.0300 0.5000
vt 0.0300 0.5000
vt 0.0300 0.5000
vt 0.0300 0.5000
vt 0.0300 0.5000
vt 0.0300 0.5000
vt 0.0300 0.5000
vt 0.0300 0.5000
vt 0.0300 0.5000
vt 0.0300 0.5000
vt 0.0300 0.5000
vt 0.0300 0.5000
vt 0.0300 0.5000
vt 0.0300 0.5000
vt 0.0300 0.5000
vt 0.0300 0.5000
vt 0.0300 0.5000
vt 0.0300 0.5000
vt 0.0300 0.5000
vt 0.0300 0.5000
vt 0.0300 0.5000
vt 0.0300 0.5000
vt 0.0300 0.5000
vt 0.0300 0.5000
vt 0.0300 0.5000
vt 0.0300 0.5000
vt 0.0300 0.5000
vt 0.0300 0.5000
vt 0.0300 0.5000
vt 0.0300 0.5000
vt 0.0300 0.5000
vt 0.0300 0.5000
vt 0.0300 0.5000
vt 0.0300 0.5000
vt 0.0300 0.5000
vt 0.0300 0.5000
vt 0.0300 0.5000
vt 0.0300 0.5000
vt 0.0300 0.5000
vt 0.0300 0.5000
vt 0.0300 0.5000
vt 0.0300 0.5000
vt 0.0300 0.5000
vt 0.0300 0.5000
vt 0.0300 0.5000
vt 0.0300 0.5000
vt 0.0300 0.5000
vt 0.0300 0.5000
vt 0.0300 0.5000
vt 0.0300 0.5000
vt 0.0300 0.5000
vt 0.0300 0.5000
vt 0.0300 0.5000
vt 0.0300 0.5000
vt 0.0300 0.5000
vt 0.0300 0.5000
vt 0.0300 0.5000
vt 0.0300 0.5000
vt 0.0300 0.5000
vt 0.0300 0.5000
vt 0.0300 0.5000
vt 0.0300 0.5000
vt 0.0300 0.5000
vt 0.0300 0.5000
vt 0.0300 0.5000
vt 0.0300 0.5000
vt 0.0300 0.5000
vt 0.0300 0.5000
vt 0.0300 0.5000
vt 0.0300 0.5000
vt 0.0300 0.5000
vt 0.0300 0.5000
vt 0.0300 0.5000
vt 0.0300 0.5000
vt 0.0300 0.5000
vt 0.0300 0.5000
vt 0.0300 0.5000
vt 0.0300 0.5000
vt 0.0300 0.5000
vt 0.0300 0.5000
vt 0.0300 0.5000
vt 0.0300 0.5000
vt 0.0300 0.5000
vt 0.0300 0.5000
vt 0.0300 0.5000
vt 0.0300 0.5000
vt 0.0300 0.5000
vt 0.0300 0.5000
vt 0.0300 0.5000
vt 0.0300 0.5000
vt 0.0300 0.5000
vt 0.0300 0.5000
vt 0.0300 0.5000
vt 0.0300 0.5000
vt 0.0300 0.5000
vt 0.0300 0.5000
vt 0.0300 0.5000
vt 0.0300 0.5000
vt 0.0300 0.5000
vt 0.0300 0.5000
vt 0.0300 0.5000
vt 0.0300 0.5000
vt 0.0300 0.5000
vt 0.0300 0.5000
vt 0.0300 0.5000
vt 0.0300 0.5000
vt 0.0300 0.5000
vt 0.0300 0.5000
vt 0.0300 0.5000
vt 0.0300 0.5000
vt 0.0300 0.5000
vt 0.0300 0.5000
vt 0.0300 0.5000
vt 0.0300 0.5000
vt 0.0300 0.5000
vt 0.0300 0.5000
vt 0.0300 0.5000
vt 0.0300 0.5000
vt 0.0300 0.5000
vt 0.0300 0.5000
vt 0.0300 0.5000
vt 0.0300 0.5000
vt 0.0300 0.5000
vt 0.0300 0.5000
vt 0.0300 0.5000
vt 0.0300 0.5000
vt 0.0300 0.5000
vt 0.0300 0.5000
vt 0.0300 0.5000
vt 0.0300 0.5000
vt 0.0300 0.5000
vt 0.0300 0.5000
vt 0.0300 0.5000
vt 0.0300 0.5000
vt 0.0300 0.5000
vt 0.0300 0.5000
vt 0.0300 0.5000
vt 0.0300 0.5000
vt 0.0300 0.5000
vt 0.0300 0.5000
vt 0.0300 0.5000
vt 0.0300 0.5000
vt 0.0300 0.5000
vt 0.0300 0.5000
vt 0.0300 0.5000
vt 0.0300 0.5000
vt 0.0300 0.5000
vt 0.0300 0.5000
vt 0.0300 0.5000
vt 0.0300 0.5000
vt 0.0300 0.5000
vt 0.0300 0.5000
vt 0.0300 0.5000
vt 0.0300 0.5000
vt 0.0300 0.5000
vt 0.0300 0.5000
vt 0.0300 0.5000
vt 0.0300 0.5000
vt 0.0300 0.5000
vt 0.0300 0.5000
vt 0.0300 0.5000
vt 0.0300 0.5000
vt 0.0300 0.5000
vt 0.0300 0.5000
vt 0.0300 0.5000
vt 0.0300 0.5000
vt 0.0300 0.5000
vt 0.0300 0.5000
vt 0.0300 0.5000
vt 0.0300 0.5000
vt 0.0300 0.5000
vt 0.0300 0.5000
vt 0.0300 0.5000
vt 0.0300 0.5000
vt 0.0300 0.5000
vt 0.0300 0.5000
vt 0.0300 0.5000
vt 0.0300 0.5000
vt 0.0300 0.5000
vt 0.0300 0.5000
vt 0.0300 0.5000
vt 0.0300 0.5000
vt 0.0300 0.5000
vt 0.0300 0.5000
vt 0.0300 0.5000
vt 0.0300 0.5000
vt 0.0300 0.5000
vt 0.0300 0.5000
vt 0.0300 0.5000
vt 0.0300 0.5000
vt 0.0300 0.5000
vt 0.0300 0.5000
vt 0.0300 0.5000
vt 0.0300 0.5000
vt 0.0300 0.5000
vt 0.0300 0.5000
vt 0.0300 0.5000
vt 0.0300 0.5000
vt 0.0300 0.5000
vt 0.0300 0.5000
vt 0.0300 0.5000
vt 0.0300 0.5000
vt 0.0300 0.5000
vt 0.0300 0.5000
vt 0.0300 0.5000
vt 0.0300 0.5000
vt 0.0300 0.5000
vt 0.0300 0.5000
vt 0.0300 0.5000
vt 0.0300 0.5000
vt 0.0300 0.5000
vt 0.0300 0.5000
vt 0.0300 0.5000
vt 0.0300 0.5000
vt 0.0300 0.5000
vt 0.0300 0.5000
vt 0.0300 0.5000
vt 0.0300 0.5000
vt 0.0300 0.5000
vt 0.0300 0.5000
vt 0.0300 0.5000
vt 0.0300 0.5000
vt 0.0300 0.5000
vt 0.0300 0.5000
vt 0.0300 0.5000
vt 0.0300 0.5000
vt 0.0300 0.5000
vt 0.0300 0.5000
vt 0.0300 0.5000
vt 0.0300 0.5000
vt 0.0300 0.5000
vt 0.0300 0.5000
vt 0.0300 0.5000
vt 0.0300 0.5000
vt 0.0300 0.5000
vt 0.0300 0.5000
vt 0.0300 0.5000
vt 0.0300 0.5000
vt 0.0300 0.5000
vt 0.0300 0.5000
vt 0.0300 0.5000
vt 0.0300 0.5000
vt 0.0300 0.5000
vt 0.0300 0.5000
vt 0.0300 0.5000
vt 0.0300 0.5000
vt 0.0300 0.5000
vt 0.0300 0.5000
vt 0.0300 0.5000
vt 0.0300 0.5000
vt 0.0300 0.5000
vt 0.0300 0.5000
vt 0.0300 0.5000
vt 0.0300 0.5000
vt 0.0300 0.5000
vt 0.0300 0.5000
vt 0.0300 0.5000
vt 0.0300 0.5000
vt 0.0300 0.5000
vt 0.0300 0.5000
vt 0.0300 0.5000
vt 0.0300 0.5000
vt 0.0300 0.5000
vt 0.0300 0.5000
vt 0.0300 0.5000
vt 0.0300 0.5000
vt 0.0300 0.5000
vt 0.0300 0.5000
vt 0.0300 0.5000
vt 0.0300 0.5000
vt 0.0300 0.5000
vt 0.0300 0.5000
vt 0.0300 0.5000
vt 0.0300 0.5000
vt 0.0300 0.5000
vt 0.0300 0.5000
vt 0.0300 0.5000
vt 0.0300 0.5000
vt 0.0300 0.5000
vt 0.0300 0.5000
vt 0.0300 0.5000
vt 0.0300 0.5000
vt 0.0300 0.5000
vt 0.0300 0.5000
vt 0.0300 0.5000
vt 0.0300 0.5000
vt 0.0300 0.5000
vt 0.0300 0.5000
vt 0.0300 0.5000
vt 0.0300 0.5000
vt 0.0300 0.5000
vt 0.0300 0.5000
vt 0.0300 0.5000
vt 0.0300 0.5000
vt 0.0300 0.5000
vt 0.0300 0.5000
vt 0.0300 0.5000
vt 0.0300 0.5000
vt 0.0300 0.5000
vt 0.0300 0.5000
vn -0.6927 -0.1778 0.6990
vn -0.9973 -0.0733 0.0074
vn -0.9963 -0.0862 0.0031
vn 0.9986 0.0525 -0.0060
vn 0.6981 0.1553 -0.6990
vn 0.9969 0.0785 0.0013
vn -0.7166 0.0546 -0.6953
vn -0.9963 -0.0862 0.0031
vn -0.7166 0.0516 -0.6956
vn -0.6919 -0.1876 0.6972
vn 0.0170 -0.1754 0.9844
vn -0.6927 -0.1778 0.6990
vn 0.7169 -0.0807 0.6925
vn 0.0170 -0.1754 0.9844
vn 0.0173 -0.1889 0.9819
vn 0.9987 0.0508 -0.0060
vn 0.7169 -0.0807 0.6925
vn 0.7170 -0.0912 0.6911
vn -0.9960 -0.0897 0.0048
vn -0.7181 0.0660 -0.6928
vn -0.7182 0.0783 -0.6914
vn 0.7184 -0.1128 0.6864
vn 0.9985 0.0549 -0.0030
vn 0.7171 -0.1018 0.6895
vn -0.6895 -0.2171 0.6910
vn -0.9960 -0.0897 0.0048
vn -0.9967 -0.0808 0.0056
vn -0.9960 -0.0897 0.0048
vn -0.7182 0.0783 -0.6914
vn -0.7219 0.1043 -0.6841
vn 0.6939 0.1832 -0.6964
vn 0.9985 0.0549 -0.0030
vn 0.9975 0.0709 0.0000
vn 0.7176 -0.1138 0.6871
vn 0.9975 0.0709 0.0000
vn 0.7184 -0.1128 0.6864
vn -0.7219 0.1043 -0.6841
vn -0.0176 0.1925 -0.9811
vn -0.0188 0.2021 -0.9792
vn -0.6866 -0.2202 0.6929
vn 0.0196 -0.2381 0.9711
vn -0.6887 -0.2206 0.6907
vn -0.0221 0.2320 -0.9725
vn -0.7219 0.1043 -0.6841
vn -0.0188 0.2021 -0.9792
vn 0.4278 -0.1656 0.8886
vn 0.9383 -0.1313 0.3200
vn 0.4142 -0.2369 0.8788
vn 0.9072 0.0882 -0.4114
vn 0.9383 -0.1313 0.3200
vn 0.9415 -0.0423 0.3343
vn 0.9058 0.0810 -0.4158
vn 0.3410 0.1583 -0.9266
vn 0.9072 0.0882 -0.4114
vn -0.9023 -0.1201 0.4140
vn -0.3457 -0.1949 0.9179
vn -0.9067 -0.1132 0.4063
vn 0.4268 -0.1768 0.8869
vn 0.9415 -0.0423 0.3343
vn 0.4278 -0.1656 0.8886
vn -0.4335 0.1339 -0.8912
vn 0.3410 0.1583 -0.9266
vn 0.3421 0.1650 -0.9251
vn -0.4230 0.1409 -0.8951
vn -0.9404 0.0237 -0.3393
vn -0.4335 0.1339 -0.8912
vn 0.9058 0.0810 -0.4158
vn 0.9415 -0.0423 0.3343
vn 0.9411 -0.0594 0.3328
vn 0.4268 -0.1768 0.8869
vn -0.3457 -0.1949 0.9179
vn -0.3358 -0.2026 0.9199
vn 0.9395 -0.1149 0.3226
vn 0.9074 0.0551 -0.4167
vn 0.9407 -0.0865 0.3282
vn -0.9024 -0.1092 0.4169
vn -0.9412 0.0520 -0.3337
vn -0.9408 0.0500 -0.3353
vn 0.4260 -0.2276 0.8756
vn -0.3325 -0.2175 0.9177
vn -0.3392 -0.2399 0.9096
vn -0.9046 -0.1173 0.4098
vn -0.3392 -0.2399 0.9096
vn -0.9024 -0.1092 0.4169
vn 0.9027 0.0290 -0.4294
vn 0.3374 0.1535 -0.9288
vn 0.9074 0.0551 -0.4167
vn 0.4244 -0.2492 0.8705
vn 0.9395 -0.1149 0.3226
vn 0.4260 -0.2276 0.8756
vn 0.9027 0.0290 -0.4294
vn 0.9395 -0.1149 0.3226
vn 0.9388 -0.1365 0.3162
vn 0.7051 -0.1570 0.6915
vn 0.0017 -0.2375 0.9714
vn -0.0069 -0.1642 0.9864
vn 0.6999 -0.1135 0.7052
vn 1.0000 -0.0059 -0.0063
vn 0.7051 -0.1570 0.6915
vn 0.6999 -0.1135 0.7052
vn -0.0069 -0.1642 0.9864
vn -0.0079 -0.1729 0.9849
vn -0.7107 -0.1453 0.6883
vn -0.9988 -0.0446 -0.0202
vn -0.9994 -0.0330 -0.0135
vn -0.7108 -0.1400 0.6893
vn -0.0079 -0.1729 0.9849
vn -0.7107 -0.1453 0.6883
vn -0.6989 0.0831 -0.7104
vn 0.0089 0.1463 -0.9892
vn 0.0124 0.1414 -0.9899
vn 0.9993 -0.0385 0.0032
vn 0.7177 0.0955 -0.6898
vn 0.9998 -0.0183 0.0079
vn -0.6994 0.1070 -0.7067
vn 0.0122 0.1519 -0.9883
vn 0.0090 0.1426 -0.9897
vn -0.7106 -0.1392 0.6897
vn -0.9998 -0.0139 -0.0107
vn -0.9997 -0.0195 -0.0134
vn 0.7005 -0.1611 0.6952
vn -0.0036 -0.1949 0.9808
vn -0.0104 -0.2209 0.9752
vn -0.7139 -0.1546 0.6829
vn -0.0104 -0.2209 0.9752
vn -0.7106 -0.1392 0.6897
vn 0.7125 0.0746 -0.6977
vn 0.9993 -0.0385 0.0032
vn 0.9983 -0.0588 -0.0011
vn -0.7003 0.1024 -0.7065
vn -0.9997 -0.0195 -0.0134
vn -0.6994 0.1070 -0.7067
vn -0.5406 -0.2080 0.8151
vn -0.9802 -0.0739 0.1835
vn -0.9769 -0.0858 0.1957
vn 0.9760 0.0037 -0.2175
vn 0.5450 0.1565 -0.8237
vn 0.9770 0.0261 -0.2116
vn -0.8423 0.0991 -0.5298
vn -0.9758 -0.0677 0.2080
vn -0.8424 0.0960 -0.5303
vn 0.5450 0.1565 -0.8237
vn 0.9760 0.0037 -0.2175
vn 0.9743 -0.0173 -0.2248
vn 0.8401 -0.1920 0.5073
vn 0.9743 -0.0173 -0.2248
vn 0.8415 -0.1665 0.5139
vn -0.8423 0.0991 -0.5298
vn -0.2119 0.1946 -0.9577
vn -0.2154 0.1885 -0.9581
vn -0.5319 -0.2134 0.8195
vn -0.9758 -0.0677 0.2080
vn -0.9765 -0.0735 0.2028
vn 0.8401 -0.1920 0.5073
vn 0.2162 -0.2579 0.9417
vn 0.2133 -0.2794 0.9362
vn -0.5392 -0.2317 0.8097
vn 0.2133 -0.2794 0.9362
vn -0.5319 -0.2134 0.8195
vn 0.5370 0.1388 -0.8321
vn -0.2154 0.1885 -0.9581
vn 0.5450 0.1565 -0.8237
vn -0.9963 -0.0862 0.0031
vn -0.9973 -0.0733 0.0074
vn -0.7166 0.0516 -0.6956
vn -0.0153 0.1717 -0.9850
vn 0.6924 0.2079 -0.6909
vn 0.6981 0.1553 -0.6990
vn -0.0135 0.1467 -0.9891
vn 0.9969 0.0785 0.0013
vn 0.7133 -0.0434 0.6995
vn 0.7169 -0.0807 0.6925
vn 0.9986 0.0525 -0.0060
vn 0.6924 0.2079 -0.6909
vn 0.9865 0.1632 0.0109
vn 0.9969 0.0785 0.0013
vn 0.6981 0.1553 -0.6990
vn 0.9865 0.1632 0.0109
vn 0.7004 0.0706 0.7102
vn 0.7133 -0.0434 0.6995
vn 0.9969 0.0785 0.0013
vn -0.6921 -0.1489 0.7063
vn -0.6927 -0.1778 0.6990
vn 0.0170 -0.1754 0.9844
vn 0.0153 -0.1374 0.9904
vn 0.7133 -0.0434 0.6995
vn 0.0153 -0.1374 0.9904
vn 0.0170 -0.1754 0.9844
vn 0.7169 -0.0807 0.6925
vn 0.7004 0.0706 0.7102
vn 0.0057 -0.0226 0.9997
vn 0.0153 -0.1374 0.9904
vn 0.7133 -0.0434 0.6995
vn -0.6971 -0.0567 0.7147
vn -0.6921 -0.1489 0.7063
vn 0.0153 -0.1374 0.9904
vn 0.0057 -0.0226 0.9997
vn -0.9998 -0.0169 0.0141
vn -0.9973 -0.0733 0.0074
vn -0.6921 -0.1489 0.7063
vn -0.6971 -0.0567 0.7147
vn -0.6927 -0.1778 0.6990
vn -0.6921 -0.1489 0.7063
vn -0.9973 -0.0733 0.0074
vn -0.7186 0.0809 -0.6907
vn -0.7166 0.0516 -0.6956
vn -0.9973 -0.0733 0.0074
vn -0.9998 -0.0169 0.0141
vn -0.9773 0.0364 -0.2088
vn -0.9987 0.0221 -0.0460
vn -0.7029 0.2301 -0.6731
vn -0.6597 0.1839 -0.7287
vn -0.8966 -0.1265 -0.4244
vn -0.9773 0.0364 -0.2088
vn -0.6597 0.1839 -0.7287
vn -0.5789 -0.0230 -0.8151
vn -0.9729 -0.2294 0.0281
vn -0.9168 -0.1751 0.3589
vn -0.9773 0.0364 -0.2088
vn -0.8966 -0.1265 -0.4244
vn -0.6911 -0.2053 0.6930
vn -0.9987 0.0221 -0.0460
vn -0.9773 0.0364 -0.2088
vn -0.9168 -0.1751 0.3589
vn 0.8341 0.0115 0.5514
vn 0.8892 -0.0175 0.4572
vn 0.9801 0.1607 -0.1166
vn 0.9770 0.2131 -0.0070
vn 0.8594 0.2679 -0.4355
vn 0.9770 0.2131 -0.0070
vn 0.9801 0.1607 -0.1166
vn 0.6654 0.0346 -0.7457
vn 0.6581 0.3953 -0.6408
vn 0.9758 0.2149 0.0408
vn 0.9770 0.2131 -0.0070
vn 0.8594 0.2679 -0.4355
vn 0.6758 -0.0634 0.7343
vn 0.8341 0.0115 0.5514
vn 0.9770 0.2131 -0.0070
vn 0.9758 0.2149 0.0408
vn 0.6299 0.4265 -0.6491
vn 0.6924 0.2079 -0.6909
vn -0.0153 0.1717 -0.9850
vn -0.0384 0.3631 -0.9309
vn -0.7048 0.2845 -0.6498
vn -0.0384 0.3631 -0.9309
vn -0.0153 0.1717 -0.9850
vn -0.7186 0.0809 -0.6907
vn -0.5756 0.6666 -0.4736
vn -0.0923 0.8075 -0.5826
vn -0.0384 0.3631 -0.9309
vn -0.7048 0.2845 -0.6498
vn 0.4117 0.7784 -0.4740
vn 0.6299 0.4265 -0.6491
vn -0.0384 0.3631 -0.9309
vn -0.0923 0.8075 -0.5826
vn 0.6344 0.3551 0.6867
vn 0.7004 0.0706 0.7102
vn 0.9865 0.1632 0.0109
vn 0.9099 0.4144 0.0189
vn 0.6299 0.4265 -0.6491
vn 0.9099 0.4144 0.0189
vn 0.9865 0.1632 0.0109
vn 0.6924 0.2079 -0.6909
vn 0.4117 0.7784 -0.4740
vn 0.5121 0.8586 0.0249
vn 0.9099 0.4144 0.0189
vn 0.6299 0.4265 -0.6491
vn 0.4170 0.7444 0.5215
vn 0.6344 0.3551 0.6867
vn 0.9099 0.4144 0.0189
vn 0.5121 0.8586 0.0249
vn -0.6928 0.2143 0.6886
vn -0.6971 -0.0567 0.7147
vn 0.0057 -0.0226 0.9997
vn -0.0266 0.2644 0.9640
vn 0.6344 0.3551 0.6867
vn -0.0266 0.2644 0.9640
vn 0.0057 -0.0226 0.9997
vn 0.7004 0.0706 0.7102
vn 0.4170 0.7444 0.5215
vn -0.0876 0.7715 0.6302
vn -0.0266 0.2644 0.9640
vn 0.6344 0.3551 0.6867
vn -0.5726 0.6329 0.5212
vn -0.6928 0.2143 0.6886
vn -0.0266 0.2644 0.9640
vn -0.0876 0.7715 0.6302
vn -0.7048 0.2845 -0.6498
vn -0.7186 0.0809 -0.6907
vn -0.9998 -0.0169 0.0141
vn -0.9768 0.2134 0.0194
vn -0.6928 0.2143 0.6886
vn -0.9768 0.2134 0.0194
vn -0.9998 -0.0169 0.0141
vn -0.6971 -0.0567 0.7147
vn -0.5726 0.6329 0.5212
vn -0.6928 0.7207 0.0247
vn -0.9768 0.2134 0.0194
vn -0.6928 0.2143 0.6886
vn -0.5756 0.6666 -0.4736
vn -0.7048 0.2845 -0.6498
vn -0.9768 0.2134 0.0194
vn -0.6928 0.7207 0.0247
vn -0.0235 -0.9718 -0.2347
vn -0.1712 -0.5028 -0.8472
vn 0.4380 -0.3767 -0.8163
vn 0.6891 -0.6517 -0.3169
vn -0.0235 -0.9718 -0.2347
vn 0.6891 -0.6517 -0.3169
vn 0.6920 -0.6539 0.3060
vn 0.1388 -0.8412 0.5226
vn -0.4637 -0.6872 0.5593
vn -0.7215 -0.6923 -0.0077
vn -0.0235 -0.9718 -0.2347
vn 0.1388 -0.8412 0.5226
vn -0.7177 -0.4100 -0.5629
vn -0.1712 -0.5028 -0.8472
vn -0.0235 -0.9718 -0.2347
vn -0.7215 -0.6923 -0.0077
vn -0.0182 -0.9831 -0.1820
vn -0.7398 -0.6603 -0.1294
vn -0.5996 -0.4097 -0.6875
vn -0.0055 -0.5423 -0.8402
vn -0.0182 -0.9831 -0.1820
vn -0.0055 -0.5423 -0.8402
vn 0.5915 -0.4331 -0.6801
vn 0.7148 -0.6889 -0.1204
vn 0.5800 -0.6498 0.4913
vn -0.0195 -0.8069 0.5904
vn -0.0182 -0.9831 -0.1820
vn 0.7148 -0.6889 -0.1204
vn -0.6111 -0.6264 0.4839
vn -0.7398 -0.6603 -0.1294
vn -0.0182 -0.9831 -0.1820
vn -0.0195 -0.8069 0.5904
vn -0.0217 -0.9760 -0.2169
vn -0.2606 -0.8145 0.5183
vn -0.7720 -0.5905 0.2354
vn -0.6974 -0.6039 -0.3859
vn -0.0217 -0.9760 -0.2169
vn -0.6974 -0.6039 -0.3859
vn -0.3696 -0.3564 -0.8581
vn 0.2307 -0.5288 -0.8168
vn 0.7485 -0.4674 -0.4705
vn 0.6676 -0.7394 0.0874
vn -0.0217 -0.9760 -0.2169
vn 0.2307 -0.5288 -0.8168
vn 0.3461 -0.7014 0.6231
vn -0.2606 -0.8145 0.5183
vn -0.0217 -0.9760 -0.2169
vn 0.6676 -0.7394 0.0874
vn 0.4368 -0.2558 0.8624
vn 0.2582 -0.2926 0.9207
vn -0.2247 -0.5667 0.7927
vn 0.3461 -0.2765 0.8965
vn 0.4368 -0.2558 0.8624
vn 0.3461 -0.2765 0.8965
vn 0.8892 -0.0175 0.4572
vn 0.8341 0.0115 0.5514
vn 0.8341 0.0115 0.5514
vn 0.6758 -0.0634 0.7343
vn 0.2582 -0.2926 0.9207
vn 0.4368 -0.2558 0.8624
vn -0.1149 0.9930 0.0265
vn -0.0923 0.8075 -0.5826
vn -0.5756 0.6666 -0.4736
vn -0.6928 0.7207 0.0247
vn -0.1149 0.9930 0.0265
vn -0.6928 0.7207 0.0247
vn -0.5726 0.6329 0.5212
vn -0.0876 0.7715 0.6302
vn 0.4170 0.7444 0.5215
vn 0.5121 0.8586 0.0249
vn -0.1149 0.9930 0.0265
vn -0.0876 0.7715 0.6302
vn 0.4117 0.7784 -0.4740
vn -0.0923 0.8075 -0.5826
vn -0.1149 0.9930 0.0265
vn 0.5121 0.8586 0.0249
vn -0.0936 0.5797 0.8094
vn -0.0936 0.5797 0.8094
vn -0.0936 0.5797 0.8094
vn -0.0936 0.5797 0.8094
vn 0.2120 0.5715 0.7928
vn 0.2120 0.5715 0.7928
vn 0.2120 0.5715 0.7928
vn 0.2120 0.5715 0.7928
vn 0.2057 0.8035 0.5586
vn 0.2057 0.8035 0.5586
vn 0.2057 0.8035 0.5586
vn 0.2057 0.8035 0.5586
vn -0.1302 0.8223 0.5540
vn -0.1302 0.8223 0.5540
vn -0.1302 0.8223 0.5540
vn -0.1302 0.8223 0.5540
vn 0.8594 0.2679 -0.4355
vn 0.6654 0.0346 -0.7457
vn 0.4635 0.0078 -0.8861
vn 0.6282 0.2219 -0.7458
vn 0.6282 0.2219 -0.7458
vn 0.4635 0.0078 -0.8861
vn 0.1752 0.1547 -0.9723
vn 0.3646 0.3481 -0.8637
vn 0.3646 0.3481 -0.8637
vn 0.6581 0.3953 -0.6408
vn 0.8594 0.2679 -0.4355
vn 0.6282 0.2219 -0.7458
vn 0.6523 0.6559 0.3800
vn 0.6523 0.6559 0.3800
vn 0.6523 0.6559 0.3800
vn 0.6523 0.6559 0.3800
vn 0.7536 0.6510 0.0914
vn 0.7536 0.6510 0.0914
vn 0.7536 0.6510 0.0914
vn 0.7536 0.6510 0.0914
vn 0.5053 0.8629 0.0088
vn 0.5053 0.8629 0.0088
vn 0.5053 0.8629 0.0088
vn 0.5053 0.8629 0.0088
vn 0.3971 0.8616 0.3160
vn 0.3971 0.8616 0.3160
vn 0.3971 0.8616 0.3160
vn 0.3971 0.8616 0.3160
vn -0.0539 -0.4843 -0.8732
vn 0.0638 -0.4065 -0.9114
vn 0.6654 0.0346 -0.7457
vn -0.1522 -0.1527 -0.9765
vn -0.0539 -0.4843 -0.8732
vn -0.1522 -0.1527 -0.9765
vn -0.6797 -0.4240 -0.5985
vn -0.3207 -0.7601 -0.5652
vn -0.3207 -0.7601 -0.5652
vn -0.2835 -0.7508 -0.5966
vn 0.0638 -0.4065 -0.9114
vn -0.0539 -0.4843 -0.8732
vn -0.5016 -0.8604 -0.0903
vn -0.3207 -0.7601 -0.5652
vn -0.6797 -0.4240 -0.5985
vn -0.8424 -0.5282 0.1067
vn -0.8424 -0.5282 0.1067
vn -0.2247 -0.5667 0.7927
vn -0.3519 -0.9289 0.1153
vn -0.5016 -0.8604 -0.0903
vn -0.3519 -0.9289 0.1153
vn -0.2835 -0.7508 -0.5966
vn -0.3207 -0.7601 -0.5652
vn -0.5016 -0.8604 -0.0903
vn -0.0893 -0.6162 0.7825
vn -0.2247 -0.5667 0.7927
vn 0.2582 -0.2926 0.9207
vn 0.0085 -0.3416 0.9398
vn 0.0085 -0.3416 0.9398
vn 0.2582 -0.2926 0.9207
vn 0.6758 -0.0634 0.7343
vn 0.0105 -0.2600 0.9656
vn -0.6911 -0.2053 0.6930
vn -0.3799 -0.3652 0.8499
vn 0.0085 -0.3416 0.9398
vn 0.0105 -0.2600 0.9656
vn -0.2502 -0.5481 0.7981
vn -0.0893 -0.6162 0.7825
vn 0.0085 -0.3416 0.9398
vn -0.3799 -0.3652 0.8499
vn 0.3646 0.3481 -0.8637
vn 0.1752 0.1547 -0.9723
vn -0.1527 0.0703 -0.9858
vn -0.1373 0.3112 -0.9404
vn -0.1373 0.3112 -0.9404
vn -0.1527 0.0703 -0.9858
vn -0.5789 -0.0230 -0.8151
vn -0.6597 0.1839 -0.7287
vn -0.0694 0.3761 -0.9240
vn -0.1373 0.3112 -0.9404
vn -0.6597 0.1839 -0.7287
vn -0.7029 0.2301 -0.6731
vn 0.6581 0.3953 -0.6408
vn 0.3646 0.3481 -0.8637
vn -0.1373 0.3112 -0.9404
vn -0.0694 0.3761 -0.9240
vn -0.7060 -0.4281 0.5641
vn -0.4724 -0.7209 0.5071
vn -0.2502 -0.5481 0.7981
vn -0.3799 -0.3652 0.8499
vn -0.9168 -0.1751 0.3589
vn -0.7060 -0.4281 0.5641
vn -0.3799 -0.3652 0.8499
vn -0.6911 -0.2053 0.6930
vn -0.9729 -0.2294 0.0281
vn -0.8747 -0.4811 0.0582
vn -0.7060 -0.4281 0.5641
vn -0.9168 -0.1751 0.3589
vn -0.8747 -0.4811 0.0582
vn -0.6802 -0.7306 0.0592
vn -0.4724 -0.7209 0.5071
vn -0.7060 -0.4281 0.5641
vn 0.4635 0.0078 -0.8861
vn 0.6654 0.0346 -0.7457
vn 0.0638 -0.4065 -0.9114
vn -0.0220 -0.2517 -0.9676
vn -0.0220 -0.2517 -0.9676
vn 0.0638 -0.4065 -0.9114
vn -0.2835 -0.7508 -0.5966
vn -0.4239 -0.3818 -0.8213
vn -0.1527 0.0703 -0.9858
vn -0.0220 -0.2517 -0.9676
vn -0.4239 -0.3818 -0.8213
vn -0.5789 -0.0230 -0.8151
vn 0.1752 0.1547 -0.9723
vn 0.4635 0.0078 -0.8861
vn -0.0220 -0.2517 -0.9676
vn -0.1527 0.0703 -0.9858
vn -0.4239 -0.3818 -0.8213
vn -0.2835 -0.7508 -0.5966
vn -0.5051 -0.8132 -0.2890
vn -0.7444 -0.4500 -0.4933
vn -0.7444 -0.4500 -0.4933
vn -0.5051 -0.8132 -0.2890
vn -0.6802 -0.7306 0.0592
vn -0.8747 -0.4811 0.0582
vn -0.8966 -0.1265 -0.4244
vn -0.7444 -0.4500 -0.4933
vn -0.8747 -0.4811 0.0582
vn -0.9729 -0.2294 0.0281
vn -0.5789 -0.0230 -0.8151
vn -0.4239 -0.3818 -0.8213
vn -0.7444 -0.4500 -0.4933
vn -0.8966 -0.1265 -0.4244
vn -0.3000 -0.9164 0.2651
vn -0.3519 -0.9289 0.1153
vn -0.2247 -0.5667 0.7927
vn -0.0893 -0.6162 0.7825
vn -0.4724 -0.7209 0.5071
vn -0.3000 -0.9164 0.2651
vn -0.0893 -0.6162 0.7825
vn -0.2502 -0.5481 0.7981
vn -0.6802 -0.7306 0.0592
vn -0.5051 -0.8132 -0.2890
vn -0.3000 -0.9164 0.2651
vn -0.4724 -0.7209 0.5071
vn -0.2835 -0.7508 -0.5966
vn -0.3519 -0.9289 0.1153
vn -0.3000 -0.9164 0.2651
vn -0.5051 -0.8132 -0.2890
vn 0.9986 0.0525 -0.0060
vn 0.9987 0.0508 -0.0060
vn 0.6956 0.1517 -0.7022
vn 0.6981 0.1553 -0.6990
vn -0.6919 -0.1876 0.6972
vn -0.6927 -0.1778 0.6990
vn -0.9963 -0.0862 0.0031
vn 0.7169 -0.0807 0.6925
vn 0.9987 0.0508 -0.0060
vn 0.9986 0.0525 -0.0060
vn -0.0135 0.1467 -0.9891
vn 0.6981 0.1553 -0.6990
vn 0.6956 0.1517 -0.7022
vn -0.0153 0.1536 -0.9880
vn -0.0135 0.1467 -0.9891
vn -0.0153 0.1536 -0.9880
vn -0.7166 0.0546 -0.6953
vn -0.7166 0.0516 -0.6956
vn -0.9963 -0.0862 0.0031
vn -0.7166 0.0546 -0.6953
vn -0.7181 0.0660 -0.6928
vn -0.9960 -0.0897 0.0048
vn 0.7170 -0.0912 0.6911
vn 0.7169 -0.0807 0.6925
vn 0.0173 -0.1889 0.9819
vn -0.6919 -0.1876 0.6972
vn 0.0173 -0.1889 0.9819
vn 0.0170 -0.1754 0.9844
vn -0.6919 -0.1876 0.6972
vn -0.9963 -0.0862 0.0031
vn -0.9960 -0.0897 0.0048
vn -0.6902 -0.2016 0.6950
vn 0.0173 -0.1889 0.9819
vn -0.6919 -0.1876 0.6972
vn -0.6902 -0.2016 0.6950
vn 0.0183 -0.2072 0.9781
vn 0.0173 -0.1889 0.9819
vn 0.0183 -0.2072 0.9781
vn 0.7171 -0.1018 0.6895
vn 0.7170 -0.0912 0.6911
vn 0.7170 -0.0912 0.6911
vn 0.7171 -0.1018 0.6895
vn 0.9985 0.0549 -0.0030
vn 0.9987 0.0508 -0.0060
vn 0.9987 0.0508 -0.0060
vn 0.9985 0.0549 -0.0030
vn 0.6955 0.1664 -0.6990
vn 0.6956 0.1517 -0.7022
vn 0.6956 0.1517 -0.7022
vn 0.6955 0.1664 -0.6990
vn -0.0167 0.1733 -0.9847
vn -0.0153 0.1536 -0.9880
vn -0.7166 0.0546 -0.6953
vn -0.0153 0.1536 -0.9880
vn -0.0167 0.1733 -0.9847
vn -0.7181 0.0660 -0.6928
vn 0.7171 -0.1018 0.6895
vn 0.0183 -0.2072 0.9781
vn 0.0197 -0.2247 0.9742
vn 0.7184 -0.1128 0.6864
vn -0.6895 -0.2171 0.6910
vn -0.6902 -0.2016 0.6950
vn -0.9960 -0.0897 0.0048
vn -0.6902 -0.2016 0.6950
vn -0.6895 -0.2171 0.6910
vn 0.0197 -0.2247 0.9742
vn 0.0183 -0.2072 0.9781
vn -0.0167 0.1733 -0.9847
vn -0.0176 0.1925 -0.9811
vn -0.7182 0.0783 -0.6914
vn -0.7181 0.0660 -0.6928
vn 0.9985 0.0549 -0.0030
vn 0.6939 0.1832 -0.6964
vn 0.6955 0.1664 -0.6990
vn -0.0167 0.1733 -0.9847
vn 0.6955 0.1664 -0.6990
vn 0.6939 0.1832 -0.6964
vn -0.0176 0.1925 -0.9811
vn 0.0197 -0.2247 0.9742
vn -0.6895 -0.2171 0.6910
vn -0.6887 -0.2206 0.6907
vn 0.0196 -0.2381 0.9711
vn -0.7219 0.1043 -0.6841
vn -0.9967 -0.0808 0.0056
vn -0.9960 -0.0897 0.0048
vn 0.7184 -0.1128 0.6864
vn 0.9975 0.0709 0.0000
vn 0.9985 0.0549 -0.0030
vn -0.7219 0.1043 -0.6841
vn -0.7182 0.0783 -0.6914
vn -0.0176 0.1925 -0.9811
vn -0.6887 -0.2206 0.6907
vn -0.6895 -0.2171 0.6910
vn -0.9967 -0.0808 0.0056
vn 0.0197 -0.2247 0.9742
vn 0.0196 -0.2381 0.9711
vn 0.7176 -0.1138 0.6871
vn 0.7184 -0.1128 0.6864
vn -0.0176 0.1925 -0.9811
vn 0.6939 0.1832 -0.6964
vn 0.6928 0.1911 -0.6954
vn -0.0188 0.2021 -0.9792
vn 0.6928 0.1911 -0.6954
vn 0.6939 0.1832 -0.6964
vn 0.9975 0.0709 0.0000
vn -0.9967 -0.0808 0.0056
vn -0.7219 0.1043 -0.6841
vn -0.7258 0.1580 -0.6695
vn -0.9984 -0.0544 0.0128
vn -0.6887 -0.2206 0.6907
vn -0.9967 -0.0808 0.0056
vn -0.9984 -0.0544 0.0128
vn -0.6866 -0.2202 0.6929
vn 0.7176 -0.1138 0.6871
vn 0.7139 -0.1063 0.6921
vn 0.9941 0.1079 0.0110
vn 0.9975 0.0709 0.0000
vn 0.7139 -0.1063 0.6921
vn 0.7176 -0.1138 0.6871
vn 0.0196 -0.2381 0.9711
vn 0.9975 0.0709 0.0000
vn 0.9941 0.1079 0.0110
vn 0.6876 0.2747 -0.6722
vn 0.6928 0.2171 -0.6876
vn 0.6928 0.2171 -0.6876
vn 0.6876 0.2747 -0.6722
vn -0.0270 0.2938 -0.9555
vn -0.0221 0.2320 -0.9725
vn 0.6928 0.2171 -0.6876
vn 0.6928 0.1911 -0.6954
vn 0.9975 0.0709 0.0000
vn -0.7219 0.1043 -0.6841
vn -0.0221 0.2320 -0.9725
vn -0.0270 0.2938 -0.9555
vn -0.7258 0.1580 -0.6695
vn 0.6928 0.1911 -0.6954
vn 0.6928 0.2171 -0.6876
vn -0.0221 0.2320 -0.9725
vn -0.0188 0.2021 -0.9792
vn -0.7226 0.2078 -0.6593
vn -0.7029 0.2301 -0.6731
vn -0.9987 0.0221 -0.0460
vn -0.9998 -0.0214 0.0062
vn -0.6873 -0.2139 0.6941
vn -0.9998 -0.0214 0.0062
vn -0.9987 0.0221 -0.0460
vn -0.6911 -0.2053 0.6930
vn -0.6866 -0.2202 0.6929
vn -0.9984 -0.0544 0.0128
vn -0.9998 -0.0214 0.0062
vn -0.6873 -0.2139 0.6941
vn -0.7258 0.1580 -0.6695
vn -0.7226 0.2078 -0.6593
vn -0.9998 -0.0214 0.0062
vn -0.9984 -0.0544 0.0128
vn -0.6873 -0.2139 0.6941
vn -0.6911 -0.2053 0.6930
vn 0.0105 -0.2600 0.9656
vn 0.0152 -0.2476 0.9687
vn 0.7037 -0.0851 0.7054
vn 0.0152 -0.2476 0.9687
vn 0.0105 -0.2600 0.9656
vn 0.6758 -0.0634 0.7343
vn 0.7139 -0.1063 0.6921
vn 0.0196 -0.2381 0.9711
vn 0.0152 -0.2476 0.9687
vn 0.7037 -0.0851 0.7054
vn -0.6866 -0.2202 0.6929
vn -0.6873 -0.2139 0.6941
vn 0.0152 -0.2476 0.9687
vn 0.0196 -0.2381 0.9711
vn 0.7037 -0.0851 0.7054
vn 0.6758 -0.0634 0.7343
vn 0.9758 0.2149 0.0408
vn 0.9865 0.1618 0.0265
vn 0.6741 0.3440 -0.6537
vn 0.9865 0.1618 0.0265
vn 0.9758 0.2149 0.0408
vn 0.6581 0.3953 -0.6408
vn 0.6876 0.2747 -0.6722
vn 0.9941 0.1079 0.0110
vn 0.9865 0.1618 0.0265
vn 0.6741 0.3440 -0.6537
vn 0.9941 0.1079 0.0110
vn 0.7139 -0.1063 0.6921
vn 0.7037 -0.0851 0.7054
vn 0.9865 0.1618 0.0265
vn 0.6741 0.3440 -0.6537
vn 0.6581 0.3953 -0.6408
vn -0.0694 0.3761 -0.9240
vn -0.0398 0.3540 -0.9344
vn -0.0398 0.3540 -0.9344
vn -0.0694 0.3761 -0.9240
vn -0.7029 0.2301 -0.6731
vn -0.7226 0.2078 -0.6593
vn -0.0270 0.2938 -0.9555
vn -0.0398 0.3540 -0.9344
vn -0.7226 0.2078 -0.6593
vn -0.7258 0.1580 -0.6695
vn 0.6876 0.2747 -0.6722
vn 0.6741 0.3440 -0.6537
vn -0.0398 0.3540 -0.9344
vn -0.0270 0.2938 -0.9555
vn 0.8801 -0.3857 0.2768
vn 0.4279 -0.2453 0.8699
vn 0.3385 -0.3933 0.8548
vn 0.8716 -0.4043 0.2771
vn 0.8801 -0.3857 0.2768
vn 0.8716 -0.4043 0.2771
vn 0.8318 -0.2675 -0.4863
vn 0.8593 -0.2388 -0.4522
vn 0.9341 -0.0257 -0.3560
vn 0.9445 -0.1680 0.2823
vn 0.8801 -0.3857 0.2768
vn 0.8593 -0.2388 -0.4522
vn 0.5694 0.0135 0.8220
vn 0.4279 -0.2453 0.8699
vn 0.8801 -0.3857 0.2768
vn 0.9445 -0.1680 0.2823
vn 0.8593 -0.2388 -0.4522
vn 0.8318 -0.2675 -0.4863
vn 0.2577 -0.0370 -0.9655
vn 0.3751 0.1170 -0.9196
vn 0.3751 0.1170 -0.9196
vn 0.2577 -0.0370 -0.9655
vn -0.4823 0.1751 -0.8583
vn -0.3034 0.5011 -0.8105
vn -0.0668 0.7315 -0.6785
vn 0.5330 0.3204 -0.7831
vn 0.3751 0.1170 -0.9196
vn -0.3034 0.5011 -0.8105
vn 0.9341 -0.0257 -0.3560
vn 0.8593 -0.2388 -0.4522
vn 0.3751 0.1170 -0.9196
vn 0.5330 0.3204 -0.7831
vn -0.7408 0.6349 -0.2196
vn -0.3034 0.5011 -0.8105
vn -0.4823 0.1751 -0.8583
vn -0.9289 0.2267 -0.2930
vn -0.7225 0.4771 0.5003
vn -0.7408 0.6349 -0.2196
vn -0.9289 0.2267 -0.2930
vn -0.9106 0.0752 0.4063
vn -0.4397 0.7406 0.5082
vn -0.4762 0.8676 -0.1432
vn -0.7408 0.6349 -0.2196
vn -0.7225 0.4771 0.5003
vn -0.0668 0.7315 -0.6785
vn -0.3034 0.5011 -0.8105
vn -0.7408 0.6349 -0.2196
vn -0.4762 0.8676 -0.1432
vn -0.2433 0.1053 0.9642
vn -0.7225 0.4771 0.5003
vn -0.9106 0.0752 0.4063
vn -0.4044 -0.1881 0.8950
vn 0.4279 -0.2453 0.8699
vn -0.2433 0.1053 0.9642
vn -0.4044 -0.1881 0.8950
vn 0.3385 -0.3933 0.8548
vn 0.5694 0.0135 0.8220
vn -0.0204 0.3668 0.9301
vn -0.2433 0.1053 0.9642
vn 0.4279 -0.2453 0.8699
vn -0.4397 0.7406 0.5082
vn -0.7225 0.4771 0.5003
vn -0.2433 0.1053 0.9642
vn -0.0204 0.3668 0.9301
vn 0.8716 -0.4043 0.2771
vn 0.9383 -0.1313 0.3200
vn 0.9034 -0.0059 -0.4287
vn 0.8318 -0.2675 -0.4863
vn 0.9072 0.0882 -0.4114
vn 0.9034 -0.0059 -0.4287
vn 0.9383 -0.1313 0.3200
vn 0.8716 -0.4043 0.2771
vn 0.3385 -0.3933 0.8548
vn 0.4142 -0.2369 0.8788
vn 0.9383 -0.1313 0.3200
vn 0.9034 -0.0059 -0.4287
vn 0.9072 0.0882 -0.4114
vn 0.3410 0.1583 -0.9266
vn 0.3235 0.0964 -0.9413
vn 0.3235 0.0964 -0.9413
vn 0.3410 0.1583 -0.9266
vn -0.4335 0.1339 -0.8912
vn -0.4567 0.1332 -0.8796
vn 0.2577 -0.0370 -0.9655
vn 0.3235 0.0964 -0.9413
vn -0.4567 0.1332 -0.8796
vn -0.4823 0.1751 -0.8583
vn 0.8318 -0.2675 -0.4863
vn 0.9034 -0.0059 -0.4287
vn 0.3235 0.0964 -0.9413
vn 0.2577 -0.0370 -0.9655
vn -0.4567 0.1332 -0.8796
vn -0.4335 0.1339 -0.8912
vn -0.9417 0.0235 -0.3356
vn -0.9444 0.0767 -0.3196
vn -0.9152 -0.0642 0.3979
vn -0.9444 0.0767 -0.3196
vn -0.9417 0.0235 -0.3356
vn -0.9067 -0.1132 0.4063
vn -0.9106 0.0752 0.4063
vn -0.9289 0.2267 -0.2930
vn -0.9444 0.0767 -0.3196
vn -0.9152 -0.0642 0.3979
vn -0.4823 0.1751 -0.8583
vn -0.4567 0.1332 -0.8796
vn -0.9444 0.0767 -0.3196
vn -0.9289 0.2267 -0.2930
vn -0.3685 -0.2046 0.9068
vn -0.9152 -0.0642 0.3979
vn -0.9067 -0.1132 0.4063
vn -0.3457 -0.1949 0.9179
vn 0.4142 -0.2369 0.8788
vn -0.3685 -0.2046 0.9068
vn -0.3457 -0.1949 0.9179
vn 0.4278 -0.1656 0.8886
vn 0.3385 -0.3933 0.8548
vn -0.4044 -0.1881 0.8950
vn -0.3685 -0.2046 0.9068
vn 0.4142 -0.2369 0.8788
vn -0.4044 -0.1881 0.8950
vn -0.9106 0.0752 0.4063
vn -0.9152 -0.0642 0.3979
vn -0.3685 -0.2046 0.9068
vn -0.9417 0.0235 -0.3356
vn -0.9404 0.0237 -0.3393
vn -0.9023 -0.1201 0.4140
vn -0.9067 -0.1132 0.4063
vn 0.4278 -0.1656 0.8886
vn 0.9415 -0.0423 0.3343
vn 0.9383 -0.1313 0.3200
vn 0.9058 0.0810 -0.4158
vn 0.9072 0.0882 -0.4114
vn 0.9415 -0.0423 0.3343
vn 0.9411 -0.0594 0.3328
vn 0.4268 -0.1768 0.8869
vn 0.4275 -0.2024 0.8811
vn 0.9407 -0.0865 0.3282
vn -0.4335 0.1339 -0.8912
vn -0.9404 0.0237 -0.3393
vn -0.9417 0.0235 -0.3356
vn 0.4268 -0.1768 0.8869
vn 0.4278 -0.1656 0.8886
vn -0.3457 -0.1949 0.9179
vn 0.9058 0.0810 -0.4158
vn 0.3421 0.1650 -0.9251
vn 0.3410 0.1583 -0.9266
vn -0.4230 0.1409 -0.8951
vn -0.4335 0.1339 -0.8912
vn 0.3421 0.1650 -0.9251
vn 0.4268 -0.1768 0.8869
vn 0.9411 -0.0594 0.3328
vn 0.9415 -0.0423 0.3343
vn -0.9023 -0.1201 0.4140
vn -0.3358 -0.2026 0.9199
vn -0.3457 -0.1949 0.9179
vn 0.9058 0.0810 -0.4158
vn 0.9411 -0.0594 0.3328
vn 0.9407 -0.0865 0.3282
vn 0.9074 0.0551 -0.4167
vn 0.3421 0.1650 -0.9251
vn 0.9058 0.0810 -0.4158
vn 0.9074 0.0551 -0.4167
vn 0.3423 0.1681 -0.9244
vn -0.4230 0.1409 -0.8951
vn 0.3421 0.1650 -0.9251
vn 0.3423 0.1681 -0.9244
vn -0.4231 0.1635 -0.8912
vn -0.9404 0.0237 -0.3393
vn -0.4230 0.1409 -0.8951
vn -0.4231 0.1635 -0.8912
vn -0.9412 0.0520 -0.3337
vn -0.9404 0.0237 -0.3393
vn -0.9412 0.0520 -0.3337
vn -0.9024 -0.1092 0.4169
vn -0.9023 -0.1201 0.4140
vn -0.9023 -0.1201 0.4140
vn -0.9024 -0.1092 0.4169
vn -0.3325 -0.2175 0.9177
vn -0.3358 -0.2026 0.9199
vn -0.3358 -0.2026 0.9199
vn -0.3325 -0.2175 0.9177
vn 0.4275 -0.2024 0.8811
vn 0.4268 -0.1768 0.8869
vn 0.4275 -0.2024 0.8811
vn 0.4260 -0.2276 0.8756
vn 0.9395 -0.1149 0.3226
vn 0.9407 -0.0865 0.3282
vn 0.3423 0.1681 -0.9244
vn 0.3374 0.1535 -0.9288
vn -0.4263 0.1609 -0.8902
vn -0.4231 0.1635 -0.8912
vn 0.4260 -0.2276 0.8756
vn 0.4275 -0.2024 0.8811
vn -0.3325 -0.2175 0.9177
vn -0.9412 0.0520 -0.3337
vn -0.4231 0.1635 -0.8912
vn -0.4263 0.1609 -0.8902
vn -0.9408 0.0500 -0.3353
vn 0.9074 0.0551 -0.4167
vn 0.3374 0.1535 -0.9288
vn 0.3423 0.1681 -0.9244
vn 0.9207 -0.2712 0.2807
vn 0.4142 -0.3842 0.8251
vn 0.3461 -0.7014 0.6231
vn 0.6676 -0.7394 0.0874
vn -0.9024 -0.1092 0.4169
vn -0.3392 -0.2399 0.9096
vn -0.3325 -0.2175 0.9177
vn -0.9046 -0.1173 0.4098
vn -0.9024 -0.1092 0.4169
vn -0.9408 0.0500 -0.3353
vn 0.9027 0.0290 -0.4294
vn 0.9074 0.0551 -0.4167
vn 0.9395 -0.1149 0.3226
vn 0.4244 -0.2492 0.8705
vn 0.4260 -0.2276 0.8756
vn -0.3392 -0.2399 0.9096
vn 0.4244 -0.2492 0.8705
vn 0.9388 -0.1365 0.3162
vn 0.9395 -0.1149 0.3226
vn 0.9207 -0.2712 0.2807
vn 0.6676 -0.7394 0.0874
vn 0.7485 -0.4674 -0.4705
vn 0.8845 -0.1106 -0.4531
vn 0.9388 -0.1365 0.3162
vn 0.9207 -0.2712 0.2807
vn 0.8845 -0.1106 -0.4531
vn 0.9027 0.0290 -0.4294
vn 0.9388 -0.1365 0.3162
vn 0.4244 -0.2492 0.8705
vn 0.4142 -0.3842 0.8251
vn 0.9207 -0.2712 0.2807
vn 0.3288 0.0142 -0.9443
vn 0.8845 -0.1106 -0.4531
vn 0.7485 -0.4674 -0.4705
vn 0.2307 -0.5288 -0.8168
vn 0.3288 0.0142 -0.9443
vn 0.2307 -0.5288 -0.8168
vn -0.3696 -0.3564 -0.8581
vn -0.4223 0.0191 -0.9062
vn 0.3374 0.1535 -0.9288
vn 0.3288 0.0142 -0.9443
vn -0.4223 0.0191 -0.9062
vn -0.4263 0.1609 -0.8902
vn 0.3374 0.1535 -0.9288
vn 0.9027 0.0290 -0.4294
vn 0.8845 -0.1106 -0.4531
vn 0.3288 0.0142 -0.9443
vn -0.9287 -0.0876 -0.3604
vn -0.4223 0.0191 -0.9062
vn -0.3696 -0.3564 -0.8581
vn -0.6974 -0.6039 -0.3859
vn -0.9287 -0.0876 -0.3604
vn -0.6974 -0.6039 -0.3859
vn -0.7720 -0.5905 0.2354
vn -0.8927 -0.2545 0.3720
vn -0.9408 0.0500 -0.3353
vn -0.9287 -0.0876 -0.3604
vn -0.8927 -0.2545 0.3720
vn -0.9046 -0.1173 0.4098
vn -0.9408 0.0500 -0.3353
vn -0.4263 0.1609 -0.8902
vn -0.4223 0.0191 -0.9062
vn -0.9287 -0.0876 -0.3604
vn -0.3368 -0.3730 0.8646
vn -0.8927 -0.2545 0.3720
vn -0.7720 -0.5905 0.2354
vn -0.2606 -0.8145 0.5183
vn -0.3368 -0.3730 0.8646
vn -0.2606 -0.8145 0.5183
vn 0.3461 -0.7014 0.6231
vn 0.4142 -0.3842 0.8251
vn -0.3392 -0.2399 0.9096
vn -0.3368 -0.3730 0.8646
vn 0.4142 -0.3842 0.8251
vn 0.4244 -0.2492 0.8705
vn -0.3392 -0.2399 0.9096
vn -0.9046 -0.1173 0.4098
vn -0.8927 -0.2545 0.3720
vn -0.3368 -0.3730 0.8646
vn 0.0346 -0.4071 0.9127
vn -0.6754 -0.3149 0.6668
vn -0.7054 -0.4024 0.5836
vn 0.0207 -0.4471 0.8943
vn 0.6938 -0.2034 0.6909
vn 0.0346 -0.4071 0.9127
vn 0.0207 -0.4471 0.8943
vn 0.7194 -0.3025 0.6252
vn 0.6015 0.0135 0.7987
vn 0.0333 -0.1973 0.9798
vn 0.0346 -0.4071 0.9127
vn 0.6938 -0.2034 0.6909
vn 0.0333 -0.1973 0.9798
vn -0.6195 -0.0857 0.7803
vn -0.6754 -0.3149 0.6668
vn 0.0346 -0.4071 0.9127
vn 0.6938 -0.2034 0.6909
vn 0.7194 -0.3025 0.6252
vn 0.9981 -0.0449 -0.0429
vn 0.9784 0.1657 0.1232
vn 0.9784 0.1657 0.1232
vn 0.9981 -0.0449 -0.0429
vn 0.6738 0.2226 -0.7046
vn 0.6787 0.5572 -0.4785
vn 0.5833 0.7862 -0.2039
vn 0.8638 0.3766 0.3347
vn 0.9784 0.1657 0.1232
vn 0.6787 0.5572 -0.4785
vn 0.6015 0.0135 0.7987
vn 0.6938 -0.2034 0.6909
vn 0.9784 0.1657 0.1232
vn 0.8638 0.3766 0.3347
vn 0.6787 0.5572 -0.4785
vn 0.6738 0.2226 -0.7046
vn -0.0131 0.3226 -0.9464
vn -0.0246 0.6881 -0.7252
vn -0.0246 0.6881 -0.7252
vn -0.0131 0.3226 -0.9464
vn -0.6752 0.1801 -0.7153
vn -0.7036 0.4984 -0.5065
vn -0.0479 0.8899 -0.4536
vn -0.0246 0.6881 -0.7252
vn -0.7036 0.4984 -0.5065
vn -0.6610 0.7092 -0.2454
vn 0.5833 0.7862 -0.2039
vn 0.6787 0.5572 -0.4785
vn -0.0246 0.6881 -0.7252
vn -0.0479 0.8899 -0.4536
vn -0.9957 0.0648 0.0664
vn -0.7036 0.4984 -0.5065
vn -0.6752 0.1801 -0.7153
vn -0.9867 -0.1302 -0.0973
vn -0.6754 -0.3149 0.6668
vn -0.9957 0.0648 0.0664
vn -0.9867 -0.1302 -0.0973
vn -0.7054 -0.4024 0.5836
vn -0.6195 -0.0857 0.7803
vn -0.9268 0.2741 0.2568
vn -0.9957 0.0648 0.0664
vn -0.6754 -0.3149 0.6668
vn -0.6610 0.7092 -0.2454
vn -0.7036 0.4984 -0.5065
vn -0.9957 0.0648 0.0664
vn -0.9268 0.2741 0.2568
vn 0.0017 -0.2375 0.9714
vn -0.7104 -0.2180 0.6692
vn -0.7107 -0.1453 0.6883
vn -0.0069 -0.1642 0.9864
vn 0.0207 -0.4471 0.8943
vn 0.0017 -0.2375 0.9714
vn 0.7051 -0.1570 0.6915
vn 0.7194 -0.3025 0.6252
vn 0.0207 -0.4471 0.8943
vn -0.7054 -0.4024 0.5836
vn -0.7104 -0.2180 0.6692
vn 0.0017 -0.2375 0.9714
vn 0.9981 -0.0449 -0.0429
vn 1.0000 -0.0059 -0.0063
vn 0.6937 0.1397 -0.7066
vn 0.6738 0.2226 -0.7046
vn -0.7186 0.0809 -0.6907
vn -0.0153 0.1717 -0.9850
vn -0.0135 0.1467 -0.9891
vn -0.7166 0.0516 -0.6956
vn 0.7098 0.1191 -0.6942
vn 0.6937 0.1397 -0.7066
vn 1.0000 -0.0059 -0.0063
vn 0.7194 -0.3025 0.6252
vn 0.7051 -0.1570 0.6915
vn 1.0000 -0.0059 -0.0063
vn 0.9981 -0.0449 -0.0429
vn 0.6937 0.1397 -0.7066
vn 0.7098 0.1191 -0.6942
vn 0.0089 0.1463 -0.9892
vn 0.0022 0.1930 -0.9812
vn -0.6830 0.1014 -0.7234
vn 0.0022 0.1930 -0.9812
vn 0.0089 0.1463 -0.9892
vn -0.6959 0.0789 -0.7138
vn -0.6752 0.1801 -0.7153
vn -0.0131 0.3226 -0.9464
vn 0.0022 0.1930 -0.9812
vn -0.6830 0.1014 -0.7234
vn 0.6738 0.2226 -0.7046
vn 0.6937 0.1397 -0.7066
vn 0.0022 0.1930 -0.9812
vn -0.0131 0.3226 -0.9464
vn -0.9960 -0.0776 -0.0450
vn -0.6830 0.1014 -0.7234
vn -0.6959 0.0789 -0.7138
vn -0.9988 -0.0446 -0.0202
vn -0.7104 -0.2180 0.6692
vn -0.9960 -0.0776 -0.0450
vn -0.9988 -0.0446 -0.0202
vn -0.7107 -0.1453 0.6883
vn -0.7054 -0.4024 0.5836
vn -0.9867 -0.1302 -0.0973
vn -0.9960 -0.0776 -0.0450
vn -0.7104 -0.2180 0.6692
vn -0.9867 -0.1302 -0.0973
vn -0.6752 0.1801 -0.7153
vn -0.6830 0.1014 -0.7234
vn -0.9960 -0.0776 -0.0450
vn -0.9988 -0.0446 -0.0202
vn -0.6959 0.0789 -0.7138
vn -0.6989 0.0831 -0.7104
vn -0.9994 -0.0330 -0.0135
vn 0.6999 -0.1135 0.7052
vn 0.7051 -0.1570 0.6915
vn -0.0069 -0.1642 0.9864
vn -0.7107 -0.1453 0.6883
vn -0.0079 -0.1729 0.9849
vn -0.0069 -0.1642 0.9864
vn -0.6989 0.0831 -0.7104
vn -0.6959 0.0789 -0.7138
vn 0.0089 0.1463 -0.9892
vn 1.0000 -0.0059 -0.0063
vn 0.9999 0.0025 0.0107
vn 0.7157 0.1072 -0.6901
vn 0.7098 0.1191 -0.6942
vn 0.0089 0.1463 -0.9892
vn 0.7098 0.1191 -0.6942
vn 0.7157 0.1072 -0.6901
vn 0.0124 0.1414 -0.9899
vn 0.6999 -0.1135 0.7052
vn 0.9999 0.0025 0.0107
vn 1.0000 -0.0059 -0.0063
vn -0.7108 -0.1400 0.6893
vn -0.7106 -0.1392 0.6897
vn -0.0036 -0.1949 0.9808
vn -0.0079 -0.1729 0.9849
vn -0.7108 -0.1400 0.6893
vn -0.7107 -0.1453 0.6883
vn -0.9994 -0.0330 -0.0135
vn -0.0079 -0.1729 0.9849
vn -0.0036 -0.1949 0.9808
vn 0.7005 -0.1373 0.7004
vn 0.6999 -0.1135 0.7052
vn 0.9999 0.0025 0.0107
vn 0.6999 -0.1135 0.7052
vn 0.7005 -0.1373 0.7004
vn 0.9998 -0.0183 0.0079
vn 0.7157 0.1072 -0.6901
vn 0.9999 0.0025 0.0107
vn 0.9998 -0.0183 0.0079
vn 0.7177 0.0955 -0.6898
vn 0.0124 0.1414 -0.9899
vn 0.7157 0.1072 -0.6901
vn 0.7177 0.0955 -0.6898
vn 0.0122 0.1519 -0.9883
vn -0.6989 0.0831 -0.7104
vn 0.0124 0.1414 -0.9899
vn 0.0122 0.1519 -0.9883
vn -0.6994 0.1070 -0.7067
vn -0.9994 -0.0330 -0.0135
vn -0.6989 0.0831 -0.7104
vn -0.6994 0.1070 -0.7067
vn -0.9998 -0.0139 -0.0107
vn -0.9994 -0.0330 -0.0135
vn -0.9998 -0.0139 -0.0107
vn -0.7106 -0.1392 0.6897
vn -0.7108 -0.1400 0.6893
vn 0.9998 -0.0183 0.0079
vn 0.7005 -0.1373 0.7004
vn 0.7005 -0.1611 0.6952
vn 0.9993 -0.0385 0.0032
vn 0.7005 -0.1611 0.6952
vn 0.7005 -0.1373 0.7004
vn -0.0036 -0.1949 0.9808
vn 0.0122 0.1519 -0.9883
vn 0.7177 0.0955 -0.6898
vn 0.7125 0.0746 -0.6977
vn 0.0090 0.1426 -0.9897
vn 0.7125 0.0746 -0.6977
vn 0.7177 0.0955 -0.6898
vn 0.9993 -0.0385 0.0032
vn 0.9993 -0.0385 0.0032
vn 0.7005 -0.1611 0.6952
vn 0.6988 -0.1824 0.6917
vn 0.9983 -0.0588 -0.0011
vn -0.6994 0.1070 -0.7067
vn -0.9997 -0.0195 -0.0134
vn -0.9998 -0.0139 -0.0107
vn -0.7106 -0.1392 0.6897
vn -0.0104 -0.2209 0.9752
vn -0.0036 -0.1949 0.9808
vn -0.7139 -0.1546 0.6829
vn -0.7106 -0.1392 0.6897
vn -0.9997 -0.0195 -0.0134
vn 0.6988 -0.1824 0.6917
vn 0.7005 -0.1611 0.6952
vn -0.0104 -0.2209 0.9752
vn -0.0128 -0.3555 0.9346
vn -0.7051 -0.2924 0.6460
vn -0.6111 -0.6264 0.4839
vn -0.0195 -0.8069 0.5904
vn -0.7003 0.1024 -0.7065
vn -0.6994 0.1070 -0.7067
vn 0.0090 0.1426 -0.9897
vn -0.0128 -0.3555 0.9346
vn -0.0195 -0.8069 0.5904
vn 0.5800 -0.6498 0.4913
vn 0.6850 -0.3197 0.6546
vn -0.0104 -0.2209 0.9752
vn -0.0128 -0.3555 0.9346
vn 0.6850 -0.3197 0.6546
vn 0.6988 -0.1824 0.6917
vn -0.0104 -0.2209 0.9752
vn -0.7139 -0.1546 0.6829
vn -0.7051 -0.2924 0.6460
vn -0.0128 -0.3555 0.9346
vn 0.9803 -0.1959 -0.0266
vn 0.6850 -0.3197 0.6546
vn 0.5800 -0.6498 0.4913
vn 0.7148 -0.6889 -0.1204
vn 0.9803 -0.1959 -0.0266
vn 0.7148 -0.6889 -0.1204
vn 0.5915 -0.4331 -0.6801
vn 0.6984 -0.0668 -0.7125
vn 0.9983 -0.0588 -0.0011
vn 0.9803 -0.1959 -0.0266
vn 0.6984 -0.0668 -0.7125
vn 0.7125 0.0746 -0.6977
vn 0.9983 -0.0588 -0.0011
vn 0.6988 -0.1824 0.6917
vn 0.6850 -0.3197 0.6546
vn 0.9803 -0.1959 -0.0266
vn 0.0062 0.0024 -1.0000
vn 0.6984 -0.0668 -0.7125
vn 0.5915 -0.4331 -0.6801
vn -0.0055 -0.5423 -0.8402
vn 0.0062 0.0024 -1.0000
vn -0.0055 -0.5423 -0.8402
vn -0.5996 -0.4097 -0.6875
vn -0.6917 -0.0394 -0.7211
vn 0.0090 0.1426 -0.9897
vn 0.0062 0.0024 -1.0000
vn -0.6917 -0.0394 -0.7211
vn -0.7003 0.1024 -0.7065
vn 0.0090 0.1426 -0.9897
vn 0.7125 0.0746 -0.6977
vn 0.6984 -0.0668 -0.7125
vn 0.0062 0.0024 -1.0000
vn -0.9868 -0.1572 -0.0388
vn -0.6917 -0.0394 -0.7211
vn -0.5996 -0.4097 -0.6875
vn -0.7398 -0.6603 -0.1294
vn -0.9868 -0.1572 -0.0388
vn -0.7398 -0.6603 -0.1294
vn -0.6111 -0.6264 0.4839
vn -0.7051 -0.2924 0.6460
vn -0.9997 -0.0195 -0.0134
vn -0.9868 -0.1572 -0.0388
vn -0.7051 -0.2924 0.6460
vn -0.7139 -0.1546 0.6829
vn -0.9997 -0.0195 -0.0134
vn -0.7003 0.1024 -0.7065
vn -0.6917 -0.0394 -0.7211
vn -0.9868 -0.1572 -0.0388
vn -0.8436 0.0135 -0.5369
vn -0.8458 0.0984 -0.5243
vn -0.9802 -0.0739 0.1835
vn -0.9775 -0.1621 0.1354
vn -0.9775 -0.1621 0.1354
vn -0.9802 -0.0739 0.1835
vn -0.5406 -0.2080 0.8151
vn -0.5328 -0.2975 0.7922
vn -0.8424 -0.5282 0.1067
vn -0.9775 -0.1621 0.1354
vn -0.5328 -0.2975 0.7922
vn -0.2247 -0.5667 0.7927
vn -0.8424 -0.5282 0.1067
vn -0.6797 -0.4240 -0.5985
vn -0.8436 0.0135 -0.5369
vn -0.9775 -0.1621 0.1354
vn -0.5328 -0.2975 0.7922
vn -0.5406 -0.2080 0.8151
vn 0.2295 -0.2051 0.9514
vn 0.2633 -0.2354 0.9355
vn 0.2633 -0.2354 0.9355
vn 0.2295 -0.2051 0.9514
vn 0.8466 -0.0798 0.5262
vn 0.8628 -0.0565 0.5023
vn 0.3461 -0.2765 0.8965
vn 0.2633 -0.2354 0.9355
vn 0.8628 -0.0565 0.5023
vn 0.8892 -0.0175 0.4572
vn -0.2247 -0.5667 0.7927
vn -0.5328 -0.2975 0.7922
vn 0.2633 -0.2354 0.9355
vn 0.3461 -0.2765 0.8965
vn 0.9762 0.1194 -0.1813
vn 0.8628 -0.0565 0.5023
vn 0.8466 -0.0798 0.5262
vn 0.9772 0.0726 -0.1996
vn 0.5362 0.1636 -0.8281
vn 0.9762 0.1194 -0.1813
vn 0.9772 0.0726 -0.1996
vn 0.5332 0.1788 -0.8269
vn 0.6654 0.0346 -0.7457
vn 0.9801 0.1607 -0.1166
vn 0.9762 0.1194 -0.1813
vn 0.5362 0.1636 -0.8281
vn 0.8892 -0.0175 0.4572
vn 0.8628 -0.0565 0.5023
vn 0.9762 0.1194 -0.1813
vn 0.9801 0.1607 -0.1166
vn -0.2774 0.1124 -0.9542
vn 0.5362 0.1636 -0.8281
vn 0.5332 0.1788 -0.8269
vn -0.2512 0.1937 -0.9484
vn -0.8436 0.0135 -0.5369
vn -0.2774 0.1124 -0.9542
vn -0.2512 0.1937 -0.9484
vn -0.8458 0.0984 -0.5243
vn -0.6797 -0.4240 -0.5985
vn -0.1522 -0.1527 -0.9765
vn -0.2774 0.1124 -0.9542
vn -0.8436 0.0135 -0.5369
vn -0.1522 -0.1527 -0.9765
vn 0.6654 0.0346 -0.7457
vn 0.5362 0.1636 -0.8281
vn -0.2774 0.1124 -0.9542
vn -0.8458 0.0984 -0.5243
vn -0.8415 0.0720 -0.5354
vn -0.9769 -0.0858 0.1957
vn -0.9802 -0.0739 0.1835
vn -0.8458 0.0984 -0.5243
vn -0.2512 0.1937 -0.9484
vn -0.2209 0.1764 -0.9592
vn -0.8415 0.0720 -0.5354
vn -0.9769 -0.0858 0.1957
vn -0.9752 -0.0878 0.2032
vn -0.5342 -0.2049 0.8201
vn -0.5406 -0.2080 0.8151
vn 0.5332 0.1788 -0.8269
vn -0.2209 0.1764 -0.9592
vn -0.2512 0.1937 -0.9484
vn -0.9769 -0.0858 0.1957
vn -0.8415 0.0720 -0.5354
vn -0.8414 0.0679 -0.5361
vn -0.9752 -0.0878 0.2032
vn 0.2295 -0.2051 0.9514
vn 0.2177 -0.2112 0.9529
vn 0.8426 -0.1057 0.5280
vn 0.8466 -0.0798 0.5262
vn 0.2295 -0.2051 0.9514
vn -0.5406 -0.2080 0.8151
vn -0.5342 -0.2049 0.8201
vn 0.2177 -0.2112 0.9529
vn 0.9772 0.0726 -0.1996
vn 0.9771 0.0487 -0.2070
vn 0.5427 0.1635 -0.8239
vn 0.5332 0.1788 -0.8269
vn 0.9772 0.0726 -0.1996
vn 0.8466 -0.0798 0.5262
vn 0.8426 -0.1057 0.5280
vn 0.9771 0.0487 -0.2070
vn -0.2209 0.1764 -0.9592
vn -0.2117 0.1732 -0.9619
vn -0.8414 0.0679 -0.5361
vn -0.8415 0.0720 -0.5354
vn -0.2209 0.1764 -0.9592
vn 0.5332 0.1788 -0.8269
vn 0.5427 0.1635 -0.8239
vn -0.2117 0.1732 -0.9619
vn -0.9752 -0.0878 0.2032
vn -0.8414 0.0679 -0.5361
vn -0.8424 0.0960 -0.5303
vn -0.9758 -0.0677 0.2080
vn -0.9752 -0.0878 0.2032
vn -0.9758 -0.0677 0.2080
vn -0.5319 -0.2134 0.8195
vn -0.5342 -0.2049 0.8201
vn -0.5342 -0.2049 0.8201
vn -0.5319 -0.2134 0.8195
vn 0.2172 -0.2344 0.9476
vn 0.2177 -0.2112 0.9529
vn 0.2177 -0.2112 0.9529
vn 0.2172 -0.2344 0.9476
vn 0.8422 -0.1398 0.5207
vn 0.8426 -0.1057 0.5280
vn 0.9771 0.0487 -0.2070
vn 0.8426 -0.1057 0.5280
vn 0.8422 -0.1398 0.5207
vn 0.9770 0.0261 -0.2116
vn 0.5427 0.1635 -0.8239
vn 0.9771 0.0487 -0.2070
vn 0.9770 0.0261 -0.2116
vn 0.5450 0.1565 -0.8237
vn -0.2117 0.1732 -0.9619
vn 0.5427 0.1635 -0.8239
vn 0.5450 0.1565 -0.8237
vn -0.2119 0.1946 -0.9577
vn -0.2117 0.1732 -0.9619
vn -0.2119 0.1946 -0.9577
vn -0.8424 0.0960 -0.5303
vn -0.8414 0.0679 -0.5361
vn 0.2172 -0.2344 0.9476
vn 0.2162 -0.2579 0.9417
vn 0.8415 -0.1665 0.5139
vn 0.8422 -0.1398 0.5207
vn 0.9770 0.0261 -0.2116
vn 0.8422 -0.1398 0.5207
vn 0.8415 -0.1665 0.5139
vn 0.9760 0.0037 -0.2175
vn 0.2162 -0.2579 0.9417
vn 0.2172 -0.2344 0.9476
vn -0.5319 -0.2134 0.8195
vn -0.9635 -0.2101 0.1661
vn -0.8311 -0.0427 -0.5544
vn -0.7177 -0.4100 -0.5629
vn -0.7215 -0.6923 -0.0077
vn 0.8415 -0.1665 0.5139
vn 0.9743 -0.0173 -0.2248
vn 0.9760 0.0037 -0.2175
vn -0.8423 0.0991 -0.5298
vn -0.8424 0.0960 -0.5303
vn -0.2119 0.1946 -0.9577
vn 0.8401 -0.1920 0.5073
vn 0.8415 -0.1665 0.5139
vn 0.2162 -0.2579 0.9417
vn 0.5450 0.1565 -0.8237
vn -0.2154 0.1885 -0.9581
vn -0.2119 0.1946 -0.9577
vn -0.8423 0.0991 -0.5298
vn -0.9765 -0.0735 0.2028
vn -0.9758 -0.0677 0.2080
vn -0.5319 -0.2134 0.8195
vn 0.2133 -0.2794 0.9362
vn 0.2162 -0.2579 0.9417
vn -0.5392 -0.2317 0.8097
vn -0.5319 -0.2134 0.8195
vn -0.9765 -0.0735 0.2028
vn 0.5370 0.1388 -0.8321
vn 0.5450 0.1565 -0.8237
vn 0.9743 -0.0173 -0.2248
vn -0.9635 -0.2101 0.1661
vn -0.7215 -0.6923 -0.0077
vn -0.4637 -0.6872 0.5593
vn -0.5333 -0.3678 0.7618
vn -0.9765 -0.0735 0.2028
vn -0.9635 -0.2101 0.1661
vn -0.5333 -0.3678 0.7618
vn -0.5392 -0.2317 0.8097
vn -0.9765 -0.0735 0.2028
vn -0.8423 0.0991 -0.5298
vn -0.8311 -0.0427 -0.5544
vn -0.9635 -0.2101 0.1661
vn 0.2064 -0.4126 0.8872
vn -0.5333 -0.3678 0.7618
vn -0.4637 -0.6872 0.5593
vn 0.1388 -0.8412 0.5226
vn 0.2064 -0.4126 0.8872
vn 0.1388 -0.8412 0.5226
vn 0.6920 -0.6539 0.3060
vn 0.8222 -0.3288 0.4647
vn 0.2133 -0.2794 0.9362
vn 0.2064 -0.4126 0.8872
vn 0.8222 -0.3288 0.4647
vn 0.8401 -0.1920 0.5073
vn 0.2133 -0.2794 0.9362
vn -0.5392 -0.2317 0.8097
vn -0.5333 -0.3678 0.7618
vn 0.2064 -0.4126 0.8872
vn 0.9546 -0.1549 -0.2543
vn 0.8222 -0.3288 0.4647
vn 0.6920 -0.6539 0.3060
vn 0.6891 -0.6517 -0.3169
vn 0.9546 -0.1549 -0.2543
vn 0.6891 -0.6517 -0.3169
vn 0.4380 -0.3767 -0.8163
vn 0.5243 -0.0037 -0.8515
vn 0.9743 -0.0173 -0.2248
vn 0.9546 -0.1549 -0.2543
vn 0.5243 -0.0037 -0.8515
vn 0.5370 0.1388 -0.8321
vn 0.9743 -0.0173 -0.2248
vn 0.8401 -0.1920 0.5073
vn 0.8222 -0.3288 0.4647
vn 0.9546 -0.1549 -0.2543
vn -0.2152 0.0475 -0.9754
vn 0.5243 -0.0037 -0.8515
vn 0.4380 -0.3767 -0.8163
vn -0.1712 -0.5028 -0.8472
vn -0.2152 0.0475 -0.9754
vn -0.1712 -0.5028 -0.8472
vn -0.7177 -0.4100 -0.5629
vn -0.8311 -0.0427 -0.5544
vn -0.2154 0.1885 -0.9581
vn -0.2152 0.0475 -0.9754
vn -0.8311 -0.0427 -0.5544
vn -0.8423 0.0991 -0.5298
vn -0.2154 0.1885 -0.9581
vn 0.5370 0.1388 -0.8321
vn 0.5243 -0.0037 -0.8515
vn -0.2152 0.0475 -0.9754
f 161/1/1 154/2/2 160/3/3
f 158/4/4 162/5/5 307/6/6
f 45/7/7 160/8/8 153/9/9
f 168/10/10 156/11/11 161/12/12
f 164/13/13 156/14/14 163/15/15
f 165/16/16 164/17/17 170/18/18
f 167/19/19 9/20/20 174/21/21
f 179/22/22 171/23/23 11/24/24
f 178/25/25 167/26/26 180/27/27
f 167/28/28 174/29/29 177/30/30
f 46/31/31 171/32/32 181/33/33
f 186/34/34 181/35/35 179/36/36
f 177/37/37 176/38/38 182/39/39
f 14/40/40 185/41/41 184/42/42
f 331/43/43 177/44/44 182/45/45
f 56/46/46 203/47/47 202/48/48
f 57/49/49 203/50/50 210/51/51
f 218/52/52 205/53/53 57/54/54
f 222/55/55 209/56/56 58/57/57
f 211/58/58 210/59/59 56/60/60
f 213/61/61 205/62/62 212/63/63
f 220/64/64 216/65/65 213/66/66
f 218/67/67 210/68/68 214/69/69
f 211/70/70 209/71/71 215/72/72
f 225/73/73 61/74/74 217/75/75
f 60/76/76 221/77/77 227/78/78
f 224/79/79 223/80/80 228/81/81
f 64/82/82 228/83/83 60/84/84
f 62/85/85 226/86/86 61/87/87
f 229/88/88 225/89/89 224/90/90
f 62/91/91 225/92/92 230/93/93
f 69/94/94 351/95/95 244/96/96
f 257/97/97 245/98/98 69/99/99
f 257/100/100 244/101/101 250/102/102
f 68/103/103 249/104/104 255/105/105
f 252/106/106 250/107/107 68/108/108
f 261/109/109 247/110/110 254/111/111
f 263/112/112 71/113/113 258/114/114
f 73/115/115 260/116/116 264/117/117
f 30/118/118 262/119/119 265/120/120
f 72/121/121 256/122/122 266/123/123
f 267/124/124 266/125/125 30/126/126
f 75/127/127 263/128/128 268/129/129
f 76/130/130 265/131/131 73/132/132
f 78/133/133 274/134/134 282/135/135
f 297/136/136 83/137/137 293/138/138
f 298/139/139 289/140/140 39/141/141
f 83/142/142 297/143/143 299/144/144
f 85/145/145 299/146/146 81/147/147
f 298/148/148 295/149/149 300/150/150
f 82/151/151 289/152/152 301/153/153
f 85/154/154 296/155/155 302/156/156
f 84/157/157 302/158/158 82/159/159
f 86/160/160 300/161/161 83/162/162
f 160/163/163 154/164/164 153/165/165
f 152/166/166 8/167/167 162/168/168 159/169/169
f 307/170/170 157/171/171 164/172/172 158/173/173
f 8/174/174 150/175/175 307/176/176 162/177/177
f 150/178/178 7/179/179 157/180/180 307/181/181
f 155/182/182 161/183/183 156/184/184 308/185/185
f 157/186/186 308/187/187 156/188/188 164/189/189
f 7/190/190 148/191/191 308/192/192 157/193/193
f 6/194/194 155/195/195 308/196/196 148/197/197
f 146/198/198 154/199/199 155/200/200 6/201/201
f 161/202/202 155/203/203 154/204/204
f 5/205/205 153/206/206 154/207/207 146/208/208
f 309/209/209 95/210/210 48/211/211 98/212/212
f 99/213/213 309/214/214 98/215/215 54/216/216
f 55/217/217 97/218/218 309/219/219 99/220/220
f 49/221/221 95/222/222 309/223/223 97/224/224
f 121/225/225 37/226/226 123/227/227 310/228/228
f 124/229/229 310/230/230 123/231/231 38/232/232
f 51/233/233 107/234/234 310/235/235 124/236/236
f 50/237/237 121/238/238 310/239/239 107/240/240
f 151/241/241 8/242/242 152/243/243 311/244/244
f 145/245/245 311/246/246 152/247/247 5/248/248
f 1/249/249 130/250/250 311/251/251 145/252/252
f 4/253/253 151/254/254 311/255/255 130/256/256
f 149/257/257 7/258/258 150/259/259 312/260/260
f 151/261/261 312/262/262 150/263/263 8/264/264
f 4/265/265 132/266/266 312/267/267 151/268/268
f 3/269/269 149/270/270 312/271/271 132/272/272
f 147/273/273 6/274/274 148/275/275 313/276/276
f 149/277/277 313/278/278 148/279/279 7/280/280
f 3/281/281 131/282/282 313/283/283 149/284/284
f 2/285/285 147/286/286 313/287/287 131/288/288
f 145/289/289 5/290/290 146/291/291 314/292/292
f 147/293/293 314/294/294 146/295/295 6/296/296
f 2/297/297 108/298/298 314/299/299 147/300/300
f 1/301/301 145/302/302 314/303/303 108/304/304
f 315/305/305 141/306/306 44/307/307 142/308/308
f 315/309/309 142/310/310 43/311/311 143/312/312
f 42/313/313 144/314/314 315/315/315 143/316/316
f 41/317/317 141/318/318 315/319/319 144/320/320
f 316/321/321 137/322/322 35/323/323 138/324/324
f 316/325/325 138/326/326 34/327/327 139/328/328
f 33/329/329 140/330/330 316/331/331 139/332/332
f 32/333/333 137/334/334 316/335/335 140/336/336
f 317/337/337 133/338/338 25/339/339 134/340/340
f 317/341/341 134/342/342 24/343/343 135/344/344
f 23/345/345 136/346/346 317/347/347 135/348/348
f 22/349/349 133/350/350 317/351/351 136/352/352
f 318/353/353 119/354/354 36/355/355 120/356/356
f 318/357/357 120/358/358 37/359/359 121/360/360
f 121/361/361 50/362/362 119/363/363 318/364/364
f 319/365/365 130/366/366 1/367/367 108/368/368
f 319/369/369 108/370/370 2/371/371 131/372/372
f 3/373/373 132/374/374 319/375/375 131/376/376
f 4/377/377 130/378/378 319/379/379 132/380/380
f 320/381/381 105/382/382 91/383/383 103/384/384
f 320/385/385 103/386/386 92/387/387 100/388/388
f 93/389/389 96/390/390 320/391/391 100/392/392
f 94/393/393 105/394/394 320/395/395 96/396/396
f 124/397/397 38/398/398 125/399/399 321/400/400
f 321/401/401 125/402/402 67/403/403 110/404/404
f 110/405/405 51/406/406 124/407/407 321/408/408
f 322/409/409 122/410/410 87/411/411 117/412/412
f 322/413/413 117/414/414 88/415/415 113/416/416
f 89/417/417 111/418/418 322/419/419 113/420/420
f 90/421/421 122/422/422 322/423/423 111/424/424
f 323/425/425 126/426/426 38/427/427 127/428/428
f 323/429/429 127/430/430 66/431/431 128/432/432
f 128/433/433 53/434/434 126/435/435 323/436/436
f 324/437/437 128/438/438 66/439/439 129/440/440
f 129/441/441 36/442/442 116/443/443 324/444/444
f 116/445/445 53/446/446 128/447/447 324/448/448
f 118/449/449 36/450/450 119/451/451 325/452/452
f 325/453/453 119/454/454 50/455/455 106/456/456
f 49/457/457 104/458/458 325/459/459 106/460/460
f 52/461/461 118/462/462 325/463/463 104/464/464
f 110/465/465 67/466/466 112/467/467 326/468/468
f 326/469/469 112/470/470 54/471/471 98/472/472
f 109/473/473 326/474/474 98/475/475 48/476/476
f 51/477/477 110/478/478 326/479/479 109/480/480
f 327/481/481 102/482/482 52/483/483 104/484/484
f 97/485/485 327/486/486 104/487/487 49/488/488
f 55/489/489 101/490/490 327/491/491 97/492/492
f 101/493/493 65/494/494 102/495/495 327/496/496
f 125/497/497 38/498/498 126/499/499 328/500/500
f 328/501/501 126/502/502 53/503/503 114/504/504
f 112/505/505 328/506/506 114/507/507 54/508/508
f 67/509/509 125/510/510 328/511/511 112/512/512
f 114/513/513 53/514/514 115/515/515 329/516/516
f 329/517/517 115/518/518 65/519/519 101/520/520
f 99/521/521 329/522/522 101/523/523 55/524/524
f 54/525/525 114/526/526 329/527/527 99/528/528
f 330/529/529 116/530/530 36/531/531 118/532/532
f 102/533/533 330/534/534 118/535/535 52/536/536
f 65/537/537 115/538/538 330/539/539 102/540/540
f 53/541/541 116/542/542 330/543/543 115/544/544
f 158/545/545 165/546/546 172/547/547 162/548/548
f 168/549/549 161/550/550 160/551/551
f 164/552/552 165/553/553 158/554/554
f 159/555/555 162/556/556 172/557/557 166/558/558
f 159/559/559 166/560/560 45/561/561 153/562/562
f 160/563/563 45/564/564 9/565/565 167/566/566
f 170/567/567 164/568/568 163/569/569
f 168/570/570 163/571/571 156/572/572
f 168/573/573 160/574/574 167/575/575 10/576/576
f 163/577/577 168/578/578 10/579/579 169/580/580
f 163/581/581 169/582/582 11/583/583 170/584/584
f 170/585/585 11/586/586 171/587/587 165/588/588
f 165/589/589 171/590/590 12/591/591 172/592/592
f 172/593/593 12/594/594 173/595/595 166/596/596
f 45/597/597 166/598/598 173/599/599 9/600/600
f 11/601/601 169/602/602 175/603/603 179/604/604
f 178/605/605 10/606/606 167/607/607
f 10/608/608 178/609/609 175/610/610 169/611/611
f 173/612/612 176/613/613 174/614/614 9/615/615
f 171/616/616 46/617/617 12/618/618
f 173/619/619 12/620/620 46/621/621 176/622/622
f 175/623/623 178/624/624 184/625/625 185/626/626
f 177/627/627 180/628/628 167/629/629
f 179/630/630 181/631/631 171/632/632
f 177/633/633 174/634/634 176/635/635
f 184/636/636 178/637/637 180/638/638
f 175/639/639 185/640/640 186/641/641 179/642/642
f 176/643/643 46/644/644 47/645/645 182/646/646
f 47/647/647 46/648/648 181/649/649
f 180/650/650 177/651/651 13/652/652 183/653/653
f 184/654/654 180/655/655 183/656/656 14/657/657
f 186/658/658 15/659/659 187/660/660 181/661/661
f 15/662/662 186/663/663 185/664/664
f 181/665/665 187/666/666 16/667/667 188/668/668
f 188/669/669 16/670/670 189/671/671 331/672/672
f 188/673/673 47/674/674 181/675/675
f 177/676/676 331/677/677 189/678/678 13/679/679
f 47/680/680 188/681/681 331/682/682 182/683/683
f 190/684/684 48/685/685 95/686/686 332/687/687
f 191/688/688 332/689/689 95/690/690 49/691/691
f 14/692/692 183/693/693 332/694/694 191/695/695
f 13/696/696 190/697/697 332/698/698 183/699/699
f 191/700/700 49/701/701 106/702/702 333/703/703
f 192/704/704 333/705/705 106/706/706 50/707/707
f 15/708/708 185/709/709 333/710/710 192/711/711
f 14/712/712 191/713/713 333/714/714 185/715/715
f 192/716/716 50/717/717 107/718/718 334/719/719
f 193/720/720 334/721/721 107/722/722 51/723/723
f 16/724/724 187/725/725 334/726/726 193/727/727
f 187/728/728 15/729/729 192/730/730 334/731/731
f 193/732/732 51/733/733 109/734/734 335/735/735
f 335/736/736 109/737/737 48/738/738 190/739/739
f 189/740/740 335/741/741 190/742/742 13/743/743
f 16/744/744 193/745/745 335/746/746 189/747/747
f 336/748/748 194/749/749 17/750/750 195/751/751
f 336/752/752 195/753/753 18/754/754 196/755/755
f 88/756/756 117/757/757 336/758/758 196/759/759
f 87/760/760 194/761/761 336/762/762 117/763/763
f 196/764/764 18/765/765 197/766/766 337/767/767
f 337/768/768 197/769/769 19/770/770 198/771/771
f 89/772/772 113/773/773 337/774/774 198/775/775
f 88/776/776 196/777/777 337/778/778 113/779/779
f 338/780/780 198/781/781 19/782/782 199/783/783
f 200/784/784 338/785/785 199/786/786 20/787/787
f 90/788/788 111/789/789 338/790/790 200/791/791
f 89/792/792 198/793/793 338/794/794 111/795/795
f 339/796/796 200/797/797 20/798/798 201/799/799
f 194/800/800 339/801/801 201/802/802 17/803/803
f 87/804/804 122/805/805 339/806/806 194/807/807
f 90/808/808 200/809/809 339/810/810 122/811/811
f 195/812/812 203/813/813 204/814/814 18/815/815
f 57/816/816 204/817/817 203/818/818
f 195/819/819 17/820/820 202/821/821 203/822/822
f 204/823/823 57/824/824 205/825/825 340/826/826
f 340/827/827 205/828/828 213/829/829 206/830/830
f 197/831/831 340/832/832 206/833/833 19/834/834
f 18/835/835 204/836/836 340/837/837 197/838/838
f 206/839/839 213/840/840 207/841/841 341/842/842
f 208/843/843 341/844/844 207/845/845 58/846/846
f 20/847/847 199/848/848 341/849/849 208/850/850
f 19/851/851 206/852/852 341/853/853 199/854/854
f 342/855/855 208/856/856 58/857/857 209/858/858
f 202/859/859 342/860/860 209/861/861 56/862/862
f 17/863/863 201/864/864 342/865/865 202/866/866
f 201/867/867 20/868/868 208/869/869 342/870/870
f 207/871/871 216/872/872 222/873/873 58/874/874
f 56/875/875 210/876/876 203/877/877
f 218/878/878 57/879/879 210/880/880
f 214/881/881 211/882/882 21/883/883 217/884/884
f 213/885/885 216/886/886 207/887/887
f 211/888/888 56/889/889 209/890/890
f 218/891/891 212/892/892 205/893/893
f 220/894/894 213/895/895 212/896/896
f 211/897/897 214/898/898 210/899/899
f 222/900/900 215/901/901 209/902/902
f 218/903/903 214/904/904 217/905/905 61/906/906
f 212/907/907 218/908/908 61/909/909 219/910/910
f 220/911/911 212/912/912 219/913/913 59/914/914
f 216/915/915 220/916/916 59/917/917 221/918/918
f 216/919/919 221/920/920 60/921/921 222/922/922
f 222/923/923 60/924/924 223/925/925 215/926/926
f 215/927/927 223/928/928 21/929/929 211/930/930
f 21/931/931 224/932/932 225/933/933 217/934/934
f 219/935/935 226/936/936 63/937/937 59/938/938
f 224/939/939 21/940/940 223/941/941
f 221/942/942 59/943/943 63/944/944 227/945/945
f 61/946/946 226/947/947 219/948/948
f 343/949/949 231/950/950 22/951/951 136/952/952
f 60/953/953 228/954/954 223/955/955
f 64/956/956 60/957/957 227/958/958
f 62/959/959 61/960/960 225/961/961
f 229/962/962 224/963/963 228/964/964
f 229/965/965 230/966/966 225/967/967
f 343/968/968 136/969/969 23/970/970 232/971/971
f 230/972/972 343/973/973 232/974/974 62/975/975
f 230/976/976 229/977/977 231/978/978 343/979/979
f 344/980/980 232/981/981 23/982/982 135/983/983
f 344/984/984 135/985/985 24/986/986 233/987/987
f 226/988/988 344/989/989 233/990/990 63/991/991
f 226/992/992 62/993/993 232/994/994 344/995/995
f 345/996/996 233/997/997 24/998/998 134/999/999
f 345/1000/1000 134/1001/1001 25/1002/1002 234/1003/1003
f 227/1004/1004 345/1005/1005 234/1006/1006 64/1007/1007
f 227/1008/1008 63/1009/1009 233/1010/1010 345/1011/1011
f 346/1012/1012 234/1013/1013 25/1014/1014 133/1015/1015
f 346/1016/1016 133/1017/1017 22/1018/1018 231/1019/1019
f 228/1020/1020 346/1021/1021 231/1022/1022 229/1023/1023
f 228/1024/1024 64/1025/1025 234/1026/1026 346/1027/1027
f 347/1028/1028 235/1029/1029 26/1030/1030 236/1031/1031
f 237/1032/1032 347/1033/1033 236/1034/1034 27/1035/1035
f 92/1036/1036 103/1037/1037 347/1038/1038 237/1039/1039
f 103/1040/1040 91/1041/1041 235/1042/1042 347/1043/1043
f 237/1044/1044 27/1045/1045 238/1046/1046 348/1047/1047
f 348/1048/1048 238/1049/1049 28/1050/1050 239/1051/1051
f 93/1052/1052 100/1053/1053 348/1054/1054 239/1055/1055
f 92/1056/1056 237/1057/1057 348/1058/1058 100/1059/1059
f 239/1060/1060 28/1061/1061 240/1062/1062 349/1063/1063
f 349/1064/1064 240/1065/1065 29/1066/1066 241/1067/1067
f 96/1068/1068 349/1069/1069 241/1070/1070 94/1071/1071
f 93/1072/1072 239/1073/1073 349/1074/1074 96/1075/1075
f 350/1076/1076 241/1077/1077 29/1078/1078 242/1079/1079
f 235/1080/1080 350/1081/1081 242/1082/1082 26/1083/1083
f 91/1084/1084 105/1085/1085 350/1086/1086 235/1087/1087
f 94/1088/1088 241/1089/1089 350/1090/1090 105/1091/1091
f 351/1092/1092 243/1093/1093 68/1094/1094 244/1095/1095
f 236/1096/1096 351/1097/1097 69/1098/1098 27/1099/1099
f 236/1100/1100 26/1101/1101 243/1102/1102 351/1103/1103
f 238/1104/1104 245/1105/1105 246/1106/1106 28/1107/1107
f 5/1108/1108 152/1109/1109 159/1110/1110 153/1111/1111
f 70/1112/1112 246/1113/1113 245/1114/1114
f 27/1115/1115 69/1116/1116 245/1117/1117 238/1118/1118
f 246/1119/1119 70/1120/1120 247/1121/1121 352/1122/1122
f 248/1123/1123 352/1124/1124 247/1125/1125 251/1126/1126
f 29/1127/1127 240/1128/1128 352/1129/1129 248/1130/1130
f 28/1131/1131 246/1132/1132 352/1133/1133 240/1134/1134
f 353/1135/1135 248/1136/1136 251/1137/1137 249/1138/1138
f 243/1139/1139 353/1140/1140 249/1141/1141 68/1142/1142
f 26/1143/1143 242/1144/1144 353/1145/1145 243/1146/1146
f 242/1147/1147 29/1148/1148 248/1149/1149 353/1150/1150
f 249/1151/1151 251/1152/1152 261/1153/1153 255/1154/1154
f 257/1155/1155 69/1156/1156 244/1157/1157
f 68/1158/1158 250/1159/1159 244/1160/1160
f 261/1161/1161 251/1162/1162 247/1163/1163
f 245/1164/1164 253/1165/1165 259/1166/1166 70/1167/1167
f 247/1168/1168 70/1169/1169 259/1170/1170 254/1171/1171
f 257/1172/1172 253/1173/1173 245/1174/1174
f 252/1175/1175 30/1176/1176 256/1177/1177 250/1178/1178
f 252/1179/1179 68/1180/1180 255/1181/1181
f 250/1182/1182 256/1183/1183 31/1184/1184 257/1185/1185
f 253/1186/1186 257/1187/1187 31/1188/1188 258/1189/1189
f 259/1190/1190 253/1191/1191 258/1192/1192 71/1193/1193
f 254/1194/1194 259/1195/1195 71/1196/1196 260/1197/1197
f 261/1198/1198 254/1199/1199 260/1200/1200 73/1201/1201
f 255/1202/1202 261/1203/1203 73/1204/1204 262/1205/1205
f 255/1206/1206 262/1207/1207 30/1208/1208 252/1209/1209
f 258/1210/1210 31/1211/1211 72/1212/1212 263/1213/1213
f 72/1214/1214 31/1215/1215 256/1216/1216
f 260/1217/1217 71/1218/1218 75/1219/1219 264/1220/1220
f 75/1221/1221 71/1222/1222 263/1223/1223
f 263/1224/1224 72/1225/1225 74/1226/1226 268/1227/1227
f 73/1228/1228 265/1229/1229 262/1230/1230
f 30/1231/1231 266/1232/1232 256/1233/1233
f 267/1234/1234 30/1235/1235 265/1236/1236
f 74/1237/1237 72/1238/1238 266/1239/1239
f 354/1240/1240 269/1241/1241 32/1242/1242 140/1243/1243
f 76/1244/1244 73/1245/1245 264/1246/1246
f 354/1247/1247 140/1248/1248 33/1249/1249 270/1250/1250
f 266/1251/1251 354/1252/1252 270/1253/1253 74/1254/1254
f 266/1255/1255 267/1256/1256 269/1257/1257 354/1258/1258
f 355/1259/1259 270/1260/1260 33/1261/1261 139/1262/1262
f 355/1263/1263 139/1264/1264 34/1265/1265 271/1266/1266
f 268/1267/1267 355/1268/1268 271/1269/1269 75/1270/1270
f 268/1271/1271 74/1272/1272 270/1273/1273 355/1274/1274
f 356/1275/1275 271/1276/1276 34/1277/1277 138/1278/1278
f 356/1279/1279 138/1280/1280 35/1281/1281 272/1282/1282
f 264/1283/1283 356/1284/1284 272/1285/1285 76/1286/1286
f 264/1287/1287 75/1288/1288 271/1289/1289 356/1290/1290
f 357/1291/1291 272/1292/1292 35/1293/1293 137/1294/1294
f 357/1295/1295 137/1296/1296 32/1297/1297 269/1298/1298
f 265/1299/1299 357/1300/1300 269/1301/1301 267/1302/1302
f 265/1303/1303 76/1304/1304 272/1305/1305 357/1306/1306
f 273/1307/1307 77/1308/1308 274/1309/1309 358/1310/1310
f 358/1311/1311 274/1312/1312 78/1313/1313 275/1314/1314
f 129/1315/1315 358/1316/1316 275/1317/1317 36/1318/1318
f 129/1319/1319 66/1320/1320 273/1321/1321 358/1322/1322
f 275/1323/1323 78/1324/1324 276/1325/1325 359/1326/1326
f 359/1327/1327 276/1328/1328 79/1329/1329 277/1330/1330
f 120/1331/1331 359/1332/1332 277/1333/1333 37/1334/1334
f 36/1335/1335 275/1336/1336 359/1337/1337 120/1338/1338
f 360/1339/1339 277/1340/1340 79/1341/1341 278/1342/1342
f 279/1343/1343 360/1344/1344 278/1345/1345 80/1346/1346
f 38/1347/1347 123/1348/1348 360/1349/1349 279/1350/1350
f 37/1351/1351 277/1352/1352 360/1353/1353 123/1354/1354
f 361/1355/1355 279/1356/1356 80/1357/1357 280/1358/1358
f 273/1359/1359 361/1360/1360 280/1361/1361 77/1362/1362
f 66/1363/1363 127/1364/1364 361/1365/1365 273/1366/1366
f 127/1367/1367 38/1368/1368 279/1369/1369 361/1370/1370
f 77/1371/1371 281/1372/1372 282/1373/1373 274/1374/1374
f 77/1375/1375 280/1376/1376 283/1377/1377 281/1378/1378
f 282/1379/1379 287/1380/1380 290/1381/1381 78/1382/1382
f 80/1383/1383 283/1384/1384 280/1385/1385
f 282/1386/1386 281/1387/1387 284/1388/1388 287/1389/1389
f 276/1390/1390 285/1391/1391 292/1392/1392 79/1393/1393
f 276/1394/1394 78/1395/1395 290/1396/1396 285/1397/1397
f 278/1398/1398 286/1399/1399 294/1400/1400 80/1401/1401
f 278/1402/1402 79/1403/1403 292/1404/1404 286/1405/1405
f 283/1406/1406 288/1407/1407 284/1408/1408 281/1409/1409
f 283/1410/1410 80/1411/1411 294/1412/1412 288/1413/1413
f 287/1414/1414 284/1415/1415 39/1416/1416 289/1417/1417
f 287/1418/1418 289/1419/1419 82/1420/1420 290/1421/1421
f 290/1422/1422 82/1423/1423 291/1424/1424 285/1425/1425
f 285/1426/1426 291/1427/1427 40/1428/1428 292/1429/1429
f 286/1430/1430 292/1431/1431 40/1432/1432 293/1433/1433
f 294/1434/1434 286/1435/1435 293/1436/1436 83/1437/1437
f 288/1438/1438 294/1439/1439 83/1440/1440 295/1441/1441
f 288/1442/1442 295/1443/1443 39/1444/1444 284/1445/1445
f 291/1446/1446 296/1447/1447 81/1448/1448 40/1449/1449
f 293/1450/1450 40/1451/1451 81/1452/1452 297/1453/1453
f 296/1454/1454 291/1455/1455 82/1456/1456
f 362/1457/1457 303/1458/1458 41/1459/1459 144/1460/1460
f 81/1461/1461 299/1462/1462 297/1463/1463
f 298/1464/1464 39/1465/1465 295/1466/1466
f 85/1467/1467 81/1468/1468 296/1469/1469
f 83/1470/1470 300/1471/1471 295/1472/1472
f 298/1473/1473 301/1474/1474 289/1475/1475
f 82/1476/1476 302/1477/1477 296/1478/1478
f 84/1479/1479 82/1480/1480 301/1481/1481
f 86/1482/1482 83/1483/1483 299/1484/1484
f 362/1485/1485 144/1486/1486 42/1487/1487 304/1488/1488
f 301/1489/1489 362/1490/1490 304/1491/1491 84/1492/1492
f 301/1493/1493 298/1494/1494 303/1495/1495 362/1496/1496
f 363/1497/1497 304/1498/1498 42/1499/1499 143/1500/1500
f 363/1501/1501 143/1502/1502 43/1503/1503 305/1504/1504
f 302/1505/1505 363/1506/1506 305/1507/1507 85/1508/1508
f 302/1509/1509 84/1510/1510 304/1511/1511 363/1512/1512
f 364/1513/1513 305/1514/1514 43/1515/1515 142/1516/1516
f 364/1517/1517 142/1518/1518 44/1519/1519 306/1520/1520
f 299/1521/1521 364/1522/1522 306/1523/1523 86/1524/1524
f 299/1525/1525 85/1526/1526 305/1527/1527 364/1528/1528
f 365/1529/1529 306/1530/1530 44/1531/1531 141/1532/1532
f 365/1533/1533 141/1534/1534 41/1535/1535 303/1536/1536
f 300/1537/1537 365/1538/1538 303/1539/1539 298/1540/1540
f 300/1541/1541 86/1542/1542 306/1543/1543 365/1544/1544
