# right_shin - exported from blender/silhouette.blend by tools/blender_export.py
o right_shin
v -0.03099 0.02713 0.01579
v 0.00879 0.03173 0.02929
v 0.02291 0.03524 -0.00587
v -0.01248 0.03458 -0.02007
v -0.03621 -0.01697 0.01900
v -0.01730 -0.56173 0.09001
v 0.02026 -0.56764 0.10339
v -0.01197 -0.62177 -0.00320
v 0.01458 -0.63164 -0.20254
v -0.01812 -0.52825 0.09535
v 0.02227 -0.63469 0.00194
v -0.00388 -0.59953 -0.00108
v -0.00114 -0.63209 -0.11804
v 0.01195 -0.63710 -0.20233
v -0.02332 0.03524 -0.00362
v -0.01048 0.03326 0.02613
v 0.01937 0.03591 0.01351
v 0.00653 0.03790 -0.01625
v -0.01504 0.01844 0.03436
v 0.03477 0.01577 0.01435
v 0.03162 0.02202 -0.01057
v 0.01518 -0.02154 -0.03202
v -0.01517 0.02062 -0.02939
v -0.03540 -0.02008 -0.01064
v -0.02232 -0.30189 0.06632
v 0.01478 0.01884 0.03520
v 0.03733 -0.02002 -0.01157
v -0.01503 -0.02423 -0.03257
v -0.00360 -0.30188 0.08379
v 0.03914 -0.29822 0.06521
v 0.02121 -0.30574 0.02295
v -0.02152 -0.30582 0.04117
v 0.02182 -0.30144 0.08449
v 0.03990 -0.30732 0.04082
v -0.00417 -0.31089 0.02307
v -0.00202 -0.52689 0.10992
v 0.03536 -0.52692 0.09485
v 0.01975 -0.52999 0.05882
v -0.01745 -0.52904 0.07400
v -0.00132 -0.56720 0.10269
v 0.02039 -0.52702 0.11075
v 0.03486 -0.57085 0.08642
v 0.03601 -0.52737 0.07348
v 0.01863 -0.55387 0.05745
v -0.00248 -0.53122 0.05851
v -0.01680 -0.55997 0.06902
v -0.01584 -0.59141 0.06254
v 0.00102 -0.61357 0.04788
v 0.02058 -0.59127 0.08474
v 0.03343 -0.60998 0.03784
v 0.03487 -0.55949 0.06946
v -0.00216 -0.55433 0.05606
v 0.00350 -0.63198 0.00112
v 0.02139 -0.61731 0.04581
v 0.03304 -0.62706 -0.00162
v 0.03250 -0.59460 0.03217
v 0.01551 -0.59641 0.00886
v -0.01486 -0.60728 0.00284
v 0.00994 -0.63942 -0.11659
v 0.02996 -0.63682 -0.11585
v 0.01544 -0.60833 -0.03036
v -0.00301 -0.62374 -0.11839
v 0.03115 -0.61526 -0.00659
v 0.00368 -0.61849 -0.11553
v 0.01952 -0.64118 -0.20141
v 0.02302 -0.64164 -0.11564
v 0.02449 -0.63873 -0.19750
v 0.02274 -0.63387 -0.20115
v 0.01051 -0.63327 -0.19858
v -0.00226 0.04066 0.00565
v 0.02100 -0.63677 -0.20415
v 0.01172 0.02215 -0.02865
v -0.03331 0.01914 -0.00958
v -0.00042 -0.59030 0.08388
vt 0.0300 0.5000
vt 0.0300 0.5000
vt 0.0300 0.5000
vt 0.0300 0.5000
vt 0.0300 0.5000
vt 0.0300 0.5000
vt 0.0300 0.5000
vt 0.0300 0.5000
vt 0.0300 0.5000
vt 0.0300 0.5000
vt 0.0300 0.5000
vt 0.0300 0.5000
vt 0.0300 0.5000
vt 0.0300 0.5000
vt 0.0300 0.5000
vt 0.0300 0.5000
vt 0.0300 0.5000
vt 0.0300 0.5000
vt 0.0300 0.5000
vt 0.0300 0.5000
vt 0.0300 0.5000
vt 0.0300 0.5000
vt 0.0300 0.5000
vt 0.0300 0.5000
vt 0.0300 0.5000
vt 0.0300 0.5000
vt 0.0300 0.5000
vt 0.0300 0.5000
vt 0.0300 0.5000
vt 0.0300 0.5000
vt 0.0300 0.5000
vt 0.0300 0.5000
vt 0.0300 0.5000
vt 0.0300 0.5000
vt 0.0300 0.5000
vt 0.0300 0.5000
vt 0.0300 0.5000
vt 0.0300 0.5000
vt 0.0300 0.5000
vt 0.0300 0.5000
vt 0.0300 0.5000
vt 0.0300 0.5000
vt 0.0300 0.5000
vt 0.0300 0.5000
vt 0.0300 0.5000
vt 0.0300 0.5000
vt 0.0300 0.5000
vt 0.0300 0.5000
vt 0.0300 0.5000
vt 0.0300 0.5000
vt 0.0300 0.5000
vt 0.0300 0.5000
vt 0.0300 0.5000
vt 0.0300 0.5000
vt 0.0300 0.5000
vt 0.0300 0.5000
vt 0.0300 0.5000
vt 0.0300 0.5000
vt 0.0300 0.5000
vt 0.0300 0.5000
vt 0.0300 0.5000
vt 0.0300 0.5000
vt 0.0300 0.5000
vt 0.0300 0.5000
vt 0.0300 0.5000
vt 0.0300 0.5000
vt 0.0300 0.5000
vt 0.0300 0.5000
vt 0.0300 0.5000
vt 0.0300 0.5000
vt 0.0300 0.5000
vt 0.0300 0.5000
vt 0.0300 0.5000
vt 0.0300 0.5000
vt 0.0300 0.5000
vt 0.0300 0.5000
vt 0.0300 0.5000
vt 0.0300 0.5000
vt 0.0300 0.5000
vt 0.0300 0.5000
vt 0.0300 0.5000
vt 0.0300 0.5000
vt 0.0300 0.5000
vt 0.0300 0.5000
vt 0.0300 0.5000
vt 0.0300 0.5000
vt 0.0300 0.5000
vt 0.0300 0.5000
vt 0.0300 0.5000
vt 0.0300 0.5000
vt 0.0300 0.5000
vt 0.0300 0.5000
vt 0.0300 0.5000
vt 0.0300 0.5000
vt 0.0300 0.5000
vt 0.0300 0.5000
vt 0.0300 0.5000
vt 0.0300 0.5000
vt 0.0300 0.5000
vt 0.0300 0.5000
vt 0.0300 0.5000
vt 0.0300 0.5000
vt 0.0300 0.5000
vt 0.0300 0.5000
vt 0.0300 0.5000
vt 0.0300 0.5000
vt 0.0300 0.5000
vt 0.0300 0.5000
vt 0.0300 0.5000
vt 0.0300 0.5000
vt 0.0300 0.5000
vt 0.0300 0.5000
vt 0.0300 0.5000
vt 0.0300 0.5000
vt 0.0300 0.5000
vt 0.0300 0.5000
vt 0.0300 0.5000
vt 0.0300 0.5000
vt 0.0300 0.5000
vt 0.0300 0.5000
vt 0.0300 0.5000
vt 0.0300 0.5000
vt 0.0300 0.5000
vt 0.0300 0.5000
vt 0.0300 0.5000
vt 0.0300 0.5000
vt 0.0300 0.5000
vt 0.0300 0.5000
vt 0.0300 0.5000
vt 0.0300 0.5000
vt 0.0300 0.5000
vt 0.0300 0.5000
vt 0.0300 0.5000
vt 0.0300 0.5000
vt 0.0300 0.5000
vt 0.0300 0.5000
vt 0.0300 0.5000
vt 0.0300 0.5000
vt 0.0300 0.5000
vt 0.0300 0.5000
vt 0.0300 0.5000
vt 0.0300 0.5000
vt 0.0300 0.5000
vt 0.0300 0.5000
vt 0.0300 0.5000
vt 0.0300 0.5000
vt 0.0300 0.5000
vt 0.0300 0.5000
vt 0.0300 0.5000
vt 0.0300 0.5000
vt 0.0300 0.5000
vt 0.0300 0.5000
vt 0.0300 0.5000
vt 0.0300 0.5000
vt 0.0300 0.5000
vt 0.0300 0.5000
vt 0.0300 0.5000
vt 0.0300 0.5000
vt 0.0300 0.5000
vt 0.0300 0.5000
vt 0.0300 0.5000
vt 0.0300 0.5000
vt 0.0300 0.5000
vt 0.0300 0.5000
vt 0.0300 0.5000
vt 0.0300 0.5000
vt 0.0300 0.5000
vt 0.0300 0.5000
vt 0.0300 0.5000
vt 0.0300 0.5000
vt 0.0300 0.5000
vt 0.0300 0.5000
vt 0.0300 0.5000
vt 0.0300 0.5000
vt 0.0300 0.5000
vt 0.0300 0.5000
vt 0.0300 0.5000
vt 0.0300 0.5000
vt 0.0300 0.5000
vt 0.0300 0.5000
vt 0.0300 0.5000
vt 0.0300 0.5000
vt 0.0300 0.5000
vt 0.0300 0.5000
vt 0.0300 0.5000
vt 0.0300 0.5000
vt 0.0300 0.5000
vt 0.0300 0.5000
vt 0.0300 0.5000
vt 0.0300 0.5000
vt 0.0300 0.5000
vt 0.0300 0.5000
vt 0.0300 0.5000
vt 0.0300 0.5000
vt 0.0300 0.5000
vt 0.0300 0.5000
vt 0.0300 0.5000
vt 0.0300 0.5000
vt 0.0300 0.5000
vt 0.0300 0.5000
vt 0.0300 0.5000
vt 0.0300 0.5000
vt 0.0300 0.5000
vt 0.0300 0.5000
vt 0.0300 0.5000
vt 0.0300 0.5000
vt 0.0300 0.5000
vt 0.0300 0.5000
vt 0.0300 0.5000
vt 0.0300 0.5000
vt 0.0300 0.5000
vt 0.0300 0.5000
vt 0.0300 0.5000
vt 0.0300 0.5000
vt 0.0300 0.5000
vt 0.0300 0.5000
vt 0.0300 0.5000
vt 0.0300 0.5000
vt 0.0300 0.5000
vt 0.0300 0.5000
vt 0.0300 0.5000
vt 0.0300 0.5000
vt 0.0300 0.5000
vt 0.0300 0.5000
vt 0.0300 0.5000
vt 0.0300 0.5000
vt 0.0300 0.5000
vt 0.0300 0.5000
vt 0.0300 0.5000
vt 0.0300 0.5000
vt 0.0300 0.5000
vt 0.0300 0.5000
vt 0.0300 0.5000
vt 0.0300 0.5000
vt 0.0300 0.5000
vt 0.0300 0.5000
vt 0.0300 0.5000
vt 0.0300 0.5000
vt 0.0300 0.5000
vt 0.0300 0.5000
vt 0.0300 0.5000
vt 0.0300 0.5000
vt 0.0300 0.5000
vt 0.0300 0.5000
vt 0.0300 0.5000
vt 0.0300 0.5000
vt 0.0300 0.5000
vt 0.0300 0.5000
vt 0.0300 0.5000
vt 0.0300 0.5000
vt 0.0300 0.5000
vt 0.0300 0.5000
vt 0.0300 0.5000
vt 0.0300 0.5000
vt 0.0300 0.5000
vt 0.0300 0.5000
vt 0.0300 0.5000
vt 0.0300 0.5000
vt 0.0300 0.5000
vt 0.0300 0.5000
vt 0.0300 0.5000
vt 0.0300 0.5000
vt 0.0300 0.5000
vt 0.0300 0.5000
vt 0.0300 0.5000
vt 0.0300 0.5000
vt 0.0300 0.5000
vt 0.0300 0.5000
vt 0.0300 0.5000
vt 0.0300 0.5000
vt 0.0300 0.5000
vt 0.0300 0.5000
vt 0.0300 0.5000
vt 0.0300 0.5000
vt 0.0300 0.5000
vt 0.0300 0.5000
vt 0.0300 0.5000
vt 0.0300 0.5000
vt 0.0300 0.5000
vt 0.0300 0.5000
vt 0.0300 0.5000
vt 0.0300 0.5000
vt 0.0300 0.5000
vt 0.0300 0.5000
vt 0.0300 0.5000
vt 0.0300 0.5000
vt 0.0300 0.5000
vt 0.0300 0.5000
vt 0.0300 0.5000
vt 0.0300 0.5000
vt 0.0300 0.5000
vt 0.0300 0.5000
vt 0.0300 0.5000
vt 0.0300 0.5000
vt 0.0300 0.5000
vt 0.0300 0.5000
vt 0.0300 0.5000
vt 0.0300 0.5000
vt 0.0300 0.5000
vt 0.0300 0.5000
vt 0.0300 0.5000
vt 0.0300 0.5000
vt 0.0300 0.5000
vt 0.0300 0.5000
vt 0.0300 0.5000
vt 0.0300 0.5000
vt 0.0300 0.5000
vt 0.0300 0.5000
vt 0.0300 0.5000
vt 0.0300 0.5000
vt 0.0300 0.5000
vt 0.0300 0.5000
vt 0.0300 0.5000
vt 0.0300 0.5000
vt 0.0300 0.5000
vt 0.0300 0.5000
vt 0.0300 0.5000
vt 0.0300 0.5000
vt 0.0300 0.5000
vt 0.0300 0.5000
vt 0.0300 0.5000
vt 0.0300 0.5000
vt 0.0300 0.5000
vt 0.0300 0.5000
vt 0.0300 0.5000
vt 0.0300 0.5000
vt 0.0300 0.5000
vt 0.0300 0.5000
vt 0.0300 0.5000
vt 0.0300 0.5000
vt 0.0300 0.5000
vt 0.0300 0.5000
vt 0.0300 0.5000
vt 0.0300 0.5000
vt 0.0300 0.5000
vt 0.0300 0.5000
vt 0.0300 0.5000
vt 0.0300 0.5000
vt 0.0300 0.5000
vt 0.0300 0.5000
vt 0.0300 0.5000
vt 0.0300 0.5000
vt 0.0300 0.5000
vt 0.0300 0.5000
vt 0.0300 0.5000
vt 0.0300 0.5000
vn -0.2021 0.7194 -0.6645
vn 0.3981 -0.0773 -0.9141
vn -0.6734 -0.3881 -0.6292
vn -0.9261 0.0606 0.3724
vn -0.3815 0.2965 0.8755
vn -0.7859 0.5223 0.3310
vn -0.8910 0.2846 -0.3537
vn -0.7859 0.5223 0.3310
vn -0.5478 0.8222 -0.1545
vn 0.9152 0.0178 -0.4026
vn 0.8966 0.3104 0.3158
vn 0.9238 0.0557 0.3787
vn -0.9250 -0.0924 -0.3685
vn -0.9261 0.0606 0.3724
vn -0.9251 -0.0180 -0.3794
vn -0.9195 0.0268 0.3922
vn -0.3815 0.2965 0.8755
vn -0.9261 0.0606 0.3724
vn 0.3866 0.1251 0.9137
vn 0.9238 0.0557 0.3787
vn 0.3879 0.3422 0.8559
vn 0.3836 -0.1592 -0.9097
vn 0.9152 0.0178 -0.4026
vn 0.9247 -0.0669 -0.3749
vn -0.3838 -0.0677 -0.9209
vn 0.3715 -0.0330 -0.9278
vn 0.3836 -0.1592 -0.9097
vn -0.3833 -0.1678 -0.9083
vn -0.9250 -0.0924 -0.3685
vn -0.3838 -0.0677 -0.9209
vn 0.3698 -0.0321 0.9286
vn 0.9137 -0.0253 0.4055
vn 0.3866 0.1251 0.9137
vn 0.9137 -0.0253 0.4055
vn 0.9247 -0.0669 -0.3749
vn 0.9238 0.0557 0.3787
vn 0.9285 -0.0329 -0.3698
vn 0.3766 -0.0403 -0.9255
vn 0.9247 -0.0669 -0.3749
vn 0.3766 -0.0403 -0.9255
vn -0.3833 -0.1678 -0.9083
vn 0.3836 -0.1592 -0.9097
vn 0.3242 -0.7058 0.6299
vn 0.8902 -0.2551 0.3775
vn 0.3391 -0.3698 0.8650
vn -0.8687 -0.4206 0.2615
vn -0.9519 0.1287 -0.2780
vn -0.9592 0.2296 -0.1649
vn 0.3463 0.8035 -0.4842
vn 0.8974 0.3293 -0.2937
vn 0.8836 0.4435 -0.1502
vn -0.3237 0.8654 -0.3825
vn 0.3463 0.8035 -0.4842
vn 0.3780 0.9126 -0.1557
vn -0.8252 -0.5616 -0.0606
vn -0.3657 -0.9307 0.0114
vn -0.8330 -0.5494 0.0652
vn 0.9424 -0.3331 -0.0304
vn 0.8836 0.4435 -0.1502
vn 0.9033 -0.4217 0.0786
vn 0.9033 -0.4217 0.0786
vn 0.2446 -0.9448 0.2179
vn 0.2238 -0.9743 0.0256
vn -0.9592 0.2296 -0.1649
vn -0.3237 0.8654 -0.3825
vn -0.2153 0.9618 -0.1694
vn 0.6990 0.5766 -0.4231
vn 0.3780 0.9126 -0.1557
vn 0.8836 0.4435 -0.1502
vn -0.6734 -0.3881 -0.6292
vn -0.3657 -0.9307 0.0114
vn -0.8252 -0.5616 -0.0606
vn 0.9016 -0.3881 -0.1911
vn 0.6990 0.5766 -0.4231
vn 0.9424 -0.3331 -0.0304
vn -0.2153 0.9618 -0.1694
vn 0.3780 0.9126 -0.1557
vn 0.6990 0.5766 -0.4231
vn 0.9016 -0.3881 -0.1911
vn 0.2238 -0.9743 0.0256
vn 0.0832 -0.8840 -0.4600
vn -0.0666 0.9934 0.0939
vn -0.2304 0.7748 0.5887
vn 0.2203 0.7118 0.6669
vn 0.4925 0.8253 0.2762
vn 0.5687 0.7973 -0.2021
vn 0.1700 0.8686 -0.4654
vn -0.0666 0.9934 0.0939
vn 0.4925 0.8253 0.2762
vn -0.2976 0.7773 -0.5542
vn -0.5478 0.8222 -0.1545
vn -0.0666 0.9934 0.0939
vn 0.1700 0.8686 -0.4654
vn 0.2203 0.7118 0.6669
vn -0.2304 0.7748 0.5887
vn -0.3815 0.2965 0.8755
vn 0.3879 0.3422 0.8559
vn 0.3981 -0.0773 -0.9141
vn 0.0832 -0.8840 -0.4600
vn -0.6734 -0.3881 -0.6292
vn 0.5687 0.7973 -0.2021
vn 0.4925 0.8253 0.2762
vn 0.8966 0.3104 0.3158
vn 0.8334 0.3954 -0.3862
vn -0.3815 0.2965 0.8755
vn -0.2304 0.7748 0.5887
vn -0.7859 0.5223 0.3310
vn 0.9152 0.0178 -0.4026
vn 0.8334 0.3954 -0.3862
vn 0.8966 0.3104 0.3158
vn 0.2203 0.7118 0.6669
vn 0.3879 0.3422 0.8559
vn 0.8966 0.3104 0.3158
vn 0.4925 0.8253 0.2762
vn 0.8334 0.3954 -0.3862
vn 0.9152 0.0178 -0.4026
vn 0.3715 -0.0330 -0.9278
vn 0.3361 0.3593 -0.8706
vn -0.3815 0.3315 -0.8629
vn 0.3361 0.3593 -0.8706
vn 0.3715 -0.0330 -0.9278
vn -0.3838 -0.0677 -0.9209
vn -0.2976 0.7773 -0.5542
vn 0.1700 0.8686 -0.4654
vn 0.3361 0.3593 -0.8706
vn -0.3815 0.3315 -0.8629
vn 0.5687 0.7973 -0.2021
vn 0.8334 0.3954 -0.3862
vn 0.3361 0.3593 -0.8706
vn 0.1700 0.8686 -0.4654
vn -0.8910 0.2846 -0.3537
vn -0.3815 0.3315 -0.8629
vn -0.3838 -0.0677 -0.9209
vn -0.9251 -0.0180 -0.3794
vn -0.7859 0.5223 0.3310
vn -0.8910 0.2846 -0.3537
vn -0.9251 -0.0180 -0.3794
vn -0.9261 0.0606 0.3724
vn -0.2976 0.7773 -0.5542
vn -0.3815 0.3315 -0.8629
vn -0.8910 0.2846 -0.3537
vn -0.5478 0.8222 -0.1545
vn 0.3879 0.3422 0.8559
vn -0.3815 0.2965 0.8755
vn -0.3744 0.1165 0.9199
vn 0.3866 0.1251 0.9137
vn 0.9238 0.0557 0.3787
vn 0.8966 0.3104 0.3158
vn 0.3879 0.3422 0.8559
vn -0.3838 -0.0677 -0.9209
vn -0.9250 -0.0924 -0.3685
vn -0.9251 -0.0180 -0.3794
vn -0.9195 0.0268 0.3922
vn -0.3744 0.1165 0.9199
vn -0.3815 0.2965 0.8755
vn -0.3744 0.1165 0.9199
vn -0.9195 0.0268 0.3922
vn -0.9047 -0.0305 0.4249
vn -0.3647 -0.0290 0.9307
vn 0.9247 -0.0669 -0.3749
vn 0.9152 0.0178 -0.4026
vn 0.9238 0.0557 0.3787
vn -0.3833 -0.1678 -0.9083
vn -0.3838 -0.0677 -0.9209
vn 0.3836 -0.1592 -0.9097
vn 0.9152 0.0178 -0.4026
vn 0.3836 -0.1592 -0.9097
vn 0.3715 -0.0330 -0.9278
vn -0.9195 0.0268 0.3922
vn -0.9261 0.0606 0.3724
vn -0.9250 -0.0924 -0.3685
vn -0.3744 0.1165 0.9199
vn -0.3647 -0.0290 0.9307
vn 0.3698 -0.0321 0.9286
vn 0.3866 0.1251 0.9137
vn -0.9250 -0.0924 -0.3685
vn -0.3833 -0.1678 -0.9083
vn -0.3867 -0.0241 -0.9219
vn -0.9333 -0.0228 -0.3584
vn 0.9285 -0.0329 -0.3698
vn 0.9247 -0.0669 -0.3749
vn 0.9137 -0.0253 0.4055
vn 0.3866 0.1251 0.9137
vn 0.9137 -0.0253 0.4055
vn 0.9238 0.0557 0.3787
vn -0.3867 -0.0241 -0.9219
vn -0.3833 -0.1678 -0.9083
vn 0.3766 -0.0403 -0.9255
vn 0.9247 -0.0669 -0.3749
vn 0.3766 -0.0403 -0.9255
vn 0.3836 -0.1592 -0.9097
vn -0.9250 -0.0924 -0.3685
vn -0.9333 -0.0228 -0.3584
vn -0.9047 -0.0305 0.4249
vn -0.9195 0.0268 0.3922
vn -0.3647 -0.0290 0.9307
vn -0.9047 -0.0305 0.4249
vn -0.8889 -0.2189 0.4024
vn -0.3643 -0.3970 0.8424
vn 0.3698 -0.0321 0.9286
vn -0.3647 -0.0290 0.9307
vn -0.3643 -0.3970 0.8424
vn 0.3391 -0.3698 0.8650
vn 0.3698 -0.0321 0.9286
vn 0.3391 -0.3698 0.8650
vn 0.8902 -0.2551 0.3775
vn 0.9137 -0.0253 0.4055
vn 0.9137 -0.0253 0.4055
vn 0.8902 -0.2551 0.3775
vn 0.9420 0.1245 -0.3116
vn 0.9285 -0.0329 -0.3698
vn 0.9285 -0.0329 -0.3698
vn 0.9420 0.1245 -0.3116
vn 0.4208 0.3910 -0.8186
vn 0.3766 -0.0403 -0.9255
vn -0.3867 -0.0241 -0.9219
vn 0.3766 -0.0403 -0.9255
vn 0.4208 0.3910 -0.8186
vn -0.3702 0.4605 -0.8068
vn -0.9333 -0.0228 -0.3584
vn -0.3867 -0.0241 -0.9219
vn -0.3702 0.4605 -0.8068
vn -0.9519 0.1287 -0.2780
vn -0.9047 -0.0305 0.4249
vn -0.9333 -0.0228 -0.3584
vn -0.9519 0.1287 -0.2780
vn -0.8889 -0.2189 0.4024
vn 0.3242 -0.7058 0.6299
vn -0.3592 -0.6889 0.6297
vn -0.3723 -0.8337 0.4079
vn 0.2997 -0.8414 0.4496
vn -0.3723 -0.8337 0.4079
vn -0.3592 -0.6889 0.6297
vn -0.8687 -0.4206 0.2615
vn 0.3391 -0.3698 0.8650
vn -0.3643 -0.3970 0.8424
vn -0.3592 -0.6889 0.6297
vn 0.3242 -0.7058 0.6299
vn -0.8889 -0.2189 0.4024
vn -0.8687 -0.4206 0.2615
vn -0.3592 -0.6889 0.6297
vn -0.3643 -0.3970 0.8424
vn 0.8902 -0.2551 0.3775
vn 0.3242 -0.7058 0.6299
vn 0.2997 -0.8414 0.4496
vn 0.9108 -0.3689 0.1853
vn 0.9420 0.1245 -0.3116
vn 0.8902 -0.2551 0.3775
vn 0.9108 -0.3689 0.1853
vn 0.8974 0.3293 -0.2937
vn 0.4208 0.3910 -0.8186
vn 0.9420 0.1245 -0.3116
vn 0.8974 0.3293 -0.2937
vn 0.3463 0.8035 -0.4842
vn -0.3702 0.4605 -0.8068
vn 0.4208 0.3910 -0.8186
vn 0.3463 0.8035 -0.4842
vn -0.3237 0.8654 -0.3825
vn -0.3702 0.4605 -0.8068
vn -0.3237 0.8654 -0.3825
vn -0.9592 0.2296 -0.1649
vn -0.9519 0.1287 -0.2780
vn -0.3723 -0.8337 0.4079
vn -0.8687 -0.4206 0.2615
vn -0.8330 -0.5494 0.0652
vn -0.3800 -0.9048 0.1921
vn -0.8687 -0.4206 0.2615
vn -0.8889 -0.2189 0.4024
vn -0.9519 0.1287 -0.2780
vn 0.2997 -0.8414 0.4496
vn -0.3723 -0.8337 0.4079
vn -0.3800 -0.9048 0.1921
vn 0.2446 -0.9448 0.2179
vn 0.9108 -0.3689 0.1853
vn 0.2997 -0.8414 0.4496
vn 0.2446 -0.9448 0.2179
vn 0.9033 -0.4217 0.0786
vn 0.9108 -0.3689 0.1853
vn 0.9033 -0.4217 0.0786
vn 0.8836 0.4435 -0.1502
vn 0.8974 0.3293 -0.2937
vn -0.3800 -0.9048 0.1921
vn -0.3657 -0.9307 0.0114
vn 0.2238 -0.9743 0.0256
vn 0.2446 -0.9448 0.2179
vn -0.9592 0.2296 -0.1649
vn -0.8330 -0.5494 0.0652
vn -0.8687 -0.4206 0.2615
vn 0.8836 0.4435 -0.1502
vn 0.3780 0.9126 -0.1557
vn 0.3463 0.8035 -0.4842
vn -0.0666 0.9934 0.0939
vn -0.5478 0.8222 -0.1545
vn -0.7859 0.5223 0.3310
vn -0.2304 0.7748 0.5887
vn -0.8330 -0.5494 0.0652
vn -0.9592 0.2296 -0.1649
vn -0.9175 0.3600 -0.1690
vn -0.8252 -0.5616 -0.0606
vn -0.8330 -0.5494 0.0652
vn -0.3657 -0.9307 0.0114
vn -0.3800 -0.9048 0.1921
vn 0.9424 -0.3331 -0.0304
vn 0.9033 -0.4217 0.0786
vn 0.2238 -0.9743 0.0256
vn -0.2153 0.9618 -0.1694
vn -0.3237 0.8654 -0.3825
vn 0.3780 0.9126 -0.1557
vn -0.9175 0.3600 -0.1690
vn -0.9592 0.2296 -0.1649
vn -0.2153 0.9618 -0.1694
vn -0.2153 0.9618 -0.1694
vn -0.2021 0.7194 -0.6645
vn -0.8899 0.3509 -0.2916
vn -0.9175 0.3600 -0.1690
vn 0.9424 -0.3331 -0.0304
vn 0.6990 0.5766 -0.4231
vn 0.8836 0.4435 -0.1502
vn 0.9016 -0.3881 -0.1911
vn 0.9424 -0.3331 -0.0304
vn 0.2238 -0.9743 0.0256
vn -0.2021 0.7194 -0.6645
vn -0.2153 0.9618 -0.1694
vn 0.6990 0.5766 -0.4231
vn -0.8252 -0.5616 -0.0606
vn -0.9175 0.3600 -0.1690
vn -0.8899 0.3509 -0.2916
vn -0.6734 -0.3881 -0.6292
vn -0.6734 -0.3881 -0.6292
vn 0.0832 -0.8840 -0.4600
vn -0.3657 -0.9307 0.0114
vn 0.0832 -0.8840 -0.4600
vn 0.2238 -0.9743 0.0256
vn -0.3657 -0.9307 0.0114
vn 0.0832 -0.8840 -0.4600
vn 0.3981 -0.0773 -0.9141
vn 0.9016 -0.3881 -0.1911
vn 0.3981 -0.0773 -0.9141
vn 0.6990 0.5766 -0.4231
vn 0.9016 -0.3881 -0.1911
vn 0.3981 -0.0773 -0.9141
vn -0.2021 0.7194 -0.6645
vn 0.6990 0.5766 -0.4231
vn -0.2021 0.7194 -0.6645
vn -0.6734 -0.3881 -0.6292
vn -0.8899 0.3509 -0.2916
f 9/1/1 71/2/2 14/3/3
f 5/4/4 19/5/5 1/6/6
f 73/7/7 1/8/8 15/9/9
f 27/10/10 20/11/11 30/12/12
f 32/13/13 5/14/14 24/15/15
f 25/16/16 19/17/17 5/18/18
f 33/19/19 30/20/20 26/21/21
f 31/22/22 27/23/23 34/24/24
f 28/25/25 22/26/26 31/27/27
f 35/28/28 32/29/29 28/30/30
f 41/31/31 37/32/32 33/33/33
f 37/34/34 34/35/35 30/36/36
f 43/37/37 38/38/38 34/39/39
f 38/40/40 35/41/41 31/42/42
f 49/43/43 42/44/44 7/45/45
f 47/46/46 46/47/47 58/48/48
f 57/49/49 56/50/50 63/51/51
f 12/52/52 57/53/53 61/54/54
f 13/55/55 59/56/56 8/57/57
f 60/58/58 63/59/59 55/60/60
f 55/61/61 11/62/62 66/63/63
f 58/64/64 12/65/65 64/66/66
f 68/67/67 61/68/68 63/69/69
f 14/70/70 59/71/71 13/72/72
f 67/73/73 68/74/74 60/75/75
f 64/76/76 61/77/77 68/78/78
f 67/79/79 66/80/80 65/81/81
f 70/82/82 16/83/83 2/84/84 17/85/85
f 3/86/86 18/87/87 70/88/88 17/89/89
f 4/90/90 15/91/91 70/92/92 18/93/93
f 2/94/94 16/95/95 19/96/96 26/97/97
f 71/98/98 65/99/99 14/100/100
f 3/101/101 17/102/102 20/103/103 21/104/104
f 19/105/105 16/106/106 1/107/107
f 27/108/108 21/109/109 20/110/110
f 2/111/111 26/112/112 20/113/113 17/114/114
f 21/115/115 27/116/116 22/117/117 72/118/118
f 23/119/119 72/120/120 22/121/121 28/122/122
f 4/123/123 18/124/124 72/125/125 23/126/126
f 3/127/127 21/128/128 72/129/129 18/130/130
f 73/131/131 23/132/132 28/133/133 24/134/134
f 1/135/135 73/136/136 24/137/137 5/138/138
f 4/139/139 23/140/140 73/141/141 15/142/142
f 26/143/143 19/144/144 29/145/145 33/146/146
f 30/147/147 20/148/148 26/149/149
f 28/150/150 32/151/151 24/152/152
f 25/153/153 29/154/154 19/155/155
f 29/156/156 25/157/157 10/158/158 36/159/159
f 34/160/160 27/161/161 30/162/162
f 35/163/163 28/164/164 31/165/165
f 27/166/166 31/167/167 22/168/168
f 25/169/169 5/170/170 32/171/171
f 29/172/172 36/173/173 41/174/174 33/175/175
f 32/176/176 35/177/177 45/178/178 39/179/179
f 43/180/180 34/181/181 37/182/182
f 33/183/183 37/184/184 30/185/185
f 45/186/186 35/187/187 38/188/188
f 34/189/189 38/190/190 31/191/191
f 32/192/192 39/193/193 10/194/194 25/195/195
f 36/196/196 10/197/197 6/198/198 40/199/199
f 41/200/200 36/201/201 40/202/202 7/203/203
f 41/204/204 7/205/205 42/206/206 37/207/207
f 37/208/208 42/209/209 51/210/210 43/211/211
f 43/212/212 51/213/213 44/214/214 38/215/215
f 45/216/216 38/217/217 44/218/218 52/219/219
f 39/220/220 45/221/221 52/222/222 46/223/223
f 10/224/224 39/225/225 46/226/226 6/227/227
f 49/228/228 74/229/229 48/230/230 54/231/231
f 48/232/232 74/233/233 47/234/234
f 7/235/235 40/236/236 74/237/237 49/238/238
f 6/239/239 47/240/240 74/241/241 40/242/242
f 42/243/243 49/244/244 54/245/245 50/246/246
f 51/247/247 42/248/248 50/249/249 56/250/250
f 44/251/251 51/252/252 56/253/253 57/254/254
f 52/255/255 44/256/256 57/257/257 12/258/258
f 52/259/259 12/260/260 58/261/261 46/262/262
f 48/263/263 47/264/264 8/265/265 53/266/266
f 47/267/267 6/268/268 46/269/269
f 54/270/270 48/271/271 53/272/272 11/273/273
f 50/274/274 54/275/275 11/276/276 55/277/277
f 50/278/278 55/279/279 63/280/280 56/281/281
f 53/282/282 59/283/283 66/284/284 11/285/285
f 58/286/286 8/287/287 47/288/288
f 63/289/289 61/290/290 57/291/291
f 70/292/292 15/293/293 1/294/294 16/295/295
f 8/296/296 58/297/297 62/298/298 13/299/299
f 8/300/300 59/301/301 53/302/302
f 60/303/303 55/304/304 66/305/305
f 64/306/306 12/307/307 61/308/308
f 62/309/309 58/310/310 64/311/311
f 64/312/312 9/313/313 69/314/314 62/315/315
f 60/316/316 68/317/317 63/318/318
f 67/319/319 60/320/320 66/321/321
f 9/322/322 64/323/323 68/324/324
f 13/325/325 62/326/326 69/327/327 14/328/328
f 14/329/329 65/330/330 59/331/331
f 65/332/332 66/333/333 59/334/334
f 65/335/335 71/336/336 67/337/337
f 71/338/338 68/339/339 67/340/340
f 71/341/341 9/342/342 68/343/343
f 9/344/344 14/345/345 69/346/346
