# teeth - exported from blender/silhouette.blend by tools/blender_export.py
o teeth
v -0.02634 0.06167 -0.15103
v -0.02166 0.06132 -0.15568
v -0.01712 0.06015 -0.15103
v -0.02178 0.06050 -0.14637
v -0.03084 0.00563 -0.15602
v -0.02472 0.07131 -0.15795
v -0.02051 0.07123 -0.16214
v -0.01635 0.07055 -0.15796
v -0.02055 0.07063 -0.15377
v -0.02581 0.01305 -0.16213
v -0.02362 0.08107 -0.16419
v -0.01867 0.08110 -0.16902
v -0.01394 0.07960 -0.16419
v -0.01889 0.07956 -0.15935
v -0.02632 0.03079 -0.17223
v -0.02078 0.08857 -0.16955
v -0.01650 0.08830 -0.17381
v -0.01224 0.08883 -0.16956
v -0.01651 0.08910 -0.16530
v -0.01416 0.00869 -0.16202
v -0.01744 0.09346 -0.17299
v -0.01379 0.09336 -0.17665
v -0.01013 0.09341 -0.17300
v -0.01378 0.09351 -0.16934
v -0.01422 0.02510 -0.17159
v -0.01463 0.09760 -0.17568
v -0.01061 0.09822 -0.17953
v -0.00674 0.09699 -0.17569
v -0.01074 0.09637 -0.17183
v -0.01411 0.05282 -0.18646
v -0.00994 0.10312 -0.17151
v -0.00666 0.10324 -0.17479
v -0.00337 0.10307 -0.17151
v -0.00665 0.10295 -0.16823
v -0.00718 0.02942 -0.17478
v -0.00649 0.10933 -0.16230
v -0.00284 0.10964 -0.16593
v 0.00081 0.10930 -0.16231
v -0.00284 0.10899 -0.15867
v -0.00320 0.02085 -0.17017
v -0.00322 0.11202 -0.15749
v -0.00000 0.11338 -0.16042
v 0.00322 0.11202 -0.15750
v 0.00001 0.11066 -0.15457
v -0.00000 0.05032 -0.18616
v -0.00194 0.10932 -0.16230
v 0.00284 0.10941 -0.16708
v 0.00762 0.10931 -0.16231
v 0.00285 0.10923 -0.15752
v 0.00276 0.01063 -0.16421
v 0.00215 0.10313 -0.17151
v 0.00665 0.10286 -0.17601
v 0.01116 0.10306 -0.17151
v 0.00667 0.10333 -0.16701
v 0.00597 0.01540 -0.16688
v 0.00683 0.09703 -0.17567
v 0.01062 0.09812 -0.17945
v 0.01454 0.09757 -0.17568
v 0.01075 0.09647 -0.17190
v 0.01392 0.05139 -0.18576
v 0.01039 0.09342 -0.17297
v 0.01378 0.09339 -0.17635
v 0.01717 0.09347 -0.17297
v 0.01379 0.09351 -0.16958
v 0.01428 0.02540 -0.17175
v 0.01256 0.08887 -0.16955
v 0.01649 0.08822 -0.17348
v 0.02046 0.08853 -0.16956
v 0.01654 0.08918 -0.16563
v 0.01278 0.00372 -0.15919
v 0.01389 0.07953 -0.16419
v 0.01864 0.08117 -0.16907
v 0.02367 0.08114 -0.16419
v 0.01893 0.07950 -0.15930
v 0.02672 0.03185 -0.17271
v 0.01541 0.07004 -0.15795
v 0.02041 0.07161 -0.16311
v 0.02566 0.07182 -0.15796
v 0.02067 0.07025 -0.15280
v 0.02943 0.01961 -0.16492
v 0.01740 0.06039 -0.15103
v 0.02169 0.06123 -0.15538
v 0.02606 0.06144 -0.15103
v 0.02178 0.06060 -0.14667
v 0.02867 0.00329 -0.15528
vt 0.9436 0.5287
vt 0.9082 0.5579
vt 0.8018 0.9466
vt 0.9082 0.5579
vt 0.8711 0.5393
vt 0.8018 0.9466
vt 0.8711 0.5393
vt 0.9065 0.5102
vt 0.8018 0.9466
vt 0.9065 0.5102
vt 0.9436 0.5287
vt 0.8018 0.9466
vt 0.9065 0.5102
vt 0.8711 0.5393
vt 0.9082 0.5579
vt 0.9436 0.5287
vt 0.0618 0.5016
vt 0.9306 0.5262
vt 0.7880 0.9301
vt 0.9306 0.5262
vt 0.8979 0.5069
vt 0.7880 0.9301
vt 0.8979 0.5069
vt 0.9290 0.4823
vt 0.7880 0.9301
vt 0.9290 0.4823
vt 0.0618 0.5016
vt 0.7880 0.9301
vt 0.9290 0.4823
vt 0.8979 0.5069
vt 0.9306 0.5262
vt 0.0618 0.5016
vt 0.0842 0.4695
vt 0.9479 0.4970
vt 0.8471 0.8649
vt 0.9479 0.4970
vt 0.9084 0.4798
vt 0.8471 0.8649
vt 0.9084 0.4798
vt 0.9447 0.4522
vt 0.8471 0.8649
vt 0.9447 0.4522
vt 0.0842 0.4695
vt 0.8471 0.8649
vt 0.9447 0.4522
vt 0.9084 0.4798
vt 0.9479 0.4970
vt 0.0842 0.4695
vt 0.0867 0.4482
vt 0.0544 0.4745
vt 0.6887 0.0598
vt 0.0544 0.4745
vt 0.9247 0.4465
vt 0.6887 0.0598
vt 0.9247 0.4465
vt 0.0570 0.4201
vt 0.6887 0.0598
vt 0.0570 0.4201
vt 0.0867 0.4482
vt 0.6887 0.0598
vt 0.0570 0.4201
vt 0.9247 0.4465
vt 0.0544 0.4745
vt 0.0867 0.4482
vt 0.0774 0.4340
vt 0.0503 0.4557
vt 0.7405 0.9008
vt 0.0503 0.4557
vt 0.9236 0.4344
vt 0.7405 0.9008
vt 0.9236 0.4344
vt 0.0507 0.4127
vt 0.7405 0.9008
vt 0.0507 0.4127
vt 0.0774 0.4340
vt 0.7405 0.9008
vt 0.0507 0.4127
vt 0.9236 0.4344
vt 0.0503 0.4557
vt 0.0774 0.4340
vt 0.0697 0.4206
vt 0.9421 0.4384
vt 0.8261 0.7936
vt 0.9421 0.4384
vt 0.9098 0.4249
vt 0.8261 0.7936
vt 0.9098 0.4249
vt 0.9373 0.4071
vt 0.8261 0.7936
vt 0.9373 0.4071
vt 0.0697 0.4206
vt 0.8261 0.7936
vt 0.9373 0.4071
vt 0.9098 0.4249
vt 0.9421 0.4384
vt 0.0697 0.4206
vt 0.0524 0.3584
vt 0.9287 0.3763
vt 0.7022 0.8891
vt 0.9287 0.3763
vt 0.9040 0.3587
vt 0.7022 0.8891
vt 0.9040 0.3587
vt 0.9277 0.3407
vt 0.7022 0.8891
vt 0.9277 0.3407
vt 0.0524 0.3584
vt 0.7022 0.8891
vt 0.9277 0.3407
vt 0.9040 0.3587
vt 0.9287 0.3763
vt 0.0524 0.3584
vt 0.9465 0.2624
vt 0.9207 0.2811
vt 0.6462 0.9221
vt 0.9207 0.2811
vt 0.8928 0.2626
vt 0.6462 0.9221
vt 0.8928 0.2626
vt 0.9186 0.2439
vt 0.6462 0.9221
vt 0.9186 0.2439
vt 0.9465 0.2624
vt 0.6462 0.9221
vt 0.9186 0.2439
vt 0.8928 0.2626
vt 0.9207 0.2811
vt 0.9465 0.2624
vt 0.9309 0.2161
vt 0.9114 0.2235
vt 0.7146 0.8092
vt 0.9114 0.2235
vt 0.8835 0.2161
vt 0.7146 0.8092
vt 0.8835 0.2161
vt 0.9029 0.2088
vt 0.7146 0.8092
vt 0.9029 0.2088
vt 0.9309 0.2161
vt 0.7146 0.8092
vt 0.9029 0.2088
vt 0.8835 0.2161
vt 0.9114 0.2235
vt 0.9309 0.2161
vt 0.9130 0.2624
vt 0.8782 0.2892
vt 0.5705 0.0589
vt 0.8782 0.2892
vt 0.8427 0.2625
vt 0.5705 0.0589
vt 0.8427 0.2625
vt 0.8775 0.2357
vt 0.5705 0.0589
vt 0.8775 0.2357
vt 0.9130 0.2624
vt 0.5705 0.0589
vt 0.8775 0.2357
vt 0.8427 0.2625
vt 0.8782 0.2892
vt 0.9130 0.2624
vt 0.8637 0.3583
vt 0.8297 0.3860
vt 0.5618 0.9411
vt 0.8297 0.3860
vt 0.7972 0.3588
vt 0.5618 0.9411
vt 0.7972 0.3588
vt 0.8311 0.3311
vt 0.5618 0.9411
vt 0.8311 0.3311
vt 0.8637 0.3583
vt 0.5618 0.9411
vt 0.8311 0.3311
vt 0.7972 0.3588
vt 0.8297 0.3860
vt 0.8637 0.3583
vt 0.8102 0.4246
vt 0.7858 0.4386
vt 0.6157 0.7994
vt 0.7858 0.4386
vt 0.7553 0.4208
vt 0.6157 0.7994
vt 0.7553 0.4208
vt 0.7797 0.4067
vt 0.6157 0.7994
vt 0.7797 0.4067
vt 0.8102 0.4246
vt 0.6157 0.7994
vt 0.7797 0.4067
vt 0.7553 0.4208
vt 0.7858 0.4386
vt 0.8102 0.4246
vt 0.7728 0.4341
vt 0.7478 0.4538
vt 0.5319 0.8996
vt 0.7478 0.4538
vt 0.7231 0.4338
vt 0.5319 0.8996
vt 0.7231 0.4338
vt 0.7481 0.4141
vt 0.5319 0.8996
vt 0.7481 0.4141
vt 0.7728 0.4341
vt 0.5319 0.8996
vt 0.7481 0.4141
vt 0.7231 0.4338
vt 0.7478 0.4538
vt 0.7728 0.4341
vt 0.7426 0.4461
vt 0.7118 0.4731
vt 0.4752 0.0781
vt 0.7118 0.4731
vt 0.6835 0.4485
vt 0.4752 0.0781
vt 0.6835 0.4485
vt 0.7144 0.4215
vt 0.4752 0.0781
vt 0.7144 0.4215
vt 0.7426 0.4461
vt 0.4752 0.0781
vt 0.7144 0.4215
vt 0.6835 0.4485
vt 0.7118 0.4731
vt 0.7426 0.4461
vt 0.7037 0.4802
vt 0.6739 0.4968
vt 0.4606 0.8603
vt 0.6739 0.4968
vt 0.6369 0.4691
vt 0.4606 0.8603
vt 0.6369 0.4691
vt 0.6666 0.4524
vt 0.4606 0.8603
vt 0.6666 0.4524
vt 0.7037 0.4802
vt 0.4606 0.8603
vt 0.6666 0.4524
vt 0.6369 0.4691
vt 0.6739 0.4968
vt 0.7037 0.4802
vt 0.6629 0.5104
vt 0.6310 0.5291
vt 0.4025 0.9006
vt 0.6310 0.5291
vt 0.5931 0.4981
vt 0.4025 0.9006
vt 0.5931 0.4981
vt 0.6250 0.4793
vt 0.4025 0.9006
vt 0.6250 0.4793
vt 0.6629 0.5104
vt 0.4025 0.9006
vt 0.6250 0.4793
vt 0.5931 0.4981
vt 0.6310 0.5291
vt 0.6629 0.5104
vt 0.6182 0.5376
vt 0.5893 0.5568
vt 0.3572 0.0587
vt 0.5893 0.5568
vt 0.5578 0.5304
vt 0.3572 0.0587
vt 0.5578 0.5304
vt 0.5867 0.5112
vt 0.3572 0.0587
vt 0.5867 0.5112
vt 0.6182 0.5376
vt 0.3572 0.0587
vt 0.5867 0.5112
vt 0.5578 0.5304
vt 0.5893 0.5568
vt 0.6182 0.5376
vn -0.6961 0.1190 -0.7080
vn -0.6961 0.1190 -0.7080
vn -0.6961 0.1190 -0.7080
vn 0.6964 -0.1104 -0.7091
vn 0.6964 -0.1104 -0.7091
vn 0.6964 -0.1104 -0.7091
vn 0.6782 -0.2344 0.6965
vn 0.6782 -0.2344 0.6965
vn 0.6782 -0.2344 0.6965
vn -0.7154 -0.0048 0.6987
vn -0.7154 -0.0048 0.6987
vn -0.7154 -0.0048 0.6987
vn 0.1620 0.9828 0.0888
vn 0.1620 0.9828 0.0888
vn 0.1620 0.9828 0.0888
vn 0.1620 0.9828 0.0888
vn -0.7036 0.0639 -0.7077
vn -0.7036 0.0639 -0.7077
vn -0.7036 0.0639 -0.7077
vn 0.7024 -0.0642 -0.7089
vn 0.7024 -0.0642 -0.7089
vn 0.7024 -0.0642 -0.7089
vn 0.6955 -0.1651 0.6993
vn 0.6955 -0.1651 0.6993
vn 0.6955 -0.1651 0.6993
vn -0.7116 -0.0369 0.7016
vn -0.7116 -0.0369 0.7016
vn -0.7116 -0.0369 0.7016
vn 0.0906 0.9933 0.0716
vn 0.0906 0.9933 0.0716
vn 0.0906 0.9933 0.0716
vn 0.0906 0.9933 0.0716
vn -0.6910 0.1502 -0.7071
vn -0.6910 0.1502 -0.7071
vn -0.6910 0.1502 -0.7071
vn 0.7033 -0.0619 -0.7082
vn 0.7033 -0.0619 -0.7082
vn 0.7033 -0.0619 -0.7082
vn 0.6719 -0.2832 0.6844
vn 0.6719 -0.2832 0.6844
vn 0.6719 -0.2832 0.6844
vn -0.7236 -0.0710 0.6866
vn -0.7236 -0.0710 0.6866
vn -0.7236 -0.0710 0.6866
vn 0.1486 0.9761 0.1585
vn 0.1486 0.9761 0.1585
vn 0.1486 0.9761 0.1585
vn 0.1486 0.9761 0.1585
vn -0.7035 -0.1243 -0.6997
vn -0.7035 -0.1243 -0.6997
vn -0.7035 -0.1243 -0.6997
vn 0.7085 -0.0829 -0.7008
vn 0.7085 -0.0829 -0.7008
vn 0.7085 -0.0829 -0.7008
vn 0.7069 0.0495 0.7056
vn 0.7069 0.0495 0.7056
vn 0.7069 0.0495 0.7056
vn -0.7063 0.0082 0.7079
vn -0.7063 0.0082 0.7079
vn -0.7063 0.0082 0.7079
vn -0.0293 0.9952 -0.0937
vn -0.0293 0.9952 -0.0937
vn -0.0293 0.9952 -0.0937
vn -0.0293 0.9952 -0.0937
vn -0.7072 -0.0478 -0.7054
vn -0.7072 -0.0478 -0.7054
vn -0.7072 -0.0478 -0.7054
vn 0.7054 -0.0569 -0.7065
vn 0.7054 -0.0569 -0.7065
vn 0.7054 -0.0569 -0.7065
vn 0.7078 -0.0279 0.7058
vn 0.7078 -0.0279 0.7058
vn 0.7078 -0.0279 0.7058
vn -0.7059 -0.0187 0.7081
vn -0.7059 -0.0187 0.7081
vn -0.7059 -0.0187 0.7081
vn 0.0064 0.9998 -0.0205
vn 0.0064 0.9998 -0.0205
vn 0.0064 0.9998 -0.0205
vn 0.0064 0.9998 -0.0205
vn -0.6958 0.1605 -0.7001
vn -0.6958 0.1605 -0.7001
vn -0.6958 0.1605 -0.7001
vn 0.7111 0.0522 -0.7012
vn 0.7111 0.0522 -0.7012
vn 0.7111 0.0522 -0.7012
vn 0.6878 -0.2783 0.6704
vn 0.6878 -0.2783 0.6704
vn 0.6878 -0.2783 0.6704
vn -0.7202 -0.1702 0.6726
vn -0.7202 -0.1702 0.6726
vn -0.7202 -0.1702 0.6726
vn 0.0747 0.9692 0.2348
vn 0.0747 0.9692 0.2348
vn 0.0747 0.9692 0.2348
vn 0.0747 0.9692 0.2348
vn -0.7070 0.0050 -0.7072
vn -0.7070 0.0050 -0.7072
vn -0.7070 0.0050 -0.7072
vn 0.7059 -0.0051 -0.7083
vn 0.7059 -0.0051 -0.7083
vn 0.7059 -0.0051 -0.7083
vn 0.7077 -0.0679 0.7033
vn 0.7077 -0.0679 0.7033
vn 0.7077 -0.0679 0.7033
vn -0.7063 -0.0578 0.7055
vn -0.7063 -0.0578 0.7055
vn -0.7063 -0.0578 0.7055
vn 0.0072 0.9990 0.0444
vn 0.0072 0.9990 0.0444
vn 0.0072 0.9990 0.0444
vn 0.0072 0.9990 0.0444
vn -0.7069 0.0365 -0.7063
vn -0.7069 0.0365 -0.7063
vn -0.7069 0.0365 -0.7063
vn 0.7061 0.0309 -0.7074
vn 0.7061 0.0309 -0.7074
vn 0.7061 0.0309 -0.7074
vn 0.7078 -0.0943 0.7001
vn 0.7078 -0.0943 0.7001
vn 0.7078 -0.0943 0.7001
vn -0.7063 -0.0887 0.7023
vn -0.7063 -0.0887 0.7023
vn -0.7063 -0.0887 0.7023
vn 0.0040 0.9961 0.0886
vn 0.0040 0.9961 0.0886
vn 0.0040 0.9961 0.0886
vn 0.0040 0.9961 0.0886
vn -0.7070 0.2673 -0.6548
vn -0.7070 0.2673 -0.6548
vn -0.7070 0.2673 -0.6548
vn 0.7059 0.2678 -0.6558
vn 0.7059 0.2678 -0.6558
vn 0.7059 0.2678 -0.6558
vn 0.7081 -0.3276 0.6255
vn 0.7081 -0.3276 0.6255
vn 0.7081 -0.3276 0.6255
vn -0.7059 -0.3285 0.6276
vn -0.7059 -0.3285 0.6276
vn -0.7059 -0.3285 0.6276
vn 0.0000 0.9069 0.4214
vn 0.0000 0.9069 0.4214
vn 0.0000 0.9069 0.4214
vn 0.0000 0.9069 0.4214
vn -0.7070 -0.0200 -0.7069
vn -0.7070 -0.0200 -0.7069
vn -0.7070 -0.0200 -0.7069
vn 0.7058 -0.0211 -0.7081
vn 0.7058 -0.0211 -0.7081
vn 0.7058 -0.0211 -0.7081
vn 0.7081 -0.0484 0.7045
vn 0.7081 -0.0484 0.7045
vn 0.7081 -0.0484 0.7045
vn -0.7059 -0.0473 0.7067
vn -0.7059 -0.0473 0.7067
vn -0.7059 -0.0473 0.7067
vn 0.0008 0.9998 0.0194
vn 0.0008 0.9998 0.0194
vn 0.0008 0.9998 0.0194
vn 0.0008 0.9998 0.0194
vn -0.7075 -0.0679 -0.7035
vn -0.7075 -0.0679 -0.7035
vn -0.7075 -0.0679 -0.7035
vn 0.7052 -0.0790 -0.7046
vn 0.7052 -0.0790 -0.7046
vn 0.7052 -0.0790 -0.7046
vn 0.7080 -0.0046 0.7062
vn 0.7080 -0.0046 0.7062
vn 0.7080 -0.0046 0.7062
vn -0.7058 0.0066 0.7084
vn -0.7058 0.0066 0.7084
vn -0.7058 0.0066 0.7084
vn 0.0078 0.9986 -0.0527
vn 0.0078 0.9986 -0.0527
vn 0.0078 0.9986 -0.0527
vn 0.0078 0.9986 -0.0527
vn -0.7111 0.0445 -0.7017
vn -0.7111 0.0445 -0.7017
vn -0.7111 0.0445 -0.7017
vn 0.6967 0.1442 -0.7028
vn 0.6967 0.1442 -0.7028
vn 0.6967 0.1442 -0.7028
vn 0.7202 -0.1571 0.6758
vn 0.7202 -0.1571 0.6758
vn 0.7202 -0.1571 0.6758
vn -0.6887 -0.2570 0.6780
vn -0.6887 -0.2570 0.6780
vn -0.6887 -0.2570 0.6780
vn -0.0688 0.9744 0.2141
vn -0.0688 0.9744 0.2141
vn -0.0688 0.9744 0.2141
vn -0.0688 0.9744 0.2141
vn -0.7066 -0.0530 -0.7056
vn -0.7066 -0.0530 -0.7056
vn -0.7066 -0.0530 -0.7056
vn 0.7062 -0.0426 -0.7068
vn 0.7062 -0.0426 -0.7068
vn 0.7062 -0.0426 -0.7068
vn 0.7082 -0.0174 0.7058
vn 0.7082 -0.0174 0.7058
vn 0.7082 -0.0174 0.7058
vn -0.7056 -0.0277 0.7080
vn -0.7056 -0.0277 0.7080
vn -0.7056 -0.0277 0.7080
vn -0.0074 0.9998 -0.0178
vn -0.0074 0.9998 -0.0178
vn -0.0074 0.9998 -0.0178
vn -0.0074 0.9998 -0.0178
vn -0.7115 -0.0867 -0.6973
vn -0.7115 -0.0867 -0.6973
vn -0.7115 -0.0867 -0.6973
vn 0.7000 -0.1487 -0.6984
vn 0.7000 -0.1487 -0.6984
vn 0.7000 -0.1487 -0.6984
vn 0.7098 0.0219 0.7041
vn 0.7098 0.0219 0.7041
vn 0.7098 0.0219 0.7041
vn -0.7029 0.0841 0.7063
vn -0.7029 0.0841 0.7063
vn -0.7029 0.0841 0.7063
vn 0.0435 0.9917 -0.1210
vn 0.0435 0.9917 -0.1210
vn 0.0435 0.9917 -0.1210
vn 0.0435 0.9917 -0.1210
vn -0.7047 -0.0633 -0.7067
vn -0.7047 -0.0633 -0.7067
vn -0.7047 -0.0633 -0.7067
vn 0.6869 0.1649 -0.7078
vn 0.6869 0.1649 -0.7078
vn 0.6869 0.1649 -0.7078
vn 0.7281 -0.0728 0.6816
vn 0.7281 -0.0728 0.6816
vn 0.7281 -0.0728 0.6816
vn -0.6646 -0.3012 0.6838
vn -0.6646 -0.3012 0.6838
vn -0.6646 -0.3012 0.6838
vn -0.1593 0.9723 0.1710
vn -0.1593 0.9723 0.1710
vn -0.1593 0.9723 0.1710
vn -0.1593 0.9723 0.1710
vn -0.6994 -0.0967 -0.7081
vn -0.6994 -0.0967 -0.7081
vn -0.6994 -0.0967 -0.7081
vn 0.6900 0.1443 -0.7092
vn 0.6900 0.1443 -0.7092
vn 0.6900 0.1443 -0.7092
vn 0.7242 -0.0395 0.6885
vn 0.7242 -0.0395 0.6885
vn 0.7242 -0.0395 0.6885
vn -0.6664 -0.2807 0.6907
vn -0.6664 -0.2807 0.6907
vn -0.6664 -0.2807 0.6907
vn -0.1693 0.9766 0.1326
vn -0.1693 0.9766 0.1326
vn -0.1693 0.9766 0.1326
vn -0.1693 0.9766 0.1326
vn -0.7012 -0.0857 -0.7078
vn -0.7012 -0.0857 -0.7078
vn -0.7012 -0.0857 -0.7078
vn 0.7003 0.0833 -0.7089
vn 0.7003 0.0833 -0.7089
vn 0.7003 0.0833 -0.7089
vn 0.7149 -0.0189 0.6989
vn 0.7149 -0.0189 0.6989
vn 0.7149 -0.0189 0.6989
vn -0.6877 -0.1881 0.7012
vn -0.6877 -0.1881 0.7012
vn -0.6877 -0.1881 0.7012
vn -0.1194 0.9902 0.0732
vn -0.1194 0.9902 0.0732
vn -0.1194 0.9902 0.0732
vn -0.1194 0.9902 0.0732
f 1/1/1 2/2/2 5/3/3
f 2/4/4 3/5/5 5/6/6
f 3/7/7 4/8/8 5/9/9
f 4/10/10 1/11/11 5/12/12
f 4/13/13 3/14/14 2/15/15 1/16/16
f 6/17/17 7/18/18 10/19/19
f 7/20/20 8/21/21 10/22/22
f 8/23/23 9/24/24 10/25/25
f 9/26/26 6/27/27 10/28/28
f 9/29/29 8/30/30 7/31/31 6/32/32
f 11/33/33 12/34/34 15/35/35
f 12/36/36 13/37/37 15/38/38
f 13/39/39 14/40/40 15/41/41
f 14/42/42 11/43/43 15/44/44
f 14/45/45 13/46/46 12/47/47 11/48/48
f 16/49/49 17/50/50 20/51/51
f 17/52/52 18/53/53 20/54/54
f 18/55/55 19/56/56 20/57/57
f 19/58/58 16/59/59 20/60/60
f 19/61/61 18/62/62 17/63/63 16/64/64
f 21/65/65 22/66/66 25/67/67
f 22/68/68 23/69/69 25/70/70
f 23/71/71 24/72/72 25/73/73
f 24/74/74 21/75/75 25/76/76
f 24/77/77 23/78/78 22/79/79 21/80/80
f 26/81/81 27/82/82 30/83/83
f 27/84/84 28/85/85 30/86/86
f 28/87/87 29/88/88 30/89/89
f 29/90/90 26/91/91 30/92/92
f 29/93/93 28/94/94 27/95/95 26/96/96
f 31/97/97 32/98/98 35/99/99
f 32/100/100 33/101/101 35/102/102
f 33/103/103 34/104/104 35/105/105
f 34/106/106 31/107/107 35/108/108
f 34/109/109 33/110/110 32/111/111 31/112/112
f 36/113/113 37/114/114 40/115/115
f 37/116/116 38/117/117 40/118/118
f 38/119/119 39/120/120 40/121/121
f 39/122/122 36/123/123 40/124/124
f 39/125/125 38/126/126 37/127/127 36/128/128
f 41/129/129 42/130/130 45/131/131
f 42/132/132 43/133/133 45/134/134
f 43/135/135 44/136/136 45/137/137
f 44/138/138 41/139/139 45/140/140
f 44/141/141 43/142/142 42/143/143 41/144/144
f 46/145/145 47/146/146 50/147/147
f 47/148/148 48/149/149 50/150/150
f 48/151/151 49/152/152 50/153/153
f 49/154/154 46/155/155 50/156/156
f 49/157/157 48/158/158 47/159/159 46/160/160
f 51/161/161 52/162/162 55/163/163
f 52/164/164 53/165/165 55/166/166
f 53/167/167 54/168/168 55/169/169
f 54/170/170 51/171/171 55/172/172
f 54/173/173 53/174/174 52/175/175 51/176/176
f 56/177/177 57/178/178 60/179/179
f 57/180/180 58/181/181 60/182/182
f 58/183/183 59/184/184 60/185/185
f 59/186/186 56/187/187 60/188/188
f 59/189/189 58/190/190 57/191/191 56/192/192
f 61/193/193 62/194/194 65/195/195
f 62/196/196 63/197/197 65/198/198
f 63/199/199 64/200/200 65/201/201
f 64/202/202 61/203/203 65/204/204
f 64/205/205 63/206/206 62/207/207 61/208/208
f 66/209/209 67/210/210 70/211/211
f 67/212/212 68/213/213 70/214/214
f 68/215/215 69/216/216 70/217/217
f 69/218/218 66/219/219 70/220/220
f 69/221/221 68/222/222 67/223/223 66/224/224
f 71/225/225 72/226/226 75/227/227
f 72/228/228 73/229/229 75/230/230
f 73/231/231 74/232/232 75/233/233
f 74/234/234 71/235/235 75/236/236
f 74/237/237 73/238/238 72/239/239 71/240/240
f 76/241/241 77/242/242 80/243/243
f 77/244/244 78/245/245 80/246/246
f 78/247/247 79/248/248 80/249/249
f 79/250/250 76/251/251 80/252/252
f 79/253/253 78/254/254 77/255/255 76/256/256
f 81/257/257 82/258/258 85/259/259
f 82/260/260 83/261/261 85/262/262
f 83/263/263 84/264/264 85/265/265
f 84/266/266 81/267/267 85/268/268
f 84/269/269 83/270/270 82/271/271 81/272/272
