# teeth_lower - exported from blender/silhouette.blend by tools/blender_export.py
o teeth_lower
v -0.02591 0.00059 -0.07879
v -0.02172 0.00018 -0.08300
v -0.01754 -0.00041 -0.07880
v -0.02173 -0.00001 -0.07458
v -0.02950 -0.06497 -0.08024
v -0.02372 -0.00896 -0.07049
v -0.02054 -0.00939 -0.07370
v -0.01735 -0.00973 -0.07049
v -0.02052 -0.00930 -0.06728
v -0.02899 -0.07888 -0.06953
v -0.02243 -0.01773 -0.06230
v -0.01876 -0.01747 -0.06593
v -0.01513 -0.01812 -0.06231
v -0.01880 -0.01838 -0.05868
v -0.02211 -0.08095 -0.07029
v -0.02010 -0.02558 -0.05447
v -0.01658 -0.02379 -0.05767
v -0.01292 -0.02526 -0.05448
v -0.01643 -0.02706 -0.05127
v -0.01442 -0.07271 -0.07865
v -0.01890 -0.03209 -0.04728
v -0.01408 -0.02827 -0.05111
v -0.00868 -0.03122 -0.04728
v -0.01349 -0.03505 -0.04344
v -0.01054 -0.06997 -0.08135
v -0.01552 -0.03665 -0.04104
v -0.01076 -0.03375 -0.04501
v -0.00585 -0.03638 -0.04105
v -0.01060 -0.03929 -0.03708
v -0.00949 -0.08153 -0.07252
v -0.01205 -0.03996 -0.03615
v -0.00730 -0.03769 -0.04034
v -0.00253 -0.03994 -0.03616
v -0.00728 -0.04222 -0.03197
v -0.00720 -0.09185 -0.06425
v -0.00789 -0.04193 -0.03299
v -0.00369 -0.04137 -0.03714
v 0.00050 -0.04204 -0.03300
v -0.00369 -0.04259 -0.02884
v -0.00463 -0.11430 -0.04362
v -0.00358 -0.04265 -0.03189
v -0.00000 -0.04012 -0.03443
v 0.00358 -0.04265 -0.03190
v 0.00001 -0.04518 -0.02936
v -0.00000 -0.08289 -0.07203
v -0.00142 -0.04187 -0.03299
v 0.00378 -0.03806 -0.03627
v 0.00881 -0.04209 -0.03300
v 0.00362 -0.04590 -0.02971
v 0.00292 -0.07790 -0.07593
v 0.00335 -0.04000 -0.03615
v 0.00727 -0.03861 -0.03986
v 0.01124 -0.03991 -0.03616
v 0.00731 -0.04130 -0.03244
v 0.00792 -0.09931 -0.05764
v 0.00669 -0.03656 -0.04104
v 0.01067 -0.03516 -0.04480
v 0.01468 -0.03647 -0.04105
v 0.01071 -0.03788 -0.03729
v 0.01136 -0.09394 -0.06190
v 0.00981 -0.03129 -0.04728
v 0.01403 -0.02895 -0.05020
v 0.01776 -0.03202 -0.04728
v 0.01355 -0.03437 -0.04435
v 0.01034 -0.06898 -0.08211
v 0.01318 -0.02566 -0.05447
v 0.01650 -0.02528 -0.05781
v 0.01984 -0.02518 -0.05448
v 0.01653 -0.02557 -0.05114
v 0.02158 -0.09605 -0.05753
v 0.01344 -0.01828 -0.06230
v 0.01874 -0.01745 -0.06763
v 0.02412 -0.01757 -0.06231
v 0.01882 -0.01840 -0.05698
v 0.02306 -0.08313 -0.06820
v 0.01633 -0.00974 -0.07049
v 0.02052 -0.00919 -0.07471
v 0.02474 -0.00895 -0.07050
v 0.02056 -0.00950 -0.06626
v 0.02680 -0.07565 -0.07298
v 0.01695 -0.00038 -0.07879
v 0.02170 0.00031 -0.08359
v 0.02651 0.00055 -0.07880
v 0.02176 -0.00013 -0.07399
v 0.02794 -0.06371 -0.08177
vt 0.8457 0.6064
vt 0.8136 0.6334
vt 0.6675 0.1701
vt 0.8136 0.6334
vt 0.7811 0.6134
vt 0.6675 0.1701
vt 0.7811 0.6134
vt 0.8131 0.5864
vt 0.6675 0.1701
vt 0.8131 0.5864
vt 0.8457 0.6064
vt 0.6675 0.1701
vt 0.8131 0.5864
vt 0.7811 0.6134
vt 0.8136 0.6334
vt 0.8457 0.6064
vt 0.7998 0.6251
vt 0.7751 0.6465
vt 0.6203 0.2053
vt 0.7751 0.6465
vt 0.7506 0.6305
vt 0.6203 0.2053
vt 0.7506 0.6305
vt 0.7752 0.6091
vt 0.6203 0.2053
vt 0.7752 0.6091
vt 0.7998 0.6251
vt 0.6203 0.2053
vt 0.7752 0.6091
vt 0.7506 0.6305
vt 0.7751 0.6465
vt 0.7998 0.6251
vt 0.7629 0.6391
vt 0.7368 0.6580
vt 0.5633 0.2240
vt 0.7368 0.6580
vt 0.7081 0.6418
vt 0.5633 0.2240
vt 0.7081 0.6418
vt 0.7342 0.6228
vt 0.5633 0.2240
vt 0.7342 0.6228
vt 0.7629 0.6391
vt 0.5633 0.2240
vt 0.7342 0.6228
vt 0.7081 0.6418
vt 0.7368 0.6580
vt 0.7629 0.6391
vt 0.7213 0.6487
vt 0.7011 0.6546
vt 0.5325 0.2148
vt 0.7011 0.6546
vt 0.6695 0.6465
vt 0.5325 0.2148
vt 0.6695 0.6465
vt 0.6897 0.6405
vt 0.5325 0.2148
vt 0.6897 0.6405
vt 0.7213 0.6487
vt 0.5325 0.2148
vt 0.6897 0.6405
vt 0.6695 0.6465
vt 0.7011 0.6546
vt 0.7213 0.6487
vt 0.6922 0.6526
vt 0.6687 0.6481
vt 0.5126 0.2112
vt 0.6687 0.6481
vt 0.6198 0.6466
vt 0.5126 0.2112
vt 0.6198 0.6466
vt 0.6432 0.6511
vt 0.5126 0.2112
vt 0.6432 0.6511
vt 0.6922 0.6526
vt 0.5126 0.2112
vt 0.6432 0.6511
vt 0.6198 0.6466
vt 0.6687 0.6481
vt 0.6922 0.6526
vt 0.6531 0.6485
vt 0.6272 0.6511
vt 0.4687 0.2409
vt 0.6272 0.6511
vt 0.5829 0.6467
vt 0.4687 0.2409
vt 0.5829 0.6467
vt 0.6087 0.6441
vt 0.4687 0.2409
vt 0.6087 0.6441
vt 0.6531 0.6485
vt 0.4687 0.2409
vt 0.6087 0.6441
vt 0.5829 0.6467
vt 0.6272 0.6511
vt 0.6531 0.6485
vt 0.6173 0.6434
vt 0.5895 0.6516
vt 0.4197 0.2651
vt 0.5895 0.6516
vt 0.5474 0.6433
vt 0.4197 0.2651
vt 0.5474 0.6433
vt 0.5752 0.6351
vt 0.4197 0.2651
vt 0.5752 0.6351
vt 0.6173 0.6434
vt 0.4197 0.2651
vt 0.5752 0.6351
vt 0.5474 0.6433
vt 0.5895 0.6516
vt 0.6173 0.6434
vt 0.5806 0.6390
vt 0.5515 0.6589
vt 0.3308 0.3026
vt 0.5515 0.6589
vt 0.5186 0.6397
vt 0.3308 0.3026
vt 0.5186 0.6397
vt 0.5477 0.6198
vt 0.3308 0.3026
vt 0.5477 0.6198
vt 0.5806 0.6390
vt 0.3308 0.3026
vt 0.5477 0.6198
vt 0.5186 0.6397
vt 0.5515 0.6589
vt 0.5806 0.6390
vt 0.5466 0.6377
vt 0.5282 0.6347
vt 0.3948 0.2475
vt 0.5282 0.6347
vt 0.4941 0.6377
vt 0.3948 0.2475
vt 0.4941 0.6377
vt 0.5124 0.6407
vt 0.3948 0.2475
vt 0.5124 0.6407
vt 0.5466 0.6377
vt 0.3948 0.2475
vt 0.5124 0.6407
vt 0.4941 0.6377
vt 0.5282 0.6347
vt 0.5466 0.6377
vt 0.5332 0.6386
vt 0.5069 0.6309
vt 0.3889 0.2352
vt 0.5069 0.6309
vt 0.4574 0.6401
vt 0.3889 0.2352
vt 0.4574 0.6401
vt 0.4836 0.6477
vt 0.3889 0.2352
vt 0.4836 0.6477
vt 0.5332 0.6386
vt 0.3889 0.2352
vt 0.4836 0.6477
vt 0.4574 0.6401
vt 0.5069 0.6309
vt 0.5332 0.6386
vt 0.5040 0.6437
vt 0.4795 0.6553
vt 0.2853 0.2790
vt 0.4795 0.6553
vt 0.4463 0.6431
vt 0.2853 0.2790
vt 0.4463 0.6431
vt 0.4708 0.6314
vt 0.2853 0.2790
vt 0.4708 0.6314
vt 0.5040 0.6437
vt 0.2853 0.2790
vt 0.4708 0.6314
vt 0.4463 0.6431
vt 0.4795 0.6553
vt 0.5040 0.6437
vt 0.4901 0.6479
vt 0.4654 0.6596
vt 0.2768 0.2661
vt 0.4654 0.6596
vt 0.4318 0.6473
vt 0.2768 0.2661
vt 0.4318 0.6473
vt 0.4565 0.6355
vt 0.2768 0.2661
vt 0.4565 0.6355
vt 0.4901 0.6479
vt 0.2768 0.2661
vt 0.4565 0.6355
vt 0.4318 0.6473
vt 0.4654 0.6596
vt 0.4901 0.6479
vt 0.4837 0.6470
vt 0.4600 0.6476
vt 0.3622 0.2087
vt 0.4600 0.6476
vt 0.4230 0.6521
vt 0.3622 0.2087
vt 0.4230 0.6521
vt 0.4467 0.6516
vt 0.3622 0.2087
vt 0.4467 0.6516
vt 0.4837 0.6470
vt 0.3622 0.2087
vt 0.4467 0.6516
vt 0.4230 0.6521
vt 0.4600 0.6476
vt 0.4837 0.6470
vt 0.4765 0.6492
vt 0.4533 0.6657
vt 0.1951 0.2557
vt 0.4533 0.6657
vt 0.4291 0.6459
vt 0.1951 0.2557
vt 0.4291 0.6459
vt 0.4522 0.6294
vt 0.1951 0.2557
vt 0.4522 0.6294
vt 0.4765 0.6492
vt 0.1951 0.2557
vt 0.4522 0.6294
vt 0.4291 0.6459
vt 0.4533 0.6657
vt 0.4765 0.6492
vt 0.4976 0.6428
vt 0.4613 0.6676
vt 0.2245 0.2272
vt 0.4613 0.6676
vt 0.4214 0.6380
vt 0.2245 0.2272
vt 0.4214 0.6380
vt 0.4577 0.6132
vt 0.2245 0.2272
vt 0.4577 0.6132
vt 0.4976 0.6428
vt 0.2245 0.2272
vt 0.4577 0.6132
vt 0.4214 0.6380
vt 0.4613 0.6676
vt 0.4976 0.6428
vt 0.5031 0.6305
vt 0.4740 0.6509
vt 0.2204 0.2027
vt 0.4740 0.6509
vt 0.4437 0.6251
vt 0.2204 0.2027
vt 0.4437 0.6251
vt 0.4727 0.6046
vt 0.2204 0.2027
vt 0.4727 0.6046
vt 0.5031 0.6305
vt 0.2204 0.2027
vt 0.4727 0.6046
vt 0.4437 0.6251
vt 0.4740 0.6509
vt 0.5031 0.6305
vt 0.5277 0.6131
vt 0.4949 0.6359
vt 0.2493 0.1701
vt 0.4949 0.6359
vt 0.4604 0.6067
vt 0.2493 0.1701
vt 0.4604 0.6067
vt 0.4931 0.5839
vt 0.2493 0.1701
vt 0.4931 0.5839
vt 0.5277 0.6131
vt 0.2493 0.1701
vt 0.4931 0.5839
vt 0.4604 0.6067
vt 0.4949 0.6359
vt 0.5277 0.6131
vn -0.7052 0.0543 -0.7069
vn -0.7052 0.0543 -0.7069
vn -0.7052 0.0543 -0.7069
vn 0.6970 -0.1133 -0.7081
vn 0.6970 -0.1133 -0.7081
vn 0.6970 -0.1133 -0.7081
vn 0.6955 -0.1445 0.7038
vn 0.6955 -0.1445 0.7038
vn 0.6955 -0.1445 0.7038
vn -0.7078 0.0232 0.7060
vn -0.7078 0.0232 0.7060
vn -0.7078 0.0232 0.7060
vn 0.1186 0.9927 0.0221
vn 0.1186 0.9927 0.0221
vn 0.1186 0.9927 0.0221
vn 0.1186 0.9927 0.0221
vn -0.7069 0.0436 -0.7059
vn -0.7069 0.0436 -0.7059
vn -0.7069 0.0436 -0.7059
vn 0.6957 -0.1270 -0.7071
vn 0.6957 -0.1270 -0.7071
vn 0.6957 -0.1270 -0.7071
vn 0.7002 -0.1081 0.7057
vn 0.7002 -0.1081 0.7057
vn 0.7002 -0.1081 0.7057
vn -0.7035 0.0627 0.7080
vn -0.7035 0.0627 0.7080
vn -0.7035 0.0627 0.7080
vn 0.1207 0.9926 -0.0137
vn 0.1207 0.9926 -0.0137
vn 0.1207 0.9926 -0.0137
vn 0.1207 0.9926 -0.0137
vn -0.7033 0.0855 -0.7058
vn -0.7033 0.0855 -0.7058
vn -0.7033 0.0855 -0.7058
vn 0.7073 0.0113 -0.7069
vn 0.7073 0.0113 -0.7069
vn 0.7073 0.0113 -0.7069
vn 0.7002 -0.1659 0.6944
vn 0.7002 -0.1659 0.6944
vn 0.7002 -0.1659 0.6944
vn -0.7115 -0.0916 0.6967
vn -0.7115 -0.0916 0.6967
vn -0.7115 -0.0916 0.6967
vn 0.0523 0.9907 0.1255
vn 0.0523 0.9907 0.1255
vn 0.0523 0.9907 0.1255
vn 0.0523 0.9907 0.1255
vn -0.7182 0.2471 -0.6505
vn -0.7182 0.2471 -0.6505
vn -0.7182 0.2471 -0.6505
vn 0.6924 0.3100 -0.6515
vn 0.6924 0.3100 -0.6515
vn 0.6924 0.3100 -0.6515
vn 0.7230 -0.3316 0.6060
vn 0.7230 -0.3316 0.6060
vn 0.7230 -0.3316 0.6060
vn -0.6887 -0.3950 0.6081
vn -0.6887 -0.3950 0.6081
vn -0.6887 -0.3950 0.6081
vn -0.0393 0.8897 0.4548
vn -0.0393 0.8897 0.4548
vn -0.0393 0.8897 0.4548
vn -0.0393 0.8897 0.4548
vn -0.7381 0.3539 -0.5744
vn -0.7381 0.3539 -0.5744
vn -0.7381 0.3539 -0.5744
vn 0.6669 0.4737 -0.5752
vn 0.6669 0.4737 -0.5752
vn 0.6669 0.4737 -0.5752
vn 0.7481 -0.4581 0.4801
vn 0.7481 -0.4581 0.4801
vn 0.7481 -0.4581 0.4801
vn -0.6580 -0.5786 0.4819
vn -0.6580 -0.5786 0.4819
vn -0.6580 -0.5786 0.4819
vn -0.0632 0.7457 0.6633
vn -0.0632 0.7457 0.6633
vn -0.0632 0.7457 0.6633
vn -0.0632 0.7457 0.6633
vn -0.7152 0.3344 -0.6138
vn -0.7152 0.3344 -0.6138
vn -0.7152 0.3344 -0.6138
vn 0.6952 0.3725 -0.6147
vn 0.6952 0.3725 -0.6147
vn 0.6952 0.3725 -0.6147
vn 0.7190 -0.4355 0.5417
vn 0.7190 -0.4355 0.5417
vn 0.7190 -0.4355 0.5417
vn -0.6925 -0.4742 0.5436
vn -0.6925 -0.4742 0.5436
vn -0.6925 -0.4742 0.5436
vn -0.0218 0.8193 0.5730
vn -0.0218 0.8193 0.5730
vn -0.0218 0.8193 0.5730
vn -0.0218 0.8193 0.5730
vn -0.7067 0.2848 -0.6477
vn -0.7067 0.2848 -0.6477
vn -0.7067 0.2848 -0.6477
vn 0.7046 0.2877 -0.6486
vn 0.7046 0.2877 -0.6486
vn 0.7046 0.2877 -0.6486
vn 0.7080 -0.3844 0.5924
vn 0.7080 -0.3844 0.5924
vn 0.7080 -0.3844 0.5924
vn -0.7045 -0.3878 0.5944
vn -0.7045 -0.3878 0.5944
vn -0.7045 -0.3878 0.5944
vn -0.0015 0.8793 0.4762
vn -0.0015 0.8793 0.4762
vn -0.0015 0.8793 0.4762
vn -0.0015 0.8793 0.4762
vn -0.7059 0.0717 -0.7046
vn -0.7059 0.0717 -0.7046
vn -0.7059 0.0717 -0.7046
vn 0.7064 0.0537 -0.7057
vn 0.7064 0.0537 -0.7057
vn 0.7064 0.0537 -0.7057
vn 0.7060 -0.1518 0.6917
vn 0.7060 -0.1518 0.6917
vn 0.7060 -0.1518 0.6917
vn -0.7075 -0.1338 0.6940
vn -0.7075 -0.1338 0.6940
vn -0.7075 -0.1338 0.6940
vn 0.0128 0.9893 0.1454
vn 0.0128 0.9893 0.1454
vn 0.0128 0.9893 0.1454
vn 0.0128 0.9893 0.1454
vn -0.7067 0.4671 -0.5314
vn -0.7067 0.4671 -0.5314
vn -0.7067 0.4671 -0.5314
vn 0.7056 0.4679 -0.5322
vn 0.7056 0.4679 -0.5322
vn 0.7056 0.4679 -0.5322
vn 0.7078 -0.5293 0.4678
vn 0.7078 -0.5293 0.4678
vn 0.7078 -0.5293 0.4678
vn -0.7056 -0.5309 0.4694
vn -0.7056 -0.5309 0.4694
vn -0.7056 -0.5309 0.4694
vn -0.0000 0.7081 0.7061
vn -0.0000 0.7081 0.7061
vn -0.0000 0.7081 0.7061
vn -0.0000 0.7081 0.7061
vn -0.6950 0.5147 -0.5021
vn -0.6950 0.5147 -0.5021
vn -0.6950 0.5147 -0.5021
vn 0.7154 0.4852 -0.5028
vn 0.7154 0.4852 -0.5028
vn 0.7154 0.4852 -0.5028
vn 0.6944 -0.5966 0.4025
vn 0.6944 -0.5966 0.4025
vn 0.6944 -0.5966 0.4025
vn -0.7172 -0.5679 0.4040
vn -0.7172 -0.5679 0.4040
vn -0.7172 -0.5679 0.4040
vn 0.0138 0.6415 0.7670
vn 0.0138 0.6415 0.7670
vn 0.0138 0.6415 0.7670
vn 0.0138 0.6415 0.7670
vn -0.7088 0.1912 -0.6790
vn -0.7088 0.1912 -0.6790
vn -0.7088 0.1912 -0.6790
vn 0.7034 0.2067 -0.6801
vn 0.7034 0.2067 -0.6801
vn 0.7034 0.2067 -0.6801
vn 0.7108 -0.2739 0.6479
vn 0.7108 -0.2739 0.6479
vn 0.7108 -0.2739 0.6479
vn -0.7025 -0.2897 0.6500
vn -0.7025 -0.2897 0.6500
vn -0.7025 -0.2897 0.6500
vn -0.0100 0.9402 0.3403
vn -0.0100 0.9402 0.3403
vn -0.0100 0.9402 0.3403
vn -0.0100 0.9402 0.3403
vn -0.7089 0.1893 -0.6794
vn -0.7089 0.1893 -0.6794
vn -0.7089 0.1893 -0.6794
vn 0.7032 0.2062 -0.6805
vn 0.7032 0.2062 -0.6805
vn 0.7032 0.2062 -0.6805
vn 0.7110 -0.2757 0.6469
vn 0.7110 -0.2757 0.6469
vn 0.7110 -0.2757 0.6469
vn -0.7021 -0.2929 0.6490
vn -0.7021 -0.2929 0.6490
vn -0.7021 -0.2929 0.6490
vn -0.0110 0.9399 0.3413
vn -0.0110 0.9399 0.3413
vn -0.0110 0.9399 0.3413
vn -0.0110 0.9399 0.3413
vn -0.6628 0.5032 -0.5545
vn -0.6628 0.5032 -0.5545
vn -0.6628 0.5032 -0.5545
vn 0.7428 0.3740 -0.5553
vn 0.7428 0.3740 -0.5553
vn 0.7428 0.3740 -0.5553
vn 0.6565 -0.5830 0.4787
vn 0.6565 -0.5830 0.4787
vn 0.6565 -0.5830 0.4787
vn -0.7502 -0.4544 0.4804
vn -0.7502 -0.4544 0.4804
vn -0.7502 -0.4544 0.4804
vn 0.0675 0.7294 0.6807
vn 0.0675 0.7294 0.6807
vn 0.0675 0.7294 0.6807
vn 0.0675 0.7294 0.6807
vn -0.7050 -0.0534 -0.7072
vn -0.7050 -0.0534 -0.7072
vn -0.7050 -0.0534 -0.7072
vn 0.7043 0.0479 -0.7083
vn 0.7043 0.0479 -0.7083
vn 0.7043 0.0479 -0.7083
vn 0.7109 -0.0128 0.7032
vn 0.7109 -0.0128 0.7032
vn 0.7109 -0.0128 0.7032
vn -0.6995 -0.1142 0.7055
vn -0.6995 -0.1142 0.7055
vn -0.6995 -0.1142 0.7055
vn -0.0716 0.9965 0.0431
vn -0.0716 0.9965 0.0431
vn -0.0716 0.9965 0.0431
vn -0.0716 0.9965 0.0431
vn -0.7051 -0.0402 -0.7080
vn -0.7051 -0.0402 -0.7080
vn -0.7051 -0.0402 -0.7080
vn 0.7032 0.0524 -0.7091
vn 0.7032 0.0524 -0.7091
vn 0.7032 0.0524 -0.7091
vn 0.7137 -0.0740 0.6965
vn 0.7137 -0.0740 0.6965
vn 0.7137 -0.0740 0.6965
vn -0.6957 -0.1667 0.6988
vn -0.6957 -0.1667 0.6988
vn -0.6957 -0.1667 0.6988
vn -0.0653 0.9938 0.0899
vn -0.0653 0.9938 0.0899
vn -0.0653 0.9938 0.0899
vn -0.0653 0.9938 0.0899
vn -0.7018 -0.0847 -0.7073
vn -0.7018 -0.0847 -0.7073
vn -0.7018 -0.0847 -0.7073
vn 0.7042 0.0481 -0.7084
vn 0.7042 0.0481 -0.7084
vn 0.7042 0.0481 -0.7084
vn 0.7114 -0.0043 0.7028
vn 0.7114 -0.0043 0.7028
vn 0.7114 -0.0043 0.7028
vn -0.6957 -0.1372 0.7051
vn -0.6957 -0.1372 0.7051
vn -0.6957 -0.1372 0.7051
vn -0.0940 0.9949 0.0374
vn -0.0940 0.9949 0.0374
vn -0.0940 0.9949 0.0374
vn -0.0940 0.9949 0.0374
vn -0.7011 -0.0885 -0.7075
vn -0.7011 -0.0885 -0.7075
vn -0.7011 -0.0885 -0.7075
vn 0.7039 0.0485 -0.7087
vn 0.7039 0.0485 -0.7087
vn 0.7039 0.0485 -0.7087
vn 0.7125 -0.0165 0.7015
vn 0.7125 -0.0165 0.7015
vn 0.7125 -0.0165 0.7015
vn -0.6937 -0.1535 0.7038
vn -0.6937 -0.1535 0.7038
vn -0.6937 -0.1535 0.7038
vn -0.0969 0.9942 0.0464
vn -0.0969 0.9942 0.0464
vn -0.0969 0.9942 0.0464
vn -0.0969 0.9942 0.0464
f 1/1/1 2/2/2 5/3/3
f 2/4/4 3/5/5 5/6/6
f 3/7/7 4/8/8 5/9/9
f 4/10/10 1/11/11 5/12/12
f 4/13/13 3/14/14 2/15/15 1/16/16
f 6/17/17 7/18/18 10/19/19
f 7/20/20 8/21/21 10/22/22
f 8/23/23 9/24/24 10/25/25
f 9/26/26 6/27/27 10/28/28
f 9/29/29 8/30/30 7/31/31 6/32/32
f 11/33/33 12/34/34 15/35/35
f 12/36/36 13/37/37 15/38/38
f 13/39/39 14/40/40 15/41/41
f 14/42/42 11/43/43 15/44/44
f 14/45/45 13/46/46 12/47/47 11/48/48
f 16/49/49 17/50/50 20/51/51
f 17/52/52 18/53/53 20/54/54
f 18/55/55 19/56/56 20/57/57
f 19/58/58 16/59/59 20/60/60
f 19/61/61 18/62/62 17/63/63 16/64/64
f 21/65/65 22/66/66 25/67/67
f 22/68/68 23/69/69 25/70/70
f 23/71/71 24/72/72 25/73/73
f 24/74/74 21/75/75 25/76/76
f 24/77/77 23/78/78 22/79/79 21/80/80
f 26/81/81 27/82/82 30/83/83
f 27/84/84 28/85/85 30/86/86
f 28/87/87 29/88/88 30/89/89
f 29/90/90 26/91/91 30/92/92
f 29/93/93 28/94/94 27/95/95 26/96/96
f 31/97/97 32/98/98 35/99/99
f 32/100/100 33/101/101 35/102/102
f 33/103/103 34/104/104 35/105/105
f 34/106/106 31/107/107 35/108/108
f 34/109/109 33/110/110 32/111/111 31/112/112
f 36/113/113 37/114/114 40/115/115
f 37/116/116 38/117/117 40/118/118
f 38/119/119 39/120/120 40/121/121
f 39/122/122 36/123/123 40/124/124
f 39/125/125 38/126/126 37/127/127 36/128/128
f 41/129/129 42/130/130 45/131/131
f 42/132/132 43/133/133 45/134/134
f 43/135/135 44/136/136 45/137/137
f 44/138/138 41/139/139 45/140/140
f 44/141/141 43/142/142 42/143/143 41/144/144
f 46/145/145 47/146/146 50/147/147
f 47/148/148 48/149/149 50/150/150
f 48/151/151 49/152/152 50/153/153
f 49/154/154 46/155/155 50/156/156
f 49/157/157 48/158/158 47/159/159 46/160/160
f 51/161/161 52/162/162 55/163/163
f 52/164/164 53/165/165 55/166/166
f 53/167/167 54/168/168 55/169/169
f 54/170/170 51/171/171 55/172/172
f 54/173/173 53/174/174 52/175/175 51/176/176
f 56/177/177 57/178/178 60/179/179
f 57/180/180 58/181/181 60/182/182
f 58/183/183 59/184/184 60/185/185
f 59/186/186 56/187/187 60/188/188
f 59/189/189 58/190/190 57/191/191 56/192/192
f 61/193/193 62/194/194 65/195/195
f 62/196/196 63/197/197 65/198/198
f 63/199/199 64/200/200 65/201/201
f 64/202/202 61/203/203 65/204/204
f 64/205/205 63/206/206 62/207/207 61/208/208
f 66/209/209 67/210/210 70/211/211
f 67/212/212 68/213/213 70/214/214
f 68/215/215 69/216/216 70/217/217
f 69/218/218 66/219/219 70/220/220
f 69/221/221 68/222/222 67/223/223 66/224/224
f 71/225/225 72/226/226 75/227/227
f 72/228/228 73/229/229 75/230/230
f 73/231/231 74/232/232 75/233/233
f 74/234/234 71/235/235 75/236/236
f 74/237/237 73/238/238 72/239/239 71/240/240
f 76/241/241 77/242/242 80/243/243
f 77/244/244 78/245/245 80/246/246
f 78/247/247 79/248/248 80/249/249
f 79/250/250 76/251/251 80/252/252
f 79/253/253 78/254/254 77/255/255 76/256/256
f 81/257/257 82/258/258 85/259/259
f 82/260/260 83/261/261 85/262/262
f 83/263/263 84/264/264 85/265/265
f 84/266/266 81/267/267 85/268/268
f 84/269/269 83/270/270 82/271/271 81/272/272
