# left_shin - exported from blender/silhouette.blend by tools/blender_export.py
o left_shin
v -0.00879 0.03173 0.02929
v 0.02659 0.03107 0.01508
v 0.01248 0.03458 -0.02007
v -0.02291 0.03524 -0.00587
v -0.01523 -0.00543 0.03930
v 0.03588 -0.00804 0.01872
v 0.01522 -0.00827 -0.03224
v -0.03590 -0.00566 -0.01166
v -0.02160 -0.29918 0.08394
v 0.02253 -0.30263 0.06615
v 0.00441 -0.30924 0.02250
v -0.03972 -0.30578 0.04030
v -0.02026 -0.56764 0.10339
v 0.01730 -0.56173 0.09001
v 0.00238 -0.54832 0.05808
v -0.03518 -0.55423 0.07145
v -0.02199 -0.63057 0.01513
v 0.01292 -0.61752 0.00966
v 0.00364 -0.59640 0.00176
v -0.03127 -0.60945 0.00723
v -0.02281 -0.64142 -0.11530
v 0.00107 -0.63201 -0.11716
v -0.00419 -0.61887 -0.11811
v -0.02806 -0.62828 -0.11625
v -0.02043 -0.63994 -0.20204
v -0.01324 -0.63710 -0.20260
v -0.01501 -0.63268 -0.20282
v -0.02220 -0.63551 -0.20226
v -0.01736 -0.07802 0.04987
v 0.03313 -0.08262 0.02964
v 0.01244 -0.08939 -0.02032
v -0.03805 -0.08478 -0.00010
v -0.01893 -0.15416 0.06178
v 0.02932 -0.15898 0.04249
v 0.00949 -0.16680 -0.00514
v -0.03876 -0.16198 0.01415
v -0.02045 -0.22725 0.07317
v 0.02569 -0.23170 0.05469
v 0.00673 -0.23908 0.00913
v -0.03941 -0.23463 0.02760
v -0.02141 -0.37046 0.09293
v 0.02089 -0.37299 0.07575
v 0.00353 -0.37887 0.03386
v -0.03877 -0.37634 0.05103
v -0.02092 -0.43618 0.10080
v 0.01972 -0.43846 0.08429
v 0.00304 -0.44401 0.04403
v -0.03760 -0.44173 0.06055
v -0.02045 -0.50104 0.10794
v 0.01859 -0.50182 0.09227
v 0.00257 -0.50374 0.05408
v -0.03647 -0.50295 0.06975
v -0.02109 -0.60842 0.06012
v 0.01524 -0.59689 0.05136
v 0.00321 -0.57470 0.03366
v -0.03312 -0.58624 0.04243
v -0.02241 -0.63679 -0.02652
v 0.00959 -0.62428 -0.02947
v 0.00179 -0.60514 -0.03215
v -0.03020 -0.61765 -0.02920
v -0.02261 -0.63869 -0.05924
v 0.00659 -0.62717 -0.06152
v -0.00028 -0.61007 -0.06310
v -0.02948 -0.62158 -0.06083
v -0.02277 -0.64023 -0.08774
v 0.00393 -0.62970 -0.08982
v -0.00214 -0.61459 -0.09117
v -0.02884 -0.62511 -0.08909
v -0.02240 -0.64150 -0.14267
v -0.00283 -0.63379 -0.14419
v -0.00717 -0.62290 -0.14478
v -0.02674 -0.63062 -0.14326
v -0.02202 -0.64136 -0.16237
v -0.00583 -0.63497 -0.16362
v -0.00950 -0.62577 -0.16408
v -0.02569 -0.63216 -0.16283
v -0.02172 -0.64124 -0.17805
v -0.00822 -0.63592 -0.17910
v -0.01135 -0.62806 -0.17949
v -0.02485 -0.63339 -0.17844
v -0.02145 -0.64114 -0.19207
v -0.01036 -0.63677 -0.19293
v -0.01301 -0.63011 -0.19327
v -0.02410 -0.63449 -0.19241
v -0.01937 0.03591 0.01351
v 0.01048 0.03326 0.02613
v 0.02332 0.03524 -0.00362
v -0.00653 0.03790 -0.01625
v -0.02208 -0.63806 -0.20279
v -0.01882 -0.63369 -0.20326
v -0.01343 -0.63465 -0.20346
v -0.01669 -0.63903 -0.20299
v -0.01287 0.01908 0.03602
v 0.01420 -0.00669 0.03857
v 0.03392 0.01768 0.01720
v 0.03513 -0.00864 -0.01062
v 0.01517 0.02062 -0.02939
v -0.01421 -0.00701 -0.03150
v -0.03162 0.02202 -0.01057
v -0.03515 -0.00506 0.01768
v -0.01650 -0.03943 0.04387
v 0.01176 -0.07905 0.04912
v 0.03498 -0.04321 0.02318
v 0.03225 -0.08687 0.00087
v 0.01400 -0.04718 -0.02800
v -0.01669 -0.08835 -0.01958
v -0.03748 -0.04340 -0.00731
v -0.03717 -0.08053 0.02867
v -0.01815 -0.11654 0.05591
v 0.00891 -0.15510 0.06107
v 0.03119 -0.12142 0.03618
v 0.02845 -0.16379 0.01506
v 0.01092 -0.12924 -0.01254
v -0.01835 -0.16586 -0.00443
v -0.03842 -0.12436 0.00719
v -0.03789 -0.15716 0.04158
v -0.01969 -0.19098 0.06752
v 0.00618 -0.22809 0.07247
v 0.02749 -0.19568 0.04865
v 0.02486 -0.23623 0.02845
v 0.00810 -0.20332 0.00207
v -0.01989 -0.23824 0.00982
v -0.03908 -0.19862 0.02093
v -0.03858 -0.23011 0.05385
v -0.02115 -0.26320 0.07872
v 0.00386 -0.29967 0.08323
v 0.02397 -0.26721 0.06060
v 0.02175 -0.30658 0.04099
v 0.00543 -0.27424 0.01601
v -0.02105 -0.30874 0.02321
v -0.03969 -0.27023 0.03413
v -0.03894 -0.30183 0.06546
v -0.02163 -0.33524 0.08865
v 0.00300 -0.37063 0.09220
v 0.02157 -0.33817 0.07116
v 0.02014 -0.37641 0.05159
v 0.00384 -0.34436 0.02841
v -0.02088 -0.37870 0.03459
v -0.03936 -0.34143 0.04589
v -0.03803 -0.37292 0.07520
v -0.02116 -0.40398 0.09695
v 0.00252 -0.43628 0.10009
v 0.02029 -0.40633 0.08010
v 0.01900 -0.44166 0.06106
v 0.00328 -0.41200 0.03903
v -0.02040 -0.44391 0.04474
v -0.03817 -0.40966 0.05588
v -0.03688 -0.43853 0.08377
v -0.02068 -0.46796 0.10453
v 0.00208 -0.50107 0.10726
v 0.01915 -0.47002 0.08836
v 0.01790 -0.50293 0.07024
v 0.00280 -0.47503 0.04896
v -0.01996 -0.50371 0.05475
v -0.03703 -0.47297 0.06513
v -0.03578 -0.50185 0.09178
v -0.02026 -0.53595 0.10960
v 0.00132 -0.56720 0.10269
v 0.01802 -0.53376 0.09476
v 0.01688 -0.55392 0.07154
v 0.00238 -0.52855 0.05867
v -0.01920 -0.54876 0.05878
v -0.03590 -0.53074 0.07351
v -0.03476 -0.56204 0.08993
v -0.02058 -0.59127 0.08474
v -0.00067 -0.60682 0.05906
v 0.01632 -0.58208 0.07361
v 0.01604 -0.58363 0.04087
v 0.00270 -0.56277 0.04853
v -0.01721 -0.57631 0.03473
v -0.03420 -0.57197 0.05966
v -0.03392 -0.59949 0.05292
v -0.02159 -0.62159 0.03691
v -0.00280 -0.62800 0.01388
v 0.01417 -0.60887 0.02996
v 0.01482 -0.60452 0.00469
v 0.00365 -0.58657 0.01795
v -0.01556 -0.59897 0.00302
v -0.03211 -0.59928 0.02489
v -0.03317 -0.62245 0.01220
v -0.02225 -0.63503 -0.00642
v -0.00495 -0.63412 -0.02749
v 0.01131 -0.62213 -0.01047
v 0.01169 -0.61236 -0.03137
v 0.00290 -0.60207 -0.01522
v -0.01567 -0.60781 -0.03118
v -0.03066 -0.61498 -0.01117
v -0.03230 -0.62957 -0.02731
v -0.02252 -0.63784 -0.04387
v -0.00672 -0.63613 -0.06008
v 0.00802 -0.62581 -0.04630
v 0.00863 -0.61646 -0.06274
v 0.00072 -0.60766 -0.04810
v -0.01617 -0.61262 -0.06226
v -0.02982 -0.61969 -0.04566
v -0.03152 -0.63229 -0.05961
v -0.02269 -0.63947 -0.07375
v -0.00828 -0.63780 -0.08852
v 0.00523 -0.62846 -0.07593
v 0.00590 -0.62017 -0.09089
v -0.00123 -0.61237 -0.07741
v -0.01663 -0.61702 -0.09039
v -0.02915 -0.62338 -0.07524
v -0.03081 -0.63465 -0.08802
v -0.02283 -0.64093 -0.10142
v -0.00988 -0.63918 -0.11605
v 0.00262 -0.63090 -0.10341
v 0.00292 -0.62367 -0.11798
v -0.00306 -0.61674 -0.10457
v -0.01711 -0.62111 -0.11736
v -0.02851 -0.62677 -0.10259
v -0.02991 -0.63662 -0.11543
v -0.02263 -0.64156 -0.12952
v -0.01180 -0.63969 -0.14332
v -0.00086 -0.63298 -0.13121
v -0.00133 -0.62689 -0.14477
v -0.00565 -0.62098 -0.13196
v -0.01777 -0.62471 -0.14413
v -0.02742 -0.62957 -0.13027
v -0.02824 -0.63751 -0.14268
v -0.02219 -0.64143 -0.15341
v -0.01324 -0.63989 -0.16291
v -0.00447 -0.63443 -0.15479
v -0.00463 -0.62918 -0.16409
v -0.00844 -0.62446 -0.15529
v -0.01828 -0.62724 -0.16354
v -0.02617 -0.63145 -0.15392
v -0.02689 -0.63796 -0.16236
v -0.02187 -0.64130 -0.17048
v -0.01439 -0.64005 -0.17850
v -0.00707 -0.63546 -0.17163
v -0.00726 -0.63099 -0.17949
v -0.01046 -0.62696 -0.17205
v -0.01869 -0.62925 -0.17904
v -0.02526 -0.63279 -0.17090
v -0.02582 -0.63831 -0.17805
v -0.02158 -0.64119 -0.18522
v -0.01541 -0.64020 -0.19244
v -0.00932 -0.63635 -0.18618
v -0.00961 -0.63262 -0.19326
v -0.01220 -0.62911 -0.18654
v -0.01905 -0.63105 -0.19290
v -0.02447 -0.63395 -0.18559
v -0.02486 -0.63863 -0.19208
v -0.02119 -0.64090 -0.19828
v -0.01154 -0.63710 -0.19903
v -0.01389 -0.63121 -0.19933
v -0.02354 -0.63502 -0.19858
v 0.00226 0.04066 0.00565
v -0.01783 -0.63646 -0.20460
v 0.01405 0.01803 0.03535
v 0.03331 0.01914 -0.00958
v -0.01172 0.02215 -0.02865
v -0.03098 0.02104 0.01628
v 0.01317 -0.04058 0.04312
v 0.03414 -0.04591 -0.00629
v -0.01567 -0.04603 -0.02725
v -0.03664 -0.04070 0.02216
v 0.01032 -0.11751 0.05518
v 0.03030 -0.12624 0.00812
v -0.01755 -0.12827 -0.01181
v -0.03753 -0.11954 0.03525
v 0.00753 -0.19190 0.06682
v 0.02664 -0.20038 0.02182
v -0.01913 -0.20240 0.00277
v -0.03824 -0.19392 0.04776
v 0.00488 -0.26389 0.07802
v 0.02316 -0.27148 0.03491
v -0.02060 -0.27355 0.01671
v -0.03888 -0.26596 0.05982
v 0.00329 -0.33554 0.08792
v 0.02080 -0.34181 0.04651
v -0.02109 -0.34406 0.02913
v -0.03860 -0.33779 0.07055
v 0.00276 -0.40409 0.09622
v 0.01956 -0.40960 0.05641
v -0.02064 -0.41189 0.03976
v -0.03744 -0.40638 0.07957
v 0.00230 -0.46805 0.10384
v 0.01845 -0.47291 0.06563
v -0.02018 -0.47494 0.04966
v -0.03633 -0.47008 0.08786
v 0.00182 -0.53583 0.10895
v 0.01737 -0.53075 0.07393
v -0.01970 -0.52867 0.05932
v -0.03525 -0.53375 0.09434
v 0.00042 -0.59030 0.08388
v 0.01643 -0.57070 0.05899
v -0.01830 -0.56375 0.04939
v -0.03431 -0.58335 0.07429
v -0.00174 -0.61941 0.03569
v 0.01562 -0.59534 0.02265
v -0.01620 -0.58874 0.01917
v -0.03355 -0.61282 0.03220
v -0.00389 -0.63234 -0.00755
v 0.01340 -0.60968 -0.01361
v -0.01545 -0.60477 -0.01409
v -0.03275 -0.62743 -0.00804
v -0.00588 -0.63523 -0.04475
v 0.01009 -0.61448 -0.04766
v -0.01592 -0.61027 -0.04722
v -0.03190 -0.63102 -0.04431
v -0.00752 -0.63698 -0.07456
v 0.00724 -0.61835 -0.07708
v -0.01640 -0.61486 -0.07660
v -0.03116 -0.63349 -0.07408
v -0.00904 -0.63857 -0.10220
v 0.00455 -0.62194 -0.10436
v -0.01685 -0.61910 -0.10380
v -0.03044 -0.63574 -0.10164
v -0.01085 -0.63952 -0.13023
v 0.00082 -0.62537 -0.13190
v -0.01744 -0.62302 -0.13126
v -0.02911 -0.63717 -0.12958
v -0.01259 -0.63980 -0.15401
v -0.00313 -0.62814 -0.15530
v -0.01805 -0.62609 -0.15470
v -0.02750 -0.63775 -0.15341
v -0.01383 -0.63998 -0.17097
v -0.00599 -0.63012 -0.17205
v -0.01849 -0.62828 -0.17156
v -0.02634 -0.63814 -0.17047
v -0.01491 -0.64013 -0.18563
v -0.00846 -0.63183 -0.18654
v -0.01888 -0.63017 -0.18613
v -0.02533 -0.63848 -0.18523
v -0.01593 -0.64010 -0.19867
v -0.01091 -0.63345 -0.19939
v -0.01915 -0.63202 -0.19908
v -0.02417 -0.63868 -0.19836
vt 0.0300 0.5000
vt 0.0300 0.5000
vt 0.0300 0.5000
vt 0.0300 0.5000
vt 0.0300 0.5000
vt 0.0300 0.5000
vt 0.0300 0.5000
vt 0.0300 0.5000
vt 0.0300 0.5000
vt 0.0300 0.5000
vt 0.0300 0.5000
vt 0.0300 0.5000
vt 0.0300 0.5000
vt 0.0300 0.5000
vt 0.0300 0.5000
vt 0.0300 0.5000
vt 0.0300 0.5000
vt 0.0300 0.5000
vt 0.0300 0.5000
vt 0.0300 0.5000
vt 0.0300 0.5000
vt 0.0300 0.5000
vt 0.0300 0.5000
vt 0.0300 0.5000
vt 0.0300 0.5000
vt 0.0300 0.5000
vt 0.0300 0.5000
vt 0.0300 0.5000
vt 0.0300 0.5000
vt 0.0300 0.5000
vt 0.0300 0.5000
vt 0.0300 0.5000
vt 0.0300 0.5000
vt 0.0300 0.5000
vt 0.0300 0.5000
vt 0.0300 0.5000
vt 0.0300 0.5000
vt 0.0300 0.5000
vt 0.0300 0.5000
vt 0.0300 0.5000
vt 0.0300 0.5000
vt 0.0300 0.5000
vt 0.0300 0.5000
vt 0.0300 0.5000
vt 0.0300 0.5000
vt 0.0300 0.5000
vt 0.0300 0.5000
vt 0.0300 0.5000
vt 0.0300 0.5000
vt 0.0300 0.5000
vt 0.0300 0.5000
vt 0.0300 0.5000
vt 0.0300 0.5000
vt 0.0300 0.5000
vt 0.0300 0.5000
vt 0.0300 0.5000
vt 0.0300 0.5000
vt 0.0300 0.5000
vt 0.0300 0.5000
vt 0.0300 0.5000
vt 0.0300 0.5000
vt 0.0300 0.5000
vt 0.0300 0.5000
vt 0.0300 0.5000
vt 0.0300 0.5000
vt 0.0300 0.5000
vt 0.0300 0.5000
vt 0.0300 0.5000
vt 0.0300 0.5000
vt 0.0300 0.5000
vt 0.0300 0.5000
vt 0.0300 0.5000
vt 0.0300 0.5000
vt 0.0300 0.5000
vt 0.0300 0.5000
vt 0.0300 0.5000
vt 0.0300 0.5000
vt 0.0300 0.5000
vt 0.0300 0.5000
vt 0.0300 0.5000
vt 0.0300 0.5000
vt 0.0300 0.5000
vt 0.0300 0.5000
vt 0.0300 0.5000
vt 0.0300 0.5000
vt 0.0300 0.5000
vt 0.0300 0.5000
vt 0.0300 0.5000
vt 0.0300 0.5000
vt 0.0300 0.5000
vt 0.0300 0.5000
vt 0.0300 0.5000
vt 0.0300 0.5000
vt 0.0300 0.5000
vt 0.0300 0.5000
vt 0.0300 0.5000
vt 0.0300 0.5000
vt 0.0300 0.5000
vt 0.0300 0.5000
vt 0.0300 0.5000
vt 0.0300 0.5000
vt 0.0300 0.5000
vt 0.0300 0.5000
vt 0.0300 0.5000
vt 0.0300 0.5000
vt 0.0300 0.5000
vt 0.0300 0.5000
vt 0.0300 0.5000
vt 0.0300 0.5000
vt 0.0300 0.5000
vt 0.0300 0.5000
vt 0.0300 0.5000
vt 0.0300 0.5000
vt 0.0300 0.5000
vt 0.0300 0.5000
vt 0.0300 0.5000
vt 0.0300 0.5000
vt 0.0300 0.5000
vt 0.0300 0.5000
vt 0.0300 0.5000
vt 0.0300 0.5000
vt 0.0300 0.5000
vt 0.0300 0.5000
vt 0.0300 0.5000
vt 0.0300 0.5000
vt 0.0300 0.5000
vt 0.0300 0.5000
vt 0.0300 0.5000
vt 0.0300 0.5000
vt 0.0300 0.5000
vt 0.0300 0.5000
vt 0.0300 0.5000
vt 0.0300 0.5000
vt 0.0300 0.5000
vt 0.0300 0.5000
vt 0.0300 0.5000
vt 0.0300 0.5000
vt 0.0300 0.5000
vt 0.0300 0.5000
vt 0.0300 0.5000
vt 0.0300 0.5000
vt 0.0300 0.5000
vt 0.0300 0.5000
vt 0.0300 0.5000
vt 0.0300 0.5000
vt 0.0300 0.5000
vt 0.0300 0.5000
vt 0.0300 0.5000
vt 0.0300 0.5000
vt 0.0300 0.5000
vt 0.0300 0.5000
vt 0.0300 0.5000
vt 0.0300 0.5000
vt 0.0300 0.5000
vt 0.0300 0.5000
vt 0.0300 0.5000
vt 0.0300 0.5000
vt 0.0300 0.5000
vt 0.0300 0.5000
vt 0.0300 0.5000
vt 0.0300 0.5000
vt 0.0300 0.5000
vt 0.0300 0.5000
vt 0.0300 0.5000
vt 0.0300 0.5000
vt 0.0300 0.5000
vt 0.0300 0.5000
vt 0.0300 0.5000
vt 0.0300 0.5000
vt 0.0300 0.5000
vt 0.0300 0.5000
vt 0.0300 0.5000
vt 0.0300 0.5000
vt 0.0300 0.5000
vt 0.0300 0.5000
vt 0.0300 0.5000
vt 0.0300 0.5000
vt 0.0300 0.5000
vt 0.0300 0.5000
vt 0.0300 0.5000
vt 0.0300 0.5000
vt 0.0300 0.5000
vt 0.0300 0.5000
vt 0.0300 0.5000
vt 0.0300 0.5000
vt 0.0300 0.5000
vt 0.0300 0.5000
vt 0.0300 0.5000
vt 0.0300 0.5000
vt 0.0300 0.5000
vt 0.0300 0.5000
vt 0.0300 0.5000
vt 0.0300 0.5000
vt 0.0300 0.5000
vt 0.0300 0.5000
vt 0.0300 0.5000
vt 0.0300 0.5000
vt 0.0300 0.5000
vt 0.0300 0.5000
vt 0.0300 0.5000
vt 0.0300 0.5000
vt 0.0300 0.5000
vt 0.0300 0.5000
vt 0.0300 0.5000
vt 0.0300 0.5000
vt 0.0300 0.5000
vt 0.0300 0.5000
vt 0.0300 0.5000
vt 0.0300 0.5000
vt 0.0300 0.5000
vt 0.0300 0.5000
vt 0.0300 0.5000
vt 0.0300 0.5000
vt 0.0300 0.5000
vt 0.0300 0.5000
vt 0.0300 0.5000
vt 0.0300 0.5000
vt 0.0300 0.5000
vt 0.0300 0.5000
vt 0.0300 0.5000
vt 0.0300 0.5000
vt 0.0300 0.5000
vt 0.0300 0.5000
vt 0.0300 0.5000
vt 0.0300 0.5000
vt 0.0300 0.5000
vt 0.0300 0.5000
vt 0.0300 0.5000
vt 0.0300 0.5000
vt 0.0300 0.5000
vt 0.0300 0.5000
vt 0.0300 0.5000
vt 0.0300 0.5000
vt 0.0300 0.5000
vt 0.0300 0.5000
vt 0.0300 0.5000
vt 0.0300 0.5000
vt 0.0300 0.5000
vt 0.0300 0.5000
vt 0.0300 0.5000
vt 0.0300 0.5000
vt 0.0300 0.5000
vt 0.0300 0.5000
vt 0.0300 0.5000
vt 0.0300 0.5000
vt 0.0300 0.5000
vt 0.0300 0.5000
vt 0.0300 0.5000
vt 0.0300 0.5000
vt 0.0300 0.5000
vt 0.0300 0.5000
vt 0.0300 0.5000
vt 0.0300 0.5000
vt 0.0300 0.5000
vt 0.0300 0.5000
vt 0.0300 0.5000
vt 0.0300 0.5000
vt 0.0300 0.5000
vt 0.0300 0.5000
vt 0.0300 0.5000
vt 0.0300 0.5000
vt 0.0300 0.5000
vt 0.0300 0.5000
vt 0.0300 0.5000
vt 0.0300 0.5000
vt 0.0300 0.5000
vt 0.0300 0.5000
vt 0.0300 0.5000
vt 0.0300 0.5000
vt 0.0300 0.5000
vt 0.0300 0.5000
vt 0.0300 0.5000
vt 0.0300 0.5000
vt 0.0300 0.5000
vt 0.0300 0.5000
vt 0.0300 0.5000
vt 0.0300 0.5000
vt 0.0300 0.5000
vt 0.0300 0.5000
vt 0.0300 0.5000
vt 0.0300 0.5000
vt 0.0300 0.5000
vt 0.0300 0.5000
vt 0.0300 0.5000
vt 0.0300 0.5000
vt 0.0300 0.5000
vt 0.0300 0.5000
vt 0.0300 0.5000
vt 0.0300 0.5000
vt 0.0300 0.5000
vt 0.0300 0.5000
vt 0.0300 0.5000
vt 0.0300 0.5000
vt 0.0300 0.5000
vt 0.0300 0.5000
vt 0.0300 0.5000
vt 0.0300 0.5000
vt 0.0300 0.5000
vt 0.0300 0.5000
vt 0.0300 0.5000
vt 0.0300 0.5000
vt 0.0300 0.5000
vt 0.0300 0.5000
vt 0.0300 0.5000
vt 0.0300 0.5000
vt 0.0300 0.5000
vt 0.0300 0.5000
vt 0.0300 0.5000
vt 0.0300 0.5000
vt 0.0300 0.5000
vt 0.0300 0.5000
vt 0.0300 0.5000
vt 0.0300 0.5000
vt 0.0300 0.5000
vt 0.0300 0.5000
vt 0.0300 0.5000
vt 0.0300 0.5000
vt 0.0300 0.5000
vt 0.0300 0.5000
vt 0.0300 0.5000
vt 0.0300 0.5000
vt 0.0300 0.5000
vt 0.0300 0.5000
vt 0.0300 0.5000
vt 0.0300 0.5000
vt 0.0300 0.5000
vt 0.0300 0.5000
vt 0.0300 0.5000
vt 0.0300 0.5000
vt 0.0300 0.5000
vt 0.0300 0.5000
vt 0.0300 0.5000
vt 0.0300 0.5000
vt 0.0300 0.5000
vt 0.0300 0.5000
vt 0.0300 0.5000
vt 0.0300 0.5000
vt 0.0300 0.5000
vt 0.0300 0.5000
vt 0.0300 0.5000
vt 0.0300 0.5000
vt 0.0300 0.5000
vt 0.0300 0.5000
vt 0.0300 0.5000
vt 0.0300 0.5000
vt 0.0300 0.5000
vt 0.0300 0.5000
vt 0.0300 0.5000
vt 0.0300 0.5000
vt 0.0300 0.5000
vt 0.0300 0.5000
vt 0.0300 0.5000
vt 0.0300 0.5000
vt 0.0300 0.5000
vt 0.0300 0.5000
vt 0.0300 0.5000
vt 0.0300 0.5000
vt 0.0300 0.5000
vt 0.0300 0.5000
vt 0.0300 0.5000
vt 0.0300 0.5000
vt 0.0300 0.5000
vt 0.0300 0.5000
vt 0.0300 0.5000
vt 0.0300 0.5000
vt 0.0300 0.5000
vt 0.0300 0.5000
vt 0.0300 0.5000
vt 0.0300 0.5000
vt 0.0300 0.5000
vt 0.0300 0.5000
vt 0.0300 0.5000
vt 0.0300 0.5000
vt 0.0300 0.5000
vt 0.0300 0.5000
vt 0.0300 0.5000
vt 0.0300 0.5000
vt 0.0300 0.5000
vt 0.0300 0.5000
vt 0.0300 0.5000
vt 0.0300 0.5000
vt 0.0300 0.5000
vt 0.0300 0.5000
vt 0.0300 0.5000
vt 0.0300 0.5000
vt 0.0300 0.5000
vt 0.0300 0.5000
vt 0.0300 0.5000
vt 0.0300 0.5000
vt 0.0300 0.5000
vt 0.0300 0.5000
vt 0.0300 0.5000
vt 0.0300 0.5000
vt 0.0300 0.5000
vt 0.0300 0.5000
vt 0.0300 0.5000
vt 0.0300 0.5000
vt 0.0300 0.5000
vt 0.0300 0.5000
vt 0.0300 0.5000
vt 0.0300 0.5000
vt 0.0300 0.5000
vt 0.0300 0.5000
vt 0.0300 0.5000
vt 0.0300 0.5000
vt 0.0300 0.5000
vt 0.0300 0.5000
vt 0.0300 0.5000
vt 0.0300 0.5000
vt 0.0300 0.5000
vt 0.0300 0.5000
vt 0.0300 0.5000
vt 0.0300 0.5000
vt 0.0300 0.5000
vt 0.0300 0.5000
vt 0.0300 0.5000
vt 0.0300 0.5000
vt 0.0300 0.5000
vt 0.0300 0.5000
vt 0.0300 0.5000
vt 0.0300 0.5000
vt 0.0300 0.5000
vt 0.0300 0.5000
vt 0.0300 0.5000
vt 0.0300 0.5000
vt 0.0300 0.5000
vt 0.0300 0.5000
vt 0.0300 0.5000
vt 0.0300 0.5000
vt 0.0300 0.5000
vt 0.0300 0.5000
vt 0.0300 0.5000
vt 0.0300 0.5000
vt 0.0300 0.5000
vt 0.0300 0.5000
vt 0.0300 0.5000
vt 0.0300 0.5000
vt 0.0300 0.5000
vt 0.0300 0.5000
vt 0.0300 0.5000
vt 0.0300 0.5000
vt 0.0300 0.5000
vt 0.0300 0.5000
vt 0.0300 0.5000
vt 0.0300 0.5000
vt 0.0300 0.5000
vt 0.0300 0.5000
vt 0.0300 0.5000
vt 0.0300 0.5000
vt 0.0300 0.5000
vt 0.0300 0.5000
vt 0.0300 0.5000
vt 0.0300 0.5000
vt 0.0300 0.5000
vt 0.0300 0.5000
vt 0.0300 0.5000
vt 0.0300 0.5000
vt 0.0300 0.5000
vt 0.0300 0.5000
vt 0.0300 0.5000
vt 0.0300 0.5000
vt 0.0300 0.5000
vt 0.0300 0.5000
vt 0.0300 0.5000
vt 0.0300 0.5000
vt 0.0300 0.5000
vt 0.0300 0.5000
vt 0.0300 0.5000
vt 0.0300 0.5000
vt 0.0300 0.5000
vt 0.0300 0.5000
vt 0.0300 0.5000
vt 0.0300 0.5000
vt 0.0300 0.5000
vt 0.0300 0.5000
vt 0.0300 0.5000
vt 0.0300 0.5000
vt 0.0300 0.5000
vt 0.0300 0.5000
vt 0.0300 0.5000
vt 0.0300 0.5000
vt 0.0300 0.5000
vt 0.0300 0.5000
vt 0.0300 0.5000
vt 0.0300 0.5000
vt 0.0300 0.5000
vt 0.0300 0.5000
vt 0.0300 0.5000
vt 0.0300 0.5000
vt 0.0300 0.5000
vt 0.0300 0.5000
vt 0.0300 0.5000
vt 0.0300 0.5000
vt 0.0300 0.5000
vt 0.0300 0.5000
vt 0.0300 0.5000
vt 0.0300 0.5000
vt 0.0300 0.5000
vt 0.0300 0.5000
vt 0.0300 0.5000
vt 0.0300 0.5000
vt 0.0300 0.5000
vt 0.0300 0.5000
vt 0.0300 0.5000
vt 0.0300 0.5000
vt 0.0300 0.5000
vt 0.0300 0.5000
vt 0.0300 0.5000
vt 0.0300 0.5000
vt 0.0300 0.5000
vt 0.0300 0.5000
vt 0.0300 0.5000
vt 0.0300 0.5000
vt 0.0300 0.5000
vt 0.0300 0.5000
vt 0.0300 0.5000
vt 0.0300 0.5000
vt 0.0300 0.5000
vt 0.0300 0.5000
vt 0.0300 0.5000
vt 0.0300 0.5000
vt 0.0300 0.5000
vt 0.0300 0.5000
vt 0.0300 0.5000
vt 0.0300 0.5000
vt 0.0300 0.5000
vt 0.0300 0.5000
vt 0.0300 0.5000
vt 0.0300 0.5000
vt 0.0300 0.5000
vt 0.0300 0.5000
vt 0.0300 0.5000
vt 0.0300 0.5000
vt 0.0300 0.5000
vt 0.0300 0.5000
vt 0.0300 0.5000
vt 0.0300 0.5000
vt 0.0300 0.5000
vt 0.0300 0.5000
vt 0.0300 0.5000
vt 0.0300 0.5000
vt 0.0300 0.5000
vt 0.0300 0.5000
vt 0.0300 0.5000
vt 0.0300 0.5000
vt 0.0300 0.5000
vt 0.0300 0.5000
vt 0.0300 0.5000
vt 0.0300 0.5000
vt 0.0300 0.5000
vt 0.0300 0.5000
vt 0.0300 0.5000
vt 0.0300 0.5000
vt 0.0300 0.5000
vt 0.0300 0.5000
vt 0.0300 0.5000
vt 0.0300 0.5000
vt 0.0300 0.5000
vt 0.0300 0.5000
vt 0.0300 0.5000
vt 0.0300 0.5000
vt 0.0300 0.5000
vt 0.0300 0.5000
vt 0.0300 0.5000
vt 0.0300 0.5000
vt 0.0300 0.5000
vt 0.0300 0.5000
vt 0.0300 0.5000
vt 0.0300 0.5000
vt 0.0300 0.5000
vt 0.0300 0.5000
vt 0.0300 0.5000
vt 0.0300 0.5000
vt 0.0300 0.5000
vt 0.0300 0.5000
vt 0.0300 0.5000
vt 0.0300 0.5000
vt 0.0300 0.5000
vt 0.0300 0.5000
vt 0.0300 0.5000
vt 0.0300 0.5000
vt 0.0300 0.5000
vt 0.0300 0.5000
vt 0.0300 0.5000
vt 0.0300 0.5000
vt 0.0300 0.5000
vt 0.0300 0.5000
vt 0.0300 0.5000
vt 0.0300 0.5000
vt 0.0300 0.5000
vt 0.0300 0.5000
vt 0.0300 0.5000
vt 0.0300 0.5000
vt 0.0300 0.5000
vt 0.0300 0.5000
vt 0.0300 0.5000
vt 0.0300 0.5000
vt 0.0300 0.5000
vt 0.0300 0.5000
vt 0.0300 0.5000
vt 0.0300 0.5000
vt 0.0300 0.5000
vt 0.0300 0.5000
vt 0.0300 0.5000
vt 0.0300 0.5000
vt 0.0300 0.5000
vt 0.0300 0.5000
vt 0.0300 0.5000
vt 0.0300 0.5000
vt 0.0300 0.5000
vt 0.0300 0.5000
vt 0.0300 0.5000
vt 0.0300 0.5000
vt 0.0300 0.5000
vt 0.0300 0.5000
vt 0.0300 0.5000
vt 0.0300 0.5000
vt 0.0300 0.5000
vt 0.0300 0.5000
vt 0.0300 0.5000
vt 0.0300 0.5000
vt 0.0300 0.5000
vt 0.0300 0.5000
vt 0.0300 0.5000
vt 0.0300 0.5000
vt 0.0300 0.5000
vt 0.0300 0.5000
vt 0.0300 0.5000
vt 0.0300 0.5000
vt 0.0300 0.5000
vt 0.0300 0.5000
vt 0.0300 0.5000
vt 0.0300 0.5000
vt 0.0300 0.5000
vt 0.0300 0.5000
vt 0.0300 0.5000
vt 0.0300 0.5000
vt 0.0300 0.5000
vt 0.0300 0.5000
vt 0.0300 0.5000
vt 0.0300 0.5000
vt 0.0300 0.5000
vt 0.0300 0.5000
vt 0.0300 0.5000
vt 0.0300 0.5000
vt 0.0300 0.5000
vt 0.0300 0.5000
vt 0.0300 0.5000
vt 0.0300 0.5000
vt 0.0300 0.5000
vt 0.0300 0.5000
vt 0.0300 0.5000
vt 0.0300 0.5000
vt 0.0300 0.5000
vt 0.0300 0.5000
vt 0.0300 0.5000
vt 0.0300 0.5000
vt 0.0300 0.5000
vt 0.0300 0.5000
vt 0.0300 0.5000
vt 0.0300 0.5000
vt 0.0300 0.5000
vt 0.0300 0.5000
vt 0.0300 0.5000
vt 0.0300 0.5000
vt 0.0300 0.5000
vt 0.0300 0.5000
vt 0.0300 0.5000
vt 0.0300 0.5000
vt 0.0300 0.5000
vt 0.0300 0.5000
vt 0.0300 0.5000
vt 0.0300 0.5000
vt 0.0300 0.5000
vt 0.0300 0.5000
vt 0.0300 0.5000
vt 0.0300 0.5000
vt 0.0300 0.5000
vt 0.0300 0.5000
vt 0.0300 0.5000
vt 0.0300 0.5000
vt 0.0300 0.5000
vt 0.0300 0.5000
vt 0.0300 0.5000
vt 0.0300 0.5000
vt 0.0300 0.5000
vt 0.0300 0.5000
vt 0.0300 0.5000
vt 0.0300 0.5000
vt 0.0300 0.5000
vt 0.0300 0.5000
vt 0.0300 0.5000
vt 0.0300 0.5000
vt 0.0300 0.5000
vt 0.0300 0.5000
vt 0.0300 0.5000
vt 0.0300 0.5000
vt 0.0300 0.5000
vt 0.0300 0.5000
vt 0.0300 0.5000
vt 0.0300 0.5000
vt 0.0300 0.5000
vt 0.0300 0.5000
vt 0.0300 0.5000
vt 0.0300 0.5000
vt 0.0300 0.5000
vt 0.0300 0.5000
vt 0.0300 0.5000
vt 0.0300 0.5000
vt 0.0300 0.5000
vt 0.0300 0.5000
vt 0.0300 0.5000
vt 0.0300 0.5000
vt 0.0300 0.5000
vt 0.0300 0.5000
vt 0.0300 0.5000
vt 0.0300 0.5000
vt 0.0300 0.5000
vt 0.0300 0.5000
vt 0.0300 0.5000
vt 0.0300 0.5000
vt 0.0300 0.5000
vt 0.0300 0.5000
vt 0.0300 0.5000
vt 0.0300 0.5000
vt 0.0300 0.5000
vt 0.0300 0.5000
vt 0.0300 0.5000
vt 0.0300 0.5000
vt 0.0300 0.5000
vt 0.0300 0.5000
vt 0.0300 0.5000
vt 0.0300 0.5000
vt 0.0300 0.5000
vt 0.0300 0.5000
vt 0.0300 0.5000
vt 0.0300 0.5000
vt 0.0300 0.5000
vt 0.0300 0.5000
vt 0.0300 0.5000
vt 0.0300 0.5000
vt 0.0300 0.5000
vt 0.0300 0.5000
vt 0.0300 0.5000
vt 0.0300 0.5000
vt 0.0300 0.5000
vt 0.0300 0.5000
vt 0.0300 0.5000
vt 0.0300 0.5000
vt 0.0300 0.5000
vt 0.0300 0.5000
vt 0.0300 0.5000
vt 0.0300 0.5000
vt 0.0300 0.5000
vt 0.0300 0.5000
vt 0.0300 0.5000
vt 0.0300 0.5000
vt 0.0300 0.5000
vt 0.0300 0.5000
vt 0.0300 0.5000
vt 0.0300 0.5000
vt 0.0300 0.5000
vt 0.0300 0.5000
vt 0.0300 0.5000
vt 0.0300 0.5000
vt 0.0300 0.5000
vt 0.0300 0.5000
vt 0.0300 0.5000
vt 0.0300 0.5000
vt 0.0300 0.5000
vt 0.0300 0.5000
vt 0.0300 0.5000
vt 0.0300 0.5000
vt 0.0300 0.5000
vt 0.0300 0.5000
vt 0.0300 0.5000
vt 0.0300 0.5000
vt 0.0300 0.5000
vt 0.0300 0.5000
vt 0.0300 0.5000
vt 0.0300 0.5000
vt 0.0300 0.5000
vt 0.0300 0.5000
vt 0.0300 0.5000
vt 0.0300 0.5000
vt 0.0300 0.5000
vt 0.0300 0.5000
vt 0.0300 0.5000
vt 0.0300 0.5000
vt 0.0300 0.5000
vt 0.0300 0.5000
vt 0.0300 0.5000
vt 0.0300 0.5000
vt 0.0300 0.5000
vt 0.0300 0.5000
vt 0.0300 0.5000
vt 0.0300 0.5000
vt 0.0300 0.5000
vt 0.0300 0.5000
vt 0.0300 0.5000
vt 0.0300 0.5000
vt 0.0300 0.5000
vt 0.0300 0.5000
vt 0.0300 0.5000
vt 0.0300 0.5000
vt 0.0300 0.5000
vt 0.0300 0.5000
vt 0.0300 0.5000
vt 0.0300 0.5000
vt 0.0300 0.5000
vt 0.0300 0.5000
vt 0.0300 0.5000
vt 0.0300 0.5000
vt 0.0300 0.5000
vt 0.0300 0.5000
vt 0.0300 0.5000
vt 0.0300 0.5000
vt 0.0300 0.5000
vt 0.0300 0.5000
vt 0.0300 0.5000
vt 0.0300 0.5000
vt 0.0300 0.5000
vt 0.0300 0.5000
vt 0.0300 0.5000
vt 0.0300 0.5000
vt 0.0300 0.5000
vt 0.0300 0.5000
vt 0.0300 0.5000
vt 0.0300 0.5000
vt 0.0300 0.5000
vt 0.0300 0.5000
vt 0.0300 0.5000
vt 0.0300 0.5000
vt 0.0300 0.5000
vt 0.0300 0.5000
vt 0.0300 0.5000
vt 0.0300 0.5000
vt 0.0300 0.5000
vt 0.0300 0.5000
vt 0.0300 0.5000
vt 0.0300 0.5000
vt 0.0300 0.5000
vt 0.0300 0.5000
vt 0.0300 0.5000
vt 0.0300 0.5000
vt 0.0300 0.5000
vt 0.0300 0.5000
vt 0.0300 0.5000
vt 0.0300 0.5000
vt 0.0300 0.5000
vt 0.0300 0.5000
vt 0.0300 0.5000
vt 0.0300 0.5000
vt 0.0300 0.5000
vt 0.0300 0.5000
vt 0.0300 0.5000
vt 0.0300 0.5000
vt 0.0300 0.5000
vt 0.0300 0.5000
vt 0.0300 0.5000
vt 0.0300 0.5000
vt 0.0300 0.5000
vt 0.0300 0.5000
vt 0.0300 0.5000
vt 0.0300 0.5000
vt 0.0300 0.5000
vt 0.0300 0.5000
vt 0.0300 0.5000
vt 0.0300 0.5000
vt 0.0300 0.5000
vt 0.0300 0.5000
vt 0.0300 0.5000
vt 0.0300 0.5000
vt 0.0300 0.5000
vt 0.0300 0.5000
vt 0.0300 0.5000
vt 0.0300 0.5000
vt 0.0300 0.5000
vt 0.0300 0.5000
vt 0.0300 0.5000
vt 0.0300 0.5000
vt 0.0300 0.5000
vt 0.0300 0.5000
vt 0.0300 0.5000
vt 0.0300 0.5000
vt 0.0300 0.5000
vt 0.0300 0.5000
vt 0.0300 0.5000
vt 0.0300 0.5000
vt 0.0300 0.5000
vt 0.0300 0.5000
vt 0.0300 0.5000
vt 0.0300 0.5000
vt 0.0300 0.5000
vt 0.0300 0.5000
vt 0.0300 0.5000
vt 0.0300 0.5000
vt 0.0300 0.5000
vt 0.0300 0.5000
vt 0.0300 0.5000
vt 0.0300 0.5000
vt 0.0300 0.5000
vt 0.0300 0.5000
vt 0.0300 0.5000
vt 0.0300 0.5000
vt 0.0300 0.5000
vt 0.0300 0.5000
vt 0.0300 0.5000
vt 0.0300 0.5000
vt 0.0300 0.5000
vt 0.0300 0.5000
vt 0.0300 0.5000
vt 0.0300 0.5000
vt 0.0300 0.5000
vt 0.0300 0.5000
vt 0.0300 0.5000
vt 0.0300 0.5000
vt 0.0300 0.5000
vt 0.0300 0.5000
vt 0.0300 0.5000
vt 0.0300 0.5000
vt 0.0300 0.5000
vt 0.0300 0.5000
vt 0.0300 0.5000
vt 0.0300 0.5000
vt 0.0300 0.5000
vt 0.0300 0.5000
vt 0.0300 0.5000
vt 0.0300 0.5000
vt 0.0300 0.5000
vt 0.0300 0.5000
vt 0.0300 0.5000
vt 0.0300 0.5000
vt 0.0300 0.5000
vt 0.0300 0.5000
vt 0.0300 0.5000
vt 0.0300 0.5000
vt 0.0300 0.5000
vt 0.0300 0.5000
vt 0.0300 0.5000
vt 0.0300 0.5000
vt 0.0300 0.5000
vt 0.0300 0.5000
vt 0.0300 0.5000
vt 0.0300 0.5000
vt 0.0300 0.5000
vt 0.0300 0.5000
vt 0.0300 0.5000
vt 0.0300 0.5000
vt 0.0300 0.5000
vt 0.0300 0.5000
vt 0.0300 0.5000
vt 0.0300 0.5000
vt 0.0300 0.5000
vt 0.0300 0.5000
vt 0.0300 0.5000
vt 0.0300 0.5000
vt 0.0300 0.5000
vt 0.0300 0.5000
vt 0.0300 0.5000
vt 0.0300 0.5000
vt 0.0300 0.5000
vt 0.0300 0.5000
vt 0.0300 0.5000
vt 0.0300 0.5000
vt 0.0300 0.5000
vt 0.0300 0.5000
vt 0.0300 0.5000
vt 0.0300 0.5000
vt 0.0300 0.5000
vt 0.0300 0.5000
vt 0.0300 0.5000
vt 0.0300 0.5000
vt 0.0300 0.5000
vt 0.0300 0.5000
vt 0.0300 0.5000
vt 0.0300 0.5000
vt 0.0300 0.5000
vt 0.0300 0.5000
vt 0.0300 0.5000
vt 0.0300 0.5000
vt 0.0300 0.5000
vt 0.0300 0.5000
vt 0.0300 0.5000
vt 0.0300 0.5000
vt 0.0300 0.5000
vt 0.0300 0.5000
vt 0.0300 0.5000
vt 0.0300 0.5000
vt 0.0300 0.5000
vt 0.0300 0.5000
vt 0.0300 0.5000
vt 0.0300 0.5000
vt 0.0300 0.5000
vt 0.0300 0.5000
vt 0.0300 0.5000
vt 0.0300 0.5000
vt 0.0300 0.5000
vt 0.0300 0.5000
vt 0.0300 0.5000
vt 0.0300 0.5000
vt 0.0300 0.5000
vt 0.0300 0.5000
vt 0.0300 0.5000
vt 0.0300 0.5000
vt 0.0300 0.5000
vt 0.0300 0.5000
vt 0.0300 0.5000
vt 0.0300 0.5000
vt 0.0300 0.5000
vt 0.0300 0.5000
vt 0.0300 0.5000
vt 0.0300 0.5000
vt 0.0300 0.5000
vt 0.0300 0.5000
vt 0.0300 0.5000
vt 0.0300 0.5000
vt 0.0300 0.5000
vt 0.0300 0.5000
vt 0.0300 0.5000
vt 0.0300 0.5000
vt 0.0300 0.5000
vt 0.0300 0.5000
vt 0.0300 0.5000
vt 0.0300 0.5000
vt 0.0300 0.5000
vt 0.0300 0.5000
vt 0.0300 0.5000
vt 0.0300 0.5000
vt 0.0300 0.5000
vt 0.0300 0.5000
vt 0.0300 0.5000
vt 0.0300 0.5000
vt 0.0300 0.5000
vt 0.0300 0.5000
vt 0.0300 0.5000
vt 0.0300 0.5000
vt 0.0300 0.5000
vt 0.0300 0.5000
vt 0.0300 0.5000
vt 0.0300 0.5000
vt 0.0300 0.5000
vt 0.0300 0.5000
vt 0.0300 0.5000
vt 0.0300 0.5000
vt 0.0300 0.5000
vt 0.0300 0.5000
vt 0.0300 0.5000
vt 0.0300 0.5000
vt 0.0300 0.5000
vt 0.0300 0.5000
vt 0.0300 0.5000
vt 0.0300 0.5000
vt 0.0300 0.5000
vt 0.0300 0.5000
vt 0.0300 0.5000
vt 0.0300 0.5000
vt 0.0300 0.5000
vt 0.0300 0.5000
vt 0.0300 0.5000
vt 0.0300 0.5000
vt 0.0300 0.5000
vt 0.0300 0.5000
vt 0.0300 0.5000
vt 0.0300 0.5000
vt 0.0300 0.5000
vt 0.0300 0.5000
vt 0.0300 0.5000
vt 0.0300 0.5000
vt 0.0300 0.5000
vt 0.0300 0.5000
vt 0.0300 0.5000
vt 0.0300 0.5000
vt 0.0300 0.5000
vt 0.0300 0.5000
vt 0.0300 0.5000
vt 0.0300 0.5000
vt 0.0300 0.5000
vt 0.0300 0.5000
vt 0.0300 0.5000
vt 0.0300 0.5000
vt 0.0300 0.5000
vt 0.0300 0.5000
vt 0.0300 0.5000
vt 0.0300 0.5000
vt 0.0300 0.5000
vt 0.0300 0.5000
vt 0.0300 0.5000
vt 0.0300 0.5000
vt 0.0300 0.5000
vt 0.0300 0.5000
vt 0.0300 0.5000
vt 0.0300 0.5000
vt 0.0300 0.5000
vt 0.0300 0.5000
vt 0.0300 0.5000
vt 0.0300 0.5000
vt 0.0300 0.5000
vt 0.0300 0.5000
vt 0.0300 0.5000
vt 0.0300 0.5000
vt 0.0300 0.5000
vt 0.0300 0.5000
vt 0.0300 0.5000
vt 0.0300 0.5000
vt 0.0300 0.5000
vt 0.0300 0.5000
vt 0.0300 0.5000
vt 0.0300 0.5000
vt 0.0300 0.5000
vt 0.0300 0.5000
vt 0.0300 0.5000
vt 0.0300 0.5000
vt 0.0300 0.5000
vt 0.0300 0.5000
vt 0.0300 0.5000
vt 0.0300 0.5000
vt 0.0300 0.5000
vt 0.0300 0.5000
vt 0.0300 0.5000
vt 0.0300 0.5000
vt 0.0300 0.5000
vt 0.0300 0.5000
vt 0.0300 0.5000
vt 0.0300 0.5000
vt 0.0300 0.5000
vt 0.0300 0.5000
vt 0.0300 0.5000
vt 0.0300 0.5000
vt 0.0300 0.5000
vt 0.0300 0.5000
vt 0.0300 0.5000
vt 0.0300 0.5000
vt 0.0300 0.5000
vt 0.0300 0.5000
vt 0.0300 0.5000
vt 0.0300 0.5000
vt 0.0300 0.5000
vt 0.0300 0.5000
vt 0.0300 0.5000
vt 0.0300 0.5000
vt 0.0300 0.5000
vt 0.0300 0.5000
vt 0.0300 0.5000
vt 0.0300 0.5000
vt 0.0300 0.5000
vt 0.0300 0.5000
vt 0.0300 0.5000
vt 0.0300 0.5000
vt 0.0300 0.5000
vt 0.0300 0.5000
vt 0.0300 0.5000
vt 0.0300 0.5000
vt 0.0300 0.5000
vt 0.0300 0.5000
vt 0.0300 0.5000
vt 0.0300 0.5000
vt 0.0300 0.5000
vt 0.0300 0.5000
vt 0.0300 0.5000
vt 0.0300 0.5000
vt 0.0300 0.5000
vt 0.0300 0.5000
vt 0.0300 0.5000
vt 0.0300 0.5000
vt 0.0300 0.5000
vt 0.0300 0.5000
vt 0.0300 0.5000
vt 0.0300 0.5000
vt 0.0300 0.5000
vt 0.0300 0.5000
vt 0.0300 0.5000
vt 0.0300 0.5000
vt 0.0300 0.5000
vt 0.0300 0.5000
vt 0.0300 0.5000
vt 0.0300 0.5000
vt 0.0300 0.5000
vt 0.0300 0.5000
vt 0.0300 0.5000
vt 0.0300 0.5000
vt 0.0300 0.5000
vt 0.0300 0.5000
vt 0.0300 0.5000
vt 0.0300 0.5000
vt 0.0300 0.5000
vt 0.0300 0.5000
vt 0.0300 0.5000
vt 0.0300 0.5000
vt 0.0300 0.5000
vt 0.0300 0.5000
vt 0.0300 0.5000
vt 0.0300 0.5000
vt 0.0300 0.5000
vt 0.0300 0.5000
vt 0.0300 0.5000
vt 0.0300 0.5000
vt 0.0300 0.5000
vt 0.0300 0.5000
vt 0.0300 0.5000
vt 0.0300 0.5000
vt 0.0300 0.5000
vt 0.0300 0.5000
vt 0.0300 0.5000
vt 0.0300 0.5000
vt 0.0300 0.5000
vt 0.0300 0.5000
vt 0.0300 0.5000
vt 0.0300 0.5000
vt 0.0300 0.5000
vt 0.0300 0.5000
vt 0.0300 0.5000
vt 0.0300 0.5000
vt 0.0300 0.5000
vt 0.0300 0.5000
vt 0.0300 0.5000
vt 0.0300 0.5000
vt 0.0300 0.5000
vt 0.0300 0.5000
vt 0.0300 0.5000
vt 0.0300 0.5000
vt 0.0300 0.5000
vt 0.0300 0.5000
vt 0.0300 0.5000
vt 0.0300 0.5000
vt 0.0300 0.5000
vt 0.0300 0.5000
vt 0.0300 0.5000
vt 0.0300 0.5000
vt 0.0300 0.5000
vt 0.0300 0.5000
vt 0.0300 0.5000
vt 0.0300 0.5000
vt 0.0300 0.5000
vt 0.0300 0.5000
vt 0.0300 0.5000
vt 0.0300 0.5000
vt 0.0300 0.5000
vt 0.0300 0.5000
vt 0.0300 0.5000
vt 0.0300 0.5000
vt 0.0300 0.5000
vt 0.0300 0.5000
vt 0.0300 0.5000
vt 0.0300 0.5000
vt 0.0300 0.5000
vt 0.0300 0.5000
vt 0.0300 0.5000
vt 0.0300 0.5000
vt 0.0300 0.5000
vt 0.0300 0.5000
vt 0.0300 0.5000
vt 0.0300 0.5000
vt 0.0300 0.5000
vt 0.0300 0.5000
vt 0.0300 0.5000
vt 0.0300 0.5000
vt 0.0300 0.5000
vt 0.0300 0.5000
vt 0.0300 0.5000
vt 0.0300 0.5000
vt 0.0300 0.5000
vt 0.0300 0.5000
vt 0.0300 0.5000
vt 0.0300 0.5000
vt 0.0300 0.5000
vt 0.0300 0.5000
vt 0.0300 0.5000
vt 0.0300 0.5000
vt 0.0300 0.5000
vt 0.0300 0.5000
vt 0.0300 0.5000
vt 0.0300 0.5000
vt 0.0300 0.5000
vt 0.0300 0.5000
vt 0.0300 0.5000
vt 0.0300 0.5000
vt 0.0300 0.5000
vt 0.0300 0.5000
vt 0.0300 0.5000
vt 0.0300 0.5000
vt 0.0300 0.5000
vt 0.0300 0.5000
vt 0.0300 0.5000
vt 0.0300 0.5000
vt 0.0300 0.5000
vt 0.0300 0.5000
vt 0.0300 0.5000
vt 0.0300 0.5000
vt 0.0300 0.5000
vt 0.0300 0.5000
vt 0.0300 0.5000
vt 0.0300 0.5000
vt 0.0300 0.5000
vt 0.0300 0.5000
vt 0.0300 0.5000
vt 0.0300 0.5000
vt 0.0300 0.5000
vt 0.0300 0.5000
vt 0.0300 0.5000
vt 0.0300 0.5000
vt 0.0300 0.5000
vt 0.0300 0.5000
vt 0.0300 0.5000
vt 0.0300 0.5000
vt 0.0300 0.5000
vt 0.0300 0.5000
vt 0.0300 0.5000
vt 0.0300 0.5000
vt 0.0300 0.5000
vt 0.0300 0.5000
vt 0.0300 0.5000
vn -0.2172 0.7256 0.6529
vn 0.2503 0.7704 0.5863
vn 0.0511 0.9949 0.0873
vn -0.4841 0.8305 0.2756
vn 0.2503 0.7704 0.5863
vn 0.6367 0.7057 0.3109
vn 0.5687 0.8089 -0.1494
vn 0.0511 0.9949 0.0873
vn 0.0511 0.9949 0.0873
vn 0.5687 0.8089 -0.1494
vn 0.2976 0.7773 -0.5542
vn -0.1700 0.8686 -0.4654
vn -0.4841 0.8305 0.2756
vn 0.0511 0.9949 0.0873
vn -0.1700 0.8686 -0.4654
vn -0.5675 0.7979 -0.2030
vn -0.6946 0.4146 -0.5879
vn -0.3067 0.6387 -0.7057
vn -0.0498 -0.0698 -0.9963
vn -0.6287 -0.2866 -0.7229
vn -0.3067 0.6387 -0.7057
vn 0.1413 0.7443 -0.6528
vn 0.5519 0.1790 -0.8145
vn -0.0498 -0.0698 -0.9963
vn -0.0498 -0.0698 -0.9963
vn 0.5519 0.1790 -0.8145
vn 0.6357 -0.4971 -0.5906
vn 0.2395 -0.7327 -0.6370
vn -0.6287 -0.2866 -0.7229
vn -0.0498 -0.0698 -0.9963
vn 0.2395 -0.7327 -0.6370
vn -0.2002 -0.8268 -0.5257
vn -0.3886 0.1459 0.9098
vn 0.3799 0.1156 0.9178
vn 0.3659 0.3060 0.8789
vn -0.3523 0.3466 0.8693
vn 0.3799 0.1156 0.9178
vn 0.9246 0.0567 0.3767
vn 0.8790 0.2992 0.3713
vn 0.3659 0.3060 0.8789
vn 0.3659 0.3060 0.8789
vn 0.8790 0.2992 0.3713
vn 0.6367 0.7057 0.3109
vn 0.2503 0.7704 0.5863
vn -0.3523 0.3466 0.8693
vn 0.3659 0.3060 0.8789
vn 0.2503 0.7704 0.5863
vn -0.2172 0.7256 0.6529
vn 0.9246 0.0567 0.3767
vn 0.9229 0.0022 -0.3850
vn 0.8873 0.3048 -0.3460
vn 0.8790 0.2992 0.3713
vn 0.9229 0.0022 -0.3850
vn 0.3847 -0.0104 -0.9230
vn 0.3814 0.3432 -0.8583
vn 0.8873 0.3048 -0.3460
vn 0.8873 0.3048 -0.3460
vn 0.3814 0.3432 -0.8583
vn 0.2976 0.7773 -0.5542
vn 0.5687 0.8089 -0.1494
vn 0.8790 0.2992 0.3713
vn 0.8873 0.3048 -0.3460
vn 0.5687 0.8089 -0.1494
vn 0.6367 0.7057 0.3109
vn 0.3847 -0.0104 -0.9230
vn -0.3703 0.0170 -0.9287
vn -0.3352 0.3705 -0.8662
vn 0.3814 0.3432 -0.8583
vn -0.3703 0.0170 -0.9287
vn -0.9123 0.0733 -0.4030
vn -0.8458 0.3903 -0.3637
vn -0.3352 0.3705 -0.8662
vn -0.3352 0.3705 -0.8662
vn -0.8458 0.3903 -0.3637
vn -0.5675 0.7979 -0.2030
vn -0.1700 0.8686 -0.4654
vn 0.3814 0.3432 -0.8583
vn -0.3352 0.3705 -0.8662
vn -0.1700 0.8686 -0.4654
vn 0.2976 0.7773 -0.5542
vn -0.9123 0.0733 -0.4030
vn -0.9240 0.1243 0.3616
vn -0.8563 0.3712 0.3591
vn -0.8458 0.3903 -0.3637
vn -0.9240 0.1243 0.3616
vn -0.3886 0.1459 0.9098
vn -0.3523 0.3466 0.8693
vn -0.8563 0.3712 0.3591
vn -0.8563 0.3712 0.3591
vn -0.3523 0.3466 0.8693
vn -0.2172 0.7256 0.6529
vn -0.4841 0.8305 0.2756
vn -0.8458 0.3903 -0.3637
vn -0.8563 0.3712 0.3591
vn -0.4841 0.8305 0.2756
vn -0.5675 0.7979 -0.2030
vn -0.3854 0.1503 0.9104
vn 0.3790 0.1294 0.9163
vn 0.3794 0.1200 0.9174
vn -0.3873 0.1430 0.9108
vn 0.3790 0.1294 0.9163
vn 0.9218 0.0200 0.3872
vn 0.9234 0.0224 0.3831
vn 0.3794 0.1200 0.9174
vn 0.3794 0.1200 0.9174
vn 0.9234 0.0224 0.3831
vn 0.9246 0.0567 0.3767
vn 0.3799 0.1156 0.9178
vn -0.3873 0.1430 0.9108
vn 0.3794 0.1200 0.9174
vn 0.3799 0.1156 0.9178
vn -0.3886 0.1459 0.9098
vn 0.9218 0.0200 0.3872
vn 0.9232 -0.1100 -0.3683
vn 0.9224 -0.0878 -0.3761
vn 0.9234 0.0224 0.3831
vn 0.9232 -0.1100 -0.3683
vn 0.3832 -0.1853 -0.9049
vn 0.3820 -0.1456 -0.9126
vn 0.9224 -0.0878 -0.3761
vn 0.9224 -0.0878 -0.3761
vn 0.3820 -0.1456 -0.9126
vn 0.3847 -0.0104 -0.9230
vn 0.9229 0.0022 -0.3850
vn 0.9234 0.0224 0.3831
vn 0.9224 -0.0878 -0.3761
vn 0.9229 0.0022 -0.3850
vn 0.9246 0.0567 0.3767
vn 0.3832 -0.1853 -0.9049
vn -0.3794 -0.1629 -0.9108
vn -0.3767 -0.1216 -0.9183
vn 0.3820 -0.1456 -0.9126
vn -0.3794 -0.1629 -0.9108
vn -0.9220 -0.0578 -0.3829
vn -0.9195 -0.0307 -0.3919
vn -0.3767 -0.1216 -0.9183
vn -0.3767 -0.1216 -0.9183
vn -0.9195 -0.0307 -0.3919
vn -0.9123 0.0733 -0.4030
vn -0.3703 0.0170 -0.9287
vn 0.3820 -0.1456 -0.9126
vn -0.3767 -0.1216 -0.9183
vn -0.3703 0.0170 -0.9287
vn 0.3847 -0.0104 -0.9230
vn -0.9220 -0.0578 -0.3829
vn -0.9252 0.0727 0.3725
vn -0.9264 0.0791 0.3682
vn -0.9195 -0.0307 -0.3919
vn -0.9252 0.0727 0.3725
vn -0.3854 0.1503 0.9104
vn -0.3873 0.1430 0.9108
vn -0.9264 0.0791 0.3682
vn -0.9264 0.0791 0.3682
vn -0.3873 0.1430 0.9108
vn -0.3886 0.1459 0.9098
vn -0.9240 0.1243 0.3616
vn -0.9195 -0.0307 -0.3919
vn -0.9264 0.0791 0.3682
vn -0.9240 0.1243 0.3616
vn -0.9123 0.0733 -0.4030
vn -0.3856 0.1499 0.9104
vn 0.3793 0.1291 0.9162
vn 0.3792 0.1296 0.9162
vn -0.3854 0.1503 0.9104
vn 0.3793 0.1291 0.9162
vn 0.9216 0.0192 0.3877
vn 0.9215 0.0194 0.3878
vn 0.3792 0.1296 0.9162
vn 0.3792 0.1296 0.9162
vn 0.9215 0.0194 0.3878
vn 0.9218 0.0200 0.3872
vn 0.3790 0.1294 0.9163
vn -0.3854 0.1503 0.9104
vn 0.3792 0.1296 0.9162
vn 0.3790 0.1294 0.9163
vn -0.3854 0.1503 0.9104
vn 0.9216 0.0192 0.3877
vn 0.9237 -0.1133 -0.3660
vn 0.9236 -0.1131 -0.3663
vn 0.9215 0.0194 0.3878
vn 0.9237 -0.1133 -0.3660
vn 0.3843 -0.1927 -0.9029
vn 0.3841 -0.1919 -0.9031
vn 0.9236 -0.1131 -0.3663
vn 0.9236 -0.1131 -0.3663
vn 0.3841 -0.1919 -0.9031
vn 0.3832 -0.1853 -0.9049
vn 0.9232 -0.1100 -0.3683
vn 0.9215 0.0194 0.3878
vn 0.9236 -0.1131 -0.3663
vn 0.9232 -0.1100 -0.3683
vn 0.9218 0.0200 0.3872
vn 0.3843 -0.1927 -0.9029
vn -0.3805 -0.1706 -0.9089
vn -0.3803 -0.1698 -0.9092
vn 0.3841 -0.1919 -0.9031
vn -0.3805 -0.1706 -0.9089
vn -0.9228 -0.0621 -0.3802
vn -0.9227 -0.0618 -0.3806
vn -0.3803 -0.1698 -0.9092
vn -0.3803 -0.1698 -0.9092
vn -0.9227 -0.0618 -0.3806
vn -0.9220 -0.0578 -0.3829
vn -0.3794 -0.1629 -0.9108
vn 0.3841 -0.1919 -0.9031
vn -0.3803 -0.1698 -0.9092
vn -0.3794 -0.1629 -0.9108
vn 0.3832 -0.1853 -0.9049
vn -0.9228 -0.0621 -0.3802
vn -0.9250 0.0715 0.3733
vn -0.9249 0.0717 0.3733
vn -0.9227 -0.0618 -0.3806
vn -0.9250 0.0715 0.3733
vn -0.3856 0.1499 0.9104
vn -0.3854 0.1503 0.9104
vn -0.9249 0.0717 0.3733
vn -0.9249 0.0717 0.3733
vn -0.3854 0.1503 0.9104
vn -0.3854 0.1503 0.9104
vn -0.9252 0.0727 0.3725
vn -0.9227 -0.0618 -0.3806
vn -0.9249 0.0717 0.3733
vn -0.9252 0.0727 0.3725
vn -0.9220 -0.0578 -0.3829
vn -0.3857 0.1490 0.9105
vn 0.3791 0.1286 0.9164
vn 0.3793 0.1290 0.9162
vn -0.3856 0.1498 0.9104
vn 0.3791 0.1286 0.9164
vn 0.9215 0.0194 0.3878
vn 0.9216 0.0191 0.3877
vn 0.3793 0.1290 0.9162
vn 0.3793 0.1290 0.9162
vn 0.9216 0.0191 0.3877
vn 0.9216 0.0192 0.3877
vn 0.3793 0.1291 0.9162
vn -0.3856 0.1498 0.9104
vn 0.3793 0.1290 0.9162
vn 0.3793 0.1291 0.9162
vn -0.3856 0.1499 0.9104
vn 0.9215 0.0194 0.3878
vn 0.9238 -0.1125 -0.3660
vn 0.9237 -0.1133 -0.3659
vn 0.9216 0.0191 0.3877
vn 0.9238 -0.1125 -0.3660
vn 0.3844 -0.1920 -0.9030
vn 0.3844 -0.1929 -0.9028
vn 0.9237 -0.1133 -0.3659
vn 0.9237 -0.1133 -0.3659
vn 0.3844 -0.1929 -0.9028
vn 0.3843 -0.1927 -0.9029
vn 0.9237 -0.1133 -0.3660
vn 0.9216 0.0191 0.3877
vn 0.9237 -0.1133 -0.3659
vn 0.9237 -0.1133 -0.3660
vn 0.9216 0.0192 0.3877
vn 0.3844 -0.1920 -0.9030
vn -0.3806 -0.1703 -0.9089
vn -0.3805 -0.1708 -0.9089
vn 0.3844 -0.1929 -0.9028
vn -0.3806 -0.1703 -0.9089
vn -0.9229 -0.0623 -0.3799
vn -0.9228 -0.0621 -0.3802
vn -0.3805 -0.1708 -0.9089
vn -0.3805 -0.1708 -0.9089
vn -0.9228 -0.0621 -0.3802
vn -0.9228 -0.0621 -0.3802
vn -0.3805 -0.1706 -0.9089
vn 0.3844 -0.1929 -0.9028
vn -0.3805 -0.1708 -0.9089
vn -0.3805 -0.1706 -0.9089
vn 0.3843 -0.1927 -0.9029
vn -0.9229 -0.0623 -0.3799
vn -0.9249 0.0708 0.3735
vn -0.9250 0.0715 0.3733
vn -0.9228 -0.0621 -0.3802
vn -0.9249 0.0708 0.3735
vn -0.3857 0.1490 0.9105
vn -0.3856 0.1498 0.9104
vn -0.9250 0.0715 0.3733
vn -0.9250 0.0715 0.3733
vn -0.3856 0.1498 0.9104
vn -0.3856 0.1499 0.9104
vn -0.9250 0.0715 0.3733
vn -0.9228 -0.0621 -0.3802
vn -0.9250 0.0715 0.3733
vn -0.9250 0.0715 0.3733
vn -0.9228 -0.0621 -0.3802
vn -0.3864 0.1285 0.9133
vn 0.3776 0.1186 0.9184
vn 0.3783 0.1256 0.9171
vn -0.3861 0.1427 0.9114
vn 0.3776 0.1186 0.9184
vn 0.9211 0.0267 0.3884
vn 0.9212 0.0217 0.3885
vn 0.3783 0.1256 0.9171
vn 0.3783 0.1256 0.9171
vn 0.9212 0.0217 0.3885
vn 0.9215 0.0194 0.3878
vn 0.3791 0.1286 0.9164
vn -0.3861 0.1427 0.9114
vn 0.3783 0.1256 0.9171
vn 0.3791 0.1286 0.9164
vn -0.3857 0.1490 0.9105
vn 0.9211 0.0267 0.3884
vn 0.9249 -0.0919 -0.3689
vn 0.9242 -0.1063 -0.3667
vn 0.9212 0.0217 0.3885
vn 0.9249 -0.0919 -0.3689
vn 0.3846 -0.1692 -0.9075
vn 0.3843 -0.1851 -0.9045
vn 0.9242 -0.1063 -0.3667
vn 0.9242 -0.1063 -0.3667
vn 0.3843 -0.1851 -0.9045
vn 0.3844 -0.1920 -0.9030
vn 0.9238 -0.1125 -0.3660
vn 0.9212 0.0217 0.3885
vn 0.9242 -0.1063 -0.3667
vn 0.9238 -0.1125 -0.3660
vn 0.9215 0.0194 0.3878
vn 0.3846 -0.1692 -0.9075
vn -0.3817 -0.1578 -0.9107
vn -0.3813 -0.1665 -0.9094
vn 0.3843 -0.1851 -0.9045
vn -0.3817 -0.1578 -0.9107
vn -0.9236 -0.0666 -0.3774
vn -0.9233 -0.0635 -0.3787
vn -0.3813 -0.1665 -0.9094
vn -0.3813 -0.1665 -0.9094
vn -0.9233 -0.0635 -0.3787
vn -0.9229 -0.0623 -0.3799
vn -0.3806 -0.1703 -0.9089
vn 0.3843 -0.1851 -0.9045
vn -0.3813 -0.1665 -0.9094
vn -0.3806 -0.1703 -0.9089
vn 0.3844 -0.1920 -0.9030
vn -0.9236 -0.0666 -0.3774
vn -0.9247 0.0527 0.3771
vn -0.9248 0.0653 0.3748
vn -0.9233 -0.0635 -0.3787
vn -0.9247 0.0527 0.3771
vn -0.3864 0.1285 0.9133
vn -0.3861 0.1427 0.9114
vn -0.9248 0.0653 0.3748
vn -0.9248 0.0653 0.3748
vn -0.3861 0.1427 0.9114
vn -0.3857 0.1490 0.9105
vn -0.9249 0.0708 0.3735
vn -0.9233 -0.0635 -0.3787
vn -0.9248 0.0653 0.3748
vn -0.9249 0.0708 0.3735
vn -0.9229 -0.0623 -0.3799
vn -0.3858 0.1080 0.9163
vn 0.3793 0.1083 0.9189
vn 0.3783 0.1115 0.9189
vn -0.3861 0.1143 0.9153
vn 0.3793 0.1083 0.9189
vn 0.9223 0.0333 0.3850
vn 0.9217 0.0313 0.3866
vn 0.3783 0.1115 0.9189
vn 0.3783 0.1115 0.9189
vn 0.9217 0.0313 0.3866
vn 0.9211 0.0267 0.3884
vn 0.3776 0.1186 0.9184
vn -0.3861 0.1143 0.9153
vn 0.3783 0.1115 0.9189
vn 0.3776 0.1186 0.9184
vn -0.3864 0.1285 0.9133
vn 0.9223 0.0333 0.3850
vn 0.9250 -0.0714 -0.3732
vn 0.9251 -0.0776 -0.3717
vn 0.9217 0.0313 0.3866
vn 0.9250 -0.0714 -0.3732
vn 0.3856 -0.1462 -0.9110
vn 0.3852 -0.1533 -0.9100
vn 0.9251 -0.0776 -0.3717
vn 0.9251 -0.0776 -0.3717
vn 0.3852 -0.1533 -0.9100
vn 0.3846 -0.1692 -0.9075
vn 0.9249 -0.0919 -0.3689
vn 0.9217 0.0313 0.3866
vn 0.9251 -0.0776 -0.3717
vn 0.9249 -0.0919 -0.3689
vn 0.9211 0.0267 0.3884
vn 0.3856 -0.1462 -0.9110
vn -0.3798 -0.1456 -0.9136
vn -0.3808 -0.1493 -0.9125
vn 0.3852 -0.1533 -0.9100
vn -0.3798 -0.1456 -0.9136
vn -0.9226 -0.0716 -0.3791
vn -0.9231 -0.0700 -0.3781
vn -0.3808 -0.1493 -0.9125
vn -0.3808 -0.1493 -0.9125
vn -0.9231 -0.0700 -0.3781
vn -0.9236 -0.0666 -0.3774
vn -0.3817 -0.1578 -0.9107
vn 0.3852 -0.1533 -0.9100
vn -0.3808 -0.1493 -0.9125
vn -0.3817 -0.1578 -0.9107
vn 0.3846 -0.1692 -0.9075
vn -0.9226 -0.0716 -0.3791
vn -0.9249 0.0342 0.3786
vn -0.9248 0.0399 0.3784
vn -0.9231 -0.0700 -0.3781
vn -0.9249 0.0342 0.3786
vn -0.3858 0.1080 0.9163
vn -0.3861 0.1143 0.9153
vn -0.9248 0.0399 0.3784
vn -0.9248 0.0399 0.3784
vn -0.3861 0.1143 0.9153
vn -0.3864 0.1285 0.9133
vn -0.9247 0.0527 0.3771
vn -0.9231 -0.0700 -0.3781
vn -0.9248 0.0399 0.3784
vn -0.9247 0.0527 0.3771
vn -0.9236 -0.0666 -0.3774
vn -0.3854 0.1060 0.9166
vn 0.3793 0.1068 0.9191
vn 0.3795 0.1078 0.9189
vn -0.3857 0.1070 0.9164
vn 0.3793 0.1068 0.9191
vn 0.9223 0.0333 0.3850
vn 0.9224 0.0336 0.3847
vn 0.3795 0.1078 0.9189
vn 0.3795 0.1078 0.9189
vn 0.9224 0.0336 0.3847
vn 0.9223 0.0333 0.3850
vn 0.3793 0.1083 0.9189
vn -0.3857 0.1070 0.9164
vn 0.3795 0.1078 0.9189
vn 0.3793 0.1083 0.9189
vn -0.3858 0.1080 0.9163
vn 0.9223 0.0333 0.3850
vn 0.9248 -0.0709 -0.3737
vn 0.9250 -0.0705 -0.3734
vn 0.9224 0.0336 0.3847
vn 0.9248 -0.0709 -0.3737
vn 0.3854 -0.1463 -0.9111
vn 0.3857 -0.1452 -0.9111
vn 0.9250 -0.0705 -0.3734
vn 0.9250 -0.0705 -0.3734
vn 0.3857 -0.1452 -0.9111
vn 0.3856 -0.1462 -0.9110
vn 0.9250 -0.0714 -0.3732
vn 0.9224 0.0336 0.3847
vn 0.9250 -0.0705 -0.3734
vn 0.9250 -0.0714 -0.3732
vn 0.9223 0.0333 0.3850
vn 0.3854 -0.1463 -0.9111
vn -0.3793 -0.1461 -0.9137
vn -0.3796 -0.1450 -0.9137
vn 0.3857 -0.1452 -0.9111
vn -0.3793 -0.1461 -0.9137
vn -0.9223 -0.0723 -0.3797
vn -0.9224 -0.0718 -0.3794
vn -0.3796 -0.1450 -0.9137
vn -0.3796 -0.1450 -0.9137
vn -0.9224 -0.0718 -0.3794
vn -0.9226 -0.0716 -0.3791
vn -0.3798 -0.1456 -0.9136
vn 0.3857 -0.1452 -0.9111
vn -0.3796 -0.1450 -0.9137
vn -0.3798 -0.1456 -0.9136
vn 0.3856 -0.1462 -0.9110
vn -0.9223 -0.0723 -0.3797
vn -0.9249 0.0330 0.3788
vn -0.9250 0.0333 0.3786
vn -0.9224 -0.0718 -0.3794
vn -0.9249 0.0330 0.3788
vn -0.3854 0.1060 0.9166
vn -0.3857 0.1070 0.9164
vn -0.9250 0.0333 0.3786
vn -0.9250 0.0333 0.3786
vn -0.3857 0.1070 0.9164
vn -0.3858 0.1080 0.9163
vn -0.9249 0.0342 0.3786
vn -0.9224 -0.0718 -0.3794
vn -0.9250 0.0333 0.3786
vn -0.9249 0.0342 0.3786
vn -0.9226 -0.0716 -0.3791
vn -0.3770 0.0698 0.9236
vn 0.3709 0.0703 0.9260
vn 0.3773 0.1004 0.9206
vn -0.3835 0.0995 0.9182
vn 0.3709 0.0703 0.9260
vn 0.9181 0.0200 0.3959
vn 0.9216 0.0312 0.3869
vn 0.3773 0.1004 0.9206
vn 0.3773 0.1004 0.9206
vn 0.9216 0.0312 0.3869
vn 0.9223 0.0333 0.3850
vn 0.3793 0.1068 0.9191
vn -0.3835 0.0995 0.9182
vn 0.3773 0.1004 0.9206
vn 0.3793 0.1068 0.9191
vn -0.3854 0.1060 0.9166
vn 0.9181 0.0200 0.3959
vn 0.9215 -0.0757 -0.3809
vn 0.9237 -0.0740 -0.3759
vn 0.9216 0.0312 0.3869
vn 0.9215 -0.0757 -0.3809
vn 0.3772 -0.1630 -0.9117
vn 0.3830 -0.1549 -0.9107
vn 0.9237 -0.0740 -0.3759
vn 0.9237 -0.0740 -0.3759
vn 0.3830 -0.1549 -0.9107
vn 0.3854 -0.1463 -0.9111
vn 0.9248 -0.0709 -0.3737
vn 0.9216 0.0312 0.3869
vn 0.9237 -0.0740 -0.3759
vn 0.9248 -0.0709 -0.3737
vn 0.9223 0.0333 0.3850
vn 0.3772 -0.1630 -0.9117
vn -0.3704 -0.1630 -0.9145
vn -0.3768 -0.1547 -0.9133
vn 0.3830 -0.1549 -0.9107
vn -0.3704 -0.1630 -0.9145
vn -0.9192 -0.0783 -0.3860
vn -0.9212 -0.0756 -0.3817
vn -0.3768 -0.1547 -0.9133
vn -0.3768 -0.1547 -0.9133
vn -0.9212 -0.0756 -0.3817
vn -0.9223 -0.0723 -0.3797
vn -0.3793 -0.1461 -0.9137
vn 0.3830 -0.1549 -0.9107
vn -0.3768 -0.1547 -0.9133
vn -0.3793 -0.1461 -0.9137
vn 0.3854 -0.1463 -0.9111
vn -0.9192 -0.0783 -0.3860
vn -0.9209 0.0210 0.3893
vn -0.9241 0.0311 0.3809
vn -0.9212 -0.0756 -0.3817
vn -0.9209 0.0210 0.3893
vn -0.3770 0.0698 0.9236
vn -0.3835 0.0995 0.9182
vn -0.9241 0.0311 0.3809
vn -0.9241 0.0311 0.3809
vn -0.3835 0.0995 0.9182
vn -0.3854 0.1060 0.9166
vn -0.9249 0.0330 0.3788
vn -0.9212 -0.0756 -0.3817
vn -0.9241 0.0311 0.3809
vn -0.9249 0.0330 0.3788
vn -0.9223 -0.0723 -0.3797
vn -0.3457 -0.3905 0.8532
vn 0.3557 -0.3996 0.8448
vn 0.3606 -0.0706 0.9301
vn -0.3630 -0.0676 0.9294
vn 0.3557 -0.3996 0.8448
vn 0.8879 -0.2151 0.4067
vn 0.9057 -0.0410 0.4218
vn 0.3606 -0.0706 0.9301
vn 0.3606 -0.0706 0.9301
vn 0.9057 -0.0410 0.4218
vn 0.9181 0.0200 0.3959
vn 0.3709 0.0703 0.9260
vn -0.3630 -0.0676 0.9294
vn 0.3606 -0.0706 0.9301
vn 0.3709 0.0703 0.9260
vn -0.3770 0.0698 0.9236
vn 0.8879 -0.2151 0.4067
vn 0.9434 0.0930 -0.3183
vn 0.9278 -0.0287 -0.3721
vn 0.9057 -0.0410 0.4218
vn 0.9434 0.0930 -0.3183
vn 0.3916 0.2814 -0.8761
vn 0.3791 -0.0673 -0.9229
vn 0.9278 -0.0287 -0.3721
vn 0.9278 -0.0287 -0.3721
vn 0.3791 -0.0673 -0.9229
vn 0.3772 -0.1630 -0.9117
vn 0.9215 -0.0757 -0.3809
vn 0.9057 -0.0410 0.4218
vn 0.9278 -0.0287 -0.3721
vn 0.9215 -0.0757 -0.3809
vn 0.9181 0.0200 0.3959
vn 0.3916 0.2814 -0.8761
vn -0.3920 0.2604 -0.8823
vn -0.3717 -0.0708 -0.9256
vn 0.3791 -0.0673 -0.9229
vn -0.3920 0.2604 -0.8823
vn -0.9368 0.0843 -0.3396
vn -0.9251 -0.0354 -0.3780
vn -0.3717 -0.0708 -0.9256
vn -0.3717 -0.0708 -0.9256
vn -0.9251 -0.0354 -0.3780
vn -0.9192 -0.0783 -0.3860
vn -0.3704 -0.1630 -0.9145
vn 0.3791 -0.0673 -0.9229
vn -0.3717 -0.0708 -0.9256
vn -0.3704 -0.1630 -0.9145
vn 0.3772 -0.1630 -0.9117
vn -0.9368 0.0843 -0.3396
vn -0.9010 -0.1867 0.3915
vn -0.9115 -0.0346 0.4099
vn -0.9251 -0.0354 -0.3780
vn -0.9010 -0.1867 0.3915
vn -0.3457 -0.3905 0.8532
vn -0.3630 -0.0676 0.9294
vn -0.9115 -0.0346 0.4099
vn -0.9115 -0.0346 0.4099
vn -0.3630 -0.0676 0.9294
vn -0.3770 0.0698 0.9236
vn -0.9209 0.0210 0.3893
vn -0.9251 -0.0354 -0.3780
vn -0.9115 -0.0346 0.4099
vn -0.9209 0.0210 0.3893
vn -0.9192 -0.0783 -0.3860
vn -0.3064 -0.8037 0.5101
vn 0.3649 -0.8012 0.4743
vn 0.3562 -0.6934 0.6263
vn -0.3278 -0.6850 0.6506
vn 0.3649 -0.8012 0.4743
vn 0.8818 -0.4184 0.2176
vn 0.8835 -0.3678 0.2899
vn 0.3562 -0.6934 0.6263
vn 0.3562 -0.6934 0.6263
vn 0.8835 -0.3678 0.2899
vn 0.8879 -0.2151 0.4067
vn 0.3557 -0.3996 0.8448
vn -0.3278 -0.6850 0.6506
vn 0.3562 -0.6934 0.6263
vn 0.3557 -0.3996 0.8448
vn -0.3457 -0.3905 0.8532
vn 0.8818 -0.4184 0.2176
vn 0.9240 0.2980 -0.2395
vn 0.9351 0.2295 -0.2702
vn 0.8835 -0.3678 0.2899
vn 0.9240 0.2980 -0.2395
vn 0.3117 0.7529 -0.5797
vn 0.3529 0.6357 -0.6865
vn 0.9351 0.2295 -0.2702
vn 0.9351 0.2295 -0.2702
vn 0.3529 0.6357 -0.6865
vn 0.3916 0.2814 -0.8761
vn 0.9434 0.0930 -0.3183
vn 0.8835 -0.3678 0.2899
vn 0.9351 0.2295 -0.2702
vn 0.9434 0.0930 -0.3183
vn 0.8879 -0.2151 0.4067
vn 0.3117 0.7529 -0.5797
vn -0.3701 0.7127 -0.5959
vn -0.3798 0.5993 -0.7046
vn 0.3529 0.6357 -0.6865
vn -0.3701 0.7127 -0.5959
vn -0.8909 0.3329 -0.3091
vn -0.9181 0.2355 -0.3188
vn -0.3798 0.5993 -0.7046
vn -0.3798 0.5993 -0.7046
vn -0.9181 0.2355 -0.3188
vn -0.9368 0.0843 -0.3396
vn -0.3920 0.2604 -0.8823
vn 0.3529 0.6357 -0.6865
vn -0.3798 0.5993 -0.7046
vn -0.3920 0.2604 -0.8823
vn 0.3916 0.2814 -0.8761
vn -0.8909 0.3329 -0.3091
vn -0.9162 -0.3430 0.2069
vn -0.9049 -0.3168 0.2844
vn -0.9181 0.2355 -0.3188
vn -0.9162 -0.3430 0.2069
vn -0.3064 -0.8037 0.5101
vn -0.3278 -0.6850 0.6506
vn -0.9049 -0.3168 0.2844
vn -0.9049 -0.3168 0.2844
vn -0.3278 -0.6850 0.6506
vn -0.3457 -0.3905 0.8532
vn -0.9010 -0.1867 0.3915
vn -0.9181 0.2355 -0.3188
vn -0.9049 -0.3168 0.2844
vn -0.9010 -0.1867 0.3915
vn -0.9368 0.0843 -0.3396
vn -0.2524 -0.9236 0.2885
vn 0.3693 -0.8941 0.2536
vn 0.3705 -0.8450 0.3855
vn -0.2779 -0.8614 0.4252
vn 0.3693 -0.8941 0.2536
vn 0.8471 -0.5198 0.1102
vn 0.8666 -0.4644 0.1826
vn 0.3705 -0.8450 0.3855
vn 0.3705 -0.8450 0.3855
vn 0.8666 -0.4644 0.1826
vn 0.8818 -0.4184 0.2176
vn 0.3649 -0.8012 0.4743
vn -0.2779 -0.8614 0.4252
vn 0.3705 -0.8450 0.3855
vn 0.3649 -0.8012 0.4743
vn -0.3064 -0.8037 0.5101
vn 0.8471 -0.5198 0.1102
vn 0.9343 0.3017 -0.1898
vn 0.9279 0.2990 -0.2226
vn 0.8666 -0.4644 0.1826
vn 0.9343 0.3017 -0.1898
vn 0.2676 0.8725 -0.4087
vn 0.2877 0.7950 -0.5340
vn 0.9279 0.2990 -0.2226
vn 0.9279 0.2990 -0.2226
vn 0.2877 0.7950 -0.5340
vn 0.3117 0.7529 -0.5797
vn 0.9240 0.2980 -0.2395
vn 0.8666 -0.4644 0.1826
vn 0.9279 0.2990 -0.2226
vn 0.9240 0.2980 -0.2395
vn 0.8818 -0.4184 0.2176
vn 0.2676 0.8725 -0.4087
vn -0.3807 0.8350 -0.3973
vn -0.3750 0.7538 -0.5396
vn 0.2877 0.7950 -0.5340
vn -0.3807 0.8350 -0.3973
vn -0.8712 0.4386 -0.2205
vn -0.8784 0.3793 -0.2907
vn -0.3750 0.7538 -0.5396
vn -0.3750 0.7538 -0.5396
vn -0.8784 0.3793 -0.2907
vn -0.8909 0.3329 -0.3091
vn -0.3701 0.7127 -0.5959
vn 0.2877 0.7950 -0.5340
vn -0.3750 0.7538 -0.5396
vn -0.3701 0.7127 -0.5959
vn 0.3117 0.7529 -0.5797
vn -0.8712 0.4386 -0.2205
vn -0.9132 -0.3921 0.1108
vn -0.9171 -0.3613 0.1686
vn -0.8784 0.3793 -0.2907
vn -0.9132 -0.3921 0.1108
vn -0.2524 -0.9236 0.2885
vn -0.2779 -0.8614 0.4252
vn -0.9171 -0.3613 0.1686
vn -0.9171 -0.3613 0.1686
vn -0.2779 -0.8614 0.4252
vn -0.3064 -0.8037 0.5101
vn -0.9162 -0.3430 0.2069
vn -0.8784 0.3793 -0.2907
vn -0.9171 -0.3613 0.1686
vn -0.9162 -0.3430 0.2069
vn -0.8909 0.3329 -0.3091
vn -0.2361 -0.9690 0.0728
vn 0.3671 -0.9287 0.0527
vn 0.3666 -0.9228 0.1183
vn -0.2397 -0.9601 0.1441
vn 0.3671 -0.9287 0.0527
vn 0.8354 -0.5492 -0.0200
vn 0.8367 -0.5471 0.0233
vn 0.3666 -0.9228 0.1183
vn 0.3666 -0.9228 0.1183
vn 0.8367 -0.5471 0.0233
vn 0.8471 -0.5198 0.1102
vn 0.3693 -0.8941 0.2536
vn -0.2397 -0.9601 0.1441
vn 0.3666 -0.9228 0.1183
vn 0.3693 -0.8941 0.2536
vn -0.2524 -0.9236 0.2885
vn 0.8354 -0.5492 -0.0200
vn 0.9250 0.3525 -0.1416
vn 0.9311 0.3287 -0.1583
vn 0.8367 -0.5471 0.0233
vn 0.9250 0.3525 -0.1416
vn 0.2353 0.9556 -0.1776
vn 0.2478 0.9354 -0.2522
vn 0.9311 0.3287 -0.1583
vn 0.9311 0.3287 -0.1583
vn 0.2478 0.9354 -0.2522
vn 0.2676 0.8725 -0.4087
vn 0.9343 0.3017 -0.1898
vn 0.8367 -0.5471 0.0233
vn 0.9311 0.3287 -0.1583
vn 0.9343 0.3017 -0.1898
vn 0.8471 -0.5198 0.1102
vn 0.2353 0.9556 -0.1776
vn -0.3724 0.9167 -0.1449
vn -0.3767 0.8985 -0.2253
vn 0.2478 0.9354 -0.2522
vn -0.3724 0.9167 -0.1449
vn -0.8437 0.5290 -0.0912
vn -0.8562 0.4987 -0.1349
vn -0.3767 0.8985 -0.2253
vn -0.3767 0.8985 -0.2253
vn -0.8562 0.4987 -0.1349
vn -0.8712 0.4386 -0.2205
vn -0.3807 0.8350 -0.3973
vn 0.2478 0.9354 -0.2522
vn -0.3767 0.8985 -0.2253
vn -0.3807 0.8350 -0.3973
vn 0.2676 0.8725 -0.4087
vn -0.8437 0.5290 -0.0912
vn -0.9254 -0.3789 0.0131
vn -0.9180 -0.3940 0.0444
vn -0.8562 0.4987 -0.1349
vn -0.9254 -0.3789 0.0131
vn -0.2361 -0.9690 0.0728
vn -0.2397 -0.9601 0.1441
vn -0.9180 -0.3940 0.0444
vn -0.9180 -0.3940 0.0444
vn -0.2397 -0.9601 0.1441
vn -0.2524 -0.9236 0.2885
vn -0.9132 -0.3921 0.1108
vn -0.8562 0.4987 -0.1349
vn -0.9180 -0.3940 0.0444
vn -0.9132 -0.3921 0.1108
vn -0.8712 0.4386 -0.2205
vn -0.2287 -0.9720 0.0548
vn 0.3690 -0.9287 0.0363
vn 0.3685 -0.9288 0.0385
vn -0.2331 -0.9708 0.0573
vn 0.3690 -0.9287 0.0363
vn 0.8323 -0.5536 -0.0282
vn 0.8346 -0.5501 -0.0279
vn 0.3685 -0.9288 0.0385
vn 0.3685 -0.9288 0.0385
vn 0.8346 -0.5501 -0.0279
vn 0.8354 -0.5492 -0.0200
vn 0.3671 -0.9287 0.0527
vn -0.2331 -0.9708 0.0573
vn 0.3685 -0.9288 0.0385
vn 0.3671 -0.9287 0.0527
vn -0.2361 -0.9690 0.0728
vn 0.8323 -0.5536 -0.0282
vn 0.9233 0.3578 -0.1398
vn 0.9234 0.3577 -0.1394
vn 0.8346 -0.5501 -0.0279
vn 0.9233 0.3578 -0.1398
vn 0.2246 0.9597 -0.1686
vn 0.2295 0.9587 -0.1679
vn 0.9234 0.3577 -0.1394
vn 0.9234 0.3577 -0.1394
vn 0.2295 0.9587 -0.1679
vn 0.2353 0.9556 -0.1776
vn 0.9250 0.3525 -0.1416
vn 0.8346 -0.5501 -0.0279
vn 0.9234 0.3577 -0.1394
vn 0.9250 0.3525 -0.1416
vn 0.8354 -0.5492 -0.0200
vn 0.2246 0.9597 -0.1686
vn -0.3726 0.9181 -0.1353
vn -0.3723 0.9183 -0.1345
vn 0.2295 0.9587 -0.1679
vn -0.3726 0.9181 -0.1353
vn -0.8365 0.5412 -0.0860
vn -0.8393 0.5370 -0.0852
vn -0.3723 0.9183 -0.1345
vn -0.3723 0.9183 -0.1345
vn -0.8393 0.5370 -0.0852
vn -0.8437 0.5290 -0.0912
vn -0.3724 0.9167 -0.1449
vn 0.2295 0.9587 -0.1679
vn -0.3723 0.9183 -0.1345
vn -0.3724 0.9167 -0.1449
vn 0.2353 0.9556 -0.1776
vn -0.8365 0.5412 -0.0860
vn -0.9280 -0.3725 0.0047
vn -0.9277 -0.3733 0.0061
vn -0.8393 0.5370 -0.0852
vn -0.9280 -0.3725 0.0047
vn -0.2287 -0.9720 0.0548
vn -0.2331 -0.9708 0.0573
vn -0.9277 -0.3733 0.0061
vn -0.9277 -0.3733 0.0061
vn -0.2331 -0.9708 0.0573
vn -0.2361 -0.9690 0.0728
vn -0.9254 -0.3789 0.0131
vn -0.8393 0.5370 -0.0852
vn -0.9277 -0.3733 0.0061
vn -0.9254 -0.3789 0.0131
vn -0.8437 0.5290 -0.0912
vn -0.2179 -0.9745 0.0531
vn 0.3690 -0.9288 0.0350
vn 0.3691 -0.9287 0.0360
vn -0.2234 -0.9732 0.0545
vn 0.3690 -0.9288 0.0350
vn 0.8261 -0.5628 -0.0282
vn 0.8294 -0.5580 -0.0276
vn 0.3691 -0.9287 0.0360
vn 0.3691 -0.9287 0.0360
vn 0.8294 -0.5580 -0.0276
vn 0.8323 -0.5536 -0.0282
vn 0.3690 -0.9287 0.0363
vn -0.2234 -0.9732 0.0545
vn 0.3691 -0.9287 0.0360
vn 0.3690 -0.9287 0.0363
vn -0.2287 -0.9720 0.0548
vn 0.8261 -0.5628 -0.0282
vn 0.9231 0.3575 -0.1415
vn 0.9232 0.3578 -0.1401
vn 0.8294 -0.5580 -0.0276
vn 0.9231 0.3575 -0.1415
vn 0.2138 0.9622 -0.1686
vn 0.2193 0.9610 -0.1686
vn 0.9232 0.3578 -0.1401
vn 0.9232 0.3578 -0.1401
vn 0.2193 0.9610 -0.1686
vn 0.2246 0.9597 -0.1686
vn 0.9233 0.3578 -0.1398
vn 0.8294 -0.5580 -0.0276
vn 0.9232 0.3578 -0.1401
vn 0.9233 0.3578 -0.1398
vn 0.8323 -0.5536 -0.0282
vn 0.2138 0.9622 -0.1686
vn -0.3726 0.9181 -0.1349
vn -0.3726 0.9180 -0.1355
vn 0.2193 0.9610 -0.1686
vn -0.3726 0.9181 -0.1349
vn -0.8303 0.5504 -0.0871
vn -0.8334 0.5458 -0.0866
vn -0.3726 0.9180 -0.1355
vn -0.3726 0.9180 -0.1355
vn -0.8334 0.5458 -0.0866
vn -0.8365 0.5412 -0.0860
vn -0.3726 0.9181 -0.1353
vn 0.2193 0.9610 -0.1686
vn -0.3726 0.9180 -0.1355
vn -0.3726 0.9181 -0.1353
vn 0.2246 0.9597 -0.1686
vn -0.8303 0.5504 -0.0871
vn -0.9280 -0.3726 0.0028
vn -0.9281 -0.3723 0.0043
vn -0.8334 0.5458 -0.0866
vn -0.9280 -0.3726 0.0028
vn -0.2179 -0.9745 0.0531
vn -0.2234 -0.9732 0.0545
vn -0.9281 -0.3723 0.0043
vn -0.9281 -0.3723 0.0043
vn -0.2234 -0.9732 0.0545
vn -0.2287 -0.9720 0.0548
vn -0.9280 -0.3725 0.0047
vn -0.8334 0.5458 -0.0866
vn -0.9281 -0.3723 0.0043
vn -0.9280 -0.3725 0.0047
vn -0.8365 0.5412 -0.0860
vn -0.2108 -0.9773 0.0208
vn 0.3674 -0.9300 0.0085
vn 0.3686 -0.9292 0.0267
vn -0.2132 -0.9760 0.0431
vn 0.3674 -0.9300 0.0085
vn 0.8186 -0.5714 -0.0593
vn 0.8225 -0.5676 -0.0376
vn 0.3686 -0.9292 0.0267
vn 0.3686 -0.9292 0.0267
vn 0.8225 -0.5676 -0.0376
vn 0.8261 -0.5628 -0.0282
vn 0.3690 -0.9288 0.0350
vn -0.2132 -0.9760 0.0431
vn 0.3686 -0.9292 0.0267
vn 0.3690 -0.9288 0.0350
vn -0.2179 -0.9745 0.0531
vn 0.8186 -0.5714 -0.0593
vn 0.9203 0.3529 -0.1689
vn 0.9226 0.3554 -0.1501
vn 0.8225 -0.5676 -0.0376
vn 0.9203 0.3529 -0.1689
vn 0.2066 0.9638 -0.1687
vn 0.2096 0.9631 -0.1686
vn 0.9226 0.3554 -0.1501
vn 0.9226 0.3554 -0.1501
vn 0.2096 0.9631 -0.1686
vn 0.2138 0.9622 -0.1686
vn 0.9231 0.3575 -0.1415
vn 0.8225 -0.5676 -0.0376
vn 0.9226 0.3554 -0.1501
vn 0.9231 0.3575 -0.1415
vn 0.8261 -0.5628 -0.0282
vn 0.2066 0.9638 -0.1687
vn -0.3724 0.9199 -0.1229
vn -0.3726 0.9187 -0.1312
vn 0.2096 0.9631 -0.1686
vn -0.3724 0.9199 -0.1229
vn -0.8262 0.5564 -0.0884
vn -0.8279 0.5539 -0.0878
vn -0.3726 0.9187 -0.1312
vn -0.3726 0.9187 -0.1312
vn -0.8279 0.5539 -0.0878
vn -0.8303 0.5504 -0.0871
vn -0.3726 0.9181 -0.1349
vn 0.2096 0.9631 -0.1686
vn -0.3726 0.9187 -0.1312
vn -0.3726 0.9181 -0.1349
vn 0.2138 0.9622 -0.1686
vn -0.8262 0.5564 -0.0884
vn -0.9265 -0.3755 -0.0253
vn -0.9273 -0.3742 -0.0060
vn -0.8279 0.5539 -0.0878
vn -0.9265 -0.3755 -0.0253
vn -0.2108 -0.9773 0.0208
vn -0.2132 -0.9760 0.0431
vn -0.9273 -0.3742 -0.0060
vn -0.9273 -0.3742 -0.0060
vn -0.2132 -0.9760 0.0431
vn -0.2179 -0.9745 0.0531
vn -0.9280 -0.3726 0.0028
vn -0.8279 0.5539 -0.0878
vn -0.9273 -0.3742 -0.0060
vn -0.9280 -0.3726 0.0028
vn -0.8303 0.5504 -0.0871
vn -0.2136 -0.9769 -0.0099
vn 0.3657 -0.9306 -0.0167
vn 0.3663 -0.9305 -0.0090
vn -0.2110 -0.9775 -0.0006
vn 0.3657 -0.9306 -0.0167
vn 0.8162 -0.5707 -0.0899
vn 0.8160 -0.5724 -0.0803
vn 0.3663 -0.9305 -0.0090
vn 0.3663 -0.9305 -0.0090
vn 0.8160 -0.5724 -0.0803
vn 0.8186 -0.5714 -0.0593
vn 0.3674 -0.9300 0.0085
vn -0.2110 -0.9775 -0.0006
vn 0.3663 -0.9305 -0.0090
vn 0.3674 -0.9300 0.0085
vn -0.2108 -0.9773 0.0208
vn 0.8162 -0.5707 -0.0899
vn 0.9148 0.3538 -0.1948
vn 0.9168 0.3528 -0.1871
vn 0.8160 -0.5724 -0.0803
vn 0.9148 0.3538 -0.1948
vn 0.2053 0.9641 -0.1686
vn 0.2046 0.9642 -0.1687
vn 0.9168 0.3528 -0.1871
vn 0.9168 0.3528 -0.1871
vn 0.2046 0.9642 -0.1687
vn 0.2066 0.9638 -0.1687
vn 0.9203 0.3529 -0.1689
vn 0.8160 -0.5724 -0.0803
vn 0.9168 0.3528 -0.1871
vn 0.9203 0.3529 -0.1689
vn 0.8186 -0.5714 -0.0593
vn 0.2053 0.9641 -0.1686
vn -0.3721 0.9215 -0.1116
vn -0.3722 0.9210 -0.1150
vn 0.2046 0.9642 -0.1687
vn -0.3721 0.9215 -0.1116
vn -0.8254 0.5575 -0.0886
vn -0.8250 0.5581 -0.0887
vn -0.3722 0.9210 -0.1150
vn -0.3722 0.9210 -0.1150
vn -0.8250 0.5581 -0.0887
vn -0.8262 0.5564 -0.0884
vn -0.3724 0.9199 -0.1229
vn 0.2046 0.9642 -0.1687
vn -0.3722 0.9210 -0.1150
vn -0.3724 0.9199 -0.1229
vn 0.2066 0.9638 -0.1687
vn -0.8254 0.5575 -0.0886
vn -0.9266 -0.3725 -0.0519
vn -0.9263 -0.3742 -0.0439
vn -0.8250 0.5581 -0.0887
vn -0.9266 -0.3725 -0.0519
vn -0.2136 -0.9769 -0.0099
vn -0.2110 -0.9775 -0.0006
vn -0.9263 -0.3742 -0.0439
vn -0.9263 -0.3742 -0.0439
vn -0.2110 -0.9775 -0.0006
vn -0.2108 -0.9773 0.0208
vn -0.9265 -0.3755 -0.0253
vn -0.8250 0.5581 -0.0887
vn -0.9263 -0.3742 -0.0439
vn -0.9265 -0.3755 -0.0253
vn -0.8262 0.5564 -0.0884
vn -0.2205 -0.9753 -0.0117
vn 0.3656 -0.9306 -0.0183
vn 0.3656 -0.9306 -0.0182
vn -0.2170 -0.9761 -0.0116
vn 0.3656 -0.9306 -0.0183
vn 0.8199 -0.5650 -0.0925
vn 0.8180 -0.5679 -0.0919
vn 0.3656 -0.9306 -0.0182
vn 0.3656 -0.9306 -0.0182
vn 0.8180 -0.5679 -0.0919
vn 0.8162 -0.5707 -0.0899
vn 0.3657 -0.9306 -0.0167
vn -0.2170 -0.9761 -0.0116
vn 0.3656 -0.9306 -0.0182
vn 0.3657 -0.9306 -0.0167
vn -0.2136 -0.9769 -0.0099
vn 0.8199 -0.5650 -0.0925
vn 0.9144 0.3544 -0.1958
vn 0.9144 0.3543 -0.1959
vn 0.8180 -0.5679 -0.0919
vn 0.9144 0.3544 -0.1958
vn 0.2115 0.9627 -0.1690
vn 0.2081 0.9634 -0.1688
vn 0.9144 0.3543 -0.1959
vn 0.9144 0.3543 -0.1959
vn 0.2081 0.9634 -0.1688
vn 0.2053 0.9641 -0.1686
vn 0.9148 0.3538 -0.1948
vn 0.8180 -0.5679 -0.0919
vn 0.9144 0.3543 -0.1959
vn 0.9148 0.3538 -0.1948
vn 0.8162 -0.5707 -0.0899
vn 0.2115 0.9627 -0.1690
vn -0.3721 0.9215 -0.1111
vn -0.3721 0.9215 -0.1111
vn 0.2081 0.9634 -0.1688
vn -0.3721 0.9215 -0.1111
vn -0.8290 0.5523 -0.0883
vn -0.8270 0.5552 -0.0884
vn -0.3721 0.9215 -0.1111
vn -0.3721 0.9215 -0.1111
vn -0.8270 0.5552 -0.0884
vn -0.8254 0.5575 -0.0886
vn -0.3721 0.9215 -0.1116
vn 0.2081 0.9634 -0.1688
vn -0.3721 0.9215 -0.1111
vn -0.3721 0.9215 -0.1116
vn 0.2053 0.9641 -0.1686
vn -0.8290 0.5523 -0.0883
vn -0.9268 -0.3718 -0.0529
vn -0.9268 -0.3719 -0.0530
vn -0.8270 0.5552 -0.0884
vn -0.9268 -0.3718 -0.0529
vn -0.2205 -0.9753 -0.0117
vn -0.2170 -0.9761 -0.0116
vn -0.9268 -0.3719 -0.0530
vn -0.9268 -0.3719 -0.0530
vn -0.2170 -0.9761 -0.0116
vn -0.2136 -0.9769 -0.0099
vn -0.9266 -0.3725 -0.0519
vn -0.8270 0.5552 -0.0884
vn -0.9268 -0.3719 -0.0530
vn -0.9266 -0.3725 -0.0519
vn -0.8254 0.5575 -0.0886
vn -0.2282 -0.9735 -0.0119
vn 0.3656 -0.9306 -0.0186
vn 0.3656 -0.9306 -0.0185
vn -0.2242 -0.9745 -0.0118
vn 0.3656 -0.9306 -0.0186
vn 0.8242 -0.5585 -0.0936
vn 0.8220 -0.5619 -0.0930
vn 0.3656 -0.9306 -0.0185
vn 0.3656 -0.9306 -0.0185
vn 0.8220 -0.5619 -0.0930
vn 0.8199 -0.5650 -0.0925
vn 0.3656 -0.9306 -0.0183
vn -0.2242 -0.9745 -0.0118
vn 0.3656 -0.9306 -0.0185
vn 0.3656 -0.9306 -0.0183
vn -0.2205 -0.9753 -0.0117
vn 0.8242 -0.5585 -0.0936
vn 0.9144 0.3544 -0.1954
vn 0.9144 0.3544 -0.1956
vn 0.8220 -0.5619 -0.0930
vn 0.9144 0.3544 -0.1954
vn 0.2191 0.9608 -0.1697
vn 0.2151 0.9618 -0.1693
vn 0.9144 0.3544 -0.1956
vn 0.9144 0.3544 -0.1956
vn 0.2151 0.9618 -0.1693
vn 0.2115 0.9627 -0.1690
vn 0.9144 0.3544 -0.1958
vn 0.8220 -0.5619 -0.0930
vn 0.9144 0.3544 -0.1956
vn 0.9144 0.3544 -0.1958
vn 0.8199 -0.5650 -0.0925
vn 0.2191 0.9608 -0.1697
vn -0.3721 0.9215 -0.1114
vn -0.3721 0.9215 -0.1112
vn 0.2151 0.9618 -0.1693
vn -0.3721 0.9215 -0.1114
vn -0.8333 0.5457 -0.0880
vn -0.8310 0.5492 -0.0882
vn -0.3721 0.9215 -0.1112
vn -0.3721 0.9215 -0.1112
vn -0.8310 0.5492 -0.0882
vn -0.8290 0.5523 -0.0883
vn -0.3721 0.9215 -0.1111
vn 0.2151 0.9618 -0.1693
vn -0.3721 0.9215 -0.1112
vn -0.3721 0.9215 -0.1111
vn 0.2115 0.9627 -0.1690
vn -0.8333 0.5457 -0.0880
vn -0.9268 -0.3718 -0.0525
vn -0.9268 -0.3718 -0.0527
vn -0.8310 0.5492 -0.0882
vn -0.9268 -0.3718 -0.0525
vn -0.2282 -0.9735 -0.0119
vn -0.2242 -0.9745 -0.0118
vn -0.9268 -0.3718 -0.0527
vn -0.9268 -0.3718 -0.0527
vn -0.2242 -0.9745 -0.0118
vn -0.2205 -0.9753 -0.0117
vn -0.9268 -0.3718 -0.0529
vn -0.8310 0.5492 -0.0882
vn -0.9268 -0.3718 -0.0527
vn -0.9268 -0.3718 -0.0529
vn -0.8290 0.5523 -0.0883
vn -0.2396 -0.9704 -0.0293
vn 0.3645 -0.9306 -0.0326
vn 0.3656 -0.9306 -0.0187
vn -0.2327 -0.9725 -0.0120
vn 0.3645 -0.9306 -0.0326
vn 0.8280 -0.5494 -0.1122
vn 0.8268 -0.5546 -0.0943
vn 0.3656 -0.9306 -0.0187
vn 0.3656 -0.9306 -0.0187
vn 0.8268 -0.5546 -0.0943
vn 0.8242 -0.5585 -0.0936
vn 0.3656 -0.9306 -0.0186
vn -0.2327 -0.9725 -0.0120
vn 0.3656 -0.9306 -0.0187
vn 0.3656 -0.9306 -0.0186
vn -0.2282 -0.9735 -0.0119
vn 0.8280 -0.5494 -0.1122
vn 0.9108 0.3520 -0.2156
vn 0.9145 0.3544 -0.1952
vn 0.8268 -0.5546 -0.0943
vn 0.9108 0.3520 -0.2156
vn 0.2287 0.9553 -0.1876
vn 0.2236 0.9597 -0.1701
vn 0.9145 0.3544 -0.1952
vn 0.9145 0.3544 -0.1952
vn 0.2236 0.9597 -0.1701
vn 0.2191 0.9608 -0.1697
vn 0.9144 0.3544 -0.1954
vn 0.8268 -0.5546 -0.0943
vn 0.9145 0.3544 -0.1952
vn 0.9144 0.3544 -0.1954
vn 0.8242 -0.5585 -0.0936
vn 0.2287 0.9553 -0.1876
vn -0.3724 0.9196 -0.1252
vn -0.3721 0.9215 -0.1115
vn 0.2236 0.9597 -0.1701
vn -0.3724 0.9196 -0.1252
vn -0.8388 0.5342 -0.1047
vn -0.8359 0.5419 -0.0879
vn -0.3721 0.9215 -0.1115
vn -0.3721 0.9215 -0.1115
vn -0.8359 0.5419 -0.0879
vn -0.8333 0.5457 -0.0880
vn -0.3721 0.9215 -0.1114
vn 0.2236 0.9597 -0.1701
vn -0.3721 0.9215 -0.1115
vn -0.3721 0.9215 -0.1114
vn 0.2191 0.9608 -0.1697
vn -0.8388 0.5342 -0.1047
vn -0.9253 -0.3722 -0.0731
vn -0.9268 -0.3718 -0.0523
vn -0.8359 0.5419 -0.0879
vn -0.9253 -0.3722 -0.0731
vn -0.2396 -0.9704 -0.0293
vn -0.2327 -0.9725 -0.0120
vn -0.9268 -0.3718 -0.0523
vn -0.9268 -0.3718 -0.0523
vn -0.2327 -0.9725 -0.0120
vn -0.2282 -0.9735 -0.0119
vn -0.9268 -0.3718 -0.0525
vn -0.8359 0.5419 -0.0879
vn -0.9268 -0.3718 -0.0523
vn -0.9268 -0.3718 -0.0525
vn -0.8333 0.5457 -0.0880
vn -0.2002 -0.8268 -0.5257
vn 0.2395 -0.7327 -0.6370
vn 0.3523 -0.9233 -0.1530
vn -0.2541 -0.9508 -0.1772
vn 0.2395 -0.7327 -0.6370
vn 0.6357 -0.4971 -0.5906
vn 0.8054 -0.5330 -0.2594
vn 0.3523 -0.9233 -0.1530
vn 0.3523 -0.9233 -0.1530
vn 0.8054 -0.5330 -0.2594
vn 0.8280 -0.5494 -0.1122
vn 0.3645 -0.9306 -0.0326
vn -0.2541 -0.9508 -0.1772
vn 0.3523 -0.9233 -0.1530
vn 0.3645 -0.9306 -0.0326
vn -0.2396 -0.9704 -0.0293
vn 0.6357 -0.4971 -0.5906
vn 0.5519 0.1790 -0.8145
vn 0.8659 0.3259 -0.3794
vn 0.8054 -0.5330 -0.2594
vn 0.5519 0.1790 -0.8145
vn 0.1413 0.7443 -0.6528
vn 0.2286 0.9152 -0.3320
vn 0.8659 0.3259 -0.3794
vn 0.8659 0.3259 -0.3794
vn 0.2286 0.9152 -0.3320
vn 0.2287 0.9553 -0.1876
vn 0.9108 0.3520 -0.2156
vn 0.8054 -0.5330 -0.2594
vn 0.8659 0.3259 -0.3794
vn 0.9108 0.3520 -0.2156
vn 0.8280 -0.5494 -0.1122
vn 0.1413 0.7443 -0.6528
vn -0.3067 0.6387 -0.7057
vn -0.3721 0.8955 -0.2441
vn 0.2286 0.9152 -0.3320
vn -0.3067 0.6387 -0.7057
vn -0.6946 0.4146 -0.5879
vn -0.8308 0.4973 -0.2497
vn -0.3721 0.8955 -0.2441
vn -0.3721 0.8955 -0.2441
vn -0.8308 0.4973 -0.2497
vn -0.8388 0.5342 -0.1047
vn -0.3724 0.9196 -0.1252
vn 0.2286 0.9152 -0.3320
vn -0.3721 0.8955 -0.2441
vn -0.3724 0.9196 -0.1252
vn 0.2287 0.9553 -0.1876
vn -0.6946 0.4146 -0.5879
vn -0.6287 -0.2866 -0.7229
vn -0.8970 -0.3694 -0.2426
vn -0.8308 0.4973 -0.2497
vn -0.6287 -0.2866 -0.7229
vn -0.2002 -0.8268 -0.5257
vn -0.2541 -0.9508 -0.1772
vn -0.8970 -0.3694 -0.2426
vn -0.8970 -0.3694 -0.2426
vn -0.2541 -0.9508 -0.1772
vn -0.2396 -0.9704 -0.0293
vn -0.9253 -0.3722 -0.0731
vn -0.8308 0.4973 -0.2497
vn -0.8970 -0.3694 -0.2426
vn -0.9253 -0.3722 -0.0731
vn -0.8388 0.5342 -0.1047
f 1/1/1 86/2/2 249/3/3 85/4/4
f 86/5/5 2/6/6 87/7/7 249/8/8
f 249/9/9 87/10/10 3/11/11 88/12/12
f 85/13/13 249/14/14 88/15/15 4/16/16
f 28/17/17 90/18/18 250/19/19 89/20/20
f 90/21/21 27/22/22 91/23/23 250/24/24
f 250/25/25 91/26/26 26/27/27 92/28/28
f 89/29/29 250/30/30 92/31/31 25/32/32
f 5/33/33 94/34/34 251/35/35 93/36/36
f 94/37/37 6/38/38 95/39/39 251/40/40
f 251/41/41 95/42/42 2/43/43 86/44/44
f 93/45/45 251/46/46 86/47/47 1/48/48
f 6/49/49 96/50/50 252/51/51 95/52/52
f 96/53/53 7/54/54 97/55/55 252/56/56
f 252/57/57 97/58/58 3/59/59 87/60/60
f 95/61/61 252/62/62 87/63/63 2/64/64
f 7/65/65 98/66/66 253/67/67 97/68/68
f 98/69/69 8/70/70 99/71/71 253/72/72
f 253/73/73 99/74/74 4/75/75 88/76/76
f 97/77/77 253/78/78 88/79/79 3/80/80
f 8/81/81 100/82/82 254/83/83 99/84/84
f 100/85/85 5/86/86 93/87/87 254/88/88
f 254/89/89 93/90/90 1/91/91 85/92/92
f 99/93/93 254/94/94 85/95/95 4/96/96
f 29/97/97 102/98/98 255/99/99 101/100/100
f 102/101/101 30/102/102 103/103/103 255/104/104
f 255/105/105 103/106/106 6/107/107 94/108/108
f 101/109/109 255/110/110 94/111/111 5/112/112
f 30/113/113 104/114/114 256/115/115 103/116/116
f 104/117/117 31/118/118 105/119/119 256/120/120
f 256/121/121 105/122/122 7/123/123 96/124/124
f 103/125/125 256/126/126 96/127/127 6/128/128
f 31/129/129 106/130/130 257/131/131 105/132/132
f 106/133/133 32/134/134 107/135/135 257/136/136
f 257/137/137 107/138/138 8/139/139 98/140/140
f 105/141/141 257/142/142 98/143/143 7/144/144
f 32/145/145 108/146/146 258/147/147 107/148/148
f 108/149/149 29/150/150 101/151/151 258/152/152
f 258/153/153 101/154/154 5/155/155 100/156/156
f 107/157/157 258/158/158 100/159/159 8/160/160
f 33/161/161 110/162/162 259/163/163 109/164/164
f 110/165/165 34/166/166 111/167/167 259/168/168
f 259/169/169 111/170/170 30/171/171 102/172/172
f 109/173/173 259/174/174 102/175/175 29/176/176
f 34/177/177 112/178/178 260/179/179 111/180/180
f 112/181/181 35/182/182 113/183/183 260/184/184
f 260/185/185 113/186/186 31/187/187 104/188/188
f 111/189/189 260/190/190 104/191/191 30/192/192
f 35/193/193 114/194/194 261/195/195 113/196/196
f 114/197/197 36/198/198 115/199/199 261/200/200
f 261/201/201 115/202/202 32/203/203 106/204/204
f 113/205/205 261/206/206 106/207/207 31/208/208
f 36/209/209 116/210/210 262/211/211 115/212/212
f 116/213/213 33/214/214 109/215/215 262/216/216
f 262/217/217 109/218/218 29/219/219 108/220/220
f 115/221/221 262/222/222 108/223/223 32/224/224
f 37/225/225 118/226/226 263/227/227 117/228/228
f 118/229/229 38/230/230 119/231/231 263/232/232
f 263/233/233 119/234/234 34/235/235 110/236/236
f 117/237/237 263/238/238 110/239/239 33/240/240
f 38/241/241 120/242/242 264/243/243 119/244/244
f 120/245/245 39/246/246 121/247/247 264/248/248
f 264/249/249 121/250/250 35/251/251 112/252/252
f 119/253/253 264/254/254 112/255/255 34/256/256
f 39/257/257 122/258/258 265/259/259 121/260/260
f 122/261/261 40/262/262 123/263/263 265/264/264
f 265/265/265 123/266/266 36/267/267 114/268/268
f 121/269/269 265/270/270 114/271/271 35/272/272
f 40/273/273 124/274/274 266/275/275 123/276/276
f 124/277/277 37/278/278 117/279/279 266/280/280
f 266/281/281 117/282/282 33/283/283 116/284/284
f 123/285/285 266/286/286 116/287/287 36/288/288
f 9/289/289 126/290/290 267/291/291 125/292/292
f 126/293/293 10/294/294 127/295/295 267/296/296
f 267/297/297 127/298/298 38/299/299 118/300/300
f 125/301/301 267/302/302 118/303/303 37/304/304
f 10/305/305 128/306/306 268/307/307 127/308/308
f 128/309/309 11/310/310 129/311/311 268/312/312
f 268/313/313 129/314/314 39/315/315 120/316/316
f 127/317/317 268/318/318 120/319/319 38/320/320
f 11/321/321 130/322/322 269/323/323 129/324/324
f 130/325/325 12/326/326 131/327/327 269/328/328
f 269/329/329 131/330/330 40/331/331 122/332/332
f 129/333/333 269/334/334 122/335/335 39/336/336
f 12/337/337 132/338/338 270/339/339 131/340/340
f 132/341/341 9/342/342 125/343/343 270/344/344
f 270/345/345 125/346/346 37/347/347 124/348/348
f 131/349/349 270/350/350 124/351/351 40/352/352
f 41/353/353 134/354/354 271/355/355 133/356/356
f 134/357/357 42/358/358 135/359/359 271/360/360
f 271/361/361 135/362/362 10/363/363 126/364/364
f 133/365/365 271/366/366 126/367/367 9/368/368
f 42/369/369 136/370/370 272/371/371 135/372/372
f 136/373/373 43/374/374 137/375/375 272/376/376
f 272/377/377 137/378/378 11/379/379 128/380/380
f 135/381/381 272/382/382 128/383/383 10/384/384
f 43/385/385 138/386/386 273/387/387 137/388/388
f 138/389/389 44/390/390 139/391/391 273/392/392
f 273/393/393 139/394/394 12/395/395 130/396/396
f 137/397/397 273/398/398 130/399/399 11/400/400
f 44/401/401 140/402/402 274/403/403 139/404/404
f 140/405/405 41/406/406 133/407/407 274/408/408
f 274/409/409 133/410/410 9/411/411 132/412/412
f 139/413/413 274/414/414 132/415/415 12/416/416
f 45/417/417 142/418/418 275/419/419 141/420/420
f 142/421/421 46/422/422 143/423/423 275/424/424
f 275/425/425 143/426/426 42/427/427 134/428/428
f 141/429/429 275/430/430 134/431/431 41/432/432
f 46/433/433 144/434/434 276/435/435 143/436/436
f 144/437/437 47/438/438 145/439/439 276/440/440
f 276/441/441 145/442/442 43/443/443 136/444/444
f 143/445/445 276/446/446 136/447/447 42/448/448
f 47/449/449 146/450/450 277/451/451 145/452/452
f 146/453/453 48/454/454 147/455/455 277/456/456
f 277/457/457 147/458/458 44/459/459 138/460/460
f 145/461/461 277/462/462 138/463/463 43/464/464
f 48/465/465 148/466/466 278/467/467 147/468/468
f 148/469/469 45/470/470 141/471/471 278/472/472
f 278/473/473 141/474/474 41/475/475 140/476/476
f 147/477/477 278/478/478 140/479/479 44/480/480
f 49/481/481 150/482/482 279/483/483 149/484/484
f 150/485/485 50/486/486 151/487/487 279/488/488
f 279/489/489 151/490/490 46/491/491 142/492/492
f 149/493/493 279/494/494 142/495/495 45/496/496
f 50/497/497 152/498/498 280/499/499 151/500/500
f 152/501/501 51/502/502 153/503/503 280/504/504
f 280/505/505 153/506/506 47/507/507 144/508/508
f 151/509/509 280/510/510 144/511/511 46/512/512
f 51/513/513 154/514/514 281/515/515 153/516/516
f 154/517/517 52/518/518 155/519/519 281/520/520
f 281/521/521 155/522/522 48/523/523 146/524/524
f 153/525/525 281/526/526 146/527/527 47/528/528
f 52/529/529 156/530/530 282/531/531 155/532/532
f 156/533/533 49/534/534 149/535/535 282/536/536
f 282/537/537 149/538/538 45/539/539 148/540/540
f 155/541/541 282/542/542 148/543/543 48/544/544
f 13/545/545 158/546/546 283/547/547 157/548/548
f 158/549/549 14/550/550 159/551/551 283/552/552
f 283/553/553 159/554/554 50/555/555 150/556/556
f 157/557/557 283/558/558 150/559/559 49/560/560
f 14/561/561 160/562/562 284/563/563 159/564/564
f 160/565/565 15/566/566 161/567/567 284/568/568
f 284/569/569 161/570/570 51/571/571 152/572/572
f 159/573/573 284/574/574 152/575/575 50/576/576
f 15/577/577 162/578/578 285/579/579 161/580/580
f 162/581/581 16/582/582 163/583/583 285/584/584
f 285/585/585 163/586/586 52/587/587 154/588/588
f 161/589/589 285/590/590 154/591/591 51/592/592
f 16/593/593 164/594/594 286/595/595 163/596/596
f 164/597/597 13/598/598 157/599/599 286/600/600
f 286/601/601 157/602/602 49/603/603 156/604/604
f 163/605/605 286/606/606 156/607/607 52/608/608
f 53/609/609 166/610/610 287/611/611 165/612/612
f 166/613/613 54/614/614 167/615/615 287/616/616
f 287/617/617 167/618/618 14/619/619 158/620/620
f 165/621/621 287/622/622 158/623/623 13/624/624
f 54/625/625 168/626/626 288/627/627 167/628/628
f 168/629/629 55/630/630 169/631/631 288/632/632
f 288/633/633 169/634/634 15/635/635 160/636/636
f 167/637/637 288/638/638 160/639/639 14/640/640
f 55/641/641 170/642/642 289/643/643 169/644/644
f 170/645/645 56/646/646 171/647/647 289/648/648
f 289/649/649 171/650/650 16/651/651 162/652/652
f 169/653/653 289/654/654 162/655/655 15/656/656
f 56/657/657 172/658/658 290/659/659 171/660/660
f 172/661/661 53/662/662 165/663/663 290/664/664
f 290/665/665 165/666/666 13/667/667 164/668/668
f 171/669/669 290/670/670 164/671/671 16/672/672
f 17/673/673 174/674/674 291/675/675 173/676/676
f 174/677/677 18/678/678 175/679/679 291/680/680
f 291/681/681 175/682/682 54/683/683 166/684/684
f 173/685/685 291/686/686 166/687/687 53/688/688
f 18/689/689 176/690/690 292/691/691 175/692/692
f 176/693/693 19/694/694 177/695/695 292/696/696
f 292/697/697 177/698/698 55/699/699 168/700/700
f 175/701/701 292/702/702 168/703/703 54/704/704
f 19/705/705 178/706/706 293/707/707 177/708/708
f 178/709/709 20/710/710 179/711/711 293/712/712
f 293/713/713 179/714/714 56/715/715 170/716/716
f 177/717/717 293/718/718 170/719/719 55/720/720
f 20/721/721 180/722/722 294/723/723 179/724/724
f 180/725/725 17/726/726 173/727/727 294/728/728
f 294/729/729 173/730/730 53/731/731 172/732/732
f 179/733/733 294/734/734 172/735/735 56/736/736
f 57/737/737 182/738/738 295/739/739 181/740/740
f 182/741/741 58/742/742 183/743/743 295/744/744
f 295/745/745 183/746/746 18/747/747 174/748/748
f 181/749/749 295/750/750 174/751/751 17/752/752
f 58/753/753 184/754/754 296/755/755 183/756/756
f 184/757/757 59/758/758 185/759/759 296/760/760
f 296/761/761 185/762/762 19/763/763 176/764/764
f 183/765/765 296/766/766 176/767/767 18/768/768
f 59/769/769 186/770/770 297/771/771 185/772/772
f 186/773/773 60/774/774 187/775/775 297/776/776
f 297/777/777 187/778/778 20/779/779 178/780/780
f 185/781/781 297/782/782 178/783/783 19/784/784
f 60/785/785 188/786/786 298/787/787 187/788/788
f 188/789/789 57/790/790 181/791/791 298/792/792
f 298/793/793 181/794/794 17/795/795 180/796/796
f 187/797/797 298/798/798 180/799/799 20/800/800
f 61/801/801 190/802/802 299/803/803 189/804/804
f 190/805/805 62/806/806 191/807/807 299/808/808
f 299/809/809 191/810/810 58/811/811 182/812/812
f 189/813/813 299/814/814 182/815/815 57/816/816
f 62/817/817 192/818/818 300/819/819 191/820/820
f 192/821/821 63/822/822 193/823/823 300/824/824
f 300/825/825 193/826/826 59/827/827 184/828/828
f 191/829/829 300/830/830 184/831/831 58/832/832
f 63/833/833 194/834/834 301/835/835 193/836/836
f 194/837/837 64/838/838 195/839/839 301/840/840
f 301/841/841 195/842/842 60/843/843 186/844/844
f 193/845/845 301/846/846 186/847/847 59/848/848
f 64/849/849 196/850/850 302/851/851 195/852/852
f 196/853/853 61/854/854 189/855/855 302/856/856
f 302/857/857 189/858/858 57/859/859 188/860/860
f 195/861/861 302/862/862 188/863/863 60/864/864
f 65/865/865 198/866/866 303/867/867 197/868/868
f 198/869/869 66/870/870 199/871/871 303/872/872
f 303/873/873 199/874/874 62/875/875 190/876/876
f 197/877/877 303/878/878 190/879/879 61/880/880
f 66/881/881 200/882/882 304/883/883 199/884/884
f 200/885/885 67/886/886 201/887/887 304/888/888
f 304/889/889 201/890/890 63/891/891 192/892/892
f 199/893/893 304/894/894 192/895/895 62/896/896
f 67/897/897 202/898/898 305/899/899 201/900/900
f 202/901/901 68/902/902 203/903/903 305/904/904
f 305/905/905 203/906/906 64/907/907 194/908/908
f 201/909/909 305/910/910 194/911/911 63/912/912
f 68/913/913 204/914/914 306/915/915 203/916/916
f 204/917/917 65/918/918 197/919/919 306/920/920
f 306/921/921 197/922/922 61/923/923 196/924/924
f 203/925/925 306/926/926 196/927/927 64/928/928
f 21/929/929 206/930/930 307/931/931 205/932/932
f 206/933/933 22/934/934 207/935/935 307/936/936
f 307/937/937 207/938/938 66/939/939 198/940/940
f 205/941/941 307/942/942 198/943/943 65/944/944
f 22/945/945 208/946/946 308/947/947 207/948/948
f 208/949/949 23/950/950 209/951/951 308/952/952
f 308/953/953 209/954/954 67/955/955 200/956/956
f 207/957/957 308/958/958 200/959/959 66/960/960
f 23/961/961 210/962/962 309/963/963 209/964/964
f 210/965/965 24/966/966 211/967/967 309/968/968
f 309/969/969 211/970/970 68/971/971 202/972/972
f 209/973/973 309/974/974 202/975/975 67/976/976
f 24/977/977 212/978/978 310/979/979 211/980/980
f 212/981/981 21/982/982 205/983/983 310/984/984
f 310/985/985 205/986/986 65/987/987 204/988/988
f 211/989/989 310/990/990 204/991/991 68/992/992
f 69/993/993 214/994/994 311/995/995 213/996/996
f 214/997/997 70/998/998 215/999/999 311/1000/1000
f 311/1001/1001 215/1002/1002 22/1003/1003 206/1004/1004
f 213/1005/1005 311/1006/1006 206/1007/1007 21/1008/1008
f 70/1009/1009 216/1010/1010 312/1011/1011 215/1012/1012
f 216/1013/1013 71/1014/1014 217/1015/1015 312/1016/1016
f 312/1017/1017 217/1018/1018 23/1019/1019 208/1020/1020
f 215/1021/1021 312/1022/1022 208/1023/1023 22/1024/1024
f 71/1025/1025 218/1026/1026 313/1027/1027 217/1028/1028
f 218/1029/1029 72/1030/1030 219/1031/1031 313/1032/1032
f 313/1033/1033 219/1034/1034 24/1035/1035 210/1036/1036
f 217/1037/1037 313/1038/1038 210/1039/1039 23/1040/1040
f 72/1041/1041 220/1042/1042 314/1043/1043 219/1044/1044
f 220/1045/1045 69/1046/1046 213/1047/1047 314/1048/1048
f 314/1049/1049 213/1050/1050 21/1051/1051 212/1052/1052
f 219/1053/1053 314/1054/1054 212/1055/1055 24/1056/1056
f 73/1057/1057 222/1058/1058 315/1059/1059 221/1060/1060
f 222/1061/1061 74/1062/1062 223/1063/1063 315/1064/1064
f 315/1065/1065 223/1066/1066 70/1067/1067 214/1068/1068
f 221/1069/1069 315/1070/1070 214/1071/1071 69/1072/1072
f 74/1073/1073 224/1074/1074 316/1075/1075 223/1076/1076
f 224/1077/1077 75/1078/1078 225/1079/1079 316/1080/1080
f 316/1081/1081 225/1082/1082 71/1083/1083 216/1084/1084
f 223/1085/1085 316/1086/1086 216/1087/1087 70/1088/1088
f 75/1089/1089 226/1090/1090 317/1091/1091 225/1092/1092
f 226/1093/1093 76/1094/1094 227/1095/1095 317/1096/1096
f 317/1097/1097 227/1098/1098 72/1099/1099 218/1100/1100
f 225/1101/1101 317/1102/1102 218/1103/1103 71/1104/1104
f 76/1105/1105 228/1106/1106 318/1107/1107 227/1108/1108
f 228/1109/1109 73/1110/1110 221/1111/1111 318/1112/1112
f 318/1113/1113 221/1114/1114 69/1115/1115 220/1116/1116
f 227/1117/1117 318/1118/1118 220/1119/1119 72/1120/1120
f 77/1121/1121 230/1122/1122 319/1123/1123 229/1124/1124
f 230/1125/1125 78/1126/1126 231/1127/1127 319/1128/1128
f 319/1129/1129 231/1130/1130 74/1131/1131 222/1132/1132
f 229/1133/1133 319/1134/1134 222/1135/1135 73/1136/1136
f 78/1137/1137 232/1138/1138 320/1139/1139 231/1140/1140
f 232/1141/1141 79/1142/1142 233/1143/1143 320/1144/1144
f 320/1145/1145 233/1146/1146 75/1147/1147 224/1148/1148
f 231/1149/1149 320/1150/1150 224/1151/1151 74/1152/1152
f 79/1153/1153 234/1154/1154 321/1155/1155 233/1156/1156
f 234/1157/1157 80/1158/1158 235/1159/1159 321/1160/1160
f 321/1161/1161 235/1162/1162 76/1163/1163 226/1164/1164
f 233/1165/1165 321/1166/1166 226/1167/1167 75/1168/1168
f 80/1169/1169 236/1170/1170 322/1171/1171 235/1172/1172
f 236/1173/1173 77/1174/1174 229/1175/1175 322/1176/1176
f 322/1177/1177 229/1178/1178 73/1179/1179 228/1180/1180
f 235/1181/1181 322/1182/1182 228/1183/1183 76/1184/1184
f 81/1185/1185 238/1186/1186 323/1187/1187 237/1188/1188
f 238/1189/1189 82/1190/1190 239/1191/1191 323/1192/1192
f 323/1193/1193 239/1194/1194 78/1195/1195 230/1196/1196
f 237/1197/1197 323/1198/1198 230/1199/1199 77/1200/1200
f 82/1201/1201 240/1202/1202 324/1203/1203 239/1204/1204
f 240/1205/1205 83/1206/1206 241/1207/1207 324/1208/1208
f 324/1209/1209 241/1210/1210 79/1211/1211 232/1212/1212
f 239/1213/1213 324/1214/1214 232/1215/1215 78/1216/1216
f 83/1217/1217 242/1218/1218 325/1219/1219 241/1220/1220
f 242/1221/1221 84/1222/1222 243/1223/1223 325/1224/1224
f 325/1225/1225 243/1226/1226 80/1227/1227 234/1228/1228
f 241/1229/1229 325/1230/1230 234/1231/1231 79/1232/1232
f 84/1233/1233 244/1234/1234 326/1235/1235 243/1236/1236
f 244/1237/1237 81/1238/1238 237/1239/1239 326/1240/1240
f 326/1241/1241 237/1242/1242 77/1243/1243 236/1244/1244
f 243/1245/1245 326/1246/1246 236/1247/1247 80/1248/1248
f 25/1249/1249 92/1250/1250 327/1251/1251 245/1252/1252
f 92/1253/1253 26/1254/1254 246/1255/1255 327/1256/1256
f 327/1257/1257 246/1258/1258 82/1259/1259 238/1260/1260
f 245/1261/1261 327/1262/1262 238/1263/1263 81/1264/1264
f 26/1265/1265 91/1266/1266 328/1267/1267 246/1268/1268
f 91/1269/1269 27/1270/1270 247/1271/1271 328/1272/1272
f 328/1273/1273 247/1274/1274 83/1275/1275 240/1276/1276
f 246/1277/1277 328/1278/1278 240/1279/1279 82/1280/1280
f 27/1281/1281 90/1282/1282 329/1283/1283 247/1284/1284
f 90/1285/1285 28/1286/1286 248/1287/1287 329/1288/1288
f 329/1289/1289 248/1290/1290 84/1291/1291 242/1292/1292
f 247/1293/1293 329/1294/1294 242/1295/1295 83/1296/1296
f 28/1297/1297 89/1298/1298 330/1299/1299 248/1300/1300
f 89/1301/1301 25/1302/1302 245/1303/1303 330/1304/1304
f 330/1305/1305 245/1306/1306 81/1307/1307 244/1308/1308
f 248/1309/1309 330/1310/1310 244/1311/1311 84/1312/1312
