# right_leg - exported from blender/silhouette.blend by tools/blender_export.py
o right_leg
v -0.05782 0.03866 0.00615
v -0.00615 0.03866 0.05782
v 0.04520 0.04677 0.00647
v -0.00647 0.04677 -0.04520
v -0.03416 -0.26405 -0.01854
v 0.01758 -0.26612 0.03286
v 0.06880 -0.25712 -0.01833
v 0.01705 -0.25505 -0.06973
v -0.01339 -0.58224 -0.06177
v 0.03577 -0.58624 -0.01332
v 0.08424 -0.57682 -0.06171
v 0.03508 -0.57283 -0.11016
v 0.00478 -0.62055 -0.06720
v 0.03783 -0.62324 -0.03462
v 0.07042 -0.61691 -0.06717
v 0.03737 -0.61422 -0.09975
v -0.06223 -0.05780 -0.00142
v 0.00142 -0.05780 0.06223
v 0.06469 -0.04781 -0.00103
v 0.00103 -0.04781 -0.06469
v -0.04671 -0.16744 -0.01010
v 0.01013 -0.16778 0.04668
v 0.06658 -0.15872 -0.00977
v 0.00974 -0.15837 -0.06655
v -0.02814 -0.34709 -0.02910
v 0.02269 -0.35088 0.02107
v 0.07284 -0.34129 -0.02901
v 0.02201 -0.33750 -0.07918
v -0.02367 -0.42745 -0.04026
v 0.02718 -0.43159 0.00986
v 0.07732 -0.42185 -0.04020
v 0.02646 -0.41772 -0.09032
v -0.01920 -0.50792 -0.05143
v 0.03165 -0.51205 -0.00131
v 0.08179 -0.50231 -0.05138
v 0.03093 -0.49818 -0.10150
v -0.03860 0.05001 -0.02482
v -0.03840 0.04503 0.03840
v 0.02482 0.05001 0.03860
v 0.02462 0.05498 -0.02462
v 0.01785 -0.61954 -0.08712
v 0.05735 -0.61734 -0.08710
v 0.05762 -0.62277 -0.04792
v 0.01813 -0.62496 -0.04794
v -0.06741 0.00073 0.00320
v -0.04226 -0.05967 0.04226
v -0.00320 0.00073 0.06741
v 0.04499 -0.05281 0.04254
v 0.06062 0.01081 0.00359
v 0.04472 -0.04594 -0.04472
v -0.00359 0.01081 -0.06062
v -0.04254 -0.05281 -0.04499
v -0.05417 -0.11476 -0.00593
v -0.02888 -0.16931 0.02888
v 0.00594 -0.11480 0.05417
v 0.04901 -0.16331 0.02910
v 0.06567 -0.10535 -0.00556
v 0.04875 -0.15684 -0.04874
v 0.00556 -0.10531 -0.06566
v -0.02914 -0.16284 -0.04897
v -0.03977 -0.21743 -0.01415
v -0.01789 -0.26677 0.01676
v 0.01410 -0.21850 0.03954
v 0.05289 -0.26201 0.01690
v 0.06752 -0.20959 -0.01388
v 0.05253 -0.25440 -0.05363
v 0.01365 -0.20852 -0.06757
v -0.01826 -0.25916 -0.05377
v -0.03056 -0.30668 -0.02360
v -0.01213 -0.35079 0.00538
v 0.02035 -0.30974 0.02678
v 0.05730 -0.34680 0.00543
v 0.07065 -0.30045 -0.02347
v 0.05683 -0.33760 -0.06349
v 0.01974 -0.29739 -0.07385
v -0.01260 -0.34159 -0.06354
v -0.02591 -0.38724 -0.03467
v -0.00765 -0.43135 -0.00581
v 0.02494 -0.39133 0.01545
v 0.06178 -0.42750 -0.00577
v 0.07508 -0.38161 -0.03461
v 0.06129 -0.41796 -0.07465
v 0.02423 -0.37752 -0.08474
v -0.00814 -0.42181 -0.07469
v -0.02144 -0.46768 -0.04585
v -0.00318 -0.51181 -0.01699
v 0.02941 -0.47182 0.00428
v 0.06625 -0.50796 -0.01695
v 0.07955 -0.46208 -0.04579
v 0.06576 -0.49842 -0.08582
v 0.02870 -0.45795 -0.09591
v -0.00367 -0.50227 -0.08586
v -0.01680 -0.54738 -0.05692
v 0.00210 -0.58600 -0.02847
v 0.03384 -0.55150 -0.00700
v 0.06922 -0.58228 -0.02843
v 0.08377 -0.54180 -0.05686
v 0.06875 -0.57306 -0.09501
v 0.03313 -0.53768 -0.10677
v 0.00163 -0.57678 -0.09505
v -0.00697 -0.60796 -0.06538
v 0.03718 -0.61155 -0.02186
v 0.08071 -0.60309 -0.06533
v 0.03656 -0.59950 -0.10884
v -0.00810 0.06531 0.00810
v 0.03802 -0.62624 -0.06823
v -0.04740 -0.00045 0.04740
v 0.04077 0.00649 0.04768
v 0.04050 0.01343 -0.04050
v -0.04768 0.00649 -0.04077
v -0.03532 -0.11655 0.03532
v 0.04707 -0.11008 0.03557
v 0.04681 -0.10356 -0.04681
v -0.03558 -0.11002 -0.04707
v -0.02285 -0.21964 0.02271
v 0.05091 -0.21425 0.02290
v 0.05061 -0.20738 -0.05074
v -0.02316 -0.21277 -0.05093
v -0.01453 -0.30996 0.01101
v 0.05505 -0.30567 0.01110
v 0.05462 -0.29718 -0.05808
v -0.01496 -0.30147 -0.05818
v -0.00989 -0.39111 -0.00022
v 0.05954 -0.38724 -0.00018
v 0.05906 -0.37774 -0.06906
v -0.01037 -0.38161 -0.06911
v -0.00542 -0.47158 -0.01140
v 0.06402 -0.46773 -0.01136
v 0.06353 -0.45819 -0.08024
v -0.00590 -0.46204 -0.08028
v -0.00084 -0.55126 -0.02261
v 0.06830 -0.54742 -0.02257
v 0.06781 -0.53792 -0.09116
v -0.00133 -0.54176 -0.09120
v 0.00699 -0.61157 -0.03554
v 0.06720 -0.60823 -0.03550
v 0.06678 -0.59996 -0.09523
v 0.00656 -0.60330 -0.09527
vt 0.0300 0.5000
vt 0.0300 0.5000
vt 0.0300 0.5000
vt 0.0300 0.5000
vt 0.0300 0.5000
vt 0.0300 0.5000
vt 0.0300 0.5000
vt 0.0300 0.5000
vt 0.0300 0.5000
vt 0.0300 0.5000
vt 0.0300 0.5000
vt 0.0300 0.5000
vt 0.0300 0.5000
vt 0.0300 0.5000
vt 0.0300 0.5000
vt 0.0300 0.5000
vt 0.0300 0.5000
vt 0.0300 0.5000
vt 0.0300 0.5000
vt 0.0300 0.5000
vt 0.0300 0.5000
vt 0.0300 0.5000
vt 0.0300 0.5000
vt 0.0300 0.5000
vt 0.0300 0.5000
vt 0.0300 0.5000
vt 0.0300 0.5000
vt 0.0300 0.5000
vt 0.0300 0.5000
vt 0.0300 0.5000
vt 0.0300 0.5000
vt 0.0300 0.5000
vt 0.0300 0.5000
vt 0.0300 0.5000
vt 0.0300 0.5000
vt 0.0300 0.5000
vt 0.0300 0.5000
vt 0.0300 0.5000
vt 0.0300 0.5000
vt 0.0300 0.5000
vt 0.0300 0.5000
vt 0.0300 0.5000
vt 0.0300 0.5000
vt 0.0300 0.5000
vt 0.0300 0.5000
vt 0.0300 0.5000
vt 0.0300 0.5000
vt 0.0300 0.5000
vt 0.0300 0.5000
vt 0.0300 0.5000
vt 0.0300 0.5000
vt 0.0300 0.5000
vt 0.0300 0.5000
vt 0.0300 0.5000
vt 0.0300 0.5000
vt 0.0300 0.5000
vt 0.0300 0.5000
vt 0.0300 0.5000
vt 0.0300 0.5000
vt 0.0300 0.5000
vt 0.0300 0.5000
vt 0.0300 0.5000
vt 0.0300 0.5000
vt 0.0300 0.5000
vt 0.0300 0.5000
vt 0.0300 0.5000
vt 0.0300 0.5000
vt 0.0300 0.5000
vt 0.0300 0.5000
vt 0.0300 0.5000
vt 0.0300 0.5000
vt 0.0300 0.5000
vt 0.0300 0.5000
vt 0.0300 0.5000
vt 0.0300 0.5000
vt 0.0300 0.5000
vt 0.0300 0.5000
vt 0.0300 0.5000
vt 0.0300 0.5000
vt 0.0300 0.5000
vt 0.0300 0.5000
vt 0.0300 0.5000
vt 0.0300 0.5000
vt 0.0300 0.5000
vt 0.0300 0.5000
vt 0.0300 0.5000
vt 0.0300 0.5000
vt 0.0300 0.5000
vt 0.0300 0.5000
vt 0.0300 0.5000
vt 0.0300 0.5000
vt 0.0300 0.5000
vt 0.0300 0.5000
vt 0.0300 0.5000
vt 0.0300 0.5000
vt 0.0300 0.5000
vt 0.0300 0.5000
vt 0.0300 0.5000
vt 0.0300 0.5000
vt 0.0300 0.5000
vt 0.0300 0.5000
vt 0.0300 0.5000
vt 0.0300 0.5000
vt 0.0300 0.5000
vt 0.0300 0.5000
vt 0.0300 0.5000
vt 0.0300 0.5000
vt 0.0300 0.5000
vt 0.0300 0.5000
vt 0.0300 0.5000
vt 0.0300 0.5000
vt 0.0300 0.5000
vt 0.0300 0.5000
vt 0.0300 0.5000
vt 0.0300 0.5000
vt 0.0300 0.5000
vt 0.0300 0.5000
vt 0.0300 0.5000
vt 0.0300 0.5000
vt 0.0300 0.5000
vt 0.0300 0.5000
vt 0.0300 0.5000
vt 0.0300 0.5000
vt 0.0300 0.5000
vt 0.0300 0.5000
vt 0.0300 0.5000
vt 0.0300 0.5000
vt 0.0300 0.5000
vt 0.0300 0.5000
vt 0.0300 0.5000
vt 0.0300 0.5000
vt 0.0300 0.5000
vt 0.0300 0.5000
vt 0.0300 0.5000
vt 0.0300 0.5000
vt 0.0300 0.5000
vt 0.0300 0.5000
vt 0.0300 0.5000
vt 0.0300 0.5000
vt 0.0300 0.5000
vt 0.0300 0.5000
vt 0.0300 0.5000
vt 0.0300 0.5000
vt 0.0300 0.5000
vt 0.0300 0.5000
vt 0.0300 0.5000
vt 0.0300 0.5000
vt 0.0300 0.5000
vt 0.0300 0.5000
vt 0.0300 0.5000
vt 0.0300 0.5000
vt 0.0300 0.5000
vt 0.0300 0.5000
vt 0.0300 0.5000
vt 0.0300 0.5000
vt 0.0300 0.5000
vt 0.0300 0.5000
vt 0.0300 0.5000
vt 0.0300 0.5000
vt 0.0300 0.5000
vt 0.0300 0.5000
vt 0.0300 0.5000
vt 0.0300 0.5000
vt 0.0300 0.5000
vt 0.0300 0.5000
vt 0.0300 0.5000
vt 0.0300 0.5000
vt 0.0300 0.5000
vt 0.0300 0.5000
vt 0.0300 0.5000
vt 0.0300 0.5000
vt 0.0300 0.5000
vt 0.0300 0.5000
vt 0.0300 0.5000
vt 0.0300 0.5000
vt 0.0300 0.5000
vt 0.0300 0.5000
vt 0.0300 0.5000
vt 0.0300 0.5000
vt 0.0300 0.5000
vt 0.0300 0.5000
vt 0.0300 0.5000
vt 0.0300 0.5000
vt 0.0300 0.5000
vt 0.0300 0.5000
vt 0.0300 0.5000
vt 0.0300 0.5000
vt 0.0300 0.5000
vt 0.0300 0.5000
vt 0.0300 0.5000
vt 0.0300 0.5000
vt 0.0300 0.5000
vt 0.0300 0.5000
vt 0.0300 0.5000
vt 0.0300 0.5000
vt 0.0300 0.5000
vt 0.0300 0.5000
vt 0.0300 0.5000
vt 0.0300 0.5000
vt 0.0300 0.5000
vt 0.0300 0.5000
vt 0.0300 0.5000
vt 0.0300 0.5000
vt 0.0300 0.5000
vt 0.0300 0.5000
vt 0.0300 0.5000
vt 0.0300 0.5000
vt 0.0300 0.5000
vt 0.0300 0.5000
vt 0.0300 0.5000
vt 0.0300 0.5000
vt 0.0300 0.5000
vt 0.0300 0.5000
vt 0.0300 0.5000
vt 0.0300 0.5000
vt 0.0300 0.5000
vt 0.0300 0.5000
vt 0.0300 0.5000
vt 0.0300 0.5000
vt 0.0300 0.5000
vt 0.0300 0.5000
vt 0.0300 0.5000
vt 0.0300 0.5000
vt 0.0300 0.5000
vt 0.0300 0.5000
vt 0.0300 0.5000
vt 0.0300 0.5000
vt 0.0300 0.5000
vt 0.0300 0.5000
vt 0.0300 0.5000
vt 0.0300 0.5000
vt 0.0300 0.5000
vt 0.0300 0.5000
vt 0.0300 0.5000
vt 0.0300 0.5000
vt 0.0300 0.5000
vt 0.0300 0.5000
vt 0.0300 0.5000
vt 0.0300 0.5000
vt 0.0300 0.5000
vt 0.0300 0.5000
vt 0.0300 0.5000
vt 0.0300 0.5000
vt 0.0300 0.5000
vt 0.0300 0.5000
vt 0.0300 0.5000
vt 0.0300 0.5000
vt 0.0300 0.5000
vt 0.0300 0.5000
vt 0.0300 0.5000
vt 0.0300 0.5000
vt 0.0300 0.5000
vt 0.0300 0.5000
vt 0.0300 0.5000
vt 0.0300 0.5000
vt 0.0300 0.5000
vt 0.0300 0.5000
vt 0.0300 0.5000
vt 0.0300 0.5000
vt 0.0300 0.5000
vt 0.0300 0.5000
vt 0.0300 0.5000
vt 0.0300 0.5000
vt 0.0300 0.5000
vt 0.0300 0.5000
vt 0.0300 0.5000
vt 0.0300 0.5000
vt 0.0300 0.5000
vt 0.0300 0.5000
vt 0.0300 0.5000
vt 0.0300 0.5000
vt 0.0300 0.5000
vt 0.0300 0.5000
vt 0.0300 0.5000
vt 0.0300 0.5000
vt 0.0300 0.5000
vt 0.0300 0.5000
vt 0.0300 0.5000
vt 0.0300 0.5000
vt 0.0300 0.5000
vt 0.0300 0.5000
vt 0.0300 0.5000
vt 0.0300 0.5000
vt 0.0300 0.5000
vt 0.0300 0.5000
vt 0.0300 0.5000
vt 0.0300 0.5000
vt 0.0300 0.5000
vt 0.0300 0.5000
vt 0.0300 0.5000
vt 0.0300 0.5000
vt 0.0300 0.5000
vt 0.0300 0.5000
vt 0.0300 0.5000
vt 0.0300 0.5000
vt 0.0300 0.5000
vt 0.0300 0.5000
vt 0.0300 0.5000
vt 0.0300 0.5000
vt 0.0300 0.5000
vt 0.0300 0.5000
vt 0.0300 0.5000
vt 0.0300 0.5000
vt 0.0300 0.5000
vt 0.0300 0.5000
vt 0.0300 0.5000
vt 0.0300 0.5000
vt 0.0300 0.5000
vt 0.0300 0.5000
vt 0.0300 0.5000
vt 0.0300 0.5000
vt 0.0300 0.5000
vt 0.0300 0.5000
vt 0.0300 0.5000
vt 0.0300 0.5000
vt 0.0300 0.5000
vt 0.0300 0.5000
vt 0.0300 0.5000
vt 0.0300 0.5000
vt 0.0300 0.5000
vt 0.0300 0.5000
vt 0.0300 0.5000
vt 0.0300 0.5000
vt 0.0300 0.5000
vt 0.0300 0.5000
vt 0.0300 0.5000
vt 0.0300 0.5000
vt 0.0300 0.5000
vt 0.0300 0.5000
vt 0.0300 0.5000
vt 0.0300 0.5000
vt 0.0300 0.5000
vt 0.0300 0.5000
vt 0.0300 0.5000
vt 0.0300 0.5000
vt 0.0300 0.5000
vt 0.0300 0.5000
vt 0.0300 0.5000
vt 0.0300 0.5000
vt 0.0300 0.5000
vt 0.0300 0.5000
vt 0.0300 0.5000
vt 0.0300 0.5000
vt 0.0300 0.5000
vt 0.0300 0.5000
vt 0.0300 0.5000
vt 0.0300 0.5000
vt 0.0300 0.5000
vt 0.0300 0.5000
vt 0.0300 0.5000
vt 0.0300 0.5000
vt 0.0300 0.5000
vt 0.0300 0.5000
vt 0.0300 0.5000
vt 0.0300 0.5000
vt 0.0300 0.5000
vt 0.0300 0.5000
vt 0.0300 0.5000
vt 0.0300 0.5000
vt 0.0300 0.5000
vt 0.0300 0.5000
vt 0.0300 0.5000
vt 0.0300 0.5000
vt 0.0300 0.5000
vt 0.0300 0.5000
vt 0.0300 0.5000
vt 0.0300 0.5000
vt 0.0300 0.5000
vt 0.0300 0.5000
vt 0.0300 0.5000
vt 0.0300 0.5000
vt 0.0300 0.5000
vt 0.0300 0.5000
vt 0.0300 0.5000
vt 0.0300 0.5000
vt 0.0300 0.5000
vt 0.0300 0.5000
vt 0.0300 0.5000
vt 0.0300 0.5000
vt 0.0300 0.5000
vt 0.0300 0.5000
vt 0.0300 0.5000
vt 0.0300 0.5000
vt 0.0300 0.5000
vt 0.0300 0.5000
vt 0.0300 0.5000
vt 0.0300 0.5000
vt 0.0300 0.5000
vt 0.0300 0.5000
vt 0.0300 0.5000
vt 0.0300 0.5000
vt 0.0300 0.5000
vt 0.0300 0.5000
vt 0.0300 0.5000
vt 0.0300 0.5000
vt 0.0300 0.5000
vt 0.0300 0.5000
vt 0.0300 0.5000
vt 0.0300 0.5000
vt 0.0300 0.5000
vt 0.0300 0.5000
vt 0.0300 0.5000
vt 0.0300 0.5000
vt 0.0300 0.5000
vt 0.0300 0.5000
vt 0.0300 0.5000
vt 0.0300 0.5000
vt 0.0300 0.5000
vt 0.0300 0.5000
vt 0.0300 0.5000
vt 0.0300 0.5000
vt 0.0300 0.5000
vt 0.0300 0.5000
vt 0.0300 0.5000
vt 0.0300 0.5000
vt 0.0300 0.5000
vt 0.0300 0.5000
vt 0.0300 0.5000
vt 0.0300 0.5000
vt 0.0300 0.5000
vt 0.0300 0.5000
vt 0.0300 0.5000
vt 0.0300 0.5000
vt 0.0300 0.5000
vt 0.0300 0.5000
vt 0.0300 0.5000
vt 0.0300 0.5000
vt 0.0300 0.5000
vt 0.0300 0.5000
vt 0.0300 0.5000
vt 0.0300 0.5000
vt 0.0300 0.5000
vt 0.0300 0.5000
vt 0.0300 0.5000
vt 0.0300 0.5000
vt 0.0300 0.5000
vt 0.0300 0.5000
vt 0.0300 0.5000
vt 0.0300 0.5000
vt 0.0300 0.5000
vt 0.0300 0.5000
vt 0.0300 0.5000
vt 0.0300 0.5000
vt 0.0300 0.5000
vt 0.0300 0.5000
vt 0.0300 0.5000
vt 0.0300 0.5000
vt 0.0300 0.5000
vt 0.0300 0.5000
vt 0.0300 0.5000
vt 0.0300 0.5000
vt 0.0300 0.5000
vt 0.0300 0.5000
vt 0.0300 0.5000
vt 0.0300 0.5000
vt 0.0300 0.5000
vt 0.0300 0.5000
vt 0.0300 0.5000
vt 0.0300 0.5000
vt 0.0300 0.5000
vt 0.0300 0.5000
vt 0.0300 0.5000
vt 0.0300 0.5000
vt 0.0300 0.5000
vt 0.0300 0.5000
vt 0.0300 0.5000
vt 0.0300 0.5000
vt 0.0300 0.5000
vt 0.0300 0.5000
vt 0.0300 0.5000
vt 0.0300 0.5000
vt 0.0300 0.5000
vt 0.0300 0.5000
vt 0.0300 0.5000
vt 0.0300 0.5000
vt 0.0300 0.5000
vt 0.0300 0.5000
vt 0.0300 0.5000
vt 0.0300 0.5000
vt 0.0300 0.5000
vt 0.0300 0.5000
vt 0.0300 0.5000
vt 0.0300 0.5000
vt 0.0300 0.5000
vt 0.0300 0.5000
vt 0.0300 0.5000
vt 0.0300 0.5000
vt 0.0300 0.5000
vt 0.0300 0.5000
vt 0.0300 0.5000
vt 0.0300 0.5000
vt 0.0300 0.5000
vt 0.0300 0.5000
vt 0.0300 0.5000
vt 0.0300 0.5000
vt 0.0300 0.5000
vt 0.0300 0.5000
vt 0.0300 0.5000
vt 0.0300 0.5000
vt 0.0300 0.5000
vt 0.0300 0.5000
vt 0.0300 0.5000
vt 0.0300 0.5000
vt 0.0300 0.5000
vt 0.0300 0.5000
vt 0.0300 0.5000
vt 0.0300 0.5000
vt 0.0300 0.5000
vt 0.0300 0.5000
vt 0.0300 0.5000
vt 0.0300 0.5000
vt 0.0300 0.5000
vt 0.0300 0.5000
vt 0.0300 0.5000
vt 0.0300 0.5000
vt 0.0300 0.5000
vt 0.0300 0.5000
vt 0.0300 0.5000
vt 0.0300 0.5000
vt 0.0300 0.5000
vt 0.0300 0.5000
vt 0.0300 0.5000
vt 0.0300 0.5000
vt 0.0300 0.5000
vt 0.0300 0.5000
vt 0.0300 0.5000
vt 0.0300 0.5000
vt 0.0300 0.5000
vt 0.0300 0.5000
vt 0.0300 0.5000
vt 0.0300 0.5000
vt 0.0300 0.5000
vt 0.0300 0.5000
vt 0.0300 0.5000
vt 0.0300 0.5000
vt 0.0300 0.5000
vt 0.0300 0.5000
vt 0.0300 0.5000
vt 0.0300 0.5000
vt 0.0300 0.5000
vt 0.0300 0.5000
vt 0.0300 0.5000
vt 0.0300 0.5000
vt 0.0300 0.5000
vn -0.8443 0.5341 0.0446
vn -0.5441 0.6387 0.5441
vn -0.0785 0.9938 0.0785
vn -0.5471 0.7157 -0.4341
vn -0.5441 0.6387 0.5441
vn -0.0446 0.5341 0.8443
vn 0.4341 0.7157 0.5471
vn -0.0785 0.9938 0.0785
vn -0.0785 0.9938 0.0785
vn 0.4341 0.7157 0.5471
vn 0.7500 0.6595 0.0496
vn 0.4311 0.7927 -0.4311
vn -0.5471 0.7157 -0.4341
vn -0.0785 0.9938 0.0785
vn 0.4311 0.7927 -0.4311
vn -0.0496 0.6595 -0.7500
vn 0.0404 -0.7204 -0.6924
vn 0.4037 -0.7825 -0.4741
vn 0.0549 -0.9890 -0.1374
vn -0.3141 -0.8223 -0.4745
vn 0.4037 -0.7825 -0.4741
vn 0.6303 -0.7684 -0.1109
vn 0.4087 -0.8811 0.2379
vn 0.0549 -0.9890 -0.1374
vn 0.0549 -0.9890 -0.1374
vn 0.4087 -0.8811 0.2379
vn 0.0486 -0.8814 0.4699
vn -0.3090 -0.9209 0.2375
vn -0.3141 -0.8223 -0.4745
vn 0.0549 -0.9890 -0.1374
vn -0.3090 -0.9209 0.2375
vn -0.5413 -0.8334 -0.1116
vn -0.9935 -0.1139 -0.0059
vn -0.6996 -0.1454 0.6996
vn -0.7061 0.0546 0.7061
vn -0.9960 0.0892 0.0101
vn -0.6996 -0.1454 0.6996
vn 0.0059 -0.1139 0.9935
vn -0.0101 0.0892 0.9960
vn -0.7061 0.0546 0.7061
vn -0.7061 0.0546 0.7061
vn -0.0101 0.0892 0.9960
vn -0.0446 0.5341 0.8443
vn -0.5441 0.6387 0.5441
vn -0.9960 0.0892 0.0101
vn -0.7061 0.0546 0.7061
vn -0.5441 0.6387 0.5441
vn -0.8443 0.5341 0.0446
vn 0.0059 -0.1139 0.9935
vn 0.7094 -0.0345 0.7040
vn 0.6845 0.1640 0.7104
vn -0.0101 0.0892 0.9960
vn 0.7094 -0.0345 0.7040
vn 0.9991 0.0429 0.0003
vn 0.9697 0.2439 0.0162
vn 0.6845 0.1640 0.7104
vn 0.6845 0.1640 0.7104
vn 0.9697 0.2439 0.0162
vn 0.7500 0.6595 0.0496
vn 0.4341 0.7157 0.5471
vn -0.0101 0.0892 0.9960
vn 0.6845 0.1640 0.7104
vn 0.4341 0.7157 0.5471
vn -0.0446 0.5341 0.8443
vn 0.9991 0.0429 0.0003
vn 0.7050 0.0763 -0.7050
vn 0.6802 0.2735 -0.6802
vn 0.9697 0.2439 0.0162
vn 0.7050 0.0763 -0.7050
vn -0.0003 0.0429 -0.9991
vn -0.0162 0.2439 -0.9697
vn 0.6802 0.2735 -0.6802
vn 0.6802 0.2735 -0.6802
vn -0.0162 0.2439 -0.9697
vn -0.0496 0.6595 -0.7500
vn 0.4311 0.7927 -0.4311
vn 0.9697 0.2439 0.0162
vn 0.6802 0.2735 -0.6802
vn 0.4311 0.7927 -0.4311
vn 0.7500 0.6595 0.0496
vn -0.0003 0.0429 -0.9991
vn -0.7039 -0.0346 -0.7094
vn -0.7104 0.1640 -0.6845
vn -0.0162 0.2439 -0.9697
vn -0.7039 -0.0346 -0.7094
vn -0.9935 -0.1139 -0.0059
vn -0.9960 0.0892 0.0101
vn -0.7104 0.1640 -0.6845
vn -0.7104 0.1640 -0.6845
vn -0.9960 0.0892 0.0101
vn -0.8443 0.5341 0.0446
vn -0.5471 0.7157 -0.4341
vn -0.0162 0.2439 -0.9697
vn -0.7104 0.1640 -0.6845
vn -0.5471 0.7157 -0.4341
vn -0.0496 0.6595 -0.7500
vn -0.9904 -0.1383 -0.0079
vn -0.6969 -0.1695 0.6968
vn -0.6968 -0.1702 0.6968
vn -0.9902 -0.1395 -0.0080
vn -0.6969 -0.1695 0.6968
vn 0.0079 -0.1392 0.9902
vn 0.0079 -0.1394 0.9902
vn -0.6968 -0.1702 0.6968
vn -0.6968 -0.1702 0.6968
vn 0.0079 -0.1394 0.9902
vn 0.0059 -0.1139 0.9935
vn -0.6996 -0.1454 0.6996
vn -0.9902 -0.1395 -0.0080
vn -0.6968 -0.1702 0.6968
vn -0.6996 -0.1454 0.6996
vn -0.9935 -0.1139 -0.0059
vn 0.0079 -0.1392 0.9902
vn 0.7105 -0.0592 0.7012
vn 0.7105 -0.0594 0.7011
vn 0.0079 -0.1394 0.9902
vn 0.7105 -0.0592 0.7012
vn 0.9998 0.0179 -0.0017
vn 0.9999 0.0172 -0.0018
vn 0.7105 -0.0594 0.7011
vn 0.7105 -0.0594 0.7011
vn 0.9999 0.0172 -0.0018
vn 0.9991 0.0429 0.0003
vn 0.7094 -0.0345 0.7040
vn 0.0079 -0.1394 0.9902
vn 0.7105 -0.0594 0.7011
vn 0.7094 -0.0345 0.7040
vn 0.0059 -0.1139 0.9935
vn 0.9998 0.0179 -0.0017
vn 0.7061 0.0525 -0.7062
vn 0.7061 0.0512 -0.7062
vn 0.9999 0.0172 -0.0018
vn 0.7061 0.0525 -0.7062
vn 0.0016 0.0187 -0.9998
vn 0.0017 0.0170 -0.9999
vn 0.7061 0.0512 -0.7062
vn 0.7061 0.0512 -0.7062
vn 0.0017 0.0170 -0.9999
vn -0.0003 0.0429 -0.9991
vn 0.7050 0.0763 -0.7050
vn 0.9999 0.0172 -0.0018
vn 0.7061 0.0512 -0.7062
vn 0.7050 0.0763 -0.7050
vn 0.9991 0.0429 0.0003
vn 0.0016 0.0187 -0.9998
vn -0.7013 -0.0580 -0.7105
vn -0.7011 -0.0596 -0.7106
vn 0.0017 0.0170 -0.9999
vn -0.7013 -0.0580 -0.7105
vn -0.9904 -0.1383 -0.0079
vn -0.9902 -0.1395 -0.0080
vn -0.7011 -0.0596 -0.7106
vn -0.7011 -0.0596 -0.7106
vn -0.9902 -0.1395 -0.0080
vn -0.9935 -0.1139 -0.0059
vn -0.7039 -0.0346 -0.7094
vn 0.0017 0.0170 -0.9999
vn -0.7011 -0.0596 -0.7106
vn -0.7039 -0.0346 -0.7094
vn -0.0003 0.0429 -0.9991
vn -0.9948 -0.1017 -0.0024
vn -0.6974 -0.1546 0.6998
vn -0.6969 -0.1653 0.6979
vn -0.9917 -0.1281 -0.0061
vn -0.6974 -0.1546 0.6998
vn 0.0086 -0.1380 0.9904
vn 0.0083 -0.1387 0.9903
vn -0.6969 -0.1653 0.6979
vn -0.6969 -0.1653 0.6979
vn 0.0083 -0.1387 0.9903
vn 0.0079 -0.1392 0.9902
vn -0.6969 -0.1695 0.6968
vn -0.9917 -0.1281 -0.0061
vn -0.6969 -0.1653 0.6979
vn -0.6969 -0.1695 0.6968
vn -0.9904 -0.1383 -0.0079
vn 0.0086 -0.1380 0.9904
vn 0.7100 -0.0585 0.7018
vn 0.7103 -0.0589 0.7015
vn 0.0083 -0.1387 0.9903
vn 0.7100 -0.0585 0.7018
vn 0.9994 0.0344 0.0019
vn 0.9997 0.0226 -0.0003
vn 0.7103 -0.0589 0.7015
vn 0.7103 -0.0589 0.7015
vn 0.9997 0.0226 -0.0003
vn 0.9998 0.0179 -0.0017
vn 0.7105 -0.0592 0.7012
vn 0.0083 -0.1387 0.9903
vn 0.7103 -0.0589 0.7015
vn 0.7105 -0.0592 0.7012
vn 0.0079 -0.1392 0.9902
vn 0.9994 0.0344 0.0019
vn 0.7057 0.0898 -0.7028
vn 0.7062 0.0630 -0.7052
vn 0.9997 0.0226 -0.0003
vn 0.7057 0.0898 -0.7028
vn -0.0015 0.0715 -0.9974
vn 0.0008 0.0333 -0.9994
vn 0.7062 0.0630 -0.7052
vn 0.7062 0.0630 -0.7052
vn 0.0008 0.0333 -0.9994
vn 0.0016 0.0187 -0.9998
vn 0.7061 0.0525 -0.7062
vn 0.9997 0.0226 -0.0003
vn 0.7062 0.0630 -0.7052
vn 0.7061 0.0525 -0.7062
vn 0.9998 0.0179 -0.0017
vn -0.0015 0.0715 -0.9974
vn -0.7072 -0.0066 -0.7069
vn -0.7032 -0.0437 -0.7097
vn 0.0008 0.0333 -0.9994
vn -0.7072 -0.0066 -0.7069
vn -0.9948 -0.1017 -0.0024
vn -0.9917 -0.1281 -0.0061
vn -0.7032 -0.0437 -0.7097
vn -0.7032 -0.0437 -0.7097
vn -0.9917 -0.1281 -0.0061
vn -0.9904 -0.1383 -0.0079
vn -0.7013 -0.0580 -0.7105
vn 0.0008 0.0333 -0.9994
vn -0.7032 -0.0437 -0.7097
vn -0.7013 -0.0580 -0.7105
vn 0.0016 0.0187 -0.9998
vn -0.9983 -0.0575 -0.0005
vn -0.7007 -0.1370 0.7001
vn -0.6992 -0.1428 0.7005
vn -0.9974 -0.0720 -0.0004
vn -0.7007 -0.1370 0.7001
vn 0.0072 -0.1371 0.9905
vn 0.0080 -0.1373 0.9905
vn -0.6992 -0.1428 0.7005
vn -0.6992 -0.1428 0.7005
vn 0.0080 -0.1373 0.9905
vn 0.0086 -0.1380 0.9904
vn -0.6974 -0.1546 0.6998
vn -0.9974 -0.0720 -0.0004
vn -0.6992 -0.1428 0.7005
vn -0.6974 -0.1546 0.6998
vn -0.9948 -0.1017 -0.0024
vn 0.0072 -0.1371 0.9905
vn 0.7109 -0.0578 0.7009
vn 0.7104 -0.0580 0.7014
vn 0.0080 -0.1373 0.9905
vn 0.7109 -0.0578 0.7009
vn 0.9985 0.0544 0.0009
vn 0.9989 0.0478 0.0020
vn 0.7104 -0.0580 0.7014
vn 0.7104 -0.0580 0.7014
vn 0.9989 0.0478 0.0020
vn 0.9994 0.0344 0.0019
vn 0.7100 -0.0585 0.7018
vn 0.0080 -0.1373 0.9905
vn 0.7104 -0.0580 0.7014
vn 0.7100 -0.0585 0.7018
vn 0.0086 -0.1380 0.9904
vn 0.9985 0.0544 0.0009
vn 0.7014 0.1340 -0.7001
vn 0.7033 0.1197 -0.7007
vn 0.9989 0.0478 0.0020
vn 0.7014 0.1340 -0.7001
vn -0.0067 0.1343 -0.9909
vn -0.0048 0.1140 -0.9935
vn 0.7033 0.1197 -0.7007
vn 0.7033 0.1197 -0.7007
vn -0.0048 0.1140 -0.9935
vn -0.0015 0.0715 -0.9974
vn 0.7057 0.0898 -0.7028
vn 0.9989 0.0478 0.0020
vn 0.7033 0.1197 -0.7007
vn 0.7057 0.0898 -0.7028
vn 0.9994 0.0344 0.0019
vn -0.0067 0.1343 -0.9909
vn -0.7109 0.0549 -0.7011
vn -0.7102 0.0350 -0.7031
vn -0.0048 0.1140 -0.9935
vn -0.7109 0.0549 -0.7011
vn -0.9983 -0.0575 -0.0005
vn -0.9974 -0.0720 -0.0004
vn -0.7102 0.0350 -0.7031
vn -0.7102 0.0350 -0.7031
vn -0.9974 -0.0720 -0.0004
vn -0.9948 -0.1017 -0.0024
vn -0.7072 -0.0066 -0.7069
vn -0.0048 0.1140 -0.9935
vn -0.7102 0.0350 -0.7031
vn -0.7072 -0.0066 -0.7069
vn -0.0015 0.0715 -0.9974
vn -0.9985 -0.0554 -0.0006
vn -0.7010 -0.1362 0.7000
vn -0.7010 -0.1362 0.7000
vn -0.9985 -0.0554 -0.0006
vn -0.7010 -0.1362 0.7000
vn 0.0070 -0.1372 0.9905
vn 0.0070 -0.1371 0.9905
vn -0.7010 -0.1362 0.7000
vn -0.7010 -0.1362 0.7000
vn 0.0070 -0.1371 0.9905
vn 0.0072 -0.1371 0.9905
vn -0.7007 -0.1370 0.7001
vn -0.9985 -0.0554 -0.0006
vn -0.7010 -0.1362 0.7000
vn -0.7007 -0.1370 0.7001
vn -0.9983 -0.0575 -0.0005
vn 0.0070 -0.1372 0.9905
vn 0.7110 -0.0578 0.7008
vn 0.7110 -0.0578 0.7008
vn 0.0070 -0.1371 0.9905
vn 0.7110 -0.0578 0.7008
vn 0.9985 0.0554 0.0006
vn 0.9985 0.0554 0.0006
vn 0.7110 -0.0578 0.7008
vn 0.7110 -0.0578 0.7008
vn 0.9985 0.0554 0.0006
vn 0.9985 0.0544 0.0009
vn 0.7109 -0.0578 0.7009
vn 0.0070 -0.1371 0.9905
vn 0.7110 -0.0578 0.7008
vn 0.7109 -0.0578 0.7009
vn 0.0072 -0.1371 0.9905
vn 0.9985 0.0554 0.0006
vn 0.7010 0.1362 -0.7000
vn 0.7010 0.1362 -0.7000
vn 0.9985 0.0554 0.0006
vn 0.7010 0.1362 -0.7000
vn -0.0070 0.1372 -0.9905
vn -0.0070 0.1372 -0.9905
vn 0.7010 0.1362 -0.7000
vn 0.7010 0.1362 -0.7000
vn -0.0070 0.1372 -0.9905
vn -0.0067 0.1343 -0.9909
vn 0.7014 0.1340 -0.7001
vn 0.9985 0.0554 0.0006
vn 0.7010 0.1362 -0.7000
vn 0.7014 0.1340 -0.7001
vn 0.9985 0.0544 0.0009
vn -0.0070 0.1372 -0.9905
vn -0.7110 0.0578 -0.7008
vn -0.7110 0.0579 -0.7008
vn -0.0070 0.1372 -0.9905
vn -0.7110 0.0578 -0.7008
vn -0.9985 -0.0554 -0.0006
vn -0.9985 -0.0554 -0.0006
vn -0.7110 0.0579 -0.7008
vn -0.7110 0.0579 -0.7008
vn -0.9985 -0.0554 -0.0006
vn -0.9983 -0.0575 -0.0005
vn -0.7109 0.0549 -0.7011
vn -0.0070 0.1372 -0.9905
vn -0.7110 0.0579 -0.7008
vn -0.7109 0.0549 -0.7011
vn -0.0067 0.1343 -0.9909
vn -0.9983 -0.0580 -0.0009
vn -0.7009 -0.1387 0.6996
vn -0.7010 -0.1362 0.7000
vn -0.9985 -0.0554 -0.0006
vn -0.7009 -0.1387 0.6996
vn 0.0072 -0.1398 0.9902
vn 0.0070 -0.1372 0.9905
vn -0.7010 -0.1362 0.7000
vn -0.7010 -0.1362 0.7000
vn 0.0070 -0.1372 0.9905
vn 0.0070 -0.1372 0.9905
vn -0.7010 -0.1362 0.7000
vn -0.9985 -0.0554 -0.0006
vn -0.7010 -0.1362 0.7000
vn -0.7010 -0.1362 0.7000
vn -0.9985 -0.0554 -0.0006
vn 0.0072 -0.1398 0.9902
vn 0.7111 -0.0604 0.7005
vn 0.7110 -0.0578 0.7008
vn 0.0070 -0.1372 0.9905
vn 0.7111 -0.0604 0.7005
vn 0.9986 0.0528 0.0002
vn 0.9985 0.0554 0.0006
vn 0.7110 -0.0578 0.7008
vn 0.7110 -0.0578 0.7008
vn 0.9985 0.0554 0.0006
vn 0.9985 0.0554 0.0006
vn 0.7110 -0.0578 0.7008
vn 0.0070 -0.1372 0.9905
vn 0.7110 -0.0578 0.7008
vn 0.7110 -0.0578 0.7008
vn 0.0070 -0.1372 0.9905
vn 0.9986 0.0528 0.0002
vn 0.7012 0.1336 -0.7003
vn 0.7010 0.1362 -0.7000
vn 0.9985 0.0554 0.0006
vn 0.7012 0.1336 -0.7003
vn -0.0069 0.1346 -0.9909
vn -0.0070 0.1372 -0.9905
vn 0.7010 0.1362 -0.7000
vn 0.7010 0.1362 -0.7000
vn -0.0070 0.1372 -0.9905
vn -0.0070 0.1372 -0.9905
vn 0.7010 0.1362 -0.7000
vn 0.9985 0.0554 0.0006
vn 0.7010 0.1362 -0.7000
vn 0.7010 0.1362 -0.7000
vn 0.9985 0.0554 0.0006
vn -0.0069 0.1346 -0.9909
vn -0.7109 0.0553 -0.7012
vn -0.7110 0.0578 -0.7008
vn -0.0070 0.1372 -0.9905
vn -0.7109 0.0553 -0.7012
vn -0.9983 -0.0580 -0.0009
vn -0.9985 -0.0554 -0.0006
vn -0.7110 0.0578 -0.7008
vn -0.7110 0.0578 -0.7008
vn -0.9985 -0.0554 -0.0006
vn -0.9985 -0.0554 -0.0006
vn -0.7110 0.0578 -0.7008
vn -0.0070 0.1372 -0.9905
vn -0.7110 0.0578 -0.7008
vn -0.7110 0.0578 -0.7008
vn -0.0070 0.1372 -0.9905
vn -0.9860 -0.1660 -0.0160
vn -0.6908 -0.2436 0.6807
vn -0.6996 -0.1586 0.6967
vn -0.9969 -0.0785 -0.0038
vn -0.6908 -0.2436 0.6807
vn 0.0132 -0.2473 0.9689
vn 0.0083 -0.1603 0.9870
vn -0.6996 -0.1586 0.6967
vn -0.6996 -0.1586 0.6967
vn 0.0083 -0.1603 0.9870
vn 0.0072 -0.1398 0.9902
vn -0.7009 -0.1387 0.6996
vn -0.9969 -0.0785 -0.0038
vn -0.6996 -0.1586 0.6967
vn -0.7009 -0.1387 0.6996
vn -0.9983 -0.0580 -0.0009
vn 0.0132 -0.2473 0.9689
vn 0.7127 -0.1658 0.6816
vn 0.7121 -0.0803 0.6975
vn 0.0083 -0.1603 0.9870
vn 0.7127 -0.1658 0.6816
vn 0.9983 -0.0559 -0.0148
vn 0.9995 0.0322 -0.0026
vn 0.7121 -0.0803 0.6975
vn 0.7121 -0.0803 0.6975
vn 0.9995 0.0322 -0.0026
vn 0.9986 0.0528 0.0002
vn 0.7111 -0.0604 0.7005
vn 0.0083 -0.1603 0.9870
vn 0.7121 -0.0803 0.6975
vn 0.7111 -0.0604 0.7005
vn 0.0072 -0.1398 0.9902
vn 0.9983 -0.0559 -0.0148
vn 0.7028 0.0271 -0.7108
vn 0.7021 0.1136 -0.7029
vn 0.9995 0.0322 -0.0026
vn 0.7028 0.0271 -0.7108
vn -0.0008 0.0254 -0.9997
vn -0.0058 0.1140 -0.9935
vn 0.7021 0.1136 -0.7029
vn 0.7021 0.1136 -0.7029
vn -0.0058 0.1140 -0.9935
vn -0.0069 0.1346 -0.9909
vn 0.7012 0.1336 -0.7003
vn 0.9995 0.0322 -0.0026
vn 0.7021 0.1136 -0.7029
vn 0.7012 0.1336 -0.7003
vn 0.9986 0.0528 0.0002
vn -0.0008 0.0254 -0.9997
vn -0.7007 -0.0508 -0.7116
vn -0.7096 0.0353 -0.7038
vn -0.0058 0.1140 -0.9935
vn -0.7007 -0.0508 -0.7116
vn -0.9860 -0.1660 -0.0160
vn -0.9969 -0.0785 -0.0038
vn -0.7096 0.0353 -0.7038
vn -0.7096 0.0353 -0.7038
vn -0.9969 -0.0785 -0.0038
vn -0.9983 -0.0580 -0.0009
vn -0.7109 0.0553 -0.7012
vn -0.0058 0.1140 -0.9935
vn -0.7096 0.0353 -0.7038
vn -0.7109 0.0553 -0.7012
vn -0.0069 0.1346 -0.9909
vn -0.5413 -0.8334 -0.1116
vn -0.3090 -0.9209 0.2375
vn -0.6156 -0.5329 0.5806
vn -0.8827 -0.4662 -0.0583
vn -0.3090 -0.9209 0.2375
vn 0.0486 -0.8814 0.4699
vn 0.0295 -0.5404 0.8409
vn -0.6156 -0.5329 0.5806
vn -0.6156 -0.5329 0.5806
vn 0.0295 -0.5404 0.8409
vn 0.0132 -0.2473 0.9689
vn -0.6908 -0.2436 0.6807
vn -0.8827 -0.4662 -0.0583
vn -0.6156 -0.5329 0.5806
vn -0.6908 -0.2436 0.6807
vn -0.9860 -0.1660 -0.0160
vn 0.0486 -0.8814 0.4699
vn 0.4087 -0.8811 0.2379
vn 0.6701 -0.4616 0.5813
vn 0.0295 -0.5404 0.8409
vn 0.4087 -0.8811 0.2379
vn 0.6303 -0.7684 -0.1109
vn 0.9290 -0.3657 -0.0573
vn 0.6701 -0.4616 0.5813
vn 0.6701 -0.4616 0.5813
vn 0.9290 -0.3657 -0.0573
vn 0.9983 -0.0559 -0.0148
vn 0.7127 -0.1658 0.6816
vn 0.0295 -0.5404 0.8409
vn 0.6701 -0.4616 0.5813
vn 0.7127 -0.1658 0.6816
vn 0.0132 -0.2473 0.9689
vn 0.6303 -0.7684 -0.1109
vn 0.4037 -0.7825 -0.4741
vn 0.6610 -0.2850 -0.6941
vn 0.9290 -0.3657 -0.0573
vn 0.4037 -0.7825 -0.4741
vn 0.0404 -0.7204 -0.6924
vn 0.0167 -0.2915 -0.9564
vn 0.6610 -0.2850 -0.6941
vn 0.6610 -0.2850 -0.6941
vn 0.0167 -0.2915 -0.9564
vn -0.0008 0.0254 -0.9997
vn 0.7028 0.0271 -0.7108
vn 0.9290 -0.3657 -0.0573
vn 0.6610 -0.2850 -0.6941
vn 0.7028 0.0271 -0.7108
vn 0.9983 -0.0559 -0.0148
vn 0.0404 -0.7204 -0.6924
vn -0.3141 -0.8223 -0.4745
vn -0.6246 -0.3563 -0.6949
vn 0.0167 -0.2915 -0.9564
vn -0.3141 -0.8223 -0.4745
vn -0.5413 -0.8334 -0.1116
vn -0.8827 -0.4662 -0.0583
vn -0.6246 -0.3563 -0.6949
vn -0.6246 -0.3563 -0.6949
vn -0.8827 -0.4662 -0.0583
vn -0.9860 -0.1660 -0.0160
vn -0.7007 -0.0508 -0.7116
vn 0.0167 -0.2915 -0.9564
vn -0.6246 -0.3563 -0.6949
vn -0.7007 -0.0508 -0.7116
vn -0.0008 0.0254 -0.9997
f 1/1/1 38/2/2 105/3/3 37/4/4
f 38/5/5 2/6/6 39/7/7 105/8/8
f 105/9/9 39/10/10 3/11/11 40/12/12
f 37/13/13 105/14/14 40/15/15 4/16/16
f 16/17/17 42/18/18 106/19/19 41/20/20
f 42/21/21 15/22/22 43/23/23 106/24/24
f 106/25/25 43/26/26 14/27/27 44/28/28
f 41/29/29 106/30/30 44/31/31 13/32/32
f 17/33/33 46/34/34 107/35/35 45/36/36
f 46/37/37 18/38/38 47/39/39 107/40/40
f 107/41/41 47/42/42 2/43/43 38/44/44
f 45/45/45 107/46/46 38/47/47 1/48/48
f 18/49/49 48/50/50 108/51/51 47/52/52
f 48/53/53 19/54/54 49/55/55 108/56/56
f 108/57/57 49/58/58 3/59/59 39/60/60
f 47/61/61 108/62/62 39/63/63 2/64/64
f 19/65/65 50/66/66 109/67/67 49/68/68
f 50/69/69 20/70/70 51/71/71 109/72/72
f 109/73/73 51/74/74 4/75/75 40/76/76
f 49/77/77 109/78/78 40/79/79 3/80/80
f 20/81/81 52/82/82 110/83/83 51/84/84
f 52/85/85 17/86/86 45/87/87 110/88/88
f 110/89/89 45/90/90 1/91/91 37/92/92
f 51/93/93 110/94/94 37/95/95 4/96/96
f 21/97/97 54/98/98 111/99/99 53/100/100
f 54/101/101 22/102/102 55/103/103 111/104/104
f 111/105/105 55/106/106 18/107/107 46/108/108
f 53/109/109 111/110/110 46/111/111 17/112/112
f 22/113/113 56/114/114 112/115/115 55/116/116
f 56/117/117 23/118/118 57/119/119 112/120/120
f 112/121/121 57/122/122 19/123/123 48/124/124
f 55/125/125 112/126/126 48/127/127 18/128/128
f 23/129/129 58/130/130 113/131/131 57/132/132
f 58/133/133 24/134/134 59/135/135 113/136/136
f 113/137/137 59/138/138 20/139/139 50/140/140
f 57/141/141 113/142/142 50/143/143 19/144/144
f 24/145/145 60/146/146 114/147/147 59/148/148
f 60/149/149 21/150/150 53/151/151 114/152/152
f 114/153/153 53/154/154 17/155/155 52/156/156
f 59/157/157 114/158/158 52/159/159 20/160/160
f 5/161/161 62/162/162 115/163/163 61/164/164
f 62/165/165 6/166/166 63/167/167 115/168/168
f 115/169/169 63/170/170 22/171/171 54/172/172
f 61/173/173 115/174/174 54/175/175 21/176/176
f 6/177/177 64/178/178 116/179/179 63/180/180
f 64/181/181 7/182/182 65/183/183 116/184/184
f 116/185/185 65/186/186 23/187/187 56/188/188
f 63/189/189 116/190/190 56/191/191 22/192/192
f 7/193/193 66/194/194 117/195/195 65/196/196
f 66/197/197 8/198/198 67/199/199 117/200/200
f 117/201/201 67/202/202 24/203/203 58/204/204
f 65/205/205 117/206/206 58/207/207 23/208/208
f 8/209/209 68/210/210 118/211/211 67/212/212
f 68/213/213 5/214/214 61/215/215 118/216/216
f 118/217/217 61/218/218 21/219/219 60/220/220
f 67/221/221 118/222/222 60/223/223 24/224/224
f 25/225/225 70/226/226 119/227/227 69/228/228
f 70/229/229 26/230/230 71/231/231 119/232/232
f 119/233/233 71/234/234 6/235/235 62/236/236
f 69/237/237 119/238/238 62/239/239 5/240/240
f 26/241/241 72/242/242 120/243/243 71/244/244
f 72/245/245 27/246/246 73/247/247 120/248/248
f 120/249/249 73/250/250 7/251/251 64/252/252
f 71/253/253 120/254/254 64/255/255 6/256/256
f 27/257/257 74/258/258 121/259/259 73/260/260
f 74/261/261 28/262/262 75/263/263 121/264/264
f 121/265/265 75/266/266 8/267/267 66/268/268
f 73/269/269 121/270/270 66/271/271 7/272/272
f 28/273/273 76/274/274 122/275/275 75/276/276
f 76/277/277 25/278/278 69/279/279 122/280/280
f 122/281/281 69/282/282 5/283/283 68/284/284
f 75/285/285 122/286/286 68/287/287 8/288/288
f 29/289/289 78/290/290 123/291/291 77/292/292
f 78/293/293 30/294/294 79/295/295 123/296/296
f 123/297/297 79/298/298 26/299/299 70/300/300
f 77/301/301 123/302/302 70/303/303 25/304/304
f 30/305/305 80/306/306 124/307/307 79/308/308
f 80/309/309 31/310/310 81/311/311 124/312/312
f 124/313/313 81/314/314 27/315/315 72/316/316
f 79/317/317 124/318/318 72/319/319 26/320/320
f 31/321/321 82/322/322 125/323/323 81/324/324
f 82/325/325 32/326/326 83/327/327 125/328/328
f 125/329/329 83/330/330 28/331/331 74/332/332
f 81/333/333 125/334/334 74/335/335 27/336/336
f 32/337/337 84/338/338 126/339/339 83/340/340
f 84/341/341 29/342/342 77/343/343 126/344/344
f 126/345/345 77/346/346 25/347/347 76/348/348
f 83/349/349 126/350/350 76/351/351 28/352/352
f 33/353/353 86/354/354 127/355/355 85/356/356
f 86/357/357 34/358/358 87/359/359 127/360/360
f 127/361/361 87/362/362 30/363/363 78/364/364
f 85/365/365 127/366/366 78/367/367 29/368/368
f 34/369/369 88/370/370 128/371/371 87/372/372
f 88/373/373 35/374/374 89/375/375 128/376/376
f 128/377/377 89/378/378 31/379/379 80/380/380
f 87/381/381 128/382/382 80/383/383 30/384/384
f 35/385/385 90/386/386 129/387/387 89/388/388
f 90/389/389 36/390/390 91/391/391 129/392/392
f 129/393/393 91/394/394 32/395/395 82/396/396
f 89/397/397 129/398/398 82/399/399 31/400/400
f 36/401/401 92/402/402 130/403/403 91/404/404
f 92/405/405 33/406/406 85/407/407 130/408/408
f 130/409/409 85/410/410 29/411/411 84/412/412
f 91/413/413 130/414/414 84/415/415 32/416/416
f 9/417/417 94/418/418 131/419/419 93/420/420
f 94/421/421 10/422/422 95/423/423 131/424/424
f 131/425/425 95/426/426 34/427/427 86/428/428
f 93/429/429 131/430/430 86/431/431 33/432/432
f 10/433/433 96/434/434 132/435/435 95/436/436
f 96/437/437 11/438/438 97/439/439 132/440/440
f 132/441/441 97/442/442 35/443/443 88/444/444
f 95/445/445 132/446/446 88/447/447 34/448/448
f 11/449/449 98/450/450 133/451/451 97/452/452
f 98/453/453 12/454/454 99/455/455 133/456/456
f 133/457/457 99/458/458 36/459/459 90/460/460
f 97/461/461 133/462/462 90/463/463 35/464/464
f 12/465/465 100/466/466 134/467/467 99/468/468
f 100/469/469 9/470/470 93/471/471 134/472/472
f 134/473/473 93/474/474 33/475/475 92/476/476
f 99/477/477 134/478/478 92/479/479 36/480/480
f 13/481/481 44/482/482 135/483/483 101/484/484
f 44/485/485 14/486/486 102/487/487 135/488/488
f 135/489/489 102/490/490 10/491/491 94/492/492
f 101/493/493 135/494/494 94/495/495 9/496/496
f 14/497/497 43/498/498 136/499/499 102/500/500
f 43/501/501 15/502/502 103/503/503 136/504/504
f 136/505/505 103/506/506 11/507/507 96/508/508
f 102/509/509 136/510/510 96/511/511 10/512/512
f 15/513/513 42/514/514 137/515/515 103/516/516
f 42/517/517 16/518/518 104/519/519 137/520/520
f 137/521/521 104/522/522 12/523/523 98/524/524
f 103/525/525 137/526/526 98/527/527 11/528/528
f 16/529/529 41/530/530 138/531/531 104/532/532
f 41/533/533 13/534/534 101/535/535 138/536/536
f 138/537/537 101/538/538 9/539/539 100/540/540
f 104/541/541 138/542/542 100/543/543 12/544/544
