# right_arm - exported from blender/silhouette.blend by tools/blender_export.py
o right_arm
v -0.04672 -0.00089 -0.02273
v -0.04730 -0.00040 0.02255
v -0.02033 0.03441 0.02273
v -0.01975 0.03392 -0.02255
v -0.03120 -0.03335 -0.03357
v -0.03323 -0.03136 0.03511
v 0.02113 0.00700 0.03598
v 0.02316 0.00501 -0.03270
v 0.01185 -0.25224 -0.00855
v 0.00978 -0.25073 0.04078
v 0.05871 -0.24411 0.04262
v 0.06078 -0.24561 -0.00671
v 0.04246 -0.53390 -0.01288
v 0.04025 -0.53418 0.04641
v 0.09907 -0.52683 0.04864
v 0.10129 -0.52655 -0.01065
v 0.05634 -0.57209 -0.00313
v 0.05483 -0.57228 0.03737
v 0.09502 -0.56725 0.03889
v 0.09653 -0.56706 -0.00161
v -0.01508 -0.10661 -0.02580
v -0.01786 -0.10297 0.03771
v 0.04293 -0.08836 0.03973
v 0.04571 -0.09201 -0.02379
v -0.00060 -0.18375 -0.01583
v -0.00313 -0.18046 0.03924
v 0.05150 -0.17259 0.04129
v 0.05404 -0.17588 -0.01379
v 0.01912 -0.31374 -0.00840
v 0.01720 -0.31370 0.04225
v 0.06745 -0.30734 0.04416
v 0.06938 -0.30737 -0.00649
v 0.02615 -0.38343 -0.01021
v 0.02413 -0.38368 0.04393
v 0.07784 -0.37697 0.04597
v 0.07986 -0.37671 -0.00817
v 0.03386 -0.45995 -0.01218
v 0.03170 -0.46022 0.04576
v 0.08920 -0.45303 0.04794
v 0.09136 -0.45276 -0.01000
v -0.03568 0.01774 -0.02708
v -0.05149 -0.00335 -0.00009
v -0.03627 0.01824 0.02708
v -0.02045 0.03932 0.00009
v 0.07689 -0.57199 -0.00650
v 0.10018 -0.56908 0.01880
v 0.07507 -0.57221 0.04226
v 0.05179 -0.57512 0.01696
v -0.04167 -0.01310 -0.03078
v -0.04241 -0.03955 0.00061
v -0.04287 -0.01205 0.03068
v -0.00643 -0.01181 0.04843
v -0.00146 0.03075 0.03109
v 0.03234 0.01320 0.00181
v -0.00026 0.02970 -0.03038
v -0.00364 -0.01454 -0.04601
v -0.02233 -0.06647 -0.03095
v -0.02787 -0.10753 0.00558
v -0.02491 -0.06350 0.03692
v 0.01202 -0.09498 0.05063
v 0.03542 -0.03724 0.03843
v 0.05572 -0.08745 0.00835
v 0.03799 -0.04021 -0.02944
v 0.01584 -0.09999 -0.03671
v -0.00784 -0.14620 -0.02063
v -0.01211 -0.18358 0.01132
v -0.01057 -0.14246 0.03845
v 0.02371 -0.17591 0.05059
v 0.04776 -0.13326 0.04060
v 0.06302 -0.17276 0.01413
v 0.05050 -0.13700 -0.01849
v 0.02720 -0.18043 -0.02514
v 0.00621 -0.21924 -0.01149
v 0.00165 -0.25273 0.01577
v 0.00392 -0.21677 0.04003
v 0.03386 -0.24714 0.05095
v 0.05501 -0.20959 0.04194
v 0.06891 -0.24362 0.01830
v 0.05730 -0.21206 -0.00957
v 0.03670 -0.24921 -0.01688
v 0.01589 -0.28287 -0.00781
v 0.00874 -0.31491 0.01657
v 0.01393 -0.28223 0.04150
v 0.04196 -0.31051 0.05270
v 0.06284 -0.27586 0.04336
v 0.07784 -0.30616 0.01919
v 0.06480 -0.27650 -0.00595
v 0.04461 -0.31056 -0.01694
v 0.02251 -0.34736 -0.00927
v 0.01506 -0.38481 0.01648
v 0.02055 -0.34757 0.04306
v 0.05060 -0.38037 0.05510
v 0.07248 -0.34107 0.04503
v 0.08893 -0.37558 0.01928
v 0.07444 -0.34086 -0.00730
v 0.05338 -0.38002 -0.01934
v 0.02994 -0.42108 -0.01118
v 0.02200 -0.46143 0.01638
v 0.02785 -0.42134 0.04483
v 0.06004 -0.45667 0.05772
v 0.08343 -0.41439 0.04694
v 0.10106 -0.45155 0.01938
v 0.08552 -0.41413 -0.00907
v 0.06302 -0.45630 -0.02196
v 0.03794 -0.49900 -0.01304
v 0.03032 -0.53542 0.01635
v 0.03572 -0.49928 0.04656
v 0.06924 -0.53056 0.05864
v 0.09486 -0.49188 0.04880
v 0.11121 -0.52531 0.01941
v 0.09708 -0.49161 -0.01080
v 0.07229 -0.53018 -0.02288
v 0.04829 -0.55964 -0.01009
v 0.04627 -0.55989 0.04382
v 0.09976 -0.55321 0.04585
v 0.10177 -0.55296 -0.00806
v -0.04111 0.02056 0.00000
v 0.07662 -0.57720 0.01788
v -0.05010 -0.02053 -0.00012
v -0.02262 0.00965 0.04233
v 0.00649 0.03842 0.00042
v -0.02100 0.00823 -0.04203
v -0.03493 -0.06991 0.00270
v 0.00477 -0.04981 0.05040
v 0.04802 -0.03380 0.00477
v 0.00831 -0.05390 -0.04292
v -0.02014 -0.14605 0.00851
v 0.01808 -0.13716 0.05060
v 0.06007 -0.13341 0.01146
v 0.02184 -0.14230 -0.03064
v -0.00452 -0.21935 0.01391
v 0.02904 -0.21271 0.05064
v 0.06573 -0.20948 0.01655
v 0.03218 -0.21611 -0.02018
v 0.00574 -0.28374 0.01650
v 0.03802 -0.27892 0.05167
v 0.07299 -0.27499 0.01905
v 0.04071 -0.27981 -0.01613
v 0.01179 -0.34868 0.01653
v 0.04615 -0.34436 0.05386
v 0.08320 -0.33974 0.01923
v 0.04884 -0.34407 -0.01810
v 0.01848 -0.42251 0.01643
v 0.05525 -0.41791 0.05639
v 0.09490 -0.41296 0.01933
v 0.05812 -0.41755 -0.02063
v 0.02574 -0.50052 0.01634
v 0.06487 -0.49563 0.05885
v 0.10706 -0.49036 0.01942
v 0.06793 -0.49525 -0.02309
v 0.03732 -0.56126 0.01649
v 0.07267 -0.55684 0.05490
v 0.11079 -0.55207 0.01927
v 0.07544 -0.55649 -0.01914
vt 0.0300 0.5000
vt 0.0300 0.5000
vt 0.0300 0.5000
vt 0.0300 0.5000
vt 0.0300 0.5000
vt 0.0300 0.5000
vt 0.0300 0.5000
vt 0.0300 0.5000
vt 0.0300 0.5000
vt 0.0300 0.5000
vt 0.0300 0.5000
vt 0.0300 0.5000
vt 0.0300 0.5000
vt 0.0300 0.5000
vt 0.0300 0.5000
vt 0.0300 0.5000
vt 0.0300 0.5000
vt 0.0300 0.5000
vt 0.0300 0.5000
vt 0.0300 0.5000
vt 0.0300 0.5000
vt 0.0300 0.5000
vt 0.0300 0.5000
vt 0.0300 0.5000
vt 0.0300 0.5000
vt 0.0300 0.5000
vt 0.0300 0.5000
vt 0.0300 0.5000
vt 0.0300 0.5000
vt 0.0300 0.5000
vt 0.0300 0.5000
vt 0.0300 0.5000
vt 0.0300 0.5000
vt 0.0300 0.5000
vt 0.0300 0.5000
vt 0.0300 0.5000
vt 0.0300 0.5000
vt 0.0300 0.5000
vt 0.0300 0.5000
vt 0.0300 0.5000
vt 0.0300 0.5000
vt 0.0300 0.5000
vt 0.0300 0.5000
vt 0.0300 0.5000
vt 0.0300 0.5000
vt 0.0300 0.5000
vt 0.0300 0.5000
vt 0.0300 0.5000
vt 0.0300 0.5000
vt 0.0300 0.5000
vt 0.0300 0.5000
vt 0.0300 0.5000
vt 0.0300 0.5000
vt 0.0300 0.5000
vt 0.0300 0.5000
vt 0.0300 0.5000
vt 0.0300 0.5000
vt 0.0300 0.5000
vt 0.0300 0.5000
vt 0.0300 0.5000
vt 0.0300 0.5000
vt 0.0300 0.5000
vt 0.0300 0.5000
vt 0.0300 0.5000
vt 0.0300 0.5000
vt 0.0300 0.5000
vt 0.0300 0.5000
vt 0.0300 0.5000
vt 0.0300 0.5000
vt 0.0300 0.5000
vt 0.0300 0.5000
vt 0.0300 0.5000
vt 0.0300 0.5000
vt 0.0300 0.5000
vt 0.0300 0.5000
vt 0.0300 0.5000
vt 0.0300 0.5000
vt 0.0300 0.5000
vt 0.0300 0.5000
vt 0.0300 0.5000
vt 0.0300 0.5000
vt 0.0300 0.5000
vt 0.0300 0.5000
vt 0.0300 0.5000
vt 0.0300 0.5000
vt 0.0300 0.5000
vt 0.0300 0.5000
vt 0.0300 0.5000
vt 0.0300 0.5000
vt 0.0300 0.5000
vt 0.0300 0.5000
vt 0.0300 0.5000
vt 0.0300 0.5000
vt 0.0300 0.5000
vt 0.0300 0.5000
vt 0.0300 0.5000
vt 0.0300 0.5000
vt 0.0300 0.5000
vt 0.0300 0.5000
vt 0.0300 0.5000
vt 0.0300 0.5000
vt 0.0300 0.5000
vt 0.0300 0.5000
vt 0.0300 0.5000
vt 0.0300 0.5000
vt 0.0300 0.5000
vt 0.0300 0.5000
vt 0.0300 0.5000
vt 0.0300 0.5000
vt 0.0300 0.5000
vt 0.0300 0.5000
vt 0.0300 0.5000
vt 0.0300 0.5000
vt 0.0300 0.5000
vt 0.0300 0.5000
vt 0.0300 0.5000
vt 0.0300 0.5000
vt 0.0300 0.5000
vt 0.0300 0.5000
vt 0.0300 0.5000
vt 0.0300 0.5000
vt 0.0300 0.5000
vt 0.0300 0.5000
vt 0.0300 0.5000
vt 0.0300 0.5000
vt 0.0300 0.5000
vt 0.0300 0.5000
vt 0.0300 0.5000
vt 0.0300 0.5000
vt 0.0300 0.5000
vt 0.0300 0.5000
vt 0.0300 0.5000
vt 0.0300 0.5000
vt 0.0300 0.5000
vt 0.0300 0.5000
vt 0.0300 0.5000
vt 0.0300 0.5000
vt 0.0300 0.5000
vt 0.0300 0.5000
vt 0.0300 0.5000
vt 0.0300 0.5000
vt 0.0300 0.5000
vt 0.0300 0.5000
vt 0.0300 0.5000
vt 0.0300 0.5000
vt 0.0300 0.5000
vt 0.0300 0.5000
vt 0.0300 0.5000
vt 0.0300 0.5000
vt 0.0300 0.5000
vt 0.0300 0.5000
vt 0.0300 0.5000
vt 0.0300 0.5000
vt 0.0300 0.5000
vt 0.0300 0.5000
vt 0.0300 0.5000
vt 0.0300 0.5000
vt 0.0300 0.5000
vt 0.0300 0.5000
vt 0.0300 0.5000
vt 0.0300 0.5000
vt 0.0300 0.5000
vt 0.0300 0.5000
vt 0.0300 0.5000
vt 0.0300 0.5000
vt 0.0300 0.5000
vt 0.0300 0.5000
vt 0.0300 0.5000
vt 0.0300 0.5000
vt 0.0300 0.5000
vt 0.0300 0.5000
vt 0.0300 0.5000
vt 0.0300 0.5000
vt 0.0300 0.5000
vt 0.0300 0.5000
vt 0.0300 0.5000
vt 0.0300 0.5000
vt 0.0300 0.5000
vt 0.0300 0.5000
vt 0.0300 0.5000
vt 0.0300 0.5000
vt 0.0300 0.5000
vt 0.0300 0.5000
vt 0.0300 0.5000
vt 0.0300 0.5000
vt 0.0300 0.5000
vt 0.0300 0.5000
vt 0.0300 0.5000
vt 0.0300 0.5000
vt 0.0300 0.5000
vt 0.0300 0.5000
vt 0.0300 0.5000
vt 0.0300 0.5000
vt 0.0300 0.5000
vt 0.0300 0.5000
vt 0.0300 0.5000
vt 0.0300 0.5000
vt 0.0300 0.5000
vt 0.0300 0.5000
vt 0.0300 0.5000
vt 0.0300 0.5000
vt 0.0300 0.5000
vt 0.0300 0.5000
vt 0.0300 0.5000
vt 0.0300 0.5000
vt 0.0300 0.5000
vt 0.0300 0.5000
vt 0.0300 0.5000
vt 0.0300 0.5000
vt 0.0300 0.5000
vt 0.0300 0.5000
vt 0.0300 0.5000
vt 0.0300 0.5000
vt 0.0300 0.5000
vt 0.0300 0.5000
vt 0.0300 0.5000
vt 0.0300 0.5000
vt 0.0300 0.5000
vt 0.0300 0.5000
vt 0.0300 0.5000
vt 0.0300 0.5000
vt 0.0300 0.5000
vt 0.0300 0.5000
vt 0.0300 0.5000
vt 0.0300 0.5000
vt 0.0300 0.5000
vt 0.0300 0.5000
vt 0.0300 0.5000
vt 0.0300 0.5000
vt 0.0300 0.5000
vt 0.0300 0.5000
vt 0.0300 0.5000
vt 0.0300 0.5000
vt 0.0300 0.5000
vt 0.0300 0.5000
vt 0.0300 0.5000
vt 0.0300 0.5000
vt 0.0300 0.5000
vt 0.0300 0.5000
vt 0.0300 0.5000
vt 0.0300 0.5000
vt 0.0300 0.5000
vt 0.0300 0.5000
vt 0.0300 0.5000
vt 0.0300 0.5000
vt 0.0300 0.5000
vt 0.0300 0.5000
vt 0.0300 0.5000
vt 0.0300 0.5000
vt 0.0300 0.5000
vt 0.0300 0.5000
vt 0.0300 0.5000
vt 0.0300 0.5000
vt 0.0300 0.5000
vt 0.0300 0.5000
vt 0.0300 0.5000
vt 0.0300 0.5000
vt 0.0300 0.5000
vt 0.0300 0.5000
vt 0.0300 0.5000
vt 0.0300 0.5000
vt 0.0300 0.5000
vt 0.0300 0.5000
vt 0.0300 0.5000
vt 0.0300 0.5000
vt 0.0300 0.5000
vt 0.0300 0.5000
vt 0.0300 0.5000
vt 0.0300 0.5000
vt 0.0300 0.5000
vt 0.0300 0.5000
vt 0.0300 0.5000
vt 0.0300 0.5000
vt 0.0300 0.5000
vt 0.0300 0.5000
vt 0.0300 0.5000
vt 0.0300 0.5000
vt 0.0300 0.5000
vt 0.0300 0.5000
vt 0.0300 0.5000
vt 0.0300 0.5000
vt 0.0300 0.5000
vt 0.0300 0.5000
vt 0.0300 0.5000
vt 0.0300 0.5000
vt 0.0300 0.5000
vt 0.0300 0.5000
vt 0.0300 0.5000
vt 0.0300 0.5000
vt 0.0300 0.5000
vt 0.0300 0.5000
vt 0.0300 0.5000
vt 0.0300 0.5000
vt 0.0300 0.5000
vt 0.0300 0.5000
vt 0.0300 0.5000
vt 0.0300 0.5000
vt 0.0300 0.5000
vt 0.0300 0.5000
vt 0.0300 0.5000
vt 0.0300 0.5000
vt 0.0300 0.5000
vt 0.0300 0.5000
vt 0.0300 0.5000
vt 0.0300 0.5000
vt 0.0300 0.5000
vt 0.0300 0.5000
vt 0.0300 0.5000
vt 0.0300 0.5000
vt 0.0300 0.5000
vt 0.0300 0.5000
vt 0.0300 0.5000
vt 0.0300 0.5000
vt 0.0300 0.5000
vt 0.0300 0.5000
vt 0.0300 0.5000
vt 0.0300 0.5000
vt 0.0300 0.5000
vt 0.0300 0.5000
vt 0.0300 0.5000
vt 0.0300 0.5000
vt 0.0300 0.5000
vt 0.0300 0.5000
vt 0.0300 0.5000
vt 0.0300 0.5000
vt 0.0300 0.5000
vt 0.0300 0.5000
vt 0.0300 0.5000
vt 0.0300 0.5000
vt 0.0300 0.5000
vt 0.0300 0.5000
vt 0.0300 0.5000
vt 0.0300 0.5000
vt 0.0300 0.5000
vt 0.0300 0.5000
vt 0.0300 0.5000
vt 0.0300 0.5000
vt 0.0300 0.5000
vt 0.0300 0.5000
vt 0.0300 0.5000
vt 0.0300 0.5000
vt 0.0300 0.5000
vt 0.0300 0.5000
vt 0.0300 0.5000
vt 0.0300 0.5000
vt 0.0300 0.5000
vt 0.0300 0.5000
vt 0.0300 0.5000
vt 0.0300 0.5000
vt 0.0300 0.5000
vt 0.0300 0.5000
vt 0.0300 0.5000
vt 0.0300 0.5000
vt 0.0300 0.5000
vt 0.0300 0.5000
vt 0.0300 0.5000
vt 0.0300 0.5000
vt 0.0300 0.5000
vt 0.0300 0.5000
vt 0.0300 0.5000
vt 0.0300 0.5000
vt 0.0300 0.5000
vt 0.0300 0.5000
vt 0.0300 0.5000
vt 0.0300 0.5000
vt 0.0300 0.5000
vt 0.0300 0.5000
vt 0.0300 0.5000
vt 0.0300 0.5000
vt 0.0300 0.5000
vt 0.0300 0.5000
vt 0.0300 0.5000
vt 0.0300 0.5000
vt 0.0300 0.5000
vt 0.0300 0.5000
vt 0.0300 0.5000
vt 0.0300 0.5000
vt 0.0300 0.5000
vt 0.0300 0.5000
vt 0.0300 0.5000
vt 0.0300 0.5000
vt 0.0300 0.5000
vt 0.0300 0.5000
vt 0.0300 0.5000
vt 0.0300 0.5000
vt 0.0300 0.5000
vt 0.0300 0.5000
vt 0.0300 0.5000
vt 0.0300 0.5000
vt 0.0300 0.5000
vt 0.0300 0.5000
vt 0.0300 0.5000
vt 0.0300 0.5000
vt 0.0300 0.5000
vt 0.0300 0.5000
vt 0.0300 0.5000
vt 0.0300 0.5000
vt 0.0300 0.5000
vt 0.0300 0.5000
vt 0.0300 0.5000
vt 0.0300 0.5000
vt 0.0300 0.5000
vt 0.0300 0.5000
vt 0.0300 0.5000
vt 0.0300 0.5000
vt 0.0300 0.5000
vt 0.0300 0.5000
vt 0.0300 0.5000
vt 0.0300 0.5000
vt 0.0300 0.5000
vt 0.0300 0.5000
vt 0.0300 0.5000
vt 0.0300 0.5000
vt 0.0300 0.5000
vt 0.0300 0.5000
vt 0.0300 0.5000
vt 0.0300 0.5000
vt 0.0300 0.5000
vt 0.0300 0.5000
vt 0.0300 0.5000
vt 0.0300 0.5000
vt 0.0300 0.5000
vt 0.0300 0.5000
vt 0.0300 0.5000
vt 0.0300 0.5000
vt 0.0300 0.5000
vt 0.0300 0.5000
vt 0.0300 0.5000
vt 0.0300 0.5000
vt 0.0300 0.5000
vt 0.0300 0.5000
vt 0.0300 0.5000
vt 0.0300 0.5000
vt 0.0300 0.5000
vt 0.0300 0.5000
vt 0.0300 0.5000
vt 0.0300 0.5000
vt 0.0300 0.5000
vt 0.0300 0.5000
vt 0.0300 0.5000
vt 0.0300 0.5000
vt 0.0300 0.5000
vt 0.0300 0.5000
vt 0.0300 0.5000
vt 0.0300 0.5000
vt 0.0300 0.5000
vt 0.0300 0.5000
vt 0.0300 0.5000
vt 0.0300 0.5000
vt 0.0300 0.5000
vt 0.0300 0.5000
vt 0.0300 0.5000
vt 0.0300 0.5000
vt 0.0300 0.5000
vt 0.0300 0.5000
vt 0.0300 0.5000
vt 0.0300 0.5000
vt 0.0300 0.5000
vt 0.0300 0.5000
vt 0.0300 0.5000
vt 0.0300 0.5000
vt 0.0300 0.5000
vt 0.0300 0.5000
vt 0.0300 0.5000
vt 0.0300 0.5000
vt 0.0300 0.5000
vt 0.0300 0.5000
vt 0.0300 0.5000
vt 0.0300 0.5000
vt 0.0300 0.5000
vt 0.0300 0.5000
vt 0.0300 0.5000
vt 0.0300 0.5000
vt 0.0300 0.5000
vt 0.0300 0.5000
vt 0.0300 0.5000
vt 0.0300 0.5000
vt 0.0300 0.5000
vt 0.0300 0.5000
vt 0.0300 0.5000
vt 0.0300 0.5000
vt 0.0300 0.5000
vt 0.0300 0.5000
vt 0.0300 0.5000
vt 0.0300 0.5000
vt 0.0300 0.5000
vt 0.0300 0.5000
vt 0.0300 0.5000
vt 0.0300 0.5000
vt 0.0300 0.5000
vt 0.0300 0.5000
vt 0.0300 0.5000
vt 0.0300 0.5000
vt 0.0300 0.5000
vt 0.0300 0.5000
vt 0.0300 0.5000
vt 0.0300 0.5000
vt 0.0300 0.5000
vt 0.0300 0.5000
vt 0.0300 0.5000
vt 0.0300 0.5000
vt 0.0300 0.5000
vt 0.0300 0.5000
vt 0.0300 0.5000
vt 0.0300 0.5000
vt 0.0300 0.5000
vt 0.0300 0.5000
vt 0.0300 0.5000
vt 0.0300 0.5000
vt 0.0300 0.5000
vt 0.0300 0.5000
vt 0.0300 0.5000
vt 0.0300 0.5000
vt 0.0300 0.5000
vt 0.0300 0.5000
vt 0.0300 0.5000
vt 0.0300 0.5000
vt 0.0300 0.5000
vt 0.0300 0.5000
vt 0.0300 0.5000
vt 0.0300 0.5000
vt 0.0300 0.5000
vt 0.0300 0.5000
vt 0.0300 0.5000
vt 0.0300 0.5000
vt 0.0300 0.5000
vt 0.0300 0.5000
vt 0.0300 0.5000
vt 0.0300 0.5000
vt 0.0300 0.5000
vt 0.0300 0.5000
vt 0.0300 0.5000
vt 0.0300 0.5000
vt 0.0300 0.5000
vt 0.0300 0.5000
vt 0.0300 0.5000
vt 0.0300 0.5000
vt 0.0300 0.5000
vt 0.0300 0.5000
vt 0.0300 0.5000
vt 0.0300 0.5000
vt 0.0300 0.5000
vt 0.0300 0.5000
vt 0.0300 0.5000
vt 0.0300 0.5000
vt 0.0300 0.5000
vt 0.0300 0.5000
vt 0.0300 0.5000
vt 0.0300 0.5000
vt 0.0300 0.5000
vt 0.0300 0.5000
vt 0.0300 0.5000
vt 0.0300 0.5000
vt 0.0300 0.5000
vt 0.0300 0.5000
vt 0.0300 0.5000
vt 0.0300 0.5000
vt 0.0300 0.5000
vt 0.0300 0.5000
vt 0.0300 0.5000
vt 0.0300 0.5000
vt 0.0300 0.5000
vt 0.0300 0.5000
vt 0.0300 0.5000
vt 0.0300 0.5000
vt 0.0300 0.5000
vt 0.0300 0.5000
vt 0.0300 0.5000
vt 0.0300 0.5000
vt 0.0300 0.5000
vt 0.0300 0.5000
vt 0.0300 0.5000
vt 0.0300 0.5000
vt 0.0300 0.5000
vt 0.0300 0.5000
vt 0.0300 0.5000
vt 0.0300 0.5000
vt 0.0300 0.5000
vt 0.0300 0.5000
vt 0.0300 0.5000
vt 0.0300 0.5000
vt 0.0300 0.5000
vt 0.0300 0.5000
vt 0.0300 0.5000
vt 0.0300 0.5000
vt 0.0300 0.5000
vt 0.0300 0.5000
vt 0.0300 0.5000
vt 0.0300 0.5000
vt 0.0300 0.5000
vt 0.0300 0.5000
vt 0.0300 0.5000
vt 0.0300 0.5000
vt 0.0300 0.5000
vt 0.0300 0.5000
vt 0.0300 0.5000
vt 0.0300 0.5000
vt 0.0300 0.5000
vt 0.0300 0.5000
vt 0.0300 0.5000
vt 0.0300 0.5000
vt 0.0300 0.5000
vt 0.0300 0.5000
vt 0.0300 0.5000
vt 0.0300 0.5000
vt 0.0300 0.5000
vt 0.0300 0.5000
vt 0.0300 0.5000
vn -0.8884 0.1737 -0.4249
vn -0.9914 0.1301 -0.0146
vn -0.8059 0.5919 -0.0145
vn -0.6604 0.5245 -0.5374
vn -0.9914 0.1301 -0.0146
vn -0.9015 0.1843 0.3915
vn -0.6787 0.5333 0.5049
vn -0.8059 0.5919 -0.0145
vn -0.8059 0.5919 -0.0145
vn -0.6787 0.5333 0.5049
vn -0.3299 0.8443 0.4222
vn -0.3240 0.9459 -0.0149
vn -0.6604 0.5245 -0.5374
vn -0.8059 0.5919 -0.0145
vn -0.3240 0.9459 -0.0149
vn -0.3117 0.8356 -0.4523
vn 0.5563 -0.7110 -0.4302
vn 0.6465 -0.7626 0.0206
vn 0.1240 -0.9923 0.0000
vn 0.1242 -0.8279 -0.5469
vn 0.6465 -0.7626 0.0206
vn 0.5229 -0.7152 0.4638
vn 0.0834 -0.8330 0.5469
vn 0.1240 -0.9923 0.0000
vn 0.1240 -0.9923 0.0000
vn 0.0834 -0.8330 0.5469
vn -0.3641 -0.8261 0.4302
vn -0.4389 -0.8983 -0.0206
vn 0.1242 -0.8279 -0.5469
vn 0.1240 -0.9923 0.0000
vn -0.4389 -0.8983 -0.0206
vn -0.3308 -0.8219 -0.4638
vn -0.6417 -0.2399 -0.7284
vn -0.9482 -0.3168 -0.0239
vn -0.9601 -0.2792 -0.0179
vn -0.7446 -0.1165 -0.6573
vn -0.9482 -0.3168 -0.0239
vn -0.7027 -0.1769 0.6892
vn -0.7797 -0.0881 0.6200
vn -0.9601 -0.2792 -0.0179
vn -0.9601 -0.2792 -0.0179
vn -0.7797 -0.0881 0.6200
vn -0.9015 0.1843 0.3915
vn -0.9914 0.1301 -0.0146
vn -0.7446 -0.1165 -0.6573
vn -0.9601 -0.2792 -0.0179
vn -0.9914 0.1301 -0.0146
vn -0.8884 0.1737 -0.4249
vn -0.7027 -0.1769 0.6892
vn -0.0563 0.1193 0.9913
vn -0.2958 0.3192 0.9003
vn -0.7797 -0.0881 0.6200
vn -0.0563 0.1193 0.9913
vn 0.5834 0.4284 0.6900
vn 0.2063 0.7490 0.6296
vn -0.2958 0.3192 0.9003
vn -0.2958 0.3192 0.9003
vn 0.2063 0.7490 0.6296
vn -0.3299 0.8443 0.4222
vn -0.6787 0.5333 0.5049
vn -0.7797 -0.0881 0.6200
vn -0.2958 0.3192 0.9003
vn -0.6787 0.5333 0.5049
vn -0.9015 0.1843 0.3915
vn 0.5834 0.4284 0.6900
vn 0.8467 0.5320 0.0086
vn 0.4234 0.9059 -0.0080
vn 0.2063 0.7490 0.6296
vn 0.8467 0.5320 0.0086
vn 0.6318 0.3779 -0.6768
vn 0.2399 0.7225 -0.6484
vn 0.4234 0.9059 -0.0080
vn 0.4234 0.9059 -0.0080
vn 0.2399 0.7225 -0.6484
vn -0.3117 0.8356 -0.4523
vn -0.3240 0.9459 -0.0149
vn 0.2063 0.7490 0.6296
vn 0.4234 0.9059 -0.0080
vn -0.3240 0.9459 -0.0149
vn -0.3299 0.8443 0.4222
vn 0.6318 0.3779 -0.6768
vn 0.0247 0.0422 -0.9988
vn -0.2450 0.2827 -0.9274
vn 0.2399 0.7225 -0.6484
vn 0.0247 0.0422 -0.9988
vn -0.6417 -0.2399 -0.7284
vn -0.7446 -0.1165 -0.6573
vn -0.2450 0.2827 -0.9274
vn -0.2450 0.2827 -0.9274
vn -0.7446 -0.1165 -0.6573
vn -0.8884 0.1737 -0.4249
vn -0.6604 0.5245 -0.5374
vn 0.2399 0.7225 -0.6484
vn -0.2450 0.2827 -0.9274
vn -0.6604 0.5245 -0.5374
vn -0.3117 0.8356 -0.4523
vn -0.6594 -0.2111 -0.7215
vn -0.9800 -0.1967 -0.0316
vn -0.9749 -0.2206 -0.0294
vn -0.6537 -0.2206 -0.7239
vn -0.9800 -0.1967 -0.0316
vn -0.7260 -0.1183 0.6774
vn -0.7209 -0.1331 0.6801
vn -0.9749 -0.2206 -0.0294
vn -0.9749 -0.2206 -0.0294
vn -0.7209 -0.1331 0.6801
vn -0.7027 -0.1769 0.6892
vn -0.9482 -0.3168 -0.0239
vn -0.6537 -0.2206 -0.7239
vn -0.9749 -0.2206 -0.0294
vn -0.9482 -0.3168 -0.0239
vn -0.6417 -0.2399 -0.7284
vn -0.7260 -0.1183 0.6774
vn -0.0313 0.0016 0.9995
vn -0.0235 0.0270 0.9994
vn -0.7209 -0.1331 0.6801
vn -0.0313 0.0016 0.9995
vn 0.6840 0.1032 0.7221
vn 0.6818 0.1886 0.7068
vn -0.0235 0.0270 0.9994
vn -0.0235 0.0270 0.9994
vn 0.6818 0.1886 0.7068
vn 0.5834 0.4284 0.6900
vn -0.0563 0.1193 0.9913
vn -0.7209 -0.1331 0.6801
vn -0.0235 0.0270 0.9994
vn -0.0563 0.1193 0.9913
vn -0.7027 -0.1769 0.6892
vn 0.6840 0.1032 0.7221
vn 0.9924 0.1172 0.0363
vn 0.9728 0.2303 0.0265
vn 0.6818 0.1886 0.7068
vn 0.9924 0.1172 0.0363
vn 0.7474 0.0188 -0.6641
vn 0.7407 0.1156 -0.6618
vn 0.9728 0.2303 0.0265
vn 0.9728 0.2303 0.0265
vn 0.7407 0.1156 -0.6618
vn 0.6318 0.3779 -0.6768
vn 0.8467 0.5320 0.0086
vn 0.6818 0.1886 0.7068
vn 0.9728 0.2303 0.0265
vn 0.8467 0.5320 0.0086
vn 0.5834 0.4284 0.6900
vn 0.7474 0.0188 -0.6641
vn 0.0654 -0.1241 -0.9901
vn 0.0733 -0.0854 -0.9936
vn 0.7407 0.1156 -0.6618
vn 0.0654 -0.1241 -0.9901
vn -0.6594 -0.2111 -0.7215
vn -0.6537 -0.2206 -0.7239
vn 0.0733 -0.0854 -0.9936
vn 0.0733 -0.0854 -0.9936
vn -0.6537 -0.2206 -0.7239
vn -0.6417 -0.2399 -0.7284
vn 0.0247 0.0422 -0.9988
vn 0.7407 0.1156 -0.6618
vn 0.0733 -0.0854 -0.9936
vn 0.0247 0.0422 -0.9988
vn 0.6318 0.3779 -0.6768
vn -0.6549 -0.2164 -0.7240
vn -0.9770 -0.2108 -0.0321
vn -0.9780 -0.2062 -0.0319
vn -0.6566 -0.2159 -0.7227
vn -0.9770 -0.2108 -0.0321
vn -0.7206 -0.1261 0.6818
vn -0.7226 -0.1237 0.6801
vn -0.9780 -0.2062 -0.0319
vn -0.9780 -0.2062 -0.0319
vn -0.7226 -0.1237 0.6801
vn -0.7260 -0.1183 0.6774
vn -0.9800 -0.1967 -0.0316
vn -0.6566 -0.2159 -0.7227
vn -0.9780 -0.2062 -0.0319
vn -0.9800 -0.1967 -0.0316
vn -0.6594 -0.2111 -0.7215
vn -0.7206 -0.1261 0.6818
vn -0.0365 -0.0046 0.9993
vn -0.0355 -0.0041 0.9994
vn -0.7226 -0.1237 0.6801
vn -0.0365 -0.0046 0.9993
vn 0.6751 0.0770 0.7337
vn 0.6777 0.0821 0.7307
vn -0.0355 -0.0041 0.9994
vn -0.0355 -0.0041 0.9994
vn 0.6777 0.0821 0.7307
vn 0.6840 0.1032 0.7221
vn -0.0313 0.0016 0.9995
vn -0.7226 -0.1237 0.6801
vn -0.0355 -0.0041 0.9994
vn -0.0313 0.0016 0.9995
vn -0.7260 -0.1183 0.6774
vn 0.6751 0.0770 0.7337
vn 0.9962 0.0767 0.0414
vn 0.9955 0.0855 0.0401
vn 0.6777 0.0821 0.7307
vn 0.9962 0.0767 0.0414
vn 0.7406 -0.0128 -0.6719
vn 0.7427 -0.0071 -0.6695
vn 0.9955 0.0855 0.0401
vn 0.9955 0.0855 0.0401
vn 0.7427 -0.0071 -0.6695
vn 0.7474 0.0188 -0.6641
vn 0.9924 0.1172 0.0363
vn 0.6777 0.0821 0.7307
vn 0.9955 0.0855 0.0401
vn 0.9924 0.1172 0.0363
vn 0.6840 0.1032 0.7221
vn 0.7406 -0.0128 -0.6719
vn 0.0563 -0.1319 -0.9897
vn 0.0586 -0.1325 -0.9894
vn 0.7427 -0.0071 -0.6695
vn 0.0563 -0.1319 -0.9897
vn -0.6549 -0.2164 -0.7240
vn -0.6566 -0.2159 -0.7227
vn 0.0586 -0.1325 -0.9894
vn 0.0586 -0.1325 -0.9894
vn -0.6566 -0.2159 -0.7227
vn -0.6594 -0.2111 -0.7215
vn 0.0654 -0.1241 -0.9901
vn 0.7427 -0.0071 -0.6695
vn 0.0586 -0.1325 -0.9894
vn 0.0654 -0.1241 -0.9901
vn 0.7474 0.0188 -0.6641
vn -0.6684 -0.1425 -0.7301
vn -0.9870 -0.1575 -0.0331
vn -0.9799 -0.1967 -0.0323
vn -0.6588 -0.1964 -0.7262
vn -0.9870 -0.1575 -0.0331
vn -0.7242 -0.0948 0.6830
vn -0.7212 -0.1176 0.6826
vn -0.9799 -0.1967 -0.0323
vn -0.9799 -0.1967 -0.0323
vn -0.7212 -0.1176 0.6826
vn -0.7206 -0.1261 0.6818
vn -0.9770 -0.2108 -0.0321
vn -0.6588 -0.1964 -0.7262
vn -0.9799 -0.1967 -0.0323
vn -0.9770 -0.2108 -0.0321
vn -0.6549 -0.2164 -0.7240
vn -0.7242 -0.0948 0.6830
vn -0.0382 0.0106 0.9992
vn -0.0370 -0.0003 0.9993
vn -0.7212 -0.1176 0.6826
vn -0.0382 0.0106 0.9992
vn 0.6718 0.0953 0.7346
vn 0.6738 0.0816 0.7344
vn -0.0370 -0.0003 0.9993
vn -0.0370 -0.0003 0.9993
vn 0.6738 0.0816 0.7344
vn 0.6751 0.0770 0.7337
vn -0.0365 -0.0046 0.9993
vn -0.7212 -0.1176 0.6826
vn -0.0370 -0.0003 0.9993
vn -0.0365 -0.0046 0.9993
vn -0.7206 -0.1261 0.6818
vn 0.6718 0.0953 0.7346
vn 0.9928 0.1122 0.0417
vn 0.9955 0.0855 0.0418
vn 0.6738 0.0816 0.7344
vn 0.9928 0.1122 0.0417
vn 0.7354 0.0488 -0.6759
vn 0.7393 0.0034 -0.6733
vn 0.9955 0.0855 0.0418
vn 0.9955 0.0855 0.0418
vn 0.7393 0.0034 -0.6733
vn 0.7406 -0.0128 -0.6719
vn 0.9962 0.0767 0.0414
vn 0.6738 0.0816 0.7344
vn 0.9955 0.0855 0.0418
vn 0.9962 0.0767 0.0414
vn 0.6751 0.0770 0.7337
vn 0.7354 0.0488 -0.6759
vn 0.0463 -0.0559 -0.9974
vn 0.0534 -0.1112 -0.9924
vn 0.7393 0.0034 -0.6733
vn 0.0463 -0.0559 -0.9974
vn -0.6684 -0.1425 -0.7301
vn -0.6588 -0.1964 -0.7262
vn 0.0534 -0.1112 -0.9924
vn 0.0534 -0.1112 -0.9924
vn -0.6588 -0.1964 -0.7262
vn -0.6549 -0.2164 -0.7240
vn 0.0563 -0.1319 -0.9897
vn 0.7393 0.0034 -0.6733
vn 0.0534 -0.1112 -0.9924
vn 0.0563 -0.1319 -0.9897
vn 0.7406 -0.0128 -0.6719
vn -0.6784 -0.0532 -0.7328
vn -0.9950 -0.0929 -0.0374
vn -0.9929 -0.1136 -0.0355
vn -0.6760 -0.0817 -0.7324
vn -0.9950 -0.0929 -0.0374
vn -0.7311 -0.0579 0.6798
vn -0.7285 -0.0697 0.6815
vn -0.9929 -0.1136 -0.0355
vn -0.9929 -0.1136 -0.0355
vn -0.7285 -0.0697 0.6815
vn -0.7242 -0.0948 0.6830
vn -0.9870 -0.1575 -0.0331
vn -0.6760 -0.0817 -0.7324
vn -0.9929 -0.1136 -0.0355
vn -0.9870 -0.1575 -0.0331
vn -0.6684 -0.1425 -0.7301
vn -0.7311 -0.0579 0.6798
vn -0.0413 0.0282 0.9987
vn -0.0401 0.0226 0.9989
vn -0.7285 -0.0697 0.6815
vn -0.0413 0.0282 0.9987
vn 0.6700 0.1179 0.7329
vn 0.6703 0.1106 0.7338
vn -0.0401 0.0226 0.9989
vn -0.0401 0.0226 0.9989
vn 0.6703 0.1106 0.7338
vn 0.6718 0.0953 0.7346
vn -0.0382 0.0106 0.9992
vn -0.7285 -0.0697 0.6815
vn -0.0401 0.0226 0.9989
vn -0.0382 0.0106 0.9992
vn -0.7242 -0.0948 0.6830
vn 0.6700 0.1179 0.7329
vn 0.9871 0.1557 0.0378
vn 0.9891 0.1417 0.0397
vn 0.6703 0.1106 0.7338
vn 0.9871 0.1557 0.0378
vn 0.7233 0.1225 -0.6795
vn 0.7280 0.0991 -0.6783
vn 0.9891 0.1417 0.0397
vn 0.9891 0.1417 0.0397
vn 0.7280 0.0991 -0.6783
vn 0.7354 0.0488 -0.6759
vn 0.9928 0.1122 0.0417
vn 0.6703 0.1106 0.7338
vn 0.9891 0.1417 0.0397
vn 0.9928 0.1122 0.0417
vn 0.6718 0.0953 0.7346
vn 0.7233 0.1225 -0.6795
vn 0.0336 0.0348 -0.9988
vn 0.0378 0.0059 -0.9993
vn 0.7280 0.0991 -0.6783
vn 0.0336 0.0348 -0.9988
vn -0.6784 -0.0532 -0.7328
vn -0.6760 -0.0817 -0.7324
vn 0.0378 0.0059 -0.9993
vn 0.0378 0.0059 -0.9993
vn -0.6760 -0.0817 -0.7324
vn -0.6684 -0.1425 -0.7301
vn 0.0463 -0.0559 -0.9974
vn 0.7280 0.0991 -0.6783
vn 0.0378 0.0059 -0.9993
vn 0.0463 -0.0559 -0.9974
vn 0.7354 0.0488 -0.6759
vn -0.6787 -0.0495 -0.7328
vn -0.9952 -0.0900 -0.0376
vn -0.9952 -0.0900 -0.0376
vn -0.6787 -0.0494 -0.7328
vn -0.9952 -0.0900 -0.0376
vn -0.7314 -0.0561 0.6796
vn -0.7315 -0.0561 0.6796
vn -0.9952 -0.0900 -0.0376
vn -0.9952 -0.0900 -0.0376
vn -0.7315 -0.0561 0.6796
vn -0.7311 -0.0579 0.6798
vn -0.9950 -0.0929 -0.0374
vn -0.6787 -0.0494 -0.7328
vn -0.9952 -0.0900 -0.0376
vn -0.9950 -0.0929 -0.0374
vn -0.6784 -0.0532 -0.7328
vn -0.7314 -0.0561 0.6796
vn -0.0415 0.0292 0.9987
vn -0.0415 0.0291 0.9987
vn -0.7315 -0.0561 0.6796
vn -0.0415 0.0292 0.9987
vn 0.6700 0.1191 0.7327
vn 0.6700 0.1190 0.7327
vn -0.0415 0.0291 0.9987
vn -0.0415 0.0291 0.9987
vn 0.6700 0.1190 0.7327
vn 0.6700 0.1179 0.7329
vn -0.0413 0.0282 0.9987
vn -0.7315 -0.0561 0.6796
vn -0.0415 0.0291 0.9987
vn -0.0413 0.0282 0.9987
vn -0.7311 -0.0579 0.6798
vn 0.6700 0.1191 0.7327
vn 0.9868 0.1577 0.0376
vn 0.9868 0.1577 0.0375
vn 0.6700 0.1190 0.7327
vn 0.9868 0.1577 0.0376
vn 0.7227 0.1257 -0.6796
vn 0.7227 0.1257 -0.6796
vn 0.9868 0.1577 0.0375
vn 0.9868 0.1577 0.0375
vn 0.7227 0.1257 -0.6796
vn 0.7233 0.1225 -0.6795
vn 0.9871 0.1557 0.0378
vn 0.6700 0.1190 0.7327
vn 0.9868 0.1577 0.0375
vn 0.9871 0.1557 0.0378
vn 0.6700 0.1179 0.7329
vn 0.7227 0.1257 -0.6796
vn 0.0331 0.0385 -0.9987
vn 0.0330 0.0386 -0.9987
vn 0.7227 0.1257 -0.6796
vn 0.0331 0.0385 -0.9987
vn -0.6787 -0.0495 -0.7328
vn -0.6787 -0.0494 -0.7328
vn 0.0330 0.0386 -0.9987
vn 0.0330 0.0386 -0.9987
vn -0.6787 -0.0494 -0.7328
vn -0.6784 -0.0532 -0.7328
vn 0.0336 0.0348 -0.9988
vn 0.7227 0.1257 -0.6796
vn 0.0330 0.0386 -0.9987
vn 0.0336 0.0348 -0.9988
vn 0.7233 0.1225 -0.6795
vn -0.6784 -0.0522 -0.7328
vn -0.9950 -0.0926 -0.0376
vn -0.9952 -0.0900 -0.0376
vn -0.6787 -0.0495 -0.7327
vn -0.9950 -0.0926 -0.0376
vn -0.7312 -0.0588 0.6797
vn -0.7314 -0.0561 0.6796
vn -0.9952 -0.0900 -0.0376
vn -0.9952 -0.0900 -0.0376
vn -0.7314 -0.0561 0.6796
vn -0.7314 -0.0561 0.6796
vn -0.9952 -0.0900 -0.0376
vn -0.6787 -0.0495 -0.7327
vn -0.9952 -0.0900 -0.0376
vn -0.9952 -0.0900 -0.0376
vn -0.6787 -0.0495 -0.7328
vn -0.7312 -0.0588 0.6797
vn -0.0412 0.0266 0.9988
vn -0.0415 0.0292 0.9987
vn -0.7314 -0.0561 0.6796
vn -0.0412 0.0266 0.9988
vn 0.6704 0.1164 0.7328
vn 0.6700 0.1191 0.7327
vn -0.0415 0.0292 0.9987
vn -0.0415 0.0292 0.9987
vn 0.6700 0.1191 0.7327
vn 0.6700 0.1191 0.7327
vn -0.0415 0.0292 0.9987
vn -0.7314 -0.0561 0.6796
vn -0.0415 0.0292 0.9987
vn -0.0415 0.0292 0.9987
vn -0.7314 -0.0561 0.6796
vn 0.6704 0.1164 0.7328
vn 0.9872 0.1551 0.0376
vn 0.9868 0.1577 0.0376
vn 0.6700 0.1191 0.7327
vn 0.9872 0.1551 0.0376
vn 0.7231 0.1230 -0.6797
vn 0.7227 0.1257 -0.6796
vn 0.9868 0.1577 0.0376
vn 0.9868 0.1577 0.0376
vn 0.7227 0.1257 -0.6796
vn 0.7227 0.1257 -0.6796
vn 0.9868 0.1577 0.0376
vn 0.6700 0.1191 0.7327
vn 0.9868 0.1577 0.0376
vn 0.9868 0.1577 0.0376
vn 0.6700 0.1191 0.7327
vn 0.7231 0.1230 -0.6797
vn 0.0334 0.0359 -0.9988
vn 0.0331 0.0385 -0.9987
vn 0.7227 0.1257 -0.6796
vn 0.0334 0.0359 -0.9988
vn -0.6784 -0.0522 -0.7328
vn -0.6787 -0.0495 -0.7327
vn 0.0331 0.0385 -0.9987
vn 0.0331 0.0385 -0.9987
vn -0.6787 -0.0495 -0.7327
vn -0.6787 -0.0495 -0.7328
vn 0.0331 0.0385 -0.9987
vn 0.7227 0.1257 -0.6796
vn 0.0331 0.0385 -0.9987
vn 0.0331 0.0385 -0.9987
vn 0.7227 0.1257 -0.6796
vn -0.6638 -0.1574 -0.7312
vn -0.9801 -0.1951 -0.0375
vn -0.9929 -0.1127 -0.0376
vn -0.6762 -0.0728 -0.7332
vn -0.9801 -0.1951 -0.0375
vn -0.7164 -0.1639 0.6782
vn -0.7289 -0.0794 0.6800
vn -0.9929 -0.1127 -0.0376
vn -0.9929 -0.1127 -0.0376
vn -0.7289 -0.0794 0.6800
vn -0.7312 -0.0588 0.6797
vn -0.9950 -0.0926 -0.0376
vn -0.6762 -0.0728 -0.7332
vn -0.9929 -0.1127 -0.0376
vn -0.9950 -0.0926 -0.0376
vn -0.6784 -0.0522 -0.7328
vn -0.7164 -0.1639 0.6782
vn -0.0283 -0.0761 0.9967
vn -0.0387 0.0066 0.9992
vn -0.7289 -0.0794 0.6800
vn -0.0283 -0.0761 0.9967
vn 0.6821 0.0109 0.7312
vn 0.6733 0.0959 0.7332
vn -0.0387 0.0066 0.9992
vn -0.0387 0.0066 0.9992
vn 0.6733 0.0959 0.7332
vn 0.6704 0.1164 0.7328
vn -0.0412 0.0266 0.9988
vn -0.7289 -0.0794 0.6800
vn -0.0387 0.0066 0.9992
vn -0.0412 0.0266 0.9988
vn -0.7312 -0.0588 0.6797
vn 0.6821 0.0109 0.7312
vn 0.9979 0.0522 0.0375
vn 0.9901 0.1352 0.0376
vn 0.6733 0.0959 0.7332
vn 0.9979 0.0522 0.0375
vn 0.7347 0.0175 -0.6782
vn 0.7260 0.1025 -0.6800
vn 0.9901 0.1352 0.0376
vn 0.9901 0.1352 0.0376
vn 0.7260 0.1025 -0.6800
vn 0.7231 0.1230 -0.6797
vn 0.9872 0.1551 0.0376
vn 0.6733 0.0959 0.7332
vn 0.9901 0.1352 0.0376
vn 0.9872 0.1551 0.0376
vn 0.6704 0.1164 0.7328
vn 0.7347 0.0175 -0.6782
vn 0.0462 -0.0668 -0.9967
vn 0.0359 0.0159 -0.9992
vn 0.7260 0.1025 -0.6800
vn 0.0462 -0.0668 -0.9967
vn -0.6638 -0.1574 -0.7312
vn -0.6762 -0.0728 -0.7332
vn 0.0359 0.0159 -0.9992
vn 0.0359 0.0159 -0.9992
vn -0.6762 -0.0728 -0.7332
vn -0.6784 -0.0522 -0.7328
vn 0.0334 0.0359 -0.9988
vn 0.7260 0.1025 -0.6800
vn 0.0359 0.0159 -0.9992
vn 0.0334 0.0359 -0.9988
vn 0.7231 0.1230 -0.6797
vn -0.3308 -0.8219 -0.4638
vn -0.4389 -0.8983 -0.0206
vn -0.8782 -0.4770 -0.0350
vn -0.5805 -0.4466 -0.6808
vn -0.4389 -0.8983 -0.0206
vn -0.3641 -0.8261 0.4302
vn -0.6295 -0.4528 0.6314
vn -0.8782 -0.4770 -0.0350
vn -0.8782 -0.4770 -0.0350
vn -0.6295 -0.4528 0.6314
vn -0.7164 -0.1639 0.6782
vn -0.9801 -0.1951 -0.0375
vn -0.5805 -0.4466 -0.6808
vn -0.8782 -0.4770 -0.0350
vn -0.9801 -0.1951 -0.0375
vn -0.6638 -0.1574 -0.7312
vn -0.3641 -0.8261 0.4302
vn 0.0834 -0.8330 0.5469
vn 0.0104 -0.3659 0.9306
vn -0.6295 -0.4528 0.6314
vn 0.0834 -0.8330 0.5469
vn 0.5229 -0.7152 0.4638
vn 0.6726 -0.2900 0.6808
vn 0.0104 -0.3659 0.9306
vn 0.0104 -0.3659 0.9306
vn 0.6726 -0.2900 0.6808
vn 0.6821 0.0109 0.7312
vn -0.0283 -0.0761 0.9967
vn -0.6295 -0.4528 0.6314
vn 0.0104 -0.3659 0.9306
vn -0.0283 -0.0761 0.9967
vn -0.7164 -0.1639 0.6782
vn 0.5229 -0.7152 0.4638
vn 0.6465 -0.7626 0.0206
vn 0.9686 -0.2461 0.0350
vn 0.6726 -0.2900 0.6808
vn 0.6465 -0.7626 0.0206
vn 0.5563 -0.7110 -0.4302
vn 0.7216 -0.2839 -0.6314
vn 0.9686 -0.2461 0.0350
vn 0.9686 -0.2461 0.0350
vn 0.7216 -0.2839 -0.6314
vn 0.7347 0.0175 -0.6782
vn 0.9979 0.0522 0.0375
vn 0.6726 -0.2900 0.6808
vn 0.9686 -0.2461 0.0350
vn 0.9979 0.0522 0.0375
vn 0.6821 0.0109 0.7312
vn 0.5563 -0.7110 -0.4302
vn 0.1242 -0.8279 -0.5469
vn 0.0799 -0.3572 -0.9306
vn 0.7216 -0.2839 -0.6314
vn 0.1242 -0.8279 -0.5469
vn -0.3308 -0.8219 -0.4638
vn -0.5805 -0.4466 -0.6808
vn 0.0799 -0.3572 -0.9306
vn 0.0799 -0.3572 -0.9306
vn -0.5805 -0.4466 -0.6808
vn -0.6638 -0.1574 -0.7312
vn 0.0462 -0.0668 -0.9967
vn 0.7216 -0.2839 -0.6314
vn 0.0799 -0.3572 -0.9306
vn 0.0462 -0.0668 -0.9967
vn 0.7347 0.0175 -0.6782
f 1/1/1 42/2/2 117/3/3 41/4/4
f 42/5/5 2/6/6 43/7/7 117/8/8
f 117/9/9 43/10/10 3/11/11 44/12/12
f 41/13/13 117/14/14 44/15/15 4/16/16
f 20/17/17 46/18/18 118/19/19 45/20/20
f 46/21/21 19/22/22 47/23/23 118/24/24
f 118/25/25 47/26/26 18/27/27 48/28/28
f 45/29/29 118/30/30 48/31/31 17/32/32
f 5/33/33 50/34/34 119/35/35 49/36/36
f 50/37/37 6/38/38 51/39/39 119/40/40
f 119/41/41 51/42/42 2/43/43 42/44/44
f 49/45/45 119/46/46 42/47/47 1/48/48
f 6/49/49 52/50/50 120/51/51 51/52/52
f 52/53/53 7/54/54 53/55/55 120/56/56
f 120/57/57 53/58/58 3/59/59 43/60/60
f 51/61/61 120/62/62 43/63/63 2/64/64
f 7/65/65 54/66/66 121/67/67 53/68/68
f 54/69/69 8/70/70 55/71/71 121/72/72
f 121/73/73 55/74/74 4/75/75 44/76/76
f 53/77/77 121/78/78 44/79/79 3/80/80
f 8/81/81 56/82/82 122/83/83 55/84/84
f 56/85/85 5/86/86 49/87/87 122/88/88
f 122/89/89 49/90/90 1/91/91 41/92/92
f 55/93/93 122/94/94 41/95/95 4/96/96
f 21/97/97 58/98/98 123/99/99 57/100/100
f 58/101/101 22/102/102 59/103/103 123/104/104
f 123/105/105 59/106/106 6/107/107 50/108/108
f 57/109/109 123/110/110 50/111/111 5/112/112
f 22/113/113 60/114/114 124/115/115 59/116/116
f 60/117/117 23/118/118 61/119/119 124/120/120
f 124/121/121 61/122/122 7/123/123 52/124/124
f 59/125/125 124/126/126 52/127/127 6/128/128
f 23/129/129 62/130/130 125/131/131 61/132/132
f 62/133/133 24/134/134 63/135/135 125/136/136
f 125/137/137 63/138/138 8/139/139 54/140/140
f 61/141/141 125/142/142 54/143/143 7/144/144
f 24/145/145 64/146/146 126/147/147 63/148/148
f 64/149/149 21/150/150 57/151/151 126/152/152
f 126/153/153 57/154/154 5/155/155 56/156/156
f 63/157/157 126/158/158 56/159/159 8/160/160
f 25/161/161 66/162/162 127/163/163 65/164/164
f 66/165/165 26/166/166 67/167/167 127/168/168
f 127/169/169 67/170/170 22/171/171 58/172/172
f 65/173/173 127/174/174 58/175/175 21/176/176
f 26/177/177 68/178/178 128/179/179 67/180/180
f 68/181/181 27/182/182 69/183/183 128/184/184
f 128/185/185 69/186/186 23/187/187 60/188/188
f 67/189/189 128/190/190 60/191/191 22/192/192
f 27/193/193 70/194/194 129/195/195 69/196/196
f 70/197/197 28/198/198 71/199/199 129/200/200
f 129/201/201 71/202/202 24/203/203 62/204/204
f 69/205/205 129/206/206 62/207/207 23/208/208
f 28/209/209 72/210/210 130/211/211 71/212/212
f 72/213/213 25/214/214 65/215/215 130/216/216
f 130/217/217 65/218/218 21/219/219 64/220/220
f 71/221/221 130/222/222 64/223/223 24/224/224
f 9/225/225 74/226/226 131/227/227 73/228/228
f 74/229/229 10/230/230 75/231/231 131/232/232
f 131/233/233 75/234/234 26/235/235 66/236/236
f 73/237/237 131/238/238 66/239/239 25/240/240
f 10/241/241 76/242/242 132/243/243 75/244/244
f 76/245/245 11/246/246 77/247/247 132/248/248
f 132/249/249 77/250/250 27/251/251 68/252/252
f 75/253/253 132/254/254 68/255/255 26/256/256
f 11/257/257 78/258/258 133/259/259 77/260/260
f 78/261/261 12/262/262 79/263/263 133/264/264
f 133/265/265 79/266/266 28/267/267 70/268/268
f 77/269/269 133/270/270 70/271/271 27/272/272
f 12/273/273 80/274/274 134/275/275 79/276/276
f 80/277/277 9/278/278 73/279/279 134/280/280
f 134/281/281 73/282/282 25/283/283 72/284/284
f 79/285/285 134/286/286 72/287/287 28/288/288
f 29/289/289 82/290/290 135/291/291 81/292/292
f 82/293/293 30/294/294 83/295/295 135/296/296
f 135/297/297 83/298/298 10/299/299 74/300/300
f 81/301/301 135/302/302 74/303/303 9/304/304
f 30/305/305 84/306/306 136/307/307 83/308/308
f 84/309/309 31/310/310 85/311/311 136/312/312
f 136/313/313 85/314/314 11/315/315 76/316/316
f 83/317/317 136/318/318 76/319/319 10/320/320
f 31/321/321 86/322/322 137/323/323 85/324/324
f 86/325/325 32/326/326 87/327/327 137/328/328
f 137/329/329 87/330/330 12/331/331 78/332/332
f 85/333/333 137/334/334 78/335/335 11/336/336
f 32/337/337 88/338/338 138/339/339 87/340/340
f 88/341/341 29/342/342 81/343/343 138/344/344
f 138/345/345 81/346/346 9/347/347 80/348/348
f 87/349/349 138/350/350 80/351/351 12/352/352
f 33/353/353 90/354/354 139/355/355 89/356/356
f 90/357/357 34/358/358 91/359/359 139/360/360
f 139/361/361 91/362/362 30/363/363 82/364/364
f 89/365/365 139/366/366 82/367/367 29/368/368
f 34/369/369 92/370/370 140/371/371 91/372/372
f 92/373/373 35/374/374 93/375/375 140/376/376
f 140/377/377 93/378/378 31/379/379 84/380/380
f 91/381/381 140/382/382 84/383/383 30/384/384
f 35/385/385 94/386/386 141/387/387 93/388/388
f 94/389/389 36/390/390 95/391/391 141/392/392
f 141/393/393 95/394/394 32/395/395 86/396/396
f 93/397/397 141/398/398 86/399/399 31/400/400
f 36/401/401 96/402/402 142/403/403 95/404/404
f 96/405/405 33/406/406 89/407/407 142/408/408
f 142/409/409 89/410/410 29/411/411 88/412/412
f 95/413/413 142/414/414 88/415/415 32/416/416
f 37/417/417 98/418/418 143/419/419 97/420/420
f 98/421/421 38/422/422 99/423/423 143/424/424
f 143/425/425 99/426/426 34/427/427 90/428/428
f 97/429/429 143/430/430 90/431/431 33/432/432
f 38/433/433 100/434/434 144/435/435 99/436/436
f 100/437/437 39/438/438 101/439/439 144/440/440
f 144/441/441 101/442/442 35/443/443 92/444/444
f 99/445/445 144/446/446 92/447/447 34/448/448
f 39/449/449 102/450/450 145/451/451 101/452/452
f 102/453/453 40/454/454 103/455/455 145/456/456
f 145/457/457 103/458/458 36/459/459 94/460/460
f 101/461/461 145/462/462 94/463/463 35/464/464
f 40/465/465 104/466/466 146/467/467 103/468/468
f 104/469/469 37/470/470 97/471/471 146/472/472
f 146/473/473 97/474/474 33/475/475 96/476/476
f 103/477/477 146/478/478 96/479/479 36/480/480
f 13/481/481 106/482/482 147/483/483 105/484/484
f 106/485/485 14/486/486 107/487/487 147/488/488
f 147/489/489 107/490/490 38/491/491 98/492/492
f 105/493/493 147/494/494 98/495/495 37/496/496
f 14/497/497 108/498/498 148/499/499 107/500/500
f 108/501/501 15/502/502 109/503/503 148/504/504
f 148/505/505 109/506/506 39/507/507 100/508/508
f 107/509/509 148/510/510 100/511/511 38/512/512
f 15/513/513 110/514/514 149/515/515 109/516/516
f 110/517/517 16/518/518 111/519/519 149/520/520
f 149/521/521 111/522/522 40/523/523 102/524/524
f 109/525/525 149/526/526 102/527/527 39/528/528
f 16/529/529 112/530/530 150/531/531 111/532/532
f 112/533/533 13/534/534 105/535/535 150/536/536
f 150/537/537 105/538/538 37/539/539 104/540/540
f 111/541/541 150/542/542 104/543/543 40/544/544
f 17/545/545 48/546/546 151/547/547 113/548/548
f 48/549/549 18/550/550 114/551/551 151/552/552
f 151/553/553 114/554/554 14/555/555 106/556/556
f 113/557/557 151/558/558 106/559/559 13/560/560
f 18/561/561 47/562/562 152/563/563 114/564/564
f 47/565/565 19/566/566 115/567/567 152/568/568
f 152/569/569 115/570/570 15/571/571 108/572/572
f 114/573/573 152/574/574 108/575/575 14/576/576
f 19/577/577 46/578/578 153/579/579 115/580/580
f 46/581/581 20/582/582 116/583/583 153/584/584
f 153/585/585 116/586/586 16/587/587 110/588/588
f 115/589/589 153/590/590 110/591/591 15/592/592
f 20/593/593 45/594/594 154/595/595 116/596/596
f 45/597/597 17/598/598 113/599/599 154/600/600
f 154/601/601 113/602/602 13/603/603 112/604/604
f 116/605/605 154/606/606 112/607/607 16/608/608
